<svg width="52" height="76" viewBox="0 0 52 76" fill="none" xmlns="http://www.w3.org/2000/svg">
<path d="M4.74318 0.00401612C3.15976 -0.0150332 1.57813 0.0505516 0 0.149363C0 25.3871 0 50.6249 0 75.8627C3.02989 76.0769 6.08841 76.0384 9.11004 75.7616C9.99369 72.7853 10.8993 69.8132 11.7913 66.8385C16.4276 66.0611 20.8807 64.5971 24.8527 62.5287C28.0934 64.1188 31.3328 65.7107 34.5743 67.2998C36.9327 65.7983 39.0839 64.1238 41.0422 62.2948C39.0628 59.6661 37.0745 57.0416 35.0917 54.4145C37.676 51.1843 39.5865 47.5695 40.4699 43.7852C44.1783 43.0609 47.886 42.334 51.5948 41.6113C51.8211 39.2007 51.7922 36.7751 51.5007 34.3692C47.8163 33.6477 44.1311 32.9285 40.4464 32.2079C39.5358 28.427 37.7316 24.7837 35.076 21.5849C37.0652 18.9584 39.0511 16.3302 41.0422 13.7046C39.133 11.8419 37.0012 10.1674 34.6762 8.6427C31.3929 10.2585 28.106 11.8695 24.8213 13.4834C20.8744 11.3705 16.417 9.86276 11.7756 9.09139C10.8771 6.10641 9.97506 3.12212 9.07867 0.136725C7.63625 0.0490794 6.19031 -0.0173062 4.74318 0.00401612V0.00401612ZM12.003 17.0665C23.4901 19.6447 32.1436 28.9297 31.5637 38.6032C31.2727 47.7771 23.2083 56.5216 12.1127 58.8634C11.5849 58.1451 12.0338 56.3925 11.884 55.2739C11.8793 42.5297 11.8745 29.7855 11.8697 17.0413L12.003 17.0665H12.003Z" fill="url(#paint0_linear)"/>
<defs>
<linearGradient id="paint0_linear" x1="3.488" y1="47.7235" x2="3.488" y2="-87.0153" gradientUnits="userSpaceOnUse">
<stop stop-color="#008100"/>
<stop offset="1" stop-color="#008000" stop-opacity="0"/>
</linearGradient>
</defs>
</svg>
