<svg width="82" height="76" viewBox="0 0 82 76" fill="none" xmlns="http://www.w3.org/2000/svg">
<path d="M30.9717 35.6814C23.4745 31.3496 19.8091 22.5195 22.0583 14.1615C24.3075 5.80343 31.8881 0 40.5238 0C49.1873 0 56.7678 5.80343 58.9893 14.1615C61.2384 22.5195 57.5731 31.3496 50.0759 35.6814L44.328 25.7128C47.2991 23.9912 48.7708 20.4925 47.8822 17.1604C46.9936 13.8283 43.967 11.5236 40.5238 11.5236C37.0806 11.5236 34.0539 13.8283 33.1654 17.1604C32.2768 20.4925 33.7207 23.9912 36.7196 25.7128L30.9717 35.6814Z" fill="#FF0101"/>
<path d="M71.9291 40.3186C79.4264 44.6504 83.0917 53.4805 80.8425 61.8385C78.5933 70.1966 71.0128 76 62.3771 76C53.7413 76 46.133 70.1966 43.9116 61.8385C41.6624 53.4805 45.3277 44.6504 52.825 40.3186L58.5729 50.2872C55.6017 52.0088 54.1301 55.5075 55.0186 58.8396C55.9072 62.1717 58.9339 64.4765 62.3771 64.4765C65.8202 64.4765 68.8469 62.1717 69.7355 58.8396C70.624 55.5075 69.1801 52.0088 66.1812 50.2872L71.9291 40.3186Z" fill="#0101FF"/>
<path d="M38.2467 56.8681C38.2467 65.5316 32.4433 73.1121 24.0852 75.3336C15.7272 77.5827 6.89708 73.9174 2.56533 66.4201C-1.76642 58.9229 -0.516877 49.4541 5.592 43.3452C11.7009 37.2364 21.1696 35.9868 28.6669 40.3186L22.919 50.2872C19.9479 48.5656 16.1715 49.0654 13.7279 51.5089C11.2844 53.9525 10.7845 57.7011 12.5061 60.7C14.2277 63.6712 17.7265 65.1428 21.0586 64.2543C24.3907 63.3657 26.6954 60.339 26.6954 56.8958H38.2467V56.8681Z" fill="#01FF01"/>
</svg>
