<svg width="70" height="70" viewBox="0 0 70 70" fill="none" xmlns="http://www.w3.org/2000/svg">
<circle cx="35" cy="35" r="34.5" stroke="white"/>
<g clip-path="url(#clip0)">
<path d="M23.0759 25.2016L24.6765 28.0025C24.7305 28.0971 24.8209 28.1656 24.9266 28.1921L26.4198 28.5654L31.5415 33.6871L32.1074 33.1214L26.9056 27.9197C26.8544 27.8683 26.7902 27.832 26.7199 27.8144L25.2851 27.4544L23.9223 25.0683L25.0907 23.8999L27.4778 25.264L27.8379 26.6988C27.8554 26.7693 27.8919 26.8336 27.9431 26.8848L33.1449 32.0866L33.7106 31.5207L28.589 26.3991L28.2157 24.9066C28.1892 24.8008 28.1207 24.7103 28.026 24.6561L25.225 23.0557C25.0688 22.9668 24.8722 22.9931 24.7448 23.12L23.1444 24.7206C23.0157 24.8472 22.9877 25.0441 23.0759 25.2016Z" fill="white"/>
<path d="M39.7116 30.8861L30.9088 39.6891L30.3429 39.1232L39.1459 30.3203L39.7116 30.8861Z" fill="white"/>
<path d="M29.3681 40.0005C29.2957 39.88 29.1656 39.8064 29.0251 39.8064H26.6243C26.4839 39.8064 26.3537 39.88 26.2814 40.0005L25.081 42.0011C25.0048 42.1278 25.0048 42.2863 25.081 42.4132L26.2814 44.4138C26.3537 44.5342 26.4839 44.6079 26.6243 44.6079H29.0251C29.1656 44.6079 29.2957 44.5342 29.3681 44.4138L30.5684 42.4132C30.6446 42.2863 30.6446 42.1278 30.5684 42.0011L29.3681 40.0005ZM28.7987 43.8076H26.8508L25.8905 42.2072L26.8508 40.6065H28.7987L29.759 42.2072L28.7987 43.8076Z" fill="white"/>
<path d="M42.2294 32.604C44.8721 32.6129 47.0218 30.4776 47.0307 27.8349C47.032 27.4326 46.9827 27.032 46.8837 26.642C46.8304 26.4275 46.6133 26.297 46.3988 26.3503C46.3284 26.368 46.2642 26.4043 46.2128 26.4555L43.722 28.9447L41.7458 28.2861L41.0867 26.3103L43.5775 23.8191C43.7337 23.6627 43.7335 23.4094 43.5772 23.2532C43.5257 23.2016 43.4608 23.1651 43.3899 23.1476C40.827 22.4986 38.2234 24.05 37.5744 26.6127C37.4758 27.0015 37.4266 27.4012 37.4279 27.8023C37.4289 28.1174 37.4613 28.4314 37.5252 28.7399L28.7622 37.5028C28.4537 37.4391 28.1396 37.4066 27.8247 37.4055C25.1728 37.4055 23.0231 39.5552 23.0231 42.2071C23.0231 44.8589 25.1728 47.0086 27.8247 47.0086C30.4765 47.0086 32.6262 44.8589 32.6262 42.2071C32.6253 41.8921 32.5927 41.578 32.529 41.2696L34.6268 39.1717L35.5443 40.0892C35.7007 40.2454 35.9539 40.2454 36.1102 40.0892L36.3102 39.889C36.4857 39.7147 36.7693 39.7147 36.9448 39.889C37.1201 40.0638 37.1204 40.3476 36.9456 40.5229C36.9454 40.5231 36.9451 40.5234 36.9448 40.5237L36.7448 40.7237C36.5886 40.8799 36.5886 41.1333 36.7448 41.2895L41.518 46.0627C42.7734 47.3296 44.8181 47.3388 46.0851 46.0834C47.3519 44.828 47.3611 42.7831 46.1057 41.5163C46.0989 41.5094 46.092 41.5025 46.0851 41.4956L41.3119 36.7225C41.1557 36.5663 40.9024 36.5663 40.7462 36.7225L40.5462 36.9225C40.3705 37.097 40.0871 37.097 39.9114 36.9225C39.7363 36.7477 39.7358 36.4639 39.9106 36.2888C39.911 36.2885 39.9113 36.2883 39.9114 36.288L40.1116 36.0878C40.2678 35.9316 40.2678 35.6783 40.1116 35.5221L39.1941 34.6046L41.292 32.5067C41.6004 32.5704 41.9145 32.603 42.2294 32.604ZM43.8015 46.2085C43.5108 46.208 43.2226 46.1555 42.9505 46.0533L46.0755 42.9281C46.5471 44.1826 45.9126 45.5817 44.6581 46.0533C44.3844 46.1562 44.0942 46.2088 43.8015 46.2085ZM39.2685 35.809C38.8254 36.3375 38.8949 37.1253 39.4234 37.5683C39.8879 37.9576 40.5649 37.9572 41.0289 37.5671L45.5193 42.0615C45.5681 42.1104 45.6137 42.1619 45.6578 42.2142L42.2366 45.6354C42.1841 45.5914 42.1326 45.5458 42.0837 45.4969L37.5899 41.0027C38.033 40.4742 37.9635 39.6864 37.435 39.2435C36.9705 38.854 36.2933 38.8545 35.8293 39.2444L35.1891 38.6043L38.6282 35.1703L39.2685 35.809ZM40.8843 31.7846L31.8072 40.8599C31.7076 40.9593 31.6676 41.1036 31.7015 41.2401C32.2505 43.3959 30.9478 45.5886 28.7918 46.1374C26.636 46.6864 24.4433 45.3837 23.8943 43.2277C23.3455 41.0719 24.6482 38.8792 26.8042 38.3302C27.4564 38.1643 28.1396 38.1643 28.7918 38.3302C28.9283 38.3636 29.0723 38.3236 29.172 38.2247L38.247 29.1493C38.3464 29.0499 38.3864 28.9055 38.3522 28.7692C37.807 26.6386 39.0922 24.4694 41.2228 23.9241C41.6255 23.8212 42.0419 23.7817 42.4567 23.8075L40.346 25.9191C40.2388 26.0261 40.2013 26.1846 40.2492 26.3283L41.0494 28.7292C41.0894 28.8485 41.1832 28.9424 41.3027 28.982L43.7036 29.7823C43.8471 29.8302 44.0056 29.7929 44.1128 29.6859L46.2235 27.5752C46.2283 27.6515 46.2308 27.7271 46.2308 27.8023C46.2419 30.0009 44.4688 31.7923 42.2702 31.8037C41.9303 31.8053 41.5916 31.7635 41.2624 31.6792C41.1259 31.6452 40.9815 31.685 40.8821 31.7844H40.8843V31.7846Z" fill="white"/>
<path d="M43.7131 43.1245L43.1472 43.6904L39.146 39.6892L39.7118 39.1233L43.7131 43.1245Z" fill="white"/>
</g>
<defs>
<clipPath id="clip0">
<rect x="23" y="23" width="24" height="24" fill="white"/>
</clipPath>
</defs>
</svg>
