<svg width="70" height="70" viewBox="0 0 70 70" fill="none" xmlns="http://www.w3.org/2000/svg">
<circle cx="35" cy="35" r="34.5" stroke="white"/>
<path d="M40.75 24C38.0879 24 35.8892 26.4727 35 27.6397C34.1108 26.4727 31.9121 24 29.25 24C25.8037 24 23 27.1685 23 31.0625C23 33.187 23.8433 35.167 25.3193 36.522C25.3408 36.5591 25.3672 36.5933 25.3979 36.624L34.647 45.854C34.7446 45.9512 34.8721 46 35 46C35.1279 46 35.2558 45.9512 35.3535 45.8535L44.9102 36.3003L45.0088 36.2046C45.0869 36.1309 45.1641 36.0562 45.2505 35.9605C45.2866 35.9249 45.3164 35.8848 45.3394 35.8413C46.4112 34.5288 47 32.8359 47 31.0625C47 27.1685 44.1963 24 40.75 24ZM44.5073 35.2788C44.4936 35.295 44.4809 35.312 44.4697 35.3296C44.4229 35.3833 44.3716 35.4307 44.3208 35.479L34.9995 44.7935L26.2188 36.0303C26.1905 35.9746 26.1509 35.9238 26.1026 35.8814C24.7661 34.7144 24 32.958 24 31.0625C24 27.7197 26.355 25 29.25 25C32.1123 25 34.5552 28.7334 34.5796 28.771C34.7642 29.0562 35.2358 29.0562 35.4204 28.771C35.4448 28.7334 37.8877 25 40.75 25C43.645 25 46 27.7198 46 31.0625C46 32.6377 45.4697 34.1353 44.5073 35.2788Z" fill="white"/>
</svg>
