<svg id="Layer_1" data-name="Layer 1" xmlns="http://www.w3.org/2000/svg" viewBox="0 0 1920 1080"><defs><style>.cls-1{fill:#138690;}</style></defs><title>Logo</title><path class="cls-1" d="M565.85,464.76l-2-2.11-2.3-1.54-2-.86H512.76l-2.69.48-2.5,1.63-1.34,1.54L400.34,646.58l-.72,2.88v5.18l.86,2.5,20.74,35.66,2.3,2.45,2,1.58,1.73,1.44,3.6.72H640l4.61-2,4.61-3.46,21.31-36.29,1.3-3.6v-6.77ZM604,644.28S599,665,535.7,666.6,465.14,639,465.14,639s-11.71-15,11.71-62.26c19.2-34.18,39.12-47.76,39.12-47.76s3.5-5.62,19.73-5.62,22,7.06,22,7.06,27.41,27.12,35.47,45.55C622,629.69,604,644.28,604,644.28Z"/><polygon class="cls-1" points="731.06 527.35 793.94 649.56 795.09 651.19 796.73 651.86 819.19 651.86 820.63 651.29 821.97 649.94 885.12 527.93 885.62 525.84 884.61 523.97 874.89 508.63 873.67 507.99 864.96 507.99 864.09 507.99 862.94 509.35 810.31 612.67 809.23 613.97 807.5 613.97 806.13 612.67 753.86 509.21 752.76 508.3 751.41 507.99 743.21 507.99 742.01 508.3 741.14 509.16 731.54 524.47 731.06 525.67 731.06 527.35"/><polygon class="cls-1" points="1033.25 527.35 1096.13 649.56 1097.28 651.19 1098.91 651.86 1121.38 651.86 1122.82 651.29 1124.16 649.94 1187.31 527.93 1187.81 525.84 1186.8 523.97 1177.08 508.63 1175.86 507.99 1167.15 507.99 1166.28 507.99 1165.13 509.35 1112.5 612.67 1111.42 613.97 1109.69 613.97 1108.32 612.67 1056.05 509.21 1054.95 508.3 1053.6 507.99 1045.4 507.99 1044.2 508.3 1043.33 509.16 1033.73 524.47 1033.25 525.67 1033.25 527.35"/><polygon class="cls-1" points="949.27 651.86 968.42 651.86 970.87 650.9 972.45 649.61 973.03 648.02 973.03 512.81 972.52 510.87 971.44 509.43 969.36 508.13 956.36 508.13 955.39 508.87 945.62 523.08 945.04 524.33 945.04 646.39 945.28 648.36 945.86 649.85 946.53 651.29 947.4 651.86 949.27 651.86"/><polygon class="cls-1" points="1257.71 651.86 1348.72 651.86 1350.35 651.29 1351.7 650.14 1361.78 633.05 1362.11 631.85 1362.11 627.24 1361.15 626.9 1359.47 626.9 1276.79 626.9 1275.71 626.21 1274.92 625.63 1274.56 624.05 1274.56 594.46 1274.99 593.59 1275.86 592.54 1277.97 591.96 1332.59 591.96 1333.84 591.29 1335.18 590.23 1335.66 588.89 1335.66 569.88 1334.9 568.54 1333.27 567.38 1331.35 566.81 1275.86 566.81 1274.8 566.42 1273.94 565.18 1273.89 563.64 1273.89 536.38 1274.61 534.75 1276.15 533.5 1357.65 533.5 1359.28 532.73 1360.63 531.38 1361.39 529.08 1361.49 526.78 1352.27 510.55 1351.12 509.21 1349.3 508.35 1259.25 508.35 1257.53 508.6 1256.63 509.17 1247.44 522.84 1246.87 523.99 1246.48 525.34 1246.48 633.7 1246.84 635.42 1247.71 638.45 1248.71 640.46 1249.94 642.98 1251.23 644.78 1252.82 647.02 1254.76 649.75 1257.71 651.86"/></svg>