<svg id="Layer_1" data-name="Layer 1" xmlns="http://www.w3.org/2000/svg" viewBox="0 0 1920 1080"><defs><style>.cls-1{fill:#138690;stroke:#138690;stroke-miterlimit:10;}</style></defs><title>Logo</title><path class="cls-1" d="M739.48,455.75c-34.6-45.67-87.35-52-97.25-53-89.78-.79-144.59-.9-179.6-.79h-1.7c-18,.2-132.32,5.45-139.92,140,14.24,129,129,129,129,129H638.27s119.47-4,128.18-129C766.45,516.72,765.78,490.48,739.48,455.75ZM636.69,581.59H453.13s-39.56-.79-41.93-45.1c4-41.14,41.93-44.31,41.93-44.31H633.53s41.14,2.37,43.52,44.31C674.67,578.43,636.69,581.59,636.69,581.59Z"/><path class="cls-1" d="M938.53,518.74c-32.55,0-58.94,26.92-58.94,60.13S906,639,938.53,639s58.94-26.92,58.94-60.13S971.09,518.74,938.53,518.74Zm.4,93.36c-17.92,0-32.44-14.88-32.44-33.23s14.52-33.23,32.44-33.23,32.44,14.88,32.44,33.23S956.85,612.1,938.93,612.1Z"/><path class="cls-1" d="M1481.3,536.54a46.93,46.93,0,0,1,17.41-15.82c10-5.2,19.17-5.2,24.69-5.14a65.51,65.51,0,0,1,22,4.35,82.91,82.91,0,0,1,19,9.49l-13.45,18.2a70.79,70.79,0,0,0-21.36-7.12c-9.86-1.58-14.45-.1-16.62.79-2.36,1-7.74,3.18-8.7,7.91-.76,3.74,1.65,7,2.37,7.91,2.46,3.06,5.5,3.61,13.45,5.54a94.37,94.37,0,0,1,36.4,13.45,31.13,31.13,0,0,1,9.43,10,32.34,32.34,0,0,1,3.48,22.86,33.9,33.9,0,0,1-7.36,14.65,42,42,0,0,1-18.2,12.66c-8.51,3.34-15.64,3.39-21.61,3.38a80.45,80.45,0,0,1-30.61-6.54,83.82,83.82,0,0,1-19.78-11.87l14.24-19a52.13,52.13,0,0,0,26.9,12.66c4.31.61,13.18,1.75,22.94-2.37a38,38,0,0,0,7.12-4c2.48-7.2.44-11.23-.26-12.41-2.47-4.19-7.41-5.47-14.77-7.37-6.25-1.62-8.77-1.08-15-3.16-2.24-.74-3.66-1.27-6.52-2.05-3.84-1.05-5.12-1.07-8.51-2.69a39.47,39.47,0,0,1-9.49-6.33,33.08,33.08,0,0,1-9.49-14.24C1475.36,549,1480,539,1481.3,536.54Z"/><rect class="cls-1" x="1280.73" y="458.61" width="27.69" height="178.02"/><path class="cls-1" d="M1249.08,521.11V636.63h-24.53V624.76S1211.9,639,1187.37,639s-46.68-15.82-48.26-52.22c-.79-23.74-.79-65.67-.79-65.67H1166v58.55s-3.16,34.81,26.9,34,28.48-26.9,28.48-34c.79-16.62,0-58.55,0-58.55Z"/><path class="cls-1" d="M1449.26,521.11V636.63h-24.53V624.76S1412.07,639,1387.54,639s-46.68-15.82-48.26-52.22c-.79-23.74-.79-65.67-.79-65.67h27.69v58.55s-3.16,34.81,26.9,34,28.48-26.9,28.48-34c.79-16.62,0-58.55,0-58.55Z"/><path class="cls-1" d="M1102.71,601.81l19,19s-15.82,19.78-47.47,19c-33.23-3.16-55.38-23.74-56.18-60.92,0-40.35,28.48-60.13,57.76-60.92a76.62,76.62,0,0,1,40.35,13.45l-16.62,21.36s-7.91-7.91-24.53-7.12c-29.27,2.37-30.07,26.9-30.07,33.23s1.58,27.69,26.11,33.23C1095.59,614.47,1102.71,601.81,1102.71,601.81Z"/><path class="cls-1" d="M1657.63,349.45c-25.61,0-46.37,23.22-46.37,51.87s20.76,51.87,46.37,51.87S1704,430,1704,401.32,1683.24,349.45,1657.63,349.45Zm.31,80.53c-14.09,0-25.52-12.83-25.52-28.66s11.43-28.66,25.52-28.66,25.52,12.83,25.52,28.66S1672,430,1657.94,430Z"/><path class="cls-1" d="M1532.17,379.51h57.76c.28-.44-1.18,41.26-1.18,53-13,10.61-27.11,20-56.58,21.22-49.51-3.54-64.83-44.8-63.66-69.55s15.32-70.73,66-70.73c49.51,1.18,55.4,42.44,55.4,42.44L1564,357.12s-7.07-23.58-34.19-21.22c-23.58,1.18-34.19,22.4-35.36,47.15s10.61,44.8,35.36,48.33,36.54-13,36.54-13V403.09h-34.19Z"/></svg>