<svg width="16" height="16" viewBox="0 0 16 16" fill="none" xmlns="http://www.w3.org/2000/svg">
<path d="M11.5956 0.604492H4.91926C2.65053 0.604492 0.80957 2.47427 0.80957 4.77184V11.5396C0.80957 13.8371 2.65534 15.7069 4.91926 15.7069H11.5956C13.8644 15.7069 15.7101 13.8371 15.7101 11.5396V4.77665C15.7101 2.47427 13.8644 0.604492 11.5956 0.604492ZM14.3883 11.5444C14.3883 13.1065 13.1386 14.3755 11.6004 14.3755H4.92407C3.38595 14.3755 2.1362 13.1065 2.1362 11.5444V4.77665C2.1362 3.21449 3.38595 1.94554 4.92407 1.94554H11.6004C13.1386 1.94554 14.3883 3.21449 14.3883 4.77665V11.5444Z" fill="white"/>
</svg>
