<svg id="Layer_1" data-name="Layer 1" xmlns="http://www.w3.org/2000/svg" viewBox="0 0 504 420"><defs><style>.cls-1{fill:#138690;stroke:#138690;stroke-miterlimit:10;}</style></defs><title>LogoStroke4</title><path class="cls-1" d="M458,130.66H296.64a3.89,3.89,0,0,1-3.89-3.89V17.31a3.89,3.89,0,0,1,3.89-3.89H458a3.89,3.89,0,0,1,3.89,3.89V126.77A3.89,3.89,0,0,1,458,130.66Zm-157.5-7.78H454.15V21.21H300.53Z"/><path class="cls-1" d="M296.64,130.66H135.27a3.89,3.89,0,0,1-3.89-3.89V17.31a3.89,3.89,0,0,1,3.89-3.89H296.64a3.89,3.89,0,0,1,3.89,3.89V126.77A3.89,3.89,0,0,1,296.64,130.66Zm-157.48-7.78H292.75V21.21H139.16Z"/><path class="cls-1" d="M135.27,130.66H17.39a3.89,3.89,0,0,1-3.89-3.89V17.31a3.89,3.89,0,0,1,3.89-3.89H135.27a3.89,3.89,0,0,1,3.89,3.89V126.77A3.89,3.89,0,0,1,135.27,130.66Zm-114-7.78H131.38V21.21H21.29Z"/><path class="cls-1" d="M178.77,240.18H17.39a3.89,3.89,0,0,1-3.89-3.89V126.77a3.89,3.89,0,0,1,3.89-3.89H178.77a3.89,3.89,0,0,1,3.89,3.89V236.28A3.89,3.89,0,0,1,178.77,240.18ZM21.29,232.39H174.88V130.66H21.29Z"/><path class="cls-1" d="M340.14,240.18H178.77a3.89,3.89,0,0,1-3.89-3.89V126.77a3.89,3.89,0,0,1,3.89-3.89H340.14a3.89,3.89,0,0,1,3.89,3.89V236.28A3.89,3.89,0,0,1,340.14,240.18Zm-157.48-7.78H336.25V130.66H182.66Z"/><path class="cls-1" d="M458,240.18h-4.42a3.89,3.89,0,0,1-3.21-1.69,48.66,48.66,0,0,0-80.46,0,3.89,3.89,0,0,1-3.21,1.69H340.14a3.89,3.89,0,0,1-3.89-3.89V126.77a3.89,3.89,0,0,1,3.89-3.89H458a3.89,3.89,0,0,1,3.89,3.89V236.28A3.89,3.89,0,0,1,458,240.18Zm-114-7.78h20.69a56.41,56.41,0,0,1,89.42-1.89V130.66H344Z"/><path class="cls-1" d="M337.4,349.57H296.64a3.89,3.89,0,0,1-3.89-3.89V236.28a3.89,3.89,0,0,1,3.89-3.89h70.09a3.89,3.89,0,0,1,3.21,6.09A48.34,48.34,0,0,0,361.4,266v19.38a3.89,3.89,0,0,1-3.89,3.89H341.29v56.45A3.89,3.89,0,0,1,337.4,349.57Zm-36.86-7.78h33V285.34a3.89,3.89,0,0,1,3.89-3.89h16.22V266a56,56,0,0,1,6.26-25.79H300.53ZM458,247.92a3.88,3.88,0,0,1-3.51-2.23,53.29,53.29,0,0,0-4.12-7.21,3.89,3.89,0,0,1,3.21-6.09H458a3.89,3.89,0,0,1,3.89,3.89V244a3.92,3.92,0,0,1-3.89,3.89Z"/><path class="cls-1" d="M296.64,349.57H135.27a3.89,3.89,0,0,1-3.89-3.89V236.28a3.89,3.89,0,0,1,3.89-3.89H296.64a3.89,3.89,0,0,1,3.89,3.89v109.4A3.89,3.89,0,0,1,296.64,349.57Zm-157.48-7.78H292.75V240.18H139.16Z"/><path class="cls-1" d="M135.27,349.57H17.39a3.89,3.89,0,0,1-3.89-3.89V236.28a3.89,3.89,0,0,1,3.89-3.89H135.27a3.89,3.89,0,0,1,3.89,3.89v109.4A3.89,3.89,0,0,1,135.27,349.57Zm-114-7.78H131.38V240.18H21.29Z"/><path class="cls-1" d="M457.85,407H364.38a30.94,30.94,0,0,1-30.87-30.94V285.34a3.89,3.89,0,0,1,3.89-3.89H483a3.89,3.89,0,0,1,3.89,3.89V378A29.06,29.06,0,0,1,457.85,407ZM341.29,289.23v86.83a23.14,23.14,0,0,0,23.09,23.15h93.47A21.27,21.27,0,0,0,479.12,378V289.23Z"/><path class="cls-1" d="M423.82,380.29H397.75a3.89,3.89,0,0,1-3.76-4.89l6.81-25.76a18.37,18.37,0,1,1,20,0l6.83,25.75a3.89,3.89,0,0,1-3.76,4.89Zm-21-7.78h16l-6.33-23.88a3.89,3.89,0,0,1,2.32-4.62,10.5,10.5,0,0,0,6.6-9.85A10.6,10.6,0,1,0,406.8,344a3.88,3.88,0,0,1,2.31,4.6Z"/><path class="cls-1" d="M462.84,289.23H357.51a3.89,3.89,0,0,1-3.89-3.89V266a56.55,56.55,0,0,1,113.11,0v19.38A3.89,3.89,0,0,1,462.84,289.23ZM361.4,281.45h97.54V266a48.77,48.77,0,0,0-97.54,0Z"/></svg>