<svg id="Layer_1" data-name="Layer 1" xmlns="http://www.w3.org/2000/svg" viewBox="0 0 860 468"><defs><style>.cls-1{fill:#138690;stroke:#138690;stroke-miterlimit:10;}</style></defs><title>LogoStroke4</title><path class="cls-1" d="M170.12,234.4V210.94h1v-1H174v-1H177v-1h2l1-1h1l1-1h2v-1h1l1-.94h2v-1h1l1-1h1v-1h2v-1h1l1-1,1-1h1v-1h1l1-1,1-1h1v-1h1v-1h1v-1h1l1-1,1-1,19.56,11.73c2.93,2,6.86,1,7.84-2l20.54-34.24c1-2.93,0-5.86-2.93-7.82l-19.58-11.73v-1l1-1v-4.88h1v-9.81l1-1v-5.86h-1V112.13l-1-2v-2l-1-2L250.36,94.5c2.93-2,3.91-4.89,2.93-7.82L232.74,52.44c-1-2.93-4.9-3.91-7.84-2L205.34,61.27h-1v-1h-1l-1-1v-1h-1v-.94h-1l-1-1-1-1h-1v-1h-1l-1-1-1-1h-1l-1-1h-1v-1h-1l-1-1h-1l-1-1h-1v-1h-2v-1h-2v-1h-2v-1h-2l-1-1h-2v-1h-2l-1-1h-2l-1-1V18.2c0-2.93-2-4.89-5.87-4.89H125.12c-2.93,0-5.88,2-5.88,4.89V40.71l-1,1h-2l-1,1h-2v1h-2l-1,1h-2l-1,1h-1v1h-2v1h-2l-1,1-1,1h-1l-1,1h-1v1h-1l-1,1h-1l-1,1-1,1h-1v1h-1l-1,1-1,1h-1v.94H87v1H86v1l-1,1H84L64.46,50.49c-2.95-2-6.86-1-7.83,2L36.08,86.68c-1,2.93,0,5.87,2.93,7.82l19.56,11.76-1,2v3.91l-1,1v10.75l-1,2,1,2v9.81c0,2,1,2.93,1,3.91v2.93l1,1v1L39,158.09c-2.93,2-3.91,4.89-2.93,7.82l20.54,34.24c1,2.93,4.89,3.94,7.83,2L84,190.38l1,1,1,1h1v1h1v1h1v1h1l1,1,1,1h1v1h1l1,1h1v1h1v1h2v1h1l1,1h1v1h2l1,.94h1l1,1h1l1,1h1l1,1h2l1,1h2v1h2.93l1,1v23.46c0,2.93,3,4.89,5.88,4.89h39.13C168.16,239.28,170.12,237.33,170.12,234.4ZM97.72,125.81c0-25.42,21.52-46.95,47-46.95s46.94,21.53,46.94,46.95-21.52,47-46.94,47S97.72,151.25,97.72,125.81Z"/><path class="cls-1" d="M674.9,234.4c-22.5-22.48-54.78-36.19-89-36.19-6.84,0-13.7,0-20.54,2a57.43,57.43,0,0,0-12.72,2,167.25,167.25,0,0,0-53.81-50.86A159.13,159.13,0,0,0,266,247.14H255.23c-28.38,0-53.8,10.75-71.42,29.32a100.77,100.77,0,0,0,71.42,172.18H585.88c34.24,0,66.53-13.68,89-37.17a125.19,125.19,0,0,0,0-176.09v-1Zm16.63,89A105.23,105.23,0,0,1,585.88,429.09H255.23a81.21,81.21,0,1,1,0-162.41H263a24.38,24.38,0,0,0,7.84,1,8.92,8.92,0,0,0,11.75-6.84c6.84-32.29,24.45-60.66,48.9-80.21,23.49-19.58,54.79-31.31,88-31.31A138.87,138.87,0,0,1,489,167.9c20.54,12.71,39.13,30.3,50.87,50.86,2.93,4.89,7.82,5.87,12.71,3.91,4.88-1,10.77-2.93,15.65-3.91a112.54,112.54,0,0,1,92.93,30.33A104.9,104.9,0,0,1,691.53,323.44Z"/><path class="cls-1" d="M119.24,279.42l-10.75-17.63c0-1-2-2-3.91-1l-9.79,5.86v-1h-1l-1-1-1-1h-1v-1h-1l-1-1h-1v-1H87l-1-1H85v-1H83l-1-1h-2v-1H77.17V245.18a2.59,2.59,0,0,0-2.93-2.93H54.68a2.59,2.59,0,0,0-2.93,2.93v11.73H48.81v1h-2l-1,1h-1l-1,1h-1l-1,1H41v1H40l-1,1H38v1h-1v1h-1v1h-1l-1,1-9.79-5.86c-2-1-2.93,0-3.91,1l-9.79,17.63c-1,1-1,2.93,1,3.91l9.79,5.86v1h-1v16.61l1,1v2l-9.79,5.87c-2,0-2,2-1,3l9.79,17.59c1,2,2,2,3.91,1l9.79-5.86v1h1v1h1l1,1h1v1h1v1h2v1h1l1,1h1l1,1h1v1h2.95v1h2l1,1v11.76c0,1,1,2,2.93,2H74.24c2,0,2.93-1,2.93-2V341h2.93l1-1h2v-1h2v-1h1l1-1h1v-1h2v-1h1v-1h1l1-1h1v-1h1v-1l9.79,5.86c2,1,3.91,1,3.91-1l10.75-17.59c0-1,0-3-1-3l-10.75-5.87v-1h1v-7.82l1-1v-2l-1-1v-6.84l-1-1,10.75-5.86C119.24,282.36,119.24,280.4,119.24,279.42Zm-54.77,43a23.49,23.49,0,0,1,0-47,23.49,23.49,0,0,1,0,47Z"/><path class="cls-1" d="M746.32,121.9a100.88,100.88,0,0,0-34.24,5.86c-23.48-40.1-66.53-67.47-116.43-67.47-45,0-85.1,22.48-109.57,57.7a185.11,185.11,0,0,1,77.29,56.76c7.82-1,14.68-2,22.5-2A150.72,150.72,0,0,1,736.53,323.44v5.86h9.79a103.7,103.7,0,0,0,0-207.4Z"/><path class="cls-1" d="M370.66,298c-4.89-3.91-9.78-5.87-14.66-7.82a110.44,110.44,0,0,0-19.58-2H308.06c-4.9,0-7.84,1-10.77,2.93-2,2.93-2.93,5.87-2.93,10.75v79.23c0,3.91,0,6.84,1,8.83s2,3.91,3.91,4.89a19.5,19.5,0,0,0,8.81,2h29.34c4.9,0,8.81,0,12.72-1l11.75-2.93c2.93-2,6.84-3.91,8.8-6.87,3.91-2.93,6.86-6.84,9.79-11.73a51.37,51.37,0,0,0,4.88-14.66,87.68,87.68,0,0,0,2-17.62C387.29,322.46,381.42,307.77,370.66,298ZM354,374.29c-2,1-3.91,2.93-5.86,2.93a14.16,14.16,0,0,1-6.84,2H316.85V305.81h13.7a87.84,87.84,0,0,1,17.61,2,20.78,20.78,0,0,1,11.75,10.78c2.93,4.89,4.88,12.71,4.88,23.46C364.79,357.68,360.89,368.43,354,374.29Z"/><path class="cls-1" d="M592.72,341a30.29,30.29,0,0,0-12.7-5.86,82.89,82.89,0,0,0-16.63-4.89c-4.9-2-7.83-2-10.77-2.93l-5.87-2.93c-2-1-3.91-2-4.88-3.91s-2-3.91-2-5.87c0-3,2-5.9,5.87-8.83a25.31,25.31,0,0,1,13.68-3.91c5.88,0,9.79,1,12.72,3.91,2.95,2,4.9,4.89,6.86,9.78,2,2,2.93,4.92,4.89,5.9a8.27,8.27,0,0,0,5.87,2,10.57,10.57,0,0,0,6.84-2.93c2-2.93,3-4.92,3-7.85a15.65,15.65,0,0,0-3-8.8c-1-2.93-3.91-5.86-6.84-7.82-2.93-2.93-6.84-4.88-11.73-6.84a47.49,47.49,0,0,0-17.61-2.93,70.27,70.27,0,0,0-21.52,3.91c-5.88,2.93-10.77,5.86-14.68,10.75-3,4.89-4.9,9.78-4.9,15.68,0,6.84,2,11.73,4.9,15.64,2.93,4.88,7.82,7.82,12.71,10.75a164.87,164.87,0,0,0,19.56,5.87,78.42,78.42,0,0,1,13.7,3.94,18.82,18.82,0,0,1,8.81,4.89q2.94,2.93,2.93,8.79a13.92,13.92,0,0,1-5.86,11.73c-3.93,2.93-9.79,3.91-15.65,3.91-4.9,0-8.82,0-11.75-2-2.93-1-4.89-2.93-6.84-5.87-2-2-2.93-4.88-3.91-8.79-2-2.93-3-4.89-4.91-5.87q-1.46-2.93-5.86-2.93a8.93,8.93,0,0,0-6.86,2.93,10.56,10.56,0,0,0-2.93,6.84c0,4.89,2,9.78,4.89,14.66A33.92,33.92,0,0,0,534,392.9q10.28,5.86,26.42,5.86a59.13,59.13,0,0,0,23.47-4.89q10.26-4.4,14.68-11.76c3.91-5.86,4.89-11.73,4.89-17.59s-1-10.75-2.93-13.68A24.63,24.63,0,0,0,592.72,341Z"/><path class="cls-1" d="M487.06,286.27c-2.93,0-4.88,1-6.84,3.91q-2.94,2.93-2.93,8.8v64.57l-42.06-63.59c-1-2-2.93-3.91-3.91-5.86a13.5,13.5,0,0,0-2.93-3.91,13.86,13.86,0,0,0-3.93-2.93c-1,0-2.93-1-4.89-1a14.27,14.27,0,0,0-6.86,2c-2,2-3.91,3.91-4.89,5.87s-1,4.88-1,8.79V386a16.54,16.54,0,0,0,2.93,9.81,8.89,8.89,0,0,0,6.86,2.93,11.12,11.12,0,0,0,7.82-2.93A16.56,16.56,0,0,0,427.4,386V322.46L468.49,386c1,1,2,3,3.91,4.92,1,1,2,2.93,3.91,3.91a13.48,13.48,0,0,0,3.91,2.93c2,1,2.93,1,5.86,1q11.76,0,11.75-14.69V299a16.5,16.5,0,0,0-2.93-9.77A11.1,11.1,0,0,0,487.06,286.27Z"/></svg>