<svg id="Layer_1" data-name="Layer 1" xmlns="http://www.w3.org/2000/svg" viewBox="0 0 521 522"><defs><style>.cls-1{fill:#138690;stroke:#138690;stroke-miterlimit:10;}</style></defs><title>LogoStroke4</title><path class="cls-1" d="M248,379.61v49.13h16V379.61a32,32,0,1,0-16,0Zm8-46.87a16,16,0,1,1-16,16A16,16,0,0,1,256,332.75Z"/><path class="cls-1" d="M432,171.83V76.75H333.52L275.3,20.55c-10.43-10.06-28.19-10.06-38.62,0l-58.2,56.2H80v95.08L8,241.35v267.4H504V241.35ZM169,360.43a120.31,120.31,0,0,0,9.23,33.63L24,486.62V260ZM96,156.75H416V290.39l-72,49.85v-27.5l-3.2-2.4a107.25,107.25,0,0,0-12.8-7.79V260.75a72,72,0,0,0-144,0v41.81a105.71,105.71,0,0,0-12.8,7.79l-3.2,2.4v27.5L96,290.39Zm88,188.48V321a138,138,0,0,1,144,0v24.2a103.58,103.58,0,0,1-72,99.14A103.59,103.59,0,0,1,184,345.23Zm128-49.94a159,159,0,0,0-16-5.22V260.75a40,40,0,0,0-80,0v29.33a159,159,0,0,0-16,5.22V260.75a56,56,0,0,1,112,0Zm-32-8.6a149.61,149.61,0,0,0-48,0V260.75a24,24,0,0,1,48,0ZM185.69,408.27a119.67,119.67,0,0,0,68,52.14l2.3.69,2.3-.69a119.72,119.72,0,0,0,68-52.15l140.81,84.48H44.88Zm148-14.21A120.29,120.29,0,0,0,343,360.42L488,260v226.6ZM483.43,243.72,432,279.32V194.09ZM247.8,32.06a12.1,12.1,0,0,1,16.39,0l46.29,44.69h-109ZM416,92.75v48H96v-48ZM80,279.32l-51.43-35.6L80,194.09Z"/><path class="cls-1" d="M112,108.75h16v16H112Z"/><path class="cls-1" d="M144,108.75h16v16H144Z"/><path class="cls-1" d="M176,108.75h16v16H176Z"/><path class="cls-1" d="M112,172.75h56v16H112Z"/><path class="cls-1" d="M112,204.75h56v16H112Z"/><path class="cls-1" d="M112,236.75h56v16H112Z"/><path class="cls-1" d="M344,172.75h56v16H344Z"/><path class="cls-1" d="M344,204.75h56v16H344Z"/><path class="cls-1" d="M344,236.75h56v16H344Z"/></svg>