<svg id="Layer_1" data-name="Layer 1" xmlns="http://www.w3.org/2000/svg" xmlns:xlink="http://www.w3.org/1999/xlink" viewBox="0 0 570 668"><defs><style>.cls-1{fill:#fff;}.cls-2{mask:url(#mask);}.cls-3{fill:#0b7375;}.cls-4{fill:#138690;}</style><mask id="mask" x="33" y="17.11" width="501.28" height="650.89" maskUnits="userSpaceOnUse"><g id="mask-2"><path id="path-1" class="cls-1" d="M512.4,149.14,305.27,29.62a43.34,43.34,0,0,0-43.45,0L54.67,149.14A43.59,43.59,0,0,0,33,186.81V426a43.45,43.45,0,0,0,21.67,37.56l103.63,59.9V645.62a13,13,0,0,0,19.56,11.24L512.61,463.7a43.34,43.34,0,0,0,21.67-37.56V186.77A43.69,43.69,0,0,0,512.4,149.14Z"/></g></mask></defs><title>logo</title><g id="Clipped"><g class="cls-2"><g id="Group"><polygon id="Path" class="cls-3" points="534.07 161.75 283.6 306.4 33 161.75 33 451.05 158.3 523.32 158.3 668 534.07 451.05 534.07 161.75"/><g id="Group-2" data-name="Group"><polygon id="Path-2" data-name="Path" class="cls-4" points="283.6 306.4 33 161.75 283.6 17.11 534.07 161.75 283.6 306.4"/><polygon id="Path-3" data-name="Path" class="cls-4" points="279.16 302 34.59 160.8 33 161.75 283.6 306.4 534.07 161.75 528.18 158.26 279.16 302"/><polygon id="Path-4" data-name="Path" class="cls-4" points="283.6 308.2 283.6 306.4 34.59 162.6 33 163.55 283.6 308.2"/></g></g></g></g></svg>