<svg id="Layer_1" data-name="Layer 1" xmlns="http://www.w3.org/2000/svg" xmlns:xlink="http://www.w3.org/1999/xlink" viewBox="0 0 1920 1080"><defs><style>.cls-1{fill:#fff;}.cls-2{mask:url(#mask);}.cls-3{fill:#0b7375;}.cls-4{fill:#138690;}</style><mask id="mask" x="709" y="263.11" width="501.28" height="650.89" maskUnits="userSpaceOnUse"><g id="mask-2"><path id="path-1" class="cls-1" d="M1188.4,395.14,981.27,275.62a43.34,43.34,0,0,0-43.45,0L730.67,395.14A43.59,43.59,0,0,0,709,432.81V672a43.45,43.45,0,0,0,21.67,37.56l103.63,59.9V891.62a13,13,0,0,0,19.56,11.24L1188.61,709.7a43.34,43.34,0,0,0,21.67-37.56V432.77A43.69,43.69,0,0,0,1188.4,395.14Z"/></g></mask></defs><title>logo</title><g id="Clipped"><g class="cls-2"><g id="Group"><polygon id="Path" class="cls-3" points="1210.07 407.75 959.6 552.4 709 407.75 709 697.05 834.3 769.32 834.3 914 1210.07 697.05 1210.07 407.75"/><g id="Group-2" data-name="Group"><polygon id="Path-2" data-name="Path" class="cls-4" points="959.6 552.4 709 407.75 959.6 263.11 1210.07 407.75 959.6 552.4"/><polygon id="Path-3" data-name="Path" class="cls-4" points="955.16 548 710.59 406.8 709 407.75 959.6 552.4 1210.07 407.75 1204.18 404.26 955.16 548"/><polygon id="Path-4" data-name="Path" class="cls-4" points="959.6 554.2 959.6 552.4 710.59 408.6 709 409.55 959.6 554.2"/></g></g></g></g></svg>