<svg id="Layer_1" data-name="Layer 1" xmlns="http://www.w3.org/2000/svg" viewBox="0 0 396 554"><defs><style>.cls-1{fill:#138690;}</style></defs><title>logo</title><path class="cls-1" d="M50.37,17.32c-10.81-.13-21.6.32-32.37,1V535.06a385.17,385.17,0,0,0,62.18-.69c6-20.31,12.21-40.6,18.3-60.9a301.89,301.89,0,0,0,89.15-29.41Q220.8,460.34,254,476.62a302.6,302.6,0,0,0,44.14-34.16q-20.26-26.91-40.61-53.78c17.64-22,30.68-46.72,36.71-72.55q38-7.42,75.93-14.84a231.13,231.13,0,0,0-.64-49.43l-75.45-14.75a179.4,179.4,0,0,0-36.65-72.5q20.36-26.89,40.72-53.78a288.19,288.19,0,0,0-43.45-34.55q-33.61,16.54-67.26,33a290.59,290.59,0,0,0-89-30Q89.17,48.78,80,18.23c-9.84-.6-19.71-1.05-29.59-.91ZM99.92,133.77c78.4,17.6,137.46,81,133.5,147-2,62.61-57,122.29-132.75,138.28-3.6-4.9-.54-16.86-1.56-24.5q0-130.47-.1-260.94l.91.17Z"/></svg>