<?xml version="1.0" encoding="utf-8"?>
<!-- Generator: Adobe Illustrator 23.0.1, SVG Export Plug-In . SVG Version: 6.00 Build 0)  -->
<svg version="1.1" id="Layer_1" xmlns="http://www.w3.org/2000/svg" xmlns:xlink="http://www.w3.org/1999/xlink" x="0px" y="0px"
	 viewBox="0 0 530 533.2" style="enable-background:new 0 0 530 533.2;" xml:space="preserve">
<style type="text/css">
	.st0{fill:#138690;stroke:#138690;stroke-miterlimit:10;}
</style>
<title>logo</title>
<path class="st0" d="M108.9,77h-7c-3.8-0.1-7,2.8-7.2,6.7c-0.1,3.8,2.8,7,6.7,7.2c0.2,0,0.4,0,0.5,0h7c3.8,0.1,7-2.8,7.2-6.7
	c0.1-3.8-2.8-7-6.7-7.2C109.2,77,109.1,77,108.9,77z"/>
<path class="st0" d="M144.1,77h-7c-3.8-0.1-7,2.8-7.2,6.7c-0.1,3.8,2.8,7,6.7,7.2c0.2,0,0.4,0,0.5,0h7c3.8,0.1,7-2.8,7.2-6.7
	c0.1-3.8-2.8-7-6.7-7.2C144.4,77,144.3,77,144.1,77z"/>
<path class="st0" d="M179.3,77h-7c-3.8-0.1-7,2.8-7.2,6.7c-0.1,3.8,2.8,7,6.7,7.2c0.2,0,0.4,0,0.5,0h7c3.8,0.1,7-2.8,7.2-6.7
	c0.1-3.8-2.8-7-6.7-7.2C179.6,77,179.4,77,179.3,77z"/>
<path class="st0" d="M397.4,77h-190c-3.8-0.1-7,2.8-7.2,6.7c-0.1,3.8,2.8,7,6.7,7.2c0.2,0,0.4,0,0.5,0h190c3.8,0.1,7-2.8,7.2-6.7
	c0.1-3.8-2.8-7-6.7-7.2C397.7,77,397.6,77,397.4,77z"/>
<path class="st0" d="M467.8,298.3h-7v-34.6c0-19.4-7.6-38.1-21.1-52.1V83.9c0-19.1-15.8-34.6-35.2-34.6H94.8
	c-19.4,0-35.2,15.5-35.2,34.6v276.7c0,19.1,15.8,34.6,35.2,34.6h190v20.8c0,26.7,22.1,48.4,49.3,48.4h98.5
	c27.2,0,49.2-21.7,49.3-48.4V312.2C481.8,304.5,475.5,298.3,467.8,298.3z M446.6,263.8v34.6H320v-34.6c0-34.4,28.3-62.3,63.3-62.3
	S446.6,229.3,446.6,263.8z M73.7,83.9c0.1-11.6,9.5-20.8,21.1-20.8c0,0,0,0,0,0h309.6c11.6-0.1,21,9.2,21.1,20.7c0,0,0,0,0,0v20.8
	H73.7V83.9z M284.8,312.2v69.2h-190c-11.6,0.1-21-9.2-21.1-20.7c0,0,0,0,0,0V118.5h351.8v81.6c-23.9-15.3-54.1-16.5-79.1-3.2
	c-24.8,13.1-40.4,38.8-40.5,66.9v34.6h-7C291.2,298.3,284.9,304.5,284.8,312.2L284.8,312.2z M467.8,326h-21.2
	c-3.8-0.1-7,2.8-7.2,6.7c-0.1,3.8,2.8,7,6.7,7.2c0.2,0,0.4,0,0.5,0h21.1v13.8h-21.1c-3.8-0.1-7,2.8-7.2,6.7c-0.1,3.8,2.8,7,6.7,7.2
	c0.2,0,0.4,0,0.5,0h21.1v13.8h-21.1c-3.8-0.1-7,2.8-7.2,6.7c-0.1,3.8,2.8,7,6.7,7.2c0.2,0,0.4,0,0.5,0h21.1V409h-21.1
	c-3.8-0.1-7,2.8-7.2,6.7c-0.1,3.8,2.8,7,6.7,7.2c0.2,0,0.4,0,0.5,0H467c-3.5,16.2-17.9,27.8-34.5,27.7h-98.5
	c-16.6,0.1-30.9-11.5-34.4-27.7H320c3.8,0.1,7-2.8,7.2-6.7c0.1-3.8-2.8-7-6.7-7.2c-0.2,0-0.4,0-0.5,0h-21.1v-13.8H320
	c3.8,0.1,7-2.8,7.2-6.7c0.1-3.8-2.8-7-6.7-7.2c-0.2,0-0.4,0-0.5,0h-21.1v-13.8H320c3.8,0.1,7-2.8,7.2-6.7c0.1-3.8-2.8-7-6.7-7.2
	c-0.2,0-0.4,0-0.5,0h-21.1v-13.8H320c3.8,0.1,7-2.8,7.2-6.7c0.1-3.8-2.8-7-6.7-7.2c-0.2,0-0.4,0-0.5,0h-21.1v-13.8h168.9L467.8,326
	L467.8,326z"/>
<path class="st0" d="M376.3,387v15.1c0,3.9,3.1,7,7,7c3.9,0,7-3.1,7-7V387c9.6-3.2,15.4-13,13.8-23c-2.2-11.5-13.3-19-24.8-16.8
	c-8.5,1.6-15.2,8.3-16.8,16.8C360.8,374,366.7,383.7,376.3,387z M383.3,360.6c3.8,0,6.9,3.2,6.8,7c0,3.8-3.2,6.9-7,6.8
	c-3.8,0-6.8-3.1-6.8-6.9C376.3,363.7,379.5,360.6,383.3,360.6L383.3,360.6z"/>
<path class="st0" d="M179.3,187.7c-3.8,0-7,3.1-7,6.9v20.8h-56.3V160h28.2c3.8,0.1,7-2.8,7.2-6.7c0.1-3.8-2.8-7-6.7-7.2
	c-0.2,0-0.4,0-0.5,0h-28.2c-7.7,0-14,6.1-14.1,13.8v55.3c0.1,7.7,6.4,13.9,14.1,13.8h56.3c7.7,0,14-6.1,14.1-13.8v-20.8
	C186.3,190.7,183.1,187.7,179.3,187.7z"/>
<path class="st0" d="M135,175.9c-2.8-2.6-7.1-2.6-9.9,0.1c-2.7,2.6-2.8,7-0.1,9.7c0,0,0,0,0,0l14.1,13.8c1.3,1.3,3.1,2,5,2h0.3
	c2-0.1,3.8-1,5.1-2.5l35.1-41.5c1.6-1.9,2.1-4.5,1.2-6.8c-0.9-2.3-2.9-4-5.4-4.4c-2.5-0.4-5,0.5-6.6,2.4l-30.2,35.7L135,175.9z"/>
<path class="st0" d="M179.3,305.3c-3.8,0-7,3.1-7,6.9v20.8h-56.3v-55.3h28.2c3.8,0.1,7-2.8,7.2-6.7s-2.8-7-6.7-7.2
	c-0.2,0-0.4,0-0.5,0h-28.2c-7.7,0-14,6.1-14.1,13.8v55.3c0.1,7.7,6.4,13.9,14.1,13.8h56.3c7.7,0,14-6.1,14.1-13.8v-20.8
	C186.2,308.3,183.1,305.3,179.3,305.3z"/>
<path class="st0" d="M135,293.5c-2.8-2.6-7.1-2.6-9.9,0.1c-2.7,2.6-2.8,7-0.1,9.7c0,0,0,0,0,0l14.1,13.8c1.3,1.3,3.1,2,5,2h0.3
	c2-0.1,3.8-1,5.1-2.5l35.1-41.5c1.6-1.9,2.1-4.5,1.2-6.8c-0.9-2.3-2.9-4-5.4-4.4c-2.5-0.4-5,0.5-6.6,2.4l-30.2,35.7L135,293.5z"/>
<path class="st0" d="M214.4,166.9h56.3c3.8,0.1,7-2.8,7.2-6.7c0.1-3.8-2.8-7-6.7-7.2c-0.2,0-0.4,0-0.5,0h-56.3
	c-3.8-0.1-7,2.8-7.2,6.7c-0.1,3.8,2.8,7,6.7,7.2C214.1,166.9,214.3,166.9,214.4,166.9z"/>
<path class="st0" d="M313,194.6c0-3.8-3.2-6.9-7-6.9h-91.5c-3.8-0.1-7,2.8-7.2,6.7c-0.1,3.8,2.8,7,6.7,7.2c0.2,0,0.4,0,0.5,0h91.5
	C309.8,201.5,312.9,198.4,313,194.6z"/>
<path class="st0" d="M270.7,270.7h-56.3c-3.8-0.1-7,2.8-7.2,6.7s2.8,7,6.7,7.2c0.2,0,0.4,0,0.5,0h56.3c3.8,0.1,7-2.8,7.2-6.7
	s-2.8-7-6.7-7.2C271.1,270.7,270.9,270.7,270.7,270.7z"/>
<path class="st0" d="M263.7,305.3h-49.2c-3.8-0.1-7,2.8-7.2,6.7s2.8,7,6.7,7.2c0.2,0,0.4,0,0.5,0h49.3c3.8,0.1,7-2.8,7.2-6.7
	s-2.8-7-6.7-7.2C264.1,305.3,263.9,305.3,263.7,305.3L263.7,305.3z"/>
</svg>
