<svg height="480pt" viewBox="0 0 480 480" width="480pt" xmlns="http://www.w3.org/2000/svg"><path style="fill:#138690;" d="m472 208h-10.472656c-14.613282-97.984375-91.542969-174.917969-189.527344-189.535156v-10.464844c0-4.417969-3.582031-8-8-8h-48c-4.417969 0-8 3.582031-8 8v10.46875c-98.003906 14.582031-174.949219 91.527344-189.527344 189.53125h-10.472656c-4.417969 0-8 3.582031-8 8v48c0 4.417969 3.582031 8 8 8h10.476562c14.574219 98.003906 91.519532 174.949219 189.523438 189.53125v10.46875c0 4.417969 3.582031 8 8 8h48c4.417969 0 8-3.582031 8-8v-10.46875c98.003906-14.582031 174.949219-91.527344 189.527344-189.53125h10.472656c4.417969 0 8-3.582031 8-8v-48c0-4.417969-3.582031-8-8-8zm-200-173.351562c89.140625 14.3125 159.039062 84.210937 173.347656 173.351562h-16.179687c-13.660157-80.472656-76.695313-143.519531-157.167969-157.195312zm-48 53.351562v-72h32v72c0 3.335938 2.070312 6.324219 5.195312 7.492188l-21.195312 21.195312-21.195312-21.195312c3.125-1.167969 5.195312-4.15625 5.195312-7.492188zm-16-53.351562v16.175781c-80.519531 13.570312-143.601562 76.65625-157.167969 157.175781h-16.179687c14.28125-89.15625 84.191406-159.070312 173.347656-173.351562zm-192 221.351562v-32h72c3.335938 0 6.320312-2.066406 7.492188-5.191406l21.195312 21.191406-21.195312 21.191406c-1.171876-3.125-4.15625-5.191406-7.492188-5.191406zm192 189.351562c-89.15625-14.28125-159.070312-84.191406-173.347656-173.351562h16.15625c13.644531 80.488281 76.703125 143.539062 157.191406 157.175781zm48-53.351562v72h-32v-72c0-3.335938-2.070312-6.324219-5.195312-7.492188l21.195312-21.195312 21.195312 21.195312c-3.125 1.167969-5.195312 4.15625-5.195312 7.492188zm-10.34375-45.65625c-3.125-3.125-8.1875-3.125-11.3125 0l-40 40c-2.289062 2.289062-2.972656 5.730469-1.734375 8.71875s4.15625 4.9375 7.390625 4.9375h8v12.953125c-71.632812-13.277344-127.671875-69.320313-140.941406-140.953125h12.941406v8c0 3.234375 1.949219 6.152344 4.9375 7.390625s6.429688.554687 8.71875-1.734375l40-40c3.125-3.125 3.125-8.1875 0-11.3125l-40-40c-2.289062-2.289062-5.730469-2.972656-8.71875-1.734375s-4.9375 4.15625-4.9375 7.390625v8h-12.953125c13.214844-71.664062 69.289063-127.738281 140.953125-140.949219v12.949219h-8c-3.234375 0-6.152344 1.949219-7.390625 4.9375s-.554687 6.429688 1.734375 8.71875l40 40c3.125 3.125 8.1875 3.125 11.3125 0l40-40c2.289062-2.289062 2.972656-5.730469 1.734375-8.71875s-4.15625-4.9375-7.390625-4.9375h-8v-12.945312c71.617188 13.300781 127.648438 69.328124 140.953125 140.945312h-12.953125v-8c0-3.234375-1.949219-6.152344-4.9375-7.390625s-6.429688-.554687-8.71875 1.734375l-40 40c-3.125 3.125-3.125 8.1875 0 11.3125l40 40c2.289062 2.289062 5.730469 2.972656 8.71875 1.734375s4.9375-4.15625 4.9375-7.390625v-8h12.957031c-13.214843 71.667969-69.289062 127.742188-140.957031 140.953125v-12.953125h8c3.234375 0 6.152344-1.949219 7.390625-4.9375s.554687-6.429688-1.734375-8.71875zm26.34375 99.007812v-16.175781c80.519531-13.570312 143.605469-76.65625 157.175781-157.175781h16.171875c-14.28125 89.15625-84.191406 159.070312-173.347656 173.351562zm192-189.351562h-72c-3.335938 0-6.320312 2.066406-7.492188 5.191406l-21.195312-21.191406 21.195312-21.191406c1.171876 3.125 4.15625 5.191406 7.492188 5.191406h72zm0 0"/><path style="fill:#138690;" d="m192 264h96c4.417969 0 8-3.582031 8-8v-96c0-4.417969-3.582031-8-8-8h-96c-4.417969 0-8 3.582031-8 8v96c0 4.417969 3.582031 8 8 8zm8-96h80v80h-80zm0 0"/><path style="fill:#138690;" d="m216 184h16v16h-16zm0 0"/><path style="fill:#138690;" d="m248 184h16v16h-16zm0 0"/><path style="fill:#138690;" d="m296 320v-24c-.011719-8.832031-7.167969-15.988281-16-16h-80c-8.832031.011719-15.988281 7.167969-16 16v24c0 4.417969 3.582031 8 8 8h96c4.417969 0 8-3.582031 8-8zm-16-8h-80v-16h80zm0 0"/><path style="fill:#138690;" d="m216 216h48v16h-48zm0 0"/><path style="fill:#138690;" d="m288 136c13.25.015625 23.984375 10.75 24 24 0 4.417969 3.582031 8 8 8s8-3.582031 8-8c.015625-13.25 10.75-23.984375 24-24 4.417969 0 8-3.582031 8-8s-3.582031-8-8-8c-13.25-.015625-23.984375-10.75-24-24 0-4.417969-3.582031-8-8-8s-8 3.582031-8 8c-.015625 13.25-10.75 23.984375-24 24-4.417969 0-8 3.582031-8 8s3.582031 8 8 8zm32-16.246094c2.332031 3.132813 5.113281 5.914063 8.246094 8.246094-3.132813 2.332031-5.914063 5.113281-8.246094 8.246094-2.332031-3.132813-5.113281-5.914063-8.246094-8.246094 3.132813-2.332031 5.914063-5.113281 8.246094-8.246094zm0 0"/></svg>