<?xml version="1.0" encoding="utf-8"?>
<!-- Generator: Adobe Illustrator 22.0.1, SVG Export Plug-In . SVG Version: 6.00 Build 0)  -->
<svg version="1.1" id="Capa_1" xmlns="http://www.w3.org/2000/svg" xmlns:xlink="http://www.w3.org/1999/xlink" x="0px" y="0px"
	 viewBox="0 0 196.9 196.9" style="enable-background:new 0 0 196.9 196.9;" xml:space="preserve">
<style type="text/css">
	.st0{fill:#303030;}
</style>
<g>
	<g>
		<path class="st0" d="M187.6,86.6c-1-8.2-4.5-14.7-5.9-17.2c1-17.1-2.3-29.9-10.1-38.2c-6-6.5-13-8.3-16.6-8.8
			c-5.4-11.5-14.7-13.7-20.3-13.2c-10.5-9.8-20.3-10-26.7-8.4c-4.2,1.1-7.5,3-9.6,4.5c-2.1-1.5-5.4-3.5-9.6-4.5
			c-6.4-1.6-16.2-1.4-26.7,8.4c-5.6-0.5-14.9,1.7-20.3,13.2c-3.6,0.5-10.6,2.3-16.6,8.8c-7.7,8.3-11.1,21.1-10.1,38.2
			c-1.4,2.4-4.9,9-5.9,17.2c-1.2,9.3,0.6,22.4,15.1,33c-1.7,9.9-0.1,27.1,15.8,35.5c-0.7,3.6-1.1,9.9,2.1,15.2
			c2.5,4.2,6.7,7,12.5,8.3c2.9,4.5,12.9,18.3,25.4,18.3c0.1,0,0.2,0,0.2,0c6.7-0.1,12.7-4.1,18-11.8c5.3,7.7,11.3,11.7,18,11.8
			c12.6,0.2,22.7-13.8,25.6-18.3c5.7-1.3,9.9-4,12.5-8.3c3.2-5.4,2.8-11.6,2.1-15.2c15.9-8.4,17.5-25.5,15.8-35.5
			C187,109,188.8,95.9,187.6,86.6z M166.8,115.2c-1.2,0.8-1.8,2.3-1.4,3.7c0.2,0.9,5.5,22.8-14,31.1c-1.6,0.7-2.5,2.5-1.9,4.2
			c0,0.1,2.3,7.4-0.8,12.5c-1.7,2.8-4.8,4.6-9.3,5.3c-1,0.2-1.9,0.8-2.4,1.6c-2.7,4.6-11.5,16.3-20.3,16.3c0,0-0.1,0-0.2,0
			c-5.3-0.1-10.4-4.5-15-13c-0.6-1.1-1.9-1.8-3.1-1.8s-2.4,0.7-3,1.8c-4.7,8.6-9.7,12.9-15,13c-8.8,0.1-17.8-11.7-20.5-16.3
			c-0.5-0.9-1.4-1.5-2.4-1.6c-4.5-0.7-7.6-2.5-9.3-5.3c-3.1-5.2-0.8-12.5-0.8-12.6c0.6-1.7-0.3-3.5-1.9-4.2
			c-19.3-8.3-14.2-30.2-14-31.1c0.4-1.4-0.2-2.9-1.4-3.7c-25.5-17-9.3-42.1-8.6-43.1c0.4-0.6,0.6-1.4,0.6-2.1
			c-1.1-15.6,1.6-27,8.1-34.1c6.2-6.8,13.7-6.9,14-6.9c1.4,0,2.7-0.9,3.2-2.1c3.8-9.5,10-10.9,13.2-10.9c1,0,1.8,0.1,2,0.2
			c1.2,0.3,2.4,0,3.2-0.9c6.9-6.9,14.1-9.6,21.2-7.9c5.5,1.3,9,4.7,9,4.7c0.6,0.6,1.5,1,2.4,1h0.1c0.9,0,1.8-0.4,2.4-1
			c0,0,3.5-3.4,8.8-4.7c7.2-1.8,14.4,0.8,21.5,7.9c0.8,0.8,2.1,1.2,3.2,0.9c1-0.2,10.1-1.9,15.2,10.7c0.5,1.3,1.8,2.1,3.1,2.1
			c0.3,0,7.8,0.2,14.1,6.9c6.5,7,9.2,18.5,8.1,34.1c-0.1,0.8,0.1,1.5,0.6,2.1c0,0.1,4.4,6.6,5.4,15.3
			C182.3,98.7,177.5,108.1,166.8,115.2z"/>
	</g>
</g>
<g>
	<g>
		<path class="st0" d="M155.9,24.5c-0.6-1.8-2.5-2.8-4.3-2.2c-21.2,7.1-21.5,24.8-21.5,25.6c0,1.9,1.5,3.4,3.4,3.4c0,0,0,0,0,0
			c1.9,0,3.4-1.5,3.4-3.4c0-0.6,0.4-13.6,16.8-19.1C155.5,28.2,156.4,26.3,155.9,24.5z"/>
	</g>
</g>
<g>
	<g>
		<path class="st0" d="M171.3,116c-1.1-1.5-3.3-1.8-4.8-0.6c-5.6,4.2-10.6,5.7-14.9,4.5c-7.7-2.2-11.6-12.4-11.7-12.5
			c-0.7-1.8-2.6-2.7-4.4-2c-1.8,0.7-2.7,2.6-2,4.4c0.2,0.6,5.1,13.5,16.2,16.7c1.6,0.5,3.3,0.7,5,0.7c5.1,0,10.4-2.1,16-6.3
			C172.1,119.7,172.4,117.5,171.3,116z"/>
	</g>
</g>
<g>
	<g>
		<path class="st0" d="M113.6,118.9c-1.3-1.3-3.5-1.3-4.8,0c-1.3,1.3-1.3,3.5,0,4.8c11.1,11.1,8.8,21.8,8.7,22.3
			c-0.4,1.8,0.7,3.7,2.5,4.1c0.3,0.1,0.6,0.1,0.8,0.1c1.5,0,2.9-1,3.3-2.6C124.2,147,127.5,132.8,113.6,118.9z"/>
	</g>
</g>
<g>
	<g>
		<path class="st0" d="M166.5,86.9c-0.6-1.8-2.6-2.7-4.4-2c-0.7,0.2-17,5.9-25.6-5.6c-4.5-6-6.4-11.1-8-15.2
			c-1.9-5-3.7-9.8-9.7-10.3c-1.9-0.2-3.5,1.2-3.7,3.1c-0.2,1.9,1.2,3.5,3.1,3.7c1.4,0.1,2,0.9,3.8,5.9c1.6,4.3,3.8,10.1,8.9,16.9
			c5.9,7.9,14.2,9.9,21.1,9.9c6.6,0,11.9-1.9,12.3-2C166.3,90.6,167.2,88.6,166.5,86.9z"/>
	</g>
</g>
<g>
	<g>
		<path class="st0" d="M98.4,6.2c-1.9,0-3.4,1.5-3.4,3.4v169c0,1.9,1.5,3.4,3.4,3.4s3.4-1.5,3.4-3.4V9.6
			C101.8,7.8,100.3,6.2,98.4,6.2z"/>
	</g>
</g>
<g>
	<g>
		<path class="st0" d="M123.3,35.6c0-1.9-1.5-3.4-3.5-3.4c-1.9,0-3.4,1.6-3.4,3.5c0,0.2,0.2,21.5-10.5,35c-1.2,1.5-0.9,3.6,0.6,4.8
			c0.6,0.5,1.4,0.7,2.1,0.7c1,0,2-0.4,2.7-1.3C123.6,59.6,123.4,36.6,123.3,35.6z"/>
	</g>
</g>
<g>
	<g>
		<path class="st0" d="M130.3,140.2c-15,0-22.1,20.6-22.4,21.5c-0.6,1.8,0.4,3.7,2.2,4.3c0.4,0.1,0.7,0.2,1.1,0.2
			c1.4,0,2.8-0.9,3.2-2.3c1.6-4.7,7.5-16.8,15.9-16.8c1.9,0,3.4-1.5,3.4-3.4S132.2,140.2,130.3,140.2z"/>
	</g>
</g>
<g>
	<g>
		<path class="st0" d="M134.1,8.7c-1.5-1.1-3.6-0.8-4.8,0.7l-8.2,11c-1.1,1.5-0.8,3.6,0.7,4.8c0.6,0.5,1.3,0.7,2,0.7
			c1,0,2.1-0.5,2.7-1.4l8.2-11C136,11.9,135.6,9.8,134.1,8.7z"/>
	</g>
</g>
<g>
	<g>
		<path class="st0" d="M64.3,30.7c-7.5,0-13.7,6.1-13.7,13.7S56.7,58,64.3,58s13.7-6.1,13.7-13.7S71.8,30.7,64.3,30.7z M64.3,51.2
			c-3.8,0-6.8-3.1-6.8-6.8s3.1-6.8,6.8-6.8s6.8,3.1,6.8,6.8C71.1,48.1,68,51.2,64.3,51.2z"/>
	</g>
</g>
<g>
	<g>
		<path class="st0" d="M40.4,75.1c-7.5,0-13.7,6.1-13.7,13.7s6.1,13.7,13.7,13.7S54,96.3,54,88.7C54,81.2,47.9,75.1,40.4,75.1z
			 M40.4,95.6c-3.8,0-6.8-3.1-6.8-6.8s3.1-6.8,6.8-6.8s6.8,3.1,6.8,6.8S44.1,95.6,40.4,95.6z"/>
	</g>
</g>
<g>
	<g>
		<path class="st0" d="M74.5,105.8c-7.5,0-13.7,6.1-13.7,13.7s6.1,13.7,13.7,13.7s13.7-6.1,13.7-13.7S82,105.8,74.5,105.8z
			 M74.5,126.3c-3.8,0-6.8-3.1-6.8-6.8s3.1-6.8,6.8-6.8s6.8,3.1,6.8,6.8S78.3,126.3,74.5,126.3z"/>
	</g>
</g>
<g>
	<g>
		<path class="st0" d="M74.5,143.4c-7.5,0-13.7,6.1-13.7,13.7s6.1,13.7,13.7,13.7s13.7-6.1,13.7-13.7S82,143.4,74.5,143.4z
			 M74.5,163.8c-3.8,0-6.8-3.1-6.8-6.8s3.1-6.8,6.8-6.8s6.8,3.1,6.8,6.8C81.3,160.8,78.3,163.8,74.5,163.8z"/>
	</g>
</g>
<g>
	<g>
		<path class="st0" d="M64.3,51.2c-1.9,0-3.4,1.5-3.4,3.4v34.1c0,1.9,1.5,3.4,3.4,3.4c1.9,0,3.4-1.5,3.4-3.4V54.6
			C67.7,52.7,66.1,51.2,64.3,51.2z"/>
	</g>
</g>
<g>
	<g>
		<path class="st0" d="M74.5,85.3H50.6c-1.9,0-3.4,1.5-3.4,3.4s1.5,3.4,3.4,3.4h23.9c1.9,0,3.4-1.5,3.4-3.4
			C77.9,86.9,76.4,85.3,74.5,85.3z"/>
	</g>
</g>
<g>
	<g>
		<path class="st0" d="M74.5,85.3c-1.9,0-3.4,1.5-3.4,3.4v20.5c0,1.9,1.5,3.4,3.4,3.4c1.9,0,3.4-1.5,3.4-3.4V88.7
			C77.9,86.9,76.4,85.3,74.5,85.3z"/>
	</g>
</g>
<g>
	<g>
		<path class="st0" d="M74.5,126.3c-1.9,0-3.4,1.5-3.4,3.4v17.1c0,1.9,1.5,3.4,3.4,3.4c1.9,0,3.4-1.5,3.4-3.4v-17.1
			C77.9,127.8,76.4,126.3,74.5,126.3z"/>
	</g>
</g>
</svg>
