<?xml version="1.0" encoding="utf-8"?>
<!-- Generator: Adobe Illustrator 22.0.1, SVG Export Plug-In . SVG Version: 6.00 Build 0)  -->
<svg version="1.1" id="Layer_1" xmlns="http://www.w3.org/2000/svg" xmlns:xlink="http://www.w3.org/1999/xlink" x="0px" y="0px"
	 viewBox="0 0 512 512" style="enable-background:new 0 0 512 512;" xml:space="preserve">
<style type="text/css">
	.st0{fill:#303030;}
</style>
<g>
	<g>
		<g>
			<path class="st0" d="M509.7,223l-42.3-42.3c-3.1-3.1-8.1-3.1-11.2,0l-9.7,9.7v-78.2c0-20-16.2-36.2-36.2-36.2H36.2
				C16.2,76.1,0,92.3,0,112.3v245.6c0,20,16.2,36.2,36.2,36.2h225.6l-7.1,32.3c-0.6,2.6,0.2,5.4,2.1,7.3c1.5,1.5,3.5,2.3,5.6,2.3
				c0.6,0,1.1-0.1,1.7-0.2l54.2-11.9l0,0c1.4-0.3,2.8-1,3.9-2.1l27.7-27.7h60.3c20,0,36.2-16.2,36.2-36.2v-60.3l41.3-41.3
				c0,0,0,0,0,0l21.9-21.9c1.5-1.5,2.3-3.5,2.3-5.6C512,226.5,511.2,224.5,509.7,223z M24.8,374.6c-5.4-3.7-9-9.8-9-16.8V112.3
				c0-7,3.6-13.2,9-16.8c-2.7,5-4.2,10.8-4.2,16.8v245.6C20.7,363.9,22.2,369.6,24.8,374.6z M266.6,372.1L266.6,372.1l-1.3,6.1H56.9
				c-11.2,0-20.3-9.1-20.3-20.3V112.3c0-11.2,9.1-20.3,20.3-20.3h353.4c11.2,0,20.3,9.1,20.3,20.3v94.1L268.7,368.1
				C267.6,369.2,266.9,370.6,266.6,372.1z M272.8,417.6l6.2-27.9l21.8,21.8L272.8,417.6z M430.6,357.8c0,11.2-9.1,20.3-20.3,20.3
				h-44.4l64.8-64.8L430.6,357.8L430.6,357.8z M316.6,404.8l-31.1-31.1l154.3-154.3l31.1,31.1L316.6,404.8z M482.1,239.3l-31.1-31.1
				l10.7-10.7l31.1,31.1L482.1,239.3z"/>
			<path class="st0" d="M279.8,217.7l-55.9-36.2c-6.8-4.4-14-5.2-19.7-2.1c-5.7,3.1-9,9.6-9,17.7v75.8c0,8.1,3.3,14.6,9,17.7
				c2.3,1.3,4.9,1.9,7.6,1.9c3.9,0,8.1-1.3,12.2-4l55.9-36.2c6.6-4.3,10.4-10.6,10.4-17.3C290.2,228.3,286.4,222,279.8,217.7z
				 M271.1,239l-55.9,36.2c-1.8,1.2-3.1,1.4-3.5,1.4c-0.2-0.4-0.7-1.5-0.7-3.7v-75.8c0-2.2,0.5-3.3,0.7-3.7h0c0.5,0,1.7,0.2,3.5,1.4
				l55.9,36.2c2,1.3,3.2,2.8,3.2,4C274.3,236.2,273.1,237.7,271.1,239z"/>
			<path class="st0" d="M432.6,246.5l-24.2,24.2c-3.1,3.1-3.1,8.1,0,11.2c1.5,1.5,3.6,2.3,5.6,2.3c2,0,4.1-0.8,5.6-2.3l24.2-24.2
				c3.1-3.1,3.1-8.1,0-11.2C440.7,243.4,435.7,243.4,432.6,246.5z"/>
			<path class="st0" d="M233.5,127.8c-59.1,0-107.2,48.1-107.2,107.2c0,59.1,48.1,107.2,107.2,107.2S340.7,294.1,340.7,235
				S292.6,127.8,233.5,127.8z M233.5,326.4c-50.4,0-91.3-41-91.3-91.3c0-50.4,41-91.3,91.3-91.3c50.4,0,91.3,41,91.3,91.3
				C324.9,285.4,283.9,326.4,233.5,326.4z"/>
		</g>
	</g>
</g>
</svg>
