<?xml version="1.0" encoding="utf-8"?>
<!-- Generator: Adobe Illustrator 22.0.1, SVG Export Plug-In . SVG Version: 6.00 Build 0)  -->
<svg version="1.1" id="Layer_1" xmlns="http://www.w3.org/2000/svg" xmlns:xlink="http://www.w3.org/1999/xlink" x="0px" y="0px"
	 viewBox="-627.8 139.9 200 110.3" style="enable-background:new -627.8 139.9 200 110.3;" xml:space="preserve">
<style type="text/css">
	.st0{fill:#B1002E;}
	.st1{fill:#09B800;}
	.st2{fill:#D44C1F;}
</style>
<g>
	<g>
		<g>
			<polygon class="st0" points="-604.9,207.9 -604.9,250 -597.6,250 -597.6,214.5 			"/>
			<polygon class="st0" points="-589.4,221.8 -589.4,250 -582.1,250 -582.1,228.5 			"/>
			<polygon class="st0" points="-587.1,207.9 -548.9,166.5 -548.9,139.9 -554.6,139.9 -603.7,192.9 			"/>
			<polygon class="st0" points="-548.9,242.2 -548.9,184.1 -578.2,215.8 			"/>
			<polygon class="st0" points="-620.4,211.1 -620.4,250 -613,250 -613,203.1 			"/>
			<polygon class="st0" points="-627.7,139.9 -627.7,199.3 -572.9,139.9 			"/>
			<polygon class="st0" points="-573.9,235.8 -573.9,250 -566.6,250 -566.6,242.4 			"/>
		</g>
		<polygon class="st0" points="-558.5,250 -558.2,250 -558.5,249.7 		"/>
		<g>
			<polygon class="st2" points="-611.8,201.7 -613,203.1 -613,250 -604.9,250 -604.9,207.9 			"/>
			<polygon class="st2" points="-627.7,219 -627.7,250 -620.4,250 -620.4,211.1 			"/>
			<polygon class="st2" points="-597.6,214.5 -597.6,250 -589.4,250 -589.4,221.8 			"/>
			<polygon class="st2" points="-582.1,228.5 -582.1,250 -573.9,250 -573.9,235.8 			"/>
			<polygon class="st2" points="-566.6,242.4 -566.6,250 -558.5,250 -558.5,249.7 			"/>
		</g>
	</g>
	<g>
		<g>
			<path class="st0" d="M-540,174v6.3h1.4v0.9h-4.9v-0.9h1.4v-12.4h-1.4V167h4.9v0.9h-1.4V174l5.3-6.1h-1.4V167h3.8v0.9h-1l-4.8,5.6
				l0.1,0.1l6.1,6.8h0.8v0.9h-4.6v-0.9h1.2L-540,174z"/>
			<path class="st0" d="M-526.3,170.8v9.6h1.4v1h-4.8v-1h1.4v-8.6h-1.4v-1H-526.3z M-528.3,168.9V167h1.9v1.9H-528.3z"/>
			<path class="st0" d="M-519.8,173.6v6.7h1.4v1h-4.8v-1h1.4v-8.6h-1.4v-1h3.4v2c0.9-1.5,2-2.2,3.4-2.2c0.2,0,0.4,0,0.6,0.1v2.6
				h-1.2v-1.1h-0.3C-518,172.2-518.9,172.7-519.8,173.6z"/>
			<path class="st0" d="M-510.7,170.8v9.6h1.4v1h-4.8v-1h1.4v-8.6h-1.4v-1H-510.7z M-512.6,168.9V167h1.9v1.9H-512.6z"/>
			<path class="st0" d="M-504.1,173.6v6.7h1.4v1h-4.8v-1h1.4v-8.6h-1.4v-1h3.4v2c0.9-1.5,2-2.2,3.4-2.2c0.2,0,0.4,0,0.6,0.1v2.6
				h-1.2v-1.1h-0.3C-502.4,172.2-503.2,172.7-504.1,173.6z"/>
			<path class="st0" d="M-493.1,181.5c-1.5,0-2.8-0.5-3.7-1.5c-0.9-1-1.3-2.3-1.3-4c0-1.7,0.4-3,1.3-4c0.9-1,2.1-1.5,3.7-1.5
				c1.6,0,2.8,0.5,3.7,1.5c0.9,1,1.3,2.3,1.3,4c0,1.7-0.4,3-1.3,4C-490.4,181-491.6,181.5-493.1,181.5z M-493.1,180.6
				c0.9,0,1.6-0.4,2.1-1.3c0.6-0.9,0.8-1.9,0.8-3.3c0-1.3-0.3-2.4-0.8-3.3c-0.6-0.9-1.3-1.3-2.1-1.3c-0.9,0-1.6,0.4-2.1,1.3
				c-0.6,0.9-0.8,1.9-0.8,3.3c0,1.3,0.3,2.4,0.8,3.3C-494.7,180.2-494,180.6-493.1,180.6z"/>
			<path class="st0" d="M-482.6,172.8c0.6-0.7,1.1-1.3,1.7-1.7c0.6-0.4,1.2-0.6,1.9-0.6c0.8,0,1.4,0.2,1.8,0.6s0.7,0.9,0.9,1.7h0.1
				c0.6-0.7,1.1-1.3,1.7-1.7c0.6-0.4,1.2-0.6,1.9-0.6c0.9,0,1.6,0.3,2.1,0.8s0.8,1.3,0.8,2.3v6.7h1.4v1h-4.8v-1h1.4V174
				c0-0.7-0.1-1.2-0.4-1.5c-0.2-0.3-0.6-0.5-1.1-0.5c-0.5,0-1,0.1-1.5,0.4c-0.5,0.3-1,0.7-1.6,1.3v6.7h1.4v1h-4.8v-1h1.4V174
				c0-0.7-0.1-1.2-0.4-1.5c-0.2-0.3-0.6-0.5-1.1-0.5c-0.5,0-1,0.1-1.5,0.4c-0.5,0.3-1.1,0.7-1.6,1.3v6.7h1.4v1h-4.8v-1h1.4v-8.6
				h-1.4v-1h3.4V172.8z"/>
		</g>
		<g>
			<path class="st0" d="M-539.9,199.8v12.4h1.4v0.9h-4.9v-0.9h1.4v-12.4h-1.4v-0.9h4.9v0.9H-539.9z"/>
			<path class="st0" d="M-533.2,204.6c0.5-0.7,1-1.3,1.7-1.7c0.6-0.4,1.3-0.6,2.1-0.6c0.9,0,1.6,0.3,2.1,0.9
				c0.5,0.6,0.8,1.4,0.8,2.5v6.5h1.4v1h-4.8v-1h1.4V206c0-0.8-0.1-1.4-0.4-1.7c-0.2-0.3-0.7-0.5-1.3-0.5c-0.5,0-1.1,0.1-1.6,0.4
				c-0.5,0.3-1,0.7-1.6,1.3v6.7h1.4v1h-4.8v-1h1.4v-8.6h-1.4v-1h3.4V204.6z"/>
			<path class="st0" d="M-522.9,212.6v-2.3h1.2v1.2c0.4,0.3,0.9,0.6,1.3,0.7c0.4,0.2,0.8,0.2,1.2,0.2c0.6,0,1.1-0.2,1.5-0.5
				c0.4-0.3,0.6-0.7,0.6-1.2c0-0.8-0.6-1.4-1.7-1.8l-1-0.4c-2-0.8-3-1.9-3-3.2c0-0.9,0.3-1.6,1-2.1c0.7-0.6,1.5-0.8,2.6-0.8
				c0.5,0,1.1,0,1.6,0.1c0.5,0.1,1.1,0.2,1.6,0.5v2.3h-1.2v-1.2c-0.4-0.2-0.7-0.4-1-0.5c-0.3-0.1-0.7-0.2-1-0.2
				c-0.5,0-0.9,0.2-1.3,0.5c-0.3,0.3-0.5,0.7-0.5,1.1c0,0.4,0.2,0.8,0.5,1s0.9,0.6,1.8,1l0.9,0.4c1,0.4,1.7,0.8,2,1.2
				c0.4,0.4,0.6,1,0.6,1.7c0,0.9-0.4,1.7-1.1,2.3c-0.7,0.6-1.7,0.9-2.9,0.9c-0.6,0-1.2-0.1-1.8-0.2S-522.4,212.9-522.9,212.6z"/>
			<path class="st0" d="M-506.9,213.1c-0.5,0.2-1,0.3-1.4,0.3c-1.1,0-1.9-0.3-2.4-0.9c-0.5-0.6-0.8-1.5-0.8-2.7v-6.2h-1.4v-1.1h1.4
				v-1.9l1.9-0.5v2.4h2.7v1.1h-2.7v6.4c0,0.7,0.1,1.3,0.4,1.6c0.3,0.4,0.6,0.6,1.2,0.6c0.3,0,0.7-0.1,1.1-0.3V213.1z"/>
			<path class="st0" d="M-501.7,202.6v9.6h1.4v1h-4.8v-1h1.4v-8.6h-1.4v-1H-501.7z M-503.7,200.7v-1.9h1.9v1.9H-503.7z"/>
			<path class="st0" d="M-492.3,213.1c-0.5,0.2-1,0.3-1.4,0.3c-1.1,0-1.9-0.3-2.4-0.9c-0.5-0.6-0.8-1.5-0.8-2.7v-6.2h-1.4v-1.1h1.4
				v-1.9l1.9-0.5v2.4h2.7v1.1h-2.7v6.4c0,0.7,0.1,1.3,0.4,1.6c0.3,0.4,0.6,0.6,1.2,0.6c0.3,0,0.7-0.1,1.1-0.3V213.1z"/>
			<path class="st0" d="M-482.6,213.2v-2c-0.5,0.7-1,1.3-1.7,1.7c-0.6,0.4-1.3,0.6-2.1,0.6c-0.9,0-1.6-0.3-2.1-0.9
				c-0.5-0.6-0.8-1.4-0.8-2.5v-6.4h-1.4v-1h3.4v7.1c0,0.8,0.1,1.4,0.4,1.7c0.2,0.3,0.7,0.5,1.3,0.5c0.5,0,1-0.1,1.6-0.4
				c0.5-0.3,1-0.7,1.6-1.3v-6.7h-1.4v-1h3.4v9.6h1.4v1H-482.6z"/>
			<path class="st0" d="M-471.2,213.1c-0.5,0.2-1,0.3-1.4,0.3c-1.1,0-1.9-0.3-2.4-0.9c-0.5-0.6-0.8-1.5-0.8-2.7v-6.2h-1.4v-1.1h1.4
				v-1.9l1.9-0.5v2.4h2.7v1.1h-2.7v6.4c0,0.7,0.1,1.3,0.4,1.6c0.3,0.4,0.6,0.6,1.2,0.6c0.3,0,0.7-0.1,1.1-0.3V213.1z"/>
			<path class="st0" d="M-460.6,212.7c-1.2,0.5-2.3,0.7-3.3,0.7c-1.5,0-2.8-0.5-3.7-1.6c-1-1-1.4-2.4-1.4-4c0-1.6,0.4-2.9,1.3-3.9
				c0.9-1,2-1.5,3.3-1.5c1.3,0,2.2,0.4,2.9,1.3c0.7,0.8,1,2.1,1,3.6v0.4h-6.5c0,1.4,0.3,2.5,0.9,3.3c0.6,0.8,1.5,1.2,2.5,1.2
				c1,0,2.1-0.3,3.1-0.8V212.7z M-467,206.7h4.4v-0.2c0-2.1-0.7-3.1-2-3.1c-0.7,0-1.3,0.3-1.7,0.8
				C-466.7,204.7-466.9,205.6-467,206.7z"/>
			<path class="st0" d="M-446.7,213.4c-1.5,0-2.8-0.5-3.7-1.5c-0.9-1-1.3-2.3-1.3-4c0-1.7,0.4-3,1.3-4c0.9-1,2.1-1.5,3.7-1.5
				c1.6,0,2.8,0.5,3.7,1.5c0.9,1,1.3,2.3,1.3,4c0,1.7-0.4,3-1.3,4C-443.9,212.9-445.1,213.4-446.7,213.4z M-446.7,212.4
				c0.9,0,1.6-0.4,2.1-1.3c0.6-0.9,0.8-1.9,0.8-3.3c0-1.3-0.3-2.4-0.8-3.3c-0.6-0.9-1.3-1.3-2.1-1.3c-0.9,0-1.6,0.4-2.1,1.3
				c-0.6,0.9-0.8,1.9-0.8,3.3c0,1.3,0.3,2.4,0.8,3.3C-448.3,212-447.6,212.4-446.7,212.4z"/>
			<path class="st0" d="M-437.8,203.7h-1.7v-1.1h1.7v-0.5c0-1.6,0.3-2.7,0.8-3.5s1.3-1.1,2.5-1.1c0.4,0,0.9,0.1,1.3,0.2
				c0.4,0.1,0.8,0.3,1.2,0.5v1.7h-1.2v-0.8c-0.2-0.2-0.4-0.4-0.6-0.5c-0.2-0.1-0.4-0.1-0.7-0.1c-0.4,0-0.8,0.2-1,0.6
				c-0.2,0.4-0.3,1-0.3,1.8v1.7h2.6v1.1h-2.6v8.5h1.4v1h-4.8v-1h1.4V203.7z"/>
		</g>
		<g>
			<path class="st0" d="M-538.5,231.6h-4.1v1.7h-1.1v-2.7h12.4v2.7h-1.1v-1.7h-4.1v12.3h1.4v0.9h-4.9v-0.9h1.4V231.6z"/>
			<path class="st0" d="M-521,244.4c-1.2,0.5-2.3,0.7-3.3,0.7c-1.5,0-2.8-0.5-3.7-1.6s-1.4-2.4-1.4-4c0-1.6,0.4-2.9,1.3-3.9
				c0.9-1,2-1.5,3.3-1.5c1.3,0,2.2,0.4,2.9,1.3c0.7,0.8,1,2.1,1,3.6v0.4h-6.5c0,1.4,0.3,2.5,0.9,3.3c0.6,0.8,1.5,1.2,2.5,1.2
				c1,0,2.1-0.3,3.1-0.8V244.4z M-527.4,238.4h4.4v-0.2c0-2.1-0.7-3.1-2-3.1c-0.7,0-1.3,0.3-1.7,0.8
				C-527.1,236.5-527.3,237.3-527.4,238.4z"/>
			<path class="st0" d="M-510.3,244.5c-1,0.4-2,0.6-2.9,0.6c-1.6,0-2.8-0.5-3.8-1.5c-1-1-1.4-2.4-1.4-4c0-1.6,0.5-3,1.4-3.9
				c0.9-1,2.1-1.5,3.6-1.5c0.4,0,0.9,0,1.4,0.1c0.5,0.1,1.1,0.2,1.7,0.4v2.4h-1.1l-0.1-1.3c-0.3-0.2-0.6-0.4-0.9-0.5
				c-0.3-0.1-0.6-0.2-0.9-0.2c-0.9,0-1.6,0.4-2.2,1.3s-0.9,1.9-0.9,3.2c0,1.3,0.3,2.3,0.9,3.1c0.6,0.7,1.4,1.1,2.5,1.1
				c0.9,0,1.8-0.2,2.7-0.6V244.5z"/>
			<path class="st0" d="M-504.5,236.3c0.5-0.7,1-1.3,1.7-1.7c0.6-0.4,1.3-0.6,2.1-0.6c0.9,0,1.6,0.3,2.1,0.9
				c0.5,0.6,0.8,1.4,0.8,2.5v6.5h1.4v1h-4.8v-1h1.4v-6.2c0-0.8-0.1-1.4-0.4-1.7c-0.2-0.3-0.7-0.5-1.3-0.5c-0.5,0-0.9,0.1-1.5,0.4
				c-0.5,0.3-1.1,0.7-1.7,1.3v6.7h1.4v1h-4.8v-1h1.4v-13.4h-1.4v-1h3.4V236.3z"/>
			<path class="st0" d="M-491.4,236.4c0.5-0.7,1-1.3,1.7-1.7c0.6-0.4,1.3-0.6,2.1-0.6c0.9,0,1.6,0.3,2.1,0.9
				c0.5,0.6,0.8,1.4,0.8,2.5v6.5h1.4v1h-4.8v-1h1.4v-6.2c0-0.8-0.1-1.4-0.4-1.7c-0.2-0.3-0.7-0.5-1.3-0.5c-0.5,0-1.1,0.1-1.6,0.4
				c-0.5,0.3-1,0.7-1.6,1.3v6.7h1.4v1h-4.8v-1h1.4v-8.6h-1.4v-1h3.4V236.4z"/>
			<path class="st0" d="M-476.5,245.1c-1.5,0-2.8-0.5-3.7-1.5c-0.9-1-1.3-2.3-1.3-4c0-1.7,0.4-3,1.3-4c0.9-1,2.1-1.5,3.7-1.5
				c1.6,0,2.8,0.5,3.7,1.5c0.9,1,1.3,2.3,1.3,4c0,1.7-0.4,3-1.3,4C-473.7,244.6-475,245.1-476.5,245.1z M-476.5,244.2
				c0.9,0,1.6-0.4,2.1-1.3c0.6-0.9,0.8-1.9,0.8-3.3c0-1.3-0.3-2.4-0.8-3.3c-0.6-0.9-1.3-1.3-2.1-1.3c-0.9,0-1.6,0.4-2.1,1.3
				c-0.6,0.9-0.8,1.9-0.8,3.3c0,1.3,0.3,2.4,0.8,3.3C-478.1,243.8-477.4,244.2-476.5,244.2z"/>
			<path class="st0" d="M-466,229.6v14.3h1.4v1h-4.8v-1h1.4v-13.4h-1.4v-1H-466z"/>
			<path class="st0" d="M-457.4,245.1c-1.5,0-2.8-0.5-3.7-1.5c-0.9-1-1.3-2.3-1.3-4c0-1.7,0.4-3,1.3-4c0.9-1,2.1-1.5,3.7-1.5
				c1.6,0,2.8,0.5,3.7,1.5c0.9,1,1.3,2.3,1.3,4c0,1.7-0.4,3-1.3,4C-454.6,244.6-455.8,245.1-457.4,245.1z M-457.4,244.2
				c0.9,0,1.6-0.4,2.1-1.3c0.6-0.9,0.8-1.9,0.8-3.3c0-1.3-0.3-2.4-0.8-3.3c-0.6-0.9-1.3-1.3-2.1-1.3c-0.9,0-1.6,0.4-2.1,1.3
				c-0.6,0.9-0.8,1.9-0.8,3.3c0,1.3,0.3,2.4,0.8,3.3C-459,243.8-458.3,244.2-457.4,244.2z"/>
			<path class="st0" d="M-448.1,244.5c-0.7-0.3-1.1-0.8-1.1-1.4c0-0.3,0.2-0.7,0.5-1c0.3-0.3,0.8-0.6,1.4-0.9
				c-0.7-0.3-1.2-0.8-1.6-1.3c-0.4-0.6-0.5-1.2-0.5-2c0-1.1,0.4-2,1.1-2.7c0.7-0.7,1.7-1,2.9-1c0.4,0,0.7,0,1.1,0.1
				c0.3,0.1,0.6,0.2,0.9,0.3l3.7-0.3l-0.6,1.4l-2.1-0.4c0.6,0.8,0.9,1.6,0.9,2.5c0,1.1-0.4,2-1.1,2.7s-1.7,1-2.9,1
				c-0.4,0-0.7,0-1.1-0.1c-0.3,0.2-0.5,0.4-0.6,0.6c-0.1,0.2-0.2,0.4-0.2,0.6c0,0.4,0.4,0.6,1.2,0.6h1.7c1.6,0,2.7,0.2,3.3,0.5
				c0.6,0.3,0.9,1,0.9,1.9c0,1-0.5,1.8-1.4,2.4c-0.9,0.6-2.1,0.9-3.6,0.9c-1.4,0-2.6-0.2-3.5-0.6c-0.9-0.4-1.3-1-1.3-1.6
				c0-0.4,0.2-0.8,0.5-1.2C-449.3,245.1-448.8,244.8-448.1,244.5z M-447.3,244.7c-0.3,0.3-0.6,0.5-0.7,0.8c-0.2,0.3-0.2,0.6-0.2,0.9
				c0,0.5,0.2,0.9,0.7,1.2c0.5,0.3,1.2,0.4,2.1,0.4c1,0,1.7-0.2,2.3-0.6c0.6-0.4,0.9-0.9,0.9-1.5c0-0.4-0.2-0.7-0.5-0.9
				c-0.3-0.2-0.8-0.3-1.5-0.3H-447.3z M-447.6,237.9c0,0.9,0.2,1.6,0.5,2.1c0.3,0.5,0.9,0.7,1.5,0.7c0.7,0,1.2-0.2,1.5-0.7
				c0.3-0.5,0.5-1.2,0.5-2.2c0-1-0.2-1.7-0.5-2.1c-0.3-0.5-0.9-0.7-1.6-0.7c-0.7,0-1.2,0.2-1.5,0.7
				C-447.4,236.2-447.6,236.9-447.6,237.9z"/>
			<path class="st0" d="M-433.9,244.9l-4-9.6h-0.8v-1h4.3v1h-1.4l3,7.2l3.2-7.2h-1.4v-1h3.3v1h-0.8l-4.3,9.7l-1.7,3.7h-2.3
				L-433.9,244.9z"/>
		</g>
	</g>
</g>
</svg>
