<svg id="Layer_1" data-name="Layer 1" xmlns="http://www.w3.org/2000/svg" viewBox="0 0 1920 1080"><defs><style>.cls-1{fill:#138690;stroke:#138690;stroke-miterlimit:10;}</style></defs><title>logo</title><path class="cls-1" d="M846.32,659.68H858.1v11.77H846.32Z"/><path class="cls-1" d="M869.87,659.68h11.77v11.77H869.87Z"/><path class="cls-1" d="M893.42,659.68h11.77v11.77H893.42Z"/><path class="cls-1" d="M1093.58,659.68h47.1v11.77h-47.1Z"/><path class="cls-1" d="M1164.23,636.13V441.85a29.47,29.47,0,0,0-29.44-29.44h-29.44V553.71h-29.44a81.78,81.78,0,0,0-8.07-35.32h25.73V400.65H999.39v70.94c-2-.14-3.9-.3-5.89-.3a82.51,82.51,0,0,0-82.42,82.42H881.65V388.87h223.71v11.77h11.77V330H869.87v82.42H852.21a29.47,29.47,0,0,0-29.44,29.44V636.13H811v29.44A29.47,29.47,0,0,0,840.44,695h306.13A29.47,29.47,0,0,0,1176,665.56V636.13Zm-29.44-211.94a17.68,17.68,0,0,1,17.66,17.66V636.13h-11.77V447.74A11.79,11.79,0,0,0,1128.9,436h-11.77V424.19Zm-123.63-11.77h70.65v94.19H1061a82.55,82.55,0,0,0-49.88-33.37ZM993.5,483.06a70.6,70.6,0,0,1,58.71,109.88,29.39,29.39,0,0,0-21.09-26.2l-20-5.7v-1.57A29.46,29.46,0,0,0,1022.94,536V525.49c0-15.82-11.78-29.23-26.82-30.54a29.44,29.44,0,0,0-32.05,29.32V536a29.46,29.46,0,0,0,11.77,23.42V561l-20,5.7a29.37,29.37,0,0,0-21.09,26.2A70.6,70.6,0,0,1,993.5,483.06Zm-8.81,68.18A17.47,17.47,0,0,1,975.84,536V524.27a17.67,17.67,0,0,1,19.26-17.59c9,.78,16.06,9,16.06,18.81V536a17.47,17.47,0,0,1-8.85,15.19l-2.93,1.7v17l28.5,8.15a17.61,17.61,0,0,1,11.68,11H947.43a17.59,17.59,0,0,1,11.68-11l28.5-8.15v-17ZM1046,600.81a70.31,70.31,0,0,1-105,0Zm59.35-259V377.1H881.65V341.77ZM834.55,441.85a17.68,17.68,0,0,1,17.66-17.66h17.66V436H858.1a11.79,11.79,0,0,0-11.77,11.77V636.13H834.55Zm329.68,223.71a17.68,17.68,0,0,1-17.66,17.66H840.44a17.68,17.68,0,0,1-17.66-17.66V647.9H944.07a46.48,46.48,0,0,0,30.77,11.77h37.35a46.48,46.48,0,0,0,30.77-11.77h74.18V636.13h-79l-1.72,1.72a34.55,34.55,0,0,1-24.26,10H974.83a34.55,34.55,0,0,1-24.26-10l-1.72-1.72H858.1V447.74h11.77V565.48H912a82.31,82.31,0,0,0,163,0h42.15V447.74h11.77V647.9h35.32Z"/><path class="cls-1" d="M893.42,353.55h11.77v11.77H893.42Z"/><path class="cls-1" d="M917,353.55h11.77v11.77H917Z"/><path class="cls-1" d="M940.52,353.55h11.77v11.77H940.52Z"/><path class="cls-1" d="M893.42,400.65h11.77v11.77H893.42Z"/><path class="cls-1" d="M917,400.65h70.65v11.77H917Z"/><path class="cls-1" d="M893.42,424.19h11.77V436H893.42Z"/><path class="cls-1" d="M917,424.19h70.65V436H917Z"/><path class="cls-1" d="M893.42,447.74h11.77v11.77H893.42Z"/><path class="cls-1" d="M917,447.74h70.65v11.77H917Z"/></svg>