<svg id="Layer_1" data-name="Layer 1" xmlns="http://www.w3.org/2000/svg" viewBox="0 0 1920 1080"><defs><style>.cls-1{fill:#138690;stroke:#138690;stroke-miterlimit:10;}</style></defs><title>logo</title><path class="cls-1" d="M846.26,360.67h-7a6.92,6.92,0,1,0,0,13.83h7a6.92,6.92,0,1,0,0-13.83Z"/><path class="cls-1" d="M881.44,360.67h-7a6.92,6.92,0,1,0,0,13.83h7a6.92,6.92,0,1,0,0-13.83Z"/><path class="cls-1" d="M916.62,360.67h-7a6.92,6.92,0,1,0,0,13.83h7a6.92,6.92,0,1,0,0-13.83Z"/><path class="cls-1" d="M1134.76,360.67h-190a6.92,6.92,0,1,0,0,13.83h190a6.92,6.92,0,1,0,0-13.83Z"/><path class="cls-1" d="M1205.13,582h-7V547.42A75,75,0,0,0,1177,495.36V367.58c0-19.09-15.76-34.56-35.18-34.58H832.18C812.76,333,797,348.49,797,367.58V644.25c0,19.09,15.76,34.56,35.18,34.58h190v20.75c0,26.73,22.07,48.39,49.26,48.42h98.51c27.19,0,49.23-21.69,49.26-48.42V595.83A14,14,0,0,0,1205.13,582ZM1184,547.42V582H1057.36V547.42c0-34.38,28.35-62.25,63.33-62.25S1184,513,1184,547.42ZM811.07,367.58a20.93,20.93,0,0,1,21.11-20.75H1141.8a20.93,20.93,0,0,1,21.11,20.75v20.75H811.07Zm211.1,228.25V665h-190a20.93,20.93,0,0,1-21.11-20.75V402.17h351.84v81.56a78.45,78.45,0,0,0-79.14-3.23,75.8,75.8,0,0,0-40.49,66.91V582h-7A14,14,0,0,0,1022.17,595.83Zm183,13.83H1184a6.92,6.92,0,1,0,0,13.83h21.11v13.83H1184a6.92,6.92,0,1,0,0,13.83h21.11V665H1184a6.92,6.92,0,1,0,0,13.83h21.11v13.83H1184a6.92,6.92,0,1,0,0,13.83h20.41a35.1,35.1,0,0,1-34.48,27.67h-98.51A35.1,35.1,0,0,1,1037,706.5h20.41a6.92,6.92,0,1,0,0-13.83h-21.11V678.83h21.11a6.92,6.92,0,1,0,0-13.83h-21.11V651.17h21.11a6.92,6.92,0,1,0,0-13.83h-21.11V623.5h21.11a6.92,6.92,0,1,0,0-13.83h-21.11V595.83h168.88v13.83Z"/><path class="cls-1" d="M1113.65,670.64v15.11a7,7,0,0,0,14.07,0V670.64a20.66,20.66,0,0,0,13.76-23,21.17,21.17,0,0,0-41.59,0A20.66,20.66,0,0,0,1113.65,670.64Zm7-26.39a6.92,6.92,0,1,1-7,6.92A7,7,0,0,1,1120.69,644.25Z"/><path class="cls-1" d="M916.62,471.33a7,7,0,0,0-7,6.92V499H853.29V443.67h28.15a6.92,6.92,0,1,0,0-13.83H853.29a14,14,0,0,0-14.07,13.83V499a14,14,0,0,0,14.07,13.83h56.29A14,14,0,0,0,923.66,499V478.25A7,7,0,0,0,916.62,471.33Z"/><path class="cls-1" d="M872.34,459.53a7.12,7.12,0,0,0-9.86.08,6.83,6.83,0,0,0-.09,9.7l14.07,13.83a7.1,7.1,0,0,0,5,2h.32a7.08,7.08,0,0,0,5.09-2.48L922,441.19a6.83,6.83,0,0,0,1.2-6.82,7,7,0,0,0-5.4-4.43,7.1,7.1,0,0,0-6.61,2.38L881,468Z"/><path class="cls-1" d="M916.62,588.92a7,7,0,0,0-7,6.92v20.75H853.29V561.25h28.15a6.92,6.92,0,1,0,0-13.83H853.29a14,14,0,0,0-14.07,13.83v55.33a14,14,0,0,0,14.07,13.83h56.29a14,14,0,0,0,14.07-13.83V595.83A7,7,0,0,0,916.62,588.92Z"/><path class="cls-1" d="M872.34,577.11a7.12,7.12,0,0,0-9.86.08,6.83,6.83,0,0,0-.09,9.7l14.07,13.83a7.1,7.1,0,0,0,5,2h.32a7.08,7.08,0,0,0,5.09-2.48L922,558.77a6.83,6.83,0,0,0,1.2-6.82,7,7,0,0,0-5.4-4.43,7.1,7.1,0,0,0-6.61,2.38L881,585.6Z"/><path class="cls-1" d="M951.81,450.58h56.29a6.92,6.92,0,1,0,0-13.83H951.81a6.92,6.92,0,1,0,0,13.83Z"/><path class="cls-1" d="M1050.32,478.25a7,7,0,0,0-7-6.92H951.81a6.92,6.92,0,1,0,0,13.83h91.48A7,7,0,0,0,1050.32,478.25Z"/><path class="cls-1" d="M1008.1,554.33H951.81a6.92,6.92,0,1,0,0,13.83h56.29a6.92,6.92,0,1,0,0-13.83Z"/><path class="cls-1" d="M1001.06,588.92H951.81a6.92,6.92,0,1,0,0,13.83h49.26a6.92,6.92,0,1,0,0-13.83Z"/></svg>