<svg id="Layer_1" data-name="Layer 1" xmlns="http://www.w3.org/2000/svg" viewBox="0 0 1920 1080"><defs><style>.cls-1{fill:#138690;stroke:#138690;stroke-miterlimit:10;}</style></defs><title>VR</title><path class="cls-1" d="M1254.75,304.72H1124.92A230.64,230.64,0,0,0,991.59,262c-92.67,0-180.47,56.57-209,134.6-20.67,43.16-8.6,127.26,1.11,194.89,2.49,17.39,4.86,33.82,6.42,47.95l1,182a9.55,9.55,0,0,0,9.57,9.47l272.22,3.33h.12a10.2,10.2,0,0,0,7.08-2.63,9.56,9.56,0,0,0,3.15-6.73V749.86L1150.9,752c.62,0,1.09,0,1.7,0a58.16,58.16,0,0,0,58.07-57.44l.8-56.57h76.2a9.91,9.91,0,0,0,9-13.62l-30.56-74.91A44.08,44.08,0,0,0,1299,507.09V348.37C1299,324.26,1278.85,304.72,1254.75,304.72Zm-52.69,19.39V531.33H1032.42a58.2,58.2,0,0,1-58.19-58.27V382.4a58.22,58.22,0,0,1,58.19-58.29ZM874,315.9a220.81,220.81,0,0,1,117.62-34.61,205,205,0,0,1,95.9,23.43h-55.07c-39.69,0-72.51,30.3-77.16,67.86H815.93C830,350.77,849.86,331.34,874,315.9Zm-73.74,88.91c.15-.31.28-.93.4-1.26,1.37-3.8,2.93-7.94,4.64-11.58H954.84v71.5H790.52C790.62,439.23,793.26,419.1,800.23,404.81Zm401.69,213.77a9.56,9.56,0,0,0-9.69,9.4l-1,66.25a38.8,38.8,0,0,1-40,38.37L996.1,727.81a9.71,9.71,0,0,0-10,9.39,9.92,9.92,0,0,0,9.66,10l68.14,2.09V815.1l-253.16-3.25-1.11-173c0-.34-.07-.68-.12-1-1.6-14.56-4-31.13-6.6-48.88C798,555,792.54,516.78,791,482.85H955.26c4.66,37.57,37.48,67.86,77.16,67.86h213l27.77,67.86Zm77.69-111.49c0,13.42-11.45,24.24-24.87,24.24h-33.3V324.11h33.3c13.42,0,24.87,10.84,24.87,24.26Z"/></svg>