<svg id="Layer_1" data-name="Layer 1" xmlns="http://www.w3.org/2000/svg" viewBox="0 0 1920 1080"><defs><style>.cls-1{fill:#138690;}</style></defs><title>logo</title><path class="cls-1" d="M819,394s158-92,160-93a3.62,3.62,0,0,1,3.52,0L1143,394V316L981,222,819,316Z"/><path class="cls-1" d="M1143,423s-158,92-160,93a3.62,3.62,0,0,1-3.52,0L819,423v78l162,94,162-94Z"/><polygon class="cls-1" points="843 408 981 329 1118 408 981 488 843 408"/><path class="cls-1" d="M1013.5,668c-38.38,0-69.5,32.24-69.5,72s31.12,72,69.5,72,69.5-32.24,69.5-72S1051.88,668,1013.5,668Zm0,125c-26.79,0-48.5-23.8-48.5-53.15s21.71-53.15,48.5-53.15,48.5,23.8,48.5,53.15S1040.29,793,1013.5,793Z"/><polygon class="cls-1" points="574 671 629 809 653 809 706 671 685 671 641 786 597 671 574 671"/><path class="cls-1" d="M827,788v21h21V670H827v86c1,7-10,37-40,37-33,0-42-28-41-37V670H725v88s2,30,28,46c10,7,40,8,45,6C806,807,823,793,827,788Z"/><path class="cls-1" d="M883,655V809h21V689h32V671H904V654c0-10,5-20,18-21h14V613H924C898,614,884,631,883,655Z"/><rect class="cls-1" x="1202" y="670" width="21" height="139"/><circle class="cls-1" cx="1212.5" cy="633.5" r="13.5"/><path class="cls-1" d="M1130,704V670h-21V809h21V737c5-34,32-48,39-48h13V669h-10C1165,669,1139,676,1130,704Z"/><path class="cls-1" d="M1366,670v23s-13-24-49.84-25C1286,669,1248,687,1250,744s51,68,68,68c21,0,41-12,48-25v22h21V670Zm-47,123c-27.06,0-49-23.8-49-53.15s21.94-53.15,49-53.15,49,23.8,49,53.15S1346.06,793,1319,793Z"/></svg>