<svg id="Layer_1" data-name="Layer 1" xmlns="http://www.w3.org/2000/svg" viewBox="0 0 630 591"><defs><style>.cls-1{fill:#138690;stroke:#138690;}.cls-1,.cls-2{stroke-miterlimit:10;}.cls-2{fill:none;stroke:#fff;}</style></defs><title>logo</title><path class="cls-1" d="M607.5,276.5v-24h-27v-29h-25v29h-40v-29h-27v29h-28v24h28v42h-28v25h28v26h27v-26h39v26h27v-26h26v-25h-26v-42Zm-51,42h-42v-42h42Z"/><line class="cls-2" x1="417.5" y1="239.5" x2="570.5" y2="148.5"/><path class="cls-1" d="M295,433.5A135.5,135.5,0,1,1,412.7,230.82l118.21-70.08C483.48,78.11,394.7,22.5,293,22.5c-151.6,0-274.5,123.57-274.5,276s122.9,276,274.5,276c102.85,0,192.47-56.88,239.48-141.05L413.27,364.16A135.45,135.45,0,0,1,295,433.5Z"/></svg>