<svg id="Layer_1" data-name="Layer 1" xmlns="http://www.w3.org/2000/svg" viewBox="0 0 536 532"><defs><style>.cls-1{fill:#138690;}</style></defs><title>logo</title><path class="cls-1" d="M276.2,200.22c-8.48-.67-26.94-.9-55.38,5-40.52,8.41-59.23,45.82-59.23,75.13s28.05,63.28,70.14,63.28a70.21,70.21,0,0,0,57.09-28.45,3.6,3.6,0,0,1,5.93.21,111.57,111.57,0,0,0,7.11,9.84,91.25,91.25,0,0,0,11.24,11.2,8.85,8.85,0,0,0,11.84-.34l27.89-26.58a8.85,8.85,0,0,0,1-11.66c-1.54-2.08-3.48-4.77-5.88-8.15-7.48-10.6-7.17-19-7.17-19V172.18c0-11.84-7.17-60.47-82.61-60.47-61.61,0-80.38,43.86-85.2,59.95a5.33,5.33,0,0,0,4.25,6.78l38.25,6.46A5.33,5.33,0,0,0,221.2,182c4.2-8.49,16.39-29.16,35.46-29.16,24,0,24.95,19.64,24.95,19.64v22.7A5,5,0,0,1,276.2,200.22Zm6,36.43v28.72a32.1,32.1,0,0,1-25,31.4,59.69,59.69,0,0,1-13.07,1.35c-31.79,0-25.87-40.84-11.21-53,11.11-9.22,33.66-12.34,43.94-13.31A4.86,4.86,0,0,1,282.23,236.65Z"/><path class="cls-1" d="M371.53,356.17c15.43-1.87,22.21-3.81,26.89.32s3,12.54,0,22.13-10.54,17.57-3.27,21.51c8.49,4.6,41.18-37.68,27.59-58.68-11.3-17.46-58.69,2.11-62.19,4.44S357,351,357,351,356.11,358,371.53,356.17Z"/><path class="cls-1" d="M254.5,425.29c57,0,81-11.83,105.66-25.55s29.3-24,25.87-30.43-17.46.2-29.93,5.49-50.8,20-106,20-110.66-39-122.51-47.23-16.05,0-16.05,0-3.58,6.86,7.33,20.26S185.2,425.29,254.5,425.29Z"/><path class="cls-1" d="M26,26V511H511V26ZM481,481H56V56H481Z"/></svg>