<?xml version="1.0" encoding="iso-8859-1"?>
<!-- Generator: Adobe Illustrator 19.0.0, SVG Export Plug-In . SVG Version: 6.00 Build 0)  -->
<svg version="1.1" id="Capa_1" xmlns="http://www.w3.org/2000/svg" xmlns:xlink="http://www.w3.org/1999/xlink" x="0px" y="0px"
	 viewBox="0 0 480 480" style="enable-background:new 0 0 480 480;" xml:space="preserve">
<path style="fill:#4D4D4D;" d="M272,184V72c0-35.346-28.654-64-64-64s-64,28.654-64,64v112"/>
<path style="fill:#DFB28B;" d="M240.336,160.352h-11.424l-0.336-20.696h-41.16V160H176c0,0,9.08,25.816,32.336,25.896h0.104
	C231.688,185.816,240.336,160.352,240.336,160.352L240.336,160.352z"/>
<path style="fill:#754C24;" d="M24,256h432v216H24V256z"/>
<path style="fill:#42210B;" d="M8,224h464v32H8V224z"/>
<path style="fill:#999999;" d="M464,192h-67.368H336v-88h128L464,192z"/>
<path style="fill:#FBCC34;" d="M45.144,168h5.712c11.046,0,20,8.954,20,20v12l0,0H25.144l0,0v-12
	C25.144,176.954,34.098,168,45.144,168z"/>
<path style="fill:#333333;" d="M16,200h64v24H16V200z"/>
<path style="fill:#ECC19C;" d="M168,80v25.352c-0.001,14.053,7.373,27.075,19.424,34.304c12.665,7.597,28.487,7.597,41.152,0
	c12.051-7.229,19.425-20.251,19.424-34.304V72c0,0-40,0-48-16C200,56,192,80,168,80z"/>
<path style="fill:#CCCCCC;" d="M112,224c-1.495-33.851,24.734-62.505,58.584-64c1.804-0.08,3.611-0.08,5.416,0l13.216,16.528
	c8.296,10.383,23.438,12.075,33.821,3.779c1.396-1.115,2.663-2.383,3.779-3.779L240,160c33.851-1.495,62.505,24.734,64,58.584
	c0.08,1.804,0.08,3.611,0,5.416"/>
<path d="M472,216h-64v-16h56c4.418,0,8-3.582,8-8v-88c0-4.418-3.582-8-8-8H336c-4.418,0-8,3.582-8,8v88c0,4.418,3.582,8,8,8h56v16
	h-80.392c-1.656-21.607-13.36-41.184-31.608-52.872V72c0-39.765-32.236-72-72-72s-72,32.236-72,72v91.128
	c-18.248,11.688-29.952,31.265-31.608,52.872H88v-16c0-4.418-3.582-8-8-8h-1.144v-4c-0.021-13.464-9.621-25.007-22.856-27.48V160
	c0-4.418-3.582-8-8-8s-8,3.582-8,8v0.52c-13.235,2.473-22.835,14.016-22.856,27.48v4H16c-4.418,0-8,3.582-8,8v16
	c-4.418,0-8,3.582-8,8v32c0,4.418,3.582,8,8,8h8v208c0,4.418,3.582,8,8,8h432c4.418,0,8-3.582,8-8V264h8c4.418,0,8-3.582,8-8v-32
	C480,219.582,476.418,216,472,216z M344,184v-72h112v72H344z M269.6,175.52c14.653,8.526,24.288,23.602,25.872,40.48H216v-23.536
	c6.715-1.698,12.692-5.54,17.024-10.944l10.688-13.36c8.052,0.353,15.947,2.349,23.2,5.864
	C267.701,174.694,268.615,175.202,269.6,175.52z M152,72c0-30.928,25.072-56,56-56s56,25.072,56,56v83.712
	c-7.759-2.475-15.856-3.728-24-3.712c-0.16,0-0.288,0.08-0.44,0.088c-0.543,0.05-1.08,0.157-1.6,0.32
	c-0.497,0.099-0.982,0.25-1.448,0.448c-0.406,0.234-0.791,0.501-1.152,0.8c-0.476,0.316-0.916,0.684-1.312,1.096
	c-0.096,0.104-0.232,0.16-0.328,0.272l-13.184,16.496c-5.956,6.923-16.396,7.708-23.32,1.752c-0.627-0.539-1.213-1.125-1.752-1.752
	L182.248,155c-0.096-0.12-0.24-0.168-0.336-0.28c-0.381-0.394-0.802-0.748-1.256-1.056c-0.385-0.301-0.794-0.568-1.224-0.8
	c-0.438-0.18-0.89-0.321-1.352-0.424c-0.541-0.172-1.099-0.284-1.664-0.336c-0.144,0-0.272-0.08-0.416-0.08
	c-8.144-0.016-16.241,1.237-24,3.712L152,72z M146.4,175.52c1-0.313,1.927-0.821,2.728-1.496c7.253-3.515,15.148-5.511,23.2-5.864
	l10.688,13.36c4.322,5.396,10.284,9.238,16.984,10.944V216h-79.472C122.112,199.122,131.747,184.046,146.4,175.52L146.4,175.52z
	 M33.144,188c0-6.627,5.373-12,12-12h5.712c6.627,0,12,5.373,12,12v4H33.144V188z M24,208h48v8H24L24,208z M448,464H32V264h416V464z
	 M464,248H16v-16h448V248z"/>
<path d="M208,153.368c26.495-0.035,47.965-21.505,48-48V72c0-4.418-3.582-8-8-8c-14.144,0-36.912-3.712-40.84-11.576
	c-1.47-2.854-4.484-4.572-7.688-4.384c-3.222,0.21-6.002,2.337-7.048,5.392C188.81,64.008,179.157,71.346,168,72
	c-4.418,0-8,3.582-8,8v25.352c0.031,26.497,21.503,47.969,48,48V153.368z M176,87.256c10.698-2.22,20.053-8.649,25.96-17.84
	c11.676,6.421,24.719,9.954,38.04,10.304v25.6c0,17.673-14.327,32-32,32s-32-14.327-32-32V87.256z"/>
<g>
</g>
<g>
</g>
<g>
</g>
<g>
</g>
<g>
</g>
<g>
</g>
<g>
</g>
<g>
</g>
<g>
</g>
<g>
</g>
<g>
</g>
<g>
</g>
<g>
</g>
<g>
</g>
<g>
</g>
</svg>
