<svg id="Layer_5" enable-background="new 0 0 64 64" height="512" viewBox="0 0 64 64" width="512" fill="#138690" xmlns="http://www.w3.org/2000/svg"><g><g><g><path d="m60 20v32h-4v-20c0-2.21-1.79-4-4-4h-8c-2.21 0-4 1.79-4 4v2h-10c-1.1 0-2 .9-2 2v14h-4v-10-20h6c1.1 0 2-.9 2-2 0 1.1.9 2 2 2h6c1.1 0 2-.9 2-2 0 1.1.9 2 2 2h6c1.1 0 2-.9 2-2 0 1.1.9 2 2 2z" fill="#e6e9ed"/></g><g><path d="m56 32v20h-6v-11l-4.4-6.16c-.38-.53-.98-.84-1.63-.84h-3.97v-2c0-2.21 1.79-4 4-4h8c2.21 0 4 1.79 4 4z" fill="#cf9e76"/></g><g><path d="m28 24h8v6h-8z" fill="#69d6f4"/></g><g><path d="m32 16v2c0 1.1-.9 2-2 2h-6c-1.1 0-2-.9-2-2v-2z" fill="#fc6e51"/></g><g><path d="m52 16v2c0 1.1-.9 2-2 2h-6c-1.1 0-2-.9-2-2v-2z" fill="#fc6e51"/></g><g><path d="m62 16v2c0 1.1-.9 2-2 2h-6c-1.1 0-2-.9-2-2v-2z" fill="#fcd770"/></g><g><path d="m42 16v2c0 1.1-.9 2-2 2h-6c-1.1 0-2-.9-2-2v-2z" fill="#fcd770"/></g><g><path d="m53 10c1.1 0 2-.9 2-2v-2h3l4 10h-10l-1.2-6z" fill="#ffeaa7"/></g><g><path d="m42 10v6h-10l1.2-6z" fill="#ffeaa7"/></g><g><path d="m50.8 10 1.2 6h-10v-6z" fill="#ff826e"/></g><g><path d="m33.2 10-1.2 6h-10l4-10h3v2c0 1.1.9 2 2 2z" fill="#ff826e"/></g><g><path d="m55 6v2c0 1.1-.9 2-2 2h-2.2-8.8-8.8-2.2c-1.1 0-2-.9-2-2v-2-2c0-1.1.9-2 2-2h22c1.1 0 2 .9 2 2z" fill="#cf9e76"/></g><g><path d="m28 50v6h-13.54c-.69-1.2-1.98-2-3.46-2s-2.77.8-3.46 2h-3.54c-1.1 0-2-.9-2-2v-2c0-1.1.9-2 2-2h10 8 2z" fill="#ccd1d9"/></g><g><path d="m50 52v2c0 1.1-.9 2-2 2h-1.54c-.69-1.2-1.98-2-3.46-2s-2.77.8-3.46 2h-11.54v-6-14c0-1.1.9-2 2-2h10 3.97c.65 0 1.25.31 1.63.84l4.4 6.16z" fill="#b4dd7f"/></g><g><path d="m14.46 56c.34.59.54 1.27.54 2 0 2.21-1.79 4-4 4s-4-1.79-4-4c0-.73.2-1.41.54-2 .69-1.2 1.98-2 3.46-2s2.77.8 3.46 2z" fill="#838f9b"/></g><g><path d="m46.46 56c.34.59.54 1.27.54 2 0 2.21-1.79 4-4 4s-4-1.79-4-4c0-.73.2-1.41.54-2 .69-1.2 1.98-2 3.46-2s2.77.8 3.46 2z" fill="#838f9b"/></g><g><circle cx="14" cy="40" fill="#fcd770" r="10"/></g><g><path d="m46 42v4h-14v-8h11z" fill="#69d6f4"/></g></g><g><path d="m15 37c.552 0 1 .449 1 1h2c0-1.654-1.346-3-3-3v-2h-2v2h-3v3c0 1.654 1.346 3 3 3h2c.552 0 1 .449 1 1v1h-3c-.552 0-1-.449-1-1h-2c0 1.654 1.346 3 3 3v2h2v-2h3v-3c0-1.654-1.346-3-3-3h-2c-.552 0-1-.449-1-1v-1z"/><path d="m31 37v10h16v-5.333l-3.5-4.667zm14 8h-12v-6h9.5l2.5 3.333z"/><path d="m58.677 5h-2.677v-1c0-1.654-1.346-3-3-3h-22c-1.654 0-3 1.346-3 3v1h-2.677l-4.323 10.808v2.192c0 1.302.839 2.402 2 2.816v12.88c-1.992-2.835-5.28-4.696-9-4.696-6.065 0-11 4.935-11 11 0 3.72 1.861 7.008 4.695 9h-3.695c-1.654 0-3 1.346-3 3v2c0 1.654 1.346 3 3 3h2.101c-.066.323-.101.658-.101 1 0 2.757 2.243 5 5 5s5-2.243 5-5c0-.342-.035-.677-.101-1h22.202c-.066.323-.101.658-.101 1 0 2.757 2.243 5 5 5s5-2.243 5-5c0-.342-.035-.677-.101-1h.101c1.654 0 3-1.346 3-3v-1h10v-32.184c1.161-.414 2-1.514 2-2.816v-2.192zm-1.354 2 3.2 8h-7.72l-.787-4h.984c1.654 0 3-1.346 3-3v-1zm-6.323 11c0 .551-.448 1-1 1h-6c-.552 0-1-.449-1-1v-1h8zm-10 0c0 .551-.448 1-1 1h-6c-.552 0-1-.449-1-1v-1h8zm-17 1c-.552 0-1-.449-1-1v-1h8v1c0 .551-.448 1-1 1zm17-8v4h-7.78l.8-4zm8.98 0 .8 4h-7.78v-4zm-19.98-7c0-.551.448-1 1-1h22c.552 0 1 .449 1 1v4c0 .551-.448 1-1 1h-22c-.552 0-1-.449-1-1zm-3.323 3h1.323v1c0 1.654 1.346 3 3 3h.98l-.8 4h-7.703zm-21.677 33c0-4.962 4.037-9 9-9s9 4.038 9 9-4.037 9-9 9-9-4.038-9-9zm15.305 9c1.047-.736 1.959-1.648 2.695-2.695v2.695zm-9.305 12c-1.654 0-3-1.346-3-3s1.346-3 3-3 3 1.346 3 3-1.346 3-3 3zm0-8c-1.627 0-3.061.793-3.974 2h-3.026c-.552 0-1-.449-1-1v-2c0-.551.448-1 1-1h23v4h-12.026c-.913-1.207-2.347-2-3.974-2zm32 8c-1.654 0-3-1.346-3-3s1.346-3 3-3 3 1.346 3 3-1.346 3-3 3zm6-7c0 .551-.448 1-1 1h-1.026c-.914-1.207-2.348-2-3.974-2s-3.061.793-3.974 2h-10.026v-19c0-.551.448-1 1-1h13.971c.322 0 .627.157.814.418l4.215 5.902zm-2.588-19.745c-.562-.786-1.475-1.255-2.441-1.255h-2.971v-1c0-1.654 1.346-3 3-3h8c1.654 0 3 1.346 3 3v19h-4v-10.32zm10.588 16.745v-19c0-2.757-2.243-5-5-5h-8c-2.757 0-5 2.243-5 5v1h-9c-1.654 0-3 1.346-3 3v13h-2v-28h5c.771 0 1.468-.301 2-.78.532.48 1.229.78 2 .78h6c.771 0 1.468-.301 2-.78.532.48 1.229.78 2 .78h6c.771 0 1.468-.301 2-.78.532.48 1.229.78 2 .78h5v30zm3-32h-6c-.552 0-1-.449-1-1v-1h8v1c0 .551-.448 1-1 1z"/><path d="m32 5h2v2h-2z"/><path d="m36 5h12v2h-12z"/><path d="m50 5h2v2h-2z"/><path d="m27 31h10v-8h-10zm2-6h6v4h-6z"/></g></g></svg>