<svg id="Layer_1" data-name="Layer 1" xmlns="http://www.w3.org/2000/svg" viewBox="0 0 686 586"><defs><style>.cls-1{fill:#c9cacc;opacity:0.5;}.cls-1,.cls-12,.cls-22{isolation:isolate;}.cls-2{fill:#ccdae1;}.cls-3{fill:none;stroke:#0f1041;stroke-linecap:round;stroke-linejoin:round;stroke-width:11px;}.cls-4{fill:#0f1041;}.cls-5{fill:#f68b20;}.cls-6{fill:#fab818;}.cls-7{fill:#f7fafc;}.cls-8{fill:#223d4b;}.cls-9{opacity:0.7;}.cls-10{fill:#7ba1b3;}.cls-11{fill:#4f7e97;}.cls-12{fill:#162c35;opacity:0.6;}.cls-13{fill:#b5c9d4;}.cls-14{fill:#103447;}.cls-15{fill:#123a4c;}.cls-16{fill:#8ea0a3;}.cls-17{fill:#98a8a9;}.cls-18{fill:#c7c8cc;}.cls-19{fill:#dbdbdd;}.cls-20{fill:#3d565d;}.cls-21{fill:#5c6c73;}.cls-22{fill:#bcbec0;opacity:0.4;}</style></defs><title>LogoStroke4</title><g id="Layer_4" data-name="Layer 4"><polygon class="cls-1" points="99.47 148.97 341.4 9.29 583.33 148.97 583.33 428.32 341.4 568 99.47 428.32 99.47 148.97"/><polygon class="cls-2" points="109.95 70.09 167.11 37.09 224.27 70.09 224.27 136.09 167.11 169.09 109.95 136.09 109.95 70.09"/><polygon class="cls-2" points="550.91 493.26 581.38 475.67 611.85 493.26 611.85 528.44 581.38 546.04 550.91 528.44 550.91 493.26"/><polyline class="cls-3" points="520.96 150.17 617.26 150.17 617.26 74.69"/><line class="cls-3" x1="521.99" y1="345.54" x2="599.96" y2="345.54"/><line class="cls-3" x1="617.26" y1="112.43" x2="653.54" y2="112.43"/><circle class="cls-4" cx="617.26" cy="65.35" r="9.34"/><circle class="cls-4" cx="19.93" cy="361.47" r="9.34"/><circle class="cls-4" cx="19.93" cy="485.57" r="9.34"/><circle class="cls-4" cx="63.68" cy="532.07" r="9.34"/><circle class="cls-4" cx="662.87" cy="112.43" r="9.34"/><line class="cls-3" x1="107.24" y1="361.47" x2="29.26" y2="361.47"/><circle class="cls-4" cx="608.88" cy="345.54" r="9.34"/><polyline class="cls-3" points="139.46 442.56 63.68 442.56 63.68 522.73"/><line class="cls-3" x1="61.11" y1="485.57" x2="29.26" y2="485.57"/><rect class="cls-5" x="539.44" y="284.63" width="2.56" height="47.4"/></g><g id="Layer_2" data-name="Layer 2"><path class="cls-6" d="M592.59,220.94a1.65,1.65,0,0,0,1.65-1.65V198.35a1.65,1.65,0,0,0-1.65-1.65H583a1.65,1.65,0,0,0-1.65,1.65v20.95a1.65,1.65,0,0,0,1.65,1.65Z"/><path class="cls-6" d="M611.73,220.94a1.65,1.65,0,0,0,1.65-1.65V198.35a1.65,1.65,0,0,0-1.65-1.65h-9.56a1.65,1.65,0,0,0-1.65,1.65v20.95a1.65,1.65,0,0,0,1.65,1.65Z"/><path class="cls-6" d="M630.88,220.94a1.65,1.65,0,0,0,1.65-1.65V198.35a1.65,1.65,0,0,0-1.65-1.65h-9.56a1.65,1.65,0,0,0-1.65,1.65v20.95a1.65,1.65,0,0,0,1.65,1.65Z"/><rect class="cls-5" x="581.38" y="204.85" width="12.85" height="3.95"/><rect class="cls-5" x="581.38" y="213.16" width="12.85" height="3.95"/><rect class="cls-5" x="600.53" y="204.85" width="12.85" height="3.95"/><rect class="cls-5" x="600.53" y="213.16" width="12.85" height="3.95"/><rect class="cls-5" x="619.67" y="204.85" width="12.86" height="3.95"/><rect class="cls-5" x="619.67" y="213.16" width="12.86" height="3.95"/><path class="cls-6" d="M638.79,186.46V196c0,2.49-1.73,4.54-3.85,4.54H507.22c-2.12,0-3.85-2-3.85-4.54v-9.58c0-2.49,1.73-4.54,3.85-4.54H634.94C637.06,181.92,638.79,184,638.79,186.46Z"/><path class="cls-5" d="M638.79,191.25V196c0,2.49-1.73,4.54-3.85,4.54H503.37v-9.32Z"/><path class="cls-5" d="M547.49,264h21.12l5.39-5.39.67-.67,4.15,4.15H585l6.05-6h9.71l6.44,6.43h4.63l3.59-3.59h5.77l4.27,4.28h6.23l5.77-5.77h4.84l5.73-5.74-4.82-6-1-1.21-3.86-4.82H549.19l1.34,4.82.66,2.42,1.33,4.82h-5V264Z"/><polygon class="cls-5" points="547.49 263.98 567.25 263.98 573.31 257.91 574 258.58 577.47 262.06 583.68 262.06 589.72 256.01 599.45 256.01 605.87 262.44 610.5 262.44 614.09 258.85 619.86 258.85 624.14 263.13 630.36 263.13 636.13 257.36 640.97 257.36 646.7 251.62 547.49 251.62 547.49 263.98"/><polygon class="cls-6" points="552.52 251.62 646.7 251.62 642.83 246.8 640.9 244.38 637.04 239.55 549.19 239.55 550.52 244.38 551.18 246.8 552.52 251.62"/><polygon class="cls-5" points="551.18 246.8 642.83 246.8 640.9 244.38 550.52 244.38 551.18 246.8"/><path class="cls-7" d="M569.23,113.72V302.33a5.51,5.51,0,0,1-5.49,5.49H253.91a5.51,5.51,0,0,1-5.49-5.49V113.72a5.51,5.51,0,0,1,5.49-5.49H563.74A5.51,5.51,0,0,1,569.23,113.72Z"/><path class="cls-8" d="M545.36,137.79V278.25a5.51,5.51,0,0,1-5.49,5.49H277.79a5.51,5.51,0,0,1-5.49-5.49V137.79a5.51,5.51,0,0,1,5.49-5.49H539.87A5.51,5.51,0,0,1,545.36,137.79Z"/><path class="cls-2" d="M564,307.82c3,0,4,2,2.28,4.45l-89.6,124.14a12.1,12.1,0,0,1-8.71,4.45H146.8c-3,0-3.94-1.93-2.05-4.28L244.69,312.1a13,13,0,0,1,8.93-4.28H564Z"/><g class="cls-9"><path class="cls-10" d="M564,307.82c3,0,4,2,2.28,4.45l-89.6,124.14a12.1,12.1,0,0,1-8.71,4.45h-3c-3,0-4-2-2.28-4.45l89.6-124.14a12.1,12.1,0,0,1,8.71-4.45Z"/></g><path class="cls-2" d="M550,307.82c3,0,4,2,2.28,4.45L462.7,436.41a12.1,12.1,0,0,1-8.71,4.45H146.8c-3,0-3.94-1.93-2.05-4.28L244.69,312.1a13,13,0,0,1,8.93-4.28H550Z"/><polygon class="cls-11" points="568.07 308.62 568.07 331.65 472.12 466.08 472.12 443.05 568.07 308.62"/><path class="cls-10" d="M518.46,327.19c.9-1.22.39-2.21-1.12-2.21h-254a6.11,6.11,0,0,0-4.37,2.21l-40.56,55.36c-.89,1.22-.39,2.21,1.12,2.21H473.23a6.14,6.14,0,0,0,4.38-2.21Z"/><path class="cls-12" d="M545.36,196.7v81.55a5.51,5.51,0,0,1-5.49,5.49H277.79a5.51,5.51,0,0,1-5.49-5.49V196.7Z"/><polygon class="cls-13" points="472.99 440.86 472.99 465.47 461.15 465.38 141.3 463.2 141.3 440.86 472.99 440.86"/><path class="cls-11" d="M386.2,248.94c-61.19,0-125.75-53.88-145.24-71.51l-.1.1-.1-.1c-19.49,17.63-84,71.51-145.24,71.51a98.73,98.73,0,0,1-13.29-.88c6.43,40.21,28.65,178.62,32.89,197.72l.09.38,0,.39c0,.12,1.78,12.07,17.11,28.76,15.11,16.45,46.18,40.09,108.5,59.73,61.07-19.25,92-42.33,107.24-58.38,15.8-16.65,18.21-29.21,18.37-30.15l0-.24.11-.49c4.24-19.09,26.46-157.51,32.89-197.72A98.74,98.74,0,0,1,386.2,248.94Z"/><path class="cls-14" d="M240.87,510.22c-55.48-18.52-80.81-39.66-91.11-50.88-8.15-8.87-10.65-15.22-11.2-16.87l0-.24-.35-1.57c-2.9-13.06-15.78-91.45-28.23-168.89,51.21-5.5,130.91-63.19,130.91-63.19s79.7,57.7,130.91,63.2c-12.45,77.44-25.33,155.84-28.23,168.89l-.38,1.72c-.64,1.9-3.41,8.77-12.19,18C318.28,473.79,292.43,493,240.87,510.22Z"/><path class="cls-13" d="M240.86,177.53V535c-62.32-19.64-93.38-43.28-108.5-59.74-15.33-16.68-17.09-28.64-17.11-28.76l0-.39-.09-.38c-4.24-19.09-26.46-157.51-32.89-197.72a98.81,98.81,0,0,0,13.29.88c61.19,0,125.75-53.88,145.24-71.51Z"/><path class="cls-15" d="M240.86,208.57V510.22c-55.48-18.52-80.8-39.66-91.11-50.88-8.15-8.87-10.65-15.22-11.2-16.87l0-.24-.35-1.57c-2.9-13.06-15.78-91.45-28.23-168.88C161.16,266.27,240.86,208.57,240.86,208.57Z"/><path class="cls-16" d="M254.41,377h-27.1a36.56,36.56,0,0,1-36.52-36.52v-27.1a36.56,36.56,0,0,1,36.52-36.52h27.1a36.56,36.56,0,0,1,36.52,36.52v27.1A36.56,36.56,0,0,1,254.41,377Zm-27.1-86.4a22.82,22.82,0,0,0-22.79,22.79v27.1a22.82,22.82,0,0,0,22.79,22.79h27.1a22.82,22.82,0,0,0,22.79-22.79v-27.1a22.82,22.82,0,0,0-22.79-22.79Z"/><path class="cls-17" d="M227.32,290.58h13.55V276.85H227.32a36.56,36.56,0,0,0-36.52,36.52v27.1A36.56,36.56,0,0,0,227.32,377h13.55V363.25H227.32a22.81,22.81,0,0,1-22.79-22.79v-27.1A22.81,22.81,0,0,1,227.32,290.58Z"/><path class="cls-18" d="M304.53,433.07a5.51,5.51,0,0,1-5.49,5.49H182.68a5.51,5.51,0,0,1-5.49-5.49V341.63a5.51,5.51,0,0,1,5.49-5.49H299a5.51,5.51,0,0,1,5.49,5.49v91.44Z"/><path class="cls-19" d="M240.86,336.14V438.56H182.68a5.51,5.51,0,0,1-5.49-5.49V341.63a5.51,5.51,0,0,1,5.49-5.49Z"/><path class="cls-20" d="M237,386.35l-3,20.42h13.81l-3-20.42a9.63,9.63,0,1,0-7.8,0Z"/><path class="cls-21" d="M231.24,377.56a9.61,9.61,0,0,0,5.72,8.8l-3,20.42h6.91V367.93A9.63,9.63,0,0,0,231.24,377.56Z"/><path class="cls-22" d="M569.23,113.72V302.33a5.51,5.51,0,0,1-5.49,5.49h-8.23V108.23h8.23A5.51,5.51,0,0,1,569.23,113.72Z"/></g></svg>