<svg id="Layer_1" data-name="Layer 1" xmlns="http://www.w3.org/2000/svg" viewBox="0 0 614 629"><defs><style>.cls-1{fill:#138690;}.cls-2{fill:#fff;}</style></defs><title>LogoStroke4</title><path class="cls-1" d="M588.81,372.59c-3.5-10.59-12.65-18-24.49-19.73-5.58-.83-12-.48-19.54,1.08a175.66,175.66,0,0,1-30.11,4c27-45.51,48.87-97.4,61.49-146.25,20.4-79,9.5-115-3.24-131.25C539.19,37.32,490,14.18,430.65,13.47A252.09,252.09,0,0,0,356.7,23.83a275.32,275.32,0,0,0-43.24-4c-28.55-.46-53.77,5.77-75.32,18.56a343.43,343.43,0,0,0-53.2-13.35c-52-8.54-93.93-1.89-124.6,19.78C23.22,71.08,6,116.65,9.19,180.29c1,20.21,12.31,81.69,30.11,140C49.53,353.8,60.44,381.63,71.72,403c16,30.32,33.12,48.17,52.34,54.59,10.77,3.59,30.35,6.1,50.93-11a44.54,44.54,0,0,0,10.71,9.22,71.26,71.26,0,0,0,20.21,8.52c25.82,6.46,50,4.84,70.65-4.21.13,3.67.23,7.18.31,10.21.14,4.91.27,9.73.45,14.23,1.22,30.45,3.29,54.13,9.43,70.7.34.91.79,2.3,1.27,3.77,3.06,9.38,8.18,25.08,21.21,37.37C322.73,609.09,339.05,613,354,613a100.59,100.59,0,0,0,20.92-2.33c22.36-4.79,47.76-12.09,66.13-38.25,17.37-24.73,25.81-62,27.34-120.66.2-1.66.38-3.24.56-4.75l.36-3.1,4.09.36,1.05.07c22.78,1,50.62-3.79,67.73-11.74,13.51-6.27,56.82-29.14,46.63-60"/><path class="cls-1" d="M549.87,378.6c-67.72,14-72.38-9-72.38-9,71.5-106.1,101.39-240.77,75.6-273.73C482.72,6,360.91,48.52,358.87,49.62l-.65.12A241.52,241.52,0,0,0,313,45c-30.64-.5-53.88,8-71.52,21.41,0,0-217.3-89.52-207.19,112.59,2.15,43,61.63,325.33,132.57,240.05,25.93-31.18,51-57.55,51-57.55a65.76,65.76,0,0,0,43,11l1.21-1a47.32,47.32,0,0,0,.49,12.14c-18.28,20.42-12.9,24-49.44,31.52-37,7.62-15.25,21.18-1.07,24.73,17.19,4.3,57,10.39,83.83-27.23l-1.07,4.29c7.16,5.74,12.19,37.31,11.34,65.93s-1.4,48.27,4.24,63.61,11.27,49.88,59.29,39.59c40.13-8.6,60.93-30.89,63.82-68.06,2.05-26.43,6.7-22.52,7-46.15l3.73-11.18c4.3-35.83.68-47.38,25.41-42l6,.53c18.19.83,42-2.93,56-9.42,30.1-14,48-37.29,18.27-31.16h0"/><path class="cls-2" d="M254.23,198.26c-6.1-.85-11.63-.06-14.43,2.05a5.29,5.29,0,0,0-2.19,3.52c-.35,2.52,1.41,5.3,2.5,6.73a18.86,18.86,0,0,0,12,7.47,13.64,13.64,0,0,0,1.92.13c7.39,0,14.11-5.75,14.7-10,.74-5.32-7-8.86-14.47-9.91m202.17.17c-.58-4.17-8-5.36-15-4.38s-13.85,4.15-13.28,8.33c.46,3.25,6.32,8.8,13.27,8.8a12.68,12.68,0,0,0,1.78-.12,17.11,17.11,0,0,0,9.65-5.28c2.46-2.59,3.88-5.47,3.62-7.34"/><path class="cls-2" d="M572.4,377c-2.58-7.81-10.89-10.32-24.7-7.47-41,8.46-55.68,2.6-60.5-.95,31.87-48.55,58.08-107.23,72.23-162,6.7-25.94,10.4-50,10.7-69.66.33-21.55-3.34-37.38-10.9-47.06C528.7,50.9,483.91,30,429.7,29.41c-37.27-.42-68.77,9.12-74.87,11.8A186.65,186.65,0,0,0,312.7,35.8c-28-.45-52.17,6.25-72.19,19.9a322.28,322.28,0,0,0-58.67-15.38c-47.53-7.65-85.29-1.85-112.25,17.24-32.16,22.78-47,63.51-44.13,121,1,19.36,12,78.91,29.4,135.94,22.91,75.06,47.82,117.55,74,126.3a33.15,33.15,0,0,0,10.5,1.74c9.56,0,21.28-4.31,33.47-19q22.31-26.76,46.14-52.2a74.34,74.34,0,0,0,33.19,8.93c0,.3.05.61.08.91q-3,3.56-5.85,7.23c-8,10.18-9.69,12.3-35.5,17.62-7.34,1.52-26.85,5.54-27.13,19.21-.31,14.94,23.06,21.21,25.72,21.88a110.14,110.14,0,0,0,26.74,3.47c20.73,0,39-6.81,53.55-20-.45,53.25,1.77,105.72,8.17,121.71,5.24,13.09,18,45.07,58.44,45.07A93.74,93.74,0,0,0,376,595.19c42.17-9,60.49-27.68,67.57-68.77,3.79-22,10.3-74.41,13.36-102.54,6.46,2,14.77,2.94,23.76,2.94,18.74,0,40.37-4,53.94-10.28,15.24-7.08,42.74-24.44,37.75-39.53ZM472,186.92a170.6,170.6,0,0,1-2.49,23.71,219,219,0,0,0-3,27.84c-.33,10.34,1,21.09,2.2,31.48,2.52,21,5.11,42.61-4.91,63.94a83.13,83.13,0,0,1-4.44-9.13c-1.25-3-4-7.87-7.7-14.58-14.57-26.13-48.69-87.33-31.23-112.3,5.2-7.43,18.41-15.07,51.55-11ZM431.79,46.23c48.58,1.07,87,19.25,114.21,54,20.87,26.67-2.11,148-68.63,252.68l-2-2.54-.84-1.05c17.19-28.39,13.83-56.48,10.84-81.38-1.23-10.22-2.39-19.87-2.09-28.94a205,205,0,0,1,2.81-25.82c1.51-9.82,3-20,2.62-32a13.25,13.25,0,0,0,.28-4.5c-1.08-11.49-14.2-45.87-40.93-77-14.62-17-35.95-36.07-65.06-48.92a219.4,219.4,0,0,1,48.82-4.59ZM160,412.88c-13.43,16.15-22.71,13.06-25.76,12-19.88-6.63-42.95-48.65-63.28-115.27C53.32,252,43,194,42.22,177.77c-2.57-51.41,9.89-87.24,37-106.5,44.18-31.33,116.83-12.58,146-3.07-.42.41-.86.8-1.27,1.22-47.9,48.37-46.76,131-46.65,136.08,0,1.95.16,4.71.38,8.5.82,13.9,2.36,39.77-1.74,69.07-3.81,27.23,4.59,53.88,23,73.11q2.84,3,6,5.62c-8.21,8.79-26,28.23-45,51.07Zm51.19-68.3c-14.86-15.51-21.61-37.08-18.52-59.18,4.33-30.95,2.73-57.91,1.87-72.39-.12-2-.23-3.8-.29-5.2,7-6.21,39.43-23.58,62.55-18.28,10.55,2.42,17,9.6,19.66,22,13.84,64,1.83,90.66-7.81,112.1-2,4.42-3.87,8.59-5.47,12.91l-1.24,3.34c-3.15,8.44-6.08,16.29-7.89,23.74-15.8,0-31.17-6.79-42.85-19Zm2.43,86.3a37.1,37.1,0,0,1-11.2-4.81,54.68,54.68,0,0,1,11.93-3.55c30.37-6.25,35.06-10.66,45.3-23.67,2.35-3,5-6.36,8.7-10.48h0c5.49-6.15,8-5.11,12.56-3.22,3.69,1.53,7.29,6.15,8.74,11.24.69,2.4,1.46,7-1.07,10.52C267.14,436.87,236,436.49,213.57,430.88Zm158.94,147.9c-37.15,8-50.31-11-59-32.67-5.59-14-8.35-77.08-6.39-146.75a8.39,8.39,0,0,0-.36-2.66,35.17,35.17,0,0,0-1-4.92c-2.9-10.14-10-18.62-18.45-22.13-3.37-1.4-9.55-4-17-2.06,1.58-6.53,4.33-13.91,7.31-21.89l1.25-3.36c1.41-3.79,3.17-7.71,5-11.86,10.09-22.42,23.92-53.14,8.91-122.53-5.62-26-24.39-38.68-52.84-35.73-17.06,1.76-32.66,8.65-40.44,12.59-1.67.85-3.2,1.67-4.63,2.46,2.17-26.19,10.38-75.13,41.08-106.09,19.33-19.49,45.07-29.12,76.44-28.6,61.8,1,101.43,32.73,123.8,59.16,19.27,22.77,29.71,45.71,33.87,58.09-31.32-3.19-52.62,3-63.42,18.44C383.17,221.84,419.52,287,437,318.35c3.2,5.74,6,10.7,6.84,12.81,5.69,13.79,13.05,23,18.43,29.71,1.65,2.06,3.25,4.06,4.46,5.8-9.49,2.73-26.53,9.05-25,40.64-1.25,15.85-10.16,90-14.68,116.26-6,34.63-18.72,47.53-54.55,55.22ZM527.59,401.32c-9.7,4.5-25.93,7.88-41.35,8.61-17,.8-25.7-1.91-27.74-3.57-1-19.68,6.37-21.74,14.12-23.92,1.22-.34,2.41-.68,3.55-1.08a29,29,0,0,0,2.35,1.72c13.69,9,38.11,10,72.58,2.89l.38-.08c-4.65,4.35-12.61,10.18-23.89,15.42Z"/></svg>