<?xml version="1.0" encoding="utf-8"?>
<!-- Generator: Adobe Illustrator 22.0.1, SVG Export Plug-In . SVG Version: 6.00 Build 0)  -->
<svg version="1.1" id="Layer_1" xmlns="http://www.w3.org/2000/svg" xmlns:xlink="http://www.w3.org/1999/xlink" x="0px" y="0px"
	 viewBox="0 0 70 70" style="enable-background:new 0 0 70 70;" xml:space="preserve">
<style type="text/css">
	.st0{fill:#138690;}
</style>
<g>
	<path class="st0" d="M35,2c18.2,0,33,14.8,33,33S53.2,68,35,68S2,53.2,2,35S16.8,2,35,2 M35,0C15.7,0,0,15.7,0,35s15.7,35,35,35
		s35-15.7,35-35S54.3,0,35,0L35,0z"/>
</g>
<g>
	<path class="st0" d="M25.5,15.9c-3.6-2.1-6.5-0.4-6.5,3.8v30.7c0,4.2,2.9,5.9,6.5,3.8l26.8-15.4c3.6-2.1,3.6-5.4,0-7.5L25.5,15.9z"
		/>
</g>
</svg>
