<?xml version="1.0" encoding="utf-8"?>
<!-- Generator: Adobe Illustrator 22.0.1, SVG Export Plug-In . SVG Version: 6.00 Build 0)  -->
<svg version="1.1" id="Layer_1" xmlns="http://www.w3.org/2000/svg" xmlns:xlink="http://www.w3.org/1999/xlink" x="0px" y="0px"
	 viewBox="0 0 822 294" style="enable-background:new 0 0 822 294;" xml:space="preserve">
<style type="text/css">
	.st0{fill:#A40505;}
	.st1{fill:#138690;}
	.st2{fill:#BB1E27;}
	.st3{fill:#DC8B8F;}
	.st4{fill:#CF6168;}
	.st5{fill:#303030;}
	.st6{fill:#FFFFFF;}
	.st7{fill:url(#SVGID_1_);}
	.st8{fill:url(#SVGID_2_);}
	.st9{fill:#023E43;}
	.st10{fill:#D0ACE8;}
	.st11{fill:#FFDBC9;}
	.st12{fill:#E8E7AC;}
	.st13{fill:#BDFFF0;}
</style>
<g>
	<g>
		<path class="st1" d="M79.5,211.9H76v-3.3h3.5v-2.2c0-2.9,0.8-5.1,2.2-6.5c1.3-1.3,3.1-2,5.4-2c1.8,0,2.9,0.2,4.2,0.6v3.3
			c-1.4-0.4-2.4-0.6-3.7-0.6c-2.9,0-4.4,1.8-4.4,5.4v2.1h8v3.2h-8v22h-3.8V211.9z"/>
		<path class="st1" d="M94,221.4L94,221.4c0-7.2,5.6-13.3,13.2-13.3c7.6,0,13.2,6,13.2,13.1v0.1c0,7.1-5.6,13.2-13.3,13.2
			C99.5,234.5,94,228.5,94,221.4z M116.5,221.4L116.5,221.4c0-5.5-4.1-10-9.4-10c-5.5,0-9.2,4.5-9.2,9.8v0.1c0,5.4,4,9.8,9.3,9.8
			C112.6,231.1,116.5,226.7,116.5,221.4z"/>
		<path class="st1" d="M127.1,208.6h3.8v6.6c1.9-4.2,5.5-7.2,10.3-7v4.1h-0.3c-5.5,0-10,4-10,11.6v10.1h-3.8V208.6z"/>
		<path class="st1" d="M162.6,199.6h3.9v34.3h-3.9V199.6z"/>
		<path class="st1" d="M175.9,208.6h3.8v4.4c1.7-2.7,4.3-4.9,8.7-4.9c6.1,0,9.7,4.1,9.7,10.1v15.7h-3.8v-14.8c0-4.7-2.5-7.6-7-7.6
			c-4.4,0-7.6,3.2-7.6,7.9v14.5h-3.8V208.6z"/>
		<path class="st1" d="M204.5,221.3L204.5,221.3c0-8.4,6-13.3,12.1-13.3c4.7,0,7.7,2.5,9.7,5.4v-15.3h3.8v35.7h-3.8v-5.1
			c-2.1,3-5,5.6-9.7,5.6C210.6,234.4,204.5,229.6,204.5,221.3z M226.5,221.3L226.5,221.3c0-5.9-4.5-9.8-9.2-9.8
			c-4.9,0-8.9,3.6-8.9,9.7v0.1c0,6,4.2,9.8,8.9,9.8C222,231,226.5,227.1,226.5,221.3z"/>
		<path class="st1" d="M238.1,224.3v-15.7h3.8v14.8c0,4.7,2.5,7.6,7,7.6c4.3,0,7.6-3.2,7.6-7.9v-14.5h3.7v25.3h-3.7v-4.4
			c-1.7,2.7-4.3,4.9-8.7,4.9C241.7,234.4,238.1,230.3,238.1,224.3z"/>
		<path class="st1" d="M266.5,230.7l1.9-2.7c2.7,2.1,5.8,3.2,8.8,3.2c3,0,5.2-1.6,5.2-4v-0.1c0-2.5-3-3.5-6.3-4.5
			c-4-1.1-8.4-2.5-8.4-7.1v-0.1c0-4.4,3.6-7.2,8.6-7.2c3.1,0,6.5,1.1,9.1,2.8l-1.7,2.8c-2.3-1.5-5-2.4-7.5-2.4c-3,0-4.9,1.6-4.9,3.7
			v0.1c0,2.4,3.1,3.3,6.5,4.4c3.9,1.2,8.1,2.7,8.1,7.2v0.1c0,4.8-4,7.6-9,7.6C273.4,234.4,269.4,233,266.5,230.7z"/>
		<path class="st1" d="M293.8,227.2v-15.3h-3.5v-3.3h3.5V201h3.8v7.6h8v3.3h-8v14.8c0,3.1,1.7,4.2,4.3,4.2c1.3,0,2.3-0.2,3.7-0.9
			v3.2c-1.3,0.7-2.7,1.1-4.6,1.1C296.9,234.3,293.8,232.3,293.8,227.2z"/>
		<path class="st1" d="M312.3,208.6h3.8v6.6c1.9-4.2,5.5-7.2,10.3-7v4.1h-0.3c-5.5,0-10,4-10,11.6v10.1h-3.8V208.6z"/>
		<path class="st1" d="M332.2,198.9h4.3v4.2h-4.3V198.9z M332.4,208.6h3.8v25.3h-3.8V208.6z"/>
		<path class="st1" d="M343.1,226.5L343.1,226.5c0-5.4,4.4-8.3,10.8-8.3c3.2,0,5.5,0.4,7.8,1.1v-0.9c0-4.6-2.8-6.9-7.5-6.9
			c-3,0-5.3,0.8-7.7,1.9l-1.1-3.1c2.8-1.3,5.5-2.1,9.2-2.1c3.6,0,6.3,0.9,8.2,2.8c1.7,1.7,2.6,4.2,2.6,7.4v15.5h-3.6v-3.8
			c-1.8,2.3-4.7,4.4-9.2,4.4C347.8,234.4,343.1,231.7,343.1,226.5z M361.7,224.6v-2.4c-1.9-0.5-4.4-1.1-7.4-1.1
			c-4.7,0-7.4,2.1-7.4,5.2v0.1c0,3.2,2.9,5,6.4,5C357.9,231.4,361.7,228.6,361.7,224.6z"/>
		<path class="st1" d="M373.6,198.2h3.8v35.7h-3.8V198.2z"/>
		<path class="st1" d="M401.5,199.6h14.7c4.2,0,7.6,1.3,9.7,3.4c1.7,1.7,2.6,4.1,2.6,6.8v0.1c0,5.7-3.9,9-9.3,10l10.5,14h-4.7
			l-9.9-13.3h-9.8v13.3h-3.9V199.6z M415.9,217.1c5.1,0,8.8-2.6,8.8-7V210c0-4.2-3.2-6.8-8.8-6.8h-10.6v13.9H415.9z"/>
		<path class="st1" d="M434.2,221.3L434.2,221.3c0-7.4,5.1-13.3,12.1-13.3c7.5,0,11.8,6,11.8,13.4c0,0.5,0,0.8,0,1.2H438
			c0.5,5.5,4.4,8.6,8.9,8.6c3.5,0,5.9-1.4,8-3.6l2.3,2.1c-2.5,2.8-5.6,4.7-10.4,4.7C439.8,234.5,434.2,229.1,434.2,221.3z
			 M454.3,219.8c-0.4-4.6-3-8.6-8.1-8.6c-4.4,0-7.7,3.7-8.2,8.6H454.3z"/>
		<path class="st1" d="M461,208.6h4.2l8.5,21l8.6-21h4.1l-11,25.5h-3.3L461,208.6z"/>
		<path class="st1" d="M489.2,221.4L489.2,221.4c0-7.2,5.6-13.3,13.2-13.3c7.6,0,13.2,6,13.2,13.1v0.1c0,7.1-5.6,13.2-13.3,13.2
			C494.7,234.5,489.2,228.5,489.2,221.4z M511.7,221.4L511.7,221.4c0-5.5-4.1-10-9.4-10c-5.5,0-9.2,4.5-9.2,9.8v0.1
			c0,5.4,4,9.8,9.3,9.8C507.9,231.1,511.7,226.7,511.7,221.4z"/>
		<path class="st1" d="M522.7,198.2h3.8v35.7h-3.8V198.2z"/>
		<path class="st1" d="M534.8,224.3v-15.7h3.8v14.8c0,4.7,2.5,7.6,7,7.6c4.3,0,7.6-3.2,7.6-7.9v-14.5h3.7v25.3h-3.7v-4.4
			c-1.7,2.7-4.3,4.9-8.7,4.9C538.4,234.4,534.8,230.3,534.8,224.3z"/>
		<path class="st1" d="M566.7,227.2v-15.3h-3.5v-3.3h3.5V201h3.8v7.6h8v3.3h-8v14.8c0,3.1,1.7,4.2,4.3,4.2c1.3,0,2.3-0.2,3.7-0.9
			v3.2c-1.3,0.7-2.7,1.1-4.6,1.1C569.8,234.3,566.7,232.3,566.7,227.2z"/>
		<path class="st1" d="M585.2,198.9h4.3v4.2h-4.3V198.9z M585.5,208.6h3.8v25.3h-3.8V208.6z"/>
		<path class="st1" d="M596.4,221.4L596.4,221.4c0-7.2,5.6-13.3,13.2-13.3c7.6,0,13.2,6,13.2,13.1v0.1c0,7.1-5.6,13.2-13.3,13.2
			C601.9,234.5,596.4,228.5,596.4,221.4z M618.9,221.4L618.9,221.4c0-5.5-4.1-10-9.4-10c-5.5,0-9.2,4.5-9.2,9.8v0.1
			c0,5.4,4,9.8,9.3,9.8C615.1,231.1,618.9,226.7,618.9,221.4z"/>
		<path class="st1" d="M629.6,208.6h3.8v4.4c1.7-2.7,4.3-4.9,8.7-4.9c6.1,0,9.7,4.1,9.7,10.1v15.7h-3.8v-14.8c0-4.7-2.5-7.6-7-7.6
			c-4.4,0-7.6,3.2-7.6,7.9v14.5h-3.8V208.6z"/>
		<path class="st1" d="M691.3,225.8h-18.1l-1-2.8l19.4-23.5h3.4v23.1h5.3v3.2h-5.3v8.1h-3.8V225.8z M691.3,222.5v-17.7L677,222.5
			H691.3z"/>
		<path class="st1" d="M706.8,228.7h4.5v5.1h-4.5V228.7z"/>
		<path class="st1" d="M717.1,216.9L717.1,216.9c0-9.7,5.7-17.8,14.5-17.8c8.8,0,14.4,8,14.4,17.6v0.1c0,9.6-5.7,17.7-14.5,17.7
			C722.7,234.5,717.1,226.4,717.1,216.9z M742,216.9L742,216.9c0-7.6-4.1-14.3-10.5-14.3c-6.4,0-10.4,6.6-10.4,14.1v0.1
			c0,7.5,4.1,14.2,10.5,14.2C738,230.9,742,224.3,742,216.9z"/>
	</g>
	<g>
		<path class="st1" d="M76.3,155.6L106,67.7H130l29.7,87.9H137l-5.5-17.9h-27.6l-5.5,17.9H76.3z M126.7,121.7l-9-29l-9,29H126.7z"/>
		<path class="st1" d="M232.8,155.6h-64.5v-14.3c5.5-4.3,10.4-8.4,14.7-12.3c4.3-3.9,8.2-7.5,11.5-11c4.3-4.5,7.4-8.5,9.3-11.9
			c1.9-3.4,2.9-6.9,2.9-10.6c0-4.1-1.2-7.2-3.7-9.4c-2.4-2.2-5.8-3.3-10.2-3.3c-2.2,0-4.4,0.3-6.3,0.8c-2,0.6-4,1.3-6,2.1
			c-2,0.9-3.7,1.8-5.1,2.8c-1.4,0.9-2.5,1.7-3.2,2.1h-1.7V71.5c2.5-1.2,6.4-2.4,11.6-3.6c5.3-1.2,10.3-1.9,15.2-1.9
			c10.4,0,18.3,2.3,23.7,7c5.4,4.6,8.1,11.2,8.1,19.6c0,5.2-1.2,10.3-3.7,15.3c-2.4,5-6.5,10.3-12.2,16c-3.5,3.5-7,6.6-10.3,9.4
			c-3.3,2.7-5.8,4.7-7.3,5.8h37.2V155.6z"/>
		<path class="st1" d="M235.9,155.6l29.7-87.9h24.1l29.7,87.9h-22.7l-5.5-17.9h-27.6l-5.5,17.9H235.9z M286.3,121.7l-9-29l-9,29
			H286.3z"/>
		<path class="st1" d="M475.1,79.9h-21.8V63.8h21.8V79.9z M474.5,155.6h-20.7V89.3h20.7V155.6z"/>
		<path class="st1" d="M550.5,148c0,6.1-0.9,11.3-2.7,15.6c-1.8,4.3-4.2,7.6-7.3,10c-3.1,2.4-6.7,4.2-11,5.3
			c-4.3,1.1-9,1.6-14.3,1.6c-4.4,0-8.6-0.3-12.5-0.9c-4-0.6-7.4-1.2-10.3-2v-16.6h2.4c1,0.4,2.2,0.8,3.6,1.3
			c1.4,0.5,2.8,0.9,4.2,1.3c1.7,0.4,3.3,0.8,5,1.1c1.6,0.3,3.3,0.4,5,0.4c3.5,0,6.4-0.4,8.8-1.1c2.3-0.7,4.1-1.8,5.3-3.1
			c1.2-1.4,2-3,2.5-4.9c0.5-1.9,0.7-4.2,0.7-7.1v-1.2c-2.3,2-5,3.7-8.1,4.9c-3,1.2-6.2,1.9-9.4,1.9c-8.6,0-15.2-2.8-19.9-8.4
			c-4.7-5.6-7-14.1-7-25.5c0-5.2,0.7-9.9,2.2-14c1.4-4.1,3.4-7.6,6-10.6c2.4-2.8,5.4-4.9,8.9-6.5c3.5-1.5,7.1-2.3,10.8-2.3
			c3.4,0,6.4,0.4,9.1,1.3c2.7,0.9,5.1,2,7.3,3.5l0.8-3h20V148z M529.9,134.7v-30c-1-0.5-2.3-0.9-3.8-1.2c-1.5-0.3-3-0.5-4.5-0.5
			c-5,0-8.7,1.6-11.2,4.8c-2.5,3.2-3.7,7.7-3.7,13.4c0,2.9,0.2,5.3,0.6,7.3c0.4,2,1.1,3.7,2.1,5.3c1,1.5,2.3,2.6,3.9,3.4
			c1.6,0.8,3.6,1.2,6.1,1.2c1.8,0,3.7-0.3,5.5-0.9C526.6,136.8,528.3,135.9,529.9,134.7z"/>
		<path class="st1" d="M587.6,79.9h-21.8V63.8h21.8V79.9z M587,155.6h-20.7V89.3H587V155.6z"/>
		<path class="st1" d="M628.2,156.9c-8.4,0-14.5-1.7-18.4-5.2c-3.8-3.5-5.8-9.1-5.8-17v-31h-7.9V89.3h7.9V70.4h20.7v18.9h19.9v14.4
			h-19.9v23.5c0,2.3,0,4.3,0.1,6.1c0,1.7,0.4,3.3,0.9,4.7c0.6,1.4,1.5,2.5,2.9,3.3c1.4,0.8,3.4,1.2,6.1,1.2c1.1,0,2.5-0.2,4.3-0.7
			c1.8-0.5,3-0.9,3.7-1.3h1.8V155c-2.2,0.6-4.6,1.1-7.1,1.4C634.9,156.7,631.8,156.9,628.2,156.9z"/>
		<path class="st1" d="M689.5,148.6c-1.4,1.2-2.7,2.2-3.8,3.2c-1.1,0.9-2.6,1.9-4.5,2.8c-1.8,0.9-3.6,1.6-5.4,2.1
			c-1.8,0.5-4.2,0.7-7.3,0.7c-5.9,0-10.7-2-14.6-5.9c-3.9-3.9-5.8-8.9-5.8-14.9c0-4.9,1-8.9,3-11.9c2-3,4.8-5.4,8.5-7.2
			c3.7-1.8,8.2-3.1,13.4-3.8c5.2-0.7,10.8-1.3,16.8-1.7v-0.4c0-3.7-1.3-6.2-4-7.6c-2.7-1.4-6.7-2.1-12.1-2.1c-2.4,0-5.3,0.4-8.6,1.3
			c-3.3,0.9-6.5,2-9.6,3.4h-1.8v-16c2-0.6,5.3-1.3,9.9-2.1c4.6-0.8,9.2-1.2,13.8-1.2c11.4,0,19.7,1.9,24.9,5.7
			c5.2,3.8,7.8,9.6,7.8,17.4v45.1h-20.5V148.6z M689.5,138.3v-13.8c-3.5,0.4-6.3,0.7-8.5,0.9c-2.2,0.3-4.3,0.8-6.4,1.5
			c-1.8,0.6-3.2,1.6-4.2,2.9c-1,1.3-1.5,3-1.5,5.1c0,3.1,0.8,5.2,2.5,6.4c1.7,1.2,4.1,1.7,7.4,1.7c1.8,0,3.7-0.4,5.5-1.2
			C686.3,141,688,139.8,689.5,138.3z"/>
		<path class="st1" d="M746,155.6h-20.7V63.8H746V155.6z"/>
		<g>
			<path class="st1" d="M437,89.6c-3.3-6.3-7.9-11.3-13.7-15c-4.7-3-9.8-4.9-15.2-5.7c-5.4-0.8-11.2-1.2-17.3-1.2h-5.2v7.6h-9.1v8.2
				h-7.4v6.3h7.4v8.3h-7.4v8.3h-6.2v7.3h6.1l0,8.3h-5.6v33.5H391c6.1,0,11.8-0.4,17.1-1.3c5.4-0.8,10.3-2.7,14.9-5.7
				c5.5-3.5,10-8.4,13.6-14.9c3.6-6.5,5.4-13.8,5.4-22C442,103.3,440.3,95.9,437,89.6z M416.5,126.3c-1.9,4-4.6,7.2-8.3,9.4
				c-3.1,1.9-6.3,3-9.7,3.2c-3.4,0.2-7.6,0.3-12.5,0.3h-0.4v-17v-15.6v0V84.1h0.4c4.6,0,8.5,0.1,11.8,0.2c3.3,0.2,6.4,1.1,9.4,2.7
				c4.1,2.3,7.2,5.5,9.2,9.6c2,4.1,3,9.1,3,14.8C419.3,117.4,418.4,122.2,416.5,126.3z"/>
			<rect x="354.7" y="59.5" class="st1" width="8.2" height="8.3"/>
			<rect x="354.7" y="90.8" class="st1" width="8.2" height="8.3"/>
			<rect x="369.1" y="67.9" class="st1" width="7.4" height="7.5"/>
			<rect x="362.9" y="75.4" class="st1" width="6.2" height="8.1"/>
		</g>
	</g>
</g>
</svg>
