<svg id="Layer_1" data-name="Layer 1" xmlns="http://www.w3.org/2000/svg" viewBox="0 0 605 588.59"><defs><style>.cls-1,.cls-2,.cls-4{fill:#138690;}.cls-1,.cls-2,.cls-3{stroke:#138690;stroke-miterlimit:10;}.cls-2{stroke-width:4.5px;}.cls-3{fill:none;stroke-width:8px;}</style></defs><title>ERP-01</title><path class="cls-1" d="M339.21,415.59V395.7H249v19.89H209.22v149.9H379V415.59Zm-9.94-9.94V555.54h-9.95V494.85H268.91v60.69H259V405.65Zm-19.9,109.1H278.86V504.8h30.51Zm-30.51,10h10.28v30.84H278.86Zm20.23,0h10.28v30.84H299.09Zm-79.92-99.16H249v130H219.17Zm149.89,130H339.21v-130h29.85Z"/><rect class="cls-1" x="229.12" y="435.49" width="9.95" height="9.95"/><rect class="cls-1" x="229.12" y="455.39" width="9.95" height="9.95"/><rect class="cls-1" x="229.12" y="475.29" width="9.95" height="9.95"/><rect class="cls-1" x="229.12" y="495.18" width="9.95" height="9.95"/><rect class="cls-1" x="349.16" y="435.49" width="9.95" height="9.95"/><rect class="cls-1" x="349.16" y="455.39" width="9.95" height="9.95"/><rect class="cls-1" x="349.16" y="475.29" width="9.95" height="9.95"/><rect class="cls-1" x="349.16" y="495.18" width="9.95" height="9.95"/><rect class="cls-1" x="229.12" y="515.08" width="9.95" height="9.95"/><rect class="cls-1" x="349.16" y="515.08" width="9.95" height="9.95"/><path class="cls-1" d="M319.32,415.59H268.91v29.52h50.41Zm-9.95,19.57H278.86v-9.62h30.51Z"/><path class="cls-1" d="M319.32,455.39H268.91V484.9h50.41ZM309.37,475H278.86v-9.61h30.51Z"/><path class="cls-1" d="M289.21,126a5.76,5.76,0,0,0,5.76-5.76h0v-8.43c8-2.17,12.68-8.48,12.68-17.8,0-23.29-27.42-16.75-27.42-29.43,0-6.21,5.54-7.51,10.18-7.51a17.14,17.14,0,0,1,8.77,2.19,6.22,6.22,0,0,0,2.82,1c2.76,0,4.15-3.2,4.15-5,0-4-6.18-5.73-11.18-6.35V39.67a5.76,5.76,0,0,0-11.52,0v9.76c-7.95,2-12.52,7.59-12.52,15.84,0,21.11,27.42,13.84,27.42,29.42,0,8-6.54,9.18-10.44,9.18a13.72,13.72,0,0,1-10.8-4.65c-1.15-1.12-2.14-2.1-3.45-2.1-2.28,0-4.23,2.74-4.23,5,0,3.67,5.34,8.75,14,10.17v8A5.76,5.76,0,0,0,289.21,126Z"/><path class="cls-1" d="M347.6,79.93a58.24,58.24,0,0,0-21.89-45.5,5.76,5.76,0,1,0-7.2,9,46.74,46.74,0,0,1,17.08,43.29c-6.12,42.09-61.08,54.83-85.07,19.64-24.22-35.52,8.42-81.92,49.72-71.91A5.77,5.77,0,1,0,303,23.25h0c-51.51-12.47-92.19,45.31-62,89.59A58.37,58.37,0,0,0,347.6,79.93Z"/><path class="cls-2" d="M145.33,275a76,76,0,0,1,9.21,19.6c4.66,15.26,3.68,29.29,2.88,29.36-1.15.09,3.06-29.62-13.47-50.82-10.85-13.91-26.7-20.53-40.73-23.91v-5.41h3.47a11.77,11.77,0,1,0,.69-23.53H81.84a11.77,11.77,0,0,0-.69,23.53q.34,0,.69,0h3.47v5.41a66.46,66.46,0,0,0-57.5,64,3.78,3.78,0,1,0,7.56.21c1.37-48.71,58.86-75.26,96.78-43.42a58.94,58.94,0,0,1,7.24,83c-31.7,37.75-92.55,21.88-102.73-25.48a3.78,3.78,0,0,0-7.39,1.59c11,51.09,74.8,70.41,112.1,32.91A59.13,59.13,0,0,0,152,345.89,61.25,61.25,0,0,0,157.42,324"/><path class="cls-2" d="M81.84,236.25a4.21,4.21,0,0,1,0-8.42h24.85a4.21,4.21,0,0,1,0,8.42H81.84Z"/><path class="cls-2" d="M95.67,248.63H92.86v-4.82h2.81Z"/><path class="cls-1" d="M94.3,369.3c44.45,0,70.34-51,43.7-86.91A54.49,54.49,0,1,0,94.3,369.3Zm-28-92.16a42.2,42.2,0,1,1-.07,0l0,0Z"/><path class="cls-1" d="M105.18,316.46a11,11,0,0,0-1.89-8l4.25-6.63a3.78,3.78,0,1,0-6.16-4.38,3.28,3.28,0,0,0-.2.31l-4.07,6.35c-10.29-2.73-17.91,9-11.78,17.28a11.08,11.08,0,0,0,19.85-4.93ZM92.13,312a3.52,3.52,0,1,1-.73,4.92h0A3.52,3.52,0,0,1,92.13,312Z"/><path class="cls-1" d="M94.23,286.33A3.79,3.79,0,0,0,98,282.55v-8.22a3.78,3.78,0,0,0-7.55-.39,2.54,2.54,0,0,0,0,.39v8.22a3.78,3.78,0,0,0,3.78,3.78Z"/><path class="cls-1" d="M108.48,290.14a3.76,3.76,0,0,0,5.15-1.37h0l4.11-7.11a3.78,3.78,0,0,0-6.54-3.78L107.1,285A3.77,3.77,0,0,0,108.48,290.14Z"/><path class="cls-1" d="M122.19,302.47c1.35,0,1.36-.2,9-4.61a3.78,3.78,0,0,0-3.6-6.65l-.17.1-7.12,4.11a3.78,3.78,0,0,0,1.89,7.05Z"/><path class="cls-1" d="M122.74,314.84a3.79,3.79,0,0,0,3.77,3.78h8.22a3.78,3.78,0,0,0,0-7.56h-8.22a3.77,3.77,0,0,0-3.77,3.77Z"/><path class="cls-1" d="M120.3,334.25c7.72,4.46,7.67,4.62,9,4.62a3.78,3.78,0,0,0,1.89-7.05l-7.11-4.11a3.78,3.78,0,0,0-3.78,6.54Z"/><path class="cls-1" d="M113.64,340.91a3.78,3.78,0,1,0-6.69,3.52c0,.09.1.17.15.26l4.11,7.12a3.78,3.78,0,0,0,6.54-3.78Z"/><path class="cls-1" d="M94.23,343.35a3.78,3.78,0,0,0-3.78,3.78v8.21a3.78,3.78,0,0,0,7.55.39,2.54,2.54,0,0,0,0-.39v-8.21a3.77,3.77,0,0,0-3.76-3.78Z"/><path class="cls-1" d="M72.09,353.19a3.77,3.77,0,0,0,5.15-1.38h0l4.11-7.12a3.78,3.78,0,0,0-6.54-3.78L70.7,348a3.78,3.78,0,0,0,1.36,5.17Z"/><path class="cls-1" d="M59.15,338.87c1.34,0,1.36-.2,9-4.62a3.78,3.78,0,1,0-3.52-6.69c-.09,0-.17.1-.26.15l-7.11,4.11a3.78,3.78,0,0,0,1.89,7.05Z"/><path class="cls-1" d="M65.71,314.84A3.77,3.77,0,0,0,62,311.06H53.72a3.78,3.78,0,0,0,0,7.56h8.22A3.79,3.79,0,0,0,65.71,314.84Z"/><path class="cls-1" d="M57.26,297.86c7.73,4.46,7.67,4.61,9,4.61a3.78,3.78,0,0,0,1.89-7.05L61,291.31a3.78,3.78,0,0,0-3.78,6.55Z"/><path class="cls-1" d="M74.81,288.76A3.77,3.77,0,1,0,81.35,285l-4.11-7.12a3.78,3.78,0,0,0-6.54,3.78Z"/><path class="cls-3" d="M480.11,371.88A211.85,211.85,0,0,1,379,470"/><path class="cls-3" d="M347.88,74.94a211.46,211.46,0,0,1,145.5,143.35"/><path class="cls-3" d="M88.62,218.29A211.5,211.5,0,0,1,230.68,75.93"/><path class="cls-3" d="M209.22,472.75a211.8,211.8,0,0,1-102.3-91.36"/><path class="cls-1" d="M227.18,264.25l21.43-38.74,29.29,19.63,3.47,2.7,18.32-41.37q9.62,8.86,19.27,18.72c1.36,1.39,2.69,2.78,4,4.16l5.5,5,19.09-27.7a13.83,13.83,0,0,1,2,1.21,13.67,13.67,0,0,1,1.85,1.6c.19-1.77.34-3.24.45-4.34.4-4.05.08-1.08.25-2.8a32,32,0,0,0,.11-3.52,3.67,3.67,0,0,0-.17-1.09,1.68,1.68,0,0,0-.32-.7c-.46-.4-1.54.19-3.57,1.15-.9.42-1.63.75-2.11,1-.81.39-1.66.77-2.55,1.15-1.38.57-2.71,1.06-4,1.46.58.35,1.18.69,1.79,1,.79.44,1.58.87,2.36,1.27-1.8,3.12-3.77,6.34-5.94,9.64-3.38,5.14-6.81,9.8-10.15,14q-14.13-13.26-28.27-26.51a2.8,2.8,0,0,0-1.77,0,2.72,2.72,0,0,0-1.15.8L280.16,241.1,248.7,221.19a2.33,2.33,0,0,0-1-.05,2.46,2.46,0,0,0-1.51,1q-11.47,19.74-22.94,39.5l-9.78,1.11.52,4.53Z"/><path class="cls-1" d="M216.93,278.05h19.61v41.67H216.93Z"/><path class="cls-1" d="M324.79,319.72H305.18V258.44h19.61Z"/><path class="cls-1" d="M295.38,319.72H275.77v-49h19.61Z"/><path class="cls-1" d="M266,319.72H246.35V241.28H266Z"/><path class="cls-1" d="M334.6,244.39h19.61v75.33H334.6Z"/><path class="cls-1" d="M216.93,275.6a2.45,2.45,0,0,0-2.45,2.45h0v41.67a2.45,2.45,0,0,0,2.45,2.45h19.61a2.44,2.44,0,0,0,2.45-2.43v0h0V278.05a2.45,2.45,0,0,0-2.45-2.45H216.93Zm17.16,41.67H219.38V280.5h14.71Z"/><path class="cls-1" d="M327.24,319.72V258.44a2.44,2.44,0,0,0-2.43-2.45H305.18a2.45,2.45,0,0,0-2.45,2.45h0v61.28a2.45,2.45,0,0,0,2.45,2.45h19.61a2.44,2.44,0,0,0,2.45-2.43Zm-4.9-2.45H307.63V260.89h14.71Z"/><path class="cls-1" d="M275.77,268.24a2.47,2.47,0,0,0-2.46,2.45h0v49a2.45,2.45,0,0,0,2.45,2.45h19.62a2.45,2.45,0,0,0,2.45-2.45h0v-49a2.47,2.47,0,0,0-2.45-2.46H275.77Zm17.15,49h-14.7V273.15h14.7Z"/><path class="cls-1" d="M246.35,238.83a2.45,2.45,0,0,0-2.45,2.45h0v78.44a2.44,2.44,0,0,0,2.43,2.45H266a2.45,2.45,0,0,0,2.45-2.45h0V241.28a2.45,2.45,0,0,0-2.45-2.45H246.35Zm17.16,78.44H248.8V243.73h14.71Z"/><path class="cls-1" d="M356.66,316.22V244.78c0-3.29-1.1-5.95-2.45-5.95H334.6c-1.36,0-2.45,2.66-2.45,5.95h0v71.44c0,3.29,1.09,5.95,2.45,5.95h19.61c1.35,0,2.45-2.66,2.45-5.95Zm-4.9,1H337.05v-73.7h14.71Z"/><path class="cls-4" d="M576.08,352.76a2.5,2.5,0,0,0-2.5,2.5V372a.42.42,0,0,1-.42.43h-9.52V335.83a2.51,2.51,0,1,0-5,0v36.59H540.24l5-5.48a4,4,0,0,0,1-3.21.22.22,0,0,1,0-.08l-5.6-33,1-1.55.27.19a3.9,3.9,0,0,0,3.22.6,3.94,3.94,0,0,0,2.56-2h0l5.69-11.41,13,5a12.45,12.45,0,0,1,7.23,11.3v10.85a2.5,2.5,0,1,0,5,0V332.72c0-11.56-9.91-15.77-10.33-15.94l0,0-22.14-8.58v-4.56a18.32,18.32,0,0,0,6.61-11.36,8.64,8.64,0,0,0,7.65-8.58,8.57,8.57,0,0,0-2-5.45v-6.76a24,24,0,0,0-39.55-18.23,8.58,8.58,0,0,0-1.94-5.21v-6.76a24,24,0,0,0-48,0v6.94a8.18,8.18,0,0,0-1.93,5,23.86,23.86,0,0,0-9.45-4.94,2.5,2.5,0,1,0-1.27,4.84,19,19,0,0,1,14.12,18.35v3.74l-.46-.08a2.94,2.94,0,0,0-.6-1.69c-.64-.92-1.79-2.07-5.5-6.05a4,4,0,0,0-5.07-.62,35.82,35.82,0,0,1-21.2,5.83c-2.33-.13-3.79.89-4.41,2.57l-.71.14v-3.84a19.09,19.09,0,0,1,13.5-18.17,2.51,2.51,0,0,0-1.45-4.8A24.27,24.27,0,0,0,432.25,257a23.79,23.79,0,0,0-4.83,14.44v6.93a8.17,8.17,0,0,0-1.94,5.28,8.65,8.65,0,0,0,7.66,8.59,18.52,18.52,0,0,0,7,11.65v4.27L418,316.76l-.05,0c-.42.17-10.33,4.38-10.33,15.94V372a5.43,5.43,0,0,0,5.43,5.43h77.12a5.36,5.36,0,0,0,2.93-.86,5.36,5.36,0,0,0,2.93.86h77.13a5.44,5.44,0,0,0,5.43-5.43V355.26A2.51,2.51,0,0,0,576.08,352.76ZM432.89,287.09a3.62,3.62,0,0,1-2.4-3.41,3.72,3.72,0,0,1,2.4-3.26Zm115.77,27.47-4.92,9.86-5.54-3.94,6.15-7.59ZM534.58,317l-6.47-8v-2.4a20.36,20.36,0,0,0,6.51,1.06h0a18.5,18.5,0,0,0,6.43-1.17V309Zm2.94,9.15-.92,1.39h-4l-.93-1.39,2.94-2.08ZM493.09,286.8l-6.47-8v-2.4a20.28,20.28,0,0,0,6.51,1.07h0a18.55,18.55,0,0,0,6.43-1.17v2.52ZM496,296l-.92,1.39h-4l-.93-1.39,2.94-2.09Zm-22.66-34.12a8.76,8.76,0,0,0,1.26.24,18.52,18.52,0,0,0,7,11.65V278l-5.11,2a8.56,8.56,0,0,0-1.11-1.74v-6.76A23.85,23.85,0,0,0,473.37,261.83Zm33-2.65a13.51,13.51,0,0,1-27,0V247.45a41,41,0,0,0,22.85-6.21c2.25,2.42,3.6,3.83,4.16,4.48Zm4.78,2.89a8.37,8.37,0,0,0,1.25-.24,23.85,23.85,0,0,0-2,9.64v6.93a9,9,0,0,0-1,1.47L504.57,278v-4.56A18.32,18.32,0,0,0,511.18,262.07ZM483.32,282.7l6.15,7.59-4.2,3h0l-1.33.94L479,284.37Zm15.54,4.94,4-4.94,4.31,1.67-4.92,9.85-1.33-1h0l-4.21-3Zm1.26,11.21.27.19a3.89,3.89,0,0,0,3.22.61,4,4,0,0,0,2.56-2h0l4.22-8.48a8.83,8.83,0,0,0,5.72,3.15,18.19,18.19,0,0,0,7,11.65v4.27l-21.29,8.25-2.72-16Zm24.69,14,6.15,7.59-5.53,3.93-4.92-9.86Zm23.08-23.53a13.51,13.51,0,0,1-27,0V277.64a41,41,0,0,0,22.84-6.21c2.26,2.43,3.61,3.83,4.17,4.49Zm7.42-5.69a3.61,3.61,0,0,1-2.41,3.41v-6.81A3.6,3.6,0,0,1,555.31,283.68Zm-39.9-12.21a19,19,0,1,1,38,0v3.74l-.47-.08a2.86,2.86,0,0,0-.59-1.69c-.66-.95-1.8-2.08-5.5-6.05a4,4,0,0,0-5.07-.62,35.89,35.89,0,0,1-21.39,5.83,3.94,3.94,0,0,0-4.22,2.57l-.71.14v-3.84Zm.47,8.95v6.67a3.6,3.6,0,0,1-2.41-3.41A3.71,3.71,0,0,1,515.88,280.42Zm-2.06-26.93a3.61,3.61,0,0,1-1.25,2.73,3.77,3.77,0,0,1-1.16.68v-6.82A3.62,3.62,0,0,1,513.82,253.49ZM492.9,222.3a19,19,0,0,1,19,19V245l-.47-.08a3,3,0,0,0-.7-1.85c-.67-.91-1.91-2.16-5.39-5.9a4,4,0,0,0-5.07-.62,35.8,35.8,0,0,1-21.59,5.82,4,4,0,0,0-4,2.58l-.71.15v-3.85h0A19,19,0,0,1,492.9,222.3Zm-18.52,27.93v6.67a3.63,3.63,0,0,1-2.4-3.41A3.7,3.7,0,0,1,474.38,250.23Zm-4.46,30a3.62,3.62,0,0,1,0,6.81Zm-.23,12a8.77,8.77,0,0,0,5.95-3.45L480,297.6h0A3.92,3.92,0,0,0,485.8,299l.27-.19,1,1.55-2.72,16-21.3-8.26v-4.56h0A18.28,18.28,0,0,0,469.69,292.27ZM451.6,317l-6.47-8v-2.4a20.27,20.27,0,0,0,6.51,1.06h0a18.44,18.44,0,0,0,6.43-1.17V309Zm2.94,9.15-.92,1.39h-4l-.93-1.39,2.94-2.08Zm6.83-13.25,4.31,1.67-4.92,9.86-1.33-.95h0l-4.2-3ZM437.9,289.37V277.64a40.93,40.93,0,0,0,22.84-6.21c2.24,2.4,3.61,3.83,4.17,4.49v13.45a13.51,13.51,0,0,1-27,0Zm3.93,23.53,6.15,7.59-4.2,3h0l-1.33.95-4.92-9.86Zm-14.26,59.52V335.83a2.51,2.51,0,1,0-5,0v36.59h-9.51a.42.42,0,0,1-.42-.43V332.72a12.45,12.45,0,0,1,7.21-11.3l13-5,5.69,11.41h0a3.93,3.93,0,0,0,5.78,1.45l.27-.19,1,1.55-5.6,33s0,.05,0,.08a4,4,0,0,0,1,3.21l5,5.48ZM445,364l5.32-31.43h2.49L458.17,364l-6.57,7.22Zm45.56,8a.43.43,0,0,1-.43.43h-9.51V335.83a2.51,2.51,0,1,0-5,0v36.59H457.26l5-5.48a4,4,0,0,0,1-3.21.22.22,0,0,1,0-.08l-5.6-33,1-1.55.27.19a3.93,3.93,0,0,0,5.78-1.45h0l5.69-11.41,13,5a12.43,12.43,0,0,1,7.23,11.3V372Zm2.5-48.37a18,18,0,0,0-4.08-4.54l2.83-16.73h2.49l2.83,16.74A17.72,17.72,0,0,0,493.1,323.62Zm17.45,48.8h0V335.83a2.51,2.51,0,1,0-5,0v36.59H496a.42.42,0,0,1-.42-.43V332.72a12,12,0,0,1,2.92-8,13.33,13.33,0,0,1,4.29-3.27l13-5,5.69,11.41h0a3.93,3.93,0,0,0,5.78,1.45l.27-.19,1,1.55-5.6,33a.22.22,0,0,1,0,.08,4,4,0,0,0,1,3.21l5,5.48ZM528,364l5.32-31.43h2.49L541.15,364l-6.57,7.22Z"/></svg>