<svg width="40" height="40" viewBox="0 0 40 40" fill="none" xmlns="http://www.w3.org/2000/svg">
<g clip-path="url(#clip0)">
<path d="M39.5006 19.9998C39.5006 30.7693 30.7703 39.4996 20.0008 39.4996C9.23135 39.4996 0.500977 30.7693 0.500977 19.9998C0.500977 9.23037 9.23135 0.5 20.0008 0.5C30.7703 0.5 39.5006 9.23037 39.5006 19.9998Z" stroke="white"/>
<path d="M32.2504 14.3734C31.3933 14.7534 30.4714 15.0105 29.5045 15.1253C30.4917 14.5338 31.2493 13.5979 31.6069 12.481C30.6831 13.0289 29.6596 13.4265 28.5711 13.6407C27.6991 12.712 26.4566 12.1316 25.0808 12.1316C22.4412 12.1316 20.3003 14.2725 20.3003 16.9121C20.3003 17.2868 20.3427 17.6515 20.4247 18.0016C16.4517 17.8023 12.929 15.8993 10.571 13.0061C10.1596 13.712 9.92358 14.5338 9.92358 15.4098C9.92358 17.0679 10.7682 18.5318 12.0502 19.3888C11.2669 19.3642 10.5293 19.1493 9.88507 18.7902C9.88472 18.8106 9.88472 18.8309 9.88472 18.8508C9.88472 21.1671 11.5332 23.0991 13.7198 23.538C13.319 23.6478 12.8958 23.7059 12.4605 23.7059C12.1518 23.7059 11.8527 23.6763 11.5611 23.6207C12.1693 25.5195 13.9344 26.9017 16.0268 26.9405C14.3904 28.2229 12.3293 28.9869 10.089 28.9869C9.70396 28.9869 9.32249 28.9645 8.94922 28.9199C11.0637 30.2768 13.5771 31.0679 16.2767 31.0679C25.0698 31.0679 29.8785 23.7836 29.8785 17.4658C29.8785 17.2586 29.8738 17.0522 29.8646 16.8476C30.7994 16.1738 31.6097 15.332 32.2504 14.3734Z" fill="white"/>
</g>
<defs>
<clipPath id="clip0">
<rect width="40" height="40" fill="white"/>
</clipPath>
</defs>
</svg>
