<svg id="Layer_1" data-name="Layer 1" xmlns="http://www.w3.org/2000/svg" viewBox="0 0 1920 1080"><defs><style>.cls-1{fill:#138690;stroke:#138690;stroke-miterlimit:10;}</style></defs><title>Logo</title><g id="Outline"><path class="cls-1" d="M759.23,759.3v42.53A53.23,53.23,0,0,0,812.4,855h255.2a53.23,53.23,0,0,0,53.17-53.17V514.73H1099.5v287.1a31.94,31.94,0,0,1-31.9,31.9H812.4a31.94,31.94,0,0,1-31.9-31.9V759.3Z"/><path class="cls-1" d="M1120.77,291.43V270.17A53.23,53.23,0,0,0,1067.6,217H812.4a53.23,53.23,0,0,0-53.17,53.17V546.63H780.5V270.17a31.94,31.94,0,0,1,31.9-31.9h57.23l7.69,15.39a10.63,10.63,0,0,0,9.51,5.88H993.17a10.63,10.63,0,0,0,9.51-5.88l7.69-15.39h57.23a31.94,31.94,0,0,1,31.9,31.9v21.27Z"/><path class="cls-1" d="M1216.47,312.7H1035.7a42.58,42.58,0,0,0-42.53,42.53V440.3a42.58,42.58,0,0,0,42.53,42.53h4.06L1026.19,510A10.63,10.63,0,0,0,1040,524.45l93.65-41.62h82.81A42.58,42.58,0,0,0,1259,440.3V355.23A42.58,42.58,0,0,0,1216.47,312.7Zm21.27,127.6a21.29,21.29,0,0,1-21.27,21.27H1131.4a10.64,10.64,0,0,0-4.32.92L1058.47,493l8-16a10.63,10.63,0,0,0-9.51-15.39H1035.7a21.29,21.29,0,0,1-21.27-21.27V355.23A21.29,21.29,0,0,1,1035.7,334h180.77a21.29,21.29,0,0,1,21.27,21.27Z"/><path class="cls-1" d="M1046.33,365.87h31.9v21.27h-31.9Z"/><path class="cls-1" d="M1046.33,408.4h159.5v21.27h-159.5Z"/><path class="cls-1" d="M1099.5,365.87h106.33v21.27H1099.5Z"/><path class="cls-1" d="M663.53,738H778.24l93.64,41.62a10.63,10.63,0,0,0,13.82-14.47L872.14,738h4.06a42.58,42.58,0,0,0,42.53-42.53V610.43A42.58,42.58,0,0,0,876.2,567.9H663.53A42.58,42.58,0,0,0,621,610.43V695.5A42.58,42.58,0,0,0,663.53,738Zm-21.27-127.6a21.29,21.29,0,0,1,21.27-21.27H876.2a21.29,21.29,0,0,1,21.27,21.27V695.5a21.29,21.29,0,0,1-21.27,21.27H854.93a10.63,10.63,0,0,0-9.51,15.39l8,16-68.62-30.5a10.64,10.64,0,0,0-4.32-.92h-117a21.29,21.29,0,0,1-21.27-21.27Z"/><path class="cls-1" d="M738,621.07h127.6v21.27H738Z"/><path class="cls-1" d="M823,663.6h42.53v21.27H823Z"/><path class="cls-1" d="M674.17,663.6h127.6v21.27H674.17Z"/><path class="cls-1" d="M674.17,621.07H716.7v21.27H674.17Z"/><path class="cls-1" d="M854.93,365.87H876.2v21.27H854.93Z"/><path class="cls-1" d="M897.47,365.87h21.27v21.27H897.47Z"/><path class="cls-1" d="M918.73,440.3V428.6a53.13,53.13,0,0,0,36.39-76.87l15-22.49-17.69-11.8-11.51,17.28a52.89,52.89,0,0,0-32.81-11.39H865.57a52.89,52.89,0,0,0-32.81,11.37l-11.51-17.28-17.69,11.8,15,22.49a53.13,53.13,0,0,0,36.39,76.89v11.7a53.23,53.23,0,0,0-53.17,53.17v21.27a10.63,10.63,0,0,0,10.63,10.63H961.27a10.63,10.63,0,0,0,10.63-10.63V493.47A53.23,53.23,0,0,0,918.73,440.3ZM844.3,504.1H823V493.47a32,32,0,0,1,21.27-30.08Zm63.8,0H865.57V461.57H908.1Zm-31.9-63.8V429.67h21.27V440.3Zm31.9-31.9H865.57a31.9,31.9,0,0,1,0-63.8H908.1a31.9,31.9,0,0,1,0,63.8Zm42.53,95.7H929.37V463.39a32,32,0,0,1,21.27,30.08Z"/><path class="cls-1" d="M1067.6,642.33a63.8,63.8,0,1,0-107.77,46.25,74.17,74.17,0,0,0-30.46,60.09v21.27A10.63,10.63,0,0,0,940,780.57h127.6a10.63,10.63,0,0,0,10.63-10.63V748.67a74.17,74.17,0,0,0-30.46-60.09A63.52,63.52,0,0,0,1067.6,642.33ZM1057,748.67V759.3H950.63V748.67a53,53,0,0,1,33-49.18,10.63,10.63,0,0,0,.81-19.29,42.53,42.53,0,1,1,38.77,0,10.63,10.63,0,0,0,.82,19.29,53,53,0,0,1,33,49.18Z"/><path class="cls-1" d="M971.9,631.7h21.27V653H971.9Z"/><path class="cls-1" d="M1014.43,631.7h21.27V653h-21.27Z"/></g></svg>