<svg xmlns="http://www.w3.org/2000/svg" viewBox="0 0 891.57 518.45"><defs><style>.cls-1{fill:#138690;}.cls-1,.cls-2{stroke:#138690;stroke-miterlimit:10;}.cls-2{fill:none;stroke-width:10px;}</style></defs><title>rpa</title><g id="DESIGNED_BY_FREEPIK" data-name="DESIGNED BY FREEPIK"><g id="auto_robot" data-name="auto robot"><path class="cls-1" d="M357.88,259.88h48.87c4.05-12.5,16.62-19,28.08-14.63s17.46,18.13,13.41,30.63-16.62,19.05-28.08,14.63a23.07,23.07,0,0,1-13.41-14.63H354.06a7.17,7.17,0,0,1-6-3.41l-19.66-30.64-3.74,27.24a7.56,7.56,0,0,1-7.27,6.81H272c-3.1,9.56-11.37,16-20.66,16h-132c-12.15,0-22-10.74-22-24s9.85-24,22-24h132c9.29,0,17.56,6.45,20.66,16h39l5.13-37.09-17.31-26.91H272c-3.1,9.56-11.37,16-20.66,16h-132c-12.15,0-22-10.74-22-24s9.85-24,22-24h132c9.29,0,17.56,6.45,20.66,16h30.68a7.19,7.19,0,0,1,6,3.42l10.6,16.52,6.54-47.56-26.68-36.38H272.06c-3.1,9.57-11.39,16-20.69,16h-132c-12.15,0-22-10.74-22-24s9.85-24,22-24h132c9.29,0,17.56,6.45,20.66,16h30.68a7.11,7.11,0,0,1,5.73,3l20.39,27.81,3.3-24a7.57,7.57,0,0,1,7.26-6.81h67.36c4.05-12.5,16.62-19,28.08-14.63s17.46,18.13,13.41,30.63-16.62,19.05-28.08,14.63a23.07,23.07,0,0,1-13.41-14.63H345.7l-4.4,31.83,23.62,32.17h41.81c4-12.5,16.62-19,28.08-14.63s17.46,18.13,13.41,30.63-16.62,19.05-28.08,14.63a23.07,23.07,0,0,1-13.41-14.63H361.39a7.13,7.13,0,0,1-5.73-3l-17.3-23.6-6.82,49.6Zm69.52,16c4.05,0,7.34-3.58,7.34-8s-3.29-8-7.34-8-7.33,3.58-7.33,8S423.35,275.88,427.4,275.88Zm-176-16h-132c-4,0-7.34,3.58-7.34,8s3.29,8,7.34,8h132c4,0,7.34-3.58,7.34-8S255.42,259.88,251.37,259.88Zm0-80h-132c-4,0-7.34,3.58-7.34,8s3.29,8,7.34,8h132c4,0,7.34-3.58,7.34-8S255.42,179.88,251.37,179.88Zm0-80h-132c-4,0-7.34,3.58-7.34,8s3.29,8,7.34,8h132c4,0,7.34-3.58,7.34-8S255.42,99.88,251.37,99.88Zm176,16c4.05,0,7.34-3.58,7.34-8s-3.29-8-7.34-8-7.33,3.58-7.33,8S423.35,115.88,427.4,115.88Zm0,80c4.05,0,7.34-3.58,7.34-8s-3.29-8-7.34-8-7.33,3.58-7.33,8S423.35,195.88,427.4,195.88Z"/><rect class="cls-1" x="304.98" y="342.91" width="16" height="16"/><path class="cls-1" d="M529,30.91H97a24,24,0,0,0-24,24v304a24,24,0,0,0,24,24H255.54l-5.33,32H241a8,8,0,0,0-6.4,3.2l-24,32a8,8,0,0,0,6.4,12.8H409a8,8,0,0,0,6.4-12.8l-24-32a8,8,0,0,0-6.4-3.2h-9.22l-5.34-32H529a24,24,0,0,0,24-24v-304A24,24,0,0,0,529,30.91Zm-432,16H529a8,8,0,0,1,8,8v264H89v-264A8,8,0,0,1,97,46.91Zm296,400H233l12-16H381Zm-33.44-32H266.42l5.34-32h82.45Zm169.44-48H97a8,8,0,0,1-8-8v-24H537v24A8,8,0,0,1,529,366.91Z"/></g><path class="cls-1" d="M468.16,196.28a22,22,0,0,0,9.79,2.3,21.28,21.28,0,0,0,20.15-13.9l56.19-.84-9.81,7.83a6.75,6.75,0,0,0-1.65,8.78l13.36,22.3.29,31.08H520.82a6.63,6.63,0,0,0-1.24.24,21.52,21.52,0,0,0-23.79-13.78,20.62,20.62,0,0,0,0,40.89,21.52,21.52,0,0,0,23.79-13.78,6.63,6.63,0,0,0,1.24.24h42.87a7.26,7.26,0,0,0,5.07-2,6.74,6.74,0,0,0,2.07-4.92l-.32-35,22.86-8.29c1.55,1,3.13,1.86,4.72,2.67l4.82,28a7.09,7.09,0,0,0,7.06,5.77h3.73v34.53H592.27a7,7,0,0,0-7.15,6.91V396l-62.21,60.14a6.76,6.76,0,0,0-1.55,7.53,7.16,7.16,0,0,0,6.6,4.26H756.6a7.14,7.14,0,0,0,6.6-4.26,6.73,6.73,0,0,0-1.55-7.53l-47.92-46.32V373.16l16-25.76c27,15.74,43.31,23.84,48.31,23.84h42.87a7,7,0,0,0,7.14-6.9V325.76L840.24,314a6.79,6.79,0,0,0,2.1-4.89V288.36h10.44a14.4,14.4,0,0,0,12-6.28,13.4,13.4,0,0,0,1.08-13.14l-22.21-48.35a52.59,52.59,0,0,0,13-34.65c.16-45.71-26.58-87.53-69-107.84L767,68.07a7.29,7.29,0,0,0-9,2.17l-3,4H706.59V60.44a7,7,0,0,0-7.15-6.91H628a7,7,0,0,0-7.14,6.91V88.07H610a7.07,7.07,0,0,0-7.06,5.77l-4.82,28c-1.59.81-3.17,1.69-4.72,2.67l-27.52-10a7.26,7.26,0,0,0-8.69,3l-7.21,12.06c-.18,0-.33-.1-.52-.1H506.53v-22a20.66,20.66,0,0,0,14-23,21.57,21.57,0,0,0-42.25,0,20.65,20.65,0,0,0,14,23v28.89a7,7,0,0,0,7.15,6.91h42.76a6.71,6.71,0,0,0,2.33,6.91l22.67,18c0,.5,0,1,0,1.53l-69,1a21.46,21.46,0,0,0-21.73-13.68,21.22,21.22,0,0,0-19.46,16.56A20.52,20.52,0,0,0,468.16,196.28Zm31.23,71.36a6.91,6.91,0,1,1,7.14-6.9A7,7,0,0,1,499.39,267.64Zm0-186.48a6.91,6.91,0,1,1-7.15,6.91A7,7,0,0,1,499.39,81.16ZM628,253.83h10.54a7.08,7.08,0,0,0,7-5.77l4.83-28c1.59-.8,3.17-1.69,4.72-2.66l27.53,10a7.26,7.26,0,0,0,8.69-3l3-5H728a7.34,7.34,0,0,0,1.55-.31l12.74,16.42v11.51H713.73v13.82h16.49l-19.14,7.39a6.92,6.92,0,0,0-4.49,6.42v13.81H628Zm77.64-112.36-3-5.06h18.27V164H686.66L704,150.23A6.75,6.75,0,0,0,705.63,141.47Zm15.25,36.38v27.63H702.61l3-5a6.75,6.75,0,0,0-1.64-8.76l-17.33-13.82ZM673,348.5l26.48,25.6v4H656.57v-76h14.29v41.44A6.78,6.78,0,0,0,673,348.5Zm-45.29,91.81H628V440l26.82-29.62a6.78,6.78,0,0,0,1.76-4.55V392h14.29v62.17H615.13Zm-82.46,13.82,52.11-50.37a6.81,6.81,0,0,0,2.09-4.89V302.18h42.87v101L628,419V385.06H613.7v49.73l-17.53,19.34Zm194.14,0h-54.2V392h14.29v20.73a6.8,6.8,0,0,0,2.1,4.88Zm-34.19-94-20-19.34V302.18h21.44V329.8a6.87,6.87,0,0,0,3.35,5.86c2.67,1.62,5.08,3,7.59,4.54ZM766,83.07l15.28,7.39c37.51,18,61.19,55,61.05,95.48a39.34,39.34,0,0,1-12.19,28.47,6.74,6.74,0,0,0-1.48,7.69l24.11,52.45H835.2a7,7,0,0,0-7.15,6.91v20.72h-1.23a42.1,42.1,0,0,1-29.44-11.79,7.33,7.33,0,0,0-10,.08,6.74,6.74,0,0,0-.08,9.68,56,56,0,0,0,31.33,15.2L815.86,318a6.82,6.82,0,0,0-2.1,4.89v34.53l-35,0A385.74,385.74,0,0,1,731,332l0,0h0c-3.36-2-6.73-4-10.06-6V279.22l31.23-12.07a6.91,6.91,0,0,0,4.49-6.41V233.11a6.76,6.76,0,0,0-1.43-4.15l-20-25.78V124.81ZM635.14,67.35H692.3V81.16a7,7,0,0,0,7.14,6.91h45.32l-22.55,30.52a6.64,6.64,0,0,0-1.33,4H694.36l-3-5a7.26,7.26,0,0,0-8.69-3l-27.51,10c-1.55-1-3.13-1.87-4.71-2.67l-4.86-28a7.07,7.07,0,0,0-7-5.76h-3.39Zm-76.9,76,8.23-13.81,25.38,9.19a7.38,7.38,0,0,0,6.78-.93,43.47,43.47,0,0,1,8.69-4.91,6.93,6.93,0,0,0,4.23-5.21L616,101.88h16.47l4.45,25.78a7,7,0,0,0,4.23,5.21,43.92,43.92,0,0,1,8.69,4.9,7.35,7.35,0,0,0,6.78.94l25.38-9.2,8.23,13.81L669.33,160a6.78,6.78,0,0,0-2.55,6.15,36.71,36.71,0,0,1,0,9.71,6.8,6.8,0,0,0,2.55,6.16l20.9,16.61L682,212.39l-25.38-9.19a7.32,7.32,0,0,0-6.78.93,43.43,43.43,0,0,1-8.69,4.9,7,7,0,0,0-4.23,5.22L632.47,240H616l-4.43-25.78a6.93,6.93,0,0,0-4.23-5.21,42.92,42.92,0,0,1-8.69-4.91,7.37,7.37,0,0,0-6.79-.93l-25.38,9.2-8.23-13.81L579.14,182c.12-.12.25-.25.36-.38a4.89,4.89,0,0,0,.39-.4,6.7,6.7,0,0,0,1.29-1.91l0-.07a6.5,6.5,0,0,0,.46-2.38,1.59,1.59,0,0,0,.06-.3,2,2,0,0,0,0-.24c0-.08,0-.31,0-.47a36,36,0,0,1,0-9.72,6.83,6.83,0,0,0-2.56-6.15ZM471.6,174.7a7,7,0,0,1,4.17-3.46,7.18,7.18,0,0,1,8.56,4.58,6.85,6.85,0,0,1-4.19,8.55,7.21,7.21,0,0,1-9-4.46A6.66,6.66,0,0,1,471.6,174.7Z"/><circle class="cls-2" cx="624.23" cy="167.97" r="35.66"/></g></svg>