<?xml version="1.0" encoding="utf-8"?>
<!-- Generator: Adobe Illustrator 21.0.0, SVG Export Plug-In . SVG Version: 6.00 Build 0)  -->
<svg version="1.1" id="Layer_1" xmlns="http://www.w3.org/2000/svg" xmlns:xlink="http://www.w3.org/1999/xlink" x="0px" y="0px"
	 viewBox="0 0 558 541" style="enable-background:new 0 0 558 541;" xml:space="preserve">
<style type="text/css">
	.st0{fill:#138690;}
</style>
<title>logo</title>
<path class="st0" d="M328.5,7.5L325.1,4l-3.8-2.5L318.1,0h-76.8l-4.5,0.9l-4.1,2.7l-2.2,2.5L56.7,306l-1.2,4.7v8.6l1.4,4.1L91,382
	l3.8,4l3.3,2.6l2.8,2.4l5.9,1.2h343.4l7.6-3.3l7.6-5.7l35-59.6l2.1-5.9v-11.1L328.5,7.5z M391,302.2c0,0-8.2,34-112.1,36.6
	s-115.8-45.4-115.8-45.4s-19.2-24.7,19.2-102.2c31.5-56.1,64.2-78.4,64.2-78.4s5.8-9.3,32.4-9.3s36.2,11.6,36.2,11.6
	s45,44.5,58.2,74.8C420.6,278.2,391,302.2,391,302.2z"/>
<g>
	<polygon class="st0" points="55.5,452.8 100.1,539.4 100.9,540.5 102.1,541 118,541 119,540.6 119.9,539.6 164.6,453.2 165,451.7 
		164.3,450.4 157.4,439.6 156.5,439.1 150.4,439.1 149.8,439.1 148.9,440.1 111.7,513.2 110.9,514.2 109.7,514.2 108.7,513.2 
		71.7,440 70.9,439.3 70,439.1 64.1,439.1 63.3,439.3 62.7,439.9 55.9,450.8 55.5,451.6 	"/>
	<polygon class="st0" points="269.6,452.8 314.1,539.4 314.9,540.5 316.1,541 332,541 333,540.6 333.9,539.6 378.6,453.2 379,451.7 
		378.3,450.4 371.4,439.6 370.5,439.1 364.4,439.1 363.8,439.1 362.9,440.1 325.7,513.2 324.9,514.2 323.7,514.2 322.7,513.2 
		285.7,440 284.9,439.3 284,439.1 278.1,439.1 277.3,439.3 276.7,439.9 269.9,450.8 269.6,451.6 	"/>
	<polygon class="st0" points="210.1,541 223.6,541 225.4,540.3 226.5,539.4 226.9,538.3 226.9,442.5 226.5,441.1 225.8,440.1 
		224.3,439.2 215.1,439.2 214.4,439.7 207.5,449.8 207.1,450.7 207.1,537.1 207.3,538.5 207.7,539.6 208.1,540.6 208.8,541 	"/>
	<polygon class="st0" points="428.5,541 493,541 494.1,540.6 495.1,539.8 502.2,527.7 502.5,526.8 502.5,523.6 501.8,523.3 
		500.6,523.3 442,523.3 441.3,522.8 440.7,522.4 440.4,521.3 440.4,500.3 440.8,499.7 441.4,499 442.9,498.6 481.5,498.6 
		482.4,498.1 483.4,497.4 483.7,496.4 483.7,482.9 483.2,482 482,481.2 480.7,480.8 441.4,480.8 440.6,480.5 440,479.6 440,478.5 
		440,459.2 440.5,458.1 441.6,457.2 499.3,457.2 500.4,456.6 501.4,455.7 501.9,454 502,452.4 495.5,440.9 494.7,440 493.4,439.4 
		429.6,439.4 428.4,439.5 427.7,439.9 421.2,449.6 420.8,450.4 420.6,451.4 420.6,528.1 420.8,529.4 421.4,531.5 422.1,532.9 
		423,534.7 423.9,536 425,537.6 426.4,539.5 	"/>
</g>
</svg>
