<?xml version="1.0" encoding="utf-8"?>
<!-- Generator: Adobe Illustrator 23.0.1, SVG Export Plug-In . SVG Version: 6.00 Build 0)  -->
<svg version="1.1" id="Layer_1" xmlns="http://www.w3.org/2000/svg" xmlns:xlink="http://www.w3.org/1999/xlink" x="0px" y="0px"
	 viewBox="0 0 629.6 607.6" style="enable-background:new 0 0 629.6 607.6;" xml:space="preserve">
<style type="text/css">
	.st0{fill:#138690;stroke:#138690;stroke-miterlimit:10;}
</style>
<title>Logo</title>
<path class="st0" d="M443,238h71.7c6.6,0,12,5.4,12,12v2.7c0,6.6-5.4,12-12,12H443c-6.6,0-12-5.4-12-12V250
	C431,243.3,436.4,238,443,238z"/>
<path class="st0" d="M470.9,289.2H557c6.6,0,12,5.4,12,12v2.7c0,6.6-5.4,12-12,12h-86.2c-6.6,0-12-5.4-12-12v-2.7
	C458.9,294.5,464.2,289.2,470.9,289.2z"/>
<path class="st0" d="M455.3,337h50.6c6.6,0,12,5.4,12,12v2.7c0,6.6-5.4,12-12,12h-50.6c-6.6,0-12-5.4-12-12V349
	C443.3,342.4,448.7,337,455.3,337z"/>
<path class="st0" d="M541,337h7.2c6.6,0,12,5.4,12,12v2.7c0,6.6-5.4,12-12,12H541c-6.6,0-12-5.4-12-12V349
	C529,342.4,534.4,337,541,337z"/>
<path class="st0" d="M544.3,238h7.2c6.6,0,12,5.4,12,12v2.7c0,6.6-5.4,12-12,12h-7.2c-6.6,0-12-5.4-12-12V250
	C532.3,243.3,537.7,238,544.3,238z"/>
<path class="st0" d="M590,238h7.2c6.6,0,12,5.4,12,12v2.7c0,6.6-5.4,12-12,12H590c-6.6,0-12-5.4-12-12V250
	C578,243.3,583.3,238,590,238z"/>
<path class="st0" d="M334,500.6h13.8c6.6,0,12,5.4,12,12v2.7c0,6.6-5.4,12-12,12H334c-6.6,0-12-5.4-12-12v-2.7
	C322,506,327.3,500.6,334,500.6z"/>
<circle class="st0" cx="221.3" cy="174" r="10.6"/>
<circle class="st0" cx="255.8" cy="191.8" r="10.6"/>
<circle class="st0" cx="290.3" cy="208.5" r="10.6"/>
<circle class="st0" cx="324.8" cy="226.3" r="10.6"/>
<circle class="st0" cx="290.3" cy="244.1" r="10.6"/>
<circle class="st0" cx="255.8" cy="260.8" r="10.6"/>
<circle class="st0" cx="221.3" cy="278.6" r="10.6"/>
<circle class="st0" cx="324.8" cy="259.7" r="10.6"/>
<circle class="st0" cx="324.8" cy="289.7" r="10.6"/>
<circle class="st0" cx="324.8" cy="320.9" r="10.6"/>
<circle class="st0" cx="324.8" cy="350.9" r="10.6"/>
<circle class="st0" cx="324.8" cy="382.1" r="10.6"/>
<circle class="st0" cx="290.3" cy="399.9" r="10.6"/>
<circle class="st0" cx="255.8" cy="416.6" r="10.6"/>
<circle class="st0" cx="221.3" cy="434.4" r="10.6"/>
<path class="st0" d="M170.6,81v438.5c3.3,37.8,36.7,59,59,57.9c20.6,0.6,171.4,0,221.5,0c49-3.3,59-45.6,60.4-58.7
	c0.8-7,0-122.7,0-122.7s-3.6-12.2-15.9-12.2c-13.4,0-16.7,10-17.2,13.9s0.6,96.3,0,118.5c-0.6,22.3-24.5,28.4-28.7,28.7
	s-204.5,0-220.1-0.8c-13.4-1.1-24.5-14.5-25.5-24.6c-3.5-13.2,0-418.3-0.1-436.1c1.1-14.5,14.5-24.5,23.4-25.6c6.7-1.1,30,0,33.4,0
	c-2.2,21.1,14.5,27.8,21.2,28.9c11.1,1.1,91.3,0,113.5,0c22.3-1.1,23.4-18.9,24.5-28.9h33.4c17.8,3.3,23.4,18.9,24.5,23.4
	c2.2,7.8,0,118,0,120.2s2.2,14.5,17.8,15.6c16.7-2.2,16.7-17.8,16.7-17.8s-1.1-106.8-1.1-116.9c0-4.5-4.4-50.1-57.9-59H234.1
	C186.2,23.2,170.6,71,170.6,81z"/>
<path class="st0" d="M33.7,223.5C33,316.2,32.5,384.4,32.6,386c0.1,1.3,0.4,2.5,1,3.6l0,0c0.3,0.7,0.7,1.3,1.2,1.9
	c0.7,0.8,1.4,1.6,2.2,2.2c2.5,1.9,128.2,65.2,133.6,67.9v-37.8L67.1,371.5V254.7l103.5,51.2V268l-83.5-42.3l83.5-41.2v-37.9
	L44.9,209c-6.7,3.3-8.5,7-8.9,7.8C34.8,218.9,34.1,221.2,33.7,223.5z"/>
</svg>
