<svg id="Layer_1" data-name="Layer 1" xmlns="http://www.w3.org/2000/svg" viewBox="0 0 275.74 266.98"><defs><style>.cls-1,.cls-2,.cls-3,.cls-4,.cls-5{fill:#138690;}.cls-1{opacity:0.8;}.cls-3{opacity:0.9;}.cls-4{opacity:0.5;}.cls-5{opacity:0.3;}</style></defs><title>blockchain-logo</title><polygon class="cls-1" points="183.75 62.04 229.36 108 182.38 154.64 136.93 108.34 183.75 62.04"/><path class="cls-2" d="M89.79,62l47.14,46.3L61.87,183.91l-34.38-34a23.94,23.94,0,0,1-3.06-14,23.53,23.53,0,0,1,3.06-9.53Q58.65,94.22,89.79,62Z"/><path class="cls-3" d="M136.93,108.34,212,183.91l-61.62,62a25.84,25.84,0,0,1-27.91,0l-60.6-62Z"/><path class="cls-4" d="M89.79,62l34.38-34a27.61,27.61,0,0,1,25.19,0l34.38,34-46.81,46.3Z"/><path class="cls-5" d="M182.38,154.64,212,183.91l34.38-33.36a31,31,0,0,0,1.36-23.83L229.36,108Z"/></svg>