<svg id="Layer_1" data-name="Layer 1" xmlns="http://www.w3.org/2000/svg" viewBox="0 0 1920 1080"><defs><style>.cls-1{fill:#138690;stroke:#138690;stroke-miterlimit:10;}</style></defs><title>Logo</title><path class="cls-1" d="M1044.5,640.5c20,3,96.63-2.61,125-9,33.25-7.49,81.68-18.1,117-52,25-24,40-47,51-79s10-66,10-66-80-32-225-46c-112-12-154-12-245-8-88,7-124,12-172,22s-133,35-133,35c-.34,19.52,1.61,63.53,29,106,7.05,10.94,21.17,32.36,47,49,11,7.08,22,11.93,38,19,13.18,5.82,25.62,11.31,42,16,12.89,3.69,76,13,92,12s44.16,2.91,58-1c18.54-5.24,26.09-14.17,28-18h0a127.34,127.34,0,0,0,19-20,100.64,100.64,0,0,1,19-19c8-6.09,11.64-6.85,14-7,6.52-.41,11.79,3,17,7a152.43,152.43,0,0,1,24.84,23.8l.16.2C1008,614.81,1024.5,637.5,1044.5,640.5Z"/><path class="cls-1" d="M1378.5,445.5l-12,68s19-4,41-20c4-3,22-21,22-26C1432.5,456.5,1378.5,445.5,1378.5,445.5Z"/><polygon class="cls-1" points="1387.5 315.5 1384.5 414.5 1431.5 433.5 1431.5 346.5 1387.5 315.5"/><path class="cls-1" d="M1357.5,302.5l-5,102s-42-17-83-25c-65.28-12.74-114.74-21.33-162-26a1410.25,1410.25,0,0,0-150-7c-61,.57-107.22,5.17-135,8-25.43,2.59-61.64,6.36-109,15,0,0-56.54,10.31-111,25l-37,10h0l-4-102a447.71,447.71,0,0,1,80-36c24.5-8.22,43.78-12.28,71-18,40.2-8.46,71.66-12.59,83-14,53.85-6.71,93.89-6.91,155-7,59.2-.09,105.7,0,162,7,21.11,2.63,45.84,6.52,68,10,49.65,7.8,63.29,11.05,71,13,18,4.55,39.17,10,65,22A307.85,307.85,0,0,1,1357.5,302.5Z"/><polygon class="cls-1" points="532.5 315.5 535.5 415.5 488.5 433.5 488.5 347.5 532.5 315.5"/><path class="cls-1" d="M491.5,468.5c-.48-1.33,50-21,50-21l15,67s-11,3-40-18C503.5,486.5,495.5,478.5,491.5,468.5Z"/><polygon class="cls-1" points="581.5 752.5 581.5 879.5 606.5 879.5 606.5 822.5 660.5 822.5 660.5 879.5 685.5 879.5 685.5 752.5 660.5 752.5 660.5 800.5 606.5 800.5 606.5 752.5 581.5 752.5"/><rect class="cls-1" x="815.5" y="752.5" width="24" height="127"/><polygon class="cls-1" points="967.5 752.5 967.5 879.5 1043.5 879.5 1043.5 859.5 993.5 859.5 993.5 752.5 967.5 752.5"/><path class="cls-1" d="M1160.5,789.5v93h22v-59s3-17,19-17c16,2,16,15,16,15v61h20v-72s0-18-27-22c-24,1-24,12-28,11-2,0-1-10-1-10Z"/><path class="cls-1" d="M1261.5,804.5a38.61,38.61,0,0,1,11-12,40.34,40.34,0,0,1,24-7c14.93.12,25.59,8,31,12a64.06,64.06,0,0,1,7,6l-11,13c-4.61-4.37-12.39-10.23-23-12-4.6-.77-10.62-1.69-15,2-.31.26-4.69,4.05-4,9,.52,3.76,3.67,6.06,5,7,6.41,4.54,12.3,1.68,24,4a54.73,54.73,0,0,1,10,3,24.38,24.38,0,0,1,11.13,11.13,36.27,36.27,0,0,1,2.88,17.88,27,27,0,0,1-5,12c-4.73,6.29-11,8.59-15,10-7,2.47-12.71,2.25-19,2a72.35,72.35,0,0,1-24-5,68.32,68.32,0,0,1-17-10l12-12c13.09,8.25,24.16,9.73,30,10,5.49.25,13.14.5,16.93-4.49a11,11,0,0,0,2.07-5.51,12.38,12.38,0,0,0-3-7c-.94-1-2.88-2.72-9-4-5.94-1.24-6.87-.21-13-1a46.5,46.5,0,0,1-14-4,30.21,30.21,0,0,1-9-6,26.74,26.74,0,0,1-6-29Z"/><path class="cls-1" d="M797.5,832.5c0-28-20-47-47-46-31,0-40,25-40,25s-5,13-4,25,9,47,45,46C783.5,881.5,799.5,858.5,797.5,832.5Zm-45,30c-18-1-24-14-24-28,0-10,6-28,24-28,22,1,23,19,23,28C775.5,847.5,768.5,863.5,752.5,862.5Z"/><path class="cls-1" d="M946.5,832.5c0-28-20-47-47-46-31,0-40,25-40,25s-5,13-4,25,9,47,45,46C932.5,881.5,948.5,858.5,946.5,832.5Zm-45,30c-18-1-24-14-24-28,0-10,6-28,24-28,22,1,23,19,23,28C924.5,847.5,917.5,863.5,901.5,862.5Z"/><path class="cls-1" d="M1128.5,849.5c-3,0-4,12-27,12-24,0-26-23-26-23s63,1,65,0,7-9-4-29c-13-23-39-22-39-22-26,1-45,22-44,50s20,46,49,45,39-21,39-21S1131.5,849.5,1128.5,849.5Zm-28-46c20,2,20,21,20,21h-42S1079.5,803.5,1100.5,803.5Z"/></svg>