<svg xmlns="http://www.w3.org/2000/svg" xmlns:xlink="http://www.w3.org/1999/xlink" viewBox="0 0 292 292"><defs><style>.cls-1,.cls-28,.cls-46,.cls-6{opacity:0.95;}.cls-1{fill:url(#linear-gradient);}.cls-2{fill:#96bfe6;}.cls-3{opacity:0.98;fill:url(#linear-gradient-2);}.cls-4{fill:#4598e6;}.cls-5{fill:url(#linear-gradient-3);}.cls-6{fill:url(#linear-gradient-4);}.cls-7{fill:#385369;}.cls-8{fill:#eea886;}.cls-9{fill:#434343;}.cls-10{fill:#a77860;}.cls-11{fill:#0e2d3d;}.cls-12{fill:#163342;}.cls-13{fill:#1d3b54;}.cls-14{fill:#285173;}.cls-15{fill:#ffbf55;}.cls-16{fill:#183c59;}.cls-17{fill:#616161;}.cls-18{fill:#e0cec7;}.cls-19{fill:#eea987;}.cls-20{fill:url(#linear-gradient-5);}.cls-21{fill:url(#linear-gradient-6);}.cls-22{fill:url(#linear-gradient-7);}.cls-23{fill:url(#linear-gradient-8);}.cls-24{fill:url(#linear-gradient-9);}.cls-25{fill:#fff;}.cls-26{fill:url(#linear-gradient-10);}.cls-27{fill:url(#linear-gradient-11);}.cls-28{fill:url(#linear-gradient-12);}.cls-29{fill:#344052;}.cls-30{fill:#eb4747;}.cls-31{fill:#393d63;}.cls-32{fill:#decbc4;}.cls-33{fill:#e8734d;}.cls-34{fill:#3c4145;}.cls-35{fill:#51565c;}.cls-36{fill:#f5e2d9;}.cls-37{fill:#d44040;}.cls-38{fill:#2d3133;}.cls-39{fill:#292c47;}.cls-40{fill:#424773;}.cls-41{fill:#3a3f47;}.cls-42{fill:#e2d2ca;}.cls-43{fill:#323657;}.cls-44{fill:#ffdf69;}.cls-45{fill:#ab9546;}.cls-47{fill:url(#linear-gradient-13);}.cls-48{fill:url(#linear-gradient-14);}.cls-49{fill:url(#linear-gradient-15);}.cls-50{fill:url(#linear-gradient-16);}.cls-51{fill:url(#linear-gradient-17);}.cls-52{fill:url(#linear-gradient-18);}.cls-53{fill:url(#linear-gradient-19);}.cls-54{fill:url(#linear-gradient-20);}.cls-55{fill:url(#linear-gradient-21);}.cls-56{fill:url(#linear-gradient-22);}.cls-57{fill:url(#linear-gradient-23);}</style><linearGradient id="linear-gradient" x1="148.957" y1="198.069" x2="143.338" y2="96.229" gradientUnits="userSpaceOnUse"><stop offset="0" stop-color="#d1d7e0"/><stop offset="1" stop-color="#ebebff"/></linearGradient><linearGradient id="linear-gradient-2" x1="240.466" y1="225.957" x2="240.466" y2="121.546" xlink:href="#linear-gradient"/><linearGradient id="linear-gradient-3" x1="4.592" y1="256.125" x2="273.767" y2="256.125" gradientUnits="userSpaceOnUse"><stop offset="0.005" stop-color="#1a2257"/><stop offset="1" stop-color="#5e60f2"/></linearGradient><linearGradient id="linear-gradient-4" x1="143.818" y1="161.481" x2="143.818" y2="85.135" xlink:href="#linear-gradient"/><linearGradient id="linear-gradient-5" x1="-10030.154" y1="205.201" x2="-10012.848" y2="205.201" gradientTransform="matrix(-1, 0, 0, 1, -9964.543, 0)" gradientUnits="userSpaceOnUse"><stop offset="0" stop-color="#3076a1"/><stop offset="1" stop-color="#48c9b6"/></linearGradient><linearGradient id="linear-gradient-6" x1="-10016.708" y1="219.485" x2="-9985.247" y2="219.485" xlink:href="#linear-gradient-5"/><linearGradient id="linear-gradient-7" x1="-10014.019" y1="224.06" x2="-9990.406" y2="224.06" xlink:href="#linear-gradient-5"/><linearGradient id="linear-gradient-8" x1="-10042.562" y1="200.073" x2="-10007.103" y2="200.073" xlink:href="#linear-gradient-5"/><linearGradient id="linear-gradient-9" x1="56.906" y1="238.78" x2="36.261" y2="176.843" gradientTransform="matrix(1, 0, 0, 1, 0, 0)" xlink:href="#linear-gradient-5"/><linearGradient id="linear-gradient-10" x1="40.933" y1="279.23" x2="51.256" y2="234.73" gradientUnits="userSpaceOnUse"><stop offset="0" stop-color="#c9c4c1"/><stop offset="1" stop-color="#fff6de"/></linearGradient><linearGradient id="linear-gradient-11" x1="19.403" y1="244.503" x2="44.78" y2="244.503" gradientTransform="translate(19.534)" xlink:href="#linear-gradient-10"/><linearGradient id="linear-gradient-12" x1="213.006" y1="96.936" x2="213.006" y2="53.929" xlink:href="#linear-gradient"/><linearGradient id="linear-gradient-13" x1="272.572" y1="84.847" x2="277.92" y2="84.847" xlink:href="#linear-gradient"/><linearGradient id="linear-gradient-14" x1="270.656" y1="84.847" x2="272.885" y2="84.847" xlink:href="#linear-gradient"/><linearGradient id="linear-gradient-15" x1="257.212" y1="82.401" x2="274.343" y2="82.401" xlink:href="#linear-gradient"/><linearGradient id="linear-gradient-16" x1="162.074" y1="40.547" x2="169.1" y2="40.547" xlink:href="#linear-gradient"/><linearGradient id="linear-gradient-17" x1="162.074" y1="45.624" x2="169.1" y2="45.624" xlink:href="#linear-gradient"/><linearGradient id="linear-gradient-18" x1="162.074" y1="50.701" x2="169.1" y2="50.701" xlink:href="#linear-gradient"/><linearGradient id="linear-gradient-19" x1="172.001" y1="40.547" x2="174" y2="40.547" xlink:href="#linear-gradient"/><linearGradient id="linear-gradient-20" x1="172.001" y1="45.624" x2="174" y2="45.624" xlink:href="#linear-gradient"/><linearGradient id="linear-gradient-21" x1="172.001" y1="50.701" x2="174" y2="50.701" xlink:href="#linear-gradient"/><linearGradient id="linear-gradient-22" x1="144.165" y1="153.622" x2="153.765" y2="153.622" xlink:href="#linear-gradient"/><linearGradient id="linear-gradient-23" x1="140.726" y1="153.622" x2="144.727" y2="153.622" xlink:href="#linear-gradient"/></defs><title>solution</title><g id="Windows"><rect class="cls-1" x="107.991" y="69.097" width="71.654" height="71.654" rx="5.072"/><rect class="cls-2" x="127.231" y="124.438" width="33.175" height="1.639"/><rect class="cls-2" x="131.929" y="129.602" width="23.777" height="1.639"/><rect class="cls-3" x="191.433" y="93.948" width="98.067" height="115.108" rx="6.555"/><rect class="cls-4" x="235.898" y="161.855" width="7.778" height="1.441"/><rect class="cls-2" x="206.368" y="175.055" width="45.259" height="2.789"/><rect class="cls-2" x="206.368" y="188.445" width="36.599" height="2.789"/><rect class="cls-2" x="206.368" y="181.75" width="21.456" height="2.789"/><path class="cls-4" d="M263.468,105.427v1.409h8.294v7.784h1.408v-9.193Zm-56.321,9.193h1.409v-7.784h8.294v-1.409h-9.7Zm64.615,40.164v7.786h-8.294v1.409h9.7v-9.2Zm-63.206,0h-1.409v9.2h9.7V162.57h-8.294Z"/><path class="cls-4" d="M268.779,191.439a8.295,8.295,0,1,1,8.294-8.294A8.3,8.3,0,0,1,268.779,191.439Zm0-14.984a6.689,6.689,0,1,0,6.689,6.69A6.7,6.7,0,0,0,268.779,176.455Z"/><polygon class="cls-4" points="268.25 186.409 264.482 182.641 265.617 181.506 268.25 184.139 271.941 180.447 273.076 181.583 268.25 186.409"/><path class="cls-5" d="M273.767,256.125c0,3.479-60.257,6.3-134.587,6.3S4.592,259.6,4.592,256.125s60.257-6.3,134.588-6.3S273.767,252.646,273.767,256.125Z"/><rect class="cls-6" x="119.669" y="71.776" width="48.297" height="41.439"/><path class="cls-7" d="M162.266,97a11.886,11.886,0,0,0-7.216-6.742c-.642-.214-1.79-.588-3-.979-2.178-.7-4.558-1.47-4.558-1.47h-7.517s-2.6.873-5.37,1.842l0,0c-2.548.894-5.232,1.868-6.137,2.324-1.89.943-5.069,7.687-5.711,8.46a59.481,59.481,0,0,0-3.257,5.96h8.1c.855-1.47,1.514-2.61,1.514-2.61s.512,1.123,1.134,2.61h25.943c.41-1.726.666-3.9.666-3.9s1.389,1.889,2.906,3.9h7.477A75.207,75.207,0,0,1,162.266,97Z"/><path class="cls-8" d="M144.63,67.156s5.877.926,4.983,10.122-6.083,8.442-6.43,8.433-5.207.168-5.586-11.06C137.6,74.651,137.431,66.348,144.63,67.156Z"/><path class="cls-8" d="M149.7,74.68s.644-.687.88.009-.878,3.8-.918,3.945c0,0-.117.27-.272.121A33.8,33.8,0,0,1,149.7,74.68Z"/><path class="cls-8" d="M137.755,74.564s-.63-.7-.88-.008.795,3.815.842,3.962c0,0,.112.272.269.126A33.555,33.555,0,0,0,137.755,74.564Z"/><path class="cls-9" d="M149.7,76.091l-.842,1.125a22.449,22.449,0,0,0-.111-2.853c-.135-.387-.342-1.568-.455-1.847s-5.047-1.661-9.405.4c0,0,.191,1.773-.227,1.931s-.212,2.889-.212,2.889l-.692-.781s-1.059-7.075-.8-7.813,1.095-5.17,10.037-2.539c0,0,2.788-.59,3.347,1.335S149.7,76.091,149.7,76.091Z"/><path class="cls-8" d="M148.222,87.646c0-.008-.754-.37-.754-.37-.367-.819-.095-4.274-.095-4.274s-7.485-1.905-7.272-.448a18.816,18.816,0,0,1-.645,4.842l-3.84,1.906s4.092,10.987,8.794,9.57,6.479-9.966,6.479-9.966Z"/><path class="cls-10" d="M140.209,84.172a4.439,4.439,0,0,0,3.3,1.557,4.827,4.827,0,0,0,3.737-1.723,3.94,3.94,0,0,1-3.728,2.776S141.245,87.071,140.209,84.172Z"/><path class="cls-11" d="M118.6,121.063s4.319,2.112,3.251,7.86-1.54,6.522-.346,8.767,2.6,11.826,1.529,13.642-13.307-7.98-15-16.2,1.075-11.873,2.055-13.235S114.785,119.128,118.6,121.063Z"/><path class="cls-12" d="M116.968,254.446h.979V249.83a13.123,13.123,0,0,1,3.125,3.049c1.2,1.77,2.861,1.619,5.384,1.506s2.409-1.129,2.183-2.56-2.786-1.882-3.614-2.108-2.709-3.466-3.313-4.254a10.769,10.769,0,0,1-1.261-2.109s-.471-1.92-2.8,0-1.657,5.61-1.393,5.949A41.925,41.925,0,0,1,116.968,254.446Z"/><path class="cls-8" d="M121.9,249.717c.866.565,3.125,0,3.125,0-.64-.828-4.574-6.363-4.574-6.363-2.391-1.393-3.336.524-3.336.524C118.091,244.176,121.034,249.152,121.9,249.717Z"/><path class="cls-8" d="M147.073,164.552s1.567.3,2.1-.437a5.122,5.122,0,0,1,1.817-1.255c.428-.2,1.515-1.3,1.771-.761s-1.705,1.9-2.059,2.267,1.923.53,2.316.888-.091,4.113-1.641,3.821-3.012-1.628-3.295-1.626a9.586,9.586,0,0,1-1.136-.168Z"/><path class="cls-8" d="M152.674,165.1s4.685,1.21,4.93,1.552.164.592-.279.5-4.561-1.039-4.561-1.039,5.3,2.365,5.567,2.6c.153.138.026.632-.216.6s-5.633-2.072-5.633-2.072,4.949,2.217,5.109,2.48a.373.373,0,0,1-.469.514c-.378-.139-5.088-1.937-5.088-1.937s3.5,1.84,3.5,2.142c0,.185-.088.617-.976.114s-3.109-1.47-3.109-1.47Z"/><path class="cls-12" d="M104.285,254.762h.6v-3.389a7.377,7.377,0,0,1,1.561,2.721c.489,1.619,2.241,2.1,4.915,2.024s2.71-1.131,2.484-2.712S111.363,251,111.363,251a42.254,42.254,0,0,1-3.539-4.65,3.526,3.526,0,0,0-2.89.593c-1.27,1.025-.875,3.342-.837,3.944S104.285,254.762,104.285,254.762Z"/><path class="cls-13" d="M106.129,174.045a23.636,23.636,0,0,0-4.049,9.054c-.864,4.913.511,21.4.473,23.831s-2.3,8.471-1.845,13.045,2.235,27.341,2.235,27.341l4.881-.969s-.283-23.21,0-25.13.849-8.918.962-9.709,7.17-21.551,7.17-25.093S113.81,168.266,106.129,174.045Z"/><path class="cls-13" d="M122.13,175.663s5.233,19.973,5.854,22.74,1.521,5.049,1.521,6.224a41.121,41.121,0,0,1-1.013,7.1l-6.645,31.782h-6.329s3.527-19.067,3.621-22.795,2.972-9.043,2.407-10.625-9.092-19.821-9.092-19.821S106,169.866,122.13,175.663Z"/><path class="cls-8" d="M111.363,251l-3.539-4.65-2.89.593a13.125,13.125,0,0,0,2.182,3.647C108.78,252.441,111.363,251,111.363,251Z"/><path class="cls-14" d="M119.969,141.723a6.533,6.533,0,0,1,3.787,1.95,25.008,25.008,0,0,1,3.587,5.464c.427.931,6.412,9.565,6.723,9.759s3.319,1.2,5.312,1.87c3.077,1.035,9.243,3.276,9.243,3.276l-1.225,3.877s-11.595-3.794-14.5-4.509c-3.551-.875-11.725-11.362-11.725-11.362S115.078,144.906,119.969,141.723Z"/><path class="cls-15" d="M116.2,140.209a29.2,29.2,0,0,0,3.766,1.514c.97.194,4.735,5.085,5.4,6.871s0,4.463-1.359,7.607-.077,4.192-.7,7.336-.422,14.906-.305,16.653-18.168,4.394-21.778,1.211c0,0,2.444-10.6,5.337-13.625.626-.655.56-5.015.133-6.1s-5.24-9.2-5.24-9.2-.354-8.228,1.746-9.859c1.825-1.417,6.8-1.922,7.689-2.232A15.253,15.253,0,0,1,116.2,140.209Z"/><path class="cls-8" d="M117.538,136.984s-.084.77-.18,1.81c-.037.411-.078.866-.115,1.331a31.407,31.407,0,0,0-.146,3.656s-2.905,2.91-6.207-3.4a8.668,8.668,0,0,0,.343-6.141C110.187,130.7,117.538,136.984,117.538,136.984Z"/><path class="cls-16" d="M125.666,157.361s.7-4.65-.044-7.477a18.06,18.06,0,0,1-1.333,5.884Z"/><path class="cls-8" d="M108.658,140.831s2,5.9,7.483,5.467,2.6-4.982,2.6-4.982a12.091,12.091,0,0,0-1.752-.858c-.385-.074-6.064-.146-6.064-.146Z"/><path class="cls-14" d="M118.741,141.316a54.061,54.061,0,0,1,2.872,16.045c0,8.1.232,21.291,1.235,25.457s3.857,17.05,3.857,17.05l2.237-1.157s-5.38-20.563-5.786-22.045.309-17.147.695-18.459,2.026-7.149,1.771-8.769c-.322-2.042-2.232-5.063-5.318-7.661Z"/><path class="cls-14" d="M109.742,140.583a82.549,82.549,0,0,1,2.69,13.039c.905,7.322-2.777,41.309-5.246,49.024L97.619,201.1s2.06-24.024,4.855-28.4,3.685-8.24.668-17.364,1.322-13.645,1.322-13.645S108.9,140.678,109.742,140.583Z"/><polygon class="cls-17" points="120.063 164.827 108.464 184.918 95.569 177.473 106.664 157.092 120.063 164.827"/><polygon class="cls-18" points="118.665 165.518 108.363 183.362 96.91 176.75 106.765 158.648 118.665 165.518"/><polygon class="cls-17" points="114.864 163.915 115.587 162.663 110.957 159.99 110.053 161.138 114.864 163.915"/><path class="cls-8" d="M114.312,178.17a2.384,2.384,0,0,1-.759-.109s-.405-.235-.7-.385a2.246,2.246,0,0,0-.235-.1,4.4,4.4,0,0,1-1.293-.547,29.43,29.43,0,0,1-2.329-2.459l.858-1.3.629-1.336a29.519,29.519,0,0,1,4.329.523,1.5,1.5,0,0,1,.143.086,5.573,5.573,0,0,1,.807.826c.073.062.761.735.737,1.022a.939.939,0,0,1-.457.791,2.243,2.243,0,0,1-.481,1.138,1.4,1.4,0,0,1-.672,1.033S114.735,178.066,114.312,178.17Z"/><path class="cls-14" d="M106.451,141.723s-3.522-1.009-5.541,2.873a17.717,17.717,0,0,0-2.278,7.433c-.255,1.789-1.4,6.676-1.521,7.18s-2.721,6.522-1.526,8.625,13.392,8.336,13.314,8.8,2.112-4.7,2.112-4.7a52.2,52.2,0,0,1-5.741-3.6c-1.313-1.375-4.081-2.857-3.512-4.563.668-2,2.675-8.765,3.141-9.755S109.421,142.985,106.451,141.723Z"/><path class="cls-19" d="M117.972,121.7s6.271,1.971,2.866,12.793-11.969-1.254-11.073-7.848S117.972,121.7,117.972,121.7Z"/><path class="cls-11" d="M121.479,128.015a14.145,14.145,0,0,1-8.331,3.44s-2,2.35-2.158,3.272c0,0-4.652-7.931,1.067-12.685S123.582,126.056,121.479,128.015Z"/><path class="cls-19" d="M113.211,131.67c-.04-.787-.525-2.58-1.7-2.078s.072,4.152.848,3.927C112.363,133.519,113.307,133.534,113.211,131.67Z"/><path class="cls-10" d="M117.358,138.794c-.037.411-.078.866-.115,1.331,0,0-2.768-.165-4.618-4.283C112.746,136.022,114.774,139,117.358,138.794Z"/><path class="cls-20" d="M48.688,237.762c4.021-2.828,8.727-22.535,9.008-34.273.144-6.013,1.921-8.518,3.489-10.728,1.5-2.112,2.793-3.937,2.039-8.126-1.441-8.006,2.348-11.462,2.387-11.5l-.439-.5c-.169.148-4.114,3.712-2.6,12.114.7,3.914-.457,5.551-1.927,7.624-1.543,2.174-3.463,4.88-3.612,11.1-.3,12.6-5.113,31.2-8.726,33.745Z"/><path class="cls-21" d="M40.259,232.014c-.379-.86-.772-1.75-1.217-2.689-2.3-4.849-4.331-5.647-7.7-6.97-.824-.324-1.757-.69-2.782-1.15-4.829-2.171-3.894-5.369-3.069-8.191.115-.394.23-.788.33-1.177.425-1.66-.391-2.493-1.626-3.753a14.086,14.086,0,0,1-2.942-3.944c-.964-2.015-.472-3.095.11-3.646,1.225-1.162,4.049-.948,6.716.508a9.716,9.716,0,0,1,2.233,1.923c1.7,1.78,3.816,4,9.168,4.021,3.051.014,4.723.436,5.588,1.408.983,1.1.8,2.757.541,5.044-.088.791-.189,1.688-.25,2.657a15.5,15.5,0,0,0,3.082,9.99c2.038,2.427,4.55,7.463,3.466,10.563a3.712,3.712,0,0,1-3.02,2.431,8.588,8.588,0,0,1-1.7.184C43.44,239.223,42.07,236.119,40.259,232.014Zm-12.5-30.428c-2.382-1.3-4.936-1.563-5.941-.61-.764.724-.4,1.964.033,2.877a13.333,13.333,0,0,0,2.817,3.766c1.292,1.318,2.313,2.36,1.795,4.382-.1.4-.218.8-.336,1.2-.821,2.81-1.6,5.464,2.7,7.4,1.01.454,1.935.817,2.752,1.138,3.4,1.335,5.652,2.217,8.062,7.305.448.946.842,1.84,1.224,2.705,2.08,4.714,3.336,7.56,7.884,6.641a3.087,3.087,0,0,0,2.524-2c.955-2.732-1.33-7.515-3.348-9.917a15.882,15.882,0,0,1-3.236-10.459c.062-.985.164-1.89.253-2.689.237-2.116.409-3.645-.376-4.528-.718-.806-2.29-1.172-5.1-1.185-5.634-.026-7.859-2.355-9.646-4.227a9.117,9.117,0,0,0-2.07-1.8Z"/><path class="cls-22" d="M48.812,243.062l.664-.035c-.033-.624-.871-15.331-6.776-19.635-6.478-4.722-8.521-9.8-9.494-13.2-1.146-4.014-6.98-5.087-7.228-5.13l-.115.654c.056.01,5.672,1.046,6.7,4.658,1,3.5,3.1,8.715,9.741,13.558C47.96,228.049,48.8,242.913,48.812,243.062Z"/><path class="cls-23" d="M47.688,246.37c-1.39-.692-1.339-3.474-1.263-7.686.1-5.321.228-12.609-2.558-19.312-2.959-7.121-.32-9.2,2.233-11.215,2.858-2.255,5.558-4.384.376-14-2.38-4.414-3.135-7.4-2.378-9.4.749-1.973,2.85-2.742,5.075-3.556,3.839-1.405,8.191-3,7.629-11.124-.173-2.491.12-4.023.922-4.821.87-.867,2.153-.773,3.638-.665,2.243.165,4.785.351,7-2.538.23-.722,2.347-7.165,4.879-8.268a1.8,1.8,0,0,1,1.55.008h0c1.748.836,2.762,1.828,3.1,3.032.589,2.094-.945,4.455-2.721,7.19-2.79,4.3-5.954,9.168-2.673,14.964,4.338,7.664,2.047,10.346-1.124,14.058a25,25,0,0,0-5.253,8.468c-1.107,3.162.782,6.177,2.608,9.093,2.291,3.657,4.66,7.438-.328,10.72-8.247,5.426-16.391,23.136-16.472,23.314l-.034.074-.064.05c-1.519,1.191-2.625,1.759-3.458,1.759A1.512,1.512,0,0,1,47.688,246.37Zm20.347-25.6c4.444-2.924,2.445-6.116.129-9.811-1.821-2.907-3.884-6.2-2.672-9.665a25.551,25.551,0,0,1,5.375-8.681c3.107-3.637,5.16-6.04,1.051-13.3-3.479-6.148-.056-11.419,2.695-15.655,1.688-2.6,3.145-4.843,2.638-6.647-.284-1.009-1.183-1.863-2.748-2.612h0a1.143,1.143,0,0,0-1,0c-2.349,1.024-4.506,7.845-4.528,7.913l-.017.056-.035.046c-2.44,3.224-5.308,3.015-7.613,2.846-1.377-.1-2.465-.181-3.12.472s-.884,2.051-.728,4.3c.6,8.625-4.205,10.383-8.064,11.8-2.168.793-4.04,1.478-4.681,3.167-.684,1.8.06,4.613,2.342,8.845,5.447,10.1,2.4,12.507-.55,14.832-2.467,1.945-4.8,3.782-2.031,10.437,2.839,6.832,2.706,14.2,2.609,19.58-.067,3.673-.119,6.574.894,7.078.593.3,1.728-.2,3.373-1.483C52.016,242.858,59.816,226.178,68.035,220.771Z"/><path class="cls-24" d="M34.671,169.176c4.2-1.439,3.325,6.651,5.1,12.636s19.73,2.611,12.193,17.6,9.532,5.012,4.433,18.091-.443,27.068-5.985,23.51-3.114-20.029-8.877-21.986-6.7-4.239-1-9.559-14.953-10.6-9.855-21.346S29.822,170.839,34.671,169.176Z"/><path class="cls-25" d="M48.478,240.152c.528-2.239,5.036-21.943.83-24.324-3.707-2.1-3.616-10.265-3.038-17.975.512-6.825-8.253-10.015-8.627-10.147l-.222.626c.086.031,8.66,3.154,8.186,9.472-.594,7.918-.657,16.32,3.373,18.6,3.193,1.809.253,17.644-1.149,23.594Z"/><polygon class="cls-26" points="64.314 233.136 58.321 255.871 44.93 255.871 38.937 233.136 64.314 233.136"/><path class="cls-27" d="M64.314,233.136s-13.193,2.477-13.193,22.735H44.93l-5.993-22.735Z"/><path class="cls-28" d="M191.154,42.562h43.7a4.471,4.471,0,0,1,4.471,4.471V85.5a4.471,4.471,0,0,1-4.471,4.471h-43.7a4.472,4.472,0,0,1-4.472-4.472V47.033a4.471,4.471,0,0,1,4.471-4.471Z"/><rect class="cls-4" x="210.718" y="81.008" width="4.175" height="0.773"/><path class="cls-29" d="M216.582,38.41s3.364,1.847,2.3,6.389-1.474,5.142-.606,6.978,1.63,9.527.705,10.934-10.31-6.864-11.352-13.48,1.3-9.427,2.137-10.476S213.614,36.723,216.582,38.41Z"/><path class="cls-8" d="M222.9,75.952h-3.6c-.175-1.777-.335-3.013-.3-3.2.052-.3-3.585-9.842-3.924-10.631s-1.675-2.9-1.849-4.9,2.422-2.8,2.422-2.8c3.507.628,4.695,5.48,4.695,5.48s1.473,9.837,2.218,12.606A17.578,17.578,0,0,1,222.9,75.952Z"/><path class="cls-30" d="M221.085,62.281l-5.363,2.261s-4.93-12.234-.8-10.868S220.9,57.6,221.085,62.281Z"/><path class="cls-30" d="M219.892,68.041a51.2,51.2,0,0,0-.655,6.679c.024.191.1.632.223,1.232H206.527c.344-1.228.657-2.315.847-2.947.628-2.083.026-2.641-.291-4.307-.124-.653-.558-1.892-1.032-3.291-.159-.468-.322-.955-.478-1.444a29.739,29.739,0,0,1-1-4.616c-.781-4.975,3.046-5.453,3.046-5.453,1.422-.262,3.906-1.03,3.906-1.03l3.89.81a4.18,4.18,0,0,1,.911.537l0,0a7.041,7.041,0,0,1,.875.767,23.5,23.5,0,0,1,2.116,3.059c.258.421.518.853.763,1.279a7.323,7.323,0,0,1,1.335,3.718C221.406,64.263,220.048,66.826,219.892,68.041Z"/><path class="cls-8" d="M215.419,53.675s2.438,4.166,1.531,4.477-5.683-.741-7.549-4.677A7.221,7.221,0,0,1,215.419,53.675Z"/><path class="cls-8" d="M215.07,55.577s-2.165.916-4.125-2.1c0,0,.527-3.424-.587-5.4s4.868,2.374,4.868,2.374-.1.409-.2,1.012c-.051.308-.1.667-.144,1.048-.034.317-.06.651-.071.983A5.385,5.385,0,0,0,215.07,55.577Z"/><path class="cls-31" d="M209.694,60.243c-.446,2.292-3.643,5.164-3.643,5.164-.158-.468-.321-.954-.478-1.443A20.934,20.934,0,0,0,209.694,60.243Z"/><path class="cls-8" d="M208.892,62.067c-.2.836-1.135,9.3-1.033,9.587.059.165.511,2.122.963,4.3h-4.175a10.234,10.234,0,0,1-.619-3.225c.266-2.854-.7-11.954-.7-11.954s-.867-5.5,3.7-6.191c0,0,2.7.355,2.861,2.347S209.1,61.234,208.892,62.067Z"/><path class="cls-30" d="M202.99,63.236l5.668,1.324s4.5-8.73.447-10.324C204.836,52.556,201.966,58.474,202.99,63.236Z"/><path class="cls-19" d="M216.058,38.894s4.926,1.808,1.8,10.308-9.5-1.451-8.533-6.674S216.058,38.894,216.058,38.894Z"/><path class="cls-29" d="M218.617,44.061a11.291,11.291,0,0,1-6.772,2.429s-.975,2.377-1.133,3.107c0,0-4.122-7.078.617-10.653S220.367,42.578,218.617,44.061Z"/><path class="cls-19" d="M212.408,47c0-.63-.321-2.077-1.274-1.721s-.1,3.313.529,3.163C211.663,48.442,212.414,48.489,212.408,47Z"/><path class="cls-10" d="M214.82,53.343a5.238,5.238,0,0,1-3.238-2.92c1.883,2.432,3.3,2.083,3.3,2.083C214.851,52.823,214.848,53.021,214.82,53.343Z"/><path class="cls-4" d="M225.519,51.142V51.9h4.452v4.179h.756V51.142Zm-30.234,4.935h.756V51.9h4.452v-.756h-5.208Zm34.686,21.561v4.18h-4.452v.756h5.208V77.638Zm-33.93,0h-.756v4.936h5.208v-.756h-4.452Z"/><rect class="cls-4" x="141.029" y="116.432" width="5.577" height="1.033"/><path class="cls-4" d="M160.531,76.54v1.01h5.947v5.581h1.01V76.54Zm-40.383,6.591h1.01V77.55h5.947V76.54h-6.957Zm46.33,28.8v5.584h-5.947v1.01h6.957V111.93Zm-45.32,0h-1.01v6.594h6.957v-1.01h-5.947Z"/><path class="cls-32" d="M268.4,154.139h-4.717c-.086-.189-.156-.353-.214-.485-1.4-3.305-8.613-10.884-8.613-10.884v.017l0,.008v.008l-.012.033c-.005.016-.009.037-.017.062a.142.142,0,0,0-.008.041l-.012.033c-.3,1.1-1.749,6.6-2.476,11.167H220.4c-.074-.423-.16-.826-.259-1.2a26.029,26.029,0,0,1-.616-3.3c0-.053-.012-.1-.016-.156-.025-.193-.045-.386-.062-.575a30.3,30.3,0,0,1-.053-5.284c-.09.193-.735,2.558-1.58,5.477-.464,1.6-.99,3.371-1.511,5.038h-7.538l9.459-27.29c.209-.164,2.665-1.351,4.455-2.2,1.827-.87,4.031-2.147,6.022-3.239,1.019-.558,1.979-1.064,2.813-1.445l.127-.058v0c1.375-.628,2.291-1.043,2.291-1.043h0l.595-.057c1.922-.185,7.883-.743,9.879-.858.164-.013.3-.017.41-.021a1.629,1.629,0,0,1,.2,0,25.244,25.244,0,0,1,3.1,1.06c.061.02.123.045.185.069.078.029.151.058.229.086.14.054.284.107.427.165.288.115.588.23.887.349l.316.123a63.136,63.136,0,0,1,7.813,3.5c.583.415,2.394,3.826,4.492,8.047A235.344,235.344,0,0,1,268.4,154.139Z"/><path class="cls-8" d="M244.972,116.991c-.085,4.291-8.394,6.639-8.394,6.639s-3.475-4.357-2.645-4.774c.326-.164.459-.815.5-1.544a14.963,14.963,0,0,0-.047-1.946c-.024-.3-.048-.5-.048-.5s1.187-1.253,2.7-2.745c2.639-2.609,6.267-5.952,6.273-4.622a1.227,1.227,0,0,1-.031.252C242.638,110.745,244.972,116.991,244.972,116.991Z"/><path class="cls-10" d="M241.772,110.7h0c-.016.025-.368.552-.97,1.309-1.275,1.6-3.673,4.24-6.369,5.3a14.963,14.963,0,0,0-.047-1.946,4.364,4.364,0,0,1-.825-.1,25.58,25.58,0,0,1,1.806-2.645l1.668-.5Z"/><path class="cls-8" d="M243.367,107.559c-.719,1.563-1.4,2.7-1.595,3.145h0a5.552,5.552,0,0,1-.97,1.309c-1.369,1.475-3.914,3.42-6.416,3.352a4.364,4.364,0,0,1-.825-.1,3.925,3.925,0,0,1-2.859-1.975c-5.184-10.148-1.431-18.446-1.431-18.446s14.172-4.008,16.39.258C247.216,98.1,245.055,103.885,243.367,107.559Z"/><path class="cls-33" d="M229.27,94.846s-1.316-.073-1.642-2.569c-.321-2.465.329-3.148.329-3.148s5.851-2.45,7.952-2.768,7.267-.624,8.478.76c0,0,2.943-.683,3.744,4.2C249.4,99.071,243.8,106.6,243.8,106.6s.048-5.063-1.069-5.734-2.08.925-2.08.925l-2.284.409s3.469-7.49-.692-7.767S231.652,95.28,229.27,94.846Z"/><path class="cls-8" d="M240.712,99.769c.217-2.231,4.25-3.082,3.98-.744s-2.256,4.583-3.174,4.5S240.546,101.469,240.712,99.769Z"/><path class="cls-34" d="M264.32,131.529c-1.314-4.208-2.452-7.538-2.956-7.9-.883-.632-7.879-2.558-11.2-3.859l-.316-.123c-.3-.119-.6-.234-.887-.349-.143-.058-.287-.111-.427-.165-.078-.028-.151-.057-.229-.086-.062-.024-.124-.049-.185-.069a.053.053,0,0,1-.017.016,54.448,54.448,0,0,0-3.666,4.689c-3.432,4.877-7.9,12.78-7.217,20.076.221,2.34.492,5.7.948,9.476.033.3.07.6.111.9h15.486a83.058,83.058,0,0,1,1.035-11.167l.012-.033a.142.142,0,0,1,.008-.041c0-.021.012-.041.017-.062l.012-.033v-.008l0-.008s3.748,5.859,3.941,11.352h9.747A129.3,129.3,0,0,0,264.32,131.529Z"/><path class="cls-34" d="M231.581,120.009a116.375,116.375,0,0,0-2.68,13.61v0c-.054.325-.1.657-.156,1,0,.037-.013.078-.017.119-.037.222-.07.451-.1.681,0,.029-.008.054-.012.083-.024.151-.049.307-.07.467-.057.382-.115.777-.172,1.175-.567,3.966-1.322,10.268-2.09,16.993H220.16a28.462,28.462,0,0,1-.62-4.734.493.493,0,0,0-.029.078c-.488,1.355-1.026,2.829-1.572,4.262-.05.131-.1.262-.148.394H207.24l10.51-27.5c.209-.165,2.915-1.622,4.705-2.472,1.868-.891,4.229-1.987,6.323-2.952,1-.464,1.941-.895,2.738-1.26Z"/><path class="cls-35" d="M245.816,129.624l-4.044,2.283,1.728,1.761-3.793,20.471h-1.429c-.526-4.139-.826-7.854-1.059-10.379-1.056-11.282,10.2-24.006,10.9-24.781.542.2,1.125.431,1.728.669Z"/><path class="cls-35" d="M231.643,119.9s-1.511,4.931-3.268,17.244c-.566,3.962-1.326,10.268-2.094,16.993h-.595L224.9,134.8l1.925-2.085-1.712-2.139,3.663-9.353c1-.464,1.941-.895,2.738-1.26Z"/><path class="cls-36" d="M248.323,119.027l-3.351-2.036s-.094,1.838-8.394,6.639l2.357,6.638Z"/><path class="cls-36" d="M234.371,117.917s.13,1.984,2.207,5.713l-4.6,6-.336-9.725Z"/><path class="cls-37" d="M236.591,123.63s.891,3.566.571,4.564a4.354,4.354,0,0,1-3.37-.179A15.652,15.652,0,0,1,236.591,123.63Z"/><path class="cls-37" d="M235.511,135.754a89.6,89.6,0,0,0-.592,18.385H230.99c-.053-.776-.1-1.585-.152-2.431a63.368,63.368,0,0,1,3.753-24.013l2-.5S235.946,132.8,235.511,135.754Z"/><path class="cls-38" d="M219.667,143.657c-.15,3.043-.128,5.745-.128,5.745v0c0,.015,0,.1-.01.233-.007-.052-.013-.1-.019-.153-.487,1.355-1.027,2.827-1.571,4.261a45.786,45.786,0,0,1-.122-4.643c.218-8.532,2.9-13.007,2.9-13.007C220.1,137.582,219.808,140.773,219.667,143.657Z"/><polygon class="cls-39" points="182.942 154.175 170.389 161.076 157.782 141.237 173.029 135.941 182.942 154.175"/><polygon class="cls-25" points="182.146 153.579 170.406 160.032 158.617 141.48 172.876 136.526 182.146 153.579"/><path class="cls-8" d="M186.446,150.11s-2.185-1.045-3.144-1.592-3.427-1.3-3.626-1.474-7.313-.617-7.745-.989-.851.873.993,1.276,4.41,1.392,4.55,2.112-1.894.892-2.1,1.485.058.461.35.588,2.419-1.051,3.355-.717,2.366-.128,3.083.117,4.2,1.419,4.2,1.419Z"/><path class="cls-8" d="M169.777,158.586s-1.836-1.652-2.724-2.343-2.555-2.724-2.8-2.842-3.429-6.652-3.948-6.913.491-1.142,1.59.438,3.028,3.614,3.762,3.465.1-2.131.581-2.557.457-.124.69.1-.048,2.689.631,3.441.8,2.28,1.311,2.86,2.974,3.41,2.974,3.41Z"/><path class="cls-40" d="M209.309,246.89s.4,2.756.446,3.17,4.418-.244,4.418-.244l.353-3.281S209.855,246.5,209.309,246.89Z"/><path class="cls-39" d="M209.709,249.71a11.78,11.78,0,0,1-2.722,2.384c-1.339.724-3.442,1.011-4.233,1.76-.571.541-2.081,2.87,3.478,2.823s8.238.329,8.834-.564-.862-6.59-.862-6.59A11.763,11.763,0,0,1,209.709,249.71Z"/><path class="cls-40" d="M178.015,246.89s.4,2.756.447,3.17,4.417-.244,4.417-.244l.353-3.281S178.561,246.5,178.015,246.89Z"/><path class="cls-39" d="M178.415,249.71a11.756,11.756,0,0,1-2.722,2.384c-1.338.724-6.263,1.319-7.055,2.068-.571.541-1.521,2.718,6.3,2.515,5.557-.145,8.239.329,8.834-.564s-.862-6.59-.862-6.59S181.67,250.029,178.415,249.71Z"/><path class="cls-39" d="M205.692,176.071s4.1,6.52,3.8,12.414,1.488,12.328,2.1,18.485c.687,6.864,3.5,23.113,3.6,26.784s-.437,15.4-.437,15.4l-5.63.129s-4.728-28.407-5.953-31.306-7.3-23.563-7.5-25.881S205.692,176.071,205.692,176.071Z"/><path class="cls-39" d="M184.089,176.954s-3.093,16.154-3.5,19.761-.68,17.457-.884,19.711-1.361,29.5-2.45,32.852h7.2s5.525-19.808,5.525-29.18,4.269-20.374,7.024-26.558,9.063-6.33,10.756-17.8C207.757,175.737,186.382,173.316,184.089,176.954Z"/><path class="cls-8" d="M198.844,121.254s-5.508-2.058-8.048,2.135-2.295,12.588.481,13.62,6.948.492,8.369-2.131,2.705-6.417,2.643-8.952S200.29,121.986,198.844,121.254Z"/><path class="cls-8" d="M191.875,137.2a4.759,4.759,0,0,1-.149,2.22c-.379.732,7.136.751,7.136.751a49.479,49.479,0,0,1,1.767-7.351C201.785,129.454,191.875,137.2,191.875,137.2Z"/><path class="cls-41" d="M200.629,132.821s-.519.855-2.636.523-4.7-3.148-5.584-3.458-.893-.828-.893-.828l-.553.808-.939.06s.856-2.52-.436-3.548,1.341-8.156,8.131-5.782c0,0,5.215,1.437,5.026,4.4S201.8,131.344,200.629,132.821Z"/><path class="cls-42" d="M191.28,139.333s.023-1.4.658-1.534,7-.747,7.782-.441v1.631S198.219,139.912,191.28,139.333Z"/><path class="cls-8" d="M191.656,127.979c.119-.5,1.384-1.919,1.869-.4s-.732,3.57-1.411,3.4S191.355,129.24,191.656,127.979Z"/><path class="cls-43" d="M166,155.871a.016.016,0,0,1,.01,0C165.97,155.889,165.964,155.891,166,155.871Z"/><path class="cls-44" d="M210.322,191.6a58.315,58.315,0,0,1-9.139,1.629c-5.76.635-20.153-.229-20.244-.91s3.1-25.341,2.915-26.611-.279-5.795-.279-5.795a31.874,31.874,0,0,1-2.859,9.065c-.551,1-2.4,4.124-3.29,3.413-4.311-3.443-10.988-16.416-11.412-16.525.356-.155,3.165-1.448,3.559-1.579.345-.115,3.456,3.178,5.34,5.22.841.91,1.437,1.571,1.437,1.571.545-1.224,2.527-8.939,3.143-11.609,1.39-6.021,1.176-6.271,1.176-6.271,4.214-1.275,10.611-3.87,10.611-3.87l8.44-.343s7.746,1.7,10.8,3.083c.289.13.291,6.91,1.085,8.688l-2.529,5.336s-1.461,10.57-1.765,15.271C207.169,173.525,210.322,191.6,210.322,191.6Z"/><path class="cls-44" d="M211.952,159.563a3.333,3.333,0,0,1-1.871,1.575,2.421,2.421,0,0,1-1.351.136l-.331-.061h0l-5.784-1.072s-1.265-14.576,7.9-18.068C210.76,142.151,213.977,153.037,211.952,159.563Z"/><path class="cls-45" d="M210.081,161.137h0a2.421,2.421,0,0,1-1.351.136l-.331-.061h0l.571-7.448Z"/><path class="cls-45" d="M176.35,161.082l-.707,2.994a23.669,23.669,0,0,1-.73-4.565C175.754,160.421,176.35,161.082,176.35,161.082Z"/><path class="cls-41" d="M200.413,121.749s7.219-.9.122,11.154Z"/><polygon class="cls-39" points="163.585 140.172 162.851 138.912 168.631 136.918 169.365 138.172 163.585 140.172"/><g class="cls-46"><polygon class="cls-47" points="273.825 86.147 277.92 86.147 276.667 83.548 272.572 83.548 273.825 86.147"/><polygon class="cls-48" points="271.909 86.147 272.885 86.147 271.632 83.548 270.656 83.548 271.909 86.147"/><polygon class="cls-49" points="257.762 83.051 274.343 83.051 273.792 81.751 257.212 81.751 257.762 83.051"/></g><rect class="cls-50" x="162.074" y="39.488" width="7.026" height="2.117" rx="0.383"/><rect class="cls-51" x="162.074" y="44.565" width="7.026" height="2.117" rx="0.383"/><rect class="cls-52" x="162.074" y="49.643" width="7.026" height="2.118" rx="0.383"/><rect class="cls-53" x="172.001" y="39.488" width="1.999" height="2.117" rx="0.383"/><rect class="cls-54" x="172.001" y="44.565" width="1.999" height="2.117" rx="0.383"/><rect class="cls-55" x="172.001" y="49.643" width="1.999" height="2.118" rx="0.383"/><polygon class="cls-56" points="146.415 155.955 153.765 155.955 151.516 151.289 144.165 151.289 146.415 155.955"/><polygon class="cls-57" points="142.976 155.955 144.727 155.955 142.478 151.289 140.726 151.289 142.976 155.955"/></g></svg>