<svg xmlns="http://www.w3.org/2000/svg" viewBox="0 0 292 292"><defs><style>.cls-1{fill:#ab4d4d;}.cls-2{fill:#8c4040;}.cls-3{fill:#fff;}.cls-4{fill:#424242;}.cls-5{fill:#454545;}.cls-6{fill:#282828;}.cls-7{fill:#171717;}.cls-8{fill:gray;}.cls-9{fill:#666;}.cls-10{fill:#fbb040;}.cls-11{fill:#2e2e2e;}.cls-12{fill:#a86f23;}.cls-13{fill:#4c668c;}.cls-14{fill:#b07c2c;}.cls-15{fill:#f5cb95;}.cls-16{fill:#9c805f;}.cls-17{fill:#ebebeb;}.cls-18{fill:#9e9e9e;}.cls-19{fill:#9c8469;}.cls-20{fill:#bdbdbd;}.cls-21{fill:#333;}.cls-22{fill:#999;}.cls-23{fill:#525252;}.cls-24{fill:#d1ad7f;}.cls-25{fill:#e0e0e0;}.cls-26{fill:#b0b0b0;}.cls-27{fill:#bfbcd3;}.cls-28{fill:#d1d1d1;}.cls-29{fill:#db9e4c;}.cls-30{fill:#7b7b9e;}.cls-31{fill:#424254;}.cls-32{fill:#7d7da1;}.cls-33{fill:#34495e;}.cls-34{fill:#e5e5e5;}.cls-35{fill:#81848c;}.cls-36{fill:#c3a868;}.cls-37{fill:#786646;}.cls-38{fill:#3d3421;}.cls-39{fill:#d65753;}.cls-40{fill:#bd8779;}.cls-41{fill:#dbbc63;}.cls-42{fill:#374452;}.cls-43{fill:#3f4e5e;}.cls-44{fill:#262626;}.cls-45{fill:#ffb7a4;}.cls-46{fill:#bd914f;}.cls-47{fill:#878787;}.cls-48{fill:#ccc;}.cls-49{fill:#e0ac19;}.cls-50{fill:#797979;}.cls-51{fill:#4f4f4f;}.cls-52{fill:#b04343;}.cls-53{fill:#789fd6;}</style></defs><title>solution</title><g id="Windows"><circle class="cls-1" cx="150.699" cy="165.248" r="83.555" transform="translate(-35.957 288.442) rotate(-81.062)"/><path class="cls-2" d="M221.6,105.919a6.093,6.093,0,1,0-6.092-6.093A6.093,6.093,0,0,0,221.6,105.919Z"/><circle class="cls-2" cx="206.724" cy="94.314" r="3.191"/><path class="cls-2" d="M225.178,151.076a12.987,12.987,0,0,0-11.508,6.971,11.925,11.925,0,0,0-5.278-5.057,3.387,3.387,0,1,0-4.285-1.164c-.3-.023-.606-.046-.915-.046a11.818,11.818,0,0,0-6.091,1.692c.02-.562.043-1.124.043-1.692a45.824,45.824,0,0,0-2.377-14.573,16.817,16.817,0,1,0,2.067-33.5,16.723,16.723,0,0,0-7.05,1.565,12.676,12.676,0,0,0-24.2,2.912,45.884,45.884,0,0,0-40.406,5.835,27.465,27.465,0,0,0-44.4-4.491A15.091,15.091,0,1,0,68.43,136.732,22.5,22.5,0,1,0,104.1,159.324,9.756,9.756,0,0,0,106.278,161,45.63,45.63,0,0,0,113.4,177.74a17.993,17.993,0,1,0,6.65,28.941,5.967,5.967,0,0,0,7.42-2.674,11.223,11.223,0,0,0,11.874,6.548,14.778,14.778,0,0,0,24.4,8.7,14.783,14.783,0,0,0,19.466-17.119,14.861,14.861,0,0,0,4.343-3.365,22.164,22.164,0,0,0,38.383-21.745,12.987,12.987,0,0,0-.759-25.952Z"/><circle class="cls-2" cx="247.546" cy="181.904" r="6.91"/><path class="cls-2" d="M232.368,203.991a3.047,3.047,0,1,0,3.046,3.047A3.047,3.047,0,0,0,232.368,203.991Z"/><path class="cls-2" d="M126.675,105.919a7.4,7.4,0,1,0-7.4-7.4A7.4,7.4,0,0,0,126.675,105.919Z"/><path class="cls-2" d="M147.1,86.482a4.787,4.787,0,1,0-4.787-4.787A4.787,4.787,0,0,0,147.1,86.482Z"/><path class="cls-2" d="M72.792,185.072a6.825,6.825,0,1,0,6.824,6.825A6.825,6.825,0,0,0,72.792,185.072Z"/><path class="cls-2" d="M106.872,225.186a9.087,9.087,0,1,0,9.086,9.086A9.087,9.087,0,0,0,106.872,225.186Z"/><path class="cls-2" d="M72.656,97.506a5.512,5.512,0,1,0-5.512-5.512A5.512,5.512,0,0,0,72.656,97.506Z"/><path class="cls-2" d="M48.226,118.711a3.132,3.132,0,1,0,3.132,3.131A3.131,3.131,0,0,0,48.226,118.711Z"/><path class="cls-3" d="M156.856,199.1a.392.392,0,0,1-.29-.471h0a10.886,10.886,0,0,0,.309-2.485h0a7.774,7.774,0,0,0-.239-1.955h0a.388.388,0,0,1,.28-.473h0a.388.388,0,0,1,.475.276h0a8.415,8.415,0,0,1,.263,2.152h0a11.7,11.7,0,0,1-.327,2.666h0a.393.393,0,0,1-.38.3h0a.4.4,0,0,1-.091-.011Zm-2.587-8.57a13.114,13.114,0,0,0-3.946-2.205h0a.391.391,0,0,1-.23-.5h0a.394.394,0,0,1,.5-.232h0a13.894,13.894,0,0,1,4.178,2.342h0a.388.388,0,0,1,.045.55h0a.385.385,0,0,1-.3.139h0a.388.388,0,0,1-.253-.094Zm-32.041-3.564a.389.389,0,0,1,.333-.439h0c1.235-.159,2.836-.347,4.672-.509h0a.389.389,0,0,1,.423.353h0a.391.391,0,0,1-.354.423h0c-1.823.163-3.414.347-4.639.509h0a.253.253,0,0,1-.047,0h0a.388.388,0,0,1-.388-.34Zm23.643.175a44.56,44.56,0,0,0-4.6-.579h0a.389.389,0,0,1-.36-.417h0a.388.388,0,0,1,.417-.36h0a45.554,45.554,0,0,1,4.684.589h0a.388.388,0,0,1,.315.452h0a.391.391,0,0,1-.385.321h0a.331.331,0,0,1-.07-.006Zm-14.32-1.037a.385.385,0,0,1,.369-.408h0c1.352-.063,2.756-.1,4.185-.1h0c.171,0,.343,0,.515,0h0a.389.389,0,0,1,.384.4h0a.386.386,0,0,1-.391.384H136.1c-1.413,0-2.807.035-4.147.1h-.018a.388.388,0,0,1-.389-.372Zm-10.873-.233a.385.385,0,0,1-.141-.531h0a32.1,32.1,0,0,1,2.712-3.888h0a.391.391,0,0,1,.55-.061h0a.4.4,0,0,1,.058.55h0a31.8,31.8,0,0,0-2.648,3.794h0a.387.387,0,0,1-.334.191h0a.37.37,0,0,1-.2-.055Zm5.753-7.356a.388.388,0,0,1,.009-.551h0a41.548,41.548,0,0,1,3.577-3.084h0a.393.393,0,0,1,.548.073h0a.392.392,0,0,1-.074.548h0a40.717,40.717,0,0,0-3.51,3.023h0a.39.39,0,0,1-.271.109h0a.386.386,0,0,1-.279-.118Zm7.354-5.761a.386.386,0,0,1,.13-.534h0a46.144,46.144,0,0,1,4.153-2.234h0a.391.391,0,0,1,.519.185h0a.389.389,0,0,1-.185.518h0a45.975,45.975,0,0,0-4.083,2.2h0a.394.394,0,0,1-.2.057h0a.386.386,0,0,1-.332-.188Zm55.958-3.86c-.387-.095-.773-.187-1.154-.279h0a.392.392,0,0,1-.29-.472h0a.386.386,0,0,1,.471-.286h0c.194.045.388.091.584.139h0a18.371,18.371,0,0,0-.711-2.729h0a.389.389,0,0,1,.238-.5h0a.392.392,0,0,1,.5.241h0a19.258,19.258,0,0,1,.846,3.446h0l.086.579-.567-.143Zm-47.557-.219a.389.389,0,0,1,.232-.5h0c1.419-.512,2.915-.983,4.5-1.4h0a.389.389,0,0,1,.477.277h0a.393.393,0,0,1-.28.477h0c-1.556.414-3.033.879-4.427,1.384h0v0a.391.391,0,0,1-.134.024h0a.385.385,0,0,1-.365-.256Zm41.849-1.069q-2.349-.477-4.589-.841h0a.39.39,0,0,1-.322-.448h0a.389.389,0,0,1,.446-.322h0q2.257.369,4.618.844h0a.39.39,0,0,1,.305.461h0a.39.39,0,0,1-.383.313h0a.381.381,0,0,1-.075-.007Zm-32.843-1.4a.389.389,0,0,1,.314-.455h0c1.49-.267,3.039-.494,4.656-.666h0a.391.391,0,0,1,.43.344h0a.389.389,0,0,1-.348.43h0c-1.6.171-3.128.395-4.6.659h0v0a.4.4,0,0,1-.069.006h0a.392.392,0,0,1-.385-.321Zm23.637-.093q-2.382-.282-4.64-.439h0a.391.391,0,0,1-.36-.417h0a.387.387,0,0,1,.414-.362h0q2.277.162,4.678.445h0a.392.392,0,0,1,.343.433h0a.393.393,0,0,1-.388.344h0a.373.373,0,0,1-.047,0Zm-14.352-.967a.387.387,0,0,1,.372-.407h0q1.586-.063,3.247-.064h0c.479,0,.964,0,1.453.013h0a.392.392,0,0,1,.385.394h0a.4.4,0,0,1-.4.386h0c-.487-.01-.965-.013-1.441-.013h0q-1.644,0-3.215.064h-.017a.386.386,0,0,1-.387-.373Zm26.04-3.882a14.634,14.634,0,0,0-3.265-3.144h0a.392.392,0,0,1-.095-.545h0a.391.391,0,0,1,.543-.092h0a15.431,15.431,0,0,1,3.441,3.313h0v0a.391.391,0,0,1-.077.547h0a.388.388,0,0,1-.234.079h0a.393.393,0,0,1-.313-.155Zm-7.3-5.3a28.876,28.876,0,0,0-4.409-1.343h0a.39.39,0,0,1-.3-.467h0a.387.387,0,0,1,.465-.294h0a29.748,29.748,0,0,1,4.532,1.378h0a.39.39,0,0,1,.216.507h0a.391.391,0,0,1-.363.247h0a.392.392,0,0,1-.144-.028ZM128.171,154.6a.39.39,0,0,1-.346-.43h0a.389.389,0,0,1,.429-.344h0a45.832,45.832,0,0,0,4.634.223h0a.389.389,0,0,1,.388.392h0a.39.39,0,0,1-.391.388h0a45.922,45.922,0,0,1-4.714-.229Zm9.006-.255a.388.388,0,0,1,.369-.407h0c1.506-.067,3.065-.159,4.665-.267h0a.393.393,0,0,1,.417.366h0a.391.391,0,0,1-.363.413h0c-1.606.105-3.172.2-4.68.268h-.019a.389.389,0,0,1-.389-.373Zm9.343-.582a.386.386,0,0,1,.36-.413h0c1.54-.109,3.1-.218,4.674-.316h0a.39.39,0,0,1,.414.366h0a.4.4,0,0,1-.366.414h0c-1.569.095-3.128.2-4.668.312h-.024a.388.388,0,0,1-.39-.363Zm23.711.1c-1.5-.175-3.052-.286-4.64-.353h0a.392.392,0,0,1-.373-.408h0a.392.392,0,0,1,.408-.372h0c1.6.067,3.17.181,4.694.356h0a.4.4,0,0,1,.343.433h0a.394.394,0,0,1-.391.346h0l-.041,0Zm-46.715-.293a6.26,6.26,0,0,1-3.675-3.163h0a.386.386,0,0,1,.194-.512h0a.39.39,0,0,1,.515.194h0a5.479,5.479,0,0,0,3.249,2.752h0a.391.391,0,0,1,.22.507h0a.389.389,0,0,1-.363.248h0a.381.381,0,0,1-.14-.026Zm32.347-.382a.391.391,0,0,1,.372-.407h0c1.572-.064,3.141-.108,4.694-.121h0a.386.386,0,0,1,.391.385h0a.389.389,0,0,1-.385.4h0c-1.543.013-3.1.057-4.665.121h-.017a.391.391,0,0,1-.39-.373Z"/><path class="cls-3" d="M118.15,116.844a35.625,35.625,0,0,1-.607-4.687h0a.39.39,0,0,1,.368-.412h0a.39.39,0,0,1,.411.368h0a35.2,35.2,0,0,0,.594,4.585h0v0a.39.39,0,0,1-.31.455h0a.423.423,0,0,1-.07.006h0a.393.393,0,0,1-.386-.319Zm-.063-8.966a.393.393,0,0,1-.313-.456h0a11.293,11.293,0,0,1,1.746-4.44h0a.392.392,0,0,1,.544-.1h0a.39.39,0,0,1,.1.543h0a10.525,10.525,0,0,0-1.622,4.137h0a.4.4,0,0,1-.387.323h0a.42.42,0,0,1-.069-.006Zm4.855-7.553a.391.391,0,0,1,.148-.534h0a20.058,20.058,0,0,1,4.426-1.75h0a.393.393,0,0,1,.483.269h0a.39.39,0,0,1-.272.481h0a19.439,19.439,0,0,0-4.253,1.68h0a.4.4,0,0,1-.192.051h0a.391.391,0,0,1-.34-.2Zm8.862-2.9a.393.393,0,0,1,.3-.465h0c1.534-.323,3.068-.649,4.541-1.056h0a.392.392,0,0,1,.481.272h0a.392.392,0,0,1-.275.481h0c-1.5.414-3.053.743-4.586,1.068h0a.362.362,0,0,1-.08.008h0a.392.392,0,0,1-.382-.308Zm8.973-2.606a.385.385,0,0,1,.167-.525h0a11.694,11.694,0,0,0,3.552-2.733h0a.388.388,0,0,1,.551-.041h0a.392.392,0,0,1,.04.551h0a12.506,12.506,0,0,1-3.785,2.915h0a.388.388,0,0,1-.179.044h0a.39.39,0,0,1-.346-.211Zm6.126-6.673a.387.387,0,0,1-.25-.491h0a17.884,17.884,0,0,0,.787-4.475h0a.39.39,0,0,1,.412-.367h0a.389.389,0,0,1,.366.412h0a18.326,18.326,0,0,1-.825,4.671h0a.394.394,0,0,1-.371.269h0a.375.375,0,0,1-.119-.019Z"/><path class="cls-3" d="M185.282,138.947a24.6,24.6,0,0,1-4.462-.407h0a.39.39,0,0,1-.312-.454h0a.386.386,0,0,1,.454-.312h0a23.847,23.847,0,0,0,4.32.392h.26a.4.4,0,0,1,.4.387h0a.4.4,0,0,1-.389.394h-.266Zm4.525-.813a.39.39,0,0,1,.3-.461h0a23.553,23.553,0,0,0,4.386-1.37h0a.387.387,0,0,1,.511.207h0a.388.388,0,0,1-.206.508h0a23.937,23.937,0,0,1-4.532,1.417h0a.363.363,0,0,1-.08.009h0a.393.393,0,0,1-.381-.31Zm-13.548-.91a24.312,24.312,0,0,1-4.217-2.18h0a.389.389,0,0,1-.115-.54h0a.392.392,0,0,1,.541-.115h0a23.377,23.377,0,0,0,4.081,2.111h0a.389.389,0,0,1,.218.5h0a.391.391,0,0,1-.365.247h0a.379.379,0,0,1-.143-.028Zm22.164-2.58a.392.392,0,0,1,.1-.543h0a23.77,23.77,0,0,0,3.534-2.94h0a.39.39,0,0,1,.55,0h0a.391.391,0,0,1,0,.553h0a24.637,24.637,0,0,1-3.649,3.035h0a.389.389,0,0,1-.22.069h0a.393.393,0,0,1-.323-.171Zm-30.1-2.556a24.573,24.573,0,0,1-3.073-3.616h0a.388.388,0,0,1,.1-.54h0a.391.391,0,0,1,.544.095h0a23.709,23.709,0,0,0,2.977,3.5h0a.386.386,0,0,1,.01.55h0a.384.384,0,0,1-.28.119h0a.392.392,0,0,1-.273-.11Zm36.746-3.953a.386.386,0,0,1-.112-.537h0a23.265,23.265,0,0,0,2.155-4.058h0a.388.388,0,0,1,.509-.214h0a.389.389,0,0,1,.209.509h0a24.34,24.34,0,0,1-2.224,4.192h0a.389.389,0,0,1-.324.175h0a.382.382,0,0,1-.216-.067Zm-42.139-3.8a24.183,24.183,0,0,1-1.468-4.516h0a.391.391,0,0,1,.3-.464h0a.39.39,0,0,1,.464.3h0a23.417,23.417,0,0,0,1.421,4.366h0v0a.388.388,0,0,1-.2.512h0a.4.4,0,0,1-.158.033h0a.388.388,0,0,1-.357-.233Zm45.813-4.735a.387.387,0,0,1-.306-.458h0a23.736,23.736,0,0,0,.442-4.574h0c0-.346-.006-.7-.022-1.038h0a.387.387,0,0,1,.372-.407h0a.388.388,0,0,1,.406.371h0c.016.356.023.716.023,1.074h0a24.671,24.671,0,0,1-.454,4.726h0a.392.392,0,0,1-.385.313h0a.488.488,0,0,1-.076-.007Zm-47.84-4.5c0-.177-.007-.355-.007-.537h0a24.605,24.605,0,0,1,.359-4.191h0a.392.392,0,0,1,.451-.321h0a.394.394,0,0,1,.319.451h0a23.627,23.627,0,0,0-.35,4.061h0c0,.176,0,.35.006.522h0a.39.39,0,0,1-.381.4H161.3a.389.389,0,0,1-.39-.385Zm47.309-6.126a23.382,23.382,0,0,0-1.516-4.336h0a.386.386,0,0,1,.191-.518h0a.39.39,0,0,1,.518.191h0a24.176,24.176,0,0,1,1.566,4.478h0a.39.39,0,0,1-.285.473h0a.377.377,0,0,1-.093.012h0a.393.393,0,0,1-.381-.3ZM162.749,106.3a.387.387,0,0,1-.226-.5h0a24.151,24.151,0,0,1,2.136-4.243h0a.386.386,0,0,1,.537-.12h0a.389.389,0,0,1,.12.537h0a23.447,23.447,0,0,0-2.065,4.106h0a.389.389,0,0,1-.361.25h0a.389.389,0,0,1-.141-.028Zm41.617-5.619a23.689,23.689,0,0,0-3.054-3.435h0v0a.392.392,0,0,1-.019-.553h0a.387.387,0,0,1,.55-.022h0A24.353,24.353,0,0,1,205,100.219h0a.394.394,0,0,1-.082.547h0a.4.4,0,0,1-.231.074h0a.388.388,0,0,1-.316-.161Zm-36.78-2.32a.394.394,0,0,1-.016-.553h0a24.628,24.628,0,0,1,3.585-3.114h0a.385.385,0,0,1,.543.092h0a.391.391,0,0,1-.092.543h0a23.5,23.5,0,0,0-3.467,3.016h0a.394.394,0,0,1-.285.122h0a.392.392,0,0,1-.268-.106Zm30.068-3.9a23.418,23.418,0,0,0-4.128-2.018h0a.394.394,0,0,1-.23-.5h0a.389.389,0,0,1,.5-.229h0a24.348,24.348,0,0,1,4.265,2.085h0a.389.389,0,0,1,.127.537h0a.389.389,0,0,1-.332.186h0a.388.388,0,0,1-.205-.059Zm-22.581-1.621a.39.39,0,0,1,.2-.515h0a24.256,24.256,0,0,1,4.5-1.519h0a.391.391,0,0,1,.468.293h0a.392.392,0,0,1-.293.47h0a23.311,23.311,0,0,0-4.35,1.468h0a.408.408,0,0,1-.159.033h0a.393.393,0,0,1-.36-.23Zm14.013-1.573a23.852,23.852,0,0,0-3.8-.305h0c-.264,0-.525,0-.782.013h0a.392.392,0,0,1-.4-.379h0a.389.389,0,0,1,.378-.4h0c.268-.01.537-.016.808-.016h0a24.19,24.19,0,0,1,3.927.318h0a.393.393,0,0,1,.325.448h0a.391.391,0,0,1-.385.326h0a.446.446,0,0,1-.063,0Z"/><polygon class="cls-3" points="111.621 191.521 116.947 183.844 121.347 191.521 111.621 191.521"/><polygon class="cls-3" points="197.591 172.956 188.634 171.713 193.81 164.535 197.591 172.956"/><polygon class="cls-3" points="118.793 148.051 127.113 150.035 121.491 156.869 118.793 148.051"/><polygon class="cls-3" points="137.932 81.611 147.658 74.275 157.092 81.694 137.932 81.611"/><path class="cls-4" d="M70.272,138.877l6.656-1.462a1.235,1.235,0,0,0,.981-1.441L76.8,130.92a1.235,1.235,0,0,0-1.5-.9l-6.656,1.462a1.235,1.235,0,0,0-.98,1.442l1.111,5.054A1.232,1.232,0,0,0,70.272,138.877Z"/><polygon class="cls-5" points="109.374 143.829 107.565 144.227 102.86 131.442 106.479 130.647 109.374 143.829"/><polygon class="cls-6" points="108.96 148.796 95.598 151.731 93.767 143.394 106.249 140.652 108.96 148.796"/><polygon class="cls-6" points="83.824 154.317 72.211 156.869 71.457 153.434 82.191 151.076 83.824 154.317"/><path class="cls-7" d="M97,151.948a5.847,5.847,0,1,0,4.454-6.966A5.845,5.845,0,0,0,97,151.948Z"/><path class="cls-8" d="M98.777,151.557a4.028,4.028,0,1,0,3.066-4.8A4.025,4.025,0,0,0,98.777,151.557Z"/><path class="cls-9" d="M100.131,151.26a2.64,2.64,0,1,0,2.009-3.146A2.639,2.639,0,0,0,100.131,151.26Z"/><path class="cls-10" d="M70.2,155.488l-4.057-13.641a4.276,4.276,0,0,1,3.181-5.4l2.548-.56a4.277,4.277,0,0,0,3.259-5.094l-.643-2.928,2.7-.593-1.12-8.772a4.275,4.275,0,0,1,3.311-4.808l9.5-2.087a4.276,4.276,0,0,1,4.82,2.429l6.724,13.641,3.684.038,3.334,15.171c.189.865-.825-.433-1.688-.232l-8.022,1.861a1.62,1.62,0,0,0-1.2,1.184l-1.41,5.915c-.149.6-.167.956-.768,1.088l-11.859,2.6L81,152.5,74.4,153.884l-1.076,3.442A2.658,2.658,0,0,1,70.2,155.488Z"/><path class="cls-4" d="M72.625,158.753l1.107-5.124a.623.623,0,0,1,.477-.483L80.8,151.7a.625.625,0,0,1,.642.248l2.449,4.747-.679.149a.624.624,0,0,1-.657-.27L81,153.226a.625.625,0,0,0-.664-.268l-5.394,1.229a.628.628,0,0,0-.474.493l-.668,3.426a.621.621,0,0,1-.478.494Z"/><path class="cls-4" d="M94,152.986l1.86-8.563a.924.924,0,0,1,.708-.719l9.784-2.149a.931.931,0,0,1,.956.368l3.638,7.052-1.01.222a.922.922,0,0,1-.974-.4l-2.3-4.972a.929.929,0,0,0-.987-.4l-8.014,1.825a.931.931,0,0,0-.705.732l-1.208,6.042a.922.922,0,0,1-.709.733Z"/><polygon class="cls-11" points="138.474 140.696 110.057 146.938 102.901 114.356 104.638 113.975 111.667 145.577 137.69 139.933 138.474 140.696"/><path class="cls-7" d="M74.358,158.787a4.036,4.036,0,1,0,3.073-4.807A4.033,4.033,0,0,0,74.358,158.787Z"/><path class="cls-8" d="M75.585,158.518a2.78,2.78,0,1,0,2.116-3.311A2.778,2.778,0,0,0,75.585,158.518Z"/><path class="cls-9" d="M76.519,158.312a1.822,1.822,0,1,0,1.387-2.171A1.823,1.823,0,0,0,76.519,158.312Z"/><path class="cls-12" d="M98.037,142.771l-9.359,2.055a1.124,1.124,0,0,1-1.211-.527l-6.118-15.317c-.35-.594-2.009-9.327-2.545-12.177a.937.937,0,0,1,.721-1.087l10.268-2.255a.492.492,0,0,1,.556.267c.981,2.047,5.913,12.349,6.014,12.81l2.531,14.891A1.125,1.125,0,0,1,98.037,142.771Z"/><path class="cls-13" d="M80.884,116.958l8.056-1.77a.969.969,0,0,1,1.042.454l4.63,10.291a.968.968,0,0,1-.743,1.456l-10.6.993a.967.967,0,0,1-1.036-.755l-2.09-9.516A.968.968,0,0,1,80.884,116.958Z"/><path class="cls-13" d="M95.974,135.314l-9.955,1.148a.446.446,0,0,1-.48-.21l-2.207-5.072a.446.446,0,0,1,.343-.671l11.109-.869a.445.445,0,0,1,.477.348l1.053,4.794A.447.447,0,0,1,95.974,135.314Z"/><path class="cls-11" d="M72.375,153.445l-3.474.413a.764.764,0,0,1-.861-.508l-.7-2.087a.761.761,0,0,1,.56-.986l3.63-.8a.764.764,0,0,1,.909.581l.543,2.471A.764.764,0,0,1,72.375,153.445Z"/><polygon class="cls-14" points="85.502 142.597 67.542 146.542 66.51 143.073 84.06 139.218 85.502 142.597"/><polygon class="cls-14" points="106.377 138.012 99.9 139.435 99.447 135.838 105.602 134.486 106.377 138.012"/><path class="cls-4" d="M88.747,138.028l-2.274.5a.5.5,0,0,1-.6-.356l-.031-.142a.5.5,0,0,1,.4-.576l2.274-.5a.5.5,0,0,1,.6.357l.031.141A.5.5,0,0,1,88.747,138.028Z"/><path class="cls-15" d="M132.148,141.1l-18.719,4.111a.566.566,0,0,1-.677-.431l-3.882-17.67a.569.569,0,0,1,.434-.676l18.719-4.112a.567.567,0,0,1,.676.433l3.881,17.669A.568.568,0,0,1,132.148,141.1Z"/><rect class="cls-16" x="117.727" y="124.282" width="3.1" height="5.84" transform="translate(-24.506 28.543) rotate(-12.385)"/><path class="cls-17" d="M112.536,127.6h4.316a.749.749,0,0,1,.749.749V138.3a.748.748,0,0,1-.748.748h-4.317a.747.747,0,0,1-.747-.747v-9.953a.748.748,0,0,1,.748-.748Z" transform="translate(-25.938 27.719) rotate(-12.392)"/><rect class="cls-18" x="111.383" y="128.412" width="4.423" height="1" transform="translate(-25.018 27.381) rotate(-12.392)"/><rect class="cls-18" x="112.231" y="129.815" width="3.166" height="6.057" transform="translate(-25.858 27.521) rotate(-12.393)"/><rect class="cls-19" x="121.617" y="137.017" width="8.219" height="0.66" transform="translate(-26.538 30.17) rotate(-12.388)"/><rect class="cls-19" x="122.098" y="139.203" width="8.218" height="0.66" transform="translate(-26.998 30.327) rotate(-12.389)"/><rect class="cls-19" x="122.342" y="140.318" width="8.219" height="0.659" transform="translate(-27.239 30.417) rotate(-12.393)"/><rect class="cls-19" x="121.91" y="138.572" width="4.11" height="0.66" transform="translate(-26.924 29.844) rotate(-12.394)"/><path class="cls-15" d="M112.845,113.688h10.611a.315.315,0,0,1,.315.315v10.016a.314.314,0,0,1-.314.314H112.845a.314.314,0,0,1-.314-.314V114a.314.314,0,0,1,.314-.314Z" transform="translate(-22.783 28.121) rotate(-12.389)"/><rect class="cls-16" x="116.491" y="113.761" width="1.716" height="3.233" transform="translate(-22 27.83) rotate(-12.375)"/><rect class="cls-19" x="118.644" y="120.813" width="4.551" height="0.365" transform="translate(-23.145 28.763) rotate(-12.39)"/><rect class="cls-19" x="118.91" y="122.023" width="4.551" height="0.365" transform="translate(-23.398 28.848) rotate(-12.39)"/><rect class="cls-19" x="119.046" y="122.64" width="4.551" height="0.365" transform="translate(-23.528 28.892) rotate(-12.39)"/><rect class="cls-19" x="118.806" y="121.674" width="2.275" height="0.365" transform="translate(-23.352 28.574) rotate(-12.39)"/><path class="cls-20" d="M233.878,164.922c-2.1-.2-6.795-.722-8.7-.935-.476-.054-.866.1-.91.363l-5.318,31.888c-.047.279.329.572.838.658l.019,0c.509.086.96-.072,1.007-.349l5.014-30.061c.1-.583.959-.949,2.029-.86l6.081.5c.457.037.825-.118.867-.367l.028-.167C234.88,165.29,234.436,164.974,233.878,164.922Z"/><path class="cls-21" d="M226.517,165.3c.017.413.1.75.514.785l6.832.581a.844.844,0,0,0,.885-.653l.063-.271a.84.84,0,0,0-.734-1.027c-1.611-.158-4.886-.566-6.9-.821-.506-.065-.7.343-.682.853Z"/><path class="cls-20" d="M187.965,193.9l33.793,5.637.475-2.846-33.811-5.64A1.443,1.443,0,1,0,187.965,193.9Z"/><path class="cls-15" d="M214.92,194.762l2.352-13.937a.716.716,0,0,0-.586-.823l-20.817-3.509a.715.715,0,0,0-.822.585l-2.44,13.958a.716.716,0,0,0,.587.826l20.9,3.485A.712.712,0,0,0,214.92,194.762Z"/><rect class="cls-19" x="208.347" y="182.327" width="0.851" height="10.665" transform="translate(-10.68 362.709) rotate(-80.53)"/><rect class="cls-19" x="208.122" y="183.679" width="0.85" height="10.665" transform="translate(-12.203 363.616) rotate(-80.53)"/><rect class="cls-19" x="209.837" y="187.323" width="0.85" height="6.73" transform="translate(-12.405 366.731) rotate(-80.535)"/><rect class="cls-19" x="207.67" y="186.384" width="0.851" height="10.665" transform="translate(-15.249 365.429) rotate(-80.529)"/><rect class="cls-16" x="201.993" y="179.942" width="7.056" height="3.453" transform="translate(-7.453 354.54) rotate(-80.541)"/><path class="cls-21" d="M224.37,195.985a6.6,6.6,0,1,0-1.537,9.21A6.6,6.6,0,0,0,224.37,195.985Z"/><path class="cls-22" d="M222.808,197.1a4.683,4.683,0,1,0-1.09,6.533A4.683,4.683,0,0,0,222.808,197.1Z"/><path class="cls-23" d="M220.049,198.852a1.4,1.4,0,1,0-.326,1.947A1.4,1.4,0,0,0,220.049,198.852Z"/><path class="cls-24" d="M220.216,180.152l2.149-12.172a.425.425,0,0,0-.347-.489l-12.343-2.08a.423.423,0,0,0-.488.347l-2.2,12.186a.425.425,0,0,0,.348.489l12.4,2.068A.423.423,0,0,0,220.216,180.152Z"/><polygon class="cls-25" points="213.012 178.268 219.25 179.309 219.732 176.213 213.495 175.172 213.012 178.268"/><polygon class="cls-26" points="213.636 177.457 218.85 178.327 219.107 176.612 213.894 175.742 213.636 177.457"/><rect class="cls-16" x="213.305" y="167.456" width="4.184" height="2.048" transform="translate(13.801 353.251) rotate(-80.538)"/><path class="cls-15" d="M206.679,178.118l1.268-7.181a.251.251,0,0,0-.206-.288l-7.281-1.228a.249.249,0,0,0-.287.205l-1.3,7.189a.248.248,0,0,0,.205.288l7.311,1.221A.251.251,0,0,0,206.679,178.118Z"/><rect class="cls-16" x="202.603" y="170.628" width="2.468" height="1.208" transform="translate(1.399 344.114) rotate(-80.529)"/><path class="cls-27" d="M178.512,97.755h1.149a.468.468,0,0,1,.468.468v2.353a.468.468,0,0,1-.468.468h-1.151a.469.469,0,0,1-.469-.469v-2.35a.47.47,0,0,1,.47-.47Z" transform="translate(-25.048 82.63) rotate(-24.336)"/><path class="cls-27" d="M176.33,99.71l4.932-2.231a.648.648,0,0,0,.323-.856l-.38-.836a.646.646,0,0,0-.856-.323l-4.932,2.23a.648.648,0,0,0-.323.857l.38.837A.647.647,0,0,0,176.33,99.71Z"/><path class="cls-27" d="M171.714,120.792a15.535,15.535,0,1,0,7.751-20.557A15.535,15.535,0,0,0,171.714,120.792Z"/><path class="cls-28" d="M175.188,119.219a11.721,11.721,0,1,0,5.849-15.51A11.721,11.721,0,0,0,175.188,119.219Z"/><path class="cls-29" d="M181.037,103.709l4.83,10.679-10.679,4.831a16.516,16.516,0,0,1-.817-6.7,12.42,12.42,0,0,1,2.966-6.173A29.919,29.919,0,0,1,181.037,103.709Z"/><path class="cls-30" d="M174.5,119.53a12.473,12.473,0,1,1,16.506,6.222A12.484,12.484,0,0,1,174.5,119.53Zm1.371-.62a10.968,10.968,0,1,0,5.471-14.516A10.981,10.981,0,0,0,175.874,118.91Z"/><path class="cls-31" d="M184.321,115.088a1.7,1.7,0,1,0,.847-2.246A1.7,1.7,0,0,0,184.321,115.088Z"/><path class="cls-31" d="M182.564,106.307l-.585.265a.506.506,0,0,0-.253.67l3.178,7.026a.506.506,0,0,0,.672.252l.585-.264a.5.5,0,0,0,.251-.67l-3.179-7.027A.506.506,0,0,0,182.564,106.307Z"/><path class="cls-31" d="M176.008,115.782H186.48a.569.569,0,0,1,.569.569v.14a.57.57,0,0,1-.57.57H176.009a.568.568,0,0,1-.568-.568v-.144a.567.567,0,0,1,.567-.567Z" transform="translate(-31.904 85.256) rotate(-24.396)"/><path class="cls-32" d="M185.334,114.631a.586.586,0,1,0,.292-.777A.586.586,0,0,0,185.334,114.631Z"/><path class="cls-33" d="M114.079,204.8,99.308,210.19a1.4,1.4,0,0,1-1.786-.832l-6.385-17.51a1.392,1.392,0,0,1,.831-1.786l14.77-5.386a1.393,1.393,0,0,1,1.786.831l6.385,17.511A1.392,1.392,0,0,1,114.079,204.8Z"/><rect class="cls-34" x="94.694" y="187.304" width="16.045" height="18.576" transform="translate(-61.142 47.095) rotate(-20.038)"/><path class="cls-35" d="M101.406,186.768l-4.072,1.485-.391-1.071a.828.828,0,0,1,.493-1.06l2.519-.919a.828.828,0,0,1,1.06.494Zm-3.755.8,3.075-1.122-.209-.572a.3.3,0,0,0-.379-.176l-2.521.918a.3.3,0,0,0-.175.38Z"/><path class="cls-35" d="M101.5,187.791l-3.575,1.3c-.424.156-.845.067-.94-.195l-.208-.567c-.1-.263.171-.6.594-.757l3.574-1.3c.425-.156.846-.068.942.2l.206.567C102.187,187.3,101.92,187.636,101.5,187.791Z"/><rect class="cls-36" x="97.459" y="204.151" width="9.781" height="1.151" transform="translate(-63.924 47.432) rotate(-20.028)"/><rect class="cls-36" x="110.334" y="200.77" width="2.573" height="1.151" transform="matrix(0.94, -0.342, 0.342, 0.94, -62.169, 50.361)"/><rect class="cls-37" x="107.342" y="201.848" width="2.652" height="1.15" transform="translate(-62.778 49.485) rotate(-20.037)"/><rect class="cls-26" x="93.536" y="189.433" width="13.83" height="1.99" transform="translate(-59.154 45.931) rotate(-20.033)"/><rect class="cls-26" x="99.625" y="191.01" width="8.723" height="3.317" transform="translate(-59.709 47.279) rotate(-20.033)"/><rect class="cls-26" x="100.989" y="194.75" width="8.723" height="3.316" transform="translate(-60.919 47.985) rotate(-20.037)"/><rect class="cls-26" x="102.352" y="198.488" width="8.722" height="3.317" transform="translate(-62.093 48.651) rotate(-20.028)"/><path class="cls-38" d="M97.709,193.475l.955,2.617-2.846,1.038-.956-2.617,2.847-1.038Zm.159-.34-3.346,1.219,1.137,3.117L99,196.251l-1.135-3.116Z"/><path class="cls-38" d="M99.073,197.215l.954,2.616-2.846,1.038-.954-2.617,2.846-1.037Zm.158-.341-3.345,1.22,1.136,3.115,3.345-1.219-1.136-3.116Z"/><path class="cls-38" d="M100.436,200.953l.954,2.618-2.846,1.037-.954-2.617,2.846-1.038Zm.158-.34-3.344,1.22,1.136,3.115,3.344-1.219-1.136-3.116Z"/><polygon class="cls-39" points="96.88 202.461 98.971 203.164 102.697 200.023 99.236 204.18 96.88 202.461"/><rect class="cls-40" x="151.282" y="232.379" width="11.706" height="16.796"/><path class="cls-41" d="M151.282,241.647l4.924,6.049a1.106,1.106,0,0,0,1.655.012l5.127-6c.252-.282,23.354,3.543,23.789,7.843,0,0,4.533,5.865,4.576,18.482L122.834,268c-.141-11.956,4.691-18.833,4.691-18.833,1.3-4.147,22.74-7.489,22.74-7.489C150.642,241.617,151.035,241.359,151.282,241.647Z"/><rect class="cls-42" x="141.069" y="261.171" width="31.377" height="6.848"/><polygon class="cls-43" points="170.64 268.027 176.614 268.03 176.625 243.953 170.652 242.686 170.64 268.027"/><polygon class="cls-43" points="143.813 268.013 137.841 268.01 137.852 243.936 143.824 242.674 143.813 268.013"/><path class="cls-44" d="M173.651,213.868c2.521,4.76-3.129,21.347-7.044,21.345l-18.805-.008c-3.886,0-10.644-17.745-7.178-21.245,4.32-2.931,15.122-6.6,15.122-6.6S170.4,211.049,173.651,213.868Z"/><path class="cls-45" d="M171.609,223.487a4.649,4.649,0,0,0,1.879-9.044C171.261,213.982,169.38,223.023,171.609,223.487Z"/><path class="cls-45" d="M142.94,223.475a4.649,4.649,0,0,1-1.871-9.045C143.3,213.969,145.17,223.012,142.94,223.475Z"/><path class="cls-45" d="M157.156,240.017c-18.461-.009-15.5-31.68-15.5-31.68s.764-10.379,15.116-10.373c12.509.006,15.586,10.644,15.586,10.644S175.745,240.024,157.156,240.017Z"/><path class="cls-3" d="M135.318,262.876l11.476.04a1.516,1.516,0,0,0,1.618-1.387l.015-5.438a1.509,1.509,0,0,0-1.606-1.4l-11.475-.041a1.514,1.514,0,0,0-1.614,1.389l-.019,5.437A1.512,1.512,0,0,0,135.318,262.876Z"/><rect class="cls-46" x="143.691" y="258.232" width="3.815" height="2.827" transform="translate(-114.512 404.412) rotate(-89.817)"/><rect class="cls-47" x="140.543" y="250.56" width="1.081" height="11.88" transform="matrix(0.003, -1, 1, 0.003, -115.858, 396.778)"/><path class="cls-44" d="M174.356,214.743c-1.508-.338-3.126,2.54-3.126,2.54l-.617-10.982s-17.839,3.31-20.795-3.514c-4.9-1.95-5.87,3.467-5.87,3.467s-1.318,12.012-1.266,11.548c-.789-3.09-2.986-2.777-2.986-2.777S135,192.987,157.052,193,174.394,214.119,174.356,214.743Z"/><path class="cls-44" d="M157.21,227.968c-.269,3.1,9.714,2.7,9.714,2.7S157.483,224.865,157.21,227.968Z"/><path class="cls-44" d="M157.072,227.968c.267,3.1-9.716,2.693-9.716,2.693S156.8,224.865,157.072,227.968Z"/><path class="cls-48" d="M130.059,42.233h35.2a1.333,1.333,0,0,1,1.333,1.333V72.04a1.333,1.333,0,0,1-1.333,1.333h-35.2a1.334,1.334,0,0,1-1.334-1.334V43.565A1.333,1.333,0,0,1,130.059,42.233Z"/><rect class="cls-49" x="128.727" y="66.608" width="37.868" height="6.765" rx="1.42"/><path class="cls-44" d="M154.726,58.5H139.733a.678.678,0,0,0-.716.633V72.642a.678.678,0,0,0,.716.632h14.993a.677.677,0,0,0,.715-.632V59.128A.677.677,0,0,0,154.726,58.5Z"/><path class="cls-50" d="M155.441,64.083V59.128a.677.677,0,0,0-.715-.633H139.733a.678.678,0,0,0-.716.633v4.955Z"/><rect class="cls-51" x="137.932" y="71.971" width="18.593" height="1.402"/><rect class="cls-52" x="139.017" y="59.652" width="16.424" height="2.651"/><rect class="cls-9" x="132.29" y="49.231" width="29.613" height="4.337" rx="0.49"/><path class="cls-53" d="M133.127,49.748h3.636a.333.333,0,0,1,.333.333v2.656a.332.332,0,0,1-.332.332h-3.637a.333.333,0,0,1-.333-.333V50.08A.333.333,0,0,1,133.127,49.748Z"/><path class="cls-53" d="M137.994,49.748h3.636a.332.332,0,0,1,.332.332v2.657a.332.332,0,0,1-.332.332h-3.636a.333.333,0,0,1-.333-.333V50.08A.333.333,0,0,1,137.994,49.748Z"/><path class="cls-53" d="M142.846,49.739h3.636a.333.333,0,0,1,.333.333v2.657a.332.332,0,0,1-.332.332h-3.637a.333.333,0,0,1-.333-.333V50.072A.333.333,0,0,1,142.846,49.739Z"/><path class="cls-53" d="M147.713,49.739h3.636a.333.333,0,0,1,.333.333v2.657a.332.332,0,0,1-.332.332h-3.638a.332.332,0,0,1-.332-.332V50.072A.333.333,0,0,1,147.713,49.739Z"/><path class="cls-53" d="M152.535,49.739h3.636a.333.333,0,0,1,.333.333v2.657a.332.332,0,0,1-.332.332h-3.637a.333.333,0,0,1-.333-.333V50.072A.333.333,0,0,1,152.535,49.739Z"/><path class="cls-53" d="M157.4,49.739h3.636a.333.333,0,0,1,.333.333v2.657a.332.332,0,0,1-.332.332H157.4a.333.333,0,0,1-.333-.333V50.072A.333.333,0,0,1,157.4,49.739Z"/><rect class="cls-9" x="126.655" y="29.595" width="42.304" height="14.325" rx="2.364"/><path class="cls-15" d="M142.741,67.271h4.664a.139.139,0,0,1,.139.139v4.4a.139.139,0,0,1-.139.139h-4.664a.138.138,0,0,1-.138-.138v-4.4A.138.138,0,0,1,142.741,67.271Z"/><rect class="cls-16" x="144.695" y="67.265" width="0.754" height="1.421"/><rect class="cls-17" x="142.956" y="67.797" width="1.414" height="1.315" rx="0.182"/><rect class="cls-18" x="143.094" y="67.964" width="1.076" height="0.244"/><rect class="cls-18" x="143.094" y="68.295" width="0.771" height="0.286"/><rect class="cls-19" x="145.075" y="70.644" width="2" height="0.161"/><rect class="cls-19" x="145.075" y="71.188" width="2" height="0.161"/><rect class="cls-19" x="145.075" y="71.466" width="2" height="0.16"/><rect class="cls-19" x="145.075" y="70.921" width="1" height="0.161"/><path class="cls-15" d="M147.815,68.295h3.664a.109.109,0,0,1,.109.109v3.459a.108.108,0,0,1-.108.108h-3.665a.108.108,0,0,1-.108-.108V68.4A.108.108,0,0,1,147.815,68.295Z"/><rect class="cls-16" x="149.354" y="68.295" width="0.593" height="1.117"/><rect class="cls-19" x="148.079" y="71.165" width="1.571" height="0.127"/><rect class="cls-19" x="148.079" y="70.955" width="0.786" height="0.127"/><rect class="cls-15" x="143.865" y="64.675" width="2.735" height="2.59" rx="0.076"/><rect class="cls-16" x="145.022" y="64.672" width="0.417" height="0.787"/><rect class="cls-19" x="145.232" y="66.542" width="1.108" height="0.089"/><rect class="cls-19" x="145.232" y="66.843" width="1.108" height="0.089"/><rect class="cls-19" x="145.232" y="66.997" width="1.108" height="0.089"/><rect class="cls-19" x="145.232" y="66.695" width="0.554" height="0.089"/><path class="cls-1" d="M81.088,43.228l1.065-1.309a.4.4,0,0,1,.558.023c.374.317,1.036.818,1.673,1.378l-2.067,1.3c-.44-.332-.826-.641-1.092-.847A.4.4,0,0,1,81.088,43.228Z"/><path class="cls-1" d="M84.753,40.711,85.818,39.4a.4.4,0,0,1,.558.022c.4.342,1.138.9,1.818,1.508l-2.052,1.286c-.506-.375-.955-.734-1.251-.965A.4.4,0,0,1,84.753,40.711Z"/><path class="cls-1" d="M79.945,46.746l14-8.776a.574.574,0,0,1,.709.013l1.78,1.444a.575.575,0,0,1,.044.852L85.394,51.424Z"/><path class="cls-1" d="M72.878,53.371,71.814,54.68a.4.4,0,0,0,.136.542c.387.3,1.014.847,1.693,1.356l.845-2.289c-.414-.363-.8-.678-1.051-.9A.4.4,0,0,0,72.878,53.371Z"/><path class="cls-1" d="M71.164,57.473,70.1,58.782a.4.4,0,0,0,.135.543c.418.324,1.111.931,1.848,1.471l.84-2.272c-.47-.419-.915-.785-1.2-1.028A.4.4,0,0,0,71.164,57.473Z"/><path class="cls-1" d="M76.069,51.517l-5.724,15.5a.575.575,0,0,0,.157.692l1.779,1.445a.575.575,0,0,0,.843-.13l8.639-13.129Z"/><path class="cls-1" d="M91.863,58.025l5.473-2.109a.4.4,0,0,1,.383.106l1.162.945c.173.14.24.332.146.413l-4.518,3.93Z"/><path class="cls-1" d="M89.552,60.871l-.945,5.788a.4.4,0,0,0,.183.353l1.162.945c.173.14.375.166.435.058l2.921-5.227Z"/><path class="cls-1" d="M67.891,40.918s-1.3,3.269,3.884,7.483c19.577,15.9,24.195,15.33,24.195,15.33s-.446-4.689-20.023-20.594C70.763,38.923,67.891,40.918,67.891,40.918Zm2.83.078.412.793a3.939,3.939,0,0,0-.953.055,2.638,2.638,0,0,0-.8.269,2.7,2.7,0,0,0-.087.839,4.026,4.026,0,0,0,.148.945l-.863-.239a4.594,4.594,0,0,1-.167-1.045,2.966,2.966,0,0,1,.132-1.089l.023-.066.058-.036a2.929,2.929,0,0,1,1.036-.371A4.476,4.476,0,0,1,70.721,41Z"/><path class="cls-1" d="M256.669,236.719l-1.833.825a.651.651,0,0,1-.856-.339l-3.184-7.076a.652.652,0,0,1,.314-.867l1.832-.824a.653.653,0,0,1,.858.339l3.184,7.076A.651.651,0,0,1,256.669,236.719Z"/><path class="cls-1" d="M251.81,231.258l-4.414-9.809a.812.812,0,0,0-1.072-.407l-17.87,8.042a.811.811,0,0,0-.407,1.072l6.584,14.632a.811.811,0,0,0,1.073.406l17.87-8.041a.811.811,0,0,0,.407-1.072l-1.25-2.776-17.094,7.614,1.654-3.126Z"/><path class="cls-1" d="M264.559,226.085l-.008,0c-3.152,1.352-4.041.719-4.132.643-.793-.4-2.447-3.057-2.626-3.454a1.208,1.208,0,0,1-.091-.265.3.3,0,0,1,.162-.362c.026-.016,1.058-.585,1.879-.955.749-.337,1.045-.393,1.2-.218l3.95,3.307a.874.874,0,0,1,.191.721.9.9,0,0,1-.522.577Zm-3.828.275s.783.5,3.622-.715c.107-.054.236-.142.263-.253a.413.413,0,0,0-.094-.3l-3.861-3.224a3.6,3.6,0,0,0-.719.268c-.639.288-1.435.714-1.737.877a14.852,14.852,0,0,0,2.353,3.271l.056-.025.117.1Z"/><path class="cls-1" d="M269.922,232.984l-3.549,1.578a.51.51,0,0,1-.69-.159l-.672-1.51a.511.511,0,0,1,.344-.618L268.9,230.7a.51.51,0,0,1,.69.159l.672,1.511A.512.512,0,0,1,269.922,232.984Z"/><path class="cls-1" d="M267.75,229.772a.166.166,0,0,1-.1.157l-2.729,1.228a.329.329,0,0,1-.435-.165l-.323-1.13a.329.329,0,0,1,.165-.435l2.5-1.125a.161.161,0,0,1,.182.045l-1.655-3.189c-.124-.284-.328-.414-.572-.3l-3.042,1.384c-.378.179-.6.292-.778.246-.229-.06-.37-.333-.551-.554l-1.336-1.624c-.579-.7-1.528-1.451.509-2.137l1.394-.611a.463.463,0,0,0-.612-.232l-7.415,3.337a1.981,1.981,0,0,0-.994,2.619l3.468,7.708a1.258,1.258,0,0,0,1.66.631l5.775-2.585a.714.714,0,0,1,.839.195l1.574,1.9a.713.713,0,0,0,.84.194l2.409-1.084a1.3,1.3,0,0,0,.619-1.782ZM259.4,227.19l-3.391,1.527a.624.624,0,0,1-.824-.313l-1.3-2.9a.623.623,0,0,1,.312-.823l2.767-1.246a.624.624,0,0,1,.757.2l1.928,2.616A.62.62,0,0,1,259.4,227.19Z"/><path class="cls-1" d="M261.19,234.263a2.944,2.944,0,1,0,3.893,1.477A2.945,2.945,0,0,0,261.19,234.263Zm2.04,4.534a2.028,2.028,0,1,1,1.017-2.681A2.028,2.028,0,0,1,263.23,238.8Z"/><path class="cls-1" d="M263.61,236.4a1.329,1.329,0,1,1-1.757-.667A1.328,1.328,0,0,1,263.61,236.4Z"/><path class="cls-1" d="M241.6,242.528l-4.16,1.872a.549.549,0,0,0-.275.725l.656,1.457a.548.548,0,0,0,.725.276l3.008-1.354.017-2.806A.567.567,0,0,1,241.6,242.528Z"/><path class="cls-1" d="M258.87,234.762h-.008l-12.882,5.8a.56.56,0,0,1,.155.1l1.684,2.031,11.008-4.954.017-2.806A.564.564,0,0,1,258.87,234.762Z"/><path class="cls-1" d="M243.922,242.033a2.944,2.944,0,1,0,3.892,1.477A2.946,2.946,0,0,0,243.922,242.033Zm2.04,4.535a2.028,2.028,0,1,1,1.017-2.682A2.029,2.029,0,0,1,245.962,246.568Z"/><path class="cls-1" d="M246.342,244.172a1.33,1.33,0,1,1-1.758-.666A1.33,1.33,0,0,1,246.342,244.172Z"/><path class="cls-1" d="M66.214,219.311a1.137,1.137,0,1,1-.365-1.566A1.138,1.138,0,0,1,66.214,219.311Z"/><path class="cls-1" d="M64.062,219.313a1.074,1.074,0,0,1-1.564.363,1.112,1.112,0,0,1-.368-1.564,1.137,1.137,0,0,1,1.932,1.2Z"/><path class="cls-1" d="M62.912,217.584a.771.771,0,1,1-.249-1.061A.771.771,0,0,1,62.912,217.584Z"/><path class="cls-1" d="M64.905,217.836a1.424,1.424,0,1,1-.459-1.962A1.425,1.425,0,0,1,64.905,217.836Z"/><path class="cls-1" d="M68.039,217.643a1.817,1.817,0,1,1-.585-2.5A1.818,1.818,0,0,1,68.039,217.643Z"/><path class="cls-1" d="M71.889,218.733a2.922,2.922,0,1,1-.94-4.023A2.921,2.921,0,0,1,71.889,218.733Z"/><path class="cls-1" d="M69.578,215.709a2.848,2.848,0,1,1-.916-3.921A2.848,2.848,0,0,1,69.578,215.709Z"/><path class="cls-1" d="M73.356,216.473a2.693,2.693,0,1,1-.867-3.709A2.692,2.692,0,0,1,73.356,216.473Z"/><path class="cls-1" d="M61.113,217.933l2.923,1.816c.19.118.277.318.2.448l-5.383,8.665-3.609-2.242,5.383-8.665C60.7,217.825,60.923,217.815,61.113,217.933Z"/><path class="cls-1" d="M58.613,231.83l.812-1.307c.081-.13-.008-.33-.2-.447L54.2,226.95c-.19-.118-.408-.108-.488.022l-.813,1.307Z"/><path class="cls-1" d="M44.194,223.912a.5.5,0,0,0,.127.729l6.78,4.223a.5.5,0,0,0,.684-.16l3.249-5.229a.446.446,0,0,0-.143-.613L48.836,219.1a.444.444,0,0,0-.639.191Zm7.113-1.26a.357.357,0,0,1,.481-.147l1.312.815a.358.358,0,0,1,.082.5l-1.08,1.738a.358.358,0,0,1-.482.147l-1.311-.814a.357.357,0,0,1-.081-.5Zm-4.593-.276,1.474-1.89a.2.2,0,0,1,.252-.061l2.272,1.411a.2.2,0,0,1,.045.275L49.5,224.136a.2.2,0,0,1-.267.082l-2.488-1.546A.2.2,0,0,1,46.714,222.376Z"/><path class="cls-1" d="M58.122,234.676l.786-1.267a.393.393,0,0,0-.126-.542l-15.377-9.552a.393.393,0,0,0-.542.126l-.787,1.267Z"/><path class="cls-1" d="M60.932,237.105l-39.6-24.6a.424.424,0,0,0-.642.3l-1.461,10.107a.427.427,0,0,0,.2.419l35.027,21.759A.423.423,0,0,0,55,245l6.037-7.265A.422.422,0,0,0,60.932,237.105Z"/><path class="cls-1" d="M48.994,210.273a1.135,1.135,0,1,0,1.562-.364A1.135,1.135,0,0,0,48.994,210.273Z"/><path class="cls-1" d="M47.9,211.432a1.137,1.137,0,1,0,1.566-.366A1.137,1.137,0,0,0,47.9,211.432Z"/><path class="cls-1" d="M49.453,212.147a1.35,1.35,0,1,0,1.859-.433A1.351,1.351,0,0,0,49.453,212.147Z"/><path class="cls-1" d="M42.911,209.854a3.672,3.672,0,1,0,5.057-1.181A3.673,3.673,0,0,0,42.911,209.854Z"/><path class="cls-1" d="M38.872,208.494a2.7,2.7,0,1,0,3.717-.867A2.7,2.7,0,0,0,38.872,208.494Z"/><path class="cls-1" d="M31.869,204.157a2.279,2.279,0,1,0,3.139-.733A2.281,2.281,0,0,0,31.869,204.157Z"/><path class="cls-1" d="M35.2,202.9a1.836,1.836,0,1,0,2.528-.591A1.837,1.837,0,0,0,35.2,202.9Z"/><path class="cls-1" d="M40.509,212.04a2.136,2.136,0,1,0,2.942-.687A2.136,2.136,0,0,0,40.509,212.04Z"/><path class="cls-1" d="M33.591,201.529a1.511,1.511,0,1,0,2.081-.487A1.511,1.511,0,0,0,33.591,201.529Z"/><path class="cls-1" d="M37.549,203.652a1.691,1.691,0,1,0,2.33-.544A1.691,1.691,0,0,0,37.549,203.652Z"/></g></svg>