<svg xmlns="http://www.w3.org/2000/svg" xmlns:xlink="http://www.w3.org/1999/xlink" viewBox="0 0 292 292"><defs><style>.cls-1{isolation:isolate;}.cls-2{fill:url(#linear-gradient);}.cls-3{fill:#fff;}.cls-4{fill:url(#linear-gradient-2);}.cls-5{fill:url(#linear-gradient-3);}.cls-6{fill:url(#linear-gradient-4);}.cls-7{fill:url(#linear-gradient-5);}.cls-8{fill:url(#linear-gradient-6);}.cls-9{fill:url(#linear-gradient-7);}.cls-10{fill:url(#linear-gradient-8);}.cls-11{fill:url(#linear-gradient-9);}.cls-12{fill:url(#linear-gradient-10);}.cls-13{fill:url(#linear-gradient-11);}.cls-14{fill:url(#linear-gradient-12);}.cls-15{fill:url(#linear-gradient-13);}.cls-16{fill:url(#linear-gradient-14);}.cls-17{fill:url(#linear-gradient-15);}.cls-18{fill:url(#linear-gradient-16);}.cls-19{fill:url(#linear-gradient-17);}.cls-20{fill:url(#linear-gradient-18);}.cls-21{fill:url(#linear-gradient-19);}.cls-22{fill:url(#linear-gradient-20);}.cls-23{fill:url(#linear-gradient-21);}.cls-24{fill:url(#linear-gradient-22);}.cls-25{fill:url(#linear-gradient-23);}.cls-26{fill:url(#linear-gradient-24);}.cls-27{fill:url(#linear-gradient-25);}.cls-28{fill:url(#linear-gradient-26);}.cls-29{fill:url(#linear-gradient-27);}.cls-30{fill:url(#linear-gradient-28);}.cls-31{fill:url(#linear-gradient-29);}.cls-32{fill:url(#linear-gradient-30);}.cls-33{fill:url(#linear-gradient-31);}.cls-34{fill:url(#linear-gradient-32);}.cls-35{fill:url(#linear-gradient-33);}.cls-36{fill:url(#linear-gradient-34);}.cls-37{fill:url(#linear-gradient-35);}.cls-38{fill:url(#linear-gradient-36);}.cls-39{fill:url(#linear-gradient-37);}.cls-40{fill:url(#linear-gradient-38);}.cls-41{fill:url(#linear-gradient-39);}.cls-42{fill:url(#linear-gradient-40);}.cls-43{fill:url(#linear-gradient-41);}.cls-44{fill:#ffc555;}.cls-45{fill:#f5f5f5;mix-blend-mode:hard-light;}.cls-46{fill:url(#linear-gradient-42);}.cls-47{fill:url(#linear-gradient-43);}.cls-48{fill:url(#linear-gradient-44);}.cls-49{fill:#fc5;}.cls-50{fill:#db9b7b;}.cls-51{fill:#de9673;}.cls-52{fill:#eea886;}.cls-53{fill:#1d3b54;}.cls-54{fill:#363636;}.cls-55{fill:#a77860;}.cls-56{fill:#cf8c6c;}.cls-57{fill:#db9c7c;}.cls-58{fill:#0e1e2b;}.cls-59{fill:#4a4a4a;}.cls-60{fill:#285173;}.cls-61{fill:#eddad3;}.cls-62{fill:#252e3b;}.cls-63{fill:#d6c5be;}.cls-64{fill:#fae6de;}.cls-65{fill:#202338;}.cls-66{fill:#81807e;}.cls-67{fill:#292c47;}.cls-68{fill:#dbd8e3;}.cls-69{fill:#1d2033;}.cls-70{fill:#323657;}.cls-71{fill:#eea987;}.cls-72{fill:#d44040;}.cls-73{fill:#3a4066;}.cls-74{fill:#232729;}.cls-75{fill:#c7c5cf;}.cls-76{fill:#78c3ff;}.cls-77{fill:#1173c2;}.cls-78{fill:#1487e3;}.cls-79{fill:#4aafff;}.cls-80{fill:#e2d2ca;}.cls-81{fill:#706865;}.cls-82{fill:#ccbdb7;}.cls-83{fill:#998e89;}.cls-84{fill:#b59074;}.cls-85{fill:#ead8cf;}.cls-86{fill:#da9b5b;}.cls-87{fill:#424773;}.cls-88{fill:#3a3f47;}.cls-89{fill:#918783;}.cls-90{fill:#5e5854;}.cls-91{fill:#bfb2ac;}.cls-92{fill:#b8aba5;}.cls-93{fill:#f5f7ff;}.cls-94{fill:#dfe1e8;}.cls-95{fill:#918681;}</style><linearGradient id="linear-gradient" x1="8.779" y1="197.622" x2="41.482" y2="197.622" gradientUnits="userSpaceOnUse"><stop offset="0" stop-color="#40d5e6"/><stop offset="1" stop-color="#57f"/></linearGradient><linearGradient id="linear-gradient-2" x1="32.769" y1="215.87" x2="62.342" y2="215.87" xlink:href="#linear-gradient"/><linearGradient id="linear-gradient-3" x1="35.297" y1="220.171" x2="57.493" y2="220.171" xlink:href="#linear-gradient"/><linearGradient id="linear-gradient-4" x1="27.281" y1="202.309" x2="53.131" y2="202.309" xlink:href="#linear-gradient"/><linearGradient id="linear-gradient-5" x1="21.349" y1="239.387" x2="45.203" y2="239.387" gradientUnits="userSpaceOnUse"><stop offset="0" stop-color="#ff9340"/><stop offset="1" stop-color="#ffce45"/></linearGradient><linearGradient id="linear-gradient-6" x1="21.349" y1="239.387" x2="45.203" y2="239.387" gradientUnits="userSpaceOnUse"><stop offset="0" stop-color="#c97332"/><stop offset="1" stop-color="#ffce45"/></linearGradient><linearGradient id="linear-gradient-7" x1="78.957" y1="99.064" x2="22.194" y2="99.064" gradientUnits="userSpaceOnUse"><stop offset="0" stop-color="#ff9f55"/><stop offset="1" stop-color="#ffd255"/></linearGradient><linearGradient id="linear-gradient-8" x1="-13200.234" y1="1568.135" x2="-13223.213" y2="1568.135" gradientTransform="translate(-1469.071 -13012.208) rotate(-90)" xlink:href="#linear-gradient-7"/><linearGradient id="linear-gradient-9" x1="-14799.663" y1="-11765.176" x2="-14822.642" y2="-11765.176" gradientTransform="translate(-14578.523 -11565.66) rotate(180)" xlink:href="#linear-gradient-7"/><linearGradient id="linear-gradient-10" x1="262.568" y1="147.477" x2="79.144" y2="147.477" xlink:href="#linear-gradient-7"/><linearGradient id="linear-gradient-11" x1="262.57" y1="119.38" x2="79.144" y2="119.38" xlink:href="#linear-gradient-7"/><linearGradient id="linear-gradient-12" x1="262.563" y1="125.8" x2="79.148" y2="125.8" xlink:href="#linear-gradient-7"/><linearGradient id="linear-gradient-13" x1="262.572" y1="119.38" x2="79.142" y2="119.38" xlink:href="#linear-gradient-7"/><linearGradient id="linear-gradient-14" x1="262.557" y1="86.377" x2="79.151" y2="86.377" xlink:href="#linear-gradient-7"/><linearGradient id="linear-gradient-15" x1="262.571" y1="80.572" x2="79.142" y2="80.572" xlink:href="#linear-gradient-7"/><linearGradient id="linear-gradient-16" x1="262.568" y1="125.8" x2="79.145" y2="125.8" xlink:href="#linear-gradient-7"/><linearGradient id="linear-gradient-17" x1="262.564" y1="136.851" x2="79.15" y2="136.851" xlink:href="#linear-gradient-7"/><linearGradient id="linear-gradient-18" x1="262.575" y1="119.38" x2="79.139" y2="119.38" xlink:href="#linear-gradient-7"/><linearGradient id="linear-gradient-19" x1="262.567" y1="112.962" x2="79.145" y2="112.962" xlink:href="#linear-gradient-7"/><linearGradient id="linear-gradient-20" x1="262.568" y1="151.846" x2="79.145" y2="151.846" xlink:href="#linear-gradient-7"/><linearGradient id="linear-gradient-21" x1="262.57" y1="188.412" x2="79.14" y2="188.412" xlink:href="#linear-gradient-7"/><linearGradient id="linear-gradient-22" x1="262.565" y1="186.124" x2="79.146" y2="186.124" xlink:href="#linear-gradient-7"/><linearGradient id="linear-gradient-23" x1="262.568" y1="176.233" x2="79.144" y2="176.233" xlink:href="#linear-gradient-7"/><linearGradient id="linear-gradient-24" x1="262.568" y1="194.831" x2="79.145" y2="194.831" xlink:href="#linear-gradient-7"/><linearGradient id="linear-gradient-25" x1="262.568" y1="191.691" x2="79.145" y2="191.691" xlink:href="#linear-gradient-7"/><linearGradient id="linear-gradient-26" x1="262.568" y1="194.831" x2="79.144" y2="194.831" xlink:href="#linear-gradient-7"/><linearGradient id="linear-gradient-27" x1="262.565" y1="138.008" x2="79.151" y2="138.008" xlink:href="#linear-gradient-7"/><linearGradient id="linear-gradient-28" x1="262.57" y1="131.589" x2="79.14" y2="131.589" xlink:href="#linear-gradient-7"/><linearGradient id="linear-gradient-29" x1="262.568" y1="118.752" x2="79.155" y2="118.752" xlink:href="#linear-gradient-7"/><linearGradient id="linear-gradient-30" x1="262.568" y1="135.535" x2="79.145" y2="135.535" xlink:href="#linear-gradient-7"/><linearGradient id="linear-gradient-31" x1="262.568" y1="145.164" x2="79.145" y2="145.164" xlink:href="#linear-gradient-7"/><linearGradient id="linear-gradient-32" x1="262.567" y1="151.582" x2="79.147" y2="151.582" xlink:href="#linear-gradient-7"/><linearGradient id="linear-gradient-33" x1="262.568" y1="173.207" x2="79.145" y2="173.207" xlink:href="#linear-gradient-7"/><linearGradient id="linear-gradient-34" x1="262.568" y1="169.997" x2="79.143" y2="169.997" xlink:href="#linear-gradient-7"/><linearGradient id="linear-gradient-35" x1="262.566" y1="181.993" x2="79.147" y2="181.993" xlink:href="#linear-gradient-7"/><linearGradient id="linear-gradient-36" x1="262.571" y1="151.338" x2="79.142" y2="151.338" xlink:href="#linear-gradient-7"/><linearGradient id="linear-gradient-37" x1="262.568" y1="176.233" x2="79.144" y2="176.233" xlink:href="#linear-gradient-7"/><linearGradient id="linear-gradient-38" x1="262.568" y1="87.942" x2="79.144" y2="87.942" xlink:href="#linear-gradient-7"/><linearGradient id="linear-gradient-39" x1="262.568" y1="87.942" x2="79.144" y2="87.942" xlink:href="#linear-gradient-7"/><linearGradient id="linear-gradient-40" x1="262.568" y1="97.257" x2="79.145" y2="97.257" xlink:href="#linear-gradient-7"/><linearGradient id="linear-gradient-41" x1="262.567" y1="87.942" x2="79.148" y2="87.942" xlink:href="#linear-gradient-7"/><linearGradient id="linear-gradient-42" x1="-1159.28" y1="-13559.485" x2="-1182.259" y2="-13559.485" gradientTransform="translate(-13326.856 1236.25) rotate(90)" xlink:href="#linear-gradient-7"/><linearGradient id="linear-gradient-43" x1="327.957" y1="275.778" x2="304.979" y2="275.778" gradientTransform="translate(-217.404 -210.298)" xlink:href="#linear-gradient-7"/><linearGradient id="linear-gradient-44" x1="258.061" y1="82.595" x2="134.728" y2="82.595" xlink:href="#linear-gradient-7"/></defs><title>solution</title><g class="cls-1"><g id="Windows"><path class="cls-2" d="M11.637,154.41c2.819-1.349,5.626,7.628,5.626,7.628,4.793,6.333,11.49-2.092,10.835,7.375-1.145,16.566,19.069,5.21,9.743,22.5s8.235,9.78,2.439,23.725,1.716,30.579-7,23.744c0,0-7.678-16.837-15.6-22.047s4.744-11.39,2.266-18.466C16.347,188.6,7.677,189,13.929,177.956S2.051,158.994,11.637,154.41Z"/><path class="cls-3" d="M36.037,233.05c-3.779-2.658-8.2-21.183-8.467-32.216-.135-5.652-1.806-8.007-3.28-10.084-1.409-1.986-2.626-3.7-1.917-7.639,1.355-7.526-2.207-10.775-2.243-10.806l.412-.471c.159.14,3.868,3.49,2.446,11.388-.662,3.679.43,5.218,1.812,7.166,1.45,2.044,3.255,4.588,3.395,10.431.283,11.841,4.806,29.332,8.2,31.72Z"/><path class="cls-4" d="M37.452,234.423a7.946,7.946,0,0,1-1.6-.173,3.486,3.486,0,0,1-2.839-2.284c-1.02-2.914,1.341-7.648,3.257-9.93a14.561,14.561,0,0,0,2.9-9.391c-.057-.91-.152-1.753-.235-2.5-.241-2.149-.415-3.7.508-4.741.814-.914,2.385-1.31,5.254-1.324a10.4,10.4,0,0,0,8.618-3.78,9.088,9.088,0,0,1,2.1-1.807h0c2.507-1.368,5.162-1.569,6.314-.478.547.518,1.009,1.534.1,3.428a13.244,13.244,0,0,1-2.765,3.707c-1.161,1.185-1.928,1.967-1.529,3.527.094.366.2.737.311,1.107.775,2.653,1.654,5.66-2.885,7.7-.964.433-1.842.777-2.616,1.081-3.169,1.244-5.081,2-7.241,6.553-.418.883-.787,1.719-1.144,2.527C42.258,231.505,40.97,234.423,37.452,234.423Zm18.26-35.378a8.544,8.544,0,0,0-1.946,1.69c-1.68,1.759-3.771,3.949-9.067,3.973-2.637.013-4.115.357-4.79,1.115-.738.829-.576,2.266-.354,4.256.084.75.18,1.6.238,2.527a14.923,14.923,0,0,1-3.041,9.831c-1.9,2.259-4.045,6.754-3.147,9.323a2.9,2.9,0,0,0,2.372,1.878c4.276.863,5.456-1.811,7.411-6.243.359-.813.73-1.653,1.151-2.543,2.266-4.782,4.379-5.611,7.578-6.866.768-.3,1.638-.643,2.587-1.07,4.043-1.816,3.314-4.311,2.541-6.954-.11-.377-.22-.754-.316-1.127-.486-1.9.474-2.88,1.688-4.12a12.521,12.521,0,0,0,2.648-3.539c.411-.858.749-2.024.031-2.7-.944-.9-3.345-.649-5.584.573Z"/><path class="cls-5" d="M35.921,238.032,35.3,238c.031-.587.818-14.412,6.369-18.457a22.218,22.218,0,0,0,8.924-12.412c1.078-3.773,6.562-4.781,6.795-4.822l.108.616c-.053.009-5.332.982-6.3,4.378a22.809,22.809,0,0,1-9.157,12.745C36.721,223.92,35.928,237.892,35.921,238.032Z"/><path class="cls-6" d="M48.612,168.361c-3.945-1.352-3.125,6.251-4.792,11.878s-18.546,2.455-11.461,16.543-8.96,4.711-4.168,17.006.417,25.443,5.626,22.1,2.927-18.827,8.345-20.667,6.3-3.985.938-8.986,14.056-9.966,9.263-20.064S53.17,169.924,48.612,168.361Z"/><path class="cls-3" d="M36.235,235.3c-.5-2.106-4.734-20.627-.78-22.866,3.484-1.974,3.4-9.649,2.855-16.9-.481-6.416,7.758-9.414,8.11-9.538l.209.588c-.082.03-8.141,2.965-7.7,8.9.559,7.444.619,15.342-3.17,17.487-3,1.7-.238,16.585,1.08,22.178Z"/><polygon class="cls-7" points="45.203 228.702 39.57 250.073 26.982 250.073 21.349 228.702 45.203 228.702"/><path class="cls-8" d="M45.2,228.7s-12.4,2.329-12.4,21.371H26.982L21.349,228.7Z"/><polygon class="cls-9" points="78.957 110.185 22.194 110.185 22.194 109.314 78.086 109.314 78.086 87.942 78.957 87.942 78.957 110.185"/><polygon class="cls-10" points="87.575 188.026 89.714 188.026 89.714 208.866 110.554 208.866 110.554 211.005 87.575 211.005 87.575 188.026"/><polygon class="cls-11" points="221.139 211.005 221.139 208.866 241.979 208.866 241.979 188.026 244.118 188.026 244.118 211.005 221.139 211.005"/><polygon class="cls-12" points="163.995 129.011 161.365 129.011 124.746 129.011 124.746 129.01 124.746 122.591 124.746 116.171 118.327 116.171 118.327 122.591 111.908 122.591 111.908 129.01 118.327 129.01 118.327 129.011 111.908 129.011 111.908 135.431 111.908 141.85 111.908 148.269 111.908 148.27 118.327 148.27 118.327 148.269 125.061 148.269 125.061 141.85 118.327 141.85 118.327 135.431 124.746 135.431 161.365 135.431 161.365 178.783 167.784 178.783 167.784 129.011 163.995 129.011"/><rect class="cls-13" x="99.064" y="116.171" width="12.838" height="6.419"/><rect class="cls-14" x="148.528" y="122.591" width="12.837" height="6.419"/><rect class="cls-15" x="135.689" y="116.171" width="12.838" height="6.419"/><rect class="cls-16" x="148.528" y="80.642" width="6.418" height="11.47"/><rect class="cls-17" x="160.662" y="74.083" width="6.419" height="12.978"/><rect class="cls-18" x="167.784" y="122.591" width="6.419" height="6.419"/><rect class="cls-19" x="180.516" y="128.38" width="6.419" height="16.942"/><rect class="cls-20" x="161.365" y="116.171" width="6.419" height="6.419"/><polygon class="cls-21" points="180.621 116.171 180.621 109.753 174.203 109.753 167.784 109.753 167.784 116.171 174.203 116.171 180.621 116.171"/><polygon class="cls-22" points="192.933 148.27 180.516 148.27 180.516 145.321 174.097 145.321 174.097 162.473 180.516 162.473 180.516 154.689 186.584 154.689 186.584 161.108 193.003 161.108 193.003 154.792 199.352 154.792 199.352 141.218 192.933 141.218 192.933 148.27"/><rect class="cls-23" x="205.77" y="185.202" width="6.419" height="6.419"/><polygon class="cls-24" points="154.711 173.287 148.292 173.287 148.292 178.783 148.292 185.202 148.292 198.962 154.711 198.962 154.711 185.202 161.365 185.202 161.365 178.783 154.711 178.783 154.711 173.287"/><path class="cls-25" d="M136.4,154.425H99.258v43.616h43.616v-6.42h-.053V160.844h.053v-6.419H136.4Zm0,37.2H105.677V160.844H136.4Z"/><rect class="cls-26" x="212.19" y="191.621" width="12.838" height="6.419"/><polygon class="cls-27" points="187.777 191.691 187.777 198.11 194.196 198.11 194.196 191.691 194.196 185.272 187.777 185.272 187.777 191.691"/><rect class="cls-28" x="161.365" y="191.621" width="20.414" height="6.419"/><rect class="cls-29" x="199.352" y="134.799" width="6.419" height="6.419"/><rect class="cls-30" x="205.77" y="128.38" width="6.419" height="6.419"/><rect class="cls-31" x="210.821" y="115.543" width="13.101" height="6.419"/><polygon class="cls-32" points="230.078 141.955 230.078 135.535 230.078 129.116 223.659 129.116 223.659 135.535 217.241 135.535 217.241 141.955 223.659 141.955 230.078 141.955"/><rect class="cls-33" x="210.821" y="141.955" width="6.419" height="6.419"/><rect class="cls-34" x="217.241" y="148.373" width="6.419" height="6.419"/><polygon class="cls-35" points="223.659 174.049 223.659 185.202 230.078 185.202 230.078 166.332 223.659 166.332 223.659 161.211 217.241 161.211 217.241 174.049 223.659 174.049"/><polygon class="cls-36" points="199.352 172.365 181.779 172.365 181.779 178.783 199.352 178.783 199.352 185.202 205.77 185.202 205.77 178.783 205.77 161.211 217.241 161.211 217.241 154.792 199.352 154.792 199.352 161.211 199.352 172.365"/><rect class="cls-37" x="167.784" y="178.783" width="13.995" height="6.419"/><polygon class="cls-38" points="141.59 141.569 141.59 148.27 148.292 148.27 148.292 161.108 154.711 161.108 154.711 148.269 148.292 148.269 148.292 141.569 141.59 141.569"/><rect class="cls-39" x="111.464" y="166.631" width="19.204" height="19.204"/><path class="cls-40" d="M136.4,109.75h6.472v-6.419h-.053V72.553h.053V66.135H99.258V109.75H136.4Zm-30.725-37.2H136.4v30.778H105.677Z"/><rect class="cls-41" x="111.464" y="78.34" width="19.204" height="19.204"/><path class="cls-42" d="M230.788,72.553V66.135H187.172V80.642H173.184v6.419h-6.1v10.1h-5.716v-5.05h-6.419v5.05h-6.418v19.009h6.418v-12.59H173.5V87.061h13.672V109.75h12.18v12.211H186.987v6.419H205.77V109.75h25.018v-6.419h-.053V72.553Zm-6.472,30.778H193.591V72.553h30.725Z"/><rect class="cls-43" x="199.378" y="78.34" width="19.203" height="19.204"/><polygon class="cls-44" points="181.018 36.891 180.235 36.891 182.624 32.062 183.407 32.062 181.018 36.891"/><rect class="cls-44" x="155.828" y="36.449" width="37.907" height="0.601"/><rect class="cls-44" x="155.828" y="38.397" width="20.249" height="3.477"/><rect class="cls-44" x="180.235" y="30.151" width="10.55" height="1.911"/><rect class="cls-44" x="180.235" y="29.258" width="10.55" height="0.36"/><rect class="cls-45" x="35.297" y="118.698" width="105.676" height="96.767" rx="11.699"/><polygon class="cls-46" points="244.118 76.97 241.979 76.97 241.979 56.13 221.139 56.13 221.139 53.991 244.118 53.991 244.118 76.97"/><polygon class="cls-47" points="110.554 53.991 110.554 56.13 89.714 56.13 89.714 76.97 87.575 76.97 87.575 53.991 110.554 53.991"/><polygon class="cls-48" points="258.061 122.591 257.189 122.591 257.189 43.471 199.946 43.471 199.946 52.188 134.728 52.188 134.728 51.316 199.074 51.316 199.074 42.6 258.061 42.6 258.061 122.591"/><rect class="cls-49" x="47.581" y="92.145" width="16.963" height="1.189"/><rect class="cls-49" x="47.581" y="94.386" width="16.963" height="4.999"/><rect class="cls-49" x="62.505" y="101.067" width="10.007" height="0.747"/><rect class="cls-49" x="62.505" y="102.14" width="10.007" height="2.023"/><rect class="cls-49" x="64.171" y="85.378" width="0.747" height="14.007"/><path class="cls-50" d="M238.969,220.886c.809,1.388,11.568,13.634,12.283,15.063s5.234,7.322,5.234,7.322l2.272-1.928s-3.822-8.317-6.893-14.165h0c-.3-.568-.589-1.113-.868-1.623a18.3,18.3,0,0,0-2.5-3.879c-1.965-1.608-4.829-3.816-3.56-5.946s6.306-13.567,6.429-14.714,9.791-19.213-7.747-11.288c0,0-4.778,11.807-4.589,18.9S238.162,219.5,238.969,220.886Z"/><path class="cls-51" d="M256.485,243.271a5.558,5.558,0,0,1,.019,2.222c-.268.844-.63,4.469-1.594,5.048s-3,1.075-2.98,1.24c.069.749.7,1.124,2.827.96s3.931-3.078,5.187-5.128,3.036-3.133,1.747-4.328-3.1-2.477-3.327-2.722S256.485,243.271,256.485,243.271Z"/><path class="cls-52" d="M258.771,188.739s3.678,6.239,1.9,10.675c-1.74,4.354-8.9,14.43-9.521,15.99s-2.044,3.715-.738,4.032a23.854,23.854,0,0,1,7.248,2.473c2.211,1.194,5.722,1.513,8.087,2.35.937.332,1.395,2.449.432,3.046-.712.442-19.086-1.881-21.9-3.378-1.223-.651-1.389-2.414-.406-7.382.444-2.238,2.633-9.621,3.262-12.372.608-2.66,1.879-6.654,1.879-6.654S246.191,181.912,258.771,188.739Z"/><path class="cls-52" d="M266.024,227.342a20.118,20.118,0,0,1,2.543-.149c.814.054,4-.1,4.895.036s1.572,1.14,2.04.837-.541-1.468-1.6-2.12a65.668,65.668,0,0,1-5.679-3.628c-1.542-1.231-2.345-1.388-2.986-.127s-1.148,3.191-1.442,3.725S266.024,227.342,266.024,227.342Z"/><path class="cls-53" d="M238.455,214.291s-1.586,2.078,13.559.705c0,0,13.938-15.792,8.339-24.4-2.961-4.554-17.4-1.72-17.4-1.72S239.573,193.588,238.455,214.291Z"/><path class="cls-54" d="M251.93,251.781s-.2-.905,2.716-1.2c1.671-.17,4.552-4.233,4.832-4.705s.863-3.19,1.379-3.318,2.283,1.572.786,3.394-3.577,6.5-6.886,6.792C252.156,252.969,251.9,252.268,251.93,251.781Z"/><path class="cls-54" d="M264.915,222.89s.377-2.74,2.521-1.273a65.981,65.981,0,0,0,6.325,4.188c2.3,1.224,2.211,2.114,1.6,2.518s-2.142-.733-3.033-1.151S269.748,224.6,264.915,222.89Z"/><path class="cls-55" d="M251,225.556s-4.966-.979-6.2-1.4c1.168.488,6.536,2.728,7.066,3.025C251.568,226.611,251.276,226.066,251,225.556Z"/><path class="cls-52" d="M278.89,142.337s-.648-1.8-.739-2.081a4.62,4.62,0,0,1,.47-1.943,5.368,5.368,0,0,1,1.342-1.954.824.824,0,0,1,.688.013,1.582,1.582,0,0,1,.625.5.964.964,0,0,1,.83.419.837.837,0,0,1,.75.554s.522.011.644.43a6.3,6.3,0,0,0-.222,1.1,19.051,19.051,0,0,1-1.62,3.752S280.7,143.88,278.89,142.337Z"/><path class="cls-56" d="M280.141,139.921a4.737,4.737,0,0,1,.737,1c.083.291,2.04-.644,2.04-.644S281.02,139.15,280.141,139.921Z"/><path class="cls-57" d="M279.867,136.587s-.8,2.25-.451,2.423a.607.607,0,0,0,.578.027l.093,1.074a.619.619,0,0,0,1.065-.024s.366.677.868-.07c0,0,.441.339.734.034a7.963,7.963,0,0,0,.746-1.773s-.019-.38-.619-.457a.842.842,0,0,0-.757-.564.872.872,0,0,0-.817-.425s-.625-.9-1.344-.473C279.963,136.359,279.9,136.492,279.867,136.587Z"/><path class="cls-52" d="M278.169,140.182a8.1,8.1,0,0,1,2.111-1.453c.208-.074.423-.108.57.057s.095.589-.4,1.1a6.006,6.006,0,0,0-.891,1.4S278.9,141.67,278.169,140.182Z"/><path class="cls-52" d="M225.277,180.051a3.148,3.148,0,0,0-1.07.3,5.246,5.246,0,0,1-1.275.343,12.062,12.062,0,0,0-1.994.736c-.12.08-.665.868-.931,1s-.839.346-.709.572.7.18.7.18a.372.372,0,0,0-.182.371c.1.452.386.527.386.527s-.143.3-.052.476a.813.813,0,0,0,.475.458.744.744,0,0,0,.175.482.685.685,0,0,0,.619.228s.222.442.5.418a2.321,2.321,0,0,0,.665-.263,7.951,7.951,0,0,0,2.42-2.51,3.135,3.135,0,0,1,2.277-1.444Z"/><path class="cls-58" d="M215.718,184.408l2.455-3.109a1.157,1.157,0,0,1,1.625-.191L224.727,185a1.158,1.158,0,0,1,.192,1.625l-2.454,3.108a1.159,1.159,0,0,1-1.625.192l-4.93-3.892A1.159,1.159,0,0,1,215.718,184.408Zm3.6-2.691a.381.381,0,0,0-.534.063l-2.454,3.109a.381.381,0,0,0,.062.534l4.931,3.892a.38.38,0,0,0,.534-.063l2.454-3.108a.381.381,0,0,0-.063-.535Z"/><rect class="cls-54" x="202.149" y="184.828" width="24.096" height="16.884" transform="matrix(-0.785, -0.62, 0.62, -0.785, 262.555, 477.691)"/><rect class="cls-59" x="204.348" y="185.591" width="24.096" height="9.787" transform="translate(268.202 474.083) rotate(-141.708)"/><path class="cls-57" d="M220.1,183.028s1.346-1.025,1.912-.891.1.531.1.531.453-.4.818-.07-.206.766-.206.766a.49.49,0,0,1,.662.242c.236.453-.32.707-.32.707s.772.037.512.611a2.586,2.586,0,0,1-1.627,1.247.583.583,0,0,1-.557-.412.685.685,0,0,1-.8-.711s-.811-.356-.443-.951A.6.6,0,0,1,220.1,183.028Z"/><path class="cls-60" d="M251.162,161.793a6.11,6.11,0,0,0-3.983.793c-1.615,1.163-2.747,3.379-3.248,4.071s-6.307,6.862-6.592,6.97a57.225,57.225,0,0,0-6.872,3.434,43.979,43.979,0,0,1-6.571,3.074l1.618,3.19s11.438-3.674,13.563-5.578c2.271-2.032,9.427-7.709,9.427-7.709S254.644,165.188,251.162,161.793Z"/><path class="cls-61" d="M254.485,161.166a24.3,24.3,0,0,1-3.323.627c-.825,0-4.7,3.389-5.524,4.741s-.724,3.649-.123,6.439-.616,3.439-.619,6.11a61,61,0,0,1-1.015,9.609c-.378,1.409,12.5,4.243,15.963,2.226,0,0-2.085-5.03-2.339-5.74s.748-4.106,1.273-4.925,4.329-7.433,4.329-7.433,3.069-5.905,1.616-7.579c-1.262-1.454-5.243-2.673-5.923-3.071A12.725,12.725,0,0,0,254.485,161.166Z"/><path class="cls-52" d="M260.584,145.525c-1.263-.747-6.019-2.908-8.458,3.236s.184,11.38,3.659,10.816,6.349-4.577,7.206-7.9A5.124,5.124,0,0,0,260.584,145.525Z"/><path class="cls-62" d="M252.126,148.761s.838-5.506,6.3-4.62,6.036,5.642,4.946,8.809a8.126,8.126,0,0,1-3.676,4.44s.718-2.6-.2-3.488-4.866-3.094-6.077-6.632A4.969,4.969,0,0,0,252.126,148.761Z"/><path class="cls-62" d="M259.005,149.525a3.725,3.725,0,1,0,3.151-4.641A3.985,3.985,0,0,0,259.005,149.525Z"/><path class="cls-52" d="M253.917,158.314a55.455,55.455,0,0,1-.741,5.626s1.9,2.85,5.624-1.77a7.212,7.212,0,0,1,.715-5.076C260.945,154.368,253.917,158.314,253.917,158.314Z"/><polygon class="cls-52" points="253.176 163.94 252.745 166.114 255.882 164.614 253.176 163.94"/><path class="cls-60" d="M259.192,162.354s-4.245,5.14-5.028,7.183c-1.9,4.957-1.043,17.686-.988,23.049s10.655,1.953,10.655,1.953-5.221-10.549-1.87-16.928a47.624,47.624,0,0,0,4.274-10.511,5.994,5.994,0,0,0-3.039-3.217C261.092,163.119,259.192,162.354,259.192,162.354Z"/><path class="cls-60" d="M245.033,167.036a36.813,36.813,0,0,0,.06,7.568s-.942,5.411-1.33,7.214c-.634,2.955-3.442,8.3-3.442,8.3l2.7,2.47a.49.49,0,0,0,.818-.307c.531-4.807,3.528-26.242,9.143-30.773l-2.226.243S246.418,164.442,245.033,167.036Z"/><path class="cls-52" d="M259.182,152.64a.852.852,0,0,1,1.308-.11c.323.361.376,1.262-.447,2.253S256.941,156.126,259.182,152.64Z"/><path class="cls-60" d="M256.733,174.717s3.01,3.575,5.318.754a42.377,42.377,0,0,0,4.11-5.98c.8-1.279,6.248-8.558,6.507-8.9s3.112-5.14,3.968-6.964c.652-1.387,5.224-9.884,5.44-10.213s-3.963-1.815-3.963-1.815-4.671,8.409-5.151,9.258-2.623,5.191-3.63,6.3c-1.184,1.3-5.364,6.673-6.136,6.729C262.286,163.948,254.893,172.757,256.733,174.717Z"/><path class="cls-55" d="M253.828,159.255l-.079.842s1.808.741,4.873-1.78A5.463,5.463,0,0,1,253.828,159.255Z"/><path class="cls-53" d="M244.016,173.636s-.386-3.478.68-5.669a11.694,11.694,0,0,0,.2,4.958Z"/><polygon class="cls-63" points="254.091 164.313 252.745 166.114 256.779 164.133 254.091 164.313"/><path class="cls-64" d="M258.683,161.581s-3.249,2.121-4.592,2.732l2.094,2.49,3.281-4.337Z"/><path class="cls-63" d="M252.745,166.114s.918-4.24.861-4.827l-1.376,2.653Z"/><polygon class="cls-64" points="253.606 161.287 252.984 161.51 249.916 164.654 252.23 163.94 253.606 161.287"/><path class="cls-52" d="M210.493,165.271a28.292,28.292,0,0,1,4.1-1.094c.308.137.35.355,0,.485s-3.634,1.3-3.634,1.3,4.683-.675,4.962-.621c.163.031.267.445.086.533s-4.8,1.035-4.8,1.035,4.373-.623,4.59-.5a.328.328,0,0,1-.129.583c-.321.069-4.361.887-4.361.887a16.993,16.993,0,0,1,3.323-.027c.075.134.181.486-.645.522s-2.778.335-2.778.335Z"/><path class="cls-52" d="M206.316,167.394s1.227-.488,1.315-1.262a4.693,4.693,0,0,1,.789-1.725c.224-.337.559-1.622.952-1.348s-.456,2.141-.562,2.567,1.569-.481,1.988-.4,1.559,3.018.348,3.5a11.028,11.028,0,0,1-2.972.306,7.987,7.987,0,0,1-.869.39Z"/><path class="cls-65" d="M174.464,245.792a16.277,16.277,0,0,1-1.409,2.2c-.557.626-2.69,1.744-2.7,3.6-.012,2.015,3.595,1.456,5.007,1.382s1.518-1.15,2.111-2.29,1.193-.948,1.3-1.868a10.781,10.781,0,0,0-.575-3.028Z"/><path class="cls-65" d="M195.942,245.609a8.5,8.5,0,0,0,3.5,2.327c1.766.4,3,.917,3.013,2.021s-5.079,1.832-7.1.719c-3.015-1.662-3.321-1.161-3.655-1.991s.4-3.051.379-3.314C192.056,245.044,195.942,245.609,195.942,245.609Z"/><path class="cls-66" d="M195.746,244.689a7.932,7.932,0,0,1,.2.92c-.035.019-3.978.484-3.859-.238.1-.587.235-1.224.235-1.224Z"/><path class="cls-66" d="M178.151,245.184a7.4,7.4,0,0,1,.133.881c-.032.02-4,.723-3.976.009a3.426,3.426,0,0,1,.366-1.228Z"/><path class="cls-67" d="M192.161,190.735s1.434,13.8,2.18,18.53c.872,5.524,1.167,10.089,1.411,12.948.3,3.6.365,21.29.578,22.342s-4.75.291-4.75.291-2.442-23.118-3.353-26.949c-.848-3.566-4-18.923-4.771-17.949s-1.734,17.92-2.307,20.733-2.317,24.836-2.317,24.836-3.95.78-5-.1c0,0-.478-18.98-.113-24.254.14-2.009-2.376-24.1.85-32.992C176.271,183.471,192.161,190.735,192.161,190.735Z"/><path class="cls-68" d="M165.6,175.616c-.833,2.276,6.811,7.981,5.861,8.155s-.909,1.977-.909,1.977-7.2-6.269-7.051-8.117c.081-1.025,5.718-15.936,6.579-16.552a61.845,61.845,0,0,1,6.186-2.625,13.566,13.566,0,0,1,1.7-.58c.438-.028,5.83.489,5.83.489s.773.265,1.563.628c1.35.619,3.452,1.587,4.961,2.3.487.232,1.1.546,1.6.814q-.093,2.748-.326,5.9s-.28,4.589-.306,9.223a21.315,21.315,0,0,0-.2,3.487c-.065,2.312.192,4.687.258,6.013.107,2.087.393,5.056.393,5.056l-2.622,1.071-11.487-.107-3.6-.964s.213-9.238.16-11.923c-.05-2.587-.594-9.306-.7-9.695C173.493,170.168,169.642,164.574,165.6,175.616Z"/><path class="cls-69" d="M191.394,190.806a95.515,95.515,0,0,1-14.8,0v2.267s10.292.984,15.148-.432Z"/><path class="cls-70" d="M184.664,158.693a43.38,43.38,0,0,1,2.247,9.756c.37,2.589,1.055,6.946,1.554,11.394v0c.393,3.506,1.289,7.1,1.575,9.788.3,2.781,1.185,10.971,1.185,10.971l2.159-1.36c.307-.285.739-.655.614-1.056a115.876,115.876,0,0,1-2.4-13.773l0-.012c-.031-.266-.063-.529-.093-.792l0-.042c-.127-1.1-.232-2.162-.308-3.131a9.921,9.921,0,0,1,.1-2.179c.3-4.957.45-10.182.45-10.182.158-2.139.171-4.129.231-5.992C191.969,162.085,185.277,158.876,184.664,158.693Z"/><path class="cls-70" d="M166.353,175.026c-.935,2.052,5.932,8.32,5.852,8.533a19.8,19.8,0,0,1-2.255,3.491s-10.635-11.423-10.495-12.83c.1-1.023,9.019-12.408,9.879-13.025.5-.357,4.18-1.662,5.987-2.375.331-.131,1.407-.536,1.7-.648.383.427,3.078,3.325,4.01,14.342a69.277,69.277,0,0,1-.671,9c-.354,3.424-.745,6.1-1.033,8.961-.566,5.641-.962,10.131-.962,10.131l-5.614-2.5c-.909-.455-2.48-1.641-2.139-2.6,1.3-3.635,3.246-10.526,3.248-13.716,0,0-1.484-10.658-1.98-12.375C171.883,169.416,167.4,172.731,166.353,175.026Z"/><path class="cls-71" d="M178.462,158.447a37.871,37.871,0,0,0-.75-5.6c-.192-1,5.819,2.638,5.819,2.638s-.018.351-.03.825c-.007.25-.011.535-.009.82,0,.1,0,.2,0,.3.006.265.018.518.04.734a3.529,3.529,0,0,0,.2.722C183.984,159.462,180.486,159.9,178.462,158.447Z"/><path class="cls-72" d="M182.943,161.78s3.779,14.549,3,25.874l-1.271,2.241-1.19-2.347s-.326-20.258-1.362-25.8Z"/><path class="cls-70" d="M209.5,169.472s-9.134,9.922-11.289,9.392c-1-.245-2.5-1.965-3.753-3.582-.411-.533-.814-1.091-1.2-1.644v0c-1.529-2.21-2.728-4.328-2.728-4.328s-4.523-5.3-.894-7.662a4.09,4.09,0,0,1,2.4.488c.8.593,2.758,4.323,3.075,5.015s2.785,5.567,3.015,5.711,2.654-1.31,3.95-2.182a48,48,0,0,0,4.724-3.866Z"/><rect class="cls-73" x="181.885" y="190.927" width="3.691" height="2.8"/><path class="cls-52" d="M186.7,146.273s1.321,2.448.667,2.829c-.541.315.633,2.718.787,3.11s-.98.678-1.22.93-.955,3.362-1.888,3.456-5.139-1.369-6.284-2.56-2.085-6.569-1.32-8.837S184.366,142,186.7,146.273Z"/><path class="cls-74" d="M186.96,146.8a3.761,3.761,0,0,0-1.1-4.6c-2.449-1.961-6.964,1.481-7.472,1.612s-3.4.33-1.939,5.4a33.134,33.134,0,0,0,1.427,4.536,11.635,11.635,0,0,1,1.463-2.907,5.057,5.057,0,0,1,2.64-.456s-.864-2.293.486-2.618S185.594,146.3,186.96,146.8Z"/><path class="cls-52" d="M180.541,149.07c-.119-.314-.5-1.666-1.664-.872s.723,3.342.925,3.374S181.543,151.717,180.541,149.07Z"/><path class="cls-55" d="M183.492,157.134c0,.1,0,.2,0,.3-3.438-1.154-4.1-2.891-4.1-2.891a23.471,23.471,0,0,0,4.109,1.771C183.494,156.564,183.49,156.849,183.492,157.134Z"/><path class="cls-52" d="M170.964,183.521a1.214,1.214,0,0,0,.67.27c.6-.006,1.273-.653,1.9-.065s-.688,3.087-1.16,3.38-1.543-.233-2.691-1.62S170.964,183.521,170.964,183.521Z"/><path class="cls-52" d="M173.291,183.559a24.6,24.6,0,0,1,2.487,1.039c1.125.55,2.447,1.389,2.312,1.674-.205.433-1.209-.379-2.361-.848-1.062-.432-.926-.166-.926-.166s-.034-.078,1.03.62c1.145.75,2.343,1.6,2.238,1.84-.132.291-.173.317-.633.114.239.174.225.265.162.373-.329.558-2.183-.279-2.92-.612.564.259.95.511.529.722-.483.243-3.051-1.061-4.016-1.439C170.14,186.464,173.291,183.559,173.291,183.559Z"/><path class="cls-70" d="M172.205,183.559a7.325,7.325,0,0,1-2.255,3.491s-4.568-5.039-5.383-5.982l3.575-2.074Z"/><path class="cls-71" d="M182.28,159.963a1.617,1.617,0,0,0,.615-.815l-2.3-.066A5.705,5.705,0,0,0,182.28,159.963Z"/><path class="cls-72" d="M182.28,159.963a5.936,5.936,0,0,0-.683,1.92,2.783,2.783,0,0,0,1.9-.253S183.2,161.138,182.28,159.963Z"/><path class="cls-75" d="M178.378,157.289a13.4,13.4,0,0,0,3.9,2.674l-.725,2.15-4.235-4.046Z"/><path class="cls-75" d="M183.5,157.722a5.9,5.9,0,0,1-1.221,2.241l1.331,1.92,1.053-3.19Z"/><path class="cls-76" d="M74.461,148.01A14.853,14.853,0,0,0,66.4,129.373q-.453-.2-.926-.366a14.865,14.865,0,1,0,8.991,19ZM56.711,153.5a11.145,11.145,0,1,1,7.506-20.988c.236.085.468.176.7.275a11.145,11.145,0,0,1-8.2,20.713Z"/><path class="cls-77" d="M57.142,132.365l-1.109-3.552A14.885,14.885,0,0,0,45.6,142.56l3.719.11a11.161,11.161,0,0,1,7.821-10.3Z"/><path class="cls-78" d="M64.912,132.785l1.484-3.412q-.453-.2-.926-.366a14.8,14.8,0,0,0-9.437-.194l1.109,3.552a11.105,11.105,0,0,1,7.075.145C64.453,132.6,64.685,132.686,64.912,132.785Z"/><path class="cls-79" d="M70.1,131.677a14.8,14.8,0,0,0-3.7-2.3l-1.484,3.412a11.082,11.082,0,0,1,2.774,1.727Z"/><rect class="cls-79" x="116.615" y="178.187" width="5.159" height="17.67"/><rect class="cls-79" x="108.946" y="183.143" width="5.159" height="12.715"/><rect class="cls-79" x="124.055" y="169.997" width="5.159" height="25.86"/><polygon class="cls-79" points="128.382 157.079 128.291 156.521 114.677 158.75 110.263 168.157 95.585 169.154 90.83 176.168 79.609 175.889 79.594 176.454 91.125 176.74 95.898 169.699 110.634 168.699 115.062 159.26 128.382 157.079"/><path class="cls-78" d="M111.745,133.533h14.67a1.677,1.677,0,0,0,1.677-1.677h0a1.676,1.676,0,0,0-1.677-1.677h-14.67a1.677,1.677,0,0,0-1.677,1.677h0A1.677,1.677,0,0,0,111.745,133.533Z"/><path class="cls-79" d="M111.745,139.384h14.67a1.677,1.677,0,0,0,1.677-1.678h0a1.676,1.676,0,0,0-1.677-1.676h-14.67a1.677,1.677,0,0,0-1.677,1.676h0A1.677,1.677,0,0,0,111.745,139.384Z"/><path class="cls-79" d="M111.745,145.235h14.67a1.677,1.677,0,0,0,1.677-1.677h0a1.677,1.677,0,0,0-1.677-1.677h-14.67a1.677,1.677,0,0,0-1.677,1.677h0A1.677,1.677,0,0,0,111.745,145.235Z"/><rect class="cls-80" x="62.685" y="200.941" width="17.746" height="1.054"/><rect class="cls-81" x="65.063" y="204.736" width="1.555" height="47.909" transform="translate(131.681 457.38) rotate(180)"/><rect class="cls-82" x="77.653" y="200.642" width="12.335" height="1.505"/><rect class="cls-83" x="81.485" y="187.806" width="4.671" height="14.188"/><rect class="cls-84" x="56.318" y="202.011" width="68.345" height="2.724"/><path class="cls-70" d="M43.2,185.525s-.747,10.482,1.3,11.737c1.283.786,6.4,3.437,6.247,3.934s-2.888,4.422-2.888,4.422-9.827-6.471-10.144-8.51c-.309-1.992.484-15.348,1.835-15.964,1.011-.461,1.545-.08,2.82.867A2.985,2.985,0,0,1,43.2,185.525Z"/><path class="cls-85" d="M61.111,188.518l.866-.321s-1.08-2.536-1.552-2.473a11.82,11.82,0,0,0-1.22.249Z"/><path class="cls-86" d="M61.309,188.955c-.111-.083-1.841-3.4-1.841-3.4l-3.7.5,2,3.932Z"/><path class="cls-87" d="M55.292,246.1s-.306,2.121-.344,2.44-3.4-.188-3.4-.188l-.272-2.525S54.872,245.8,55.292,246.1Z"/><path class="cls-67" d="M54.984,248.273a9.075,9.075,0,0,0,2.095,1.835c1.03.557,2.648.778,3.257,1.354.44.417,1.6,2.209-2.676,2.173s-6.34.252-6.8-.434.663-5.072.663-5.072A9.051,9.051,0,0,0,54.984,248.273Z"/><path class="cls-87" d="M76.826,246.123s-.3,2.121-.344,2.44-3.4-.188-3.4-.188l-.272-2.525S76.406,245.824,76.826,246.123Z"/><path class="cls-67" d="M76.518,248.293a9.05,9.05,0,0,0,2.095,1.835c1.03.557,4.821,1.015,5.43,1.592.439.416,1.17,2.091-4.849,1.935-4.276-.111-6.34.253-6.8-.434s.663-5.071.663-5.071A8.222,8.222,0,0,0,76.518,248.293Z"/><path class="cls-67" d="M44.451,209.464s12.22,2.068,14.98,2.5,17.725,4.157,19.6,5.291c1.49.9-.782,22.6-1.312,30.872H71.821L71.393,223.3c-7.073.177-12.12-1.654-17.271-.872s-9.445,1.894-12.718-2.5C41.4,219.935,41.283,210.423,44.451,209.464Z"/><path class="cls-67" d="M56.5,248.15l-5.744-.355-.56-24.492a34.979,34.979,0,0,1-6.552-.415L39,212.107c4.064.813,17.087,4.1,18.823,5.15C59.314,218.161,57.026,239.872,56.5,248.15Z"/><path class="cls-52" d="M50.076,163.66s4.479-1.238,6.189,2.24.934,10.07-1.324,10.69-5.5-.094-6.441-2.259a16.613,16.613,0,0,1-1.461-7.231A4.369,4.369,0,0,1,50.076,163.66Z"/><path class="cls-52" d="M53.771,175.9a13.66,13.66,0,0,0,.242,3.208c.292.564-6.238.422-6.238.422a13.257,13.257,0,0,0,.446-5.881C47.643,170.967,53.771,175.9,53.771,175.9Z"/><path class="cls-88" d="M47.869,172.644s.349.709,2.039.595,3.919-2.154,4.636-2.336.761-.59.761-.59l.379.675.736.112s-.5-2.044.588-2.763-.49-6.515-6-5.117c0,0-4.2.77-4.262,3.118S47.052,171.4,47.869,172.644Z"/><path class="cls-80" d="M54.356,179.036s-.018-1.077-.506-1.18-5.133-.742-5.732-.507l-.257,1.422S49.016,179.482,54.356,179.036Z"/><path class="cls-52" d="M55.7,169.831c-.125-.883-1.129-1.9-1.7-.522s.388,3.378,1.033,3.271S55.87,171.029,55.7,169.831Z"/><path class="cls-70" d="M73.808,191.764H73.8C73.834,191.778,73.838,191.779,73.808,191.764Z"/><path class="cls-88" d="M48.769,164.291s-5.461-.257-.953,8.269Z"/><polygon class="cls-89" points="36.6 251.055 37.006 252.197 54.173 246.878 53.351 244.564 36.6 251.055"/><rect class="cls-89" x="52.811" y="227.4" width="1.951" height="18.664"/><rect class="cls-90" x="48.033" y="226.408" width="11.508" height="1.099"/><polygon class="cls-89" points="71.124 251.055 70.718 252.197 53.551 246.878 54.305 244.418 71.124 251.055"/><polygon class="cls-89" points="59.029 252.075 59.029 253.405 53.551 246.878 54.305 244.418 59.029 252.075"/><path class="cls-91" d="M72.729,252.645a1.6,1.6,0,1,1-1.605-1.605A1.6,1.6,0,0,1,72.729,252.645Z"/><path class="cls-91" d="M59.165,252.645a1.6,1.6,0,1,1-1.6-1.605A1.6,1.6,0,0,1,59.165,252.645Z"/><path class="cls-91" d="M38.205,252.645a1.6,1.6,0,1,1-1.6-1.605A1.6,1.6,0,0,1,38.205,252.645Z"/><rect class="cls-80" x="40.23" y="222.242" width="27.264" height="4.166" rx="2.083"/><rect class="cls-81" x="114.364" y="204.736" width="1.555" height="47.909"/><path class="cls-92" d="M67.381,166.187H100.26a3.728,3.728,0,0,1,3.728,3.728v21a3.728,3.728,0,0,1-3.728,3.728H67.382a3.729,3.729,0,0,1-3.729-3.729v-21A3.728,3.728,0,0,1,67.381,166.187Z"/><rect class="cls-93" x="65.233" y="167.725" width="37.175" height="22.457"/><path class="cls-83" d="M92.171,202.048v-.506s-.712-3.15-5.747-3.15-4.933,3.656-4.933,3.656Z"/><path class="cls-52" d="M81.429,198.861a4.966,4.966,0,0,0,1.5-.327c.4-.243,2.8-1.855,3.362-1.6s4.311,1.406,4.181,1.954-.477.5-.741.4a19.314,19.314,0,0,0-3.227-.572s2.674.975,2.684,1.687-.559.885-.813,1.154-.558.937-1.247.989-4.05-1.118-4.742-1.172a16.732,16.732,0,0,1-2.059-.07A19.02,19.02,0,0,1,81.429,198.861Z"/><path class="cls-70" d="M61.515,180.529c-3.488-.613-7.159-1.493-7.159-1.493l-6.5-.265a63.251,63.251,0,0,0-8.309,2.373c-.223.1-.224,5.319-.835,6.687l1.946,4.106s1.124,8.135,1.358,11.753c.107,1.661-.3,16.05-.3,16.05s.583.288,5.017.776,15.509-.176,15.579-.7-2.145-19.5-2.243-20.48c-.151-1.508.436-8.476.436-8.476.835,1.122,2.964,6.189,5.184,8.6,1.306,1.418,7.77,2.287,8.988,2.328,2.653.088,7.492.616,7.633.358.113-.154.422-4.295.119-4.4-.266-.088-9.251-.606-11.553-1.827-.843-.447-3.36-5.937-3.36-5.937S63.439,181.394,61.515,180.529Z"/><path class="cls-80" d="M41.038,193.284h4.449a7.176,7.176,0,0,1,7.176,7.176v11.689a7.176,7.176,0,0,1-7.176,7.176H41.038a7.177,7.177,0,0,1-7.177-7.177V200.461A7.177,7.177,0,0,1,41.038,193.284Z"/><path class="cls-80" d="M49.331,225.371a8.615,8.615,0,0,1-6.683-2.767c-3.758-4.149-3.083-11.444-3.053-11.753a1.047,1.047,0,0,1,2.083.206c-.008.083-.608,6.7,2.525,10.147a6.523,6.523,0,0,0,5.128,2.075,1.046,1.046,0,1,1,0,2.092Z"/><path class="cls-94" d="M68.4,169.514h9.821a.535.535,0,0,1,.535.535v.118a.534.534,0,0,1-.534.534H68.4a.535.535,0,0,1-.535-.535v-.118a.534.534,0,0,1,.534-.534Z"/><path class="cls-94" d="M68.4,172.058h9.82a.535.535,0,0,1,.535.535v.118a.534.534,0,0,1-.534.534H68.4a.534.534,0,0,1-.534-.534v-.117a.535.535,0,0,1,.535-.535Z"/><rect class="cls-94" x="67.869" y="174.977" width="10.89" height="13.416" rx="1.797"/><rect class="cls-94" x="80.957" y="169.514" width="19.392" height="18.879" rx="2.845"/><path class="cls-95" d="M100.521,192.445a1.305,1.305,0,1,1-1.263-.974A1.147,1.147,0,0,1,100.521,192.445Z"/><polygon class="cls-79" points="85.178 136.408 76.797 136.408 76.797 136.137 85.066 136.137 89.483 131.719 94.884 131.719 94.884 131.99 89.596 131.99 85.178 136.408"/><polygon class="cls-79" points="93.141 151.065 82.353 151.065 78.862 147.573 79.053 147.381 82.465 150.794 93.141 150.794 93.141 151.065"/><rect class="cls-78" x="90.271" y="133.826" width="11.193" height="1.373"/><rect class="cls-78" x="86.857" y="147.83" width="9.01" height="1.373"/></g></g></svg>