<svg xmlns="http://www.w3.org/2000/svg" xmlns:xlink="http://www.w3.org/1999/xlink" viewBox="0 0 292 292"><defs><style>.cls-1{fill:#ffd261;}.cls-2{fill:#fff;}.cls-21,.cls-23,.cls-29,.cls-3{fill:none;}.cls-21,.cls-23,.cls-3{stroke:#fff;}.cls-23,.cls-3{stroke-linecap:round;stroke-linejoin:round;}.cls-4{fill:#ff6344;}.cls-5{fill:url(#linear-gradient);}.cls-14,.cls-28,.cls-6{opacity:0.34;}.cls-6{fill:url(#linear-gradient-2);}.cls-7{fill:#3c57ab;}.cls-8{fill:url(#linear-gradient-3);}.cls-9{fill:#b38000;}.cls-10{fill:#ffb700;}.cls-11{fill:#c3d4fb;}.cls-12,.cls-17{opacity:0.2;}.cls-12{fill:url(#linear-gradient-4);}.cls-13{fill:#414657;}.cls-14{fill:url(#linear-gradient-5);}.cls-15{fill:url(#linear-gradient-6);}.cls-16{fill:url(#linear-gradient-7);}.cls-18{fill:#6582db;}.cls-19{fill:#5f9e7a;}.cls-20{fill:url(#linear-gradient-8);}.cls-21,.cls-29{stroke-miterlimit:10;}.cls-22{opacity:0.12;}.cls-23{stroke-width:0.892px;}.cls-24{fill:#92f2bb;}.cls-25{fill:url(#linear-gradient-9);}.cls-26{fill:url(#linear-gradient-10);}.cls-27{fill:#ff927d;}.cls-28{fill:url(#linear-gradient-11);}.cls-29{stroke:#535373;stroke-width:1.227px;}</style><linearGradient id="linear-gradient" x1="137.556" y1="218.202" x2="137.556" y2="239.733" gradientUnits="userSpaceOnUse"><stop offset="0" stop-color="#3c57ab"/><stop offset="1" stop-color="#6582db"/></linearGradient><linearGradient id="linear-gradient-2" x1="126.199" y1="221.858" x2="148.912" y2="221.858" gradientUnits="userSpaceOnUse"><stop offset="0"/><stop offset="1" stop-opacity="0"/></linearGradient><linearGradient id="linear-gradient-3" x1="137.556" y1="221.261" x2="137.556" y2="133.421" xlink:href="#linear-gradient"/><linearGradient id="linear-gradient-4" x1="171.126" y1="186.213" x2="200.069" y2="186.213" xlink:href="#linear-gradient-2"/><linearGradient id="linear-gradient-5" x1="213.708" y1="156.232" x2="215.309" y2="179.175" xlink:href="#linear-gradient-2"/><linearGradient id="linear-gradient-6" x1="197.636" y1="134.325" x2="199.663" y2="112.129" gradientUnits="userSpaceOnUse"><stop offset="0" stop-color="#4b7d61"/><stop offset="1" stop-color="#5f9e7a"/></linearGradient><linearGradient id="linear-gradient-7" x1="214.98" y1="151.776" x2="214.98" y2="130.639" xlink:href="#linear-gradient-6"/><linearGradient id="linear-gradient-8" x1="137.556" y1="168.972" x2="137.556" y2="220.622" gradientUnits="userSpaceOnUse"><stop offset="0.389" stop-color="#8debb4"/><stop offset="0.932" stop-color="#5f9e7a"/></linearGradient><linearGradient id="linear-gradient-9" x1="67.568" y1="223.323" x2="77.868" y2="223.323" gradientUnits="userSpaceOnUse"><stop offset="0" stop-color="#8a6200"/><stop offset="1" stop-color="#b38000"/></linearGradient><linearGradient id="linear-gradient-10" x1="64.122" y1="175.162" x2="64.122" y2="131.823" xlink:href="#linear-gradient-9"/><linearGradient id="linear-gradient-11" x1="202.309" y1="173.761" x2="206.864" y2="239.05" xlink:href="#linear-gradient-2"/></defs><title>solution</title><g id="Windows"><path class="cls-1" d="M75.488,125.111c38.563.343,76.858-13.781,94.571-45.039s55.139-32.52,79.132,4.314c19.1,29.323,34.8,118.812-34.253,142.794-69.4,24.1-118.556,14.559-158.956-13.18C7.134,180.462,32.724,124.731,75.488,125.111Z"/><path class="cls-2" d="M251.313,177.611a24.541,24.541,0,0,0,0-10.079h-5.632a18.784,18.784,0,0,0-1.788-4.312l3.98-3.98a24.558,24.558,0,0,0-7.127-7.127l-3.98,3.98a18.821,18.821,0,0,0-4.311-1.788v-5.632a24.546,24.546,0,0,0-10.08,0v5.632a18.828,18.828,0,0,0-4.312,1.788l-3.979-3.98a24.546,24.546,0,0,0-7.127,7.127l3.979,3.98a18.807,18.807,0,0,0-1.787,4.312h-5.633a24.541,24.541,0,0,0,0,10.079h5.633a18.826,18.826,0,0,0,1.787,4.312l-3.979,3.979a24.537,24.537,0,0,0,7.127,7.128l3.979-3.98a18.873,18.873,0,0,0,4.312,1.788v5.632a24.546,24.546,0,0,0,10.08,0v-5.632a18.866,18.866,0,0,0,4.311-1.788l3.98,3.98a24.549,24.549,0,0,0,7.127-7.128l-3.98-3.979a18.784,18.784,0,0,0,1.788-4.312Zm-23.9,1.346a6.386,6.386,0,1,1,6.386-6.386A6.394,6.394,0,0,1,227.415,178.957Z"/><path class="cls-2" d="M251.533,137.714a14.2,14.2,0,0,0,0-5.836h-3.261a10.834,10.834,0,0,0-1.035-2.5l2.3-2.305a14.206,14.206,0,0,0-4.126-4.126l-2.3,2.3a10.886,10.886,0,0,0-2.5-1.035v-3.261a14.2,14.2,0,0,0-5.836,0v3.261a10.886,10.886,0,0,0-2.5,1.035l-2.3-2.3a14.222,14.222,0,0,0-4.127,4.126l2.305,2.305a10.881,10.881,0,0,0-1.036,2.5h-3.261a14.2,14.2,0,0,0,0,5.836h3.261a10.889,10.889,0,0,0,1.036,2.5l-2.305,2.3a14.213,14.213,0,0,0,4.127,4.127l2.3-2.3a10.931,10.931,0,0,0,2.5,1.035v3.261a14.2,14.2,0,0,0,5.836,0v-3.261a10.931,10.931,0,0,0,2.5-1.035l2.3,2.3a14.2,14.2,0,0,0,4.126-4.127l-2.3-2.3a10.842,10.842,0,0,0,1.035-2.5ZM237.7,139.3A4.508,4.508,0,1,1,242.2,134.8,4.513,4.513,0,0,1,237.7,139.3Z"/><path class="cls-3" d="M195.236,134.355v-9.21a4.118,4.118,0,0,0-4.118-4.118H154.611"/><path class="cls-4" d="M164.384,118.709v4.635a.675.675,0,0,1-1.014.585l-4-2.318a.676.676,0,0,1,0-1.169l4-2.317A.675.675,0,0,1,164.384,118.709Z"/><rect class="cls-5" x="126.199" y="215.496" width="22.713" height="25.449"/><rect class="cls-6" x="126.199" y="215.496" width="22.713" height="12.724"/><path class="cls-7" d="M165.235,240.945c-4.715-3.449-15.331-5.854-27.679-5.854s-22.964,2.405-27.679,5.854Z"/><rect class="cls-8" x="75.043" y="139.876" width="125.027" height="83.984" rx="5.312"/><rect class="cls-2" x="81.462" y="146.107" width="112.188" height="71.521" rx="2.514"/><path class="cls-9" d="M109.673,177.931H91.939V163.545a1.439,1.439,0,0,1,1.439-1.439h4.437l1.374,2.473h9.032a1.451,1.451,0,0,1,1.452,1.451Z"/><path class="cls-10" d="M111.046,177.931H93.313V166.018a1.439,1.439,0,0,1,1.439-1.439h4.436l1.375,2.473H109.6a1.451,1.451,0,0,1,1.451,1.451Z"/><path class="cls-11" d="M109.851,182.592H93.135a1.2,1.2,0,0,1-1.2-1.2h0a1.2,1.2,0,0,1,1.2-1.195h16.716a1.2,1.2,0,0,1,1.2,1.195h0A1.2,1.2,0,0,1,109.851,182.592Z"/><path class="cls-9" d="M109.673,206.857H91.939V192.471a1.439,1.439,0,0,1,1.439-1.439h4.437l1.374,2.472h9.032a1.452,1.452,0,0,1,1.452,1.452Z"/><path class="cls-10" d="M111.046,206.857H93.313V194.944a1.439,1.439,0,0,1,1.439-1.439h4.436l1.375,2.472H109.6a1.452,1.452,0,0,1,1.451,1.452Z"/><path class="cls-11" d="M109.851,211.518H93.135a1.2,1.2,0,0,1-1.2-1.2h0a1.2,1.2,0,0,1,1.2-1.2h16.716a1.2,1.2,0,0,1,1.2,1.2h0A1.2,1.2,0,0,1,109.851,211.518Z"/><path class="cls-9" d="M181.8,177.931H164.066V163.545a1.439,1.439,0,0,1,1.439-1.439h4.436l1.374,2.473h9.032a1.451,1.451,0,0,1,1.452,1.451Z"/><path class="cls-10" d="M183.172,177.931H165.439V166.018a1.439,1.439,0,0,1,1.439-1.439h4.436l1.375,2.473h9.032a1.45,1.45,0,0,1,1.451,1.451Z"/><path class="cls-11" d="M181.977,182.592H165.261a1.2,1.2,0,0,1-1.195-1.2h0a1.2,1.2,0,0,1,1.195-1.195h16.716a1.2,1.2,0,0,1,1.195,1.195h0A1.2,1.2,0,0,1,181.977,182.592Z"/><path class="cls-9" d="M181.8,206.857H164.066V192.471a1.439,1.439,0,0,1,1.439-1.439h4.436l1.374,2.472h9.032a1.452,1.452,0,0,1,1.452,1.452Z"/><path class="cls-10" d="M183.172,206.857H165.439V194.944a1.439,1.439,0,0,1,1.439-1.439h4.436l1.375,2.472h9.032a1.451,1.451,0,0,1,1.451,1.452Z"/><path class="cls-11" d="M181.977,211.518H165.261a1.2,1.2,0,0,1-1.195-1.2h0a1.2,1.2,0,0,1,1.195-1.2h16.716a1.2,1.2,0,0,1,1.195,1.2h0A1.2,1.2,0,0,1,181.977,211.518Z"/><path class="cls-12" d="M171.126,162.837l24.5,61.023a4.53,4.53,0,0,0,4.443-4.526V148.567Z"/><path class="cls-11" d="M83.737,146.107H191.375a2.275,2.275,0,0,1,2.275,2.275v6.138a0,0,0,0,1,0,0H81.462a0,0,0,0,1,0,0v-6.138A2.275,2.275,0,0,1,83.737,146.107Z"/><circle class="cls-4" cx="195.044" cy="153.855" r="25.546" transform="translate(-47.157 209.101) rotate(-51.117)"/><path class="cls-7" d="M200.143,236.405l1.912,4.54H188.016a20.137,20.137,0,0,1,9.422-3.584Z"/><path class="cls-7" d="M228.307,236.405l1.911,4.54H216.179a20.137,20.137,0,0,1,9.422-3.584Z"/><path class="cls-13" d="M224.6,158.336l2.065,41.628s5.735,15.413,2.629,37.4h-4.421s-6.93-26.286-8.722-36.68c-1.33-7.715-2.867-24.613-2.867-24.613L204.8,202.951s2.389,9.08-3.465,34.41h-5.407s-1.545-22.68-.887-35.6c.887-17.444,10.544-43.878,10.544-43.878Z"/><path class="cls-14" d="M224.6,158.336l-19.014-.458s-.859,2.355-2.085,6.108l22.061,13.744Z"/><path class="cls-15" d="M204.325,130.069c-4.346,1.029-4.893,13.281-6.685,21.166l-12.253,7.27,1.445,5.914a4.42,4.42,0,0,1,3.187-2.867c2.629-.717,3.525-.06,5.347-1.852a8.618,8.618,0,0,1,4.809-2.688c2.151-.6,3.345-2.808,5.138-8.424S209.445,128.857,204.325,130.069Z"/><path class="cls-16" d="M223.992,151.89l.4-22.1c-11.739-2.524-20.068.275-20.068.275,0,1.016.9,30.766.9,30.766h18.041C228.37,160.835,223.583,156.9,223.992,151.89Z"/><polygon class="cls-17" points="215.072 154.551 212.147 157.878 210.194 154.551 214.133 133.474 213.41 131.437 216.626 131.437 216.01 133.474 215.072 154.551"/><circle class="cls-18" cx="88.911" cy="150.314" r="1.856"/><circle class="cls-18" cx="96.602" cy="150.314" r="1.856"/><circle class="cls-18" cx="104.292" cy="150.314" r="1.856"/><path class="cls-13" d="M136.644,159.35c-8.932,11.379-19.563,13.171-19.563,13.171s.449,11.241.727,18.2c.6,14.938,14.324,19.461,18.836,21.605,4.513-2.144,18.241-6.667,18.837-21.605.278-6.963.727-18.2.727-18.2S145.577,170.729,136.644,159.35Z"/><path class="cls-19" d="M137.556,158.453c-8.932,11.38-19.563,13.172-19.563,13.172s.448,11.241.726,18.2c.6,14.937,14.324,19.461,18.837,21.6,4.513-2.144,18.241-6.668,18.837-21.6.277-6.963.726-18.2.726-18.2S146.488,169.833,137.556,158.453Z"/><path class="cls-20" d="M137.556,206.719c-6.87-3.044-14.144-7.162-14.539-17.062l-.592-14.838a40.634,40.634,0,0,0,15.131-9.858,40.626,40.626,0,0,0,15.131,9.858l-.592,14.838C151.7,199.557,144.427,203.675,137.556,206.719Z"/><path class="cls-21" d="M137.556,206.719c-6.87-3.044-14.144-7.162-14.539-17.062l-.592-14.838a40.634,40.634,0,0,0,15.131-9.858,40.626,40.626,0,0,0,15.131,9.858l-.592,14.838C151.7,199.557,144.427,203.675,137.556,206.719Z"/><path class="cls-2" d="M143.027,185.867c0,.028,0,.057,0,.085a5.475,5.475,0,0,1-10.95,0c0-.086.008-.172.012-.258l-.774-.769a6.446,6.446,0,0,0-.09,1.027,6.327,6.327,0,0,0,12.653,0,6.478,6.478,0,0,0-.066-.868Z"/><path class="cls-2" d="M137.556,180.477a5.472,5.472,0,0,1,4.026,1.773l.6-.6a6.3,6.3,0,0,0-9.169-.092l.6.6A5.469,5.469,0,0,1,137.556,180.477Z"/><path class="cls-2" d="M137.648,188.827a2.105,2.105,0,0,1-1.488-.61l-5.644-5.6a.717.717,0,0,1,0-1.015h0a.717.717,0,0,1,1.014,0l5.643,5.6a.678.678,0,0,0,.954,0l7.973-7.917a.717.717,0,0,1,1.014,0h0a.718.718,0,0,1,0,1.015l-7.973,7.917A2.109,2.109,0,0,1,137.648,188.827Z"/><rect class="cls-18" x="17.97" y="172.86" width="30.198" height="7.527" rx="3.627"/><rect class="cls-10" x="20.887" y="176.176" width="17.25" height="1.03" rx="0.515"/><path class="cls-10" d="M41.933,176.7a.522.522,0,1,1-.522-.522A.522.522,0,0,1,41.933,176.7Z"/><path class="cls-10" d="M45.251,176.7a.522.522,0,1,1-.522-.522A.522.522,0,0,1,45.251,176.7Z"/><rect class="cls-18" x="17.97" y="188.514" width="30.198" height="7.527" rx="3.627"/><rect class="cls-2" x="20.887" y="191.83" width="17.25" height="1.03" rx="0.515"/><path class="cls-2" d="M41.933,192.352a.522.522,0,1,1-.522-.522A.522.522,0,0,1,41.933,192.352Z"/><path class="cls-2" d="M45.251,192.352a.522.522,0,1,1-.522-.522A.522.522,0,0,1,45.251,192.352Z"/><rect class="cls-18" x="17.97" y="204.168" width="30.198" height="7.527" rx="3.627"/><path class="cls-13" d="M39.51,208.005a.522.522,0,1,1-.522-.522A.522.522,0,0,1,39.51,208.005Z"/><path class="cls-13" d="M33.768,208.005a.522.522,0,1,1-.522-.522A.521.521,0,0,1,33.768,208.005Z"/><path class="cls-13" d="M28.027,208.005a.522.522,0,1,1-.522-.522A.522.522,0,0,1,28.027,208.005Z"/><path class="cls-13" d="M22.285,208.005a.522.522,0,1,1-.522-.522A.521.521,0,0,1,22.285,208.005Z"/><path class="cls-13" d="M45.251,208.005a.522.522,0,1,1-.522-.522A.521.521,0,0,1,45.251,208.005Z"/><g class="cls-22"><path d="M68.825,217.273a26.98,26.98,0,0,1,5.377.87,1.64,1.64,0,0,0,2.069-1.593v-3.473H65.97v-37.3a5.367,5.367,0,0,1,3.254-4.876c8.025-3.577,12.75-13.22,8.34-23.107A15.113,15.113,0,0,0,69.7,140.1c-12.364-5.282-24.262,3.646-24.262,15.353a16.908,16.908,0,0,0,10.1,15.477,5.435,5.435,0,0,1,3.186,4.994v59.354a2.079,2.079,0,0,0,2.078,2.078h3.094a2.078,2.078,0,0,0,2.078-2.078h10.3v-3.474a1.639,1.639,0,0,0-2.069-1.592,26.979,26.979,0,0,1-5.377.869v-4.631h3.653A1.352,1.352,0,0,0,73.83,225.1v-1.847a1.352,1.352,0,0,0-1.352-1.352H68.825ZM58.048,148.457a4.3,4.3,0,1,1,4.3,4.3A4.3,4.3,0,0,1,58.048,148.457Z"/></g><path class="cls-3" d="M64.122,134.355v-8.794a4.534,4.534,0,0,1,4.535-4.534h43.712"/><circle class="cls-18" cx="176.232" cy="76.657" r="14.469"/><path class="cls-7" d="M176.232,59.024a17.633,17.633,0,1,0,17.632,17.633A17.653,17.653,0,0,0,176.232,59.024Zm.725,10.366a52.567,52.567,0,0,0,6.986-.548,26.985,26.985,0,0,1,1.089,7.09h-8.075Zm0-1.45V60.533c2.694.406,5.048,3.045,6.511,6.909A51.763,51.763,0,0,1,176.957,67.94Zm-1.45-7.407V67.94a51.578,51.578,0,0,1-6.512-.5C170.458,63.578,172.812,60.939,175.507,60.533Zm0,8.857v6.542h-8.075a26.986,26.986,0,0,1,1.088-7.09A52.569,52.569,0,0,0,175.507,69.39Zm-9.525,6.542h-5.915a16.081,16.081,0,0,1,2.737-8.3q2.082.581,4.265.973A28.555,28.555,0,0,0,165.982,75.932Zm0,1.45a28.548,28.548,0,0,0,1.087,7.324q-2.182.39-4.265.973a16.075,16.075,0,0,1-2.737-8.3Zm1.45,0h8.075v6.542a52.569,52.569,0,0,0-6.987.548A26.986,26.986,0,0,1,167.432,77.382Zm8.075,7.992v7.407c-2.695-.406-5.049-3.045-6.512-6.909A51.764,51.764,0,0,1,175.507,85.374Zm1.45,7.407V85.374a51.763,51.763,0,0,1,6.511.5C182.005,89.736,179.651,92.375,176.957,92.781Zm0-8.857V77.382h8.075a26.985,26.985,0,0,1-1.089,7.09A52.553,52.553,0,0,0,176.957,83.924Zm9.524-6.542H192.4a16.074,16.074,0,0,1-2.736,8.3q-2.084-.579-4.266-.973A28.461,28.461,0,0,0,186.481,77.382Zm0-1.45a28.461,28.461,0,0,0-1.087-7.324q2.182-.39,4.266-.973a16.077,16.077,0,0,1,2.736,8.3Zm2.246-9.547c-1.227.324-2.49.6-3.788.828a15.616,15.616,0,0,0-3.588-5.9A16.233,16.233,0,0,1,188.727,66.385Zm-17.615-5.076a15.616,15.616,0,0,0-3.588,5.9c-1.3-.224-2.561-.5-3.788-.828A16.233,16.233,0,0,1,171.112,61.309Zm-7.376,25.62c1.227-.323,2.491-.6,3.788-.828a15.616,15.616,0,0,0,3.588,5.9A16.233,16.233,0,0,1,163.736,86.929Zm17.615,5.076a15.616,15.616,0,0,0,3.588-5.9c1.3.225,2.561.5,3.788.828A16.233,16.233,0,0,1,181.351,92.005Z"/><path class="cls-3" d="M45.831,157.689H38.6a5.533,5.533,0,0,0-5.533,5.533v7.788"/><path class="cls-3" d="M33.069,213.545v7.789a5.533,5.533,0,0,0,5.533,5.533H59.008"/><line class="cls-23" x1="33.069" y1="181.753" x2="33.069" y2="187.032"/><line class="cls-23" x1="33.069" y1="197.523" x2="33.069" y2="202.802"/><rect class="cls-19" x="71.435" y="64.052" width="42.819" height="25.21" rx="2.692"/><rect class="cls-13" x="71.435" y="71.653" width="42.819" height="6.745"/><path class="cls-13" d="M81.762,83.7a3.138,3.138,0,1,1-3.137-3.138A3.138,3.138,0,0,1,81.762,83.7Z"/><path class="cls-13" d="M84.9,83.7a3.138,3.138,0,1,1-3.138-3.138A3.138,3.138,0,0,1,84.9,83.7Z"/><path class="cls-24" d="M80.193,81a3.113,3.113,0,0,0,0,5.405,3.112,3.112,0,0,0,0-5.405Z"/><rect class="cls-24" x="75.487" y="66.892" width="16.008" height="1.921" rx="0.937"/><circle class="cls-17" cx="109.501" cy="86.838" r="10.021"/><line class="cls-3" x1="92.844" y1="91.144" x2="92.844" y2="121.027"/><path class="cls-2" d="M95.377,121.027a2.533,2.533,0,1,1-2.533-2.533A2.533,2.533,0,0,1,95.377,121.027Z"/><line class="cls-3" x1="152.386" y1="76.657" x2="120.906" y2="76.657"/><path class="cls-9" d="M70.423,217.273a26.992,26.992,0,0,1,5.377.87,1.64,1.64,0,0,0,2.068-1.593v-3.473h-10.3v-37.3a5.368,5.368,0,0,1,3.253-4.876c8.026-3.577,12.751-13.22,8.34-23.107A15.108,15.108,0,0,0,71.3,140.1c-12.364-5.282-24.262,3.646-24.262,15.353a16.907,16.907,0,0,0,10.1,15.477,5.436,5.436,0,0,1,3.187,4.994v59.354a2.078,2.078,0,0,0,2.078,2.078H65.49a2.078,2.078,0,0,0,2.078-2.078h10.3v-3.474a1.639,1.639,0,0,0-2.068-1.592,26.991,26.991,0,0,1-5.377.869v-4.631h3.652a1.352,1.352,0,0,0,1.352-1.352v-1.847a1.352,1.352,0,0,0-1.352-1.352H70.423ZM59.646,148.457a4.3,4.3,0,1,1,4.3,4.3A4.3,4.3,0,0,1,59.646,148.457Z"/><path class="cls-25" d="M71.9,217.408a23.05,23.05,0,0,1,4.36.874,1.234,1.234,0,0,0,1.608-1.18v-4.025H69.283a1.715,1.715,0,0,1-1.715-1.715v22.367a1.593,1.593,0,0,0,1.686,1.554h8.614v-4.026a1.234,1.234,0,0,0-1.608-1.18,23.05,23.05,0,0,1-4.36.874,1.336,1.336,0,0,1-1.477-1.334v-2.012a1.149,1.149,0,0,1,1.149-1.15h2.6a1.255,1.255,0,0,0,1.256-1.255v-2.04a1.256,1.256,0,0,0-1.256-1.256h-2.6a1.149,1.149,0,0,1-1.149-1.149v-2.013A1.337,1.337,0,0,1,71.9,217.408Z"/><path class="cls-26" d="M64.122,169.676a14.218,14.218,0,1,0-14.217-14.218A14.218,14.218,0,0,0,64.122,169.676Zm-.179-25.516a4.3,4.3,0,1,1-4.3,4.3A4.3,4.3,0,0,1,63.943,144.16Z"/><path class="cls-4" d="M102.555,118.709v4.635a.675.675,0,0,0,1.014.585l4-2.318a.675.675,0,0,0,0-1.169l-4-2.317A.675.675,0,0,0,102.555,118.709Z"/><path class="cls-4" d="M95.162,100.012H90.527A.676.676,0,0,1,89.942,99l2.318-4a.676.676,0,0,1,1.169,0l2.318,4A.676.676,0,0,1,95.162,100.012Z"/><path class="cls-4" d="M133.969,78.975V74.34a.675.675,0,0,1,1.014-.585l4,2.318a.676.676,0,0,1,0,1.169l-4,2.317A.675.675,0,0,1,133.969,78.975Z"/><path class="cls-27" d="M206.714,116v6.614a1.828,1.828,0,0,0,1.954,1.824l2.407-.164v4.749l2.211,3.047,4.3-3.047-.717-6.333s1.4-6,.358-8.094-4.689-3.495-6.661-3.226S205.729,113.581,206.714,116Z"/><polygon class="cls-2" points="211.075 129.024 212.683 131.239 210.515 133.191 209.301 129.062 211.075 127.545 211.075 129.024"/><polygon class="cls-2" points="217.587 129.024 214.658 131.098 217.273 133.474 219.293 128.984 217.393 127.314 217.587 129.024"/><polygon class="cls-4" points="212.683 131.239 214.658 131.098 215.486 131.85 214.812 133.474 212.782 133.474 211.998 131.856 212.683 131.239"/><polygon class="cls-2" points="213.791 154.551 210.866 157.878 208.913 154.551 212.853 133.474 214.73 133.474 213.791 154.551"/><path class="cls-13" d="M203.755,152.856H186.149v-8.8a8.8,8.8,0,0,1,17.606,0ZM188.1,150.908h13.711v-6.855a6.856,6.856,0,1,0-13.711,0Z"/><polygon class="cls-17" points="201.808 145.736 201.808 150.908 188.096 150.908 188.096 145.736 186.149 145.736 186.149 152.856 203.755 152.856 203.755 145.736 201.808 145.736"/><rect class="cls-2" x="183.482" y="148.445" width="22.94" height="19.475" rx="2.004"/><path class="cls-13" d="M197.393,157.286a2.181,2.181,0,1,0-2.968,2.028l-1.05,3.394h3.674L196,159.314A2.177,2.177,0,0,0,197.393,157.286Z"/><path class="cls-2" d="M207.876,89.3h-.536a11.572,11.572,0,0,0-21.491-5.958,7.141,7.141,0,0,0-11.08,5.958h-1.243a5.47,5.47,0,1,0,0,10.939h34.35a5.47,5.47,0,0,0,0-10.939Z"/><circle class="cls-2" cx="110.412" cy="86.838" r="9.109"/><path class="cls-13" d="M113.593,86.314V85.305a3.181,3.181,0,1,0-6.362,0v1.009h-.326v5.239h7.014V86.314Zm-4.928-1.009a1.748,1.748,0,1,1,3.495,0v1.009h-3.495Z"/><path class="cls-7" d="M150.048,134.355h-35.4v-28.72a2.873,2.873,0,0,1,2.873-2.873h8.856l2.744,4.936H147.15a2.9,2.9,0,0,1,2.9,2.9Z"/><path class="cls-18" d="M152.79,134.355h-35.4V110.572a2.873,2.873,0,0,1,2.873-2.873h8.857l2.743,4.936h18.032a2.9,2.9,0,0,1,2.9,2.9Z"/><path class="cls-2" d="M136.9,121.945v-1.009a3.182,3.182,0,1,0-6.363,0v1.009h-.325v5.239h7.013v-5.239Zm-4.929-1.009a1.748,1.748,0,1,1,3.5,0v1.009h-3.5Z"/><path class="cls-13" d="M211.523,113.223a16.968,16.968,0,0,0,2.6,4.869c.388-1.374,1.26-1.992,1.762-1.7,1.069.615,1.038,3.159-.448,4.062a24.213,24.213,0,0,0,1.434,2.24s.631-2.223,1.075-4.181c.807-3.555.389-7.946-4.271-7.975,0,0-2.838-3.585-7.109-2-4.755,1.763-3.316,5.825-3.316,5.825s-3.012,2.387-1.1,4.5a3.492,3.492,0,0,0,3.346.76,3.25,3.25,0,0,0,1.224,1.464V116S208.476,115.827,211.523,113.223Z"/><path class="cls-27" d="M205.178,159.422l-2.033,1.122s-4.973-1.031-7.214,2.128l.267.673a1.966,1.966,0,0,0,2.508,1.117,8.52,8.52,0,0,1,3.274-.625,5.49,5.49,0,0,0,4.48-1.792Z"/><path class="cls-17" d="M217.011,123.941l-.141-1.25s.049-.207.12-.557l-1.554-1.683c-1.877,2.585-6.3,3.948-7.123,3.975a1.745,1.745,0,0,0,.355.013l2.407-.164v3.27Z"/><path class="cls-19" d="M224.393,129.794c-3.808-.552-5.279,13.556-7.071,21.441l-13.475,7.628,2.667,5.556a4.42,4.42,0,0,1,3.187-2.867c2.629-.717,3.525-.06,5.347-1.852a8.618,8.618,0,0,1,4.809-2.688c2.151-.6,3.345-2.808,5.137-8.424S229.6,130.55,224.393,129.794Z"/><path class="cls-28" d="M195.931,237.361h5.407c5.854-25.33,3.465-34.41,3.465-34.41l8.483-26.883-18.334,39.344C195.187,226.424,195.931,237.361,195.931,237.361Z"/><line class="cls-29" x1="256.536" y1="240.945" x2="34.938" y2="240.945"/></g></svg>