<svg id="Layer_1" data-name="Layer 1" xmlns="http://www.w3.org/2000/svg" viewBox="0 0 1920 1080"><defs><style>.cls-1{fill:#138690;stroke:#138690;stroke-miterlimit:10;}</style></defs><title>Logo</title><path class="cls-1" d="M952,640.61v49.13h16V640.61a32,32,0,1,0-16,0Zm8-46.87a16,16,0,1,1-16,16A16,16,0,0,1,960,593.75Z"/><path class="cls-1" d="M1136,432.83V337.75h-98.48l-58.21-56.2c-10.43-10.06-28.19-10.06-38.62,0l-58.2,56.2H784v95.08l-72,69.52v267.4h496V502.35ZM873,621.43a120.31,120.31,0,0,0,9.23,33.63L728,747.62V521ZM800,417.75h320V551.39l-72,49.85v-27.5l-3.2-2.4a107.25,107.25,0,0,0-12.8-7.79V521.75a72,72,0,1,0-144,0v41.81a105.71,105.71,0,0,0-12.8,7.79l-3.2,2.4v27.5l-72-49.85Zm88,188.48V582a138,138,0,0,1,144,0v24.2a103.58,103.58,0,0,1-72,99.14A103.59,103.59,0,0,1,888,606.23Zm128-49.94a159,159,0,0,0-16-5.22V521.75a40,40,0,1,0-80,0v29.33a159,159,0,0,0-16,5.22V521.75a56,56,0,1,1,112,0Zm-32-8.6a149.61,149.61,0,0,0-48,0V521.75a24,24,0,1,1,48,0ZM889.69,669.27a119.67,119.67,0,0,0,68,52.14l2.3.69,2.3-.69a119.72,119.72,0,0,0,68-52.15l140.81,84.48H748.88Zm148-14.21a120.29,120.29,0,0,0,9.23-33.64L1192,521v226.6Zm149.69-150.34L1136,540.32V455.09ZM951.8,293.06a12.1,12.1,0,0,1,16.39,0l46.29,44.69h-109ZM1120,353.75v48H800v-48ZM784,540.32l-51.43-35.6L784,455.09Z"/><path class="cls-1" d="M816,369.75h16v16H816Z"/><path class="cls-1" d="M848,369.75h16v16H848Z"/><path class="cls-1" d="M880,369.75h16v16H880Z"/><path class="cls-1" d="M816,433.75h56v16H816Z"/><path class="cls-1" d="M816,465.75h56v16H816Z"/><path class="cls-1" d="M816,497.75h56v16H816Z"/><path class="cls-1" d="M1048,433.75h56v16h-56Z"/><path class="cls-1" d="M1048,465.75h56v16h-56Z"/><path class="cls-1" d="M1048,497.75h56v16h-56Z"/></svg>