<svg width="80" height="80" viewBox="0 0 80 80" fill="none" xmlns="http://www.w3.org/2000/svg">
<path d="M63.4375 37.6562C56.9761 37.6562 51.7188 42.9136 51.7188 49.375C51.7188 55.8364 56.9761 61.0938 63.4375 61.0938C69.8989 61.0938 75.1562 55.8364 75.1562 49.375C75.1562 42.9136 69.8989 37.6562 63.4375 37.6562Z" fill="#138690"/>
<path d="M74.883 61.0938C71.9238 63.9842 67.8903 65.7812 63.4375 65.7812C58.9847 65.7812 54.9511 63.9842 51.992 61.0938C48.9402 64.075 47.0312 68.22 47.0312 72.8125V77.6562C47.0312 78.9517 48.0795 80 49.375 80H77.6562C78.9517 80 80 78.9517 80 77.6562V72.8125C80 68.22 77.9348 64.075 74.883 61.0938Z" fill="#138690"/>
<path d="M16.5625 0C10.1011 0 4.84375 5.41359 4.84375 11.875C4.84375 18.3364 10.1011 23.5938 16.5625 23.5938C23.0239 23.5938 28.2812 18.3364 28.2812 11.875C28.2812 5.41359 23.0239 0 16.5625 0Z" fill="#138690"/>
<path d="M28.008 23.5938C25.0488 26.4842 21.0153 28.2812 16.5625 28.2812C12.1097 28.2812 8.07609 26.4842 5.11703 23.5938C2.06516 26.575 0 30.72 0 35.3125V40C0 41.2955 1.04828 42.3438 2.34375 42.3438H30.625C31.9205 42.3438 32.9688 41.2955 32.9688 40V35.3125C32.9688 30.72 31.0598 26.575 28.008 23.5938Z" fill="#138690"/>
<path d="M39.9996 9.53125C37.5589 9.53125 35.1637 9.88719 32.8248 10.4536C32.8665 10.9297 32.9684 11.3883 32.9684 11.875C32.9684 13.0548 32.8304 14.2009 32.5928 15.3108C34.98 14.5961 37.47 14.2188 39.9996 14.2188C51.8259 14.2188 61.7923 22.2331 64.8173 33.1084C66.6078 33.2606 68.335 33.6314 69.9165 34.3147C67.2432 20.2252 54.855 9.53125 39.9996 9.53125Z" fill="#138690"/>
<path d="M40.0003 65.7812C28.2244 65.7812 18.2894 57.8359 15.2185 47.0312H10.3833C13.5702 60.4475 25.6238 70.4688 40.0003 70.4688C40.8713 70.4688 41.7321 70.4095 42.5905 70.3377C42.7877 68.6652 43.1485 67.0386 43.73 65.4819C42.5017 65.6597 41.2617 65.7812 40.0003 65.7812Z" fill="#138690"/>
</svg>
