<svg width="40" height="40" viewBox="0 0 40 40" fill="none" xmlns="http://www.w3.org/2000/svg">
<g clip-path="url(#clip0)">
<path d="M39.5 19.999C39.5 30.7686 30.7696 39.499 20 39.499C9.23045 39.499 0.5 30.7686 0.5 19.999C0.5 9.22947 9.23045 0.499023 20 0.499023C30.7696 0.499023 39.5 9.22947 39.5 19.999Z" stroke="white"/>
<path d="M31.9494 21.609V29.8546H27.1689V22.1616C27.1689 20.23 26.4787 18.9108 24.7478 18.9108C23.4269 18.9108 22.6422 19.7989 22.2956 20.6589C22.1698 20.9662 22.1373 21.3929 22.1373 21.824V29.8542H17.3564C17.3564 29.8542 17.4206 16.8249 17.3564 15.4761H22.1377V17.5136C22.1281 17.5297 22.1145 17.5454 22.106 17.5607H22.1377V17.5136C22.773 16.5361 23.906 15.1385 26.4462 15.1385C29.5914 15.1385 31.9494 17.1935 31.9494 21.609ZM12.3552 8.54541C10.7198 8.54541 9.6499 9.61889 9.6499 11.0293C9.6499 12.4097 10.6888 13.5142 12.2924 13.5142H12.3234C13.9909 13.5142 15.0276 12.4097 15.0276 11.0293C14.9959 9.61889 13.9909 8.54541 12.3552 8.54541ZM9.93405 29.8546H14.7132V15.4761H9.93405V29.8546Z" fill="white"/>
</g>
<defs>
<clipPath id="clip0">
<rect width="40" height="40" fill="white"/>
</clipPath>
</defs>
</svg>
