<svg width="80" height="80" viewBox="0 0 80 80" fill="none" xmlns="http://www.w3.org/2000/svg">
<path d="M7.03125 47.1875H2.34375C1.04828 47.1875 0 48.2358 0 49.5312V77.6562C0 78.9517 1.04828 80 2.34375 80H7.03125C10.9084 80 14.0625 76.8459 14.0625 72.9688V54.2188C14.0625 50.3416 10.9086 47.1875 7.03125 47.1875Z" fill="#138690"/>
<path d="M79.297 51.7343C79.0158 51.2657 78.641 50.8906 78.2191 50.5624C76.4933 49.0527 73.5856 49.1954 71.8911 51.0313L61.2503 63.3126C59.8031 64.9654 58.0966 65.9376 55.7661 65.9376H37.2661C35.9535 65.9376 34.9224 64.9062 34.9224 63.5938C34.9224 62.2812 35.9535 61.2501 37.2661 61.2501H51.8755C54.4536 61.2501 56.563 59.1407 56.563 56.5626V56.5157C56.5161 53.9376 54.4536 51.8751 51.8755 51.8751H43.0786C41.673 51.8751 40.1667 51.359 38.9536 50.3281C33.235 45.3124 24.8911 44.9843 18.7505 49.2501V78.0781C23.3911 79.3438 28.1724 80.0001 33.0003 80.0001H54.2192C59.3753 80.0001 64.2505 77.5624 67.3442 73.4374L78.5944 58.4374C80.2355 56.2827 80.3592 53.3282 79.297 51.7343Z" fill="#138690"/>
<path d="M37.6562 18.75V31.0903L41.0437 28.8313C41.8309 28.3047 42.8564 28.3047 43.6438 28.8313L47.0312 31.0903V18.75H37.6562Z" fill="#138690"/>
<path d="M65.5439 1.04375C65.1091 0.391406 64.3766 0 63.5938 0H51.7188V14.0625H74.223L65.5439 1.04375Z" fill="#138690"/>
<path d="M47.0303 0H37.6553V14.0625H47.0303V0Z" fill="#138690"/>
<path d="M51.7186 18.75V35.4688C51.7186 36.3339 51.2425 37.1281 50.4803 37.5356C49.7278 37.9392 48.8006 37.9028 48.0747 37.4189L42.3434 33.5989L36.6122 37.4189C35.8934 37.895 34.9665 37.943 34.2065 37.5356C33.4444 37.1283 32.9683 36.3341 32.9683 35.4688V18.75H9.37451V42.7369C11.6645 43.2038 13.7139 44.3398 15.3079 45.9323L16.0739 45.3998C19.6536 42.9142 23.8444 41.6005 28.1954 41.6005C33.2998 41.6005 38.2162 43.4475 42.0433 46.803C42.3637 47.0731 42.7962 47.1875 43.0778 47.1875H51.875C56.9494 47.1875 61.0142 51.1083 61.2408 56.1642L68.3475 47.9611C70.1969 45.9527 72.6983 44.8627 75.3123 44.8489V18.75H51.7186ZM68.2811 42.5H58.9061C57.6106 42.5 56.5623 41.4517 56.5623 40.1563C56.5623 38.8608 57.6106 37.8125 58.9061 37.8125H68.2811C69.5765 37.8125 70.6248 38.8608 70.6248 40.1563C70.6248 41.4517 69.5765 42.5 68.2811 42.5Z" fill="#138690"/>
<path d="M21.0936 0C20.3108 0 19.5784 0.391406 19.1436 1.04375L10.4644 14.0625H32.9686V0H21.0936Z" fill="#138690"/>
</svg>
