<svg xmlns="http://www.w3.org/2000/svg" viewBox="0 0 292 292"><defs><style>.cls-1{isolation:isolate;}.cls-2{fill:#eae6ff;}.cls-3{fill:#cdccff;}.cls-4{fill:#d7d7ff;}.cls-5{fill:#bdc6f9;}.cls-6{fill:#8784ef;}.cls-7{fill:#9aa3f4;}.cls-40,.cls-47,.cls-8{fill:none;}.cls-8{stroke:#9aa3f4;stroke-width:1.5px;}.cls-47,.cls-8{stroke-miterlimit:10;}.cls-9{fill:#4a41a3;}.cls-10,.cls-26{fill:#5851bc;}.cls-11,.cls-24{fill:#c4c3fc;}.cls-12,.cls-26,.cls-27{opacity:0.35;}.cls-13,.cls-50{fill:#fff;}.cls-14,.cls-44{opacity:0.25;}.cls-14,.cls-17,.cls-19,.cls-24,.cls-26,.cls-27,.cls-44{mix-blend-mode:multiply;}.cls-15{fill:#fca70c;}.cls-16{fill:#b1affd;}.cls-17{opacity:0.15;}.cls-18{opacity:0.26;}.cls-19{opacity:0.62;}.cls-20{fill:#d5dbda;}.cls-21{fill:#efefef;}.cls-22{fill:#7a7ae5;}.cls-23{fill:#cfcfff;}.cls-24{opacity:0.55;}.cls-25{fill:#a4a4f7;}.cls-28{fill:#a2a7f4;}.cls-29{fill:#9090f4;}.cls-30,.cls-47,.cls-50{opacity:0.45;}.cls-31{fill:#e2deff;}.cls-32{fill:#f9c110;}.cls-33{fill:#5045af;}.cls-34{fill:#ffb9b0;}.cls-35{fill:#7762ef;}.cls-36{fill:#5146af;}.cls-37{fill:#8484ef;}.cls-38{fill:#c4c4f7;}.cls-39{fill:#bbbbf2;}.cls-40{stroke:#c4c4f7;stroke-linecap:round;stroke-linejoin:round;stroke-width:0.75px;}.cls-41{fill:#ed9c80;}.cls-42{fill:#38287c;}.cls-43{fill:#453087;}.cls-44,.cls-46{fill:#ce4a30;}.cls-45{fill:#7a74d1;}.cls-47{stroke:#a4a4f7;}.cls-48{fill:#483a99;}.cls-49{fill:#d5d2ff;}.cls-51{fill:#a9adff;}.cls-52{fill:#f2a181;}.cls-53{fill:#5e5dbb;}.cls-54{fill:#b4b4db;}.cls-55{fill:#6960c4;}.cls-56{fill:#170d54;}.cls-57{fill:#ffbe9d;}.cls-58{fill:#3b2e7a;}.cls-59{fill:#e9e6ff;}.cls-60{fill:#e0d9ff;}.cls-61{opacity:0.3;}.cls-62{fill:#3939d3;}.cls-63{fill:#fefefe;}</style></defs><title>solution</title><g class="cls-1"><g id="Windows"><path class="cls-2" d="M286.176,173.72c-4.952-13.807-12.751-18.008-20.168-26.864-9.059-10.816-15.169-18.679-12.817-32.591,3.843-22.733,5.489-79.428-54.694-72.017C176.926,44.9,159.88,61.434,147.479,77.935c-10.552,14.04-29.533,15.279-44.812,18.552-18.771,4.022-37.893,10.1-55.261,19C11.637,133.819.954,160.174,2.413,193.9c.441,10.187,1.882,26.235,19.092,45.012,23.228,25.344,56.981,28.738,97.606,17.1,9.3-2.664,18.089-6.843,27.237-9.989a128.528,128.528,0,0,1,29.394-6.382c23.333-2.257,47.52,1.824,69.9-5.143A73.747,73.747,0,0,0,276.909,215.1C287.6,203.905,291.4,188.293,286.176,173.72Z"/><path class="cls-3" d="M21.505,225.735c0,3.33,42.26,6.032,94.4,6.032s94.388-2.7,94.388-6.032S168.029,219.7,115.9,219.7,21.505,222.4,21.505,225.735Z"/><path class="cls-3" d="M79.105,233.182c0,2.084-10.729,3.774-23.963,3.774s-23.962-1.69-23.962-3.774,10.728-3.775,23.962-3.775S79.105,231.1,79.105,233.182Z"/><ellipse class="cls-3" cx="238.511" cy="233.97" rx="40.206" ry="2.987"/><polygon class="cls-4" points="30.93 184.304 29.386 205.926 50.012 205.926 48.591 184.263 30.93 184.304"/><path class="cls-2" d="M35.021,186.2h0a.661.661,0,0,1,.706-.6h0a.607.607,0,1,1,0,1.2h0A.662.662,0,0,1,35.021,186.2Zm.707-.372a.383.383,0,1,0,0,.74h0a.382.382,0,1,0,0-.74Zm-.6.371h0Z"/><path class="cls-2" d="M42.053,186.188h0a.547.547,0,0,1,.165-.388.761.761,0,0,1,.54-.212h0a.66.66,0,0,1,.707.6.551.551,0,0,1-.215.431.769.769,0,0,1-.491.169h0A.661.661,0,0,1,42.053,186.188Zm.705-.372a.534.534,0,0,0-.378.146.315.315,0,0,0-.1.225h0a.437.437,0,0,0,.479.369h0a.549.549,0,0,0,.348-.117.332.332,0,0,0,.13-.254.437.437,0,0,0-.479-.369Z"/><path class="cls-2" d="M39.034,190.551l.2,0a3.792,3.792,0,0,0,2.928-1.237,4.393,4.393,0,0,0,.823-3.158.226.226,0,0,0-.258-.193.229.229,0,0,0-.194.258,4,4,0,0,1-.723,2.8,3.364,3.364,0,0,1-2.591,1.07,3.064,3.064,0,0,1-2.508-.875,4.166,4.166,0,0,1-.757-2.982.228.228,0,0,0-.452-.065,4.556,4.556,0,0,0,.867,3.351A3.405,3.405,0,0,0,39.034,190.551Z"/><polygon class="cls-5" points="40.63 190.364 38.165 206.441 60.559 206.388 58.291 190.323 40.63 190.364"/><path class="cls-6" d="M32.336,217.508a4.542,4.542,0,1,0,4.542,4.542A4.543,4.543,0,0,0,32.336,217.508Zm0,6.651a2.109,2.109,0,1,1,2.118-2.109A2.107,2.107,0,0,1,32.336,224.159Z"/><path class="cls-7" d="M31.589,217.508a4.542,4.542,0,1,0,4.542,4.542A4.543,4.543,0,0,0,31.589,217.508Zm0,6.651a2.109,2.109,0,1,1,2.118-2.109A2.107,2.107,0,0,1,31.589,224.159Z"/><path class="cls-6" d="M58,217.508a4.542,4.542,0,1,0,4.542,4.542A4.543,4.543,0,0,0,58,217.508Zm0,6.651a2.109,2.109,0,1,1,2.117-2.109A2.108,2.108,0,0,1,58,224.159Z"/><path class="cls-7" d="M57.251,217.508a4.542,4.542,0,1,0,4.542,4.542A4.543,4.543,0,0,0,57.251,217.508Zm0,6.651a2.109,2.109,0,1,1,2.118-2.109A2.108,2.108,0,0,1,57.251,224.159Z"/><path class="cls-8" d="M92.278,166.524H78.63a4.157,4.157,0,0,0-3.528,1.96l-8.249,13.244"/><path class="cls-8" d="M30.186,206.071h30.5a3.306,3.306,0,0,0,3.264-2.783L67.1,183.6a3.307,3.307,0,0,0-3.265-3.83H27.03a3.307,3.307,0,0,0-3.264,3.83l3.155,19.685A3.307,3.307,0,0,0,30.186,206.071Z"/><line class="cls-8" x1="45.434" y1="179.773" x2="45.434" y2="206.071"/><line class="cls-8" x1="65.609" y1="192.922" x2="25.26" y2="192.922"/><line class="cls-8" x1="57.479" y1="179.773" x2="54.869" y2="206.071"/><line class="cls-8" x1="33.992" y1="179.773" x2="36.401" y2="206.071"/><path class="cls-8" d="M63.228,204.875l4.941,7.347a3.01,3.01,0,0,1-2.5,4.689H25.26"/><rect class="cls-9" x="127.592" y="208.364" width="41.834" height="11.254"/><rect class="cls-10" x="76.219" y="107.704" width="145.023" height="104.335" rx="9.387"/><rect class="cls-11" x="80.269" y="111.508" width="136.48" height="90.52" rx="5.768"/><path class="cls-10" d="M116.507,218.639h64a6.9,6.9,0,0,1,6.9,6.9v.2a0,0,0,0,1,0,0h-77.8a0,0,0,0,1,0,0v-.2a6.9,6.9,0,0,1,6.9-6.9Z"/><g class="cls-12"><rect class="cls-13" x="112.862" y="117.76" width="95.496" height="64.19" rx="4.184"/></g><g class="cls-14"><rect class="cls-15" x="121.938" y="164.65" width="4.16" height="10.443"/><rect class="cls-16" x="131.311" y="155.483" width="4.16" height="19.611"/><rect class="cls-15" x="140.685" y="157.51" width="4.16" height="17.583"/><rect class="cls-16" x="150.059" y="147.583" width="4.16" height="27.51"/><g class="cls-17"><rect class="cls-18" x="131.311" y="155.483" width="1.909" height="19.611"/></g><g class="cls-17"><rect class="cls-18" x="121.938" y="164.65" width="1.909" height="10.443"/></g><g class="cls-19"><rect class="cls-18" x="150.059" y="147.583" width="1.909" height="27.51"/></g><g class="cls-17"><rect class="cls-18" x="140.685" y="157.51" width="1.909" height="17.583"/></g><polygon class="cls-20" points="156.42 177.968 119.191 177.968 119.191 138.326 119.759 138.326 119.759 177.4 156.42 177.4 156.42 177.968"/><polygon class="cls-20" points="123.015 159.76 122.635 159.337 132.374 150.592 141.395 152.552 151.162 141.678 151.585 142.057 141.596 153.177 132.537 151.209 123.015 159.76"/><polygon class="cls-20" points="152.35 143.664 149.596 141.023 153.152 140.071 152.35 143.664"/><rect class="cls-16" x="159.945" y="163.91" width="2.857" height="2.857"/><rect class="cls-15" x="159.945" y="168.915" width="2.857" height="2.857"/><rect class="cls-21" x="163.589" y="170.148" width="9.055" height="1.623"/><rect class="cls-21" x="163.589" y="165.143" width="9.055" height="1.623"/><rect class="cls-16" x="176.745" y="163.91" width="2.857" height="2.857"/><rect class="cls-15" x="176.745" y="168.915" width="2.857" height="2.857"/><rect class="cls-21" x="180.389" y="170.148" width="9.055" height="1.623"/><rect class="cls-21" x="180.389" y="165.143" width="9.055" height="1.623"/><rect class="cls-16" x="191.873" y="163.91" width="2.857" height="2.857"/><rect class="cls-15" x="191.873" y="168.915" width="2.857" height="2.857"/><rect class="cls-21" x="195.517" y="170.148" width="5.959" height="1.623"/><rect class="cls-21" x="195.517" y="165.143" width="5.959" height="1.623"/><rect class="cls-21" x="160.48" y="136.615" width="40.997" height="0.745"/><rect class="cls-21" x="119.191" y="127.467" width="82.286" height="1.706"/><rect class="cls-21" x="160.357" y="138.933" width="41.12" height="0.745"/><rect class="cls-21" x="160.357" y="134.297" width="41.12" height="0.745"/><rect class="cls-21" x="160.357" y="141.251" width="41.12" height="0.745"/><rect class="cls-21" x="160.357" y="143.569" width="41.12" height="0.745"/><rect class="cls-21" x="160.357" y="145.887" width="41.12" height="0.745"/><rect class="cls-21" x="160.357" y="148.205" width="41.12" height="0.745"/><rect class="cls-21" x="160.357" y="150.523" width="41.12" height="0.745"/><rect class="cls-21" x="160.357" y="152.841" width="41.12" height="0.745"/><rect class="cls-21" x="165.391" y="155.159" width="36.085" height="0.745"/><path class="cls-22" d="M204.174,117.76H117.047a4.185,4.185,0,0,0-4.185,4.184v3.663h95.5v-3.663A4.184,4.184,0,0,0,204.174,117.76Z"/><path class="cls-23" d="M196.076,121.827a1.207,1.207,0,1,1-1.207-1.207A1.206,1.206,0,0,1,196.076,121.827Z"/><circle class="cls-23" cx="199.787" cy="121.827" r="1.206"/><circle class="cls-23" cx="204.704" cy="121.827" r="1.206"/></g><rect class="cls-24" x="87.495" y="131.958" width="95.496" height="64.19" rx="4.184"/><rect class="cls-13" x="89.432" y="129.459" width="95.496" height="64.19" rx="4.184"/><rect class="cls-15" x="98.508" y="176.349" width="4.16" height="10.443"/><rect class="cls-16" x="107.881" y="167.182" width="4.16" height="19.611"/><rect class="cls-15" x="117.255" y="169.209" width="4.16" height="17.583"/><rect class="cls-16" x="126.629" y="159.282" width="4.16" height="27.51"/><g class="cls-17"><rect class="cls-18" x="107.881" y="167.182" width="1.909" height="19.611"/></g><g class="cls-17"><rect class="cls-18" x="98.508" y="176.349" width="1.909" height="10.443"/></g><g class="cls-19"><rect class="cls-18" x="126.629" y="159.282" width="1.909" height="27.51"/></g><g class="cls-17"><rect class="cls-18" x="117.255" y="169.209" width="1.909" height="17.583"/></g><polygon class="cls-20" points="132.99 189.667 95.761 189.667 95.761 153.566 96.328 153.566 96.328 189.099 132.99 189.099 132.99 189.667"/><polygon class="cls-20" points="99.585 171.458 99.205 171.036 108.944 162.291 117.965 164.251 127.732 153.377 128.155 153.756 118.166 164.876 109.107 162.908 99.585 171.458"/><polygon class="cls-20" points="128.92 155.363 126.166 152.721 129.722 151.77 128.92 155.363"/><rect class="cls-16" x="136.515" y="175.609" width="2.857" height="2.857"/><rect class="cls-15" x="136.515" y="180.614" width="2.857" height="2.857"/><rect class="cls-21" x="140.159" y="181.847" width="9.055" height="1.623"/><rect class="cls-21" x="140.159" y="176.842" width="9.055" height="1.623"/><rect class="cls-16" x="153.315" y="175.609" width="2.857" height="2.857"/><rect class="cls-15" x="153.315" y="180.614" width="2.857" height="2.857"/><rect class="cls-21" x="156.959" y="181.847" width="9.055" height="1.623"/><rect class="cls-21" x="156.959" y="176.842" width="9.055" height="1.623"/><rect class="cls-16" x="168.443" y="175.609" width="2.857" height="2.857"/><rect class="cls-15" x="168.443" y="180.614" width="2.857" height="2.857"/><rect class="cls-21" x="172.087" y="181.847" width="5.959" height="1.623"/><rect class="cls-21" x="172.087" y="176.842" width="5.959" height="1.623"/><rect class="cls-21" x="137.05" y="148.314" width="40.996" height="0.745"/><rect class="cls-21" x="95.761" y="139.166" width="82.286" height="1.706"/><rect class="cls-21" x="136.927" y="150.632" width="41.119" height="0.745"/><rect class="cls-21" x="136.927" y="145.996" width="41.119" height="0.745"/><rect class="cls-21" x="136.927" y="152.95" width="41.119" height="0.745"/><rect class="cls-21" x="136.927" y="155.268" width="41.119" height="0.745"/><rect class="cls-21" x="136.927" y="157.586" width="41.119" height="0.745"/><rect class="cls-21" x="136.927" y="159.904" width="41.119" height="0.745"/><rect class="cls-21" x="136.927" y="162.222" width="41.119" height="0.745"/><rect class="cls-21" x="136.927" y="164.54" width="41.119" height="0.745"/><rect class="cls-21" x="141.961" y="166.858" width="36.085" height="0.745"/><path class="cls-25" d="M180.744,129.459H93.617a4.185,4.185,0,0,0-4.185,4.184v3.663h95.5v-3.663A4.184,4.184,0,0,0,180.744,129.459Z"/><path class="cls-23" d="M172.646,133.526a1.207,1.207,0,1,1-1.207-1.207A1.207,1.207,0,0,1,172.646,133.526Z"/><path class="cls-23" d="M177.563,133.526a1.207,1.207,0,1,1-1.206-1.207A1.206,1.206,0,0,1,177.563,133.526Z"/><path class="cls-23" d="M182.481,133.526a1.207,1.207,0,1,1-1.207-1.207A1.207,1.207,0,0,1,182.481,133.526Z"/><path class="cls-26" d="M212.975,107.777H190.612q.23,10.877.369,21.756a8.63,8.63,0,0,1-.4,3.278h-.034c-.3-.016-.165.077-.267.607l-.007.024a6.714,6.714,0,0,1-4.387,2.665.428.428,0,0,0,.027.239.551.551,0,0,0-.173.676c.1.242,1.39.57,3.136.382a8.3,8.3,0,0,0,1.937-.537,3,3,0,0,0,.713-.486,2.532,2.532,0,0,0,.654-.157l.071.066,2-.871s-.219-1.262-.392-1.92a1.122,1.122,0,0,0-.132-.309,91.836,91.836,0,0,0,3.927-13.955c-.365,5.89-2.481,17.856-2.638,18.268a3.07,3.07,0,0,1-2.543,1.785c-.474.04-2.8-.095-2.552.977.06.256,1.269.8,3.022.92a8.348,8.348,0,0,0,2-.193,3.708,3.708,0,0,0,1.247-.68l.27.361,2.121-.511s0-.553-.016-1.218a2.7,2.7,0,0,0-.455-1.293l.03-1.207,1.175-.139s2.362-7.639,3.484-10.238a22.828,22.828,0,0,0,1.27-3.255,23.493,23.493,0,0,0,.487-4.072,35.969,35.969,0,0,1,1.366-7.353,1.085,1.085,0,0,1,.2-.429,1.136,1.136,0,0,1,.773-.27c3.006-.275,4.384.236,6.265-.347,2.48-.769,2.743-1.894,2.864-1.948A7.8,7.8,0,0,0,212.975,107.777Z"/><g class="cls-27"><path class="cls-10" d="M221.241,157.833V131.9c-3.868,5.063-7.7,9.6-11.563,14.663-1.678,2.2-8.251,9.473-3.767,12.393,1.144.745,3.137.71,4.132.781,3.577.253,7.121-.737,10.6-1.719C220.841,157.959,221.042,157.9,221.241,157.833Z"/></g><path class="cls-26" d="M221.241,163.41l-2.153.167-.04-.123-1.675.13-.5-1.425a2.163,2.163,0,0,0-2.113-1.341,1.154,1.154,0,0,0-1.07,1.6c.088.246.333.938.5,1.412l-1.763.136.038.123-3.632.281c-.574,0-1.421.744-1.238,1.262l.03.076a.709.709,0,0,0,.016.135l3.142,8.863-.08,37.331h3.646l6.9-26.816Zm-5.666-.277a1.214,1.214,0,0,1-1.185-.752.649.649,0,0,1,.6-.9,1.214,1.214,0,0,1,1.185.753A.648.648,0,0,1,215.575,163.133Z"/><path class="cls-26" d="M85.333,148.028a18.241,18.241,0,0,0-2.156,3.62,3.6,3.6,0,0,1-2.011,1.809c-1.6.73-3.3,1.428-4.947,2.074v4.235c3.34-2.008,6.363-3.883,6.414-3.9,2.553.977,4.689-1.146,5.374-2.678.307-.687-.154-.967-.175-1.294-.011-.17.208-1.164.175-1.292-.2-.894-2.6-.113-2.4-.539a3.05,3.05,0,0,1,1-1.5c1.176-.8,2.078-1.693,2.078-2.03C88.682,145.951,85.611,147.722,85.333,148.028Z"/><rect class="cls-28" x="214.712" y="169.553" width="56.385" height="65.205" rx="6.949"/><rect class="cls-29" x="219.928" y="176.377" width="47.686" height="13.393" rx="1.773"/><rect class="cls-29" x="219.928" y="194.52" width="12.262" height="8.502" rx="1.773"/><rect class="cls-29" x="237.64" y="194.52" width="12.262" height="8.502" rx="1.773"/><rect class="cls-29" x="255.352" y="194.52" width="12.262" height="8.502" rx="1.773"/><rect class="cls-29" x="219.928" y="208.187" width="12.262" height="8.502" rx="1.773"/><rect class="cls-29" x="237.64" y="208.187" width="12.262" height="8.502" rx="1.773"/><rect class="cls-29" x="219.928" y="221.854" width="12.262" height="8.502" rx="1.773"/><rect class="cls-29" x="237.64" y="221.854" width="12.262" height="8.502" rx="1.773"/><rect class="cls-29" x="255.352" y="208.187" width="12.262" height="22.169" rx="1.773"/><g class="cls-30"><path class="cls-31" d="M219.062,176.992a1.48,1.48,0,0,1,1.48-1.481h44.725a1.481,1.481,0,0,1,1.481,1.481v10.431a1.481,1.481,0,0,1-1.481,1.481H220.542"/><rect class="cls-31" x="219.062" y="193.654" width="12.262" height="8.502" rx="1.773"/><rect class="cls-31" x="236.774" y="193.654" width="12.262" height="8.502" rx="1.773"/><rect class="cls-31" x="254.486" y="193.654" width="12.262" height="8.502" rx="1.773"/><rect class="cls-31" x="219.062" y="207.321" width="12.262" height="8.502" rx="1.773"/><rect class="cls-31" x="236.774" y="207.321" width="12.262" height="8.502" rx="1.773"/><rect class="cls-31" x="219.062" y="220.987" width="12.262" height="8.502" rx="1.773"/><rect class="cls-31" x="236.774" y="220.987" width="12.262" height="8.502" rx="1.773"/></g><rect class="cls-15" x="254.486" y="207.321" width="12.262" height="22.169" rx="1.773"/><path class="cls-32" d="M255.352,228.875V209.668a1.481,1.481,0,0,1,1.481-1.481h9.3a1.457,1.457,0,0,1,.517.1,1.477,1.477,0,0,0-1.383-.964h-9.3a1.481,1.481,0,0,0-1.481,1.48v19.207a1.476,1.476,0,0,0,.964,1.383A1.474,1.474,0,0,1,255.352,228.875Z"/><path class="cls-26" d="M214.712,184.929l1.511,3.975h6.32s-.439,17.186-.466,20.408,2.65,25.446,2.65,25.446h3.66l-.382-28.021,5.192-14.376s3.9,19.246,5.523,22.466,10.315,19.931,10.315,19.931h3.358L243.771,197.9l-3.7-12.805-18.661-8.722-6.7.66"/><polygon class="cls-15" points="88.464 199.209 85.518 229.731 114.464 229.737 111.665 199.157 88.464 199.209"/><path class="cls-10" d="M93.511,202h0a1.014,1.014,0,0,1,1.084-.92h0a.931.931,0,1,1,0,1.836h0A1.015,1.015,0,0,1,93.511,202Zm1.085-.571a.587.587,0,1,0,0,1.136h0a.587.587,0,1,0,0-1.136Zm-.914.57h0Z"/><path class="cls-10" d="M104.3,201.978h0a.834.834,0,0,1,.254-.594,1.168,1.168,0,0,1,.828-.326h0a1.012,1.012,0,0,1,1.084.914.845.845,0,0,1-.329.662,1.188,1.188,0,0,1-.754.259h0A1.015,1.015,0,0,1,104.3,201.978Zm1.083-.57a.823.823,0,0,0-.58.223.486.486,0,0,0-.153.345h0a.671.671,0,0,0,.736.567h0a.841.841,0,0,0,.533-.18.5.5,0,0,0,.2-.389.669.669,0,0,0-.735-.566Z"/><path class="cls-10" d="M99.672,208.673c.1,0,.2,0,.308,0a5.82,5.82,0,0,0,4.493-1.9,6.746,6.746,0,0,0,1.263-4.845.351.351,0,0,0-.694.1,6.139,6.139,0,0,1-1.109,4.3,5.163,5.163,0,0,1-3.976,1.643,4.709,4.709,0,0,1-3.848-1.343c-1.545-1.72-1.165-4.547-1.161-4.576a.351.351,0,0,0-.694-.1c-.018.128-.432,3.173,1.331,5.14A5.224,5.224,0,0,0,99.672,208.673Z"/><path class="cls-33" d="M60.006,130.425c1.12,1.934.153,4.578,1.283,6.507.452.772,1.219,1.378,1.436,2.246a1.958,1.958,0,0,1-2.817,2.206,2.414,2.414,0,0,0-.435-.216c-.559-.163-1.064.333-1.545.662a2.356,2.356,0,0,1-2.034.359,3.016,3.016,0,0,1-1.694-2.033c-.808-2.428-.234-5.085.513-7.532.373-1.223.924-2.579,2.123-3.023"/><path class="cls-34" d="M86.026,151.006c.018.269.428.5.155,1.067-.608,1.263-2.5,3.013-4.77,2.208-.1.035-12.521,7.216-13.478,7.216s-7.477-6.169-9.61-13.8c-.509-1.821-.311-3.964,1.4-4.885a4.033,4.033,0,0,1,2.346,2.088c1.412,2.665,5.642,11.493,6.579,11.827,1.168-.779,6.857-2.469,11.464-4.427a3.118,3.118,0,0,0,1.786-1.492,14.884,14.884,0,0,1,1.914-2.984c.246-.252,2.972-1.712,2.973-1.233,0,.278-.8,1.012-1.844,1.674a2.5,2.5,0,0,0-.887,1.235c-.178.351,1.954-.294,2.131.444C86.211,150.046,86.016,150.866,86.026,151.006Z"/><path class="cls-35" d="M59.222,142.583a5.6,5.6,0,0,1,3.71,2.878,11.567,11.567,0,0,1,.5,1.159c.662,1.683,1.573,3.207,2.234,4.89a9.9,9.9,0,0,1-2.922,1.409,6.231,6.231,0,0,1-2.719.365,1.368,1.368,0,0,1-.458-.1,1.491,1.491,0,0,1-.476-.409q-.426-.487-.827-.994a2.722,2.722,0,0,1-.555-.951,2.878,2.878,0,0,1,.13-1.48"/><g class="cls-27"><path class="cls-35" d="M60.847,147.181a.562.562,0,0,0-.213-.181.386.386,0,0,0-.446.2,1.018,1.018,0,0,0-.093.519,7.061,7.061,0,0,0,.317,2.015l-.211,3.551.005.007a6.234,6.234,0,0,0,2.543-.371c.384-.143.8-.29,1.216-.459A12.861,12.861,0,0,0,60.847,147.181Z"/></g><path class="cls-34" d="M55.341,139.058s-.047,2.223.294,2.368a8.674,8.674,0,0,0,1.437.445l.022,4.6-6.133-.925-4.22-2.349s4.386-1.454,4.424-1.891-.241-2.9-.241-2.9"/><path class="cls-34" d="M45.918,205.628l0,.017c-1.677,7.957-.878,18.887-1.252,24.877.088.024,2.28.3,2.28.3s5.19-25.246,6.132-30.081a7,7,0,0,0,.12-.936c.225-3.638-3.053-3.823-4.9-.816a12.674,12.674,0,0,0-.845,1.624c-.1.237-.2.477-.3.734l0,.008a23.608,23.608,0,0,0-.814,2.54l-.019.092c-.077.255-.139.513-.2.772l-.013.058C46.033,205.082,45.976,205.351,45.918,205.628Z"/><path class="cls-34" d="M55.744,177.072c-.062.658-.413,3.791-.834,7.486-.36,3.107-.755,6.609-1.062,9.382-.228,2.08-.395,3.739-.465,4.52A10.051,10.051,0,0,1,53.2,199.8v.018c-.789,3.633-3.3,3.844-4.827,3a3.086,3.086,0,0,1-.579-.394,1.945,1.945,0,0,1-.649-1.071v-.009c-.1-.746-.194-1.764-.281-2.975v-.018c-.009-.009-.009-.009-.009-.018l-.009-.026c-.184-2.361-.342-5.4-.482-8.355-.167-3.634-.273-7.136-.3-9.111-.009-.114-.009-.219-.017-.324-.027-6.056,5.538-9.935,9-8.057a.826.826,0,0,1,.123.061,1.161,1.161,0,0,0,.131.079c.4.264.527,1.167.536,2.2C55.849,175.562,55.8,176.387,55.744,177.072Z"/><path class="cls-34" d="M47.276,199.922l-.424-1.586c0,.008,0,.008,0,.019a25.249,25.249,0,0,1-.526,5.538l-.019.092c-.061.25-.125.517-.2.772l-.013.058a4.348,4.348,0,0,0-.179.813l0,.017c0,.719,1.527-2.474,1.878-3.221.043-.095.071-.15.071-.15l-.415-1.663Z"/><path class="cls-34" d="M59.264,207.148v.017c-.159,8.331,2.414,18.127,3.094,24.177.083,0,2.1-.269,2.1-.269s.385-25.522.412-30.565a7.781,7.781,0,0,0-.051-.961c-.414-3.675-3.395-3.045-4.547.405a15.143,15.143,0,0,0-.484,1.825c-.054.262-.1.525-.147.805v.009c-.141.858-.242,1.771-.3,2.728v.1c-.026.272-.039.545-.051.817v.062C59.275,206.576,59.27,206.857,59.264,207.148Z"/><path class="cls-34" d="M61,203.75a2.161,2.161,0,0,1-.585-.255,1.67,1.67,0,0,1-.766-.9v-.009c-.218-.718-.479-1.72-.768-2.9a.025.025,0,0,1-.006-.019l-.012-.03c-.563-2.3-1.229-5.28-1.852-8.181-.764-3.572-1.457-7.031-1.813-9-.028-.106-.336-1.535-.357-1.64-1.068-6.086,3.679-10.051,7.129-8.891l.135.046c.693.279.886,2.718,1.041,4.366s1.329,18.737,1.621,21.827a12.4,12.4,0,0,1,.061,1.384C64.741,203.369,62.515,204.205,61,203.75Z"/><path class="cls-34" d="M59.517,201.135l-.65-1.473c0,.009,0,.009.007.018a28.337,28.337,0,0,1,.466,5.639v.1c-.012.264-.025.545-.051.817v.062a4.933,4.933,0,0,0-.023.853v.017c.117.717.953-2.84,1.142-3.67.023-.105.038-.166.038-.166l-.655-1.552Z"/><path class="cls-36" d="M48.942,165.382s-4.467,5.674-4.008,11.376c.191,2.373.485,4.464.755,6.852.039.344.575,5.358.424,5.363,0,0,9.2,2.844,18.1-.882,0-.608.711-12.278-4.092-23.4A77.469,77.469,0,0,1,48.942,165.382Z"/><path class="cls-35" d="M62.93,152.281c-.035,1.625-.9,2.615-2.14,3.985a48.541,48.541,0,0,0-.674,6.276c-.068,1.254.467,2.042,0,2.145-1.785,1.557-8.22,2.819-11.172.693.31-2.621-.864-8.392-1.656-11.327-.123-.452-.232-.834-.33-1.128-.738-2.229-2.069-9.377-1.084-9.689.2-.062.5-.143.855-.249,1.542-.466,3.822-1.264,3.822-1.264s1.337,3.955,4.813,4.432c1.9-.781,1.73-3.181,1.708-4.284.62.171.894.342,2.817.912.539.777.074,2.4.945,4.817C61.051,148.2,62.973,150.3,62.93,152.281Z"/><path class="cls-34" d="M59.78,129.978s.352,4.3-.382,6.55a5.346,5.346,0,0,1-4.636,3.2c-5.131,0-6.052-6.97-6.025-7.307s7.568-3.263,7.568-3.263Z"/><path class="cls-33" d="M69.551,233.754c-1.827.329-3.779-.185-4.579-.046-.661.113-2.36.544-3-.028s-.533-2.588.2-2.857a2.644,2.644,0,0,0,.474.115,5.01,5.01,0,0,0,2.162-.177,11.527,11.527,0,0,0,3.021,1.14,10.272,10.272,0,0,1,2.013.611C70.526,232.824,70.58,233.57,69.551,233.754Z"/><path class="cls-33" d="M49.834,234.558c-1.83-.308-2.988-1.32-3.789-1.46-.66-.117-2.324-.441-2.5-1.124-.13-.507.373-2.616,1.151-2.621a2.758,2.758,0,0,0,.408.267,5.005,5.005,0,0,0,2.1.564,11.5,11.5,0,0,0,2.458,2.094,10.372,10.372,0,0,1,1.688,1.255C51.882,234.057,50.866,234.732,49.834,234.558Z"/><path class="cls-34" d="M23.164,149.215l1.681-2L35.1,156.384s5.006-6.664,6.383-8.745c1.514-2.287,2.879-4.243,5.093-4.626.51.314-.172,8.531-.438,8.73-3.093,2.314-9.113,9.78-11.028,10.168C32.9,162.359,23.164,149.215,23.164,149.215Z"/><path class="cls-35" d="M47.332,142.649a6.124,6.124,0,0,0-3,.768c-.9.742-5.2,7.563-5.2,7.563a3.029,3.029,0,0,0,1.131,2.369,6.271,6.271,0,0,0,3.1,1.341s2.16-2.149,3.377-3.127c.759-.61.834.9.834.9l3.809-3.718Z"/><path class="cls-33" d="M46.066,142.732c-.114-.061-.226-.127-.335-.192a2.825,2.825,0,0,1-1.375-1.388,4.6,4.6,0,0,1-.029-3.374,13.47,13.47,0,0,1,1.408-1.616,4.98,4.98,0,0,0,.83-2.805,18.5,18.5,0,0,1,.2-2.961,7.225,7.225,0,0,1,2.1-4.3c2.043-1.708,6.141-2.721,8.368-.815.406.346.485.624,1.032.677a4.034,4.034,0,0,1,1.87.546c.731.423,1.618,1.019,1.515,1.978a3.431,3.431,0,0,1-1.394,2.029,1.691,1.691,0,0,1-.788.176c-.868.017-1.589-.548-2.441-.456a1.621,1.621,0,0,0-1.07.593c-.307.379-.265.908-.624,1.262-.575.569-1.467.521-2.149.891a.709.709,0,0,0-.293.242.765.765,0,0,0-.075.365l-.039,1.077c-.338-.149-.374-.63-.653-.873a.774.774,0,0,0-.977.064,1.638,1.638,0,0,0-.471.936,2.7,2.7,0,0,0,.19,1.286c.223.731.85,1.39,1.356.907.367.54-.034,1.442-.047,2.053-.011.484,0,1.445.451,1.763.417.293,1.077.07,1.1.825a1.451,1.451,0,0,1-1.353,1.314,5.069,5.069,0,0,1-2.025-.354,3.18,3.18,0,0,0-2.03-.1,6.231,6.231,0,0,1-1.14.513A1.785,1.785,0,0,1,46.066,142.732Z"/><path class="cls-34" d="M27.436,149.545a15.642,15.642,0,0,1-2.575-2.461c-.164-.529-.2-1.095-.4-1.612a3.025,3.025,0,0,0-1.672-1.664c-.6-.248-.309-.453-.955-.328-.978.189-1.441,1.146-1.831,1.9-1.664,3.189,2.894,3.794,3.055,3.8.332.013,2.028,1.936,2.028,1.936"/><path class="cls-37" d="M19.824,148.006l1.65,1.1a.455.455,0,0,0,.643-.145l3.626-6.075-2.15-1.211-3.892,5.7A.455.455,0,0,0,19.824,148.006Z"/><path class="cls-38" d="M13.927,135.113l.569.387,2.3-3.347-.569-.387a1.92,1.92,0,0,0-2.611.676h0A1.906,1.906,0,0,0,13.927,135.113Z"/><polygon class="cls-38" points="11.827 139.193 22.393 140.797 24.806 137.28 19.474 128.049 11.827 139.193"/><polygon class="cls-39" points="12.502 139.34 22.393 140.797 23.354 139.395 15.031 135.655 12.502 139.34"/><path class="cls-38" d="M26.738,143.355h0a1.343,1.343,0,0,0,1.826-.473l.429-.626a1.332,1.332,0,0,0-.22-1.867h0a1.342,1.342,0,0,0-1.826.472l-.429.626A1.333,1.333,0,0,0,26.738,143.355Z"/><path class="cls-39" d="M26.947,140.862l-.428.624a1.25,1.25,0,1,0,2.046,1.4l.429-.624a1.289,1.289,0,0,0,.087-.147,1.227,1.227,0,1,1-2.028-1.383A1.4,1.4,0,0,0,26.947,140.862Z"/><path class="cls-25" d="M11.483,139.54h0a.789.789,0,0,0,1.073-.278L19.8,128.7a.782.782,0,0,0-.129-1.1h0a.789.789,0,0,0-1.073.278l-7.247,10.561A.782.782,0,0,0,11.483,139.54Z"/><path class="cls-37" d="M19.859,127.805l-6.036,8.8a.788.788,0,0,1-1.072.277.648.648,0,0,1-.186-.2l-1.211,1.766a.734.734,0,1,0,1.2.819L19.8,128.7A.834.834,0,0,0,19.859,127.805Z"/><path class="cls-25" d="M23.326,142.646l.684.466a2.4,2.4,0,0,0,3.261-.844l.679-.99a2.38,2.38,0,0,0-.393-3.335l-.684-.466a2.4,2.4,0,0,0-3.261.844l-.679.99A2.38,2.38,0,0,0,23.326,142.646Z"/><path class="cls-37" d="M22.97,139.257l-1.017,1.483a.753.753,0,0,0,.124,1.055l3.182,2.169a.76.76,0,0,0,1.032-.268l1.017-1.482a.761.761,0,0,1-1.032.267L23.1,140.313A.753.753,0,0,1,22.97,139.257Z"/><path class="cls-34" d="M20.177,146.482A3.325,3.325,0,0,1,20.758,144a5.4,5.4,0,0,1,.592-.638.829.829,0,0,1,.357-.236,1.131,1.131,0,0,1,.772.175,1.4,1.4,0,0,1,.633.629.839.839,0,0,1-.464,1.009c-.035.022-.073.045-.085.084-.02.058.021.132.058.2a1.429,1.429,0,0,1,.245.824.482.482,0,0,1-.567.424c-.125-.019-.291-.068-.332.027a.207.207,0,0,0,0,.108.889.889,0,0,1-.192.7.248.248,0,0,1-.154.1.413.413,0,0,1-.16-.022,2.179,2.179,0,0,1-.564-.251"/><path class="cls-34" d="M24.845,147.215a12.977,12.977,0,0,1-.2-1.3,2.947,2.947,0,0,0-1.394-2.425.346.346,0,0,0-.226-.064.25.25,0,0,0-.185.217.665.665,0,0,0,.044.3c.1.307.533.883.4,1.2a3.576,3.576,0,0,0-.344,1.5c.015.458.229,1.2.772,1.278"/><line class="cls-40" x1="12.594" y1="122.938" x2="14.719" y2="127.95"/><line class="cls-40" x1="8.155" y1="127.396" x2="12.511" y2="130.66"/><line class="cls-40" x1="5.345" y1="133.467" x2="10.763" y2="133.999"/><path class="cls-34" d="M178.923,80.726s-1.946-1.373-2.015-1.95a13.36,13.36,0,0,0-1.86-3.378,10.433,10.433,0,0,0-3.2-1.325c-.486-.07-3.279.167-2.931.548s2.155.242,2.5.451l.348.208s-.348.472-.209.757-.6.724-.318,1.211-.113.453.136.961c.411.838,1.462,1.3,1.74,1.076.209.5,1.007,1.508,1.755,1.439s2.564,1.633,2.564,1.633"/><path class="cls-34" d="M208.6,70.957c.066,1.307-.026,3.583.348,3.92s1.581.285,1.581.285-4.318,5.46-4.7,5.16-5.493-4.462-4.345-4.677,2.271-.169,2.238-.763-.065-1.188-.1-1.782"/><path class="cls-15" d="M213.52,100.115s-8.425.957-10.364,1-1.844-.973-1.844-.973a76.916,76.916,0,0,0-.862-8.871c-.374-1.591-.54-2.179-.866-3.692-.725-3.362-.693-4-1.461-8.153l5.033-4.045a2.652,2.652,0,0,0,2.63,1.574,3.835,3.835,0,0,0,3.7-1.939l6.864,4.557.644,11.086-.821,9.128"/><path class="cls-34" d="M208.69,69.773a14.433,14.433,0,0,1-.594,1.937,2.193,2.193,0,0,1-2.324,1.6l-2.58.062a2.949,2.949,0,0,1-2.015-.425,3.022,3.022,0,0,1-.657-1.869c-.15-.813-.272-1.633-.366-2.455a36.259,36.259,0,0,1-.227-4.853,3.5,3.5,0,0,1,.058-.664.475.475,0,0,1,.11-.244.539.539,0,0,1,.31-.119,26.447,26.447,0,0,1,4.877-.313,5.548,5.548,0,0,1,3.283.872,6.193,6.193,0,0,1,1.746,2.954c.063.175.109.409-.043.516"/><path class="cls-41" d="M189.794,130.168a18.338,18.338,0,0,0,.5,2.248c.223.573,2.1.045,2.227-.326a17.232,17.232,0,0,0-.591-3.095"/><path class="cls-42" d="M193.177,132.564c.163.618.368,1.8.368,1.8l-1.879.818-.308-.289a3.482,3.482,0,0,1-1.042.831,7.762,7.762,0,0,1-1.819.5c-1.64.177-2.847-.131-2.944-.359-.407-.95,1.769-1.2,2.2-1.318a2.884,2.884,0,0,0,2.061-2.066c.1-.5-.027-.585.251-.57a.665.665,0,0,1,.47.221,1.187,1.187,0,0,0,1.335.31,1.423,1.423,0,0,0,.666-.554A.818.818,0,0,1,193.177,132.564Z"/><path class="cls-43" d="M198.1,108.265a31.834,31.834,0,0,1-9.592.228,35.354,35.354,0,0,1,1.821,4.389c1.279,5.532,1.724,12.963,2.049,17.561,0,0-.615,1.18-2.584.282-2.942-7.266-8.078-21.991-8.03-25.186.06-4.067,10.211-5.049,17.65-6.051"/><path class="cls-42" d="M211.064,100.123c2.339,1.708-12.966,8.142-12.966,8.142a25.453,25.453,0,0,1-5.017.479,3.676,3.676,0,0,1-.373-.949c-.09-.444-.042-.907-.12-1.353a3.145,3.145,0,0,0-1.529-2.061,6.894,6.894,0,0,0-2.5-.811,33.657,33.657,0,0,0-5.683-.1c4.6-3.39,14.012-3.834,18.4-4.113C202.111,100.74,210.729,99.878,211.064,100.123Z"/><path class="cls-41" d="M194.645,134.034a18.426,18.426,0,0,0,.1,2.3c.121.6,2.064.408,2.25.065a17.255,17.255,0,0,0-.046-3.151"/><path class="cls-42" d="M197.562,136.981c.053.637.05,1.84.05,1.84l-1.992.48-.254-.339a3.468,3.468,0,0,1-1.17.638,7.76,7.76,0,0,1-1.879.181c-1.646-.11-2.781-.623-2.837-.863-.237-1.007,1.951-.88,2.4-.917a2.885,2.885,0,0,0,2.388-1.677c.181-.474.074-.582.346-.518a.66.66,0,0,1,.425.3,1.184,1.184,0,0,0,1.26.537,1.412,1.412,0,0,0,.752-.43A.819.819,0,0,1,197.562,136.981Z"/><path class="cls-43" d="M216.169,99.784a94.967,94.967,0,0,1-10.37.331c-1.324,0-11.341,1.88-12.3,3.577-1.576,2.792,1.027,19.109.786,30.792a3.2,3.2,0,0,0,3.325.06c.528-5.739,3.919-19.277,1.58-25.6,5.522.734,9.977,1.462,15-.2a4,4,0,0,0,2.583-2.738A9.6,9.6,0,0,0,216.169,99.784Z"/><path class="cls-15" d="M203.156,75.378s-1.2.066-1.439.085a11.072,11.072,0,0,0-2.975.563c-1.365.505-2.328,1.774-3.439,2.767-1.069.957-6.613,6.239-7.648,6.434S177.544,79.2,177.544,79.2l-2.217,2.216s9.851,9.1,12.788,9.117c1.425.008,9.288-4.131,11.8-5.74Z"/><path class="cls-44" d="M188.138,88.787c-2.025.114-11.305-6.973-12.381-7.8l-.43.43s9.851,9.1,12.788,9.117c1.188.007,6.843-2.866,10.152-4.755l.857-.5-.514-3.06S190.288,88.665,188.138,88.787Z"/><path class="cls-25" d="M178.686,101.606h22.547l-4.042-13.18a1.734,1.734,0,0,0-1.657-1.225H175.788a1.125,1.125,0,0,0-1.075,1.454Z"/><path class="cls-45" d="M178.4,101.606h22.208l-4.043-13.18a1.733,1.733,0,0,0-1.657-1.225H175.165a1.124,1.124,0,0,0-1.074,1.454l3.873,12.626A.459.459,0,0,0,178.4,101.606Z"/><g class="cls-14"><path class="cls-46" d="M213.073,81.731A88.155,88.155,0,0,0,211.436,94.4c-3.94,1.529-5.544,3.806-9.4,5.522,0,0-3.045-.5-3.365.643-.184.662,3.564,1.189,3.564,1.189,3.573.017,13-2.594,13.634-2.769s2.494-12.153,2.569-18.654a4.08,4.08,0,0,0-.6-2.645,3.467,3.467,0,0,0-1.162-.86,16.211,16.211,0,0,0-7.195-1.816"/></g><path class="cls-34" d="M202.568,100.711a2.251,2.251,0,0,0-1.876-.594,13.543,13.543,0,0,0-1.506.12c-.228.031-.489.084-.514.331s1.1,0,1.7.171a29.825,29.825,0,0,1-3.486.094,1,1,0,0,0-.4.042.332.332,0,0,0-.226.305.412.412,0,0,0,.159.265,2.362,2.362,0,0,0,1.2.484,9.239,9.239,0,0,0,5.3-.468"/><path class="cls-15" d="M212.829,81.636c-.093,5.424-.478,7.906-.372,13.329-2.724.582-6.493,3.665-10.348,5.381a2.039,2.039,0,0,0,.127,1.411c.294.108,13.005-2.987,14.016-3.918.909-.838,2.112-11,2.187-17.5a4.08,4.08,0,0,0-.6-2.645,3.467,3.467,0,0,0-1.162-.86,16.211,16.211,0,0,0-7.195-1.816"/><path class="cls-47" d="M189.864,94.63c.081,1.156-1.285,2.093-3.05,2.093s-3.263-.937-3.344-2.093,1.285-2.093,3.051-2.093S189.783,93.474,189.864,94.63Z"/><ellipse class="cls-25" cx="186.667" cy="94.63" rx="1.163" ry="2.033" transform="translate(84.837 277.469) rotate(-87.767)"/><path class="cls-48" d="M204.719,66.305c-.043-.2-.493-.243-.945-.186a7.224,7.224,0,0,0-1.906.4c-.248.193-.233.332-.366.347s-.139-.121-.427-.247a3.808,3.808,0,0,0-1.436.019c-.452.057-.881.157-.872.364a1.167,1.167,0,0,0,.18.625c.093.057.092.047.448.865a.863.863,0,0,0,1.089.591c.744-.161.792-1.009.849-1.363s.111-.407.224-.422.191.023.334.352.247,1.087,1.01,1.129c1,.057,1.43-.285,1.569-.925.187-.868.144-.871.219-.95a4.825,4.825,0,0,1,.747.064l-.017-.259A5.644,5.644,0,0,1,204.719,66.305Zm-3.625,1.746a.867.867,0,0,1-.735.91c-.458.058-.668-.185-.916-.771a1.512,1.512,0,0,1-.148-1.057c.078-.141.325-.136.893-.172s.758-.048.85.2A3.116,3.116,0,0,1,201.094,68.051Zm3.254-.478c-.1.629-.325.931-.952,1.006-.889.107-1.06-.244-1.191-.667a3.106,3.106,0,0,1-.167-.874c.028-.266.215-.3.774-.407s1.308-.236,1.418-.119A1.515,1.515,0,0,1,204.348,67.573Z"/><path class="cls-48" d="M210.746,64.919a9.854,9.854,0,0,0-.248-1.337,4.262,4.262,0,0,0-2.083-2.73,6.665,6.665,0,0,0-4.714-.47c-.862.242-1.182.7-1.626.683a4.908,4.908,0,0,1-1.207-.4c-3.372-1.212-2.806,2.089-2.447,2.995.159.4.923.693,1.025.86a10.206,10.206,0,0,1,.156,1.342.711.711,0,0,0,.419.5s.019-1.062.036-1.207a1.337,1.337,0,0,1,.5-1,3.078,3.078,0,0,1,1.213-.34,9.237,9.237,0,0,1,2.482.41,4.994,4.994,0,0,1,.968,2.5c.083.338.168.566.306.561.1-1,.451-1.023,1.048-.682a1.736,1.736,0,0,1,.508,1.349,1.426,1.426,0,0,1-1.006,1.474c-.238.051.48,1.412.812,1.752a1.841,1.841,0,0,0,.352.309,1.61,1.61,0,0,0,.406.15l.482.131a1.254,1.254,0,0,0,.662.057c.356-.1.543-.478.7-.811.264-.546.566-1.076.782-1.644A9.755,9.755,0,0,0,210.746,64.919Z"/><path class="cls-49" d="M271.5,114.89H228.825l5.111-3.781V92.65a2.789,2.789,0,0,1,2.788-2.789H271.5a2.789,2.789,0,0,1,2.788,2.789V112.1A2.789,2.789,0,0,1,271.5,114.89Z"/><rect class="cls-50" x="251.079" y="93.461" width="19.504" height="1.866"/><rect class="cls-50" x="251.079" y="96.249" width="19.504" height="1.866"/><rect class="cls-50" x="251.079" y="99.037" width="19.504" height="1.866"/><rect class="cls-50" x="251.079" y="101.754" width="19.504" height="1.866"/><rect class="cls-50" x="251.079" y="105.004" width="13.602" height="1.866"/><rect class="cls-51" x="237.296" y="93.461" width="12.252" height="14.326" rx="3.385"/><rect class="cls-50" x="237.296" y="109.571" width="12.252" height="1.538"/><path class="cls-13" d="M244.63,102.758h-4.446a.555.555,0,0,1-.536-.41l-.855-3.158a.555.555,0,0,1,.536-.7h6.156a.555.555,0,0,1,.536.7l-.856,3.158A.553.553,0,0,1,244.63,102.758Z"/><path class="cls-13" d="M245.413,103.468h-5.355a.11.11,0,1,1,0-.22h5.272l1.863-6.5a.111.111,0,0,1,.106-.08h1.165a.111.111,0,1,1,0,.221h-1.082l-1.863,6.5A.109.109,0,0,1,245.413,103.468Z"/><path class="cls-13" d="M240.878,104.339a.648.648,0,1,1-.647-.647A.648.648,0,0,1,240.878,104.339Z"/><circle class="cls-13" cx="244.939" cy="104.339" r="0.648"/><path class="cls-49" d="M112.959,89.111h54.375l-6.512-4.817V54.545a3.553,3.553,0,0,0-3.553-3.553h-44.31a3.553,3.553,0,0,0-3.553,3.553V85.558A3.553,3.553,0,0,0,112.959,89.111Z"/><g class="cls-30"><rect class="cls-13" x="114.13" y="56.508" width="24.85" height="2.378" transform="translate(253.11 115.394) rotate(180)"/><rect class="cls-13" x="114.13" y="60.06" width="24.85" height="2.378" transform="translate(253.11 122.498) rotate(180)"/><rect class="cls-13" x="114.13" y="63.612" width="24.85" height="2.378" transform="translate(253.11 129.602) rotate(180)"/><rect class="cls-13" x="114.13" y="67.073" width="24.85" height="2.378" transform="translate(253.11 136.524) rotate(180)"/><rect class="cls-13" x="114.13" y="70.534" width="24.85" height="2.378" transform="translate(253.11 143.446) rotate(180)"/><rect class="cls-13" x="114.13" y="76.824" width="24.85" height="2.378" transform="translate(253.11 156.025) rotate(180)"/><rect class="cls-13" x="114.13" y="80.569" width="42.411" height="2.378" transform="translate(270.671 163.515) rotate(180)"/></g><rect class="cls-38" x="140.932" y="56.508" width="15.61" height="18.252" rx="4.313" transform="translate(297.473 131.268) rotate(180)"/><rect class="cls-50" x="140.932" y="77.033" width="15.61" height="1.959" transform="translate(297.473 156.025) rotate(180)"/><path class="cls-13" d="M147.2,68.352h5.664a.706.706,0,0,0,.682-.522l1.09-4.023a.706.706,0,0,0-.682-.891h-7.844a.706.706,0,0,0-.682.891l1.089,4.023A.708.708,0,0,0,147.2,68.352Z"/><path class="cls-13" d="M146.2,69.258h6.822a.141.141,0,0,0,0-.282h-6.716L143.931,60.7a.14.14,0,0,0-.135-.1h-1.484a.141.141,0,1,0,0,.282h1.378l2.374,8.279A.14.14,0,0,0,146.2,69.258Z"/><path class="cls-13" d="M151.976,70.367a.825.825,0,1,0,.825-.825A.825.825,0,0,0,151.976,70.367Z"/><path class="cls-13" d="M145.978,70.367a.825.825,0,1,0,.825-.825A.825.825,0,0,0,145.978,70.367Z"/><ellipse class="cls-2" cx="238.72" cy="243.181" rx="23.962" ry="2.526"/><path class="cls-7" d="M225.86,239.6a6.025,6.025,0,0,1-2.5,1.894c-1.334.6-4.164.876-2.592,1.4a9.416,9.416,0,0,0,4.333.058,18.7,18.7,0,0,1,2.923-.176c1.444-.01,1.455-.1,1.26-1.727C229.015,238.805,226.509,238.33,225.86,239.6Z"/><path class="cls-7" d="M252.021,238.783c-.081.452.56,1.822-.587,2.828s-3.755,2.063-2.027,2.1a10.067,10.067,0,0,0,4.265-.794c.879-.435.177-1.118,1.267-1.461,1.436-.454,1.14-1.509.394-2.163C254.377,237.145,252.279,237.321,252.021,238.783Z"/><path class="cls-9" d="M246.517,193.172s3.441-10.116-6.321-18.451a37.139,37.139,0,0,1-9.422,2.335,23.27,23.27,0,0,1-4.975-.106s-.278,8.988-.289,13.832Z"/><path class="cls-9" d="M224.719,209.976c-.189-4.523,4.716-3.93,6.524-.551,3.74,6.988-1.379,23.08-2.056,30.7a3.88,3.88,0,0,1-2.589.162,1.815,1.815,0,0,1-.752-.832C225.954,230.106,224.921,214.812,224.719,209.976Z"/><path class="cls-9" d="M231.074,210.661c-.564,1.847-6.825,3.79-6.318-2.933.225-2.982.825-19.447.941-21.034s.38-3.907,1.148-4.2c3.836-1.448,10.621,3.568,9.611,9.528C235.783,196.009,232.244,206.831,231.074,210.661Z"/><path class="cls-9" d="M240.927,213.229c-1.514-4.267,3.4-5.022,6.193-2.393,6.531,6.155,6.784,20.66,8.385,28.146a5.72,5.72,0,0,1-2.855.818,1.021,1.021,0,0,1-.779-.4C249.217,230.431,242.545,217.791,240.927,213.229Z"/><path class="cls-9" d="M247.386,211.836c.171,1.924-5.048,5.9-7.1-.522-.912-2.848-4.812-19.678-5.3-21.192s-.355-4.641.248-5.2c3.012-2.782,9.81-.335,11.112,5.568C247.215,194.437,247.032,207.847,247.386,211.836Z"/><path class="cls-52" d="M220.508,138.151c.178-.188.355-.376.515-.579,1.236-1.583,1.416-2.985,2.563-4.821a14.2,14.2,0,0,1,.833-1.594,6.7,6.7,0,0,1,1.859-1.524c.536-.28.075.9.075.9s.455-.659.895-.612c.17.018.2,1.025.2,1.2a8.45,8.45,0,0,1-.939,4,2.063,2.063,0,0,0-.32.907,2.027,2.027,0,0,0,1.08-.531,1.3,1.3,0,0,1,1.128-.329,2.827,2.827,0,0,1-.217.471,4.937,4.937,0,0,1-1.976,2.34c-.561.266-1.21.313-1.758.6-.99.526-1.471,1.744-2.475,2.241"/><rect class="cls-53" x="224.29" y="130.322" width="4.275" height="7.872" rx="0.646" transform="translate(69.347 -76.977) rotate(22.699)"/><rect class="cls-54" x="224.742" y="130.79" width="3.584" height="7.026" transform="translate(69.369 -77.012) rotate(22.698)"/><path class="cls-45" d="M229.543,144.55a23.346,23.346,0,0,0-4.777.807c-3.4,1.021-4.569,2.595-5.744,3.245,2.282-2.9,4.825-9.043,4.825-9.043s-3.067-2.52-3.419-1.923-13.224,15.658-12.821,18.1c.166,1.006,1.656,2,2.973,1.954,3.651-.125,7.888-1.452,12.332-2.907,1.953-.639,2.555.739,2.555.739"/><path class="cls-55" d="M219.022,148.6s-1.62,3.268-2.107,3.481,1.182-.681,2.094-1.624a19.309,19.309,0,0,0,2.163-3.417A18.936,18.936,0,0,0,219.022,148.6Z"/><path class="cls-52" d="M224.109,132.771a.742.742,0,0,1,.229.515,4.053,4.053,0,0,1-.063,2.166,3.112,3.112,0,0,1-.872,1.11,6.825,6.825,0,0,1-1.326.907"/><path class="cls-56" d="M229.622,127.335c-.859.248-1.314,1.358-1.606,2.118a11.793,11.793,0,0,0-.643,2.858,3.925,3.925,0,0,0,.14,2.01,4.221,4.221,0,0,0,.561.874,1.843,1.843,0,0,0,.405.426.623.623,0,0,0,.559.095c.268-.1.375-.417.452-.694a18.274,18.274,0,0,1,2.056-5.2"/><path class="cls-52" d="M228.668,133.05c-.017-.575-.622-.949-1.145-.354a3.666,3.666,0,0,0-.574,2.118c-.03.828.612.99,1.139,1.106"/><path class="cls-45" d="M222.925,147.516c1.061-1.217,4.429-3.223,8.931-3.081,3.1.1,11.548.609,12.492,2.684.482,1.061,1,11.922.294,15.667-.532,2.816-1.891,9.792-1.891,11.475s.905,2.405.483,2.894c-.945,1.095-7.408,1.555-10.442,1.555-2.7,0-7.3-.72-7.531-1.585-.346-1.284.527-1.236.645-2.583s.46-10.085-.036-11.515c-.9-2.583-1.329-6.793-2.039-8.7C223.292,152.874,221.864,148.733,222.925,147.516Z"/><path class="cls-55" d="M242.268,156.3c.321.67,2.507,4.185,2.507,4.185l.089.421a17.8,17.8,0,0,1-.222,1.878c-.532,2.816-1.891,9.792-1.891,11.475s.866,2.375.483,2.894c-.745,1.01-12.932,3.281-12.332.462.054-.255,10.228-8.018,10.282-8.278.469-2.228.878-3.833,1.084-5.457C242.762,159.972,241.946,155.633,242.268,156.3Z"/><path class="cls-57" d="M229.4,140.55a33.353,33.353,0,0,1-.171,3.675,5.522,5.522,0,0,1-.84.473s.5,3.07,1.267,2.842,5.85-2.793,5.85-2.793-.721-.294-.721-.578.684-5.842.684-5.842"/><path class="cls-57" d="M232.932,127.717c-.741.2-2.693-.2-3.231.605a18.444,18.444,0,0,0-1.212,3.3c-.4,1.072-.664,2.218-.955,3.323-.381,1.44-1.008,4.078.4,5.282a1.874,1.874,0,0,0,1.086.552c.667.12,1.331.257,2,.377a6.7,6.7,0,0,0,3.2.068c1.372-.445,2.124-2.331,2.477-3.612l2.019-7.336Z"/><path class="cls-58" d="M229.278,148.918s-.3,13.786-.859,22.173l2.028,2.8,1.393-3.5a106.6,106.6,0,0,0-1.318-21.371Z"/><path class="cls-58" d="M228.811,147.708l.047.189a3.844,3.844,0,0,0,.42,1.021h0l1.244.1s.845-.443.957-.919-1.388-1.257-1.388-1.257l-.182.072a2.7,2.7,0,0,0-1.083.779Z"/><path class="cls-13" d="M234.875,143.309a5.2,5.2,0,0,1,1.419,1.438A14.716,14.716,0,0,1,232.616,150a7.2,7.2,0,0,0-2.525-3.157S234.43,146.066,234.875,143.309Z"/><path class="cls-13" d="M230.091,146.838a5.347,5.347,0,0,0-2.474,2.352,11.827,11.827,0,0,1,.336-4.364s1.019-1.3,1.372-1.331A6.841,6.841,0,0,0,230.091,146.838Z"/><path class="cls-52" d="M230.287,177.617a4.581,4.581,0,0,0-2.979,1.662.321.321,0,0,0-.13.257c.02.123.164.177.287.2.716.115.832-.342,1.5-.622.452-.188.9-.384,1.349-.579"/><path class="cls-59" d="M225.054,166.388l5.461,17.5a.626.626,0,0,1-.578.878l-11.394,1a1.056,1.056,0,0,1-.955-.736L211.717,167.8c-.147-.469.53-1.141.989-1.145l11.393-1A1.056,1.056,0,0,1,225.054,166.388Z"/><path class="cls-60" d="M224.68,166.845l5.385,17.231a.627.627,0,0,1-.579.879l-11.393,1a1.056,1.056,0,0,1-.955-.736l-5.385-17.231a.626.626,0,0,1,.579-.878l11.393-1A1.056,1.056,0,0,1,224.68,166.845Z"/><polygon class="cls-13" points="215.578 166.286 215.983 167.796 221.312 167.325 220.874 165.821 215.578 166.286"/><path class="cls-13" d="M216.588,164.882l.533,1.709,2.544-.236-.534-1.709a1.732,1.732,0,0,0-1.688-1.216A1.041,1.041,0,0,0,216.588,164.882Zm.563-.035a.584.584,0,0,1,.48-.814.971.971,0,0,1,.947.682.583.583,0,0,1-.48.814A.97.97,0,0,1,217.151,164.847Z"/><path class="cls-57" d="M234.628,176.394c-1.2.25-4.381,1.2-4.716,1.358a14.074,14.074,0,0,0-2.031,1.5c-1.2,1.2-.586,1.763-1.058,3.393a.941.941,0,0,0-.029.259c0,.17.229.316.461.158.125.21.5.08.674-.149,0,.163.226.266.592.063.2-.11.163-.1.62-.508a4.819,4.819,0,0,1,1.3-.789,9.512,9.512,0,0,0,1.265-.578c.484-.319,1.347-.394,1.772-1.776a1.379,1.379,0,0,1,.665-.664l1.948-1.221"/><path class="cls-45" d="M241.973,153.976c.506,1.807,2.615,14.331,2.615,14.331l-11.876,8.6.988,2.6s14.209-4.771,15.329-8.032,1.067-17.993-2.879-23.162a9,9,0,0,0-3.774-2.475"/><path class="cls-52" d="M229.792,180.9a10.494,10.494,0,0,0-.9.891,4.588,4.588,0,0,1-.89.928,4.678,4.678,0,0,1,.709-1.082,2.087,2.087,0,0,1,.508-.426A5.065,5.065,0,0,1,229.792,180.9Z"/><path class="cls-52" d="M229.138,180.117a3.472,3.472,0,0,0-.5.629,5.009,5.009,0,0,0-.4.673,5.175,5.175,0,0,1-.859,1.389,12.755,12.755,0,0,1,.642-1.485,2.928,2.928,0,0,1,.483-.682A2.1,2.1,0,0,1,229.138,180.117Z"/><path class="cls-52" d="M228.387,179.481a5.975,5.975,0,0,1-.461.642,2.518,2.518,0,0,0-.338.676c-.195.48-.364.962-.58,1.452a3.6,3.6,0,0,1,.365-1.545,2.088,2.088,0,0,1,.44-.682C227.994,179.829,228.214,179.679,228.387,179.481Z"/><path class="cls-58" d="M237.458,136.338c-.465-.272-.822-.559-1.125-.113-.161.236-.258.563-.532.644a.55.55,0,0,1-.623-.441,1.593,1.593,0,0,1,.1-.837l.561-1.806a2.716,2.716,0,0,0,.131-1.807,1.979,1.979,0,0,0-.57-.73,6.043,6.043,0,0,0-2.771-1.186,29.417,29.417,0,0,1-2.983-.612,3.23,3.23,0,0,1-1.136-.572,2.448,2.448,0,0,1-.8-1.836,3.786,3.786,0,0,1,.582-1.957,3.257,3.257,0,0,0,.3.679,2.523,2.523,0,0,1,.543-.852c.29,1.616,7.095,1.076,8.685,1.789,1.1.494,2.013.816,1.98,2.6a.635.635,0,0,0,.215.284,4.977,4.977,0,0,1,1.522,3.609c.15,1.982-1,4.128-2.136,5.763a3.693,3.693,0,0,1-.84,1,2.234,2.234,0,0,1-1.581.357c-.491-.094-1.458-.052-1.467-.551-.007-.358.757-1,.969-1.284"/><path class="cls-57" d="M235.676,138.211a.624.624,0,0,0,.933.708,2.153,2.153,0,0,0,1.358-1.666c.16-.857-.3-1.715-1.085-1.492a1.159,1.159,0,0,0-.741,1.129"/><path class="cls-52" d="M229.406,140.852l2.183.4a3.04,3.04,0,0,1-2.211.816"/><g class="cls-61"><polyline class="cls-62" points="58.035 103.428 60.959 104.9 59.497 101.312"/><path class="cls-62" d="M48.962,98.841a6.191,6.191,0,1,0,6.18-5.833A6.014,6.014,0,0,0,48.962,98.841Z"/><path class="cls-63" d="M53.629,96.925v4.169a.437.437,0,0,0,.656.379L57.9,99.388a.437.437,0,0,0,0-.757l-3.611-2.085A.437.437,0,0,0,53.629,96.925Z"/></g><g class="cls-61"><polyline class="cls-62" points="260.322 147.779 257.398 149.251 258.86 145.664"/><path class="cls-62" d="M269.4,143.192a6.191,6.191,0,1,1-6.18-5.832A6.014,6.014,0,0,1,269.4,143.192Z"/><path class="cls-63" d="M262.11,145.986c1.347.022,2.711.039,3.949-.042.393-.025.732-.613.255-.8a.864.864,0,0,0,.491-.4.39.39,0,0,0-.238-.525c.467.11.651-.59.287-.816a1.024,1.024,0,0,0,.394-.6.585.585,0,0,0-.284-.617,1.088,1.088,0,0,0-.486-.079l-1.68-.012a3.473,3.473,0,0,0-.249-2.455c-.134-.219-.494-.481-.78-.313-.269.158-.194.551-.181.8a2.766,2.766,0,0,1-1.528,2.549S262.124,144.868,262.11,145.986Z"/><rect class="cls-63" x="259.586" y="142.676" width="2.036" height="3.307"/></g><g class="cls-61"><polyline class="cls-62" points="166.78 97.159 168.913 94.854 165.99 95.427"/><path class="cls-62" d="M158.876,97.7a4.49,4.49,0,1,0,4.482-4.23A4.362,4.362,0,0,0,158.876,97.7Z"/><path class="cls-63" d="M162.5,99.721c.882.015,1.776.028,2.587-.031.257-.018.479-.445.167-.579a.591.591,0,0,0,.322-.292.293.293,0,0,0-.156-.381c.306.079.426-.428.188-.592a.754.754,0,0,0,.258-.432.443.443,0,0,0-.186-.447.64.64,0,0,0-.318-.058l-1.1-.008a2.766,2.766,0,0,0-.163-1.781c-.088-.159-.324-.349-.512-.227s-.127.4-.118.579a2.042,2.042,0,0,1-1,1.848S162.508,98.91,162.5,99.721Z"/><rect class="cls-63" x="160.845" y="97.32" width="1.334" height="2.398"/></g><g class="cls-61"><path class="cls-62" d="M187.648,66.242a6.6,6.6,0,1,0-1.5,1.383l2.56,1.366Z"/><path class="cls-13" d="M179.692,60.314a1.614,1.614,0,0,1,2.283.024l.412.421.423-.417a1.615,1.615,0,1,1,2.266,2.3l-1.571,1.547-.009.01a1.614,1.614,0,0,1-2.283-.024L179.668,62.6A1.615,1.615,0,0,1,179.692,60.314Z"/></g></g></g></svg>