<svg xmlns="http://www.w3.org/2000/svg" viewBox="0 0 292 292"><defs><style>.cls-1{fill:#f5f5f5;}.cls-2{fill:#e0e0e0;}.cls-3{fill:#27debf;}.cls-4{opacity:0.35;}.cls-18,.cls-5{fill:none;}.cls-5{stroke:#e7e7e7;stroke-miterlimit:10;}.cls-6{opacity:0.55;}.cls-12,.cls-13,.cls-7{fill:#fff;}.cls-8{opacity:0.45;}.cls-9{fill:#263238;}.cls-10{fill:#455a64;}.cls-11{fill:#37474f;}.cls-12{opacity:0.8;}.cls-13{opacity:0.6;}.cls-14{fill:#ffa8a7;}.cls-15{opacity:0.15;}.cls-16{fill:#f28f8f;}.cls-17{opacity:0.1;}.cls-18{stroke:#455a64;stroke-linecap:round;stroke-linejoin:round;stroke-width:1.5px;}</style></defs><title>solution</title><g id="Windows"><ellipse id="Floor-2" data-name="Floor" class="cls-1" cx="145.783" cy="195.979" rx="142.93" ry="82.521"/><ellipse id="Shadow" class="cls-2" cx="187.525" cy="151.458" rx="20.954" ry="12.098"/><path id="Shadow-2" data-name="Shadow" class="cls-2" d="M219.881,165.4l41.1,23.728a4.11,4.11,0,0,0,3.716,0l6.243-3.6a1.132,1.132,0,0,0,0-2.145l-41.1-23.728a4.107,4.107,0,0,0-3.715,0l-6.243,3.6A1.132,1.132,0,0,0,219.881,165.4Z"/><path id="Shadow-3" data-name="Shadow" class="cls-2" d="M86.706,235.293l56.8,32.8a5.614,5.614,0,0,0,5.074,0L238.7,216.057c1.4-.808,1.4-2.12,0-2.929l-56.8-32.794a5.607,5.607,0,0,0-5.074,0l-90.119,52.03C85.305,233.173,85.305,234.484,86.706,235.293Z"/><path id="Shadow-4" data-name="Shadow" class="cls-2" d="M76.84,198.805l-11.586-6.689a5.605,5.605,0,0,0-5.073,0l-37.763,21.8a5.607,5.607,0,0,1-5.074,0L12.9,211.352c-1.4-.809-1.4-2.121,0-2.929l118.676-68.518a5.607,5.607,0,0,1,5.074,0l4.445,2.566c1.4.809,1.4,2.121,0,2.93l-37.763,21.8c-1.4.809-1.4,2.121,0,2.93l11.585,6.688c1.4.809,1.4,2.12,0,2.929l-33,19.055A5.605,5.605,0,0,1,76.84,198.805Z"/><g id="Device"><path class="cls-3" d="M90.271,229.108,144.7,260.527a2.985,2.985,0,0,0,2.69,0l87.748-50.657a.819.819,0,0,0,0-1.551L180.709,176.9a2.981,2.981,0,0,0-2.69,0L90.271,227.556A.819.819,0,0,0,90.271,229.108Zm81.007-46.092a1.859,1.859,0,0,1,1.934.215l51.077,29.48a.7.7,0,0,1,0,1.332L154.51,254.321a2.557,2.557,0,0,1-2.308,0L101.128,224.84a.7.7,0,0,1,0-1.33Z"/><path class="cls-4" d="M90.271,229.108,144.7,260.527a2.985,2.985,0,0,0,2.69,0l87.748-50.657a.819.819,0,0,0,0-1.551L180.709,176.9a2.981,2.981,0,0,0-2.69,0L90.271,227.556A.819.819,0,0,0,90.271,229.108Zm81.007-46.092a1.859,1.859,0,0,1,1.934.215l51.077,29.48a.7.7,0,0,1,0,1.332L154.51,254.321a2.557,2.557,0,0,1-2.308,0L101.128,224.84a.7.7,0,0,1,0-1.33Z"/><path class="cls-5" d="M119.368,243.87a5.417,5.417,0,0,0,4.9,0c1.355-.782,1.355-2.049,0-2.831a5.417,5.417,0,0,0-4.9,0C118.013,241.821,118.013,243.089,119.368,243.87Z"/><path class="cls-3" d="M235.3,208.42a3.01,3.01,0,0,1,1.19,2.227v1.777a2.967,2.967,0,0,1-1.344,2.333L147.4,265.411a2.542,2.542,0,0,1-.987.3,3.53,3.53,0,0,1-.36.023l0,0v-4.889a3.605,3.605,0,0,0,.543-.045,2.408,2.408,0,0,0,.8-.275l87.75-50.657C235.825,209.473,235.88,208.849,235.3,208.42Z"/><path class="cls-6" d="M235.3,208.42a3.01,3.01,0,0,1,1.19,2.227v1.777a2.967,2.967,0,0,1-1.344,2.333L147.4,265.411a2.542,2.542,0,0,1-.987.3,3.53,3.53,0,0,1-.36.023l0,0v-4.889a3.605,3.605,0,0,0,.543-.045,2.408,2.408,0,0,0,.8-.275l87.75-50.657C235.825,209.473,235.88,208.849,235.3,208.42Z"/><path class="cls-3" d="M171.278,183.016a1.859,1.859,0,0,1,1.934.215l51.077,29.48a.7.7,0,0,1,0,1.332L154.51,254.321a2.557,2.557,0,0,1-2.308,0L101.128,224.84a.7.7,0,0,1,0-1.33Z"/><path class="cls-7" d="M171.278,183.016a1.859,1.859,0,0,1,1.934.215l51.077,29.48a.7.7,0,0,1,0,1.332L154.51,254.321a2.557,2.557,0,0,1-2.308,0L101.128,224.84a.7.7,0,0,1,0-1.33Z"/><path class="cls-3" d="M90.093,227.675c-.557.433-.5,1.044.177,1.431L144.7,260.528a2.749,2.749,0,0,0,1.345.319v4.886a2.722,2.722,0,0,1-1.341-.325L90.274,233.994a2.967,2.967,0,0,1-1.345-2.33l-.006-1.78A3.016,3.016,0,0,1,90.093,227.675Z"/><path class="cls-8" d="M90.093,227.675c-.557.433-.5,1.044.177,1.431L144.7,260.528a2.749,2.749,0,0,0,1.345.319v4.886a2.722,2.722,0,0,1-1.341-.325L90.274,233.994a2.967,2.967,0,0,1-1.345-2.33l-.006-1.78A3.016,3.016,0,0,1,90.093,227.675Z"/><path class="cls-9" d="M204.367,194.829a.9.9,0,0,0,.815,0,.248.248,0,0,0,0-.471.9.9,0,0,0-.815,0A.248.248,0,0,0,204.367,194.829Z"/><path class="cls-9" d="M205.67,198.527a1.8,1.8,0,0,0,1.631,0,.5.5,0,0,0,0-.941,1.8,1.8,0,0,0-1.631,0A.5.5,0,0,0,205.67,198.527Z"/><path class="cls-9" d="M204.52,196.888c.3-.173.285-.463-.036-.648l-5.366-3.1a1.24,1.24,0,0,0-1.123-.021c-.3.173-.284.464.036.649l5.366,3.1A1.24,1.24,0,0,0,204.52,196.888Z"/></g><polygon class="cls-7" points="146.044 200.853 193.641 228.332 174.602 239.324 127.006 211.845 146.044 200.853"/><path class="cls-3" d="M162.688,192.272c-1.314.758-1.314,1.989,0,2.748a5.26,5.26,0,0,0,4.76,0c1.314-.759,1.314-1.989,0-2.748A5.26,5.26,0,0,0,162.688,192.272Z"/><path class="cls-7" d="M165.607,193.592a.422.422,0,0,0,0,.8,1.534,1.534,0,0,0,1.384,0,.422.422,0,0,0,0-.8A1.527,1.527,0,0,0,165.607,193.592Z"/><path class="cls-10" d="M171.124,198.928a.075.075,0,0,1,.042.088.167.167,0,0,1-.088.1l-.486.28a.4.4,0,0,1-.171.051.265.265,0,0,1-.151-.024l-2.246-1.3a.073.073,0,0,1-.042-.087.169.169,0,0,1,.089-.1l4.414-2.548a.4.4,0,0,1,.171-.052.259.259,0,0,1,.152.025l.415.24a.074.074,0,0,1,.043.088.171.171,0,0,1-.089.1l-3.745,2.162Z"/><path class="cls-10" d="M175.65,198.346a1.01,1.01,0,0,1,.393.361.6.6,0,0,1,.073.413.969.969,0,0,1-.211.43,1.952,1.952,0,0,1-.472.406c-.038.026-.089.057-.153.094l-.191.11-.188.109c-.061.035-.115.064-.159.086a3.776,3.776,0,0,1-.706.271,3.528,3.528,0,0,1-.739.121,2.941,2.941,0,0,1-.712-.044,1.958,1.958,0,0,1-.626-.227,1.015,1.015,0,0,1-.394-.362.612.612,0,0,1-.077-.411.916.916,0,0,1,.211-.426,2.1,2.1,0,0,1,.47-.408c.037-.025.086-.057.147-.093s.12-.073.184-.11.128-.073.195-.109.12-.065.165-.086a3.4,3.4,0,0,1,.7-.273,3.632,3.632,0,0,1,.744-.122,2.919,2.919,0,0,1,.716.042A1.965,1.965,0,0,1,175.65,198.346Zm-.918,1.245a1.055,1.055,0,0,0,.277-.246.339.339,0,0,0,.076-.212.273.273,0,0,0-.076-.175.781.781,0,0,0-.179-.139,1.184,1.184,0,0,0-.242-.1,1.109,1.109,0,0,0-.3-.044,1.5,1.5,0,0,0-.368.044,1.981,1.981,0,0,0-.426.16c-.04.019-.089.044-.145.075s-.115.062-.173.1-.117.069-.172.1-.1.061-.126.082a1.072,1.072,0,0,0-.277.245.337.337,0,0,0-.076.213.27.27,0,0,0,.076.174.8.8,0,0,0,.18.14,1.174,1.174,0,0,0,.241.1,1.032,1.032,0,0,0,.3.044,1.412,1.412,0,0,0,.368-.044,1.929,1.929,0,0,0,.426-.16c.036-.016.082-.041.139-.074l.174-.1.171-.1C174.655,199.641,174.7,199.614,174.732,199.591Z"/><path class="cls-10" d="M177.882,200.66a1.053,1.053,0,0,0-.624-.151,1.789,1.789,0,0,0-.727.263l-1.777,1.026a.413.413,0,0,1-.171.052.267.267,0,0,1-.152-.026l-.389-.225a.073.073,0,0,1-.043-.087.169.169,0,0,1,.089-.1l3.184-1.838a.4.4,0,0,1,.171-.052.258.258,0,0,1,.152.025l.39.225a.077.077,0,0,1,.043.088.173.173,0,0,1-.09.1l-.157.091a2.59,2.59,0,0,1,.538.018,1.4,1.4,0,0,1,.486.178l.231.134a.073.073,0,0,1,.042.087.166.166,0,0,1-.089.1l-.451.26a.413.413,0,0,1-.171.052.254.254,0,0,1-.151-.025Z"/><path class="cls-10" d="M177.648,201.63a4.6,4.6,0,0,1,.808-.366,4.092,4.092,0,0,1,.839-.194,3.066,3.066,0,0,1,.79,0,1.786,1.786,0,0,1,.664.217.851.851,0,0,1,.38.381.625.625,0,0,1,.021.447,1.213,1.213,0,0,1-.3.466,2.631,2.631,0,0,1-.577.436l-.307.178a.417.417,0,0,1-.171.051.266.266,0,0,1-.152-.025l-1.712-.988a.714.714,0,0,0-.228.188.32.32,0,0,0-.071.192.286.286,0,0,0,.067.18.6.6,0,0,0,.179.151,1.12,1.12,0,0,0,.311.128,1.221,1.221,0,0,0,.281.033,1.318,1.318,0,0,1,.168.009.361.361,0,0,1,.118.045l.41.237a.078.078,0,0,1,.045.089.147.147,0,0,1-.091.1,1.288,1.288,0,0,1-.325.1,2.538,2.538,0,0,1-.517.041,3.124,3.124,0,0,1-.613-.07,2.011,2.011,0,0,1-.607-.232.908.908,0,0,1-.387-.377.574.574,0,0,1-.019-.448,1.3,1.3,0,0,1,.334-.482A3.309,3.309,0,0,1,177.648,201.63Zm2.281.133a.926.926,0,0,0-.311-.113,1.391,1.391,0,0,0-.328-.015,1.537,1.537,0,0,0-.315.055,1.7,1.7,0,0,0-.264.1l1.158.669a1.533,1.533,0,0,0,.177-.147.405.405,0,0,0,.113-.171.246.246,0,0,0-.019-.185A.512.512,0,0,0,179.929,201.763Z"/><path class="cls-10" d="M182.824,202.962a2.212,2.212,0,0,1,.6,0,1.294,1.294,0,0,1,.47.149.674.674,0,0,1,.367.4.556.556,0,0,1-.1.429,2.476,2.476,0,0,1,.411-.047,2.786,2.786,0,0,1,.392.013,2,2,0,0,1,.341.067,1.287,1.287,0,0,1,.268.111.743.743,0,0,1,.357.356.479.479,0,0,1-.034.384,1.245,1.245,0,0,1-.339.391,4.352,4.352,0,0,1-.564.381l-1.838,1.062a.4.4,0,0,1-.171.051.256.256,0,0,1-.151-.025l-.39-.225a.074.074,0,0,1-.043-.087.169.169,0,0,1,.089-.1l1.8-1.042c.31-.179.482-.329.516-.452s-.029-.229-.19-.322a.936.936,0,0,0-.528-.1,1.912,1.912,0,0,0-.779.269l-1.838,1.061a.4.4,0,0,1-.171.051.257.257,0,0,1-.151-.024l-.39-.225a.075.075,0,0,1-.043-.088.169.169,0,0,1,.089-.1l1.8-1.041q.465-.268.516-.452c.034-.122-.029-.23-.189-.322a.955.955,0,0,0-.547-.1,1.915,1.915,0,0,0-.795.287l-1.8,1.041a.4.4,0,0,1-.171.052.259.259,0,0,1-.152-.025l-.389-.225a.075.075,0,0,1-.043-.088.168.168,0,0,1,.089-.1l3.184-1.839a.4.4,0,0,1,.171-.051.258.258,0,0,1,.152.025l.39.224a.077.077,0,0,1,.043.088.168.168,0,0,1-.09.1Z"/><path class="cls-10" d="M188.1,206.29q-.583.319-1.148.663c-.506.309-.785.581-.836.82s.08.449.395.63a2.145,2.145,0,0,0,.428.189,1.705,1.705,0,0,0,.476.073,2.419,2.419,0,0,0,.548-.058,3.91,3.91,0,0,0,.653-.211.384.384,0,0,1,.154-.042.2.2,0,0,1,.1.024l.1.059a.068.068,0,0,1,.042.068c0,.027-.027.051-.071.073a3.5,3.5,0,0,1-.592.242,3.267,3.267,0,0,1-.716.135,3.137,3.137,0,0,1-.776-.038,2.25,2.25,0,0,1-.76-.277,1.1,1.1,0,0,1-.46-.427.59.59,0,0,1-.031-.464,1.213,1.213,0,0,1,.335-.481,3.862,3.862,0,0,1,.65-.481c.18-.112.376-.23.59-.353s.423-.24.626-.349a5.618,5.618,0,0,1,.83-.373,3.767,3.767,0,0,1,.837-.2,2.955,2.955,0,0,1,.8.018,2.159,2.159,0,0,1,.739.266,1.175,1.175,0,0,1,.48.438.642.642,0,0,1,.065.448.906.906,0,0,1-.234.414,2.128,2.128,0,0,1-.419.342.24.24,0,0,1-.127.041.221.221,0,0,1-.117-.024l-.1-.059a.068.068,0,0,1-.041-.06c0-.024.024-.053.072-.088a1.762,1.762,0,0,0,.365-.377.542.542,0,0,0,.1-.317.427.427,0,0,0-.129-.274,1.361,1.361,0,0,0-.325-.248,1.869,1.869,0,0,0-1.092-.228A3.6,3.6,0,0,0,188.1,206.29Z"/><path class="cls-10" d="M192.86,208.282a.871.871,0,0,1,.367.35.508.508,0,0,1,.023.392,1.08,1.08,0,0,1-.28.411,2.993,2.993,0,0,1-.531.4l-.127.077c-.048.03-.1.061-.154.092L192,210.1c-.055.029-.1.053-.13.072a4.618,4.618,0,0,1-.7.307,3.423,3.423,0,0,1-.711.161,2.562,2.562,0,0,1-.679-.013,1.756,1.756,0,0,1-.607-.213.865.865,0,0,1-.367-.35.5.5,0,0,1-.023-.391,1.1,1.1,0,0,1,.277-.412,2.687,2.687,0,0,1,.534-.4c.032-.018.073-.043.124-.075s.1-.063.157-.094l.16-.089c.052-.028.1-.052.133-.073a3.981,3.981,0,0,1,.7-.308,3.4,3.4,0,0,1,.713-.16,2.522,2.522,0,0,1,.679.013A1.748,1.748,0,0,1,192.86,208.282Zm-.768,1.395q.573-.346.651-.654t-.28-.512a1.491,1.491,0,0,0-.888-.162,2.9,2.9,0,0,0-1.133.376c-.072.037-.158.085-.258.143s-.182.107-.247.149q-.573.348-.651.654c-.053.2.04.374.28.512a1.476,1.476,0,0,0,.888.162,2.878,2.878,0,0,0,1.133-.376c.072-.037.158-.084.258-.142S192.027,209.719,192.092,209.677Z"/><path class="cls-10" d="M194.56,209.792a2.545,2.545,0,0,1,.64-.021,1.383,1.383,0,0,1,.551.18.605.605,0,0,1,.332.381.576.576,0,0,1-.155.463,2.571,2.571,0,0,1,.814-.07,1.63,1.63,0,0,1,.7.2.7.7,0,0,1,.284.275.433.433,0,0,1,.021.336.977.977,0,0,1-.258.383,2.78,2.78,0,0,1-.572.416l-1.989,1.148a.252.252,0,0,1-.263.022l-.087-.051c-.075-.043-.062-.093.038-.151l1.92-1.109a2.654,2.654,0,0,0,.5-.354.7.7,0,0,0,.2-.294.275.275,0,0,0-.035-.237.641.641,0,0,0-.21-.185,1.021,1.021,0,0,0-.293-.105,1.37,1.37,0,0,0-.409-.019,2.284,2.284,0,0,0-.516.112,3.288,3.288,0,0,0-.618.286l-1.921,1.109a.25.25,0,0,1-.263.021l-.087-.05c-.075-.044-.063-.094.037-.152l1.921-1.109a2.338,2.338,0,0,0,.5-.357.731.731,0,0,0,.2-.3.277.277,0,0,0-.035-.238.608.608,0,0,0-.2-.178,1.021,1.021,0,0,0-.293-.106,1.37,1.37,0,0,0-.408-.018,2.271,2.271,0,0,0-.514.109,3.273,3.273,0,0,0-.615.284l-1.927,1.113a.25.25,0,0,1-.263.021l-.088-.05c-.074-.043-.062-.094.038-.152l3.253-1.878a.25.25,0,0,1,.263-.021l.087.05c.076.043.063.094-.037.152Z"/><path class="cls-10" d="M196.693,214.757a.694.694,0,0,1-.37-.4.614.614,0,0,1,.049-.413l-1.619.935a.252.252,0,0,1-.263.021l-.087-.05c-.076-.044-.063-.094.037-.152l4.551-2.628a.251.251,0,0,1,.264-.021l.087.05c.075.043.062.094-.038.152l-.321.186a2.846,2.846,0,0,1,.719-.031,1.623,1.623,0,0,1,.682.216.747.747,0,0,1,.364.372.52.52,0,0,1-.033.407,1.324,1.324,0,0,1-.332.408,3.969,3.969,0,0,1-.522.381c-.065.042-.139.086-.22.133s-.159.09-.231.128a5.776,5.776,0,0,1-.66.3,3.6,3.6,0,0,1-.707.192,2.57,2.57,0,0,1-.705.019A1.656,1.656,0,0,1,196.693,214.757Zm1.23-1.705c-.071.037-.162.088-.271.151s-.2.115-.261.157a2.115,2.115,0,0,0-.36.27.837.837,0,0,0-.221.3.435.435,0,0,0-.014.3.527.527,0,0,0,.263.275,1.2,1.2,0,0,0,.479.158,1.884,1.884,0,0,0,.523-.017,2.719,2.719,0,0,0,.541-.154,4.708,4.708,0,0,0,.53-.243c.13-.071.258-.145.382-.22a3.531,3.531,0,0,0,.418-.3,1.079,1.079,0,0,0,.262-.311.4.4,0,0,0,.033-.3.537.537,0,0,0-.27-.278,1.2,1.2,0,0,0-.484-.153,2.158,2.158,0,0,0-.537.017,2.877,2.877,0,0,0-.535.137A3.458,3.458,0,0,0,197.923,213.052Z"/><path class="cls-10" d="M200.3,216.759c-.075-.044-.062-.094.038-.152l.321-.186a2.624,2.624,0,0,1-.312.042,1.986,1.986,0,0,1-.352-.007,2.155,2.155,0,0,1-.383-.075,1.811,1.811,0,0,1-.4-.171.765.765,0,0,1-.273-.249.469.469,0,0,1-.076-.293.565.565,0,0,1,.121-.3,1.043,1.043,0,0,1,.329-.276,1.833,1.833,0,0,1,.491-.2,2.357,2.357,0,0,1,.532-.068,2.688,2.688,0,0,1,.553.052,3,3,0,0,1,.546.161l.96.38.239-.138q.369-.213.408-.427c.025-.143-.083-.285-.326-.425a1.2,1.2,0,0,0-.59-.171,1.508,1.508,0,0,0-.515.069.613.613,0,0,1-.162.038.2.2,0,0,1-.1-.026l-.072-.041a.061.061,0,0,1-.034-.072.133.133,0,0,1,.072-.08,1.273,1.273,0,0,1,.291-.109,2.1,2.1,0,0,1,.446-.065,2.44,2.44,0,0,1,.531.034,1.584,1.584,0,0,1,.535.194.95.95,0,0,1,.39.352.418.418,0,0,1,.026.342.791.791,0,0,1-.229.313,2.334,2.334,0,0,1-.374.267l-2.275,1.314a.251.251,0,0,1-.264.021Zm-.64-.749a1.324,1.324,0,0,0,.409.146,1.882,1.882,0,0,0,.509.022,2.51,2.51,0,0,0,.581-.123,3.289,3.289,0,0,0,.628-.285l.232-.134-.784-.31a1.815,1.815,0,0,0-1.576-.074.647.647,0,0,0-.234.2.326.326,0,0,0-.054.206.331.331,0,0,0,.091.19A.77.77,0,0,0,199.658,216.01Z"/><path class="cls-10" d="M203.677,218.536a.252.252,0,0,1-.263.022l-.087-.051c-.075-.043-.062-.094.038-.151l1.906-1.1a1.42,1.42,0,0,0,.658-.611q.111-.3-.273-.517a1.48,1.48,0,0,0-.9-.162,2.654,2.654,0,0,0-1.082.37l-1.906,1.1a.252.252,0,0,1-.263.022l-.088-.051c-.074-.042-.062-.093.038-.151l3.253-1.878a.252.252,0,0,1,.263-.022l.087.05c.075.044.063.094-.038.152l-.321.186a3.186,3.186,0,0,1,.723-.033,1.591,1.591,0,0,1,.679.218.771.771,0,0,1,.339.331.473.473,0,0,1,0,.373,1.109,1.109,0,0,1-.288.394,2.931,2.931,0,0,1-.542.39Z"/><path class="cls-10" d="M203.73,220.121a.534.534,0,0,1-.112.018.191.191,0,0,1-.108-.027l-.1-.059a.056.056,0,0,1-.032-.065.13.13,0,0,1,.066-.073,1.088,1.088,0,0,1,.167-.061l1.625-.482,2.1-2.341a.629.629,0,0,1,.106-.1.3.3,0,0,1,.126-.037.191.191,0,0,1,.113.018l.108.062c.034.02.05.04.046.062a.149.149,0,0,1-.031.065l-1.845,2.06,3.588-1.054a.491.491,0,0,1,.113-.017.18.18,0,0,1,.107.026l.1.059a.057.057,0,0,1,.031.066.126.126,0,0,1-.065.072,1.123,1.123,0,0,1-.168.062Z"/><path class="cls-11" d="M224.289,212.711l-51.077-29.48a1.859,1.859,0,0,0-1.934-.215l-7.014,4.049,53.376,30.817,6.649-3.839A.7.7,0,0,0,224.289,212.711Z"/><path class="cls-7" d="M172.371,185.667l.36-.208a.276.276,0,0,1,.246-.02l.029.017c.059.033.043.1-.035.142l-.359.207a.282.282,0,0,1-.247.021l-.029-.017C172.278,185.775,172.294,185.712,172.371,185.667Z"/><path class="cls-7" d="M172.852,185.944l.621-.359a.276.276,0,0,1,.246-.02l.03.017c.058.034.042.1-.035.142l-.622.359a.276.276,0,0,1-.246.02l-.029-.017C172.759,186.053,172.774,185.989,172.852,185.944Z"/><path class="cls-7" d="M173.333,186.222l.883-.51a.276.276,0,0,1,.246-.02l.029.017c.059.033.043.1-.035.142l-.883.51a.283.283,0,0,1-.246.02l-.029-.017C173.24,186.33,173.255,186.267,173.333,186.222Z"/><path class="cls-7" d="M173.814,186.5l1.524-.88a.276.276,0,0,1,.246-.02l.029.017c.059.034.043.1-.035.142l-1.524.88a.276.276,0,0,1-.246.02l-.029-.017C173.72,186.608,173.736,186.544,173.814,186.5Z"/><path class="cls-7" d="M175.011,187.311c0-.012.013-.025.036-.038l.224-.129-.539-.311c-.029-.017-.029-.035,0-.053l.081-.047a.255.255,0,0,1,.047-.021.346.346,0,0,1,.055-.01l1.374-.132a.27.27,0,0,1,.056,0,.109.109,0,0,1,.046.017l.074.043c.023.013.034.026.032.039s-.015.026-.039.04l-.782.451.119.069c.023.013.033.025.031.037s-.015.025-.04.039l-.053.031a.141.141,0,0,1-.065.021.117.117,0,0,1-.063-.018l-.119-.069-.224.13a.157.157,0,0,1-.066.021.135.135,0,0,1-.065-.02l-.09-.052C175.021,187.335,175.01,187.322,175.011,187.311Zm.486-.257.558-.321-.949.1Z"/><path class="cls-7" d="M175.786,187.6c.015-.13.135-.26.358-.389a1.452,1.452,0,0,1,.675-.206,1.133,1.133,0,0,1,.627.153.843.843,0,0,1,.189.14.307.307,0,0,1,.088.142.019.019,0,0,1-.01.023.116.116,0,0,1-.03.01l-.148.028a.065.065,0,0,1-.038,0,.047.047,0,0,1-.012-.019.435.435,0,0,0-.2-.2.79.79,0,0,0-.431-.1,1.084,1.084,0,0,0-.494.158c-.173.1-.266.195-.278.284s.044.171.169.243a1.021,1.021,0,0,0,.145.069.7.7,0,0,0,.142.04l.363-.21-.224-.129c-.023-.014-.034-.026-.031-.038s.015-.024.04-.039l.051-.029a.128.128,0,0,1,.065-.022.119.119,0,0,1,.063.019l.359.207c.024.014.035.029.032.043s-.018.029-.047.046l-.518.3a.2.2,0,0,1-.05.022.121.121,0,0,1-.048,0,1.3,1.3,0,0,1-.539-.18Q175.764,187.8,175.786,187.6Z"/><path class="cls-7" d="M221.081,212.285a.168.168,0,0,0-.089-.195l-1.614-.932a.641.641,0,0,0-.578.047l-.784.453a.375.375,0,0,0-.192.219.171.171,0,0,0,0,.1.186.186,0,0,0,.086.1l1.614.932a.644.644,0,0,0,.579-.048l.784-.452A.38.38,0,0,0,221.081,212.285Zm-3.119-.42a.186.186,0,0,1,.093-.094l.784-.452a.5.5,0,0,1,.441-.036l1.613.932a.1.1,0,0,1,.049.051.054.054,0,0,1,0,.031.182.182,0,0,1-.093.093l-.784.453a.5.5,0,0,1-.441.036l-1.613-.932C217.972,211.925,217.954,211.9,217.962,211.865Z"/><path class="cls-7" d="M220,211.863l-.928.535-.869-.5a.127.127,0,0,1-.024-.019.263.263,0,0,0,.032-.018l.7-.407a.388.388,0,0,1,.327-.027Z"/><path class="cls-7" d="M220.964,212.553c.06.034-.021.137-.182.23l-.146.084a.6.6,0,0,1-.407.109l-.117-.058.744-.426Z"/><path class="cls-7" d="M178.982,189.318a.7.7,0,0,1-.626,0,.191.191,0,0,1,0-.361.691.691,0,0,1,.626,0A.19.19,0,0,1,178.982,189.318Z"/><path class="cls-7" d="M179.493,188.661a1.809,1.809,0,0,0-1.163-.168c-.081.014-.132.06-.122.109h0c.013.061.118.1.22.084a1.266,1.266,0,0,1,.82.117c.222.128.29.312.2.473-.032.059.039.12.145.127h0a.2.2,0,0,0,.188-.07C179.906,189.1,179.809,188.843,179.493,188.661Z"/><path class="cls-7" d="M179.994,188.372a2.876,2.876,0,0,0-1.73-.29c-.089.011-.15.058-.14.11h0c.012.059.11.1.211.085a2.34,2.34,0,0,1,1.413.236c.383.221.52.531.409.816-.022.059.045.115.147.122h0a.192.192,0,0,0,.192-.08C180.631,189.024,180.464,188.643,179.994,188.372Z"/><path class="cls-7" d="M195.827,199.286a.1.1,0,0,1-.053.013.1.1,0,0,1-.052-.013l-.079-.046a.036.036,0,0,1-.022-.03.035.035,0,0,1,.021-.03l1.07-.618-.553-.044a.076.076,0,0,1-.05-.015.037.037,0,0,1-.016-.032l.013-.061a.046.046,0,0,1,.029-.029.114.114,0,0,1,.056-.008l.733.056a.114.114,0,0,1,.044.01l.034.017.079.046a.036.036,0,0,1,.022.03.034.034,0,0,1-.022.03Z"/><path class="cls-7" d="M197.148,199.053a.037.037,0,0,1,.021.031c0,.012-.008.021-.022.03l-.13.075a.1.1,0,0,1-.052.012.105.105,0,0,1-.052-.012l-.131-.075c-.015-.009-.021-.019-.02-.03a.037.037,0,0,1,.021-.031l.13-.075a.119.119,0,0,1,.1,0Zm-.68.393a.034.034,0,0,1,.022.03.037.037,0,0,1-.023.03l-.13.075a.11.11,0,0,1-.1,0l-.131-.075c-.014-.008-.021-.018-.019-.03a.032.032,0,0,1,.02-.03l.13-.075a.114.114,0,0,1,.1,0Z"/><path class="cls-7" d="M197.189,200.133a.036.036,0,0,1-.022-.03.037.037,0,0,1,.021-.031l.268-.154-.609-.352a.04.04,0,0,1-.022-.03.036.036,0,0,1,.022-.031l.07-.04a.158.158,0,0,1,.038-.015.331.331,0,0,1,.055-.008l1.417-.11a.305.305,0,0,1,.068,0,.131.131,0,0,1,.054.016l.078.045a.033.033,0,0,1,.021.03.034.034,0,0,1-.02.031l-.812.468.166.1a.036.036,0,0,1,.022.03.035.035,0,0,1-.021.03l-.07.04a.1.1,0,0,1-.053.013.093.093,0,0,1-.052-.013l-.167-.1-.268.155a.107.107,0,0,1-.053.012.105.105,0,0,1-.052-.012Zm.442-.316.547-.316-.969.072Z"/><path class="cls-7" d="M198.192,200.333a.194.194,0,0,0-.034.052.083.083,0,0,0,0,.062.188.188,0,0,0,.053.076.65.65,0,0,0,.133.095.706.706,0,0,0,.128.058.637.637,0,0,0,.143.029.539.539,0,0,0,.139-.008.383.383,0,0,0,.135-.048.2.2,0,0,0,.082-.075.088.088,0,0,0,.008-.077.183.183,0,0,0-.057-.076.631.631,0,0,0-.106-.075l-.163-.094a.035.035,0,0,1-.02-.029.036.036,0,0,1,.022-.031l.069-.04a.114.114,0,0,1,.043-.013l.046,0,.727-.015-.559-.323a.035.035,0,0,1-.021-.031.032.032,0,0,1,.02-.03l.07-.04a.1.1,0,0,1,.053-.012.086.086,0,0,1,.052.012l.766.442a.035.035,0,0,1,.021.03.04.04,0,0,1-.022.03l-.07.04a.109.109,0,0,1-.043.014.34.34,0,0,1-.057,0l-.715.016a.56.56,0,0,1,.147.12.227.227,0,0,1,.059.126.182.182,0,0,1-.036.123.39.39,0,0,1-.132.113.683.683,0,0,1-.216.08.928.928,0,0,1-.235.017,1.133,1.133,0,0,1-.236-.041.937.937,0,0,1-.216-.092.756.756,0,0,1-.195-.147.272.272,0,0,1-.075-.135.153.153,0,0,1,.018-.117.274.274,0,0,1,.094-.091.088.088,0,0,1,.043-.01.076.076,0,0,1,.041.01l.09.052a.035.035,0,0,1,.022.027A.037.037,0,0,1,198.192,200.333Z"/><path class="cls-10" d="M173.491,187.845l42.679,24.641c.7.405.736,1.048.079,1.436a2.687,2.687,0,0,1-2.458-.029l-42.68-24.673c-.7-.405-.736-1.041-.079-1.42A2.724,2.724,0,0,1,173.491,187.845Z"/><path class="cls-3" d="M174.5,207.749l-4.6,2.657a.773.773,0,0,0,0,1.465l4.6,2.657a2.807,2.807,0,0,0,2.537,0l4.6-2.657a.774.774,0,0,0,0-1.465l-4.6-2.657A2.8,2.8,0,0,0,174.5,207.749Z"/><path class="cls-7" d="M178.1,212.881l.685-.4a.051.051,0,0,0,0-.093l-.543-.39a.072.072,0,0,1-.01-.111,1.39,1.39,0,0,0,.194-.269.169.169,0,0,1,.123-.082l.912-.057a.093.093,0,0,0,.086-.091v-.509a.093.093,0,0,0-.086-.091l-.912-.058a.166.166,0,0,1-.123-.082,1.355,1.355,0,0,0-.194-.268.073.073,0,0,1,.01-.112l.543-.39a.051.051,0,0,0,0-.093l-.685-.395a.181.181,0,0,0-.151-.007l-.694.322a.255.255,0,0,1-.159.009,4.2,4.2,0,0,0-.539-.128.132.132,0,0,1-.1-.1l-.087-.458a.107.107,0,0,0-.1-.084h-1.006a.108.108,0,0,0-.1.084l-.087.458a.129.129,0,0,1-.1.1,4.236,4.236,0,0,0-.539.128.251.251,0,0,1-.158-.009l-.694-.322a.183.183,0,0,0-.152.007l-.684.395a.051.051,0,0,0,0,.093l.543.39a.074.074,0,0,1,.01.112,1.316,1.316,0,0,0-.194.268.168.168,0,0,1-.123.082l-.913.058a.092.092,0,0,0-.085.091v.509a.091.091,0,0,0,.085.09l.913.058a.171.171,0,0,1,.123.082,1.349,1.349,0,0,0,.194.269.073.073,0,0,1-.01.111l-.543.39a.051.051,0,0,0,0,.093l.684.4a.183.183,0,0,0,.152.007l.694-.321a.252.252,0,0,1,.158-.01,4.072,4.072,0,0,0,.539.128.129.129,0,0,1,.1.1l.087.457a.108.108,0,0,0,.1.084h1.006a.107.107,0,0,0,.1-.084l.087-.457a.131.131,0,0,1,.1-.1,4.02,4.02,0,0,0,.538-.128.255.255,0,0,1,.159.01l.694.321A.181.181,0,0,0,178.1,212.881Zm-3.491-1.075a.706.706,0,0,1,0-1.336,2.558,2.558,0,0,1,2.313,0,.7.7,0,0,1,0,1.335A2.555,2.555,0,0,1,174.612,211.806Z"/><path class="cls-3" d="M162.588,200.886l-4.6,2.657a.773.773,0,0,0,0,1.465l4.6,2.657a2.8,2.8,0,0,0,2.537,0l4.6-2.657a.774.774,0,0,0,0-1.465l-4.6-2.657A2.8,2.8,0,0,0,162.588,200.886Z"/><polygon class="cls-7" points="163.049 204.742 162.461 204.403 161.01 205.24 159.92 204.611 162.254 203.264 161.611 202.892 166.265 202.885 166.252 205.572 165.609 205.201 163.276 206.548 162.185 205.919 163.636 205.081 163.049 204.742"/><path class="cls-3" d="M186.393,214.622l-4.6,2.658a.774.774,0,0,0,0,1.465l4.6,2.657a2.807,2.807,0,0,0,2.537,0l4.6-2.658a.772.772,0,0,0,0-1.464l-4.6-2.658A2.8,2.8,0,0,0,186.393,214.622Z"/><path class="cls-7" d="M191.879,218.682a.131.131,0,0,0-.071-.09l-4.826-2.786a.378.378,0,0,0-.219-.036l.466,2.675Z"/><path class="cls-7" d="M186.762,215.77a.376.376,0,0,0-.15.035l-3.467,1.994a.128.128,0,0,0-.074.1l3.713.19Z"/><path class="cls-7" d="M191.879,218.683l-3.938.012.219,2.154-.484-2.153h-.6a.291.291,0,0,1-.292-.288v-.123l-3.715-.389a.123.123,0,0,0,.073.115l4.831,2.793a.407.407,0,0,0,.369,0l3.464-2A.117.117,0,0,0,191.879,218.683Z"/><polygon class="cls-7" points="186.762 215.765 186.762 215.77 186.763 215.77 186.762 215.765"/><polygon class="cls-7" points="191.889 218.683 191.879 218.682 191.879 218.683 191.889 218.683"/><polygon class="cls-3" points="132.54 211.481 145.347 204.087 164.556 215.178 151.75 222.572 132.54 211.481"/><polygon class="cls-12" points="132.54 211.481 145.347 204.087 164.556 215.178 151.75 222.572 132.54 211.481"/><path class="cls-3" d="M155.366,214.111a.706.706,0,0,0,0,1.338,2.563,2.563,0,0,0,2.317,0,.707.707,0,0,0,0-1.338A2.563,2.563,0,0,0,155.366,214.111Z"/><polygon class="cls-3" points="132.54 211.481 137.343 208.708 147.044 209.916 147.136 217.841 147.672 214.848 152.818 215.735 153.087 221.8 151.75 222.572 132.54 211.481"/><path class="cls-10" d="M168.611,217.519l12.7,7.333c.471.272.5.7.053.954a1.831,1.831,0,0,1-1.654-.03l-12.7-7.333c-.471-.272-.5-.7-.053-.954A1.828,1.828,0,0,1,168.611,217.519Z"/><path class="cls-2" d="M165.068,219.17l19.1,11.029c.283.164.333.4.112.527a1.024,1.024,0,0,1-.912-.064l-19.1-11.029c-.283-.164-.333-.4-.112-.527A1.024,1.024,0,0,1,165.068,219.17Z"/><path class="cls-2" d="M163.467,220.094l19.1,11.03c.283.163.333.4.112.526a1.024,1.024,0,0,1-.912-.064l-19.1-11.029c-.283-.163-.333-.4-.112-.527A1.024,1.024,0,0,1,163.467,220.094Z"/><path class="cls-2" d="M161.866,221.018l19.1,11.03c.282.163.332.4.112.526a1.024,1.024,0,0,1-.912-.064l-19.1-11.029c-.282-.163-.333-.4-.112-.527A1.024,1.024,0,0,1,161.866,221.018Z"/><path class="cls-2" d="M160.266,221.943l6.3,3.632c.283.163.333.4.112.527a1.021,1.021,0,0,1-.912-.065l-6.3-3.632c-.283-.163-.333-.4-.112-.527A1.024,1.024,0,0,1,160.266,221.943Z"/><path class="cls-3" d="M155.805,223.927l.695-.4a1.885,1.885,0,0,1,1.706,0l4.7,2.712a.52.52,0,0,1,0,.985l-.694.4a1.887,1.887,0,0,1-1.707,0l-4.7-2.711A.521.521,0,0,1,155.805,223.927Z"/><path class="cls-3" d="M171.093,231.811a.488.488,0,0,1,0,.924,1.769,1.769,0,0,1-1.6,0,.488.488,0,0,1,0-.924A1.769,1.769,0,0,1,171.093,231.811Z"/><path class="cls-3" d="M172.694,233.506h0a1.145,1.145,0,0,1,.551.124.481.481,0,0,1,.044.029.394.394,0,0,1-.045.029,1.273,1.273,0,0,1-1.1,0,.394.394,0,0,1-.045-.029.322.322,0,0,1,.045-.029,1.141,1.141,0,0,1,.55-.124m0-.5a1.64,1.64,0,0,0-.8.191.488.488,0,0,0,0,.924,1.763,1.763,0,0,0,1.6,0,.488.488,0,0,0,0-.924,1.636,1.636,0,0,0-.8-.191Z"/><path class="cls-3" d="M175.1,234.892h0a1.145,1.145,0,0,1,.551.124c.018.011.032.02.044.029a.373.373,0,0,1-.044.029,1.137,1.137,0,0,1-.551.125,1.148,1.148,0,0,1-.551-.124c-.017-.011-.032-.02-.044-.029a.373.373,0,0,1,.044-.029,1.137,1.137,0,0,1,.551-.125m0-.5a1.65,1.65,0,0,0-.8.191.489.489,0,0,0,0,.925,1.775,1.775,0,0,0,1.6,0,.489.489,0,0,0,0-.925,1.644,1.644,0,0,0-.8-.191Z"/><path class="cls-3" d="M125.387,213.658l46.074,26.6a.464.464,0,0,1,0,.879l-3.237,1.869a1.682,1.682,0,0,1-1.523,0l-46.075-26.6a.464.464,0,0,1,0-.879l3.238-1.869A1.688,1.688,0,0,1,125.387,213.658Z"/><path class="cls-13" d="M125.387,213.658l46.074,26.6a.464.464,0,0,1,0,.879l-3.237,1.869a1.682,1.682,0,0,1-1.523,0l-46.075-26.6a.464.464,0,0,1,0-.879l3.238-1.869A1.688,1.688,0,0,1,125.387,213.658Z"/><path class="cls-7" d="M166.036,241.522c-.59-.341-.43-.987.357-1.441a2.821,2.821,0,0,1,2.5-.206c.59.34.43.987-.356,1.441A2.83,2.83,0,0,1,166.036,241.522Zm2.578-1.489a2.28,2.28,0,0,0-2.015.167c-.635.366-.764.888-.288,1.163a2.28,2.28,0,0,0,2.015-.166C168.961,240.83,169.091,240.308,168.614,240.033Z"/><path class="cls-7" d="M167.8,241.054l-1.064-.614c-.057-.033-.042-.095.034-.139a.272.272,0,0,1,.241-.02l1.064.614c.056.033.041.095-.035.139A.27.27,0,0,1,167.8,241.054Z"/><path class="cls-7" d="M166.723,241.1a.058.058,0,0,1-.028-.078.248.248,0,0,1,.21-.1l.927-.012.02-.534c0-.053.081-.108.176-.122s.169.017.168.07l-.025.657a.117.117,0,0,1-.069.085.312.312,0,0,1-.148.04l-1.138.014A.181.181,0,0,1,166.723,241.1Z"/><path class="cls-7" d="M123.468,215.3a.706.706,0,0,0,0,1.337,2.558,2.558,0,0,0,2.316,0,.706.706,0,0,0,0-1.338A2.561,2.561,0,0,0,123.468,215.3Z"/><path class="cls-7" d="M128.54,217.431l32.293,18.645c.478.276.562.675.189.891a1.735,1.735,0,0,1-1.542-.109l-32.292-18.645c-.478-.276-.563-.674-.189-.89A1.732,1.732,0,0,1,128.54,217.431Z"/><path class="cls-3" d="M118.248,217.78l46.075,26.6a.463.463,0,0,1,0,.878l-3.238,1.87a1.68,1.68,0,0,1-1.522,0l-46.075-26.6a.464.464,0,0,1,0-.879l3.238-1.869A1.68,1.68,0,0,1,118.248,217.78Z"/><path class="cls-7" d="M158.9,245.644c-.59-.341-.43-.987.357-1.441a2.825,2.825,0,0,1,2.5-.206c.59.34.43.987-.357,1.441A2.825,2.825,0,0,1,158.9,245.644Zm2.578-1.488a2.28,2.28,0,0,0-2.015.166c-.635.366-.764.888-.288,1.163a2.28,2.28,0,0,0,2.015-.166C161.822,244.953,161.951,244.431,161.475,244.156Z"/><path class="cls-7" d="M160.665,245.176l-1.064-.614c-.057-.033-.042-.095.034-.139a.272.272,0,0,1,.241-.02l1.063.614c.057.033.042.095-.034.139A.27.27,0,0,1,160.665,245.176Z"/><path class="cls-7" d="M159.584,245.224a.057.057,0,0,1-.028-.077.246.246,0,0,1,.21-.1l.927-.011.02-.535c0-.053.081-.108.176-.122s.169.017.168.07l-.025.657a.12.12,0,0,1-.069.086.311.311,0,0,1-.148.039l-1.138.015A.191.191,0,0,1,159.584,245.224Z"/><path class="cls-7" d="M116.327,219.42a.706.706,0,0,0,0,1.337,2.555,2.555,0,0,0,2.316,0,.706.706,0,0,0,0-1.337A2.557,2.557,0,0,0,116.327,219.42Z"/><path class="cls-7" d="M121.421,221.566l32.293,18.645c.478.276.562.674.189.89a1.732,1.732,0,0,1-1.542-.109l-32.292-18.644c-.478-.276-.563-.675-.189-.891A1.73,1.73,0,0,1,121.421,221.566Z"/><path class="cls-3" d="M111.11,221.9l46.074,26.6a.464.464,0,0,1,0,.879l-3.237,1.87a1.68,1.68,0,0,1-1.522,0l-46.076-26.6a.464.464,0,0,1,0-.879l3.238-1.869A1.682,1.682,0,0,1,111.11,221.9Z"/><path class="cls-4" d="M111.11,221.9l46.074,26.6a.464.464,0,0,1,0,.879l-3.237,1.87a1.68,1.68,0,0,1-1.522,0l-46.076-26.6a.464.464,0,0,1,0-.879l3.238-1.869A1.682,1.682,0,0,1,111.11,221.9Z"/><path class="cls-7" d="M151.758,249.766c-.59-.34-.43-.987.357-1.441a2.825,2.825,0,0,1,2.5-.206c.59.341.43.987-.357,1.441A2.825,2.825,0,0,1,151.758,249.766Zm2.578-1.488a2.28,2.28,0,0,0-2.015.166c-.635.367-.764.889-.288,1.163a2.28,2.28,0,0,0,2.015-.166C154.683,249.075,154.812,248.553,154.336,248.278Z"/><path class="cls-7" d="M153.526,249.3l-1.064-.614c-.057-.033-.042-.095.034-.139a.275.275,0,0,1,.241-.02l1.063.615c.057.032.042.094-.034.138A.27.27,0,0,1,153.526,249.3Z"/><path class="cls-7" d="M152.445,249.346a.057.057,0,0,1-.028-.077.249.249,0,0,1,.21-.1l.927-.011.02-.535c0-.053.081-.107.176-.122s.169.018.168.07l-.025.658a.123.123,0,0,1-.069.085.311.311,0,0,1-.148.039l-1.138.015A.191.191,0,0,1,152.445,249.346Z"/><path class="cls-7" d="M109.189,223.542a.706.706,0,0,0,0,1.337,2.557,2.557,0,0,0,2.317,0,.706.706,0,0,0,0-1.337A2.557,2.557,0,0,0,109.189,223.542Z"/><path class="cls-7" d="M114.3,225.7,146.6,244.345c.478.276.562.674.189.89a1.732,1.732,0,0,1-1.542-.109L112.95,226.482c-.478-.276-.562-.675-.189-.891A1.732,1.732,0,0,1,114.3,225.7Z"/><g id="Device-2" data-name="Device"><path class="cls-11" d="M112.6,171.932,79.375,191.123l-.078-.041L66.671,183.79a6.814,6.814,0,0,1-3.062-6.7L68.3,152.736l33.223-19.2-4.686,24.349a6.814,6.814,0,0,0,3.062,6.7Z"/><polygon class="cls-9" points="68.295 152.736 63.649 176.875 96.869 157.696 101.166 135.371 99.073 134.953 68.295 152.736"/><path class="cls-9" d="M79.376,191.126l-12.707-7.337a6.813,6.813,0,0,1-3.062-6.7l4.686-24.352-5.54-3.2L57.4,177.394A10.277,10.277,0,0,0,62.017,187.5l17.359,10.022Z"/><polygon class="cls-10" points="112.599 171.93 79.376 191.126 79.376 197.524 112.599 178.329 112.599 171.93"/><path class="cls-10" d="M145.1,14.143a6.332,6.332,0,0,1,2.77,5.01V121.105a6.529,6.529,0,0,1-2.954,5.115L17.835,199.591a6.334,6.334,0,0,1-5.724.1,6.333,6.333,0,0,1-2.771-5.01V92.734a6.529,6.529,0,0,1,2.954-5.115L139.376,14.248A6.334,6.334,0,0,1,145.1,14.143Z"/><path class="cls-9" d="M17.486,199.768a6.371,6.371,0,0,1-5.376-.073,6.325,6.325,0,0,1-2.771-5.008V92.734a6.063,6.063,0,0,1,.866-2.911l5.543,3.2a6.014,6.014,0,0,0-.867,2.906V197.884C14.881,199.633,16.017,200.416,17.486,199.768Z"/><path class="cls-11" d="M147.87,121.105V19.153c0-1.884-1.322-2.647-2.953-1.706L17.836,90.818a6.528,6.528,0,0,0-2.954,5.115V197.886c0,1.883,1.322,2.646,2.954,1.705L144.916,126.22A6.529,6.529,0,0,0,147.87,121.105Z"/><path class="cls-3" d="M141.383,22.652,20.015,92.758a5.224,5.224,0,0,0-2.363,4.093V187.37c0,1.507,1.058,2.117,2.363,1.364l121.368-70.106a5.224,5.224,0,0,0,2.363-4.093l0-90.519C143.745,22.509,142.688,21.9,141.383,22.652Z"/><path class="cls-8" d="M141.383,22.652,20.015,92.758a5.224,5.224,0,0,0-2.363,4.093V187.37c0,1.507,1.058,2.117,2.363,1.364l121.368-70.106a5.224,5.224,0,0,0,2.363-4.093l0-90.519C143.745,22.509,142.688,21.9,141.383,22.652Z"/><g id="Window"><path class="cls-7" d="M23.538,181.031c-.771,0-.854-.872-.854-1.247v-75.2L138.715,37.592v74.624a4.936,4.936,0,0,1-2.2,3.8L24.38,180.764a1.757,1.757,0,0,1-.842.267Z"/><path class="cls-2" d="M138.214,38.458v73.758a4.443,4.443,0,0,1-1.946,3.371L24.13,180.331a1.233,1.233,0,0,1-.593.2c-.319,0-.353-.522-.353-.747V104.871l115.03-66.413m1-1.732L22.184,104.294v75.49c0,1.107.551,1.747,1.353,1.747a2.227,2.227,0,0,0,1.093-.334l112.139-64.744a5.407,5.407,0,0,0,2.446-4.237V36.726Z"/><path class="cls-11" d="M22.184,99.169a5.407,5.407,0,0,1,2.446-4.237L136.768,30.189c1.351-.78,2.446-.147,2.446,1.412v5.125L22.184,104.294Z"/><path class="cls-3" d="M125.447,39.369a2.535,2.535,0,0,0-1.148,1.987c0,.732.514,1.029,1.148.663a2.536,2.536,0,0,0,1.147-1.988C126.594,39.3,126.081,39,125.447,39.369Z"/><path class="cls-3" d="M129.462,37.056a2.536,2.536,0,0,0-1.147,1.988c0,.732.513,1.028,1.147.662a2.534,2.534,0,0,0,1.148-1.987C130.61,36.987,130.1,36.69,129.462,37.056Z"/><path class="cls-3" d="M133.478,34.744a2.535,2.535,0,0,0-1.148,1.987c0,.732.514,1.029,1.148.663a2.539,2.539,0,0,0,1.147-1.988C134.625,34.675,134.111,34.378,133.478,34.744Z"/></g></g><path class="cls-3" d="M36.7,104.116c0,1.518,1.066,2.133,2.381,1.374a5.263,5.263,0,0,0,2.38-4.122c0-1.518-1.066-2.133-2.38-1.374A5.259,5.259,0,0,0,36.7,104.116Z"/><path class="cls-7" d="M39.306,102.248c0,.441.31.62.692.4a1.528,1.528,0,0,0,.692-1.2c0-.441-.31-.62-.692-.4A1.528,1.528,0,0,0,39.306,102.248Z"/><path class="cls-10" d="M46.686,100.139a.075.075,0,0,1,.1.007.169.169,0,0,1,.041.126v.56a.41.41,0,0,1-.041.174.262.262,0,0,1-.1.119l-2.245,1.3a.074.074,0,0,1-.1-.007.165.165,0,0,1-.041-.126v-5.1a.4.4,0,0,1,.041-.174.255.255,0,0,1,.1-.119l.416-.24a.073.073,0,0,1,.1.007.169.169,0,0,1,.041.126v4.324Z"/><path class="cls-10" d="M48.444,95.928a1.01,1.01,0,0,1,.51-.16.6.6,0,0,1,.394.143.966.966,0,0,1,.267.4,1.943,1.943,0,0,1,.116.612c0,.046,0,.1,0,.179v.438c0,.071,0,.131,0,.18a3.845,3.845,0,0,1-.118.747,3.523,3.523,0,0,1-.265.7,2.934,2.934,0,0,1-.394.594,1.943,1.943,0,0,1-.51.429,1.01,1.01,0,0,1-.51.16.612.612,0,0,1-.395-.139.906.906,0,0,1-.263-.395,2.034,2.034,0,0,1-.118-.611c0-.045-.007-.1-.008-.173s0-.142,0-.216,0-.147,0-.222,0-.137.008-.186a3.4,3.4,0,0,1,.115-.746,3.778,3.778,0,0,1,.266-.706,2.912,2.912,0,0,1,.395-.6A1.962,1.962,0,0,1,48.444,95.928Zm.62,1.417a1.07,1.07,0,0,0-.074-.363.341.341,0,0,0-.146-.172.28.28,0,0,0-.19-.021.8.8,0,0,0-.21.086,1.148,1.148,0,0,0-.21.157,1.069,1.069,0,0,0-.19.239,1.555,1.555,0,0,0-.146.341,2.052,2.052,0,0,0-.074.449c0,.045-.006.1-.008.163s0,.131,0,.2,0,.135,0,.2,0,.114.008.149a1.083,1.083,0,0,0,.074.363.341.341,0,0,0,.146.172.268.268,0,0,0,.19.021.764.764,0,0,0,.21-.086,1.148,1.148,0,0,0,.21-.157,1.075,1.075,0,0,0,.19-.239,1.489,1.489,0,0,0,.146-.341,1.975,1.975,0,0,0,.074-.449c0-.039.005-.091.005-.157v-.4C49.069,97.437,49.067,97.386,49.064,97.345Z"/><path class="cls-10" d="M51.565,95.152a1.046,1.046,0,0,0-.442.465,1.786,1.786,0,0,0-.137.761V98.43a.4.4,0,0,1-.04.173.257.257,0,0,1-.1.119l-.39.225a.075.075,0,0,1-.1-.006.173.173,0,0,1-.041-.127V95.137a.41.41,0,0,1,.041-.174.267.267,0,0,1,.1-.119l.39-.225a.075.075,0,0,1,.1.007.17.17,0,0,1,.04.127v.181a2.6,2.6,0,0,1,.285-.457,1.368,1.368,0,0,1,.4-.331l.231-.134a.075.075,0,0,1,.1.007.173.173,0,0,1,.041.127v.521A.409.409,0,0,1,52,94.84a.255.255,0,0,1-.1.119Z"/><path class="cls-10" d="M52.288,95.839a4.482,4.482,0,0,1,.088-.883,4.066,4.066,0,0,1,.25-.823,3.061,3.061,0,0,1,.4-.683,1.8,1.8,0,0,1,.52-.466.85.85,0,0,1,.52-.139.623.623,0,0,1,.4.2,1.21,1.21,0,0,1,.253.493,2.608,2.608,0,0,1,.09.717v.355a.41.41,0,0,1-.041.174.262.262,0,0,1-.1.119l-1.711.988a.741.741,0,0,0,.048.292.32.32,0,0,0,.131.157.288.288,0,0,0,.19.033.627.627,0,0,0,.22-.08,1.172,1.172,0,0,0,.267-.2,1.235,1.235,0,0,0,.168-.228,1.485,1.485,0,0,1,.092-.14.363.363,0,0,1,.1-.08l.41-.237a.079.079,0,0,1,.1.006.15.15,0,0,1,.039.127,1.307,1.307,0,0,1-.08.33,2.509,2.509,0,0,1-.223.468,3.119,3.119,0,0,1-.367.5,2.023,2.023,0,0,1-.5.41.907.907,0,0,1-.52.146.57.57,0,0,1-.4-.208,1.277,1.277,0,0,1-.25-.53A3.27,3.27,0,0,1,52.288,95.839Zm1.256-1.908a.921.921,0,0,0-.254.213,1.379,1.379,0,0,0-.177.276,1.573,1.573,0,0,0-.11.3,1.6,1.6,0,0,0-.048.277l1.158-.669a1.506,1.506,0,0,0-.039-.226.4.4,0,0,0-.092-.183.242.242,0,0,0-.169-.077A.51.51,0,0,0,53.544,93.931Z"/><path class="cls-10" d="M56.029,92.022a2.247,2.247,0,0,1,.3-.523,1.294,1.294,0,0,1,.364-.332.672.672,0,0,1,.527-.119.555.555,0,0,1,.323.3,2.362,2.362,0,0,1,.165-.379,2.663,2.663,0,0,1,.207-.333,1.994,1.994,0,0,1,.228-.262,1.32,1.32,0,0,1,.231-.177.746.746,0,0,1,.486-.131.481.481,0,0,1,.316.221,1.256,1.256,0,0,1,.169.49,4.406,4.406,0,0,1,.049.678v2.123a.4.4,0,0,1-.042.174.26.26,0,0,1-.1.119l-.389.224a.075.075,0,0,1-.1-.006.172.172,0,0,1-.041-.126V91.879a1.079,1.079,0,0,0-.133-.674q-.133-.135-.374,0a.933.933,0,0,0-.351.407,1.924,1.924,0,0,0-.157.809v2.123a.408.408,0,0,1-.04.173.262.262,0,0,1-.1.119l-.389.225a.075.075,0,0,1-.1-.007.169.169,0,0,1-.041-.126V92.849a1.077,1.077,0,0,0-.133-.673c-.089-.091-.213-.09-.374,0a.953.953,0,0,0-.359.424,1.92,1.92,0,0,0-.149.832v2.083a.412.412,0,0,1-.04.174.267.267,0,0,1-.1.119l-.389.225a.076.076,0,0,1-.1-.007.168.168,0,0,1-.041-.126V92.226a.393.393,0,0,1,.041-.174.265.265,0,0,1,.1-.12l.389-.225a.076.076,0,0,1,.1.007.173.173,0,0,1,.04.127Z"/><path class="cls-10" d="M61.549,89.119q-.014.665,0,1.326a1.656,1.656,0,0,0,.293,1.133q.27.246.743-.027a2.1,2.1,0,0,0,.377-.276,1.713,1.713,0,0,0,.3-.376,2.459,2.459,0,0,0,.223-.5,3.913,3.913,0,0,0,.144-.671.387.387,0,0,1,.041-.154.205.205,0,0,1,.071-.077l.1-.059a.068.068,0,0,1,.079,0c.023.016.031.049.028.1a3.515,3.515,0,0,1-.087.634,3.222,3.222,0,0,1-.24.688,3.169,3.169,0,0,1-.421.653,2.269,2.269,0,0,1-.62.52,1.1,1.1,0,0,1-.6.184.589.589,0,0,1-.417-.2,1.217,1.217,0,0,1-.249-.531,3.787,3.787,0,0,1-.092-.8q-.011-.317-.011-.688t.011-.716a5.5,5.5,0,0,1,.092-.905,3.749,3.749,0,0,1,.249-.822,2.957,2.957,0,0,1,.417-.688,2.173,2.173,0,0,1,.6-.507,1.174,1.174,0,0,1,.62-.2.648.648,0,0,1,.421.168.907.907,0,0,1,.24.409,2.144,2.144,0,0,1,.087.534.234.234,0,0,1-.028.131.218.218,0,0,1-.079.089l-.1.059a.067.067,0,0,1-.071.006c-.021-.012-.034-.048-.041-.107a1.733,1.733,0,0,0-.144-.505.548.548,0,0,0-.223-.246.432.432,0,0,0-.3-.026,1.411,1.411,0,0,0-.377.158,1.855,1.855,0,0,0-.743.832A3.576,3.576,0,0,0,61.549,89.119Z"/><path class="cls-10" d="M65.654,85.992a.865.865,0,0,1,.488-.143.507.507,0,0,1,.35.176,1.071,1.071,0,0,1,.216.448,3.029,3.029,0,0,1,.084.661c0,.042,0,.092,0,.148s0,.117,0,.18,0,.126,0,.187,0,.111,0,.148a4.58,4.58,0,0,1-.084.759,3.406,3.406,0,0,1-.216.7,2.564,2.564,0,0,1-.35.582,1.768,1.768,0,0,1-.488.419.866.866,0,0,1-.487.143.5.5,0,0,1-.35-.176,1.076,1.076,0,0,1-.218-.446,2.72,2.72,0,0,1-.082-.664q0-.054,0-.144c0-.059,0-.121,0-.184s0-.124,0-.183,0-.11,0-.151a4.014,4.014,0,0,1,.082-.757,3.379,3.379,0,0,1,.218-.7,2.543,2.543,0,0,1,.35-.581A1.76,1.76,0,0,1,65.654,85.992Zm.825,1.362a1.307,1.307,0,0,0-.241-.891.447.447,0,0,0-.584-.014,1.494,1.494,0,0,0-.584.689,2.914,2.914,0,0,0-.241,1.169c0,.081,0,.179,0,.3s0,.211,0,.288a1.323,1.323,0,0,0,.241.891.447.447,0,0,0,.584.014,1.479,1.479,0,0,0,.584-.688,2.867,2.867,0,0,0,.241-1.169c0-.081.006-.18.006-.3S66.483,87.431,66.479,87.354Z"/><path class="cls-10" d="M67.812,85.274a2.582,2.582,0,0,1,.3-.564,1.388,1.388,0,0,1,.431-.387.606.606,0,0,1,.5-.1.582.582,0,0,1,.323.366,2.564,2.564,0,0,1,.346-.74,1.632,1.632,0,0,1,.526-.5.687.687,0,0,1,.379-.108.429.429,0,0,1,.3.149.979.979,0,0,1,.2.416,2.788,2.788,0,0,1,.074.7v2.3a.251.251,0,0,1-.113.238L71,87.091c-.075.043-.112.007-.112-.109V84.765a2.583,2.583,0,0,0-.057-.611.706.706,0,0,0-.153-.321.277.277,0,0,0-.224-.089.626.626,0,0,0-.264.089,1.051,1.051,0,0,0-.238.2,1.387,1.387,0,0,0-.221.345,2.29,2.29,0,0,0-.161.5,3.328,3.328,0,0,0-.061.679v2.217a.253.253,0,0,1-.113.239l-.087.05c-.076.043-.113.007-.113-.108V85.741a2.314,2.314,0,0,0-.062-.607.722.722,0,0,0-.158-.319.275.275,0,0,0-.223-.089.614.614,0,0,0-.254.084,1,1,0,0,0-.238.2,1.376,1.376,0,0,0-.22.345,2.276,2.276,0,0,0-.162.5,3.184,3.184,0,0,0-.062.674v2.226a.249.249,0,0,1-.113.238l-.087.051c-.075.043-.113.007-.113-.109V85.179a.252.252,0,0,1,.113-.239l.087-.05c.076-.044.113-.008.113.109Z"/><path class="cls-10" d="M73.178,85.909a.69.69,0,0,1-.527.123.616.616,0,0,1-.334-.25v1.871a.251.251,0,0,1-.112.238l-.087.05Q72,88.007,72,87.833V82.578a.252.252,0,0,1,.114-.239l.087-.05c.075-.044.112-.007.112.109v.37a2.913,2.913,0,0,1,.334-.638,1.606,1.606,0,0,1,.527-.482.744.744,0,0,1,.505-.13.518.518,0,0,1,.336.233,1.309,1.309,0,0,1,.187.491,4.021,4.021,0,0,1,.069.643c0,.077,0,.163,0,.257s0,.183,0,.263a5.694,5.694,0,0,1-.069.723,3.545,3.545,0,0,1-.187.708,2.515,2.515,0,0,1-.336.619A1.646,1.646,0,0,1,73.178,85.909Zm-.861-1.917c0,.08,0,.184,0,.31s0,.228,0,.3a2.287,2.287,0,0,0,.054.446.856.856,0,0,0,.151.343.438.438,0,0,0,.257.164.533.533,0,0,0,.369-.091,1.214,1.214,0,0,0,.376-.336,1.9,1.9,0,0,0,.247-.461,2.834,2.834,0,0,0,.138-.546,5.146,5.146,0,0,0,.054-.58q0-.224,0-.441a3.574,3.574,0,0,0-.054-.514,1.086,1.086,0,0,0-.138-.382.4.4,0,0,0-.247-.181.533.533,0,0,0-.376.095,1.2,1.2,0,0,0-.375.342,2.149,2.149,0,0,0-.253.474,2.844,2.844,0,0,0-.149.532A3.506,3.506,0,0,0,72.317,83.992Z"/><path class="cls-10" d="M76.715,83.788c-.075.043-.113.007-.113-.108v-.371a2.64,2.64,0,0,1-.12.29,2.035,2.035,0,0,1-.182.3,2.146,2.146,0,0,1-.257.294,1.738,1.738,0,0,1-.348.261.764.764,0,0,1-.352.112.472.472,0,0,1-.291-.08.574.574,0,0,1-.2-.255,1.054,1.054,0,0,1-.074-.423,1.848,1.848,0,0,1,.074-.524,2.318,2.318,0,0,1,.207-.5,2.667,2.667,0,0,1,.321-.453,2.947,2.947,0,0,1,.413-.392L76.6,81.3v-.276a.729.729,0,0,0-.166-.566q-.167-.141-.531.069a1.21,1.21,0,0,0-.443.426,1.487,1.487,0,0,0-.2.481.552.552,0,0,1-.048.158.2.2,0,0,1-.075.078l-.071.042a.06.06,0,0,1-.08-.006.137.137,0,0,1-.033-.1,1.31,1.31,0,0,1,.051-.306,2.06,2.06,0,0,1,.167-.419,2.482,2.482,0,0,1,.294-.443,1.6,1.6,0,0,1,.436-.366.953.953,0,0,1,.5-.162.416.416,0,0,1,.31.149.789.789,0,0,1,.156.355,2.351,2.351,0,0,1,.044.456V83.5a.253.253,0,0,1-.113.239Zm-.969.181a1.313,1.313,0,0,0,.331-.282,1.9,1.9,0,0,0,.274-.43,2.539,2.539,0,0,0,.184-.564,3.278,3.278,0,0,0,.067-.686v-.268l-.661.523a1.813,1.813,0,0,0-.851,1.328.647.647,0,0,0,.059.3.328.328,0,0,0,.152.15.332.332,0,0,0,.209.016A.786.786,0,0,0,75.746,83.969Z"/><path class="cls-10" d="M79.944,81.751a.251.251,0,0,1-.113.238l-.087.051c-.075.043-.113.007-.113-.109v-2.2a1.419,1.419,0,0,0-.2-.875c-.134-.163-.328-.17-.584-.022a1.472,1.472,0,0,0-.589.7,2.662,2.662,0,0,0-.221,1.122v2.2a.253.253,0,0,1-.113.239l-.087.05c-.075.044-.112.007-.112-.108V79.276a.251.251,0,0,1,.112-.239l.087-.05c.075-.044.113-.008.113.108v.371a3.184,3.184,0,0,1,.333-.642,1.591,1.591,0,0,1,.528-.479.765.765,0,0,1,.456-.128.474.474,0,0,1,.326.182,1.1,1.1,0,0,1,.2.447,2.9,2.9,0,0,1,.067.664Z"/><path class="cls-10" d="M81.343,82.5a.518.518,0,0,1-.041.106.191.191,0,0,1-.077.08l-.1.059a.057.057,0,0,1-.073-.005.127.127,0,0,1-.03-.093,1.09,1.09,0,0,1,.03-.175l.4-1.649-.98-2.985a.6.6,0,0,1-.03-.141.3.3,0,0,1,.03-.128.2.2,0,0,1,.072-.089l.108-.062c.034-.02.06-.022.077-.009a.142.142,0,0,1,.041.06l.861,2.627.882-3.634a.506.506,0,0,1,.041-.106.189.189,0,0,1,.076-.08l.1-.059a.055.055,0,0,1,.072.006.123.123,0,0,1,.03.092,1.1,1.1,0,0,1-.03.176Z"/><path class="cls-3" d="M105.719,62.985V68.3c0,.809.568,1.137,1.268.733l4.6-2.658a2.8,2.8,0,0,0,1.268-2.2V58.863c0-.809-.568-1.137-1.268-.733l-4.6,2.658A2.8,2.8,0,0,0,105.719,62.985Z"/><path class="cls-7" d="M111.965,62.431V61.64a.051.051,0,0,0-.078-.05l-.609.275a.072.072,0,0,1-.1-.047,1.418,1.418,0,0,0-.136-.3.168.168,0,0,1-.01-.148l.407-.819a.093.093,0,0,0-.036-.119l-.441-.255a.092.092,0,0,0-.121.029l-.507.761a.169.169,0,0,1-.132.066,1.369,1.369,0,0,0-.33.033A.072.072,0,0,1,109.78,61l-.067-.665a.051.051,0,0,0-.082-.043l-.685.4a.184.184,0,0,0-.082.127l-.068.762a.257.257,0,0,1-.071.142,4.059,4.059,0,0,0-.381.4.13.13,0,0,1-.134.038l-.44-.154a.108.108,0,0,0-.123.046l-.5.872a.107.107,0,0,0,.022.13l.352.3a.13.13,0,0,1,.035.135,4.069,4.069,0,0,0-.159.531.253.253,0,0,1-.087.132l-.626.441a.185.185,0,0,0-.07.134v.791a.051.051,0,0,0,.078.05l.61-.275a.072.072,0,0,1,.1.047,1.4,1.4,0,0,0,.136.3.166.166,0,0,1,.009.147l-.406.819a.092.092,0,0,0,.036.119l.441.255a.092.092,0,0,0,.121-.029l.506-.761a.171.171,0,0,1,.133-.066,1.361,1.361,0,0,0,.329-.033.073.073,0,0,1,.092.064l.066.665a.052.052,0,0,0,.083.043l.685-.4a.183.183,0,0,0,.081-.127l.069-.762a.25.25,0,0,1,.071-.142,4.17,4.17,0,0,0,.38-.4.133.133,0,0,1,.135-.038l.439.154a.109.109,0,0,0,.124-.046l.5-.872a.108.108,0,0,0-.022-.13l-.353-.3a.13.13,0,0,1-.034-.135,4.063,4.063,0,0,0,.158-.531.254.254,0,0,1,.088-.132l.625-.441A.182.182,0,0,0,111.965,62.431Zm-2.677,2.485c-.638.369-1.156.07-1.156-.667a2.556,2.556,0,0,1,1.156-2c.639-.369,1.157-.07,1.157.667A2.554,2.554,0,0,1,109.288,64.916Z"/><path class="cls-3" d="M93.819,69.869v5.315c0,.809.568,1.137,1.269.732l4.6-2.657a2.8,2.8,0,0,0,1.269-2.2V65.747c0-.808-.568-1.136-1.269-.732l-4.6,2.657A2.805,2.805,0,0,0,93.819,69.869Z"/><polygon class="cls-7" points="97.389 71.398 96.802 71.738 96.802 73.413 95.711 74.043 95.711 71.348 95.068 71.719 97.389 67.685 99.71 69.04 99.067 69.411 99.067 72.106 97.977 72.735 97.977 71.06 97.389 71.398"/><path class="cls-3" d="M117.618,56.123v5.314c0,.809.568,1.137,1.268.733l4.6-2.658a2.8,2.8,0,0,0,1.268-2.2V52c0-.809-.568-1.137-1.268-.733l-4.6,2.658A2.8,2.8,0,0,0,117.618,56.123Z"/><path class="cls-7" d="M123.876,53.4a.138.138,0,0,0-.113.017L118.937,56.2a.386.386,0,0,0-.141.172l2.55.933Z"/><path class="cls-7" d="M118.8,56.376a.369.369,0,0,0-.044.148l-.008,4a.133.133,0,0,0,.048.113l2.022-3.121Z"/><path class="cls-7" d="M123.877,53.4l-1.958,3.417,1.975.888-2.107-.658-.3.518a.291.291,0,0,1-.4.108l-.107-.06-2.195,3.023a.121.121,0,0,0,.136-.007l4.835-2.786a.409.409,0,0,0,.185-.32v-4A.118.118,0,0,0,123.877,53.4Z"/><polygon class="cls-7" points="118.792 56.374 118.796 56.376 118.796 56.376 118.792 56.374"/><polygon class="cls-7" points="123.882 53.392 123.876 53.401 123.877 53.401 123.882 53.392"/><polygon class="cls-7" points="36.704 112.36 124.757 61.522 124.757 89.002 36.704 139.84 36.704 112.36"/><polygon class="cls-3" points="41.463 134.344 41.463 112.36 70.02 95.872 70.021 117.856 41.463 134.344"/><polygon class="cls-12" points="41.463 134.344 41.463 112.36 70.02 95.872 70.021 117.856 41.463 134.344"/><path class="cls-3" d="M61.817,106.911c0,1.1.771,1.543,1.722.994a3.805,3.805,0,0,0,1.722-2.982c0-1.1-.771-1.543-1.722-1A3.809,3.809,0,0,0,61.817,106.911Z"/><polygon class="cls-3" points="41.463 134.344 41.463 126.099 50.229 114.507 60.502 120.28 57.046 117.364 62.013 111.399 70.021 115.561 70.021 117.856 41.463 134.344"/><path class="cls-10" d="M76.05,92.392l18.881-10.9c.7-.4,1.268-.117,1.268.642a2.719,2.719,0,0,1-1.268,2.106L76.05,95.14c-.7.4-1.269.117-1.269-.642A2.718,2.718,0,0,1,76.05,92.392Z"/><path class="cls-2" d="M75.542,98.181l43.694-25.227c.42-.243.761-.132.761.247a1.521,1.521,0,0,1-.761,1.126L75.542,99.554c-.42.243-.761.132-.761-.247A1.521,1.521,0,0,1,75.542,98.181Z"/><path class="cls-2" d="M75.542,100.928,119.236,75.7c.42-.242.761-.131.761.248a1.521,1.521,0,0,1-.761,1.126L75.542,102.3c-.42.243-.761.132-.761-.247A1.522,1.522,0,0,1,75.542,100.928Z"/><path class="cls-2" d="M75.542,103.676l43.694-25.227c.42-.242.761-.132.761.248a1.522,1.522,0,0,1-.761,1.126L75.542,105.05c-.42.243-.761.132-.761-.247A1.522,1.522,0,0,1,75.542,103.676Z"/><path class="cls-2" d="M75.542,106.424,100.2,92.18c.42-.243.761-.132.761.248a1.525,1.525,0,0,1-.761,1.126L75.542,107.8c-.42.243-.761.132-.761-.248A1.522,1.522,0,0,1,75.542,106.424Z"/><path class="cls-3" d="M74.781,113.643V112.45a2.8,2.8,0,0,1,1.269-2.2l6.981-4.031c.7-.4,1.269-.077,1.269.732v1.193a2.8,2.8,0,0,1-1.269,2.2l-6.981,4.031C75.349,114.78,74.781,114.452,74.781,113.643Z"/><path class="cls-3" d="M111.668,91.063c.657-.38,1.19-.072,1.19.687a2.631,2.631,0,0,1-1.19,2.061c-.657.379-1.19.072-1.19-.687A2.63,2.63,0,0,1,111.668,91.063Z"/><path class="cls-3" d="M115.769,89.339c.143,0,.158.245.158.35a2.141,2.141,0,0,1-.939,1.628.59.59,0,0,1-.281.1c-.144,0-.159-.245-.159-.35a2.147,2.147,0,0,1,.939-1.628.592.592,0,0,1,.282-.1m0-.5a1.085,1.085,0,0,0-.532.163,2.631,2.631,0,0,0-1.189,2.061c0,.538.268.85.659.85a1.084,1.084,0,0,0,.531-.163,2.626,2.626,0,0,0,1.189-2.061c0-.538-.268-.85-.658-.85Z"/><path class="cls-3" d="M119.338,87.279c.143,0,.159.244.159.349a2.145,2.145,0,0,1-.94,1.628.59.59,0,0,1-.281.1c-.143,0-.159-.245-.159-.35a2.148,2.148,0,0,1,.94-1.628.584.584,0,0,1,.281-.095m0-.5a1.079,1.079,0,0,0-.531.162A2.631,2.631,0,0,0,117.617,89c0,.539.268.85.659.85a1.071,1.071,0,0,0,.531-.163A2.63,2.63,0,0,0,120,87.628c0-.538-.268-.849-.659-.849Z"/><path class="cls-3" d="M37.972,144.6l23.641-13.649c.7-.4,1.268-.076,1.268.733v21.8a2.8,2.8,0,0,1-1.269,2.2L37.972,169.335c-.7.4-1.268.076-1.268-.732V146.8A2.805,2.805,0,0,1,37.972,144.6Z"/><path class="cls-13" d="M37.972,144.6l23.641-13.649c.7-.4,1.268-.076,1.268.733v21.8a2.8,2.8,0,0,1-1.269,2.2L37.972,169.335c-.7.4-1.268.076-1.268-.732V146.8A2.805,2.805,0,0,1,37.972,144.6Z"/><path class="cls-7" d="M41.494,145.318c1.33-.768,2.409-.161,2.409,1.357a5.292,5.292,0,0,1-2.41,4.139c-1.331.768-2.409.161-2.409-1.357A5.293,5.293,0,0,1,41.494,145.318Z"/><path class="cls-7" d="M47.491,141.855l11.743-6.779c.7-.4,1.268-.117,1.268.642a2.72,2.72,0,0,1-1.268,2.106L47.492,144.6c-.7.4-1.269.117-1.269-.641A2.723,2.723,0,0,1,47.491,141.855Z"/><path class="cls-7" d="M46.984,146.27l8-4.617c.42-.243.761-.132.761.247a1.522,1.522,0,0,1-.761,1.126l-8,4.618c-.42.243-.761.132-.761-.248A1.522,1.522,0,0,1,46.984,146.27Z"/><path class="cls-7" d="M39.845,154.514l19.9-11.487c.421-.243.761-.132.761.248a1.522,1.522,0,0,1-.761,1.126l-19.9,11.487c-.421.243-.761.132-.761-.247A1.522,1.522,0,0,1,39.845,154.514Z"/><path class="cls-7" d="M39.845,157.262l19.9-11.487c.421-.243.761-.132.761.248a1.522,1.522,0,0,1-.761,1.126l-19.9,11.487c-.421.243-.761.132-.761-.247A1.522,1.522,0,0,1,39.845,157.262Z"/><path class="cls-7" d="M39.845,160.01l19.9-11.487c.421-.243.761-.132.761.248a1.522,1.522,0,0,1-.761,1.126l-19.9,11.487c-.421.243-.761.132-.761-.247A1.522,1.522,0,0,1,39.845,160.01Z"/><path class="cls-7" d="M59.737,155.654c-.59.34-1.069-.121-1.069-1.03a2.823,2.823,0,0,1,1.069-2.264c.59-.341,1.07.121,1.07,1.029A2.827,2.827,0,0,1,59.737,155.654Zm0-2.977a2.281,2.281,0,0,0-.863,1.828c0,.734.387,1.106.863.832a2.281,2.281,0,0,0,.864-1.829C60.6,152.775,60.214,152.4,59.737,152.677Z"/><path class="cls-7" d="M60.216,153.889l-1.064.614c-.057.033-.1-.011-.1-.1a.271.271,0,0,1,.1-.218l1.064-.614c.057-.033.1.011.1.1A.271.271,0,0,1,60.216,153.889Z"/><path class="cls-7" d="M59.717,154.849a.058.058,0,0,1-.081-.014.247.247,0,0,1,.018-.233l.453-.808-.453-.285c-.045-.029-.053-.124-.018-.213s.1-.138.145-.111l.556.351a.116.116,0,0,1,.04.1.312.312,0,0,1-.04.147l-.556.993A.188.188,0,0,1,59.717,154.849Z"/><path class="cls-3" d="M68.893,126.741l23.641-13.649c.7-.4,1.268-.076,1.268.733v21.8a2.8,2.8,0,0,1-1.268,2.2L68.91,151.473c-.7.4-1.269.077-1.269-.732l-.015-21.8A2.8,2.8,0,0,1,68.893,126.741Z"/><path class="cls-7" d="M72.431,127.456c1.331-.768,2.41-.161,2.41,1.357a5.292,5.292,0,0,1-2.41,4.139c-1.331.768-2.41.161-2.41-1.357A5.3,5.3,0,0,1,72.431,127.456Z"/><path class="cls-7" d="M78.429,123.993l11.743-6.779c.7-.4,1.268-.117,1.268.642a2.722,2.722,0,0,1-1.268,2.106l-11.743,6.779c-.7.405-1.268.117-1.268-.641A2.72,2.72,0,0,1,78.429,123.993Z"/><path class="cls-7" d="M77.921,128.408l8-4.617c.42-.243.761-.132.761.247a1.525,1.525,0,0,1-.761,1.127l-8,4.617c-.42.243-.761.132-.761-.247A1.524,1.524,0,0,1,77.921,128.408Z"/><path class="cls-7" d="M70.782,136.652l19.9-11.487c.42-.243.761-.132.761.248a1.525,1.525,0,0,1-.761,1.126l-19.9,11.487c-.42.243-.761.132-.761-.247A1.525,1.525,0,0,1,70.782,136.652Z"/><path class="cls-7" d="M70.782,139.4l19.9-11.487c.42-.243.761-.132.761.248a1.525,1.525,0,0,1-.761,1.126l-19.9,11.487c-.42.243-.761.132-.761-.247A1.525,1.525,0,0,1,70.782,139.4Z"/><path class="cls-7" d="M70.782,142.148l19.9-11.487c.42-.243.761-.132.761.248a1.525,1.525,0,0,1-.761,1.126l-19.9,11.487c-.42.243-.761.132-.761-.247A1.525,1.525,0,0,1,70.782,142.148Z"/><path class="cls-7" d="M90.675,137.792c-.59.341-1.07-.121-1.07-1.03a2.824,2.824,0,0,1,1.07-2.264c.59-.341,1.07.121,1.07,1.029A2.827,2.827,0,0,1,90.675,137.792Zm0-2.977a2.282,2.282,0,0,0-.864,1.828c0,.734.388,1.107.864.832a2.284,2.284,0,0,0,.864-1.829C91.539,134.913,91.151,134.54,90.675,134.815Z"/><path class="cls-7" d="M91.154,136.027l-1.064.614c-.057.033-.1-.011-.1-.1a.271.271,0,0,1,.1-.218l1.064-.614c.056-.033.1.011.1.1A.274.274,0,0,1,91.154,136.027Z"/><path class="cls-7" d="M90.655,136.987a.057.057,0,0,1-.081-.014.246.246,0,0,1,.017-.233l.453-.808-.453-.285c-.045-.028-.052-.124-.017-.213s.1-.138.144-.111l.557.351a.116.116,0,0,1,.039.1.311.311,0,0,1-.039.147l-.557.993A.187.187,0,0,1,90.655,136.987Z"/><path class="cls-3" d="M99.814,108.88l23.641-13.65c.7-.4,1.269-.076,1.269.733v21.8a2.807,2.807,0,0,1-1.268,2.2L99.847,133.611c-.7.405-1.268.077-1.27-.732l-.029-21.8A2.8,2.8,0,0,1,99.814,108.88Z"/><path class="cls-4" d="M99.814,108.88l23.641-13.65c.7-.4,1.269-.076,1.269.733v21.8a2.807,2.807,0,0,1-1.268,2.2L99.847,133.611c-.7.405-1.268.077-1.27-.732l-.029-21.8A2.8,2.8,0,0,1,99.814,108.88Z"/><path class="cls-7" d="M103.369,109.594c1.331-.768,2.409-.161,2.409,1.357a5.291,5.291,0,0,1-2.409,4.139c-1.331.769-2.41.161-2.41-1.357A5.3,5.3,0,0,1,103.369,109.594Z"/><path class="cls-7" d="M109.366,106.132l11.743-6.78c.7-.4,1.269-.117,1.269.642a2.721,2.721,0,0,1-1.269,2.106l-11.742,6.779c-.7.405-1.269.117-1.269-.641A2.719,2.719,0,0,1,109.366,106.132Z"/><path class="cls-7" d="M108.859,110.546l8-4.617c.421-.243.761-.132.761.247a1.522,1.522,0,0,1-.761,1.127l-8,4.617c-.421.243-.762.132-.762-.247A1.525,1.525,0,0,1,108.859,110.546Z"/><path class="cls-7" d="M101.72,118.79l19.9-11.487c.42-.243.761-.132.761.248a1.525,1.525,0,0,1-.761,1.126l-19.9,11.487c-.421.243-.761.132-.761-.247A1.522,1.522,0,0,1,101.72,118.79Z"/><path class="cls-7" d="M101.72,121.538l19.9-11.487c.42-.243.761-.132.761.248a1.523,1.523,0,0,1-.761,1.126l-19.9,11.487c-.421.243-.761.132-.761-.247A1.522,1.522,0,0,1,101.72,121.538Z"/><path class="cls-7" d="M101.72,124.286l19.9-11.487c.42-.242.761-.132.761.248a1.523,1.523,0,0,1-.761,1.126l-19.9,11.487c-.421.243-.761.132-.761-.247A1.522,1.522,0,0,1,101.72,124.286Z"/><path class="cls-7" d="M121.613,119.93c-.59.341-1.07-.121-1.07-1.029a2.824,2.824,0,0,1,1.07-2.265c.59-.341,1.069.121,1.069,1.029A2.825,2.825,0,0,1,121.613,119.93Zm0-2.977a2.28,2.28,0,0,0-.864,1.829c0,.733.387,1.106.864.831a2.283,2.283,0,0,0,.863-1.829C122.476,117.051,122.089,116.678,121.613,116.953Z"/><path class="cls-7" d="M122.091,118.165l-1.063.614c-.057.033-.1-.011-.1-.1a.271.271,0,0,1,.1-.218l1.063-.614c.057-.033.1.011.1.1A.271.271,0,0,1,122.091,118.165Z"/><path class="cls-7" d="M121.592,119.125a.058.058,0,0,1-.081-.014.247.247,0,0,1,.018-.233l.453-.808-.453-.285c-.045-.028-.053-.124-.018-.213s.1-.138.145-.111l.557.351a.119.119,0,0,1,.039.1.323.323,0,0,1-.039.147l-.557.993A.18.18,0,0,1,121.592,119.125Z"/><g id="Device-3" data-name="Device"><path class="cls-3" d="M223.111,79.375v83.4a2.982,2.982,0,0,0,1.344,2.331l36.98,21.348c.741.43,1.343.081,1.343-.776v-83.4a2.981,2.981,0,0,0-1.343-2.33L224.455,78.6C223.714,78.169,223.111,78.518,223.111,79.375Zm1.936,9.953c0-.734.515-1.033,1.153-.663l33.624,19.409a2.558,2.558,0,0,1,1.153,2V175.4c0,.737-.518,1.033-1.153.667L226.2,156.656a1.863,1.863,0,0,1-1.153-1.568Z"/><path class="cls-8" d="M223.111,79.375v83.4a2.982,2.982,0,0,0,1.344,2.331l36.98,21.348c.741.43,1.343.081,1.343-.776v-83.4a2.981,2.981,0,0,0-1.343-2.33L224.455,78.6C223.714,78.169,223.111,78.518,223.111,79.375Zm1.936,9.953c0-.734.515-1.033,1.153-.663l33.624,19.409a2.558,2.558,0,0,1,1.153,2V175.4c0,.737-.518,1.033-1.153.667L226.2,156.656a1.863,1.863,0,0,1-1.153-1.568Z"/><path class="cls-3" d="M261.6,186.535a3.008,3.008,0,0,0,2.523-.083l1.539-.889a2.965,2.965,0,0,0,1.348-2.33V99.84a2.547,2.547,0,0,0-.233-1.005,3.229,3.229,0,0,0-.16-.323l0,0-4.232,2.443h0a3.679,3.679,0,0,1,.233.493,2.452,2.452,0,0,1,.163.833v83.4C262.778,186.465,262.265,186.825,261.6,186.535Z"/><path class="cls-6" d="M261.6,186.535a3.008,3.008,0,0,0,2.523-.083l1.539-.889a2.965,2.965,0,0,0,1.348-2.33V99.84a2.547,2.547,0,0,0-.233-1.005,3.229,3.229,0,0,0-.16-.323l0,0-4.232,2.443h0a3.679,3.679,0,0,1,.233.493,2.452,2.452,0,0,1,.163.833v83.4C262.778,186.465,262.265,186.825,261.6,186.535Z"/><path class="cls-5" d="M242.625,168.448c-1.172-.677-2.123-.128-2.123,1.226a4.694,4.694,0,0,0,2.123,3.677c1.173.677,2.123.128,2.123-1.226A4.691,4.691,0,0,0,242.625,168.448Z"/><path d="M242.945,91.071c-.5-.287-.9-.054-.9.521a2,2,0,0,0,.9,1.562c.5.287.9.054.9-.521A1.994,1.994,0,0,0,242.945,91.071Z"/><path d="M246.425,96.555l-6.961-4.019c-.415-.239-.752-.069-.752.381a1.611,1.611,0,0,0,.752,1.248l6.961,4.019c.416.24.752.07.752-.38A1.614,1.614,0,0,0,246.425,96.555Z"/><path class="cls-3" d="M225.047,155.088a1.863,1.863,0,0,0,1.153,1.568l33.624,19.412c.635.366,1.153.07,1.153-.667V110.073a2.558,2.558,0,0,0-1.153-2L226.2,88.665c-.638-.37-1.153-.071-1.153.663Z"/><path class="cls-7" d="M225.047,155.088a1.863,1.863,0,0,0,1.153,1.568l33.624,19.412c.635.366,1.153.07,1.153-.667V110.073a2.558,2.558,0,0,0-1.153-2L226.2,88.665c-.638-.37-1.153-.071-1.153.663Z"/><path class="cls-3" d="M223.124,79.161c.1-.7.656-.952,1.329-.562l36.983,21.348a2.742,2.742,0,0,1,.949,1l4.232-2.443a2.73,2.73,0,0,0-.952-1L228.688,76.158a2.972,2.972,0,0,0-2.69,0l-1.545.886A3.017,3.017,0,0,0,223.124,79.161Z"/><path class="cls-4" d="M223.124,79.161c.1-.7.656-.952,1.329-.562l36.983,21.348a2.742,2.742,0,0,1,.949,1l4.232-2.443a2.73,2.73,0,0,0-.952-1L228.688,76.158a2.972,2.972,0,0,0-2.69,0l-1.545.886A3.017,3.017,0,0,0,223.124,79.161Z"/></g><path class="cls-9" d="M259.824,108.073,226.2,88.665c-.638-.37-1.153-.071-1.153.663v7.543l35.93,20.74v-7.538A2.561,2.561,0,0,0,259.824,108.073Z"/><path class="cls-10" d="M229.519,96.623a2.666,2.666,0,0,0,1.265,2.03l21.269,12.427c.7.408,1.265.124,1.265-.635a2.718,2.718,0,0,0-1.269-2.106L230.788,96.064C230.087,95.659,229.519,95.91,229.519,96.623Z"/><path class="cls-3" d="M239.921,119.008v6.137a2.9,2.9,0,0,0,1.1,2.325l3.986,2.3c.607.35,1.1-.123,1.1-1.057v-6.137a2.9,2.9,0,0,0-1.1-2.326l-3.986-2.3C240.412,117.6,239.921,118.074,239.921,119.008Z"/><path class="cls-7" d="M245.33,125.656v-.913a.208.208,0,0,0-.067-.149l-.528-.393a.319.319,0,0,1-.088-.173,5.171,5.171,0,0,0-.117-.507.28.28,0,0,1-.008-.182l.351-.471a.249.249,0,0,0-.031-.18l-.382-.808c-.035-.075-.082-.124-.105-.109l-.438.289c-.023.015-.074-.023-.115-.079a3.409,3.409,0,0,0-.285-.346.331.331,0,0,1-.079-.181l-.058-.846a.2.2,0,0,0-.072-.145l-.592-.342c-.036-.021-.067,0-.071.052l-.059.8c0,.049-.032.085-.062.081a.877.877,0,0,0-.329.021c-.027.007-.078-.043-.117-.113l-.381-.69c-.038-.07-.086-.11-.106-.091l-.436.42c-.021.019-.012.1.019.175l.305.762a.346.346,0,0,1,.03.2,2.15,2.15,0,0,0-.137.428.059.059,0,0,1-.076.051l-.542-.221c-.033-.014-.06.019-.06.073v.913a.207.207,0,0,0,.067.149l.528.394a.319.319,0,0,1,.088.173c.03.17.07.34.117.507a.277.277,0,0,1,.008.181l-.351.472a.244.244,0,0,0,.031.18l.382.808c.035.075.082.123.105.108l.438-.288c.023-.015.074.022.115.079a3.289,3.289,0,0,0,.285.345.334.334,0,0,1,.079.181l.058.846a.2.2,0,0,0,.072.145l.592.343c.036.02.067,0,.071-.053l.06-.8c0-.05.031-.085.061-.081a.875.875,0,0,0,.329-.022c.026-.006.078.043.117.113l.381.69c.038.07.086.111.106.091l.436-.419c.021-.02.012-.1-.019-.176l-.305-.762a.342.342,0,0,1-.03-.2,2.15,2.15,0,0,0,.137-.428c.009-.041.043-.065.076-.051l.542.221C245.3,125.744,245.33,125.711,245.33,125.656Zm-2.318-.253a2.641,2.641,0,0,1-1-2.12c0-.852.449-1.283,1-.964a2.645,2.645,0,0,1,1,2.121C244.014,125.291,243.565,125.723,243.012,125.4Z"/><path class="cls-3" d="M229.615,113.075v6.137a2.9,2.9,0,0,0,1.1,2.326l3.986,2.3c.607.35,1.1-.123,1.1-1.057v-6.137a2.9,2.9,0,0,0-1.1-2.325l-3.986-2.3C230.107,111.668,229.615,112.141,229.615,113.075Z"/><polygon class="cls-7" points="232.707 119.005 232.198 118.713 232.198 120.647 231.254 120.102 231.254 116.99 230.697 116.669 232.707 114.717 234.717 118.989 234.16 118.668 234.16 121.779 233.216 121.234 233.216 119.3 232.707 119.005"/><path class="cls-3" d="M250.225,124.967V131.1a2.9,2.9,0,0,0,1.1,2.325l3.986,2.3c.607.351,1.1-.123,1.1-1.057v-6.137a2.9,2.9,0,0,0-1.1-2.325l-3.986-2.3C250.717,123.559,250.225,124.033,250.225,124.967Z"/><path class="cls-7" d="M255.646,129.126a.308.308,0,0,0-.1-.113l-4.18-2.413a.084.084,0,0,0-.122.034l2.208,4.053Z"/><path class="cls-7" d="M251.246,126.634a.2.2,0,0,0-.038.119l-.007,4.61a.463.463,0,0,0,.042.186l1.75-1.244Z"/><path class="cls-7" d="M255.646,129.127l-1.7,1.66,1.711,3.33-1.825-3.218-.257.252c-.069.067-.222-.083-.343-.337l-.092-.194-1.9.929a.313.313,0,0,0,.118.152l4.187,2.423c.088.051.16-.018.16-.154v-4.618A.475.475,0,0,0,255.646,129.127Z"/><polygon class="cls-7" points="251.243 126.627 251.246 126.634 251.246 126.634 251.243 126.627"/><polygon class="cls-7" points="255.651 129.123 255.646 129.126 255.646 129.127 255.651 129.123"/><path class="cls-7" d="M226.485,92v-.479c0-.1.041-.164.092-.135l.025.014a.308.308,0,0,1,.091.24v.48c0,.1-.041.164-.091.135l-.025-.015A.3.3,0,0,1,226.485,92Z"/><path class="cls-7" d="M226.9,92.24v-.828c0-.1.041-.164.092-.135l.025.015a.3.3,0,0,1,.092.24v.828c0,.1-.041.164-.092.135l-.025-.015A.3.3,0,0,1,226.9,92.24Z"/><path class="cls-7" d="M227.318,92.481V91.3c0-.1.041-.164.091-.135l.026.015a.307.307,0,0,1,.091.24V92.6c0,.1-.041.164-.091.135l-.026-.015A.307.307,0,0,1,227.318,92.481Z"/><path class="cls-7" d="M227.734,92.721V90.689c0-.1.041-.164.092-.135l.025.015a.306.306,0,0,1,.092.241v2.03c0,.1-.041.164-.091.135l-.026-.014A.308.308,0,0,1,227.734,92.721Z"/><path class="cls-7" d="M228.861,93.511a.2.2,0,0,1-.012-.076v-.3l-.467-.269a.089.089,0,0,1-.038-.086v-.107a.246.246,0,0,1,0-.054.189.189,0,0,1,.016-.039l.5-.781a.068.068,0,0,1,.024-.026c.007,0,.017,0,.032.008l.065.038a.1.1,0,0,1,.043.048.2.2,0,0,1,.013.081v1.042l.1.059a.091.091,0,0,1,.041.046.215.215,0,0,1,.012.079v.071a.1.1,0,0,1-.012.061c-.007.009-.021.009-.041,0l-.1-.059v.3a.094.094,0,0,1-.013.061c-.008.009-.022.007-.043,0l-.078-.046A.089.089,0,0,1,228.861,93.511Zm.018-.61v-.743l-.338.547Z"/><path class="cls-7" d="M229.415,93.65a1.949,1.949,0,0,1-.137-.768.972.972,0,0,1,.138-.607q.138-.164.386-.019a.921.921,0,0,1,.332.332.087.087,0,0,1,.013.042.074.074,0,0,1-.006.028l-.042.106c-.006.012-.012.017-.018.014a.1.1,0,0,1-.019-.024.7.7,0,0,0-.239-.237c-.112-.065-.2-.06-.264.016a.762.762,0,0,0-.095.456,1.473,1.473,0,0,0,.093.567.625.625,0,0,0,.254.315.529.529,0,0,0,.115.049.173.173,0,0,0,.092,0V93.44l-.195-.112a.1.1,0,0,1-.041-.046.215.215,0,0,1-.012-.079v-.068a.1.1,0,0,1,.012-.062c.008-.009.022-.008.041,0l.311.18a.106.106,0,0,1,.046.054.246.246,0,0,1,.014.093v.691a.266.266,0,0,1,0,.057.039.039,0,0,1-.019.024.383.383,0,0,1-.369-.061A.946.946,0,0,1,229.415,93.65Z"/><path class="cls-7" d="M259.132,109.192a.533.533,0,0,0-.185-.273l-1.4-.808c-.121-.07-.215.069-.215.316v1.046a1.236,1.236,0,0,0,.081.426.9.9,0,0,0,.075.155.334.334,0,0,0,.11.118l1.4.808c.12.07.215-.069.215-.317v-1.045A1.236,1.236,0,0,0,259.132,109.192Zm-1.666.632a.551.551,0,0,1-.03-.187v-1.046c0-.182.075-.292.164-.241l1.4.808a.188.188,0,0,1,.059.06.319.319,0,0,1,.024.049.555.555,0,0,1,.03.187V110.5c0,.183-.075.294-.164.242l-1.4-.808A.2.2,0,0,1,257.466,109.824Z"/><path class="cls-7" d="M258.349,108.969v1.237l-.753-.434a.264.264,0,0,1-.025-.02v-.981c0-.133.059-.216.122-.18Z"/><path class="cls-7" d="M259.282,109.665a.717.717,0,0,1,.094.441v.2c0,.214-.043.368-.095.343l-.094-.045,0-.986Z"/><path class="cls-7" d="M232.086,95.042c0,.231-.121.347-.271.261a.715.715,0,0,1-.271-.573c0-.231.122-.347.271-.261A.712.712,0,0,1,232.086,95.042Z"/><path class="cls-7" d="M231.815,93.787a.408.408,0,0,0-.63.218.281.281,0,0,0,.029.223h0c.052.091.127.112.158.041a.286.286,0,0,1,.443-.156,1.144,1.144,0,0,1,.443.667c.031.107.107.174.158.142h0c.04-.025.052-.106.028-.19A1.63,1.63,0,0,0,231.815,93.787Z"/><path class="cls-7" d="M231.815,93.119a.642.642,0,0,0-.967.26.267.267,0,0,0,.022.233v0c.05.089.121.11.155.047a.523.523,0,0,1,.789-.215,2.068,2.068,0,0,1,.79,1.126c.033.1.105.164.155.132h0c.044-.027.052-.117.022-.207A2.534,2.534,0,0,0,231.815,93.119Z"/><path class="cls-7" d="M241.2,100.583a.055.055,0,0,1-.014.041.024.024,0,0,1-.032,0l-.069-.039a.1.1,0,0,1-.032-.04.133.133,0,0,1-.014-.057V99.064l-.272.161c-.009.008-.02.007-.033,0a.109.109,0,0,1-.031-.043l-.04-.1a.131.131,0,0,1-.009-.057.045.045,0,0,1,.018-.036l.359-.217a.033.033,0,0,1,.027,0l.027.013.069.04a.086.086,0,0,1,.032.039.136.136,0,0,1,.014.057Z"/><path class="cls-7" d="M241.6,99.663a.089.089,0,0,1,.032.038.133.133,0,0,1,.012.057v.174a.053.053,0,0,1-.012.041.024.024,0,0,1-.032,0l-.114-.065a.083.083,0,0,1-.03-.039.124.124,0,0,1-.014-.058v-.173a.05.05,0,0,1,.014-.041.022.022,0,0,1,.03,0Zm0,.906a.083.083,0,0,1,.032.038.134.134,0,0,1,.012.058v.173a.053.053,0,0,1-.012.041.024.024,0,0,1-.032,0l-.114-.066a.074.074,0,0,1-.03-.039.116.116,0,0,1-.014-.056v-.174a.05.05,0,0,1,.014-.041.022.022,0,0,1,.03,0Z"/><path class="cls-7" d="M242.424,101.359a.081.081,0,0,1-.032-.039.133.133,0,0,1-.014-.057v-.357l-.527-.305a.081.081,0,0,1-.032-.039.133.133,0,0,1-.014-.057v-.093a.155.155,0,0,1,.006-.04.1.1,0,0,1,.018-.035l.531-.765a.072.072,0,0,1,.03-.028.035.035,0,0,1,.035,0l.068.039a.086.086,0,0,1,.032.039.131.131,0,0,1,.013.057v1.082l.145.084a.086.086,0,0,1,.032.039.131.131,0,0,1,.013.057v.093a.053.053,0,0,1-.013.041.024.024,0,0,1-.032,0l-.145-.084v.357a.057.057,0,0,1-.013.042.024.024,0,0,1-.032,0Zm-.046-.686v-.73l-.365.519Z"/><path class="cls-7" d="M243.009,101.26a.792.792,0,0,0,.024.1.484.484,0,0,0,.044.1.543.543,0,0,0,.081.1.6.6,0,0,0,.129.095.287.287,0,0,0,.1.038.124.124,0,0,0,.084-.013.143.143,0,0,0,.055-.07.327.327,0,0,0,.021-.134.534.534,0,0,0-.02-.153.465.465,0,0,0-.054-.124.459.459,0,0,0-.082-.1.623.623,0,0,0-.1-.075l-.141-.081a.092.092,0,0,1-.031-.039.13.13,0,0,1-.014-.057v-.093a.067.067,0,0,1,.01-.037l.017-.025.3-.327-.484-.28a.081.081,0,0,1-.032-.039.133.133,0,0,1-.014-.057v-.093a.057.057,0,0,1,.014-.042.024.024,0,0,1,.032,0l.663.382a.106.106,0,0,1,.032.04.146.146,0,0,1,.012.057v.093a.09.09,0,0,1-.03.07l-.3.323a.664.664,0,0,1,.153.129.8.8,0,0,1,.12.175.906.906,0,0,1,.077.21,1.014,1.014,0,0,1,.027.235.592.592,0,0,1-.033.218.254.254,0,0,1-.089.124.206.206,0,0,1-.133.033.381.381,0,0,1-.162-.055.808.808,0,0,1-.195-.152.925.925,0,0,1-.214-.377.779.779,0,0,1-.027-.183.042.042,0,0,1,.011-.034.017.017,0,0,1,.025,0l.078.044a.072.072,0,0,1,.03.034A.162.162,0,0,1,243.009,101.26Z"/><polygon class="cls-3" points="229.615 150.404 229.615 124.652 256.418 140.126 256.419 165.879 229.615 150.404"/><polygon class="cls-12" points="229.615 150.404 229.615 124.652 256.418 140.126 256.419 165.879 229.615 150.404"/><path class="cls-3" d="M248.719,141.809a4.265,4.265,0,0,0,1.616,3.422c.893.515,1.616-.181,1.616-1.555a4.265,4.265,0,0,0-1.616-3.422C249.442,139.739,248.719,140.435,248.719,141.809Z"/><polygon class="cls-3" points="229.615 150.404 229.615 140.087 237.843 136.664 247.484 156.876 244.241 148.858 248.903 147.673 256.419 163.007 256.419 165.879 229.615 150.404"/><path class="cls-3" d="M239.159,157.758a2.851,2.851,0,0,1,1.19,2.274c0,.876-.533,1.279-1.19.9a2.852,2.852,0,0,1-1.19-2.274C237.969,157.782,238.5,157.379,239.159,157.758Z"/><path class="cls-3" d="M242.256,160.177h0a.459.459,0,0,1,.223.075,2.378,2.378,0,0,1,.939,1.841c0,.269-.074.542-.217.542a.456.456,0,0,1-.222-.075,2.378,2.378,0,0,1-.94-1.841c0-.269.074-.542.217-.542m0-.5c-.422,0-.717.39-.717,1.042a2.85,2.85,0,0,0,1.19,2.274.947.947,0,0,0,.472.142c.422,0,.717-.39.717-1.042a2.853,2.853,0,0,0-1.189-2.274.953.953,0,0,0-.473-.142Z"/><path class="cls-3" d="M245.826,162.238h0a.456.456,0,0,1,.222.075,2.376,2.376,0,0,1,.94,1.841c0,.269-.075.542-.218.542a.456.456,0,0,1-.222-.075,2.378,2.378,0,0,1-.94-1.841c0-.269.075-.542.218-.542m0-.5c-.422,0-.718.39-.718,1.042a2.852,2.852,0,0,0,1.19,2.274.95.95,0,0,0,.472.142c.422,0,.718-.39.718-1.042a2.851,2.851,0,0,0-1.19-2.274.95.95,0,0,0-.472-.142Z"/><path class="cls-3" d="M228.384,104.316a3.985,3.985,0,0,0,1.509,3.2c.834.481,1.51-.169,1.51-1.453a3.98,3.98,0,0,0-1.51-3.195C229.06,102.382,228.384,103.032,228.384,104.316Z"/><path class="cls-7" d="M230.035,104.96a1.158,1.158,0,0,0,.438.929c.243.14.439-.049.439-.422a1.156,1.156,0,0,0-.439-.929C230.231,104.4,230.035,104.587,230.035,104.96Z"/><path class="cls-10" d="M234.716,109.482a.172.172,0,0,1,.061.09.4.4,0,0,1,.026.141v.474a.2.2,0,0,1-.026.112c-.017.026-.038.032-.061.018l-1.424-.822a.168.168,0,0,1-.062-.089.406.406,0,0,1-.026-.142v-4.311a.2.2,0,0,1,.026-.112.043.043,0,0,1,.062-.018l.263.152a.174.174,0,0,1,.062.089.406.406,0,0,1,.026.142v3.657Z"/><path class="cls-10" d="M235.831,107.423a1.074,1.074,0,0,1,.323.3,2.073,2.073,0,0,1,.25.458,3.3,3.3,0,0,1,.17.565,3.611,3.611,0,0,1,.072.616c0,.041,0,.093,0,.155v.371c0,.06,0,.109,0,.148a2.444,2.444,0,0,1-.074.53,1.016,1.016,0,0,1-.168.368.426.426,0,0,1-.25.166.465.465,0,0,1-.323-.074,1.073,1.073,0,0,1-.324-.3,2.142,2.142,0,0,1-.25-.455,3.16,3.16,0,0,1-.168-.56,3.837,3.837,0,0,1-.074-.617c0-.042,0-.093,0-.154s0-.121,0-.184,0-.124,0-.186,0-.111,0-.15a2.242,2.242,0,0,1,.073-.533,1.085,1.085,0,0,1,.169-.368.424.424,0,0,1,.25-.17A.466.466,0,0,1,235.831,107.423Zm.393,1.729a2.187,2.187,0,0,0-.047-.371,1.266,1.266,0,0,0-.093-.27.721.721,0,0,0-.12-.18.637.637,0,0,0-.133-.107.36.36,0,0,0-.134-.047.155.155,0,0,0-.12.041.364.364,0,0,0-.093.163,1.343,1.343,0,0,0-.047.317c0,.034,0,.078-.005.13s0,.108,0,.166,0,.116,0,.171,0,.1.005.133a2.16,2.16,0,0,0,.047.371,1.276,1.276,0,0,0,.093.271.714.714,0,0,0,.12.179.588.588,0,0,0,.134.107.352.352,0,0,0,.133.048.159.159,0,0,0,.12-.041.369.369,0,0,0,.093-.164,1.333,1.333,0,0,0,.047-.316q0-.045,0-.129v-.337Q236.227,109.207,236.224,109.152Z"/><path class="cls-10" d="M237.81,109.434c-.13-.075-.224-.07-.281.015a1.062,1.062,0,0,0-.086.527v1.735a.2.2,0,0,1-.026.112.043.043,0,0,1-.062.018l-.247-.143a.169.169,0,0,1-.062-.089.406.406,0,0,1-.026-.142v-3.11a.2.2,0,0,1,.026-.112.042.042,0,0,1,.062-.017l.247.143a.169.169,0,0,1,.062.089.4.4,0,0,1,.026.142v.153a.381.381,0,0,1,.181-.143.324.324,0,0,1,.251.059l.147.084a.167.167,0,0,1,.061.089.406.406,0,0,1,.026.142v.441a.2.2,0,0,1-.026.111.041.041,0,0,1-.061.018Z"/><path class="cls-10" d="M238.269,110.633a3.7,3.7,0,0,1,.055-.672,1.546,1.546,0,0,1,.159-.482.49.49,0,0,1,.252-.238.379.379,0,0,1,.33.05,1.014,1.014,0,0,1,.33.327,2.379,2.379,0,0,1,.252.513,3.681,3.681,0,0,1,.161.633,4.172,4.172,0,0,1,.057.684v.3a.2.2,0,0,1-.026.112.043.043,0,0,1-.062.018l-1.086-.627a1.265,1.265,0,0,0,.031.288,1.147,1.147,0,0,0,.083.244.858.858,0,0,0,.12.19.566.566,0,0,0,.14.121.307.307,0,0,0,.169.054.169.169,0,0,0,.107-.048.184.184,0,0,1,.059-.04.085.085,0,0,1,.061.016l.261.15a.175.175,0,0,1,.063.09.344.344,0,0,1,.024.141.657.657,0,0,1-.05.211.542.542,0,0,1-.141.2.44.44,0,0,1-.233.106.5.5,0,0,1-.32-.085,1.039,1.039,0,0,1-.33-.32,2.138,2.138,0,0,1-.252-.516,3.7,3.7,0,0,1-.159-.663A5.022,5.022,0,0,1,238.269,110.633Zm.8-.541a.212.212,0,0,0-.161-.036.2.2,0,0,0-.112.081.49.49,0,0,0-.07.16,1.175,1.175,0,0,0-.031.193l.735.424c0-.069-.013-.144-.024-.224a1.37,1.37,0,0,0-.059-.235.889.889,0,0,0-.107-.208A.542.542,0,0,0,239.065,110.092Z"/><path class="cls-10" d="M240.641,110.6a.358.358,0,0,1,.189-.188.265.265,0,0,1,.231.029.908.908,0,0,1,.335.351,2.167,2.167,0,0,1,.205.528.588.588,0,0,1,.1-.18.4.4,0,0,1,.131-.1.283.283,0,0,1,.145-.027.35.35,0,0,1,.146.048.875.875,0,0,1,.309.305,1.865,1.865,0,0,1,.2.456,3.012,3.012,0,0,1,.107.559,5.917,5.917,0,0,1,.031.615v1.8a.2.2,0,0,1-.026.112.043.043,0,0,1-.062.018l-.247-.143a.175.175,0,0,1-.062-.089.4.4,0,0,1-.025-.142v-1.761a2.091,2.091,0,0,0-.085-.683.575.575,0,0,0-.237-.317.155.155,0,0,0-.223.044,1.061,1.061,0,0,0-.1.55v1.8a.2.2,0,0,1-.026.112.042.042,0,0,1-.062.018l-.247-.143a.166.166,0,0,1-.062-.088.406.406,0,0,1-.026-.142v-1.762a2.1,2.1,0,0,0-.084-.683.576.576,0,0,0-.238-.317.156.156,0,0,0-.227.052,1.119,1.119,0,0,0-.095.576v1.762a.2.2,0,0,1-.026.112.041.041,0,0,1-.061.017l-.247-.142a.168.168,0,0,1-.062-.089.384.384,0,0,1-.026-.142V110.2a.19.19,0,0,1,.026-.111.042.042,0,0,1,.062-.018l.247.142a.167.167,0,0,1,.061.089.384.384,0,0,1,.026.142Z"/><path class="cls-10" d="M244.143,112.863c-.007.366-.007.739,0,1.121a3.563,3.563,0,0,0,.185,1.209,1.164,1.164,0,0,0,.471.612.651.651,0,0,0,.239.088.237.237,0,0,0,.192-.06.536.536,0,0,0,.141-.235,2.011,2.011,0,0,0,.092-.445.158.158,0,0,1,.026-.095.035.035,0,0,1,.045,0l.065.037a.134.134,0,0,1,.051.066.234.234,0,0,1,.017.107,2.441,2.441,0,0,1-.055.462,1.03,1.03,0,0,1-.153.376.467.467,0,0,1-.266.193.536.536,0,0,1-.394-.091,1.189,1.189,0,0,1-.38-.356,2.225,2.225,0,0,1-.265-.53,3.491,3.491,0,0,1-.157-.662,5.855,5.855,0,0,1-.059-.758c0-.184-.006-.381-.006-.59s0-.409.006-.6a4.454,4.454,0,0,1,.059-.686,1.425,1.425,0,0,1,.157-.483.458.458,0,0,1,.265-.224.5.5,0,0,1,.38.083,1.248,1.248,0,0,1,.394.363,2.308,2.308,0,0,1,.266.5,2.829,2.829,0,0,1,.153.552,3.552,3.552,0,0,1,.055.526.129.129,0,0,1-.017.087.037.037,0,0,1-.051.007l-.065-.037a.123.123,0,0,1-.045-.057.341.341,0,0,1-.026-.125,3.8,3.8,0,0,0-.092-.55,1.938,1.938,0,0,0-.141-.4,1.085,1.085,0,0,0-.192-.281,1.071,1.071,0,0,0-.239-.188.317.317,0,0,0-.471.068A1.957,1.957,0,0,0,244.143,112.863Z"/><path class="cls-10" d="M246.747,113.726a.936.936,0,0,1,.308.3,1.9,1.9,0,0,1,.223.449,3.256,3.256,0,0,1,.137.562,4.823,4.823,0,0,1,.053.632c0,.036,0,.078,0,.128s0,.1,0,.154,0,.106,0,.156,0,.092,0,.123a3.522,3.522,0,0,1-.053.569,1.283,1.283,0,0,1-.137.405.346.346,0,0,1-.531.13.946.946,0,0,1-.309-.294,1.928,1.928,0,0,1-.223-.45,3.155,3.155,0,0,1-.138-.563,4.23,4.23,0,0,1-.052-.631c0-.031,0-.072,0-.124s0-.1,0-.158,0-.1,0-.152,0-.09,0-.126a3.132,3.132,0,0,1,.052-.571,1.259,1.259,0,0,1,.138-.4.4.4,0,0,1,.223-.192A.391.391,0,0,1,246.747,113.726Zm.523,1.857a2.881,2.881,0,0,0-.153-.959.947.947,0,0,0-.37-.511.247.247,0,0,0-.371.083,1.571,1.571,0,0,0-.153.782q0,.1,0,.246c0,.1,0,.18,0,.248a2.913,2.913,0,0,0,.153.96.947.947,0,0,0,.371.511.247.247,0,0,0,.37-.084,1.555,1.555,0,0,0,.153-.782c0-.066,0-.147,0-.245S247.272,115.65,247.27,115.583Z"/><path class="cls-10" d="M248.115,114.963a.448.448,0,0,1,.192-.22.293.293,0,0,1,.273.041.866.866,0,0,1,.315.343,2.121,2.121,0,0,1,.2.585.559.559,0,0,1,.219-.331.315.315,0,0,1,.334.023.793.793,0,0,1,.24.232,1.6,1.6,0,0,1,.192.384,3.009,3.009,0,0,1,.129.525,4.266,4.266,0,0,1,.047.658v1.942c0,.1-.024.133-.072.105l-.055-.032c-.048-.027-.072-.09-.072-.188v-1.875a3.972,3.972,0,0,0-.035-.564,2.118,2.118,0,0,0-.1-.4.96.96,0,0,0-.141-.265.625.625,0,0,0-.168-.15.239.239,0,0,0-.151-.034.2.2,0,0,0-.14.1.821.821,0,0,0-.1.288,2.764,2.764,0,0,0-.039.521v1.875c0,.1-.024.133-.072.106l-.055-.032c-.047-.027-.071-.09-.071-.188v-1.875a3.585,3.585,0,0,0-.039-.567,2.273,2.273,0,0,0-.1-.405,1.033,1.033,0,0,0-.141-.265.624.624,0,0,0-.161-.146.244.244,0,0,0-.152-.035.212.212,0,0,0-.14.1.826.826,0,0,0-.1.285,2.714,2.714,0,0,0-.039.518v1.882c0,.1-.024.133-.071.1l-.056-.032c-.047-.027-.071-.09-.071-.187v-3.177c0-.1.024-.133.071-.1l.056.032c.047.027.071.09.071.187Z"/><path class="cls-10" d="M251.518,120.085a.908.908,0,0,1-.334-.347,2.4,2.4,0,0,1-.211-.5v1.582c0,.1-.024.133-.072.105l-.055-.031q-.072-.042-.072-.189v-4.444c0-.1.024-.133.072-.106l.055.033c.048.027.072.09.072.187v.314a.532.532,0,0,1,.211-.255.328.328,0,0,1,.334.043.924.924,0,0,1,.321.322,2.007,2.007,0,0,1,.213.483,3.494,3.494,0,0,1,.118.576,5.9,5.9,0,0,1,.044.6c0,.068,0,.142,0,.222s0,.153,0,.219a4.572,4.572,0,0,1-.044.552,1.6,1.6,0,0,1-.118.438.455.455,0,0,1-.213.238A.349.349,0,0,1,251.518,120.085Zm-.545-2.358c0,.066,0,.152,0,.259s0,.194,0,.262a3.528,3.528,0,0,0,.033.423,2.385,2.385,0,0,0,.1.42,1.715,1.715,0,0,0,.162.357.679.679,0,0,0,.234.239.26.26,0,0,0,.239.037.337.337,0,0,0,.156-.18,1.245,1.245,0,0,0,.088-.343,4.31,4.31,0,0,0,.034-.444c0-.123,0-.248,0-.374,0-.163-.016-.323-.034-.48a2.648,2.648,0,0,0-.088-.441,1.53,1.53,0,0,0-.156-.364.665.665,0,0,0-.239-.241.24.24,0,0,0-.237-.03.376.376,0,0,0-.161.184,1.239,1.239,0,0,0-.095.322A2.779,2.779,0,0,0,250.973,117.727Z"/><path class="cls-10" d="M253.762,121.313c-.048-.027-.072-.09-.072-.188v-.314a.632.632,0,0,1-.076.143.3.3,0,0,1-.278.13.5.5,0,0,1-.221-.078.769.769,0,0,1-.223-.2,1.591,1.591,0,0,1-.185-.317,2.09,2.09,0,0,1-.127-.387,1.861,1.861,0,0,1-.047-.421,1.291,1.291,0,0,1,.047-.38.585.585,0,0,1,.132-.241.36.36,0,0,1,.2-.109.573.573,0,0,1,.262.02l.513.15v-.233a1.642,1.642,0,0,0-.106-.622.775.775,0,0,0-.336-.395c-.121-.07-.215-.076-.281-.019a.391.391,0,0,0-.125.239.213.213,0,0,1-.031.092c-.012.014-.028.014-.047,0l-.046-.026a.138.138,0,0,1-.05-.073.322.322,0,0,1-.021-.116.822.822,0,0,1,.032-.214.576.576,0,0,1,.106-.213.344.344,0,0,1,.187-.122.369.369,0,0,1,.276.062.98.98,0,0,1,.317.29,1.577,1.577,0,0,1,.2.391,2.277,2.277,0,0,1,.1.434,3.534,3.534,0,0,1,.027.423v2.223c0,.1-.023.132-.071.105Zm-.615-.675a.3.3,0,0,0,.21.044.278.278,0,0,0,.174-.13.9.9,0,0,0,.117-.319,2.719,2.719,0,0,0,.042-.523v-.227l-.419-.122q-.54-.158-.54.4a1.258,1.258,0,0,0,.037.309,1.339,1.339,0,0,0,.1.255.84.84,0,0,0,.134.194A.673.673,0,0,0,253.147,120.638Z"/><path class="cls-10" d="M255.81,122.349q0,.145-.072.1l-.055-.032c-.048-.028-.071-.09-.071-.188v-1.862a2.882,2.882,0,0,0-.127-.91.9.9,0,0,0-.371-.518.246.246,0,0,0-.374.085,1.5,1.5,0,0,0-.14.759v1.863c0,.1-.023.132-.071.105l-.055-.032c-.048-.028-.072-.091-.072-.188v-3.177q0-.145.072-.1l.055.032c.048.027.071.09.071.188v.314a.6.6,0,0,1,.212-.259.326.326,0,0,1,.334.046.889.889,0,0,1,.29.281,1.793,1.793,0,0,1,.206.433,3.087,3.087,0,0,1,.125.546,4.283,4.283,0,0,1,.043.618Z"/><path class="cls-10" d="M256.7,124.176a.148.148,0,0,1-.026.055c-.011.013-.027.014-.049,0l-.065-.038a.126.126,0,0,1-.045-.067.283.283,0,0,1-.02-.1.705.705,0,0,1,.02-.122l.25-1.057-.621-3.361a1.1,1.1,0,0,1-.019-.145.144.144,0,0,1,.019-.082.031.031,0,0,1,.046-.014l.068.04a.111.111,0,0,1,.049.057.54.54,0,0,1,.026.086l.546,2.957.559-2.319a.162.162,0,0,1,.026-.056c.011-.013.027-.013.049,0l.065.037a.126.126,0,0,1,.045.067.291.291,0,0,1,.02.1.712.712,0,0,1-.02.123Z"/><path class="cls-14" d="M212.881,63.652c-2.115-1.674-2.7-.854-2.688,1.259a9.467,9.467,0,0,1-.323,2.622,4.7,4.7,0,0,0-.5-1.214.925.925,0,0,0-1.186-.417c-.175.1.106.514.174,1.324a8.8,8.8,0,0,0,.2,2.719,1.769,1.769,0,0,1-.04,1.233c-.72,1.827-3.247,4.855-5.193,7.484-1.5-1.738-5.345-6.19-6.825-8-2.548-3.121-3.328-4.471-6.218-4.716a7.784,7.784,0,0,1,2.209,1.833c1.153,1.326-.151,7.695-.151,7.695s8.755,8.572,9.663,9.4a4.111,4.111,0,0,0,.862.575,2.449,2.449,0,0,0,2.893-.925A79.3,79.3,0,0,0,211.42,74.01c.7-1.613,1.447-2.89,1.835-3.955C214.6,66.358,214.206,64.7,212.881,63.652Z"/><path class="cls-3" d="M190.591,65.814a4.979,4.979,0,0,1,3.809,1.579c1.491,1.542,7.659,9.254,7.659,9.254a6.5,6.5,0,0,1-4.316,5.057l-7.873-7.588Z"/><path class="cls-15" d="M190.591,65.814a4.979,4.979,0,0,1,3.809,1.579c1.491,1.542,7.659,9.254,7.659,9.254a6.5,6.5,0,0,1-4.316,5.057l-7.873-7.588Z"/><rect class="cls-14" x="177.169" y="145.607" width="3.784" height="6.747"/><polygon class="cls-14" points="190.29 145.247 194.072 145.382 194.262 138.242 190.29 138.106 190.29 145.247"/><path class="cls-11" d="M176.636,87.187c0,3.764.555,34.054.555,34.054-.089,1.083-1.063,3.08-.852,7.24.286,5.651.668,20.5.668,20.5a4.8,4.8,0,0,0,4.214.086S184.8,128.5,185.479,122.9c.591-4.887,1.6-21.342,1.6-21.342l2.051,19.133a23.283,23.283,0,0,0-.469,6.264c.177,2.59,1.394,16.079,1.394,16.079a4.989,4.989,0,0,0,4.369.348s2.153-20.315,2.2-22.692c.05-2.709-1.259-33.544-1.259-33.544Z"/><path class="cls-9" d="M180.954,150.409v-.564c.362.164,1.2,3.508,2.7,4.934,1.193,1.134,2.822,2.444,3.236,3.708.431,1.315-2.268,2.041-3.383,1.835-1.3-.239-3.542-1.189-4.106-2.07s-.827-2.181-1.286-2.826-1.514-1.367-1.761-2.114a4.938,4.938,0,0,1,.216-2.069c.176-.7.366-1.463.594-1.4,0,.085,0,.43,0,.43a2.921,2.921,0,0,0,1.892.666C179.615,150.963,180.958,150.849,180.954,150.409Z"/><path class="cls-9" d="M194.113,144.167c.2.007.356.3.789.784a8.287,8.287,0,0,0,2.227,1.669c1.417.738,4.172,1.875,5.419,2.46.778.366.742,1.345-.063,1.9a7.026,7.026,0,0,1-5.084.416c-1.271-.3-2.926-1.519-3.974-1.453s-3.008.05-3.782-.5-.464-1.741-.245-2.76c.238-1.112.537-2.846.89-2.77v.383c.455.717,2.8,1.009,3.8.481Z"/><path class="cls-9" d="M187.075,101.559a13.844,13.844,0,0,0,5.269-3.147,11.135,11.135,0,0,1-4.04,3.829l.646,17.085Z"/><path class="cls-3" d="M178.474,66.485s-2.83.443-2.62,6.085l.655,8.987-.062,13.486c2.783,3.153,15.12,2.922,19.344-.252,0,0-.435-15.961-.721-22.1-.2-4.366-1.207-6.564-5.5-7.045l-5.459-.435Z"/><path class="cls-11" d="M183.752,53.463a5.639,5.639,0,1,0,5.634-5.868A5.754,5.754,0,0,0,183.752,53.463Z"/><path class="cls-11" d="M179.857,56.154a49.767,49.767,0,0,0,1.21,4.924,1.849,1.849,0,0,0,1.063.892L182.07,59Z"/><path class="cls-11" d="M180.941,50.1s-.619-.155-1.278.873c-.564.882-.692,2.862.194,5.184l1.628.195Z"/><path class="cls-14" d="M181.973,56.35c-.327.2-.792-.45-1.2-.888a1.389,1.389,0,0,0-2.372.4c-.668,1.466.612,3.316,1.613,3.741A1.6,1.6,0,0,0,182.07,59l.136,7.4c2.366,3.661,7.727,3.529,5.8-.177l0-2.737a10.8,10.8,0,0,0,2.4.128,3.345,3.345,0,0,0,2.534-2.767c.639-2.374.881-4.291.339-8.96-.594-5.117-6.309-5.171-9.395-3.148S181.973,56.35,181.973,56.35Z"/><path class="cls-11" d="M181.973,56.922c-.164,0-.789-1.075-1.2-1.46-.563-.534.163-5.365.163-5.365a2.361,2.361,0,0,1,.544-2.444c.771-.884,2.06-.982,4.26-1.342a23.833,23.833,0,0,0,2.609-.471,15.69,15.69,0,0,0,2.608-1.269,1.283,1.283,0,0,1,.883-.2.86.86,0,0,1,.561.638,2.533,2.533,0,0,1,.017.886,1.438,1.438,0,0,1,2.026.072,2.068,2.068,0,0,1,.317,2.136,3.792,3.792,0,0,1-1.476,1.688c-2.766,1.867-6.031,1.349-9.127.982a.833.833,0,0,0-.441.03c-.484.22-.588,1.725-.673,2.161C182.762,54.427,182.524,56.911,181.973,56.922Z"/><path class="cls-11" d="M180.945,50.352l-1.974-1.1a1.068,1.068,0,0,1,1.494-.514A1.252,1.252,0,0,1,180.945,50.352Z"/><path class="cls-16" d="M188,63.478a21.8,21.8,0,0,1-3.95-1.181,3.437,3.437,0,0,1-1.414-1.458,4.912,4.912,0,0,0,.8,1.72c.749,1,4.561,1.73,4.561,1.73Z"/><path class="cls-9" d="M186.942,55.414a.588.588,0,1,1-.586-.636A.609.609,0,0,1,186.942,55.414Z"/><path class="cls-9" d="M185.935,52.876l-1.254.721a.8.8,0,0,1,.292-1.04A.685.685,0,0,1,185.935,52.876Z"/><path class="cls-16" d="M187.736,59.808l1.339.523a.7.7,0,0,1-.91.462A.789.789,0,0,1,187.736,59.808Z"/><path class="cls-9" d="M192.8,53.463l-1.318-.642a.675.675,0,0,1,.934-.375A.813.813,0,0,1,192.8,53.463Z"/><path class="cls-9" d="M192.149,55.414a.588.588,0,1,1-.587-.636A.61.61,0,0,1,192.149,55.414Z"/><polygon class="cls-16" points="188.609 54.961 188.677 58.665 190.779 58.183 188.609 54.961"/><path class="cls-9" d="M186.146,53.9a1.56,1.56,0,0,0,0,3.12h.285a1.56,1.56,0,0,0,0-3.12Zm-1.841,1.56a1.861,1.861,0,0,1,1.841-1.876h.285a1.876,1.876,0,0,1,0,3.752h-.285A1.861,1.861,0,0,1,184.305,55.462Z"/><path class="cls-9" d="M191.761,53.9a1.56,1.56,0,0,0,0,3.12h.284a1.56,1.56,0,0,0,0-3.12Zm-1.842,1.56a1.861,1.861,0,0,1,1.842-1.876h.284a1.876,1.876,0,0,1,0,3.752h-.284A1.861,1.861,0,0,1,189.919,55.462Z"/><path class="cls-9" d="M188.249,55.092a1.21,1.21,0,0,1,.973-.5.982.982,0,0,1,.849.326l.247-.191a1.263,1.263,0,0,0-1.112-.451,1.5,1.5,0,0,0-1.222.656Z"/><path class="cls-9" d="M180.573,55.283h3.892v-.3h-4.553A1.81,1.81,0,0,1,180.573,55.283Z"/><path class="cls-14" d="M169.546,79.326c1.189-3,2.228-5.381,3.571-8.219,1.425-3.013,2.244-4.366,5-4.482a18.2,18.2,0,0,1,.5,5.672c-.063,1.755-1.86,4.672-1.86,4.672s-4.1,6.917-4.938,7.814a3.134,3.134,0,0,1-1.231,1.033"/><path class="cls-3" d="M178.474,66.485s-3.071-.184-4.194,1.822C172.852,70.857,170,77.4,170,77.4a12.013,12.013,0,0,0,5.069,3.389s2.686-5.054,3.429-6.734A13.023,13.023,0,0,0,178.474,66.485Z"/><path class="cls-17" d="M178.474,66.485s-3.071-.184-4.194,1.822C172.852,70.857,170,77.4,170,77.4a12.013,12.013,0,0,0,5.069,3.389s2.686-5.054,3.429-6.734A13.023,13.023,0,0,0,178.474,66.485Z"/><path class="cls-14" d="M170.59,85.816a2.451,2.451,0,0,1-2.935-.784c-1.947-2.576-5.687-8.445-7.3-11.053a33.055,33.055,0,0,1-2.112-3.8c-1.523-3.628-1.208-5.3.065-6.414,2.032-1.773,2.656-.983,2.745,1.128a9.465,9.465,0,0,0,.449,2.6,4.686,4.686,0,0,1,.447-1.237.924.924,0,0,1,1.164-.473c.179.091-.081.518-.11,1.33a8.813,8.813,0,0,1-.065,2.726,1.831,1.831,0,0,0,.254,1.223c.887,1.965,4.577,6.12,7.045,8.657"/><line class="cls-18" x1="165.198" y1="67.796" x2="205.878" y2="67.796"/><polyline class="cls-18" points="203.318 65.438 206.579 67.796 203.318 70.153"/><polyline class="cls-18" points="168.46 65.438 165.198 67.796 168.46 70.153"/></g></svg>