<svg id="Layer_1" data-name="Layer 1" xmlns="http://www.w3.org/2000/svg" viewBox="0 0 537 532"><defs><style>.cls-1{fill:#138690;stroke:#138690;stroke-miterlimit:10;}</style></defs><title>LogoStroke4</title><path class="cls-1" d="M114.63,247.44H234.31v17.1H114.63Z"/><path class="cls-1" d="M114.63,281.64H268.5v17.1H114.63Z"/><path class="cls-1" d="M114.63,315.83H217.21v17.1H114.63Z"/><path class="cls-1" d="M114.63,350H302.7v17.1H114.63Z"/><path class="cls-1" d="M518.13,68.09l-29.65-5.93a179,179,0,0,1-91.74-49.1l-2.48-2.48a8.55,8.55,0,0,0-12.09,0l-2.48,2.48a179,179,0,0,1-91.76,49.1l-29.68,5.93a8.55,8.55,0,0,0-6.84,8.38v63.48c0,4.52.2,9,.51,13.46h-180a25.65,25.65,0,0,0-25.65,25.65V436.37A42.74,42.74,0,0,0,54.79,521H482.22a42.74,42.74,0,0,0,8.55-84.63V250.79A195.68,195.68,0,0,0,525,139.95V76.47A8.55,8.55,0,0,0,518.13,68.09ZM325.2,293.48l57.64,46.12a8.55,8.55,0,0,0,10.69,0l45.95-36.76v98.47H98.56V204.7H262.28A196,196,0,0,0,325.2,293.48ZM507.87,478.26a25.64,25.64,0,0,1-25.65,25.65H54.79a25.65,25.65,0,0,1,0-51.29H218.07A42.82,42.82,0,0,0,260,486.81h17.1a42.82,42.82,0,0,0,41.89-34.19H482.22A25.64,25.64,0,0,1,507.87,478.26Zm-272.1-25.65h65.47a25.7,25.7,0,0,1-24.19,17.1H260A25.7,25.7,0,0,1,235.77,452.61Zm237.9-17.1H63.33V179.05a8.55,8.55,0,0,1,8.55-8.55H253.82q1.35,8.66,3.42,17.1H90a8.55,8.55,0,0,0-8.55,8.55V409.87A8.55,8.55,0,0,0,90,418.42H448a8.55,8.55,0,0,0,8.55-8.55v-121a198.16,198.16,0,0,0,17.1-16.55Zm34.19-295.56a178.67,178.67,0,0,1-67.38,140.2L388.18,322l-52.3-41.84A178.66,178.66,0,0,1,268.5,139.95V83.48l22.78-4.55a195.94,195.94,0,0,0,96.9-50.33,195.94,195.94,0,0,0,96.9,50.29l22.78,4.59Z"/><path class="cls-1" d="M461.34,90.34a128.29,128.29,0,0,1-65.76-35.2l-1.8-1.8a8.54,8.54,0,0,0-12.08,0l-1.82,1.81a128.24,128.24,0,0,1-65.76,35.2l-21.63,4.32a8.54,8.54,0,0,0-6.84,8.39v46.32c0,1.15.16,2.26.19,3.42,0,.23-.13.42-.13.65a7,7,0,0,0,.23,1.14A144.92,144.92,0,0,0,340.31,263.2l42.07,33.66a8.54,8.54,0,0,0,5.34,1.87c.08,0,.17,0,.25,0s.13,0,.2,0a8.14,8.14,0,0,0,2.27-.46h.07a8.39,8.39,0,0,0,4.15-2.68l40.46-32.37a156.5,156.5,0,0,0,55.63-118.35V102.11a8.55,8.55,0,0,0-7.28-8.46Zm12.33,19.13v35.39H396.73v-66a145.78,145.78,0,0,0,61.65,28.27Zm-156.2-2.37a145.37,145.37,0,0,0,62.17-28.92v66.68H302.7V110ZM303.4,162h76.24V272.76L351,249.86A127.94,127.94,0,0,1,303.4,162Zm121.05,87.9L396.73,272V162h75.68A138.23,138.23,0,0,1,424.45,249.86Z"/></svg>