<svg width="68" height="80" viewBox="0 0 68 80" fill="none" xmlns="http://www.w3.org/2000/svg">
<path d="M60.6662 0H10.6662C6.99102 0 3.99945 2.98984 3.99945 6.66672V13.3334H2.33273C1.41148 13.3334 0.666016 14.0789 0.666016 15.0002C0.666016 15.9214 1.41148 16.6669 2.33273 16.6669H8.99945C9.91742 16.6669 10.6662 17.4139 10.6662 18.3336C10.6662 19.2531 9.91742 20.0003 8.99945 20.0003H5.66617C4.74492 20 3.99945 20.7455 3.99945 21.6667V30H2.33273C1.41148 30 0.666016 30.7455 0.666016 31.6667C0.666016 32.588 1.41148 33.3334 2.33273 33.3334H8.99945C9.91742 33.3334 10.6662 34.0805 10.6662 35.0002C10.6662 35.9198 9.91742 36.6667 8.99945 36.6667H5.66617C4.74492 36.6667 3.99945 37.4122 3.99945 38.3334V46.6667H2.33273C1.41148 46.6667 0.666016 47.4122 0.666016 48.3334C0.666016 49.2547 1.41148 50.0002 2.33273 50.0002H8.99945C9.91742 50.0002 10.6662 50.7472 10.6662 51.6669C10.6662 52.5864 9.91742 53.3336 8.99945 53.3336H5.66617C4.74492 53.3333 3.99945 54.0788 3.99945 55V63.3333H2.33273C1.41148 63.3333 0.666016 64.0788 0.666016 65C0.666016 65.9212 1.41148 66.6667 2.33273 66.6667H8.99945C9.91742 66.6667 10.6662 67.4138 10.6662 68.3334C10.6662 69.253 9.91742 70.0002 8.99945 70.0002H5.66617C4.74492 70 3.99945 70.7455 3.99945 71.6667V73.3334C3.99945 77.0102 6.99102 80 10.6662 80H60.6662C64.3413 80 67.3329 77.0102 67.3329 73.3333V6.66672C67.3327 2.98984 64.3413 0 60.6662 0ZM57.3327 52.9622C57.3327 55.0048 55.6693 56.6666 53.6284 56.6666C33.6154 56.6666 17.3327 40.3841 17.3327 20.3709C17.3327 18.3283 18.9962 16.6666 21.0371 16.6666H28.166C30.2071 16.6666 31.8704 18.3283 31.8704 20.3709C31.8704 22.6855 32.2318 24.9559 32.9446 27.1222C33.371 28.4731 33.0195 29.9119 32.0332 30.8983L29.1132 34.7866C31.623 39.3975 34.5657 42.3403 39.2109 44.8827L43.2734 41.8147C44.0937 40.9764 45.5748 40.6248 46.8996 41.0806C49.0415 41.787 51.3137 42.15 53.6282 42.15C55.6693 42.15 57.3326 43.8117 57.3326 45.8544V52.9622H57.3327Z" fill="#138690"/>
</svg>
