<svg width="67" height="80" viewBox="0 0 67 80" fill="none" xmlns="http://www.w3.org/2000/svg">
<path d="M37.6707 29.0783C38.1107 28.2916 38.3339 27.4816 38.3339 26.665C38.3339 23.9083 36.0907 21.665 33.3339 21.665C30.5772 21.665 28.3339 23.9083 28.3339 26.665C28.3339 27.4818 28.5607 28.2918 28.9972 29.0783C29.3739 29.745 29.5072 30.5216 29.3772 31.2783L27.2939 43.3316H39.3772L37.2939 31.2783C37.1639 30.5218 37.2972 29.745 37.6707 29.0783Z" fill="#138690"/>
<path d="M63.99 10.0633L61.9367 9.65332C52.5233 7.77004 43.4033 4.64332 34.8266 0.350039C33.8866 -0.11668 32.7798 -0.11668 31.8433 0.350039C23.2666 4.64332 14.1466 7.77004 4.73 9.65332L2.68 10.0633C1.12328 10.3766 0 11.7433 0 13.3333V25.61C0 40.08 5.63672 53.6833 15.8667 63.9133L30.9767 79.0233C31.63 79.6733 32.48 80 33.3334 80C34.1867 80 35.0401 79.6733 35.6901 79.0233L50.8034 63.9133C61.0334 53.6833 66.6667 40.08 66.6667 25.61V13.3333C66.6665 11.7433 65.5433 10.3768 63.99 10.0633ZM45.8833 48.8133C45.2533 49.5667 44.3165 50 43.3333 50H23.3333C22.35 50 21.4166 49.5667 20.7866 48.8133C20.1498 48.06 19.8833 47.07 20.0498 46.1L22.6198 31.21C21.9866 29.7533 21.6666 28.23 21.6666 26.6667C21.6666 20.2333 26.9033 15 33.3333 15C39.7665 15 45 20.2333 45 26.6667C45 28.23 44.6833 29.7535 44.0467 31.21L46.62 46.1C46.7865 47.07 46.5165 48.06 45.8833 48.8133Z" fill="#138690"/>
</svg>
