<?xml version="1.0" encoding="utf-8"?>
<!-- Generator: Adobe Illustrator 23.0.1, SVG Export Plug-In . SVG Version: 6.00 Build 0)  -->
<svg version="1.1" id="Layer_1" xmlns="http://www.w3.org/2000/svg" xmlns:xlink="http://www.w3.org/1999/xlink" x="0px" y="0px"
	 viewBox="0 0 1018.5 730.7" style="enable-background:new 0 0 1018.5 730.7;" xml:space="preserve">
<style type="text/css">
	.st0{fill:#138690;stroke:#138690;stroke-miterlimit:10;}
</style>
<title>Logo</title>
<path class="st0" d="M589,446.4c20,3,96.6-2.6,125-9c33.2-7.5,81.7-18.1,117-52c25-24,40-47,51-79s10-66,10-66s-80-32-225-46
	c-112-12-154-12-245-8c-88,7-124,12-172,22s-133,35-133,35c-0.3,19.5,1.6,63.5,29,106c7,10.9,21.2,32.4,47,49c11,7.1,22,11.9,38,19
	c13.2,5.8,25.6,11.3,42,16c12.9,3.7,76,13,92,12s44.2,2.9,58-1c18.5-5.2,26.1-14.2,28-18l0,0c7-6,13.4-12.7,19-20
	c5.5-7.2,11.8-13.5,19-19c8-6.1,11.6-6.8,14-7c6.5-0.4,11.8,3,17,7c9.2,7,17.5,15,24.8,23.8l0.2,0.2
	C552.5,420.8,569,443.4,589,446.4z"/>
<path class="st0" d="M923,251.4l-12,68c0,0,19-4,41-20c4-3,22-21,22-26C977,262.4,923,251.4,923,251.4z"/>
<polygon class="st0" points="932,121.4 929,220.4 976,239.4 976,152.4 "/>
<path class="st0" d="M902,108.4l-5,102c0,0-42-17-83-25c-65.3-12.7-114.7-21.3-162-26c-49.8-5-99.9-7.3-150-7
	c-61,0.6-107.2,5.2-135,8c-25.4,2.6-61.6,6.4-109,15c0,0-56.5,10.3-111,25l-37,10l0,0l-4-102c25.4-14.6,52.2-26.6,80-36
	c24.5-8.2,43.8-12.3,71-18c40.2-8.5,71.7-12.6,83-14c53.8-6.7,93.9-6.9,155-7c59.2-0.1,105.7,0,162,7c21.1,2.6,45.8,6.5,68,10
	c49.7,7.8,63.3,11.1,71,13c18,4.5,39.2,10,65,22C875.2,92.1,888.9,99.7,902,108.4z"/>
<polygon class="st0" points="77,121.4 80,221.4 33,239.4 33,153.4 "/>
<path class="st0" d="M36,274.4c-0.5-1.3,50-21,50-21l15,67c0,0-11,3-40-18C48,292.4,40,284.4,36,274.4z"/>
<polygon class="st0" points="126,558.4 126,685.4 151,685.4 151,628.4 205,628.4 205,685.4 230,685.4 230,558.4 205,558.4 
	205,606.4 151,606.4 151,558.4 "/>
<rect x="360" y="558.4" class="st0" width="24" height="127"/>
<polygon class="st0" points="512,558.4 512,685.4 588,685.4 588,665.4 538,665.4 538,558.4 "/>
<path class="st0" d="M705,595.4v93h22v-59c0,0,3-17,19-17c16,2,16,15,16,15v61h20v-72c0,0,0-18-27-22c-24,1-24,12-28,11
	c-2,0-1-10-1-10H705z"/>
<path class="st0" d="M806,610.4c2.8-4.7,6.5-8.8,11-12c7.1-4.8,15.5-7.3,24-7c14.9,0.1,25.6,8,31,12c2.5,1.8,4.8,3.8,7,6l-11,13
	c-4.6-4.4-12.4-10.2-23-12c-4.6-0.8-10.6-1.7-15,2c-0.3,0.3-4.7,4-4,9c0.5,3.8,3.7,6.1,5,7c6.4,4.5,12.3,1.7,24,4
	c3.4,0.7,6.8,1.7,10,3c4.8,2.4,8.8,6.3,11.1,11.1c2.5,5.6,3.4,11.8,2.9,17.9c-0.7,4.3-2.4,8.5-5,12c-4.7,6.3-11,8.6-15,10
	c-7,2.5-12.7,2.2-19,2c-8.2-0.3-16.3-2-24-5c-6.1-2.5-11.8-5.9-17-10l12-12c13.1,8.2,24.2,9.7,30,10c5.5,0.2,13.1,0.5,16.9-4.5
	c1.2-1.6,1.9-3.5,2.1-5.5c-0.2-2.6-1.3-5-3-7c-0.9-1-2.9-2.7-9-4c-5.9-1.2-6.9-0.2-13-1c-4.8-0.6-9.6-1.9-14-4c-3.3-1.4-6.4-3.5-9-6
	C804.3,631.9,801.9,620.4,806,610.4L806,610.4z"/>
<path class="st0" d="M342,638.4c0-28-20-47-47-46c-31,0-40,25-40,25s-5,13-4,25s9,47,45,46C328,687.4,344,664.4,342,638.4z
	 M297,668.4c-18-1-24-14-24-28c0-10,6-28,24-28c22,1,23,19,23,28C320,653.4,313,669.4,297,668.4z"/>
<path class="st0" d="M491,638.4c0-28-20-47-47-46c-31,0-40,25-40,25s-5,13-4,25s9,47,45,46C477,687.4,493,664.4,491,638.4z
	 M446,668.4c-18-1-24-14-24-28c0-10,6-28,24-28c22,1,23,19,23,28C469,653.4,462,669.4,446,668.4z"/>
<path class="st0" d="M673,655.4c-3,0-4,12-27,12c-24,0-26-23-26-23s63,1,65,0s7-9-4-29c-13-23-39-22-39-22c-26,1-45,22-44,50
	s20,46,49,45s39-21,39-21S676,655.4,673,655.4z M645,609.4c20,2,20,21,20,21h-42C623,630.4,624,609.4,645,609.4z"/>
</svg>
