<?xml version="1.0" encoding="utf-8"?>
<!-- Generator: Adobe Illustrator 21.0.0, SVG Export Plug-In . SVG Version: 6.00 Build 0)  -->
<svg version="1.1" id="Layer_1" xmlns="http://www.w3.org/2000/svg" xmlns:xlink="http://www.w3.org/1999/xlink" x="0px" y="0px"
	 viewBox="0 0 558 541" style="enable-background:new 0 0 558 541;" xml:space="preserve">
<style type="text/css">
	.st0{fill:#138690;stroke:#138690;stroke-miterlimit:10;}
</style>
<title>logo</title>
<path class="st0" d="M482.7,113c-36-47.5-90.9-54.1-101.2-55.1C288.1,57,231,56.9,194.5,57h-1.8C174,57.3,55,62.7,47.2,202.8
	C62,337,181.4,337,181.4,337h196c0,0,124.3-4.1,133.4-134.2C510.8,176.4,510.1,149.1,482.7,113z M375.6,244H184.7
	c0,0-41.2-0.8-43.6-46.9c4.1-42.8,43.6-46.1,43.6-46.1h187.8c0,0,42.8,2.5,45.3,46.1c-2.5,43.6-42,46.9-42,46.9L375.6,244z"/>
<g>
	<path class="st0" d="M49.4,443.5C22.7,442.9,0.5,464.2,0,490.9c-0.5,26.7,20.7,48.9,47.5,49.4c26.7,0.5,48.9-20.7,49.4-47.5
		c0-0.3,0-0.7,0-1C97.1,465.4,75.9,443.7,49.4,443.5z M49.7,518.7c-14.8,0.4-27-11.3-27.4-26.1c-0.4-14.8,11.3-27,26.1-27.4
		c14.8-0.4,27,11.3,27.4,26.1c0,0.2,0,0.4,0,0.6C76,506.5,64.4,518.5,49.7,518.7C49.7,518.7,49.7,518.7,49.7,518.7z"/>
	<path class="st0" d="M486.5,457.8c3.5-5.4,8.3-9.8,14-12.7c6.2-3.1,13-4.5,19.9-4.1c6.1,0.1,12,1.3,17.7,3.5
		c5.4,1.9,10.5,4.5,15.3,7.6l-10.8,14.7c-5.4-2.8-11.2-4.8-17.2-5.7c-7.9-1.3-11.6,0-13.4,0.6c-1.7,0.6-6.2,2.5-7,6.4
		c-0.3,2.3,0.4,4.6,1.9,6.4c2,2.5,4.4,2.9,10.8,4.5c10.4,1.5,20.4,5.2,29.3,10.8c3.1,2.1,5.7,4.8,7.6,8c3.2,5.6,4.2,12.1,2.8,18.4
		c-1,4.4-3,8.4-5.9,11.8c-3.9,4.7-8.9,8.2-14.7,10.2c-5.6,2.1-11.5,3-17.4,2.7c-8.5-0.1-16.9-1.9-24.6-5.3
		c-5.7-2.4-11.1-5.7-15.9-9.6l11.5-15.3c6.1,5.4,13.6,9,21.7,10.2c6.2,1.1,12.6,0.4,18.5-1.9c2-0.9,3.9-1.9,5.7-3.2
		c2-5.8,0.4-9.1-0.2-10c-2-3.4-6-4.4-11.9-5.9c-5-1.3-7.1-0.9-12.1-2.5c-1.8-0.6-3-1-5.2-1.7c-5.4-1-10.4-3.5-14.5-7.3
		c-3.5-3.1-6.2-7-7.6-11.5C482.8,470.6,483.5,463.7,486.5,457.8z"/>
	<rect x="325" y="395.1" class="st0" width="22.3" height="143.4"/>
	<path class="st0" d="M299.5,445.4v93h-19.8v-9.5c0,0-10.2,11.5-29.9,11.5s-37.6-12.7-38.9-42c-0.6-19.1-0.6-52.9-0.6-52.9h22.3
		v47.1c0,0-2.5,28,21.7,27.4c24.2-0.6,22.9-21.7,22.9-27.4c0.6-13.4,0-47.1,0-47.1L299.5,445.4z"/>
	<path class="st0" d="M460.6,445.4v93h-19.8v-9.5c0,0-10.2,11.5-29.9,11.5s-37.6-12.7-38.9-42c-0.6-19.1-0.6-52.9-0.6-52.9h22.3
		v47.1c0,0-2.5,28,21.7,27.4c24.2-0.6,22.9-21.7,22.9-27.4c0.6-13.4,0-47.1,0-47.1L460.6,445.4z"/>
	<path class="st0" d="M181.6,510.4l15.3,15.3c0,0-12.7,15.9-38.2,15.3c-26.8-2.5-44.6-19.1-45.2-49.1c0-32.5,22.9-48.4,46.5-49.1
		c11.6,0.5,22.9,4.2,32.5,10.8L179,470.9c0,0-6.4-6.4-19.8-5.7c-23.6,1.9-24.2,21.7-24.2,26.8s1.3,22.3,21,26.8
		C175.9,520.6,181.6,510.4,181.6,510.4z"/>
</g>
</svg>
