<svg id="Layer_1" data-name="Layer 1" xmlns="http://www.w3.org/2000/svg" viewBox="0 0 570 603"><defs><style>.cls-1{fill:#138690;stroke:#138690;stroke-miterlimit:10;}</style></defs><title>logo</title><path class="cls-1" d="M503.75,59.72H373.92A230.64,230.64,0,0,0,240.59,17c-92.67,0-180.47,56.57-209,134.6C10.91,194.76,23,278.86,32.69,346.49c2.49,17.39,4.86,33.82,6.42,47.95l1,182A9.55,9.55,0,0,0,49.71,586l272.22,3.33h.12a10.2,10.2,0,0,0,7.08-2.63,9.56,9.56,0,0,0,3.15-6.73V504.86L399.9,507c.62,0,1.09,0,1.7,0a58.16,58.16,0,0,0,58.07-57.44l.8-56.57h76.2a9.91,9.91,0,0,0,9-13.62l-30.56-74.91A44.08,44.08,0,0,0,548,262.09V103.37C548,79.26,527.85,59.72,503.75,59.72ZM451.05,79.11V286.33H281.42a58.2,58.2,0,0,1-58.19-58.27V137.4a58.22,58.22,0,0,1,58.19-58.29ZM123,70.9A220.81,220.81,0,0,1,240.59,36.28a205,205,0,0,1,95.9,23.43H281.42c-39.69,0-72.51,30.3-77.16,67.86H64.93C79,105.77,98.86,86.34,123,70.9ZM49.23,159.81c.15-.31.28-.93.4-1.26,1.37-3.8,2.93-7.94,4.64-11.58H203.84v71.5H39.52C39.62,194.23,42.26,174.1,49.23,159.81ZM450.92,373.58a9.56,9.56,0,0,0-9.69,9.4l-1,66.25a38.8,38.8,0,0,1-40,38.37L245.1,482.81a9.71,9.71,0,0,0-10,9.39,9.92,9.92,0,0,0,9.66,10l68.14,2.09V570.1L59.75,566.85l-1.11-173c0-.34-.07-.68-.12-1-1.6-14.56-4-31.13-6.6-48.88C47,310,41.54,271.78,40,237.85H204.26c4.66,37.57,37.48,67.86,77.16,67.86h213l27.77,67.86Zm77.69-111.49c0,13.42-11.45,24.24-24.87,24.24h-33.3V79.11h33.3c13.42,0,24.87,10.84,24.87,24.26Z"/></svg>