<svg width="25" height="25" viewBox="0 0 25 25" fill="none" xmlns="http://www.w3.org/2000/svg">
<g clip-path="url(#clip0)">
<path d="M17.9167 8.70852H15.2083V8.16684C15.2083 7.56937 14.7225 7.0835 14.125 7.0835H10.875C10.2775 7.0835 9.79166 7.56935 9.79166 8.16684V8.7085H7.08334C6.48585 8.70852 6 9.19437 6 9.79184V16.8335C6 17.431 6.48585 17.9168 7.08334 17.9168H17.9167C18.5142 17.9168 19 17.431 19 16.8335V9.79184C19 9.19437 18.5142 8.70852 17.9167 8.70852ZM10.3333 8.16684C10.3333 7.86824 10.5764 7.62518 10.875 7.62518H14.125C14.4236 7.62518 14.6667 7.86824 14.6667 8.16684V8.7085H10.3333V8.16684ZM18.4583 16.8335C18.4583 17.1321 18.2153 17.3752 17.9167 17.3752H7.08334C6.78475 17.3752 6.54168 17.1321 6.54168 16.8335V12.8912C6.70167 12.9845 6.88514 13.0419 7.08334 13.0419H11.4167V13.8544C11.4167 14.0041 11.5378 14.1252 11.6875 14.1252H13.3125C13.4622 14.1252 13.5834 14.0041 13.5834 13.8544V13.0419H17.9167C18.1149 13.0419 18.2984 12.9845 18.4584 12.8912V16.8335H18.4583ZM11.9583 13.5835V12.5002H13.0417V13.5835H11.9583ZM18.4583 11.9585C18.4583 12.2571 18.2153 12.5002 17.9167 12.5002H13.5833V12.2293C13.5833 12.0796 13.4622 11.9585 13.3125 11.9585H11.6875C11.5378 11.9585 11.4167 12.0796 11.4167 12.2293V12.5002H7.08334C6.78475 12.5002 6.54168 12.2571 6.54168 11.9585V9.79186C6.54168 9.49327 6.78475 9.25021 7.08334 9.25021H17.9167C18.2153 9.25021 18.4583 9.49327 18.4583 9.79186V11.9585Z" fill="black"/>
</g>
<path d="M12.5 24C18.8513 24 24 18.8513 24 12.5C24 6.14873 18.8513 1 12.5 1C6.14872 1 1 6.14873 1 12.5C1 18.8513 6.14872 24 12.5 24Z" stroke="#303030" stroke-miterlimit="10"/>
<defs>
<clipPath id="clip0">
<rect x="6" y="6" width="13" height="13" fill="white"/>
</clipPath>
</defs>
</svg>
