<svg width="25" height="25" viewBox="0 0 25 25" fill="none" xmlns="http://www.w3.org/2000/svg">
<path d="M12.5 24C18.8513 24 24 18.8513 24 12.5C24 6.14873 18.8513 1 12.5 1C6.14872 1 1 6.14873 1 12.5C1 18.8513 6.14872 24 12.5 24Z" stroke="#303030" stroke-miterlimit="10"/>
<path d="M7.63439 14.6743C8.92147 16.2128 10.4708 17.4242 12.2392 18.2814C12.9125 18.6004 13.8129 18.979 14.8161 19.0439C14.8783 19.0466 14.9378 19.0493 15 19.0493C15.6732 19.0493 16.214 18.8167 16.6548 18.3381C16.6575 18.3354 16.6629 18.33 16.6656 18.3246C16.8224 18.1353 17.0009 17.965 17.1875 17.7838C17.3145 17.6622 17.4443 17.5351 17.5687 17.4053C18.1447 16.805 18.1447 16.0425 17.5633 15.4611L15.9382 13.8361C15.6624 13.5494 15.3325 13.398 14.9864 13.398C14.6403 13.398 14.3077 13.5494 14.0238 13.8334L13.0558 14.8014C12.9666 14.75 12.8747 14.704 12.7881 14.6608C12.68 14.6067 12.5799 14.5553 12.4907 14.4985C11.6092 13.9388 10.8088 13.2087 10.0436 12.2705C9.65695 11.7811 9.39737 11.3701 9.2162 10.9509C9.47038 10.7211 9.70832 10.4805 9.93816 10.2452C10.0193 10.1614 10.1031 10.0776 10.1869 9.99374C10.479 9.70171 10.6358 9.36372 10.6358 9.02032C10.6358 8.67691 10.4817 8.33892 10.1869 8.04689L9.38115 7.24111C9.28651 7.14648 9.19728 7.05454 9.10534 6.9599C8.92688 6.77603 8.74031 6.58676 8.55644 6.41641C8.27793 6.14331 7.95075 6 7.60465 6C7.26125 6 6.93136 6.14331 6.64204 6.41911L5.63076 7.43039C5.26302 7.79813 5.05482 8.24428 5.01156 8.76074C4.96018 9.40698 5.07916 10.0938 5.38741 10.9239C5.8606 12.2083 6.57444 13.4007 7.63439 14.6743ZM5.67132 8.81752C5.70377 8.45789 5.84167 8.15775 6.10125 7.89818L7.10712 6.8923C7.26395 6.74088 7.437 6.66247 7.60465 6.66247C7.76959 6.66247 7.93723 6.74088 8.09136 6.89771C8.27252 7.06536 8.44287 7.24111 8.62674 7.42769C8.71868 7.52233 8.81332 7.61696 8.90795 7.71431L9.71373 8.52008C9.88138 8.68773 9.9679 8.85808 9.9679 9.02572C9.9679 9.19337 9.88138 9.36372 9.71373 9.53136C9.62991 9.61519 9.54609 9.70171 9.46226 9.78553C9.2108 10.0397 8.97555 10.2804 8.71597 10.5102C8.71057 10.5156 8.70786 10.5183 8.70245 10.5237C8.47803 10.7481 8.51318 10.9618 8.56726 11.124C8.56996 11.1321 8.57266 11.1375 8.57537 11.1456C8.78357 11.6459 9.07289 12.1218 9.52446 12.6896C10.3356 13.69 11.1901 14.4661 12.1311 15.0637C12.2473 15.1394 12.3717 15.1988 12.488 15.2583C12.5961 15.3124 12.6962 15.3638 12.7854 15.4206C12.7962 15.426 12.8043 15.4314 12.8152 15.4368C12.9044 15.4828 12.9909 15.5044 13.0774 15.5044C13.2938 15.5044 13.4344 15.3665 13.4803 15.3205L14.4916 14.3092C14.6484 14.1524 14.8188 14.0686 14.9864 14.0686C15.1919 14.0686 15.3596 14.1957 15.465 14.3092L17.0955 15.937C17.42 16.2615 17.4173 16.613 17.0874 16.9564C16.9738 17.0781 16.8549 17.1944 16.7278 17.316C16.5385 17.4999 16.3411 17.6892 16.1627 17.9028C15.8517 18.2381 15.4813 18.3949 15.0027 18.3949C14.9567 18.3949 14.908 18.3922 14.8621 18.3895C13.9752 18.3327 13.1505 17.9866 12.5313 17.6919C10.8494 16.878 9.37303 15.7234 8.14814 14.2579C7.13957 13.0438 6.46088 11.9135 6.01202 10.7022C5.73351 9.95859 5.62806 9.36101 5.67132 8.81752Z" fill="black"/>
</svg>
