<svg height="485pt" viewBox="0 0 485 485" width="485pt" xmlns="http://www.w3.org/2000/svg"><path d="m250.199219 174.222656c-8.480469-.671875-26.941407-.902344-55.378907 5-40.523437 8.414063-59.226562 45.824219-59.226562 75.132813 0 29.296875 28.050781 63.277343 70.136719 63.277343 32.203125 0 50.359375-19.359374 57.09375-28.449218 1.511719-2.019532 4.554687-1.917969 5.925781.207031 1.667969 2.601563 4.046875 6.050781 7.113281 9.84375 3.289063 4.082031 7.679688 8.148437 11.238281 11.199219 3.4375 2.949218 8.554688 2.777344 11.84375-.335938l27.894532-26.578125c3.230468-3.078125 3.679687-8.070312 1.03125-11.660156-1.539063-2.082031-3.480469-4.769531-5.878906-8.152344-7.484376-10.601562-7.167969-19.015625-7.167969-19.015625v-98.507812c0-11.84375-7.171875-60.46875-82.609375-60.46875-61.605469 0-80.378906 43.863281-85.195313 59.949218-.921875 3.078126 1.082031 6.246094 4.25 6.777344l38.253907 6.464844c2.324218.390625 4.632812-.769531 5.675781-2.886719 4.195312-8.492187 16.390625-29.164062 35.457031-29.164062 24.011719.007812 24.945312 19.644531 24.945312 19.644531v22.699219c0 2.929687-2.472656 5.25-5.402343 5.023437zm6.03125 36.429688v28.722656c0 15-10.328125 28.148438-24.96875 31.398438-3.785157.847656-8.113281 1.347656-13.070313 1.347656-31.792968 0-25.871094-40.835938-11.214844-52.996094 11.105469-9.21875 33.664063-12.34375 43.9375-13.308594 2.855469-.269531 5.316407 1.972656 5.316407 4.835938zm0 0"/><path d="m345.527344 330.171875c15.433594-1.867187 22.214844-3.808594 26.886718.324219 4.679688 4.125 3.039063 12.539062 0 22.125-3.03125 9.578125-10.539062 17.574218-3.273437 21.511718 8.492187 4.597657 41.183594-37.683593 27.59375-58.683593-11.300781-17.460938-58.6875 2.105469-62.191406 4.4375-3.503907 2.34375-3.503907 5.140625-3.503907 5.140625s-.933593 7.019531 14.488282 5.144531zm0 0"/><path d="m228.496094 399.285156c57.027344 0 81.035156-11.832031 105.664062-25.546875 24.621094-13.71875 29.300782-24 25.871094-30.433593-3.429688-6.429688-17.464844.199218-29.925781 5.492187-12.472657 5.300781-50.804688 19.957031-105.980469 19.957031s-110.664062-38.972656-122.511719-47.226562c-11.84375-8.265625-16.050781 0-16.050781 0s-3.578125 6.855468 7.332031 20.261718c10.898438 13.40625 66.300781 57.496094 135.601563 57.496094zm0 0"/><path d="m0 0v485h485v-485zm455 455h-425v-425h425zm0 0"/></svg>