<?xml version="1.0" encoding="iso-8859-1"?>
<!-- Generator: Adobe Illustrator 19.0.0, SVG Export Plug-In . SVG Version: 6.00 Build 0)  -->
<svg version="1.1" id="Capa_1" xmlns="http://www.w3.org/2000/svg" xmlns:xlink="http://www.w3.org/1999/xlink" x="0px" y="0px"
	 viewBox="0 0 512 512" style="enable-background:new 0 0 512 512;" xml:space="preserve">
<g>
	<g>
		<path d="M384,34.298H128L0,256l128,221.702h256.001L512,256L384,34.298z M145.321,64.298H366.68l34.642,60.001H179.963
			L121.245,226l-34.642-60.001L145.321,64.298z M314.717,154.299L373.434,256l-58.717,101.701H197.283L138.566,256l58.717-101.701
			H314.717z M145.321,447.703L34.642,256l34.642-60.001l110.679,191.703h117.433l-34.642,60.001H145.321z M366.68,447.703h-69.284
			l110.679-191.702L349.358,154.3h69.283l58.717,101.701L366.68,447.703z"/>
	</g>
</g>
<g>
	<g>
		<path d="M256,195.999c-33.085,0-60.001,26.917-60.001,60.001s26.917,60.001,60.001,60.001s60.001-26.917,60.001-60.001
			S289.085,195.999,256,195.999z M256,286.001c-16.542,0-30.001-13.458-30.001-30.001s13.458-30.001,30.001-30.001
			s30.001,13.458,30.001,30.001S272.542,286.001,256,286.001z"/>
	</g>
</g>
<g>
</g>
<g>
</g>
<g>
</g>
<g>
</g>
<g>
</g>
<g>
</g>
<g>
</g>
<g>
</g>
<g>
</g>
<g>
</g>
<g>
</g>
<g>
</g>
<g>
</g>
<g>
</g>
<g>
</g>
</svg>
