<svg width="18" height="12" viewBox="0 0 18 12" fill="none" xmlns="http://www.w3.org/2000/svg">
<path d="M17.4398 5.73487L11.9806 0.109872C11.8385 -0.036624 11.6082 -0.036624 11.466 0.109872C11.3238 0.256368 11.3238 0.493673 11.466 0.640134L16.3039 5.62501H0.441103C0.239933 5.62501 0.0771484 5.79274 0.0771484 6.00002C0.0771484 6.2073 0.239933 6.37503 0.441103 6.37503H16.3039L11.466 11.3599C11.3238 11.5064 11.3238 11.7437 11.466 11.8901C11.5371 11.9634 11.6302 12 11.7234 12C11.8165 12 11.9096 11.9634 11.9807 11.8901L17.4398 6.26514C17.582 6.11867 17.582 5.88137 17.4398 5.73487Z" fill="#138690"/>
</svg>
