<svg width="81" height="63" viewBox="0 0 81 63" fill="none" xmlns="http://www.w3.org/2000/svg">
<path d="M75.2753 18.8652C74.9517 16.4333 74.9061 12.2447 77.165 10.8382C77.2053 10.8125 77.2354 10.7752 77.2707 10.7432C79.1174 10.1526 80.3955 9.32362 79.3922 8.20819L52.1505 0L8.03998 6.13274C8.03998 6.13274 2.98877 6.85472 3.44 14.7024C3.68496 18.9736 5.02458 21.0713 6.19612 22.1036L2.57645 23.1945C1.57179 24.3099 2.84958 25.1391 4.69654 25.7288C4.73163 25.7617 4.76124 25.7987 4.8023 25.8245C7.05967 27.2322 7.01622 31.4203 6.69152 33.8527C-1.41806 36.1554 1.493 36.9058 1.493 36.9058L3.27192 37.3363C2.02064 38.467 0.777951 40.6112 1.01073 44.6778C1.46221 52.5241 5.61118 53.0655 5.61118 53.0655L34.4769 62.4479L78.0462 51.8947C78.0462 51.8947 80.9582 51.1431 72.8465 48.8402C72.5203 46.4116 72.475 42.2239 74.7376 40.8127C74.7791 40.7876 74.8095 40.7497 74.8431 40.7182C76.6901 40.1275 77.9669 39.2993 76.9635 38.1838L75.0697 37.612C76.3327 36.8504 78.2298 34.86 78.527 29.6896C78.7321 26.1332 77.8043 24.0504 76.7304 22.8242L80.4735 21.9183C80.4738 21.9198 83.3858 21.1682 75.2753 18.8652ZM38.8321 18.7647L46.1589 17.2589L70.919 12.1707L74.608 11.412C73.4293 13.5693 73.4787 16.5217 73.6737 18.4192C73.7165 18.8485 73.7656 19.2405 73.8134 19.5385L69.7757 20.5424L38.5242 28.3168L38.8321 18.7647ZM7.35954 26.4006L11.048 27.1594L34.8267 32.0475L36.904 32.473L43.1337 33.7534L43.441 43.3057L11.3211 35.3146L8.15458 34.5276C8.20113 34.2292 8.25032 33.8377 8.29496 33.4072C8.48883 31.511 8.5392 28.558 7.35954 26.4006ZM5.92657 14.3247C5.88193 12.2373 6.2539 10.7277 7.00572 9.96037C7.48417 9.47045 8.04881 9.36851 8.43606 9.36851C8.64067 9.36851 8.78798 9.39692 8.79801 9.39692L27.8041 15.5932L37.2865 18.6847L36.9754 28.3037L10.3735 20.8456L8.96967 20.4524C8.9181 20.4379 8.84814 20.4278 8.79419 20.4254C8.6846 20.4176 6.05454 20.1755 5.92657 14.3247ZM34.5456 58.2805L6.54063 50.429C6.48883 50.414 6.41959 50.404 6.36563 50.4013C6.25414 50.3939 3.62288 50.1521 3.49563 44.3027C3.45027 42.2127 3.82415 40.7045 4.57454 39.9365C5.05418 39.4466 5.61906 39.3446 6.0056 39.3446C6.21068 39.3446 6.35751 39.3721 6.36826 39.3721C6.36826 39.3721 6.36945 39.3721 6.36826 39.3721L34.8548 48.6613L34.5456 58.2805ZM71.2425 48.3946C71.2867 48.8254 71.3359 49.2167 71.3836 49.5151L36.0937 58.2941L36.4022 48.7418L43.9469 47.1906L45.0611 47.4602L49.2373 46.1029L68.4879 42.1471L72.1782 41.3878C70.9983 43.5449 71.0473 46.4985 71.2425 48.3946ZM73.1864 35.4127C73.1222 35.4141 73.058 35.4227 72.9976 35.4418L70.336 36.1869L44.9933 43.2931L44.6834 33.6741L52.9981 30.9622L73.1311 24.3963C73.1337 24.3951 74.1901 24.1604 74.9656 24.949C75.7162 25.7164 76.0887 27.226 76.0447 29.3134C75.9134 35.1622 73.2822 35.4053 73.1864 35.4127Z" fill="#138690"/>
</svg>
