<?xml version="1.0"?>
<svg xmlns="http://www.w3.org/2000/svg" id="Layer_1" data-name="Layer 1" viewBox="0 0 512 512" width="512" height="512"><title>Coding</title><path d="M295.452,35h-160a46.053,46.053,0,0,0-46,46V431a46.053,46.053,0,0,0,46,46h160a46.053,46.053,0,0,0,46-46V385.013h53.114a28.014,28.014,0,0,0,27.982-27.982V177.125a6,6,0,0,0-1.926-4.4l-56.355-52.138a6,6,0,0,0-4.075-1.6h-18.74V81A46.053,46.053,0,0,0,295.452,35Zm0,430h-160a34.038,34.038,0,0,1-34-34V405h228v26A34.038,34.038,0,0,1,295.452,465Zm34-72h-228V107h163a6,6,0,0,0,0-12h-163V81a34.038,34.038,0,0,1,34-34h160a34.038,34.038,0,0,1,34,34V95h-14a6,6,0,0,0,0,12h14v11.987H248.53a28.014,28.014,0,0,0-27.982,27.982V357.031a28.014,28.014,0,0,0,27.982,27.982h80.922Zm65.114-19.987H248.53a16,16,0,0,1-15.982-15.982V146.969a16,16,0,0,1,15.982-15.982H354.192v35.148a17.01,17.01,0,0,0,16.992,16.99h39.364V357.031A16,16,0,0,1,394.566,373.013Zm-28.374-234.3,35.036,32.413H371.184a5,5,0,0,1-4.992-4.99Z"/><path d="M284.146,107h11.116a6,6,0,0,0,0-12H284.146a6,6,0,0,0,0,12Z"/><path d="M215.452,414a21,21,0,1,0,21,21A21.024,21.024,0,0,0,215.452,414Zm0,30a9,9,0,1,1,9-9A9.01,9.01,0,0,1,215.452,444Z"/><path d="M308.33,206.8a6,6,0,0,0,8.454-.727l12.533-14.889a6,6,0,0,0,0-7.728l-12.533-14.889a6,6,0,1,0-9.18,7.727l9.281,11.026L307.6,198.35A6,6,0,0,0,308.33,206.8Z"/><path d="M266.975,206.077a6,6,0,1,0,9.179-7.727l-9.28-11.026,9.28-11.026a6,6,0,1,0-9.179-7.727L254.441,183.46a6,6,0,0,0,0,7.728Z"/><path d="M287.184,218.069a5.991,5.991,0,0,0,6.837-5.025l7.58-49.628a6,6,0,0,0-11.864-1.812l-7.579,49.628A6,6,0,0,0,287.184,218.069Z"/><path d="M300.231,305.05h-41.2a6,6,0,0,0,0,12h41.2a6,6,0,0,0,0-12Z"/><path d="M325.928,305.05a6,6,0,0,0,0,12H334.5a6,6,0,0,0,0-12Z"/><path d="M388.37,305.05h-28.5a6,6,0,0,0,0,12h28.5a6,6,0,0,0,0-12Z"/><path d="M267.384,337.9h-8.353a6,6,0,0,0,0,12h8.353a6,6,0,0,0,0-12Z"/><path d="M356.4,337.9H319.358a6,6,0,0,0,0,12H356.4a6,6,0,0,0,0-12Z"/><path d="M293.965,337.9h-.885a6,6,0,0,0,0,12h.885a6,6,0,1,0,0-12Z"/><path d="M388.37,337.9h-6.6a6,6,0,0,0,0,12h6.6a6,6,0,0,0,0-12Z"/><path d="M259.031,246.975h19.3a6,6,0,0,0,0-12h-19.3a6,6,0,0,0,0,12Z"/><path d="M298.029,240.975a6,6,0,0,0,6,6h41.422a6,6,0,0,0,0-12H304.029A6,6,0,0,0,298.029,240.975Z"/><path d="M370.82,246.975h17.55a6,6,0,0,0,0-12H370.82a6,6,0,0,0,0,12Z"/><path d="M259.031,279.823h30.251a6,6,0,1,0,0-12H259.031a6,6,0,0,0,0,12Z"/><path d="M335.257,273.823a6,6,0,0,0,6,6h26.094a6,6,0,0,0,0-12H341.257A6,6,0,0,0,335.257,273.823Z"/><path d="M315.864,279.823a6,6,0,0,0,0-12h-.885a6,6,0,1,0,0,12Z"/><path d="M392.719,267.823H388.37a6,6,0,0,0,0,12h4.349a6,6,0,0,0,0-12Z"/></svg>
