<?xml version="1.0" encoding="utf-8"?>
<!-- Generator: Adobe Illustrator 23.0.1, SVG Export Plug-In . SVG Version: 6.00 Build 0)  -->
<svg version="1.1" id="Layer_1" xmlns="http://www.w3.org/2000/svg" xmlns:xlink="http://www.w3.org/1999/xlink" x="0px" y="0px"
	 viewBox="0 0 623.3 593.4" style="enable-background:new 0 0 623.3 593.4;" xml:space="preserve">
<style type="text/css">
	.st0{fill:#138690;stroke:#138690;stroke-miterlimit:10;}
</style>
<title>logo</title>
<path class="st0" d="M547.3,85h-53.6l-9.2-6.1c-25.3-16.9-55-25.9-85.5-25.9h-59.8c-8.8,0-16,7.2-16,16c0,5.6,1.6,11.2,4.5,16h-44.5
	c-13.2,0-24,10.6-24,23.8c0,3.1,0.6,6.2,1.8,9.1c-4.4,1.2-8.4,3.6-11.4,7l-8.1-8.1l-11.7,11.6c-4.5,4.5-11.3,5.7-17.1,3.1
	c-5.7-2.4-9.5-8-9.5-14.2V101h-48v16.4c-0.2,8.7-7.3,15.6-16,15.4c-4-0.1-7.8-1.6-10.6-4.4L117,116.8l-34,34l11.6,11.6
	c4.5,4.5,5.7,11.3,3.1,17.1c-2.4,5.7-7.9,9.4-14.1,9.4H67.3v48h16.4c8.7,0.1,15.6,7.3,15.4,15.9c-0.1,4-1.6,7.8-4.4,10.7l-11.7,11.6
	l34,34l11.7-11.7c6.2-6,16.1-5.9,22.2,0.3c2.8,2.9,4.4,6.7,4.4,10.7V325h8v16.2c0,15.3,1.7,30.5,4.9,45.5
	c-7.7,3.4-15.1,7.5-22.1,12.2l-9.2,6.1H83.3c-8.8,0-16,7.2-16,16v96c0,8.8,7.2,16,16,16h48c6.3,0,12-3.7,14.5-9.4
	c25.1,16.5,54.6,25.4,84.7,25.4h68.8c3.2,0,6.4-0.6,9.3-1.9c1.4,0.5,2.8,1,4.2,1.5l2.5,0.8l2.5-0.8c36.8-12.3,69.7-34.1,95.2-63.3
	c1.6,0.1,3.2,0.5,4.8,1.2c5.7,2.4,9.5,8,9.5,14.2V517h48v-16.4c0.1-8.7,7.3-15.6,15.9-15.4c4,0.1,7.8,1.6,10.7,4.4l11.6,11.7l34-34
	l-11.6-11.7c-4.5-4.5-5.7-11.3-3.1-17.1c2.4-5.7,8-9.5,14.2-9.5h16.4v-48h-16.4c-8.7-0.1-15.6-7.3-15.4-15.9c0.1-4,1.6-7.8,4.4-10.7
	l11.6-11.7l-34-34l-11.7,11.7c-4.5,4.5-11.3,5.7-17.1,3.1c-5.7-2.4-9.5-7.9-9.4-14.1V293h-8v-79.5c6-2.9,11.8-6.2,17.4-9.9
	c2.6,5.8,8.3,9.5,14.6,9.5h48c8.8,0,16-7.2,16-16v-96C563.3,92.1,556.1,85,547.3,85z M283.3,101h97.4c4.8,0,9.2,2.2,12.2,5.9
	c-3.4,3-6.5,6.4-9.2,10.1H283.3c-4.4,0-8-3.6-8-8S278.8,101,283.3,101z M332.6,174.9l-14.9-9.9h53.6v16h-28.5
	C339.3,179.1,335.9,177.1,332.6,174.9z M287.8,181h-4.5c-4.4,0-8-3.6-8-8s3.6-8,8-8h29.6l-14.9,9.9
	C294.6,177.1,291.2,179.1,287.8,181z M267.3,133H375c-1.8,5.2-3,10.5-3.4,16H267.3c-4.4,0-8-3.6-8-8S262.8,133,267.3,133z
	 M151.6,279.5c-11.7-4.9-25.3-2.3-34.3,6.7l-0.3,0.3l-11.3-11.3l0.3-0.3c12.3-12.5,12.1-32.5-0.4-44.8c-5.9-5.8-13.7-9-22-9.1h-0.4
	v-16h0.4c17.5-0.1,31.6-14.4,31.4-31.9c-0.1-8.2-3.3-16.1-9.1-22l-0.3-0.3l11.3-11.3l0.3,0.3c12.5,12.3,32.5,12.1,44.8-0.4
	c5.8-5.9,9-13.7,9.1-22V117h16v0.4c0.1,17.5,14.4,31.6,31.9,31.4c8.2-0.1,16.1-3.3,22-9.1l0.3-0.3l1.8,1.8
	c0.1,10.7,7.4,20.1,17.7,22.9c-3.6,9-1.5,19.3,5.5,26c-10.9,3.6-22.2,5.8-33.7,6.5c-9-29.6-40.3-46.3-69.9-37.3
	c-29.6,9-46.3,40.3-37.3,69.9c5.5,18,19.6,32,37.6,37.4v21.1C160.1,284,156.1,281.2,151.6,279.5L151.6,279.5z M163.3,187.2v62.3
	c-20.2-8.8-29.5-32.3-20.7-52.5s32.3-29.5,52.5-20.7c9.1,4,16.4,11.2,20.5,20.2c-5.5-0.3-10.9-1-16.3-2.1L163.3,187.2z M131.3,517
	h-48v-96h48V517z M299.3,533h-68.8c-30-0.1-59.3-9.9-83.2-28v-87.7l7.7-5.1c22.7-15.1,49.3-23.2,76.6-23.2h43.8c0,8.8-7.2,16-16,16
	h-24v16h96c4.4,0,8,3.6,8,8s-3.6,8-8,8h-96v16h112c4.4,0,8,3.6,8,8s-3.6,8-8,8h-112v16h96c4.4,0,8,3.6,8,8s-3.6,8-8,8h-96v16h64
	c4.4,0,8,3.6,8,8S303.7,533,299.3,533z M211.3,341.2v-96.7c4.6,0.4,9.2,0.5,13.8,0.5c30.4,0,58-6.2,82.2-18.4V405h-20.5
	c2.9-4.8,4.4-10.4,4.5-16c0-8.8-7.2-16-16-16h-43.8c-5.7,0-11.4,0.4-17,1C212.4,363.2,211.3,352.2,211.3,341.2z M371.2,460
	c-0.5-10.4-7.6-19.3-17.7-22c5-12.2-0.8-26.2-13-31.2c-2.9-1.2-6-1.8-9.2-1.8h-8V226.5c24.2,12.2,51.8,18.4,82.2,18.4
	c4.6,0,9.2-0.2,13.8-0.5v96.7C419.3,385.5,402.1,428.2,371.2,460z M322.8,529.6c0.3-1.5,0.5-3.1,0.5-4.6c0-2.7-0.5-5.4-1.5-8h9.5
	c12.7-0.1,23.1-9.9,23.9-22.6c50.3-34.8,80.2-92.1,80.1-153.2V226.5l-9,1.1c-6.9,0.9-13.8,1.3-20.8,1.3c-32.6,0-61.6-7.7-86-22.8
	l-4.2-2.6l-4.2,2.6c-24.4,15.1-53.4,22.8-86,22.8c-7,0-13.9-0.4-20.8-1.3l-9-1.1v114.7c0,11.9,1.2,23.7,3.4,35.3
	c-5.2,1.2-10.4,2.6-15.4,4.3c-2.6-13-4-26.3-4-39.6V206.7l16.9,3.4c38.3,7.7,78.1-0.2,110.7-21.9l8.5-5.6l8.5,5.6
	c32.5,21.7,72.3,29.6,110.7,21.9l16.9-3.4v134.5C451.3,424.4,400.3,499.2,322.8,529.6L322.8,529.6z M465.5,367.7
	c20.6,7.9,30.9,31,23,51.6c-5.9,15.4-20.7,25.6-37.2,25.6c-3.2,0-6.5-0.4-9.6-1.2C454.2,420.1,462.3,394.3,465.5,367.7L465.5,367.7z
	 M478.9,338.5c11.7,5,25.3,2.3,34.3-6.7l0.3-0.3l11.3,11.3l-0.3,0.3c-12.3,12.5-12.1,32.5,0.4,44.8c5.9,5.8,13.7,9,22,9.1h0.4v16
	h-0.4c-17.5,0.1-31.6,14.4-31.4,31.9c0.1,8.2,3.3,16.1,9.1,22l0.3,0.3l-11.3,11.3l-0.3-0.3c-12.5-12.3-32.5-12.1-44.8,0.3
	c-5.8,5.9-9.1,13.8-9.1,22v0.4h-16v-0.4c0-12.6-7.6-24-19.3-28.9c3.3-4.4,6.4-9,9.4-13.7c5.8,2,11.8,3,17.9,3
	c30.9-0.1,55.9-25.3,55.8-56.2c-0.1-24.8-16.4-46.6-40.2-53.5c0.2-3.3,0.4-6.7,0.4-10.1v-10.9C470.5,333.8,474.5,336.6,478.9,338.5
	L478.9,338.5z M431.2,194.5c-14.5,2.8-29.4,3.2-44,1.1V154c0-12.8,5.4-25.1,14.8-33.8c7.9,8.2,18.7,12.8,30.1,12.8h3.1v-16h-3.1
	c-9.8,0-18.8-5.6-23.1-14.4c-5.3-10.8-16.4-17.6-28.4-17.6h-25.4c-8.8,0-16-7.2-16-16H399c27.3,0,53.9,8,76.6,23.2l7.7,5.1V185
	c-5.1,3.8-10.4,7.3-16,10.5v-8.2L431.2,194.5z M547.3,197h-48v-96h48V197z"/>
<path class="st0" d="M441.9,151.1c-18,4.4-32.4,17.8-38.2,35.4l15.2,5.1c4.1-12.4,14.2-21.8,26.9-24.9l7.5-1.9l-3.9-15.5
	L441.9,151.1z"/>
<path class="st0" d="M67.3,357h16v16h-16V357z"/>
<path class="st0" d="M99.3,357h16v16h-16V357z"/>
<path class="st0" d="M131.3,357h16v16h-16V357z"/>
<path class="st0" d="M483.3,245h16v16h-16V245z"/>
<path class="st0" d="M515.3,245h16v16h-16V245z"/>
<path class="st0" d="M547.3,245h16v16h-16V245z"/>
</svg>
