<?xml version="1.0" encoding="utf-8"?>
<!-- Generator: Adobe Illustrator 23.0.1, SVG Export Plug-In . SVG Version: 6.00 Build 0)  -->
<svg version="1.1" id="Layer_1" xmlns="http://www.w3.org/2000/svg" xmlns:xlink="http://www.w3.org/1999/xlink" x="0px" y="0px"
	 viewBox="0 0 523.5 500.7" style="enable-background:new 0 0 523.5 500.7;" xml:space="preserve">
<style type="text/css">
	.st0{fill:#138690;stroke:#138690;stroke-miterlimit:10;}
</style>
<title>logo</title>
<path class="st0" d="M127.1,393.1h11.8v11.8h-11.8V393.1z"/>
<path class="st0" d="M150.7,393.1h11.8v11.8h-11.8V393.1z"/>
<path class="st0" d="M174.2,393.1H186v11.8h-11.8V393.1z"/>
<path class="st0" d="M374.4,393.1h47.1v11.8h-47.1V393.1z"/>
<path class="st0" d="M445,369.6V175.3c0-16.3-13.2-29.4-29.4-29.4h-29.4v141.3h-29.4c0-12.2-2.8-24.3-8.1-35.3h25.7V134.1h-94.2
	v70.9c-2-0.1-3.9-0.3-5.9-0.3c-45.5,0-82.4,36.9-82.4,82.4h-29.4V122.3h223.7v11.8h11.8V63.5H150.7v82.4H133
	c-16.3,0-29.4,13.2-29.4,29.4v194.3H91.8V399c0,16.2,13.2,29.4,29.4,29.4h306.1c16.2,0,29.4-13.2,29.4-29.4v-29.4H445z M415.6,157.7
	c9.7,0,17.6,7.9,17.7,17.7v194.3h-11.8V181.2c0-6.5-5.3-11.7-11.8-11.7h-11.8v-11.8H415.6z M292,145.9h70.7v94.2h-20.8
	c-11.9-17-29.7-28.9-49.9-33.4L292,145.9z M274.3,216.5c39,0,70.6,31.6,70.6,70.6c0,14-4.1,27.7-11.9,39.3
	c-0.8-12.3-9.3-22.7-21.1-26.2l-20-5.7v-1.6c7.4-5.5,11.8-14.2,11.8-23.5V259c0-15.8-11.8-29.2-26.8-30.5
	c-16.2-1.4-30.5,10.5-31.9,26.7c-0.1,0.9-0.1,1.7-0.1,2.6v11.7c0,9.2,4.4,17.9,11.8,23.4v1.6l-20,5.7c-11.8,3.4-20.3,13.9-21.1,26.2
	c-21.7-32.4-13-76.3,19.5-97.9C246.6,220.7,260.3,216.5,274.3,216.5z M265.5,284.7c-5.5-3.1-8.9-8.9-8.8-15.2v-11.7
	c0-9.8,7.9-17.7,17.7-17.7c0.5,0,1.1,0,1.6,0.1c9,0.8,16.1,9,16.1,18.8v10.5c0,6.3-3.4,12.1-8.8,15.2l-2.9,1.7v17l28.5,8.2
	c5.4,1.6,9.8,5.7,11.7,11h-92.1c1.9-5.3,6.2-9.4,11.7-11l28.5-8.2v-17L265.5,284.7z M326.8,334.3c-25.8,29-70.3,31.6-99.3,5.7
	c-2-1.8-3.9-3.7-5.7-5.7H326.8z M386.2,75.3v35.3H162.5V75.2L386.2,75.3z M115.4,175.3c0-9.7,7.9-17.6,17.7-17.7h17.7v11.8h-11.8
	c-6.5,0-11.8,5.3-11.8,11.8v188.4h-11.8V175.3z M445,399c0,9.7-7.9,17.6-17.7,17.7H121.3c-9.7,0-17.6-7.9-17.7-17.7v-17.7h121.3
	c8.5,7.5,19.4,11.7,30.8,11.8H293c11.3,0,22.3-4.2,30.8-11.8H398v-11.8h-79l-1.7,1.7c-6.5,6.4-15.2,10-24.3,10h-37.3
	c-9.1,0-17.8-3.6-24.3-10l-1.7-1.7h-90.8V181.2h11.8v117.7h42.1c6.4,45,48,76.3,93,70c36.3-5.1,64.8-33.7,70-70H398V181.2h11.8
	v200.2h35.3L445,399z"/>
<path class="st0" d="M174.2,87H186v11.8h-11.8V87z"/>
<path class="st0" d="M197.8,87h11.8v11.8h-11.8V87z"/>
<path class="st0" d="M221.3,87h11.8v11.8h-11.8V87z"/>
<path class="st0" d="M174.2,134.1H186v11.8h-11.8V134.1z"/>
<path class="st0" d="M197.8,134.1h70.7v11.8h-70.7V134.1z"/>
<path class="st0" d="M174.2,157.7H186v11.8h-11.8V157.7z"/>
<path class="st0" d="M197.8,157.7h70.7v11.8h-70.7V157.7z"/>
<path class="st0" d="M174.2,181.2H186V193h-11.8V181.2z"/>
<path class="st0" d="M197.8,181.2h70.7V193h-70.7V181.2z"/>
</svg>
