<svg id="Layer_1" data-name="Layer 1" xmlns="http://www.w3.org/2000/svg" viewBox="0 0 1920 1080"><defs><style>.cls-1{fill:#138690;stroke:#138690;stroke-miterlimit:10;}</style></defs><title>logo</title><path class="cls-1" d="M1200,322h-53.58l-9.19-6.14A153.6,153.6,0,0,0,1051.78,290H992a16,16,0,0,0-16,16,31.7,31.7,0,0,0,4.45,16H936a23.92,23.92,0,0,0-22.24,32.93,23.86,23.86,0,0,0-11.43,7l-8.09-8.09-11.66,11.65a15.44,15.44,0,0,1-17.13,3.14A15.26,15.26,0,0,1,856,354.44V338H808v16.44a15.69,15.69,0,0,1-26.6,11l-11.64-11.65-34,34,11.64,11.65a15.47,15.47,0,0,1,3.14,17.13A15.27,15.27,0,0,1,736.44,426H720v48h16.44a15.68,15.68,0,0,1,11,26.6l-11.65,11.64,34,34,11.66-11.65a15.67,15.67,0,0,1,26.58,11V562h8v16.21a219,219,0,0,0,4.87,45.48,154.22,154.22,0,0,0-22.1,12.18l-9.2,6.14H736a16,16,0,0,0-16,16v96a16,16,0,0,0,16,16h48a16,16,0,0,0,14.55-9.42A154.65,154.65,0,0,0,883.22,786H952a23.89,23.89,0,0,0,9.3-1.88c1.38.49,2.76,1,4.16,1.46l2.54.85,2.54-.84a218.13,218.13,0,0,0,95.23-63.34,16.7,16.7,0,0,1,4.77,1.15,15.27,15.27,0,0,1,9.46,14.15V754h48V737.56a15.68,15.68,0,0,1,26.59-11l11.65,11.65,34-34-11.64-11.65a15.47,15.47,0,0,1-3.14-17.13,15.27,15.27,0,0,1,14.15-9.46H1216V618h-16.44a15.68,15.68,0,0,1-11-26.6l11.64-11.65-34-34-11.66,11.65a15.43,15.43,0,0,1-17.13,3.14,15.25,15.25,0,0,1-9.45-14.14V530h-8V450.47a154.89,154.89,0,0,0,17.44-9.92A16,16,0,0,0,1152,450h48a16,16,0,0,0,16-16V338a16,16,0,0,0-16-16ZM936,338h97.36a15.53,15.53,0,0,1,12.17,5.94,61.77,61.77,0,0,0-9.25,10.06H936a8,8,0,0,1,0-16Zm49.33,73.94L970.42,402H1024v16H995.49C992,416.13,988.62,414.14,985.33,411.94ZM940.51,418H936a8,8,0,0,1,0-16h29.58l-14.9,9.94c-3.3,2.2-6.7,4.19-10.17,6.06ZM920,370h107.72a61.94,61.94,0,0,0-3.41,16H920a8,8,0,0,1,0-16ZM804.38,516.5a31.29,31.29,0,0,0-34.3,6.73l-.33.34-11.33-11.33.34-.34A31.68,31.68,0,0,0,736.44,458H736V442h.44a31.68,31.68,0,0,0,22.33-53.9l-.34-.34,11.33-11.33.34.34A31.68,31.68,0,0,0,824,354.44V354h16v.44a31.68,31.68,0,0,0,53.9,22.33l.34-.34,1.78,1.78a24,24,0,0,0,17.74,22.86,23.77,23.77,0,0,0,5.46,26,132.37,132.37,0,0,1-33.72,6.46,56,56,0,1,0-69.5,70v21.06a32.13,32.13,0,0,0-11.62-8.18ZM816,424.24v62.29a39.92,39.92,0,1,1,52.3-53A130.18,130.18,0,0,1,852,431.45ZM784,754H736V658h48Zm168,16H883.22A138.48,138.48,0,0,1,800,742V654.28l7.65-5.1A137.62,137.62,0,0,1,884.22,626H928a16,16,0,0,1-16,16H888v16h96a8,8,0,0,1,0,16H888v16h112a8,8,0,0,1,0,16H888v16h96a8,8,0,0,1,0,16H888v16h64a8,8,0,0,1,0,16ZM864,578.21V481.47c4.61.35,9.22.53,13.8.53,30.42,0,58-6.23,82.2-18.43V642H939.55A31.67,31.67,0,0,0,944,626a16,16,0,0,0-16-16H884.22a153.89,153.89,0,0,0-17,1A171.6,171.6,0,0,1,864,578.21ZM1023.9,697a23.93,23.93,0,0,0-17.66-22A23.92,23.92,0,0,0,984,642h-8V463.57c24.22,12.21,51.78,18.43,82.2,18.43,4.58,0,9.19-.18,13.8-.53v96.74A170.08,170.08,0,0,1,1023.9,697Zm-48.36,69.64A24.16,24.16,0,0,0,976,762a23.73,23.73,0,0,0-1.47-8H984a24,24,0,0,0,23.86-22.6A185.91,185.91,0,0,0,1088,578.21V463.52l-9,1.15A165.11,165.11,0,0,1,1058.2,466c-32.63,0-61.56-7.67-86-22.81L968,440.58l-4.21,2.61c-24.43,15.14-53.36,22.81-86,22.81A165.21,165.21,0,0,1,857,464.67l-9-1.15V578.21a188,188,0,0,0,3.41,35.34A152.18,152.18,0,0,0,836,617.82a203.54,203.54,0,0,1-4-39.62V443.76l16.9,3.38a147.44,147.44,0,0,0,110.65-21.9l8.45-5.63,8.45,5.63a147.46,147.46,0,0,0,110.66,21.9l16.9-3.38V578.22A202.19,202.19,0,0,1,975.54,766.59Zm142.7-161.87A39.94,39.94,0,0,1,1104,682a39.85,39.85,0,0,1-9.63-1.19,218.09,218.09,0,0,0,23.86-76.09Zm13.38-29.23a31.25,31.25,0,0,0,34.3-6.72l.34-.34,11.33,11.33-.34.34a31.68,31.68,0,0,0,22.33,53.9h.44v16h-.44a31.68,31.68,0,0,0-22.33,53.9l.34.34-11.33,11.33-.34-.34a31.67,31.67,0,0,0-53.9,22.33V738h-16v-.44a31.29,31.29,0,0,0-19.26-28.87q4.94-6.65,9.38-13.66a55.4,55.4,0,0,0,17.88,3,56,56,0,0,0,15.6-109.73c.15-3.35.4-6.68.4-10.06V567.3A32,32,0,0,0,1131.61,575.49Zm-47.64-144a131.19,131.19,0,0,1-44,1.07V391a46,46,0,0,1,14.83-33.82A41.49,41.49,0,0,0,1084.9,370h3.1V354h-3.1a25.7,25.7,0,0,1-23.14-14.42A31.57,31.57,0,0,0,1033.36,322H1008a16,16,0,0,1-16-16h59.78a137.62,137.62,0,0,1,76.57,23.18l7.65,5.1V422a138.69,138.69,0,0,1-16,10.45v-8.21ZM1200,434h-48V338h48Z"/><path class="cls-1" d="M1094.6,388.11a53.83,53.83,0,0,0-38.19,35.36l15.18,5.06a37.9,37.9,0,0,1,26.9-24.9l7.46-1.86-3.88-15.51Z"/><path class="cls-1" d="M720,594h16v16H720Z"/><path class="cls-1" d="M752,594h16v16H752Z"/><path class="cls-1" d="M784,594h16v16H784Z"/><path class="cls-1" d="M1136,482h16v16h-16Z"/><path class="cls-1" d="M1168,482h16v16h-16Z"/><path class="cls-1" d="M1200,482h16v16h-16Z"/></svg>