<?xml version="1.0" encoding="utf-8"?>
<!-- Generator: Adobe Illustrator 23.0.1, SVG Export Plug-In . SVG Version: 6.00 Build 0)  -->
<svg version="1.1" id="Layer_1" xmlns="http://www.w3.org/2000/svg" xmlns:xlink="http://www.w3.org/1999/xlink" x="0px" y="0px"
	 viewBox="0 0 416 360" style="enable-background:new 0 0 416 360;" xml:space="preserve">
<style type="text/css">
	.st0{fill:#138690;stroke:#138690;stroke-miterlimit:10;}
</style>
<title>logo</title>
<path class="st0" d="M380.5,113.5h-55.9c-6,0-11.2,4.5-11.2,10.5v11.9h-61.5c-6,0-11.2,4.5-11.2,10.5v118.2H44.9
	c-0.3-0.1-0.6-0.4-0.7-0.7v-22.4h185.3V231H44.2V51.3c0-0.2,0.5,0,0.7,0h302.1c0.2,0,0-0.2,0,0v50.4h10.5V51.3
	c0.1-5.7-4.4-10.4-10-10.5c-0.2,0-0.3,0-0.5,0H44.9c-6,0-11.2,4.5-11.2,10.5v212.6c0.1,6.1,5.1,11,11.2,11.2h117.5v34.3H140v10.5
	h111.9v-10.5h-23.1v-34.3h11.9v11.2c0.1,6.1,5.1,11,11.2,11.2H347c6,0,10.5-5.2,10.5-11.2v-39.2h23.1c6,0,10.5-5.2,10.5-11.2V124
	c0.1-5.7-4.4-10.4-10-10.5C380.8,113.5,380.7,113.5,380.5,113.5z M218.3,309.3h-45.4v-34.3h45.5L218.3,309.3z M324.6,124h55.9
	c0.2,0,0-0.2,0,0v11.9h-56.6V124C323.9,123.8,324.4,124,324.6,124z M323.9,146.4h56.6v67.8h-56.6V146.4z M346.9,287h-95.1
	c-0.3-0.1-0.6-0.4-0.7-0.7v-11.2h95.8v11.2C346.9,286.5,347.1,287,346.9,287L346.9,287z M346.9,264.6h-95.8V146.4c0-0.2,0.5,0,0.7,0
	h61.5v89.5c0.1,6.1,5.1,11,11.2,11.2h22.4L346.9,264.6z M380.5,236.6h-55.9c-0.3-0.1-0.6-0.4-0.7-0.7v-11.2h56.6v11.2
	C380.5,236.1,380.7,236.6,380.5,236.6L380.5,236.6z"/>
<path class="st0" d="M167.9,208.6h11.2v10.5h-11.2V208.6z"/>
<path class="st0" d="M190.3,208.6h11.2v10.5h-11.2V208.6z"/>
<path class="st0" d="M212.7,208.6h11.2v10.5h-11.2V208.6z"/>
<path class="st0" d="M66.5,90.5V73.7H84V63.2H56v27.3H66.5z"/>
<path class="st0" d="M257.4,174.4h10.5v-11.2h11.9v-10.5h-22.4V174.4z"/>
<path class="st0" d="M330.2,152.7v21.7h10.5v-11.2h11.9v-10.5H330.2z"/>
</svg>
