<svg id="Layer_1" data-name="Layer 1" xmlns="http://www.w3.org/2000/svg" viewBox="0 0 514 520"><defs><style>.cls-1{fill:#138690;}</style></defs><title>logo</title><path class="cls-1" d="M490,24H26a8,8,0,0,0-8,8h0V192H34V40H482V216H202v16H490a8,8,0,0,0,8-8h0V32A8,8,0,0,0,490,24Z"/><rect class="cls-1" x="282" y="64" width="160" height="16"/><rect class="cls-1" x="306" y="112" width="160" height="16"/><rect class="cls-1" x="274" y="160" width="160" height="16"/><path class="cls-1" d="M273.36,93a25.82,25.82,0,0,0-33.75-13.92l-.67.29L174.07,113A39.56,39.56,0,0,0,178,96a40,40,0,1,0-71.79,24h-.33a54.9,54.9,0,0,0-51,35.52L33.52,229.13a25.62,25.62,0,1,0,48.11,17.63L90,220.13V335.91a39.88,39.88,0,0,0-51.91,60.36A36.86,36.86,0,0,0,18,429v67a8,8,0,0,0,8,8h80a8,8,0,0,0,8-8h0V429a36.77,36.77,0,0,0-14.28-29h60.55A36.76,36.76,0,0,0,146,429v67a8,8,0,0,0,8,8h80a8,8,0,0,0,8-8h0V429a36.86,36.86,0,0,0-20.09-32.69A40,40,0,0,0,186,328.51V164.86l73.44-38.13A25.82,25.82,0,0,0,273.36,93ZM138,72a24,24,0,1,1-24,24A24,24,0,0,1,138,72ZM66,343.7a24,24,0,1,1-24,24A24,24,0,0,1,66,343.7ZM98,488H34V429a21,21,0,0,1,21-21H77a21,21,0,0,1,21,21Zm128-59v59H162V429a21,21,0,0,1,21-21H205A21,21,0,0,1,226,429ZM194,343.7a24,24,0,1,1-24,24A24,24,0,0,1,194,343.7Zm64.72-237.38a10.29,10.29,0,0,1-6,5.92L174.32,152.9A8,8,0,0,0,170,160V335.91A39.46,39.46,0,0,0,157.55,384H146V248H130V384H102.45A39.63,39.63,0,0,0,106,368h0V168a8,8,0,0,0-15.63-2.4l-23.89,76a9.62,9.62,0,0,1-13.34,5.32,9.82,9.82,0,0,1-4.47-12.7L70,160.63A38.65,38.65,0,0,1,105.87,136h56.64a8,8,0,0,0,3.68-.9l79.51-41.27a9.85,9.85,0,0,1,12.59,4.66A9.73,9.73,0,0,1,258.72,106.32Z"/><path class="cls-1" d="M349.91,396.27a40,40,0,1,0-56.56-.74l.74.74A36.86,36.86,0,0,0,274,429v67a8,8,0,0,0,8,8h80a8,8,0,0,0,8-8h0V429A36.86,36.86,0,0,0,349.91,396.27ZM322,343.7a24,24,0,1,1-24,24A24,24,0,0,1,322,343.7ZM354,488H290V429a21,21,0,0,1,21-21H333a21,21,0,0,1,21,21Z"/><path class="cls-1" d="M477.91,396.27a40,40,0,1,0-56.56-.74l.74.74A36.86,36.86,0,0,0,402,429v67a8,8,0,0,0,8,8h80a8,8,0,0,0,8-8h0V429A36.86,36.86,0,0,0,477.91,396.27ZM450,343.7a24,24,0,1,1-24,24A24,24,0,0,1,450,343.7ZM482,488H418V429a21,21,0,0,1,21-21H461a21,21,0,0,1,21,21Z"/></svg>