<svg width="70" height="70" viewBox="0 0 70 70" fill="none" xmlns="http://www.w3.org/2000/svg">
<g clip-path="url(#clip0)">
<path d="M44.8182 23H35C34.6985 23 34.4546 23.244 34.4546 23.5455V26.889C34.2777 26.8421 34.0945 26.8182 33.9091 26.8182C32.7063 26.8182 31.7272 27.7967 31.7272 29C31.7272 30.2034 32.7063 31.1818 33.9091 31.1818C34.0945 31.1818 34.2777 31.1578 34.4546 31.111V34.4546H30.2113C29.9961 34.4546 29.8001 34.5819 29.7127 34.779C29.6254 34.976 29.6616 35.2062 29.8065 35.366C29.9897 35.5684 30.0909 35.8262 30.0909 36.0909C30.0909 36.6923 29.6019 37.1818 29 37.1818C28.3981 37.1818 27.9091 36.6923 27.9091 36.0909C27.9091 35.8262 28.0103 35.5684 28.1936 35.366C28.3384 35.2062 28.3747 34.976 28.2873 34.779C28.2 34.5819 28.0039 34.4546 27.7887 34.4546H23.5455C23.244 34.4546 23 34.6985 23 35V44.8182C23 46.0215 23.9791 47.0001 25.1818 47.0001H44.8182C46.021 47.0001 47.0001 46.0216 47.0001 44.8182V25.1818C47 23.9785 46.021 23 44.8182 23ZM34.7784 41.1678C34.5813 41.2557 34.4546 41.4512 34.4546 41.6664V45.9091H25.1818C24.5799 45.9091 24.0909 45.4196 24.0909 44.8182V35.5454H26.8885C26.8427 35.7223 26.8182 35.9055 26.8182 36.0909C26.8182 37.2942 27.7973 38.2728 29 38.2728C30.2028 38.2728 31.1818 37.2942 31.1818 36.0909C31.1818 35.9055 31.1573 35.7223 31.1115 35.5454H34.4546V39.2427C34.4546 39.4579 34.5813 39.6534 34.7784 39.7413C34.9766 39.8286 35.2056 39.7924 35.3654 39.6481C35.5689 39.4648 35.8267 39.3636 36.0909 39.3636C36.6928 39.3636 37.1818 39.8532 37.1818 40.4545C37.1818 41.0559 36.6928 41.5454 36.0909 41.5454C35.8267 41.5454 35.5689 41.4442 35.3654 41.261C35.2056 41.1167 34.9755 41.081 34.7784 41.1678ZM45.9091 44.8182C45.9091 45.4196 45.4201 45.9091 44.8182 45.9091H35.5454V42.5656C35.7223 42.6124 35.9055 42.6364 36.0909 42.6364C37.2937 42.6364 38.2728 41.6579 38.2728 40.4545C38.2728 39.2512 37.2937 38.2728 36.0909 38.2728C35.9055 38.2728 35.7223 38.2967 35.5454 38.3436V35.5454H39.434C39.3881 35.7223 39.3636 35.9055 39.3636 36.0909C39.3636 37.2942 40.3427 38.2728 41.5455 38.2728C42.7483 38.2728 43.7273 37.2943 43.7273 36.0909C43.7273 35.9055 43.7028 35.7223 43.657 35.5454H45.9091V44.8182ZM45.9091 34.4546H42.7568C42.5416 34.4546 42.3455 34.5819 42.2582 34.779C42.1708 34.976 42.207 35.2062 42.3519 35.366C42.5351 35.5684 42.6364 35.8262 42.6364 36.0909C42.6364 36.6923 42.1474 37.1818 41.5455 37.1818C40.9436 37.1818 40.4546 36.6923 40.4546 36.0909C40.4546 35.8262 40.5558 35.5684 40.7391 35.366C40.8839 35.2062 40.9202 34.976 40.8328 34.779C40.7455 34.5819 40.5494 34.4546 40.3342 34.4546H35.5455V30.2118C35.5455 29.9966 35.4187 29.8011 35.2217 29.7132C35.0235 29.6275 34.7955 29.6626 34.6347 29.8065C34.4312 29.9897 34.1734 30.0909 33.9091 30.0909C33.3072 30.0909 32.8182 29.6014 32.8182 29C32.8182 28.3986 33.3072 27.9091 33.9091 27.9091C34.1733 27.9091 34.4311 28.0103 34.6346 28.1936C34.7944 28.3379 35.0234 28.3736 35.2216 28.2868C35.4187 28.1989 35.5454 28.0034 35.5454 27.7882V24.0909H44.8182C45.4201 24.0909 45.9091 24.5804 45.9091 25.1818V34.4546H45.9091Z" fill="white"/>
</g>
<circle cx="35" cy="35" r="34.5" stroke="white"/>
<defs>
<clipPath id="clip0">
<rect x="23" y="23" width="24" height="24" fill="white"/>
</clipPath>
</defs>
</svg>
