<svg id="Layer_1" data-name="Layer 1" xmlns="http://www.w3.org/2000/svg" viewBox="0 0 1920 1080"><defs><style>.cls-1{fill:#138690;stroke:#138690;stroke-miterlimit:10;}</style></defs><title>logo</title><path class="cls-1" d="M1174.83,520.72h-55.94c-6,0-11.19,4.51-11.19,10.49V543.1h-61.53c-6,0-11.19,4.51-11.19,10.49V671.76H839.19a1.24,1.24,0,0,1-.7-.7V648.68h185.3V638.19H838.49V458.49c0-.19.5,0,.7,0h302.07c.19,0,0-.19,0,0v50.35h10.49V458.49A10.26,10.26,0,0,0,1141.26,448H839.19c-6,0-11.19,4.51-11.19,10.49V671.06a11.46,11.46,0,0,0,11.19,11.19H956.66v34.26H934.29V727h111.88V716.51h-23.07V682.25H1035v11.19a11.46,11.46,0,0,0,11.19,11.19h95.1c6,0,10.49-5.21,10.49-11.19V654.28h23.07c6,0,10.49-5.21,10.49-11.19V531.21A10.26,10.26,0,0,0,1174.83,520.72ZM1012.6,716.51H967.15V682.25h45.45Zm106.29-185.3h55.94c.19,0,0-.19,0,0V543.1h-56.64V531.21C1118.19,531,1118.69,531.21,1118.89,531.21Zm-.7,22.38h56.64v67.83h-56.64Zm23.07,140.55h-95.1a1.25,1.25,0,0,1-.7-.7V682.25h95.8v11.19C1141.26,693.63,1141.46,694.13,1141.26,694.13Zm0-22.38h-95.8V553.59c0-.19.51,0,.7,0h61.53v89.5a11.46,11.46,0,0,0,11.19,11.19h22.38Zm33.56-28h-55.94a1.25,1.25,0,0,1-.7-.7V631.9h56.64v11.19C1174.83,643.28,1175,643.79,1174.83,643.79Z"/><path class="cls-1" d="M962.25,615.82h11.19v10.49H962.25Z"/><path class="cls-1" d="M984.63,615.82h11.19v10.49H984.63Z"/><path class="cls-1" d="M1007,615.82h11.19v10.49H1007Z"/><path class="cls-1" d="M860.87,497.65V480.87h17.48V470.38h-28v27.27Z"/><path class="cls-1" d="M1051.76,581.56h10.49V570.37h11.89V559.88h-22.38Z"/><path class="cls-1" d="M1124.48,559.88v21.68H1135V570.37h11.89V559.88Z"/></svg>