<svg id="Layer_5" enable-background="new 0 0 64 64" height="512" viewBox="0 0 64 64" width="512" xmlns="http://www.w3.org/2000/svg"><path d="m36 2h-32c-1.1 0-2 .9-2 2v16c0 1.1.9 2 2 2h32c1.1 0 2-.9 2-2v-16c0-1.1-.9-2-2-2z" fill="#ffeaa7"/><path d="m27 58v4h-20v-4h2 16z" fill="#b4dd7f"/><path d="m24 36c0-1.1.9-2 2-2 .55 0 1.05.22 1.41.59.37.36.59.86.59 1.41v13c0 1.3-.42 2.56-1.2 3.6l-1.8 2.4v3h-16v-3l-3.4-7c-.4-.69-.65-1.45-.75-2.23l-.69-5.54c-.11-.84-.4-1.64-.87-2.34l-1.03-1.55c-.17-.25-.26-.54-.26-.85 0-.84.69-1.53 1.54-1.53 1.3 0 2.5.46 3.45 1.23.95.78 1.63 1.87 1.88 3.14.54 2.69 1.13 5.63 1.13 5.63h1l.58-1.16c.28-.55.42-1.17.42-1.79v-19.01-1c0-1.1.9-2 2-2 .55 0 1.05.22 1.41.59.37.36.59.86.59 1.41v1 12c0-1.1.9-2 2-2 .55 0 1.05.22 1.41.59.37.36.59.86.59 1.41 0-1.1.9-2 2-2 .55 0 1.05.22 1.41.59.37.36.59.86.59 1.41z" fill="#f0d0b4"/><path d="m62 44v4.15c0 1.05-.8 1.91-1.84 2l-21.72 1.72-1.07-7.87h2.63 4 4 4 4 4z" fill="#ff826e"/><g fill="#fcd770"><path d="m48 26h4v18h-4z"/><path d="m56 22h4v22h-4z"/><path d="m40 30h4v14h-4z"/></g><circle cx="59" cy="59" fill="#aab2bd" r="3"/><circle cx="39" cy="59" fill="#aab2bd" r="3"/><path d="m36.24 35.73.31 2.27h-6.55c-.55 0-1.05-.22-1.41-.59-.37-.36-.59-.86-.59-1.41 0-1.1.9-2 2-2h4.25c1 0 1.85.74 1.99 1.73z" fill="#ccd1d9"/><path d="m11.643 12c.832-.733 1.357-1.807 1.357-3 0-2.206-1.794-4-4-4h-4v14h4c2.206 0 4-1.794 4-4 0-1.193-.525-2.267-1.357-3zm-2.643 5h-2v-4h2c1.103 0 2 .897 2 2s-.897 2-2 2zm0-6h-2v-4h2c1.103 0 2 .897 2 2s-.897 2-2 2z"/><path d="m19 19c2.206 0 4-1.794 4-4v-10h-2v10c0 1.103-.897 2-2 2s-2-.897-2-2v-10h-2v10c0 2.206 1.794 4 4 4z"/><path d="m29 19h2v-5.764l3.895-7.789-1.79-.894-3.105 6.211-3.105-6.211-1.79.894 3.895 7.789z"/><path d="m63 48.152v-5.152h-2v-22h-6v22h-2v-18h-6v18h-2v-14h-6v14h-.763l-1.01-7.406c-.203-1.479-1.481-2.594-2.973-2.594h-4.254c-.771 0-1.468.301-2 .78-.532-.48-1.229-.78-2-.78-.395 0-.77.081-1.116.22-.345-1.275-1.501-2.22-2.884-2.22-.771 0-1.468.301-2 .78-.532-.48-1.229-.78-2-.78-.352 0-.686.072-1 .184v-8.184h19c1.654 0 3-1.346 3-3v-16c0-1.654-1.346-3-3-3h-32c-1.654 0-3 1.346-3 3v16c0 1.654 1.346 3 3 3h7v18.014c0 .455-.105.911-.306 1.319l-.839-4.195c-.602-3.001-3.259-5.18-6.32-5.18-1.397 0-2.535 1.137-2.535 2.535 0 .502.147.988.426 1.406l1.029 1.543c.381.572.627 1.234.712 1.916l.692 5.533c.114.922.406 1.798.837 2.546l3.304 6.793v1.77h-2v6h22v-6h-2v-1.667l1.6-2.133c.903-1.204 1.4-2.695 1.4-4.2v-10.184c.314.112.648.184 1 .184h5.673l2.206 16.18c-1.658.488-2.879 2.006-2.879 3.82 0 2.206 1.794 4 4 4s4-1.794 4-4c0-.732-.212-1.409-.556-2h13.113c-.345.591-.557 1.268-.557 2 0 2.206 1.794 4 4 4s4-1.794 4-4-1.794-4-4-4h-19.127l-.303-2.222 20.667-1.635c1.549-.123 2.763-1.436 2.763-2.991zm-59-27.152c-.552 0-1-.449-1-1v-16c0-.551.448-1 1-1h32c.552 0 1 .449 1 1v16c0 .551-.448 1-1 1h-19c0-1.654-1.346-3-3-3s-3 1.346-3 3zm22 40h-18v-2h18zm1-12c0 1.075-.355 2.141-1 3l-2 2.667v2.333h-14v-2.23l-3.536-7.266c-.33-.576-.538-1.202-.62-1.86l-.693-5.534c-.123-.987-.479-1.948-1.032-2.777l-1.029-1.543c-.059-.088-.09-.191-.09-.297 0-.295.24-.535.535-.535 2.111 0 3.944 1.502 4.359 3.573l1.286 6.427h2.438l.854-1.708c.345-.691.528-1.465.528-2.236v-20.014c0-.551.448-1 1-1s1 .449 1 1v13 4h2v-4c0-.551.448-1 1-1s1 .449 1 1v4h2v-4c0-.551.448-1 1-1s1 .449 1 1v2 2h2v-2c0-.551.448-1 1-1s1 .449 1 1zm3-12c-.552 0-1-.449-1-1s.448-1 1-1h4.254c.498 0 .924.372.991.865l.155 1.135zm27-14h2v20h-2zm-8 4h2v16h-2zm-8 4h2v12h-2zm0 28c0 1.103-.897 2-2 2s-2-.897-2-2 .897-2 2-2 2 .897 2 2zm20 0c0 1.103-.897 2-2 2s-2-.897-2-2 .897-2 2-2 2 .897 2 2zm-21.701-8.207-.789-5.793h22.49v3.152c0 .518-.404.956-.921.997z"/></svg>