<svg id="Layer_35" enable-background="new 0 0 64 64" height="512" viewBox="0 0 64 64" width="512" xmlns="http://www.w3.org/2000/svg"><path d="m16.48 53.07-4.48 4.93-4.48-4.93c1.35-.69 2.87-1.07 4.48-1.07s3.13.38 4.48 1.07z" fill="#e6e9ed"/><path d="m22 62h-20c0-2.76 1.12-5.26 2.93-7.07.75-.75 1.63-1.39 2.59-1.86l4.48 4.93 4.48-4.93c3.27 1.63 5.52 5.02 5.52 8.93z" fill="#ff826e"/><path d="m36.48 46.07c3.27 1.63 5.52 5.02 5.52 8.93h-20c0-2.76 1.12-5.26 2.93-7.07.75-.75 1.63-1.39 2.59-1.86l4.48 4.93z" fill="#ffeaa7"/><path d="m36.48 46.07-4.48 4.93-4.48-4.93c1.35-.69 2.87-1.07 4.48-1.07s3.13.38 4.48 1.07z" fill="#fcd770"/><path d="m62 62h-20c0-2.76 1.12-5.26 2.93-7.07.75-.75 1.63-1.39 2.59-1.86l4.48 4.93 4.48-4.93c3.27 1.63 5.52 5.02 5.52 8.93z" fill="#b4dd7f"/><path d="m56.48 53.07-4.48 4.93-4.48-4.93c1.35-.69 2.87-1.07 4.48-1.07s3.13.38 4.48 1.07z" fill="#ccd1d9"/><g fill="#f0d0b4"><circle cx="52" cy="47" r="5"/><path d="m32 35c1.63 0 3.09.79 4 2 .63.83 1 1.87 1 3 0 .08 0 .16-.01.23-.12 2.65-2.31 4.77-4.99 4.77-2.76 0-5-2.24-5-5 0-.39.05-.78.13-1.15.32.1.65.15.99.15h.42c.96 0 1.82-.39 2.45-1.01.62-.63 1.01-1.49 1.01-2.45 0-.18-.01-.36-.05-.53z"/><circle cx="12" cy="47" r="5"/></g><path d="m21 11-2 2-9 9-1 1-7-7 12-12z" fill="#b4dd7f"/><path d="m51.12 33.88c.57.57.88 1.32.88 2.12s-.31 1.55-.88 2.12c-.7.7-1.68 1.01-2.68.83-.63-.11-1.19-.46-1.64-.91l-4.8-4.8v-9.99c.56.5 1.08 1.04 1.56 1.61z" fill="#f0d0b4"/><path d="m30.99 37.99c-.63.62-1.49 1.01-2.45 1.01h-.42c-.34 0-.67-.05-.99-.15-.37-.1-.72-.28-1.04-.51l-8.97-6.53c-.75-.54-1.45-1.14-2.1-1.79-1.34-1.34-2.45-2.88-3.3-4.58l-1.72-3.44 9-9 6.67.74c1.53.17 3.01.69 4.3 1.53l9.98 6.41c.73.47 1.41.99 2.05 1.57v9.99 4.76c0 1.66-1.34 3-3 3-.77 0-1.48-.29-2.01-.77.01-.07.01-.15.01-.23 0-1.13-.37-2.17-1-3v-5.23c0-1.73-.86-3.35-2.3-4.3-.46-.31-.97-.54-1.51-.69l-10.19-2.78v1l8.85 7.97c.6.54.98 1.26 1.1 2.04.04.17.05.35.05.53 0 .96-.39 1.82-1.01 2.45z" fill="#f0d0b4"/><circle cx="54" cy="17" fill="#fcd770" r="2"/><path d="m55.754 51.674c1.367-1.101 2.246-2.786 2.246-4.674 0-3.309-2.691-6-6-6s-6 2.691-6 6c0 1.888.879 3.573 2.246 4.674-2.134.778-3.961 2.193-5.246 4.022v-.696c0-4.746-3.027-8.787-7.246-10.326.919-.739 1.618-1.741 1.976-2.893.407.136.833.219 1.27.219 2.206 0 4-1.794 4-4v-2.344l3.094 3.094c.631.632 1.381 1.042 2.167 1.183.251.045.501.068.749.068 1.057 0 2.056-.409 2.819-1.172.754-.756 1.171-1.76 1.171-2.829s-.417-2.073-1.113-2.764l-7.559-9.015c-1.101-1.313-2.391-2.45-3.834-3.378l-9.981-6.417c-1.42-.913-3.057-1.494-4.733-1.679l-4.602-.511 1.236-1.236-8.414-8.414-13.414 13.414 8.414 8.414.726-.726 1.101 2.201c.897 1.794 2.071 3.422 3.489 4.84.685.685 1.43 1.322 2.214 1.893l8.972 6.525c.169.123.347.228.528.325-.015.175-.03.351-.03.528 0 1.888.879 3.573 2.246 4.674-4.219 1.539-7.246 5.58-7.246 10.326v.695c-1.285-1.829-3.112-3.243-5.246-4.022 1.367-1.1 2.246-2.785 2.246-4.673 0-3.309-2.691-6-6-6s-6 2.691-6 6c0 1.888.879 3.573 2.246 4.674-4.219 1.539-7.246 5.58-7.246 10.326v1h22v-1c0-2.214-.663-4.273-1.792-6h21.585c-1.13 1.727-1.793 3.786-1.793 6v1h22v-1c0-4.746-3.027-8.787-7.246-10.326zm-47.754-4.674c0-2.206 1.794-4 4-4s4 1.794 4 4-1.794 4-4 4-4-1.794-4-4zm6.785 6.45-2.785 3.063-2.785-3.063c.879-.287 1.812-.45 2.785-.45s1.906.163 2.785.45zm-11.73 7.55c.314-2.824 1.94-5.256 4.252-6.675l4.693 5.162 4.692-5.162c2.312 1.419 3.939 3.851 4.252 6.675zm29.663-26.953c-.246-.689-.64-1.322-1.194-1.821l-7.321-6.589 7.725 2.107c.433.118.842.304 1.216.553 1.162.776 1.856 2.073 1.856 3.47v3.045c-.687-.399-1.458-.666-2.282-.765zm17.696.539c.378.378.586.88.586 1.414s-.208 1.036-.586 1.414c-.471.472-1.124.67-1.798.551-.483-.087-.869-.39-1.107-.629l-4.509-4.508v-7.079zm-47-18.586 10.586-10.586 5.586 5.586-10.586 10.586zm14.293 15.005c-.7-.51-1.366-1.078-1.977-1.689-1.266-1.266-2.313-2.719-3.114-4.321l-1.399-2.797 8.151-8.151 6.192.689c1.372.152 2.711.627 3.873 1.374l9.981 6.417c.557.358 1.084.758 1.587 1.185v14.288c0 1.103-.897 2-2 2-.361 0-.709-.099-1.014-.279-.052-1.116-.404-2.154-.986-3.031v-4.924c0-2.067-1.027-3.986-2.747-5.133-.554-.369-1.159-.645-1.799-.819l-10.19-2.779c-.301-.081-.622-.019-.87.17-.249.19-.395.483-.395.795v1c0 .284.12.554.331.743l8.855 7.969c.517.466.814 1.132.814 1.829 0 1.355-1.104 2.459-2.459 2.459h-.416c-.523 0-1.023-.163-1.446-.47zm10.293 8.995c0-.003.001-.006.001-.01.042.001.082.01.124.01h.416c2.259 0 4.111-1.695 4.401-3.876 1.75.426 3.058 1.996 3.058 3.876 0 2.206-1.794 4-4 4s-4-1.794-4-4zm6.785 6.45-2.785 3.063-2.785-3.063c.879-.287 1.812-.45 2.785-.45s1.906.163 2.785.45zm-11.73 7.55c.314-2.824 1.94-5.256 4.252-6.675l4.693 5.162 4.692-5.162c2.312 1.419 3.939 3.851 4.252 6.675zm24.945-7c0-2.206 1.794-4 4-4s4 1.794 4 4-1.794 4-4 4-4-1.794-4-4zm6.785 6.45-2.785 3.063-2.785-3.063c.879-.287 1.812-.45 2.785-.45s1.906.163 2.785.45zm-11.73 7.55c.314-2.824 1.94-5.256 4.252-6.675l4.693 5.162 4.692-5.162c2.312 1.419 3.939 3.851 4.252 6.675z"/><path d="m62.707 2.707-1.414-1.414-7.293 7.293-1.293-1.293-1.414 1.414 2.707 2.707z"/><path d="m54 20c1.654 0 3-1.346 3-3s-1.346-3-3-3-3 1.346-3 3 1.346 3 3 3zm0-4c.551 0 1 .449 1 1s-.449 1-1 1-1-.449-1-1 .449-1 1-1z"/><path d="m37 8h12v2h-12z"/><path d="m37 16h8v2h-8z"/><path d="m47 16h2v2h-2z"/><path d="m37 12h12v2h-12z"/></svg>