<svg height="480pt" viewBox="0 0 480 480" width="480pt" xmlns="http://www.w3.org/2000/svg"><path d="m384 400v16h-320v-416h320zm0 0" fill="#1f80aa"/><path d="m352 192v-192h-288v416h288zm0 0" fill="#29abe2"/><path d="m352 432v16h-320v-416h320zm0 0" fill="#911d22"/><path d="m320 224v-192h-288v416h288zm0 0" fill="#c1272d"/><path d="m320 464v16h-320v-416h320zm0 0" fill="#2b8838"/><path d="m288 256v-192h-288v416h288zm0 0" fill="#39b54a"/><path d="m184 304h120v144h-120zm0 0" fill="#fdf14d"/><path d="m184 304h88v144h-88zm0 0" fill="#fdf57a"/><path d="m480 360c0 61.855469-50.144531 112-112 112s-112-50.144531-112-112 50.144531-112 112-112 112 50.144531 112 112zm0 0" fill="#a67c52"/><path d="m448 360c0-61.152344-42.980469-110.726562-96-110.726562s-96 49.574218-96 110.726562 42.980469 110.726562 96 110.726562 96-49.574218 96-110.726562zm0 0" fill="#c69c6d"/><path d="m32 136c0 22.089844 17.910156 40 40 40s40-17.910156 40-40-17.910156-40-40-40v40zm0 0" fill="#f7931e"/><path d="m60 173.96875c16.183594-5.121094 28-20.082031 28-37.96875 0-13.039062-6.335938-24.519531-16-31.816406v31.816406h-40c0 17.878906 11.816406 32.839844 28 37.96875zm0 0" fill="#fbb03b"/><path d="m32 304h120v144h-120zm0 0" fill="#911d22"/><path d="m32 304h88v144h-88zm0 0" fill="#c1272d"/><path d="m32 224h120v48h-120zm0 0" fill="#8c6239"/><path d="m32 224h88v48h-88zm0 0" fill="#a67c52"/><g fill="#666"><path d="m152 96h128v16h-128zm0 0"/><path d="m152 128h128v16h-128zm0 0"/><path d="m152 160h128v16h-128zm0 0"/></g><path d="m456 360h-16c0-39.703125-32.296875-72-72-72s-72 32.296875-72 72h-16c0-48.519531 39.480469-88 88-88s88 39.480469 88 88zm0 0" fill="#603813"/><path d="m325.65625 421.65625-11.3125-11.3125 45.65625-45.65625v-44.6875h16v48c0 2.128906-.839844 4.160156-2.34375 5.65625zm0 0" fill="#754c24"/><path d="m192 216h88v16h-88zm0 0" fill="#666"/><path d="m192 248h88v16h-88zm0 0" fill="#666"/></svg>