<svg height="496pt" viewBox="0 0 496 496" width="496pt" xmlns="http://www.w3.org/2000/svg"><g fill="#f0bc5e"><path d="m368 290.265625v-106.265625h-48v82.640625c18 3.933594 34.382812 12.175781 48 23.625zm0 0"/><path d="m296 264c2.703125 0 5.34375.214844 8 .398438v-40.398438h-48v47.488281c12.441406-4.769531 25.886719-7.488281 40-7.488281zm0 0"/><path d="m407.648438 384h24.351562v-240h-48v162.863281c14.984375 19.046875 24 43.015625 24 69.136719 0 2.695312-.160156 5.351562-.351562 8zm0 0"/><path d="m448 80h48v304h-48zm0 0"/><path d="m184 376c0-39.625 20.632812-74.359375 51.6875-94.273438-2.023438-7.214843-4.703125-14.191406-8.0625-20.765624l12.648438-17.714844-43.511719-43.511719-17.714844 12.648437c-5.335937-2.734374-10.910156-5.039062-16.679687-6.886718l-3.582032-21.496094h-61.5625l-3.574218 21.496094c-5.769532 1.847656-11.34375 4.160156-16.679688 6.886718l-17.710938-12.648437-43.515624 43.511719 12.648437 17.714844c-2.734375 5.335937-5.039063 10.910156-6.886719 16.679687l-21.503906 3.574219v61.5625l21.496094 3.574218c1.847656 5.769532 4.160156 11.34375 6.886718 16.679688l-12.648437 17.710938 43.511719 43.515624 17.714844-12.648437c5.335937 2.734375 10.910156 5.039063 16.679687 6.886719l3.574219 21.503906h61.5625l3.574218-21.496094c5.769532-1.847656 11.34375-4.160156 16.671876-6.886718l5.222656 3.742187 4.65625-6.511719c-3.167969-10.390625-4.902344-21.414062-4.902344-32.847656zm-56-24c-22.089844 0-40-17.910156-40-40s17.910156-40 40-40 40 17.910156 40 40-17.910156 40-40 40zm0 0"/></g><path d="m168.015625 285.542969-13.34375 8.832031c3.488281 5.273438 5.328125 11.359375 5.328125 17.625 0 17.648438-14.351562 32-32 32-6.265625 0-12.351562-1.839844-17.617188-5.328125l-8.832031 13.34375c7.890625 5.222656 17.035157 7.984375 26.449219 7.984375 26.472656 0 48-21.527344 48-48 0-9.414062-2.761719-18.558594-7.984375-26.457031zm0 0"/><path d="m128 280c6.265625 0 12.359375 1.839844 17.609375 5.320312l8.839844-13.335937c-7.882813-5.222656-17.023438-7.984375-26.449219-7.984375-26.472656 0-48 21.527344-48 48 0 9.414062 2.761719 18.558594 7.984375 26.457031l13.34375-8.832031c-3.488281-5.273438-5.328125-11.359375-5.328125-17.625 0-17.648438 14.351562-32 32-32zm0 0"/><path d="m296 256c-35.617188 0-67.558594 15.679688-89.550781 40.398438-7.28125-36.671876-39.679688-64.398438-78.449219-64.398438-44.113281 0-80 35.886719-80 80s35.886719 80 80 80c17.472656 0 34.28125-5.910156 48.007812-16.214844 0 .070313-.007812.144532-.007812.214844 0 66.167969 53.832031 120 120 120s120-53.832031 120-120-53.832031-120-120-120zm-168 120c-35.289062 0-64-28.710938-64-64s28.710938-64 64-64 64 28.710938 64 64c0 1.59375-.089844 3.152344-.199219 4.710938-6.023437 10.554687-10.535156 22.058593-13.144531 34.289062-12.082031 15.65625-30.871094 25-50.65625 25zm168 104c-57.34375 0-104-46.65625-104-104s46.65625-104 104-104 104 46.65625 104 104-46.65625 104-104 104zm0 0"/><path d="m288 336v48h32v-16h-16v-32zm0 0"/><path d="m296 288c-20.246094 0-40.023438 7.054688-55.6875 19.871094l10.144531 12.386718c10.726563-8.785156 23.839844-14.210937 37.542969-15.753906v15.496094h16v-15.527344c33.320312 3.703125 59.824219 30.214844 63.527344 63.527344h-15.527344v16h15.496094c-1.542969 13.710938-6.96875 26.816406-15.753906 37.550781l12.378906 10.136719c12.816406-15.664062 19.878906-35.441406 19.878906-55.6875 0-48.519531-39.480469-88-88-88zm0 0"/><path d="m304 447.496094v-15.496094h-16v15.527344c-33.320312-3.703125-59.824219-30.214844-63.527344-63.527344h15.527344v-16h-15.496094c1.542969-13.710938 6.96875-26.816406 15.753906-37.550781l-12.378906-10.136719c-12.816406 15.664062-19.878906 35.441406-19.878906 55.6875 0 48.519531 39.480469 88 88 88 20.246094 0 40.023438-7.054688 55.6875-19.871094l-10.144531-12.386718c-10.726563 8.785156-23.832031 14.210937-37.542969 15.753906zm0 0"/><path d="m448 0v16h17.191406l-56.597656 45.28125-24.59375-24.59375-37.71875 37.71875c-3.128906-1.503906-6.585938-2.40625-10.28125-2.40625-13.230469 0-24 10.769531-24 24 0 4.136719 1.152344 7.976562 3 11.375l-41.816406 46.464844c-2.832032-1.175782-5.925782-1.839844-9.183594-1.839844-.152344 0-.289062.039062-.441406.046875l-32.167969-85.789063c5.21875-4.402343 8.609375-10.90625 8.609375-18.257812 0-13.230469-10.769531-24-24-24s-24 10.769531-24 24c0 1.726562.199219 3.40625.550781 5.039062l-65.582031 40.351563c-4.113281-3.320313-9.28125-5.390625-14.96875-5.390625-10.414062 0-19.214844 6.710938-22.527344 16h-42.945312c-3.3125-9.289062-12.113282-16-22.527344-16-13.230469 0-24 10.769531-24 24s10.769531 24 24 24c10.414062 0 19.214844-6.710938 22.527344-16h42.953125c3.3125 9.289062 12.113281 16 22.527343 16 13.230469 0 24-10.769531 24-24 0-1.726562-.199218-3.40625-.550781-5.039062l65.582031-40.351563c4.105469 3.320313 9.273438 5.390625 14.960938 5.390625.152344 0 .289062-.039062.441406-.046875l32.167969 85.78125c-5.21875 4.410156-8.609375 10.914063-8.609375 18.265625 0 13.230469 10.769531 24 24 24s24-10.769531 24-24c0-4.136719-1.144531-7.976562-3-11.375l41.816406-46.464844c2.832032 1.175782 5.925782 1.839844 9.183594 1.839844 13.230469 0 24-10.769531 24-24 0-3.695312-.902344-7.152344-2.40625-10.28125l26.40625-26.40625 23.40625 23.40625 72.59375-58.070312v23.351562h16v-48zm-424 120c-4.414062 0-8-3.59375-8-8s3.585938-8 8-8 8 3.59375 8 8-3.585938 8-8 8zm88 0c-4.414062 0-8-3.59375-8-8s3.585938-8 8-8 8 3.59375 8 8-3.585938 8-8 8zm96-72c0-4.40625 3.585938-8 8-8s8 3.59375 8 8-3.585938 8-8 8-8-3.59375-8-8zm56 136c-4.414062 0-8-3.59375-8-8s3.585938-8 8-8 8 3.59375 8 8-3.585938 8-8 8zm72-80c-4.414062 0-8-3.59375-8-8s3.585938-8 8-8 8 3.59375 8 8-3.585938 8-8 8zm0 0"/></svg>