<svg height="512" viewBox="0 0 64 64" width="512" xmlns="http://www.w3.org/2000/svg" xmlns:xlink="http://www.w3.org/1999/xlink"><linearGradient id="New_Gradient_Swatch_3" gradientUnits="userSpaceOnUse" x1="31.88" x2="32.725" y1="66.592" y2="-.982"><stop offset="0" stop-color="#006df0"/><stop offset="1" stop-color="#00e7f0"/></linearGradient><linearGradient id="New_Gradient_Swatch_3-2" gradientTransform="matrix(.707 .707 -.707 .707 49.678 -20.577)" x1="49.464" x2="50.308" xlink:href="#New_Gradient_Swatch_3" y1="66.812" y2="-.762"/><linearGradient id="New_Gradient_Swatch_3-3" x1="56.564" x2="57.408" xlink:href="#New_Gradient_Swatch_3" y1="66.901" y2="-.673"/><linearGradient id="New_Gradient_Swatch_3-4" x1="31.603" x2="32.448" xlink:href="#New_Gradient_Swatch_3" y1="66.589" y2="-.985"/><linearGradient id="New_Gradient_Swatch_3-5" x1="27.568" x2="28.413" xlink:href="#New_Gradient_Swatch_3" y1="66.539" y2="-1.036"/><linearGradient id="New_Gradient_Swatch_3-6" x1="31.305" x2="32.15" xlink:href="#New_Gradient_Swatch_3" y1="66.585" y2="-.989"/><linearGradient id="New_Gradient_Swatch_3-7" x1="41.839" x2="42.683" xlink:href="#New_Gradient_Swatch_3" y1="66.717" y2="-.857"/><linearGradient id="New_Gradient_Swatch_3-8" x1="20.842" x2="21.687" xlink:href="#New_Gradient_Swatch_3" y1="66.455" y2="-1.12"/><linearGradient id="New_Gradient_Swatch_3-9" x1="13.253" x2="14.097" xlink:href="#New_Gradient_Swatch_3" y1="66.36" y2="-1.215"/><linearGradient id="New_Gradient_Swatch_3-10" x1="10.571" x2="11.416" xlink:href="#New_Gradient_Swatch_3" y1="66.326" y2="-1.248"/><linearGradient id="New_Gradient_Swatch_3-11" x1="13.515" x2="14.36" xlink:href="#New_Gradient_Swatch_3" y1="66.363" y2="-1.211"/><linearGradient id="New_Gradient_Swatch_3-12" x1="32.928" x2="33.772" xlink:href="#New_Gradient_Swatch_3" y1="66.606" y2="-.969"/><path d="m31 56h2v2h-2z" fill="url(#New_Gradient_Swatch_3)"/><path d="m48.678 48.678h2v2h-2z" fill="url(#New_Gradient_Swatch_3-2)" transform="matrix(.707 -.707 .707 .707 -20.577 49.678)"/><path d="m56 31h2v2h-2z" fill="url(#New_Gradient_Swatch_3-3)"/><path d="m61 25h-7.09a22.547 22.547 0 0 0 -1.465-3.542l5.011-5.012a1 1 0 0 0 0-1.414l-4.243-4.242a30 30 0 1 0 -42.426 42.423l4.242 4.243a1 1 0 0 0 1.414 0l5.012-5.011a22.559 22.559 0 0 0 3.545 1.464v7.091a1 1 0 0 0 1 1h12a1 1 0 0 0 1-1v-7.09a22.559 22.559 0 0 0 3.542-1.464l5.012 5.011a1 1 0 0 0 1.414 0l8.485-8.485a1 1 0 0 0 0-1.414l-5.011-5.012a22.559 22.559 0 0 0 1.467-3.546h7.091a1 1 0 0 0 1-1v-12a1 1 0 0 0 -1-1zm-48.8-12.8a27.989 27.989 0 0 1 38.874-.69l-1.412 1.412a26 26 0 0 0 -36.74 36.74l-1.412 1.412a27.989 27.989 0 0 1 .69-38.874zm28.285 11.315a12 12 0 0 1 -16.97 16.97 1 1 0 0 0 -1.414 0l-7.764 7.764a24 24 0 0 1 33.912-33.912l-7.764 7.763a1 1 0 0 0 0 1.415zm19.515 13.485h-6.836a1 1 0 0 0 -.964.732 20.49 20.49 0 0 1 -1.861 4.5 1 1 0 0 0 .166 1.2l4.829 4.83-7.07 7.07-4.83-4.829a1 1 0 0 0 -1.2-.166 20.49 20.49 0 0 1 -4.5 1.861 1 1 0 0 0 -.732.964v6.838h-10.002v-6.836a1 1 0 0 0 -.732-.964 20.49 20.49 0 0 1 -4.5-1.861 1 1 0 0 0 -1.2.166l-4.83 4.829-2.828-2.828 9.925-9.924a14 14 0 0 0 19.747-19.749l9.924-9.925 2.828 2.828-4.829 4.83a1 1 0 0 0 -.166 1.2 20.473 20.473 0 0 1 1.861 4.5 1 1 0 0 0 .964.732h6.836z" fill="url(#New_Gradient_Swatch_3-4)"/><path d="m33 28.142v-11.142a1 1 0 0 0 -2 0v11.142a4 4 0 0 0 -2.858 2.858h-7.142a1 1 0 0 0 0 2h7.142a3.992 3.992 0 1 0 4.858-4.858zm-1 5.858a2 2 0 1 1 2-2 2 2 0 0 1 -2 2z" fill="url(#New_Gradient_Swatch_3-5)"/><path d="m32 13a1 1 0 0 1 -1-1v-2a1 1 0 0 1 2 0v2a1 1 0 0 1 -1 1z" fill="url(#New_Gradient_Swatch_3-6)"/><path d="m42 15.68a1 1 0 0 1 -.865-1.5l1-1.733a1 1 0 0 1 1.732 1l-1 1.733a1 1 0 0 1 -.867.5z" fill="url(#New_Gradient_Swatch_3-7)"/><path d="m22 15.68a1 1 0 0 1 -.867-.5l-1-1.733a1 1 0 0 1 1.732-1l1 1.733a1 1 0 0 1 -.865 1.5z" fill="url(#New_Gradient_Swatch_3-8)"/><path d="m14.679 23a.992.992 0 0 1 -.5-.134l-1.733-1a1 1 0 0 1 1-1.732l1.733 1a1 1 0 0 1 -.5 1.866z" fill="url(#New_Gradient_Swatch_3-9)"/><path d="m12 33h-2a1 1 0 0 1 0-2h2a1 1 0 0 1 0 2z" fill="url(#New_Gradient_Swatch_3-10)"/><path d="m12.948 44a1 1 0 0 1 -.5-1.866l1.733-1a1 1 0 1 1 1 1.732l-1.733 1a.992.992 0 0 1 -.5.134z" fill="url(#New_Gradient_Swatch_3-11)"/><path d="m32 42a9.914 9.914 0 0 1 -7.068-2.934 1 1 0 1 1 1.416-1.412 7.995 7.995 0 1 0 11.306-11.306 1 1 0 1 1 1.412-1.416 10 10 0 0 1 -7.066 17.068z" fill="url(#New_Gradient_Swatch_3-12)"/></svg>