<?xml version="1.0" encoding="utf-8"?>
<!-- Generator: Adobe Illustrator 22.0.1, SVG Export Plug-In . SVG Version: 6.00 Build 0)  -->
<svg version="1.1" id="Layer_1" xmlns="http://www.w3.org/2000/svg" xmlns:xlink="http://www.w3.org/1999/xlink" x="0px" y="0px"
	 viewBox="-431.5 526.6 200 200" style="enable-background:new -431.5 526.6 200 200;" xml:space="preserve">
<style type="text/css">
	.st0{fill:#C61A23;}
	.st1{fill:#156089;}
</style>
<g>
	<g>
		<g>
			<path class="st0" d="M-387.7,664.4c13.9,0,24.9-0.4,35.9,0.1c10.5,0.5,13.7-3.8,10.1-14.8c-13.5,0-27.4,0-42.2,0
				c0.4-10.8,3.9-15.2,14.3-15c21.5,0.6,43,0.2,64.6,0.2c-0.4-12.8-5.9-17-17.3-16.4c-15.5,0.8-31.1,0.2-46.7,0.2
				c1.4-19.6,13.6-42.1,23-43.1c30-3,35.4-1.2,39.8,12.1c-12.1,8.2-33.7-9.4-41.5,17.3c14.1,0,26.5,0.5,38.7-0.2
				c8.7-0.5,13.9,2.1,17,10.8c3.8,10.7,8.9,20.9,14.4,33.4c-16.3,0-30.2,0-43.7,0c-2.6,15.2-2.6,15.3,14.5,15.4c9,0.1,18,0,27.6,0
				C-293.5,688-354.4,695.3-387.7,664.4z"/>
			<path class="st0" d="M-260,647.1c-18.1-40.6-35.3-79.3-53.6-120.5c32,8.9,54.4,25.5,63.5,55.5C-243.5,604-244.3,626-260,647.1z"
				/>
			<path class="st0" d="M-350.3,528c-17.8,39.8-35.2,78.7-52.9,118.3C-432,610.8-415.1,540.6-350.3,528z"/>
			<path class="st0" d="M-331.6,527c5.2,12,9.1,20.9,13.6,31.4c-9.8,0-18.3,0-27.9,0C-341.4,548.4-337.2,539.1-331.6,527z"/>
		</g>
	</g>
	<g>
		<path class="st1" d="M-401.1,720.7l-1,5.6h-4.4l5.1-24.4h5.4l4.5,24.4h-4.4l-1-5.6H-401.1z M-397.3,717l-0.8-5.1
			c-0.2-1.5-0.6-3.9-0.8-5.5h-0.1c-0.2,1.6-0.6,4.2-0.8,5.6l-0.9,5.1L-397.3,717L-397.3,717z"/>
		<path class="st1" d="M-389.5,721.4c0.9,0.5,2.5,0.9,3.8,0.9c2.1,0,3.2-1.2,3.2-2.8c0-1.8-1-2.6-3-4c-3.2-2-4.4-4.6-4.4-6.8
			c0-3.9,2.5-7.2,7.4-7.2c1.5,0,3,0.4,3.7,0.9l-0.7,4.1c-0.7-0.4-1.7-0.8-3-0.8c-1.9,0-2.9,1.2-2.9,2.5c0,1.5,0.7,2.2,3.2,3.8
			c3.1,2,4.2,4.4,4.2,7c0,4.5-3.1,7.4-7.7,7.4c-1.9,0-3.7-0.5-4.5-1L-389.5,721.4z"/>
		<path class="st1" d="M-370.8,701.9v24.4h-4.5v-24.4H-370.8z"/>
		<path class="st1" d="M-363,720.7l-1,5.6h-4.4l5.1-24.4h5.4l4.5,24.4h-4.4l-1-5.6H-363z M-359.3,717l-0.8-5.1
			c-0.2-1.5-0.6-3.9-0.8-5.5h-0.1c-0.2,1.6-0.6,4.2-0.8,5.6l-0.9,5.1L-359.3,717L-359.3,717z"/>
		<path class="st1" d="M-343.3,706.3h-4.1v-4.4h12.8v4.4h-4.2v20h-4.5V706.3z"/>
		<path class="st1" d="M-318.9,713.6c0,9.2-3.1,12.9-7.5,12.9c-5.3,0-7.4-5.9-7.4-12.6c0-6.7,2.5-12.4,7.7-12.4
			C-320.5,701.6-318.9,708.1-318.9,713.6z M-329.1,714.1c0,5.5,1,8.4,2.8,8.4c1.9,0,2.6-3.6,2.6-8.6c0-4.3-0.6-8.2-2.7-8.2
			C-328.1,705.7-329.1,708.8-329.1,714.1z"/>
		<path class="st1" d="M-306.8,720.7l-1,5.6h-4.4l5.1-24.4h5.4l4.5,24.4h-4.4l-1-5.6H-306.8z M-303,717l-0.8-5.1
			c-0.2-1.5-0.6-3.9-0.8-5.5h-0.1c-0.2,1.6-0.6,4.2-0.8,5.6l-0.9,5.1L-303,717L-303,717z"/>
		<path class="st1" d="M-295.2,721.4c0.9,0.5,2.5,0.9,3.8,0.9c2.1,0,3.2-1.2,3.2-2.8c0-1.8-1-2.6-3-4c-3.2-2-4.4-4.6-4.4-6.8
			c0-3.9,2.5-7.2,7.4-7.2c1.5,0,3,0.4,3.7,0.9l-0.7,4.1c-0.7-0.4-1.7-0.8-3-0.8c-1.9,0-2.9,1.2-2.9,2.5c0,1.5,0.7,2.2,3.2,3.8
			c3.1,2,4.2,4.4,4.2,7c0,4.5-3.1,7.4-7.7,7.4c-1.9,0-3.7-0.5-4.5-1L-295.2,721.4z"/>
		<path class="st1" d="M-276.5,701.9v24.4h-4.5v-24.4H-276.5z"/>
		<path class="st1" d="M-268.7,720.7l-1,5.6h-4.4l5.1-24.4h5.4l4.5,24.4h-4.4l-1-5.6H-268.7z M-265,717l-0.8-5.1
			c-0.2-1.5-0.6-3.9-0.8-5.5h-0.1c-0.2,1.6-0.6,4.2-0.8,5.6l-0.9,5.1L-265,717L-265,717z"/>
	</g>
</g>
</svg>
