<svg width="18" height="12" viewBox="0 0 18 12" fill="none" xmlns="http://www.w3.org/2000/svg">
<path d="M17.348 5.73487L11.8935 0.109872C11.7514 -0.036624 11.5213 -0.036624 11.3793 0.109872C11.2372 0.256368 11.2372 0.493673 11.3793 0.640134L16.2131 5.62501H0.363647C0.162648 5.62501 0 5.79274 0 6.00002C0 6.2073 0.162648 6.37503 0.363647 6.37503H16.2131L11.3793 11.3599C11.2372 11.5064 11.2372 11.7437 11.3793 11.8901C11.4503 11.9634 11.5433 12 11.6364 12C11.7294 12 11.8224 11.9634 11.8935 11.8901L17.348 6.26514C17.4901 6.11867 17.4901 5.88137 17.348 5.73487Z" fill="#138690"/>
</svg>
