<svg width="70" height="70" viewBox="0 0 70 70" fill="none" xmlns="http://www.w3.org/2000/svg">
<circle cx="35" cy="35" r="34.5" stroke="white"/>
<path d="M35 28.4546C36.5037 28.4546 37.7272 27.231 37.7272 25.7273C37.7272 24.2236 36.5037 23 35 23C33.4963 23 32.2727 24.2235 32.2727 25.7273C32.2727 27.231 33.4962 28.4546 35 28.4546ZM35 24.0909C35.9023 24.0909 36.6363 24.8249 36.6363 25.7273C36.6363 26.6296 35.9023 27.3636 35 27.3636C34.0976 27.3636 33.3636 26.6296 33.3636 25.7273C33.3636 24.8249 34.0976 24.0909 35 24.0909Z" fill="white"/>
<path d="M31.2596 33.9091H38.7404C39.3849 33.9091 39.9091 33.3434 39.9091 32.6477V32.2983C39.9091 31.3869 39.4579 30.5543 38.7308 30.1255C37.8599 29.612 36.5059 29 35 29C33.4941 29 32.1401 29.6121 31.2692 30.1255C30.5421 30.5543 30.0909 31.3869 30.0909 32.2983V32.6477C30.0909 33.3434 30.6151 33.9091 31.2596 33.9091ZM31.1818 32.2983C31.1818 31.7789 31.4338 31.2953 31.8232 31.0651C32.5769 30.6209 33.7403 30.0909 35 30.0909C36.2597 30.0909 37.4231 30.6209 38.1768 31.0651C38.5662 31.2953 38.8182 31.7789 38.8182 32.2983V32.6477C38.8182 32.7612 38.7538 32.8181 38.7404 32.8181H31.2596C31.2463 32.8181 31.1818 32.7611 31.1818 32.6477V32.2983Z" fill="white"/>
<path d="M27.9091 41.5454C29.4128 41.5454 30.6363 40.3219 30.6363 38.8182C30.6363 37.3145 29.4128 36.0909 27.9091 36.0909C26.4054 36.0909 25.1818 37.3144 25.1818 38.8181C25.1818 40.3218 26.4054 41.5454 27.9091 41.5454ZM27.9091 37.1818C28.8114 37.1818 29.5454 37.9158 29.5454 38.8181C29.5454 39.7205 28.8114 40.4545 27.9091 40.4545C27.0067 40.4545 26.2727 39.7205 26.2727 38.8181C26.2727 37.9158 27.0067 37.1818 27.9091 37.1818Z" fill="white"/>
<path d="M31.6399 43.2165C30.769 42.7029 29.4149 42.0909 27.9091 42.0909C26.4032 42.0909 25.0492 42.703 24.1783 43.2165C23.4512 43.6452 23 44.4778 23 45.3892V45.7386C23 46.4343 23.5241 47 24.1687 47H31.6495C32.294 47 32.8182 46.4343 32.8182 45.7386V45.3892C32.8182 44.4778 32.367 43.6452 31.6399 43.2165ZM31.7273 45.7386C31.7273 45.8521 31.6628 45.9091 31.6495 45.9091H24.1687C24.1554 45.9091 24.0909 45.8521 24.0909 45.7386V45.3892C24.0909 44.8699 24.3428 44.3862 24.7322 44.1561C25.486 43.7118 26.6493 43.1818 27.9091 43.1818C29.1688 43.1818 30.3322 43.7119 31.0859 44.1561C31.4753 44.3862 31.7273 44.8698 31.7273 45.3892V45.7386Z" fill="white"/>
<path d="M42.0909 41.5454C43.5946 41.5454 44.8181 40.3219 44.8181 38.8182C44.8181 37.3145 43.5946 36.0909 42.0909 36.0909C40.5871 36.0909 39.3636 37.3144 39.3636 38.8181C39.3636 40.3218 40.5872 41.5454 42.0909 41.5454ZM42.0909 37.1818C42.9932 37.1818 43.7272 37.9158 43.7272 38.8181C43.7272 39.7205 42.9932 40.4545 42.0909 40.4545C41.1885 40.4545 40.4545 39.7205 40.4545 38.8181C40.4545 37.9158 41.1886 37.1818 42.0909 37.1818Z" fill="white"/>
<path d="M45.8217 43.2165C44.9508 42.7029 43.5968 42.0909 42.0909 42.0909C40.585 42.0909 39.231 42.703 38.3601 43.2165C37.633 43.6452 37.1818 44.4778 37.1818 45.3892V45.7386C37.1818 46.4343 37.706 47 38.3505 47H45.8313C46.4758 47 47 46.4343 47 45.7386V45.3892C46.9999 44.4778 46.5488 43.6452 45.8217 43.2165ZM45.909 45.7386C45.909 45.8521 45.8446 45.9091 45.8313 45.9091H38.3504C38.3371 45.9091 38.2727 45.8521 38.2727 45.7386V45.3892C38.2727 44.8699 38.5246 44.3862 38.914 44.1561C39.6678 43.7118 40.8311 43.1818 42.0909 43.1818C43.3506 43.1818 44.5139 43.7119 45.2677 44.1561C45.6571 44.3862 45.909 44.8698 45.909 45.3892V45.7386Z" fill="white"/>
<path d="M37.7268 41.5454C37.8871 41.5454 38.0453 41.4751 38.1534 41.3409C38.3415 41.1055 38.3031 40.7624 38.0682 40.5739L35.5455 38.5557V35.5455C35.5455 35.244 35.3015 35 35 35C34.6985 35 34.4545 35.2439 34.4545 35.5454V38.5561L31.9318 40.5738C31.6969 40.7624 31.6586 41.1054 31.8466 41.3408C31.9547 41.4751 32.1129 41.5454 32.2733 41.5454C32.3926 41.5454 32.513 41.5065 32.6136 41.4261L35 39.517L37.3863 41.4261C37.487 41.5065 37.6074 41.5454 37.7268 41.5454Z" fill="white"/>
</svg>
