<svg width="80" height="35" viewBox="0 0 80 35" fill="none" xmlns="http://www.w3.org/2000/svg">
<path d="M53.3333 5.33333C48.1833 5.33333 44 9.51667 44 14.6667C44 19.8167 48.1833 24 53.3333 24C58.4833 24 62.6667 19.8167 62.6667 14.6667C62.6667 9.51667 58.4833 5.33333 53.3333 5.33333ZM53.3333 21.3333C49.65 21.3333 46.6667 18.35 46.6667 14.6667C46.6667 10.9833 49.65 8 53.3333 8C57.0167 8 60 10.9833 60 14.6667C60 18.35 57.0167 21.3333 53.3333 21.3333ZM53.3333 5.33333C48.1833 5.33333 44 9.51667 44 14.6667C44 19.8167 48.1833 24 53.3333 24C58.4833 24 62.6667 19.8167 62.6667 14.6667C62.6667 9.51667 58.4833 5.33333 53.3333 5.33333ZM53.3333 21.3333C49.65 21.3333 46.6667 18.35 46.6667 14.6667C46.6667 10.9833 49.65 8 53.3333 8C57.0167 8 60 10.9833 60 14.6667C60 18.35 57.0167 21.3333 53.3333 21.3333ZM53.3333 5.33333C48.1833 5.33333 44 9.51667 44 14.6667C44 19.8167 48.1833 24 53.3333 24C58.4833 24 62.6667 19.8167 62.6667 14.6667C62.6667 9.51667 58.4833 5.33333 53.3333 5.33333ZM53.3333 21.3333C49.65 21.3333 46.6667 18.35 46.6667 14.6667C46.6667 10.9833 49.65 8 53.3333 8C57.0167 8 60 10.9833 60 14.6667C60 18.35 57.0167 21.3333 53.3333 21.3333ZM53.3333 5.33333C48.1833 5.33333 44 9.51667 44 14.6667C44 19.8167 48.1833 24 53.3333 24C58.4833 24 62.6667 19.8167 62.6667 14.6667C62.6667 9.51667 58.4833 5.33333 53.3333 5.33333ZM53.3333 21.3333C49.65 21.3333 46.6667 18.35 46.6667 14.6667C46.6667 10.9833 49.65 8 53.3333 8C57.0167 8 60 10.9833 60 14.6667C60 18.35 57.0167 21.3333 53.3333 21.3333ZM53.3333 5.33333C48.1833 5.33333 44 9.51667 44 14.6667C44 19.8167 48.1833 24 53.3333 24C58.4833 24 62.6667 19.8167 62.6667 14.6667C62.6667 9.51667 58.4833 5.33333 53.3333 5.33333ZM53.3333 21.3333C49.65 21.3333 46.6667 18.35 46.6667 14.6667C46.6667 10.9833 49.65 8 53.3333 8C57.0167 8 60 10.9833 60 14.6667C60 18.35 57.0167 21.3333 53.3333 21.3333ZM53.3333 5.33333C48.1833 5.33333 44 9.51667 44 14.6667C44 19.8167 48.1833 24 53.3333 24C58.4833 24 62.6667 19.8167 62.6667 14.6667C62.6667 9.51667 58.4833 5.33333 53.3333 5.33333ZM53.3333 21.3333C49.65 21.3333 46.6667 18.35 46.6667 14.6667C46.6667 10.9833 49.65 8 53.3333 8C57.0167 8 60 10.9833 60 14.6667C60 18.35 57.0167 21.3333 53.3333 21.3333ZM53.3333 5.33333C48.1833 5.33333 44 9.51667 44 14.6667C44 19.8167 48.1833 24 53.3333 24C58.4833 24 62.6667 19.8167 62.6667 14.6667C62.6667 9.51667 58.4833 5.33333 53.3333 5.33333ZM53.3333 21.3333C49.65 21.3333 46.6667 18.35 46.6667 14.6667C46.6667 10.9833 49.65 8 53.3333 8C57.0167 8 60 10.9833 60 14.6667C60 18.35 57.0167 21.3333 53.3333 21.3333ZM53.3333 5.33333C48.1833 5.33333 44 9.51667 44 14.6667C44 19.8167 48.1833 24 53.3333 24C58.4833 24 62.6667 19.8167 62.6667 14.6667C62.6667 9.51667 58.4833 5.33333 53.3333 5.33333ZM53.3333 21.3333C49.65 21.3333 46.6667 18.35 46.6667 14.6667C46.6667 10.9833 49.65 8 53.3333 8C57.0167 8 60 10.9833 60 14.6667C60 18.35 57.0167 21.3333 53.3333 21.3333ZM53.3333 5.33333C48.1833 5.33333 44 9.51667 44 14.6667C44 19.8167 48.1833 24 53.3333 24C58.4833 24 62.6667 19.8167 62.6667 14.6667C62.6667 9.51667 58.4833 5.33333 53.3333 5.33333ZM53.3333 21.3333C49.65 21.3333 46.6667 18.35 46.6667 14.6667C46.6667 10.9833 49.65 8 53.3333 8C57.0167 8 60 10.9833 60 14.6667C60 18.35 57.0167 21.3333 53.3333 21.3333ZM53.3333 5.33333C48.1833 5.33333 44 9.51667 44 14.6667C44 19.8167 48.1833 24 53.3333 24C58.4833 24 62.6667 19.8167 62.6667 14.6667C62.6667 9.51667 58.4833 5.33333 53.3333 5.33333ZM53.3333 21.3333C49.65 21.3333 46.6667 18.35 46.6667 14.6667C46.6667 10.9833 49.65 8 53.3333 8C57.0167 8 60 10.9833 60 14.6667C60 18.35 57.0167 21.3333 53.3333 21.3333ZM53.3333 5.33333C48.1833 5.33333 44 9.51667 44 14.6667C44 19.8167 48.1833 24 53.3333 24C58.4833 24 62.6667 19.8167 62.6667 14.6667C62.6667 9.51667 58.4833 5.33333 53.3333 5.33333ZM53.3333 21.3333C49.65 21.3333 46.6667 18.35 46.6667 14.6667C46.6667 10.9833 49.65 8 53.3333 8C57.0167 8 60 10.9833 60 14.6667C60 18.35 57.0167 21.3333 53.3333 21.3333ZM53.3333 5.33333C48.1833 5.33333 44 9.51667 44 14.6667C44 19.8167 48.1833 24 53.3333 24C58.4833 24 62.6667 19.8167 62.6667 14.6667C62.6667 9.51667 58.4833 5.33333 53.3333 5.33333ZM53.3333 21.3333C49.65 21.3333 46.6667 18.35 46.6667 14.6667C46.6667 10.9833 49.65 8 53.3333 8C57.0167 8 60 10.9833 60 14.6667C60 18.35 57.0167 21.3333 53.3333 21.3333ZM75.1333 0H4.86667C2.18333 0 0 2.18333 0 4.86667V24.4833C0 27.15 2.18333 29.3333 4.86667 29.3333H6.66667V33.3333C6.66667 34.0667 7.26667 34.6667 8 34.6667H13.3333C14.0667 34.6667 14.6667 34.0667 14.6667 33.3333V29.3333H65.3333V33.3333C65.3333 34.0667 65.9333 34.6667 66.6667 34.6667H72C72.7333 34.6667 73.3333 34.0667 73.3333 33.3333V29.3333H75.1333C77.8167 29.3333 79.9833 27.15 80 24.4667V4.86667C80 2.18333 77.8167 0 75.1333 0ZM12 32H9.33333V29.3333H12V32ZM17.3333 24H8V21.3333H17.3333V24ZM17.3333 18.6667H8V16H17.3333V18.6667ZM17.3333 13.3333H8V10.6667H17.3333V13.3333ZM17.3333 8H8V5.33333H17.3333V8ZM53.3333 26.6667C46.7 26.6667 41.3333 21.2833 41.3333 14.6667C41.3333 8.03333 46.7 2.66667 53.3333 2.66667C59.9667 2.66667 65.3333 8.03333 65.3333 14.6667C65.3333 21.3 59.9667 26.6667 53.3333 26.6667ZM70.6667 32H68V29.3333H70.6667V32ZM73.3333 8H70.6667V5.33333H73.3333V8ZM53.3333 5.33333C48.1833 5.33333 44 9.51667 44 14.6667C44 19.8167 48.1833 24 53.3333 24C58.4833 24 62.6667 19.8167 62.6667 14.6667C62.6667 9.51667 58.4833 5.33333 53.3333 5.33333ZM53.3333 21.3333C49.65 21.3333 46.6667 18.35 46.6667 14.6667C46.6667 10.9833 49.65 8 53.3333 8C57.0167 8 60 10.9833 60 14.6667C60 18.35 57.0167 21.3333 53.3333 21.3333ZM53.3333 5.33333C48.1833 5.33333 44 9.51667 44 14.6667C44 19.8167 48.1833 24 53.3333 24C58.4833 24 62.6667 19.8167 62.6667 14.6667C62.6667 9.51667 58.4833 5.33333 53.3333 5.33333ZM53.3333 21.3333C49.65 21.3333 46.6667 18.35 46.6667 14.6667C46.6667 10.9833 49.65 8 53.3333 8C57.0167 8 60 10.9833 60 14.6667C60 18.35 57.0167 21.3333 53.3333 21.3333ZM53.3333 5.33333C48.1833 5.33333 44 9.51667 44 14.6667C44 19.8167 48.1833 24 53.3333 24C58.4833 24 62.6667 19.8167 62.6667 14.6667C62.6667 9.51667 58.4833 5.33333 53.3333 5.33333ZM53.3333 21.3333C49.65 21.3333 46.6667 18.35 46.6667 14.6667C46.6667 10.9833 49.65 8 53.3333 8C57.0167 8 60 10.9833 60 14.6667C60 18.35 57.0167 21.3333 53.3333 21.3333ZM53.3333 5.33333C48.1833 5.33333 44 9.51667 44 14.6667C44 19.8167 48.1833 24 53.3333 24C58.4833 24 62.6667 19.8167 62.6667 14.6667C62.6667 9.51667 58.4833 5.33333 53.3333 5.33333ZM53.3333 21.3333C49.65 21.3333 46.6667 18.35 46.6667 14.6667C46.6667 10.9833 49.65 8 53.3333 8C57.0167 8 60 10.9833 60 14.6667C60 18.35 57.0167 21.3333 53.3333 21.3333ZM53.3333 5.33333C48.1833 5.33333 44 9.51667 44 14.6667C44 19.8167 48.1833 24 53.3333 24C58.4833 24 62.6667 19.8167 62.6667 14.6667C62.6667 9.51667 58.4833 5.33333 53.3333 5.33333ZM53.3333 21.3333C49.65 21.3333 46.6667 18.35 46.6667 14.6667C46.6667 10.9833 49.65 8 53.3333 8C57.0167 8 60 10.9833 60 14.6667C60 18.35 57.0167 21.3333 53.3333 21.3333ZM53.3333 5.33333C48.1833 5.33333 44 9.51667 44 14.6667C44 19.8167 48.1833 24 53.3333 24C58.4833 24 62.6667 19.8167 62.6667 14.6667C62.6667 9.51667 58.4833 5.33333 53.3333 5.33333ZM53.3333 21.3333C49.65 21.3333 46.6667 18.35 46.6667 14.6667C46.6667 10.9833 49.65 8 53.3333 8C57.0167 8 60 10.9833 60 14.6667C60 18.35 57.0167 21.3333 53.3333 21.3333ZM53.3333 5.33333C48.1833 5.33333 44 9.51667 44 14.6667C44 19.8167 48.1833 24 53.3333 24C58.4833 24 62.6667 19.8167 62.6667 14.6667C62.6667 9.51667 58.4833 5.33333 53.3333 5.33333ZM53.3333 21.3333C49.65 21.3333 46.6667 18.35 46.6667 14.6667C46.6667 10.9833 49.65 8 53.3333 8C57.0167 8 60 10.9833 60 14.6667C60 18.35 57.0167 21.3333 53.3333 21.3333ZM53.3333 5.33333C48.1833 5.33333 44 9.51667 44 14.6667C44 19.8167 48.1833 24 53.3333 24C58.4833 24 62.6667 19.8167 62.6667 14.6667C62.6667 9.51667 58.4833 5.33333 53.3333 5.33333ZM53.3333 21.3333C49.65 21.3333 46.6667 18.35 46.6667 14.6667C46.6667 10.9833 49.65 8 53.3333 8C57.0167 8 60 10.9833 60 14.6667C60 18.35 57.0167 21.3333 53.3333 21.3333ZM53.3333 5.33333C48.1833 5.33333 44 9.51667 44 14.6667C44 19.8167 48.1833 24 53.3333 24C58.4833 24 62.6667 19.8167 62.6667 14.6667C62.6667 9.51667 58.4833 5.33333 53.3333 5.33333ZM53.3333 21.3333C49.65 21.3333 46.6667 18.35 46.6667 14.6667C46.6667 10.9833 49.65 8 53.3333 8C57.0167 8 60 10.9833 60 14.6667C60 18.35 57.0167 21.3333 53.3333 21.3333ZM53.3333 5.33333C48.1833 5.33333 44 9.51667 44 14.6667C44 19.8167 48.1833 24 53.3333 24C58.4833 24 62.6667 19.8167 62.6667 14.6667C62.6667 9.51667 58.4833 5.33333 53.3333 5.33333ZM53.3333 21.3333C49.65 21.3333 46.6667 18.35 46.6667 14.6667C46.6667 10.9833 49.65 8 53.3333 8C57.0167 8 60 10.9833 60 14.6667C60 18.35 57.0167 21.3333 53.3333 21.3333ZM53.3333 5.33333C48.1833 5.33333 44 9.51667 44 14.6667C44 19.8167 48.1833 24 53.3333 24C58.4833 24 62.6667 19.8167 62.6667 14.6667C62.6667 9.51667 58.4833 5.33333 53.3333 5.33333ZM53.3333 21.3333C49.65 21.3333 46.6667 18.35 46.6667 14.6667C46.6667 10.9833 49.65 8 53.3333 8C57.0167 8 60 10.9833 60 14.6667C60 18.35 57.0167 21.3333 53.3333 21.3333Z" fill="#138690"/>
<path d="M53.3333 5.3335C48.1833 5.3335 44 9.51683 44 14.6668C44 19.8168 48.1833 24.0002 53.3333 24.0002C58.4833 24.0002 62.6667 19.8168 62.6667 14.6668C62.6667 9.51683 58.4833 5.3335 53.3333 5.3335ZM53.3333 21.3335C49.65 21.3335 46.6667 18.3502 46.6667 14.6668C46.6667 10.9835 49.65 8.00016 53.3333 8.00016C57.0167 8.00016 60 10.9835 60 14.6668C60 18.3502 57.0167 21.3335 53.3333 21.3335Z" fill="#138690"/>
</svg>
