<svg width="81" height="80" viewBox="0 0 81 80" fill="none" xmlns="http://www.w3.org/2000/svg">
<path d="M0.666504 15V3.125C0.666504 1.39893 2.06543 0 3.7915 0H15.6665C17.3926 0 18.7915 1.39893 18.7915 3.125C18.7915 4.85107 17.3926 6.25 15.6665 6.25H6.9165V15C6.9165 16.7261 5.51758 18.125 3.7915 18.125C2.06543 18.125 0.666504 16.7261 0.666504 15ZM77.5415 0H65.6665C63.9404 0 62.5415 1.39893 62.5415 3.125C62.5415 4.85107 63.9404 6.25 65.6665 6.25H74.4165V15C74.4165 16.7261 75.8154 18.125 77.5415 18.125C79.2676 18.125 80.6665 16.7261 80.6665 15V3.125C80.6665 1.39893 79.2676 0 77.5415 0ZM15.6665 73.75H6.9165V65C6.9165 63.2739 5.51758 61.875 3.7915 61.875C2.06543 61.875 0.666504 63.2739 0.666504 65V76.875C0.666504 78.6011 2.06543 80 3.7915 80H15.6665C17.3926 80 18.7915 78.6011 18.7915 76.875C18.7915 75.1489 17.3926 73.75 15.6665 73.75ZM77.5415 61.875C75.8154 61.875 74.4165 63.2739 74.4165 65V73.75H65.6665C63.9404 73.75 62.5415 75.1489 62.5415 76.875C62.5415 78.6011 63.9404 80 65.6665 80H77.5415C79.2676 80 80.6665 78.6011 80.6665 76.875V65C80.6665 63.2739 79.2676 61.875 77.5415 61.875ZM37.9321 15.3906V34.1406C37.9321 35.8667 36.5332 37.2656 34.8071 37.2656H16.0571C14.3311 37.2656 12.9321 35.8667 12.9321 34.1406V15.3906C12.9321 13.6646 14.3311 12.2656 16.0571 12.2656H34.8071C36.5332 12.2656 37.9321 13.6646 37.9321 15.3906ZM31.6821 18.5156H19.1821V31.0156H31.6821V18.5156ZM66.8384 37.2656H48.0884C46.3623 37.2656 44.9634 35.8667 44.9634 34.1406V15.3906C44.9634 13.6646 46.3623 12.2656 48.0884 12.2656H66.8384C68.5645 12.2656 69.9634 13.6646 69.9634 15.3906V34.1406C69.9634 35.8667 68.5645 37.2656 66.8384 37.2656ZM63.7134 18.5156H51.2134V31.0156H63.7134V18.5156ZM37.9321 47.4219V66.1719C37.9321 67.8979 36.5332 69.2969 34.8071 69.2969H16.0571C14.3311 69.2969 12.9321 67.8979 12.9321 66.1719V47.4219C12.9321 45.6958 14.3311 44.2969 16.0571 44.2969H34.8071C36.5332 44.2969 37.9321 45.6958 37.9321 47.4219ZM31.6821 50.5469H19.1821V63.0469H31.6821V50.5469ZM62.8149 65.2734H52.1118C50.3857 65.2734 48.9868 63.8745 48.9868 62.1484V51.4453C48.9868 49.7192 50.3857 48.3203 52.1118 48.3203H62.8149C64.541 48.3203 65.9399 49.7192 65.9399 51.4453V62.1484C65.9399 63.8745 64.541 65.2734 62.8149 65.2734ZM59.6899 54.5703H55.2368V59.0234H59.6899V54.5703Z" fill="#138690"/>
</svg>
