<svg id="Layer_1" data-name="Layer 1" xmlns="http://www.w3.org/2000/svg" viewBox="0 0 1920 1080"><defs><style>.cls-1{fill:#ffc24a;}.cls-2{fill:#ffa712;}.cls-3{fill:#f69e00;}.cls-4{fill:#f4bd62;}.cls-5{fill:#ffa50e;}.cls-6{fill:#f6820c;}.cls-7{fill:#fde068;}.cls-8{fill:#fcca3f;}.cls-9{fill:#eeab37;}</style></defs><title>Logo</title><path class="cls-1" d="M741.76,747.69l4.11-5.75L940.21,373.19l.41-3.9L855,208.37c-7.18-13.48-27.39-10.07-29.74,5Z"/><path id="a" class="cls-2" d="M744.19,743.3l3.11-6.06L939.6,372.36,854.14,210.79c-7.1-13.34-25.14-9.94-27.47,5Z"/><path id="a-2" data-name="a" class="cls-3" d="M744.19,743.3l3.11-6.06L939.6,372.36,854.14,210.79c-7.1-13.34-25.14-9.94-27.47,5Z"/><path class="cls-4" d="M1003.07,491l63.79-65.32L1003,303.87c-6.06-11.53-23-11.56-29,0l-34.09,65v5.54L1003.07,491Z"/><path id="c" class="cls-5" d="M1001.93,488.28l62-63.51-62-118.08c-5.89-11.21-20.19-12.38-26-1.14l-34.27,66-1,3.38Z"/><path id="c-2" data-name="c" class="cls-3" d="M1001.93,488.28l62-63.51-62-118.08c-5.89-11.21-20.19-12.38-26-1.14l-34.27,66-1,3.38Z"/><path class="cls-6" d="M741.76,747.69l1.86-1.87,6.77-2.75L999.06,495.32l3.15-8.58-62-118.21Z"/><path class="cls-7" d="M1011,872.63l225.05-125.51-64.27-395.81a15.38,15.38,0,0,0-26.07-8.4l-404,404.78L965.53,872.62a46.7,46.7,0,0,0,45.51,0"/><path class="cls-8" d="M1234.07,746.06l-63.78-392.8c-2-12.29-14.63-17.38-23.43-8.56L744.26,746.92l221.31,123.7a46.34,46.34,0,0,0,45.16,0l223.34-124.56Z"/><path class="cls-9" d="M1011,868.93a46.7,46.7,0,0,1-45.51,0l-222-123.14-1.8,1.9L965.53,872.62a46.7,46.7,0,0,0,45.51,0l225.05-125.51-.55-3.39L1011,868.93Z"/></svg>