<svg id="Layer_1" data-name="Layer 1" xmlns="http://www.w3.org/2000/svg" viewBox="0 0 1920 1080"><defs><style>.cls-1{fill:#c9cacc;opacity:0.5;}.cls-1,.cls-12,.cls-22{isolation:isolate;}.cls-2{fill:#ccdae1;}.cls-3{fill:none;stroke:#0f1041;stroke-linecap:round;stroke-linejoin:round;stroke-width:11px;}.cls-4{fill:#0f1041;}.cls-5{fill:#f68b20;}.cls-6{fill:#fab818;}.cls-7{fill:#f7fafc;}.cls-8{fill:#223d4b;}.cls-9{opacity:0.7;}.cls-10{fill:#7ba1b3;}.cls-11{fill:#4f7e97;}.cls-12{fill:#162c35;opacity:0.6;}.cls-13{fill:#b5c9d4;}.cls-14{fill:#103447;}.cls-15{fill:#123a4c;}.cls-16{fill:#8ea0a3;}.cls-17{fill:#98a8a9;}.cls-18{fill:#c7c8cc;}.cls-19{fill:#dbdbdd;}.cls-20{fill:#3d565d;}.cls-21{fill:#5c6c73;}.cls-22{fill:#bcbec0;opacity:0.4;}</style></defs><title>Logo</title><g id="Layer_4" data-name="Layer 4"><polygon class="cls-1" points="731.47 388.97 973.4 249.29 1215.33 388.97 1215.33 668.32 973.4 808 731.47 668.32 731.47 388.97"/><polygon class="cls-2" points="741.95 310.09 799.11 277.09 856.27 310.09 856.27 376.09 799.11 409.09 741.95 376.09 741.95 310.09"/><polygon class="cls-2" points="1182.91 733.26 1213.38 715.67 1243.85 733.26 1243.85 768.44 1213.38 786.04 1182.91 768.44 1182.91 733.26"/><polyline class="cls-3" points="1152.96 390.17 1249.26 390.17 1249.26 314.69"/><line class="cls-3" x1="1153.99" y1="585.54" x2="1231.96" y2="585.54"/><line class="cls-3" x1="1249.26" y1="352.43" x2="1285.54" y2="352.43"/><circle class="cls-4" cx="1249.26" cy="305.35" r="9.34"/><circle class="cls-4" cx="651.93" cy="601.47" r="9.34"/><circle class="cls-4" cx="651.93" cy="725.57" r="9.34"/><circle class="cls-4" cx="695.68" cy="772.07" r="9.34"/><circle class="cls-4" cx="1294.87" cy="352.43" r="9.34"/><line class="cls-3" x1="739.24" y1="601.47" x2="661.26" y2="601.47"/><circle class="cls-4" cx="1240.88" cy="585.54" r="9.34"/><polyline class="cls-3" points="771.46 682.56 695.68 682.56 695.68 762.73"/><line class="cls-3" x1="693.11" y1="725.57" x2="661.26" y2="725.57"/><rect class="cls-5" x="1171.44" y="524.63" width="2.56" height="47.4"/></g><g id="Layer_2" data-name="Layer 2"><path class="cls-6" d="M1224.59,460.94a1.65,1.65,0,0,0,1.65-1.65V438.35a1.65,1.65,0,0,0-1.65-1.65H1215a1.65,1.65,0,0,0-1.65,1.65v20.95a1.65,1.65,0,0,0,1.65,1.65Z"/><path class="cls-6" d="M1243.73,460.94a1.65,1.65,0,0,0,1.65-1.65V438.35a1.65,1.65,0,0,0-1.65-1.65h-9.56a1.65,1.65,0,0,0-1.65,1.65v20.95a1.65,1.65,0,0,0,1.65,1.65Z"/><path class="cls-6" d="M1262.88,460.94a1.65,1.65,0,0,0,1.65-1.65V438.35a1.65,1.65,0,0,0-1.65-1.65h-9.56a1.65,1.65,0,0,0-1.65,1.65v20.95a1.65,1.65,0,0,0,1.65,1.65Z"/><rect class="cls-5" x="1213.38" y="444.85" width="12.85" height="3.95"/><rect class="cls-5" x="1213.38" y="453.16" width="12.85" height="3.95"/><rect class="cls-5" x="1232.53" y="444.85" width="12.85" height="3.95"/><rect class="cls-5" x="1232.53" y="453.16" width="12.85" height="3.95"/><rect class="cls-5" x="1251.67" y="444.85" width="12.86" height="3.95"/><rect class="cls-5" x="1251.67" y="453.16" width="12.86" height="3.95"/><path class="cls-6" d="M1270.79,426.46V436c0,2.49-1.73,4.54-3.85,4.54H1139.22c-2.12,0-3.85-2-3.85-4.54v-9.58c0-2.49,1.73-4.54,3.85-4.54h127.72C1269.06,421.92,1270.79,424,1270.79,426.46Z"/><path class="cls-5" d="M1270.79,431.25V436c0,2.49-1.73,4.54-3.85,4.54H1135.37v-9.32Z"/><path class="cls-5" d="M1179.49,504h21.12l5.39-5.39.67-.67,4.15,4.15H1217l6.05-6h9.71l6.44,6.43h4.63l3.59-3.59h5.77l4.27,4.28h6.23l5.77-5.77h4.84l5.73-5.74-4.82-6-1-1.21-3.86-4.82h-89.21l1.34,4.82.66,2.42,1.33,4.82h-5V504Z"/><polygon class="cls-5" points="1179.49 503.98 1199.25 503.98 1205.31 497.91 1206 498.58 1209.47 502.06 1215.68 502.06 1221.72 496.01 1231.45 496.01 1237.87 502.44 1242.5 502.44 1246.09 498.85 1251.86 498.85 1256.14 503.13 1262.36 503.13 1268.13 497.36 1272.96 497.36 1278.69 491.62 1179.49 491.62 1179.49 503.98"/><polygon class="cls-6" points="1184.52 491.62 1278.69 491.62 1274.83 486.8 1272.9 484.38 1269.04 479.55 1181.19 479.55 1182.52 484.38 1183.18 486.8 1184.52 491.62"/><polygon class="cls-5" points="1183.18 486.8 1274.83 486.8 1272.9 484.38 1182.52 484.38 1183.18 486.8"/><path class="cls-7" d="M1201.23,353.72V542.33a5.51,5.51,0,0,1-5.49,5.49H885.91a5.51,5.51,0,0,1-5.49-5.49V353.72a5.51,5.51,0,0,1,5.49-5.49h309.83A5.51,5.51,0,0,1,1201.23,353.72Z"/><path class="cls-8" d="M1177.36,377.79V518.25a5.51,5.51,0,0,1-5.49,5.49H909.79a5.51,5.51,0,0,1-5.49-5.49V377.79a5.51,5.51,0,0,1,5.49-5.49h262.08A5.51,5.51,0,0,1,1177.36,377.79Z"/><path class="cls-2" d="M1196,547.82c3,0,4,2,2.28,4.45l-89.6,124.14a12.1,12.1,0,0,1-8.71,4.45H778.8c-3,0-3.94-1.93-2.05-4.28L876.69,552.1a13,13,0,0,1,8.93-4.28H1196Z"/><g class="cls-9"><path class="cls-10" d="M1196,547.82c3,0,4,2,2.28,4.45l-89.6,124.14a12.1,12.1,0,0,1-8.71,4.45h-3c-3,0-4-2-2.28-4.45l89.6-124.14a12.1,12.1,0,0,1,8.71-4.45Z"/></g><path class="cls-2" d="M1182,547.82c3,0,4,2,2.28,4.45l-89.6,124.14a12.1,12.1,0,0,1-8.71,4.45H778.8c-3,0-3.94-1.93-2.05-4.28L876.69,552.1a13,13,0,0,1,8.93-4.28H1182Z"/><polygon class="cls-11" points="1200.07 548.62 1200.07 571.65 1104.12 706.08 1104.12 683.05 1200.07 548.62"/><path class="cls-10" d="M1150.46,567.19c.9-1.22.39-2.21-1.12-2.21h-254a6.11,6.11,0,0,0-4.37,2.21l-40.56,55.36c-.89,1.22-.39,2.21,1.12,2.21h253.72a6.14,6.14,0,0,0,4.38-2.21Z"/><path class="cls-12" d="M1177.36,436.7v81.55a5.51,5.51,0,0,1-5.49,5.49H909.79a5.51,5.51,0,0,1-5.49-5.49V436.7Z"/><polygon class="cls-13" points="1104.99 680.86 1104.99 705.47 1093.15 705.38 773.3 703.2 773.3 680.86 1104.99 680.86"/><path class="cls-11" d="M1018.2,488.94c-61.19,0-125.75-53.88-145.24-71.51l-.1.1-.1-.1c-19.49,17.63-84,71.51-145.24,71.51a98.73,98.73,0,0,1-13.29-.88c6.43,40.21,28.65,178.62,32.89,197.72l.09.38,0,.39c0,.12,1.78,12.07,17.11,28.76,15.11,16.45,46.18,40.09,108.5,59.73,61.07-19.25,92-42.33,107.24-58.38,15.8-16.65,18.21-29.21,18.37-30.15l0-.24.11-.49c4.24-19.09,26.46-157.51,32.89-197.72A98.74,98.74,0,0,1,1018.2,488.94Z"/><path class="cls-14" d="M872.87,750.22c-55.48-18.52-80.81-39.66-91.11-50.88-8.15-8.87-10.65-15.22-11.2-16.87l0-.24-.35-1.57c-2.9-13.06-15.78-91.45-28.23-168.89,51.21-5.5,130.91-63.19,130.91-63.19s79.7,57.7,130.91,63.2c-12.45,77.44-25.33,155.84-28.23,168.89l-.38,1.72c-.64,1.9-3.41,8.77-12.19,18C950.28,713.79,924.43,733,872.87,750.22Z"/><path class="cls-13" d="M872.86,417.53V775c-62.32-19.64-93.38-43.28-108.5-59.74-15.33-16.68-17.09-28.64-17.11-28.76l0-.39-.09-.38c-4.24-19.09-26.46-157.51-32.89-197.72a98.81,98.81,0,0,0,13.29.88c61.19,0,125.75-53.88,145.24-71.51Z"/><path class="cls-15" d="M872.86,448.57V750.22c-55.48-18.52-80.8-39.66-91.11-50.88-8.15-8.87-10.65-15.22-11.2-16.87l0-.24-.35-1.57c-2.9-13.06-15.78-91.45-28.23-168.88C793.16,506.27,872.86,448.57,872.86,448.57Z"/><path class="cls-16" d="M886.41,617h-27.1a36.56,36.56,0,0,1-36.52-36.52v-27.1a36.56,36.56,0,0,1,36.52-36.52h27.1a36.56,36.56,0,0,1,36.52,36.52v27.1A36.56,36.56,0,0,1,886.41,617Zm-27.1-86.4a22.82,22.82,0,0,0-22.79,22.79v27.1a22.82,22.82,0,0,0,22.79,22.79h27.1a22.82,22.82,0,0,0,22.79-22.79v-27.1a22.82,22.82,0,0,0-22.79-22.79Z"/><path class="cls-17" d="M859.32,530.58h13.55V516.85H859.32a36.56,36.56,0,0,0-36.52,36.52v27.1A36.56,36.56,0,0,0,859.32,617h13.55V603.25H859.32a22.81,22.81,0,0,1-22.79-22.79v-27.1A22.81,22.81,0,0,1,859.32,530.58Z"/><path class="cls-18" d="M936.53,673.07a5.51,5.51,0,0,1-5.49,5.49H814.68a5.51,5.51,0,0,1-5.49-5.49V581.63a5.51,5.51,0,0,1,5.49-5.49H931a5.51,5.51,0,0,1,5.49,5.49v91.44Z"/><path class="cls-19" d="M872.86,576.14V678.56H814.68a5.51,5.51,0,0,1-5.49-5.49V581.63a5.51,5.51,0,0,1,5.49-5.49Z"/><path class="cls-20" d="M869,626.35l-3,20.42h13.81l-3-20.42a9.63,9.63,0,1,0-7.8,0Z"/><path class="cls-21" d="M863.24,617.56a9.61,9.61,0,0,0,5.72,8.8l-3,20.42h6.91V607.93A9.63,9.63,0,0,0,863.24,617.56Z"/><path class="cls-22" d="M1201.23,353.72V542.33a5.51,5.51,0,0,1-5.49,5.49h-8.23V348.23h8.23A5.51,5.51,0,0,1,1201.23,353.72Z"/></g></svg>