<svg width="81" height="80" viewBox="0 0 81 80" fill="none" xmlns="http://www.w3.org/2000/svg">
<path d="M12.5415 37.5C14.4324 37.5 16.1438 36.7413 17.4084 35.5231L24.3463 38.9917C24.3115 39.2743 24.2603 39.552 24.2603 39.8438C24.2603 43.7207 27.4146 46.875 31.2915 46.875C35.1685 46.875 38.3228 43.7207 38.3228 39.8438C38.3228 38.7616 38.0566 37.7484 37.6178 36.8317L47.0294 27.42C47.9462 27.8589 48.9594 28.125 50.0415 28.125C53.9185 28.125 57.0728 24.9707 57.0728 21.0938C57.0728 20.3638 56.9293 19.6735 56.7218 19.0112L64.8993 12.8796C66.015 13.6249 67.3523 14.0625 68.7915 14.0625C72.6685 14.0625 75.8228 10.9082 75.8228 7.03125C75.8228 3.1543 72.6685 0 68.7915 0C64.9146 0 61.7603 3.1543 61.7603 7.03125C61.7603 7.76123 61.9037 8.45154 62.1112 9.11377L53.9337 15.2454C52.818 14.5001 51.4807 14.0625 50.0415 14.0625C46.1646 14.0625 43.0103 17.2168 43.0103 21.0938C43.0103 22.1759 43.2764 23.1891 43.7152 24.1058L34.3036 33.5175C33.3868 33.0786 32.3737 32.8125 31.2915 32.8125C29.4006 32.8125 27.6892 33.5712 26.4246 34.7894L19.4867 31.3208C19.5215 31.0382 19.5728 30.7605 19.5728 30.4688C19.5728 26.5918 16.4185 23.4375 12.5415 23.4375C8.66455 23.4375 5.51025 26.5918 5.51025 30.4688C5.51025 34.3457 8.66455 37.5 12.5415 37.5V37.5Z" fill="#138690"/>
<path d="M78.3228 75.3125H75.8228V25.7812C75.8228 24.4861 74.7742 23.4375 73.479 23.4375H64.104C62.8088 23.4375 61.7603 24.4861 61.7603 25.7812V75.3125H57.0728V39.8438C57.0728 38.5486 56.0242 37.5 54.729 37.5H45.354C44.0588 37.5 43.0103 38.5486 43.0103 39.8438V75.3125H38.3228V58.5938C38.3228 57.2986 37.2742 56.25 35.979 56.25H26.604C25.3088 56.25 24.2603 57.2986 24.2603 58.5938V75.3125H19.5728V49.2188C19.5728 47.9236 18.5242 46.875 17.229 46.875H7.854C6.55884 46.875 5.51025 47.9236 5.51025 49.2188V75.3125H3.01025C1.71509 75.3125 0.666504 76.3611 0.666504 77.6562C0.666504 78.9514 1.71509 80 3.01025 80H78.3228C79.6179 80 80.6665 78.9514 80.6665 77.6562C80.6665 76.3611 79.6179 75.3125 78.3228 75.3125Z" fill="#138690"/>
</svg>
