<svg id="Layer_1" data-name="Layer 1" xmlns="http://www.w3.org/2000/svg" viewBox="0 0 552 743"><defs><style>.cls-1,.cls-2{fill:#138690;}.cls-2{stroke:#138690;stroke-miterlimit:10;}.cls-3{fill:#107f82;}</style></defs><title>logo</title><path class="cls-1" d="M28.76,582.69l4.11-5.75L227.21,208.19l.41-3.9L142,43.37c-7.18-13.48-27.39-10.07-29.74,5Z"/><path id="a" class="cls-1" d="M31.19,578.3l3.11-6.06L226.6,207.36,141.14,45.79c-7.1-13.34-25.14-9.94-27.47,5Z"/><path id="a-2" data-name="a" class="cls-2" d="M32.19,578.3l3.11-6.06L227.6,207.36,142.14,45.79c-7.1-13.34-25.14-9.94-27.47,5Z"/><path class="cls-1" d="M290.07,326l63.79-65.32L290,138.87c-6.06-11.53-23-11.56-29,0l-34.09,65v5.54L290.07,326Z"/><path id="c" class="cls-1" d="M288.93,323.28l62-63.51-62-118.08c-5.89-11.21-20.19-12.38-26-1.14l-34.27,66-1,3.38Z"/><path id="c-2" data-name="c" class="cls-2" d="M289.93,323.28l62-63.51-62-118.08c-5.89-11.21-20.19-12.38-26-1.14l-34.27,66-1,3.38Z"/><path class="cls-3" d="M29.76,582.69l1.86-1.87,6.77-2.75L287.06,330.32l3.15-8.58-62-118.21Z"/><path class="cls-1" d="M298,707.63,523.09,582.12,458.82,186.31a15.38,15.38,0,0,0-26.07-8.4l-404,404.78L252.53,707.62a46.7,46.7,0,0,0,45.51,0"/><path class="cls-2" d="M522.07,581.06l-63.78-392.8c-2-12.29-14.63-17.38-23.43-8.56L32.26,581.92l221.31,123.7a46.34,46.34,0,0,0,45.16,0L522.07,581.06Z"/><path class="cls-1" d="M298,703.93a46.7,46.7,0,0,1-45.51,0l-222-123.14-1.8,1.9L252.53,707.62a46.7,46.7,0,0,0,45.51,0L523.09,582.12l-.55-3.39L298,703.93Z"/></svg>