<svg id="Layer_1" data-name="Layer 1" xmlns="http://www.w3.org/2000/svg" xmlns:xlink="http://www.w3.org/1999/xlink" viewBox="0 0 562 680"><defs><style>.cls-1{fill:#138690;stroke:#138690;stroke-miterlimit:10;}.cls-2{fill:url(#linear-gradient);}.cls-3{fill:url(#linear-gradient-2);}.cls-4{opacity:0.44;isolation:isolate;fill:url(#radial-gradient);}</style><linearGradient id="linear-gradient" x1="10529.08" y1="26438.6" x2="10550.32" y2="26456.87" gradientTransform="translate(-97370.85 -247086.38) scale(9.26 9.35)" gradientUnits="userSpaceOnUse"><stop offset="0" stop-color="#5ca0d5"/><stop offset="1" stop-color="#316a99"/></linearGradient><linearGradient id="linear-gradient-2" x1="10558.57" y1="26467.91" x2="10550.99" y2="26457.18" gradientTransform="translate(-97370.85 -247086.38) scale(9.26 9.35)" gradientUnits="userSpaceOnUse"><stop offset="0" stop-color="#ffd43e"/><stop offset="1" stop-color="#ffe975"/></linearGradient><radialGradient id="radial-gradient" cx="-85901.71" cy="13216.53" r="5.65" gradientTransform="translate(-229105.99 -338688.81) rotate(-90) scale(3.95 17.36)" gradientUnits="userSpaceOnUse"><stop offset="0" stop-color="#b8b8b8" stop-opacity="0.5"/><stop offset="1" stop-color="#7f8080" stop-opacity="0"/></radialGradient></defs><title>LogoStroke4</title><path class="cls-1" d="M85.4,572.79c0-25.63-7.31-38.42-22-38.9-5.95-.44-11.43.92-16.93,2.75-4.59,1.36-7.31,3.2-8.7,4.59v60.39q13.72,8.92,24.72,8.23C77.61,608.46,85.4,596.12,85.4,572.79Zm17.85.92c0,12.82-2.75,23.33-9.15,32-6.87,9.62-16,14.65-28.36,14.65-9.15.44-18.29-2.75-27.91-8.7V666.6l-15.57-5.51V538.93a41.54,41.54,0,0,1,9.62-8.23c9.15-5.48,20.6-8.23,33.39-8.23,11.9,0,21.49,5,27.91,14.65,6.84,10.51,10.06,21.94,10.06,36.59Zm94.7,36.14c0,17.38-1.84,29.28-5,35.7-3.67,6.39-10.06,11.9-19.68,16a69.15,69.15,0,0,1-25.63,5L144.84,657a194.64,194.64,0,0,0,19.68-3.67c7.31-2.75,12.82-6.39,15.54-11.9,2.28-4.11,3.2-12.34,3.2-24.24v-4.11a77.15,77.15,0,0,1-33.39,7.31c-7.78,0-14.65-2.28-20.13-7.31a24.55,24.55,0,0,1-9.62-20.13v-64.5l15.54-5.48v65c0,6.87,2.28,12.34,6.87,16s10.06,5.48,17.38,5.48,14.65-2.75,22.88-8.23v-76h15.54Zm60.39,10.06h-5c-8.7,0-15.54-2.28-20.6-6.39s-7.31-10.06-7.31-17.38V534.84H214.88v-9.65h10.51V499.11l15.54-5.48v31.56h17.38v9.62H240.93V595.2c0,5.95,1.36,10.06,4.59,12.34,2.75,1.84,6.87,3.2,12.82,3.67Zm94.25-1.39H337V558.58c0-5.95-1.36-11.43-4.11-15.54-3.2-5-7.78-7.31-13.73-7.31-7.31,0-16,3.67-26.52,11.43V619H277.13V475.78l15.54-5v65c10.06-7.31,20.6-11,32.47-11A26.93,26.93,0,0,1,345.28,533a29.46,29.46,0,0,1,7.78,20.6ZM434.95,570c0-9.62-1.84-17.85-5.48-24.24-4.59-7.78-11-11.9-20.6-12.34-16.93.92-25.63,13.26-25.63,36.59,0,11,1.84,19.68,5.48,27,4.59,9.15,11.43,13.73,20.6,13.73C426.24,610.3,434.95,597,434.95,570Zm16.93,0c0,13.73-3.67,25.63-10.51,34.78-7.78,10.06-18.77,15.54-32,15.54-13.73,0-24.24-5-32-15.54-6.87-9.15-10.51-20.6-10.51-34.78,0-13.26,3.67-24.24,11.43-32.95,8.23-9.62,18.29-14.18,31.11-14.18s23.33,4.59,31.56,14.18Q451.86,550.81,451.88,570Zm89.22,48.49H525.56V555.39c0-6.87-2.28-12.34-6.39-16s-9.62-5.95-16.93-5.48c-7.31,0-14.65,2.75-21,7.31v78.24H465.64V539.37c8.7-6.39,16.93-11,24.72-12.82a77,77,0,0,1,18.77-2.75,72.49,72.49,0,0,1,10.51.92,30.06,30.06,0,0,1,14.65,7.78A21.8,21.8,0,0,1,540.68,548Z"/><path class="cls-2" d="M274.83,20.08a227.7,227.7,0,0,0-41.18,3.67c-36.59,6.39-43,19.68-43,44.85v32.95h86v11H158.61c-24.72,0-46.65,15.1-53.52,43.46-7.78,32.95-8.23,53.08,0,87.39,5.95,25.63,20.6,43.46,45.76,43.46H180.6V247.49c0-28.36,24.72-53.52,53.52-53.52h85.55c23.8,0,43-19.68,43-43.93V68.13c0-23.33-19.68-40.73-43-44.85C304.55,21,289.45,19.64,274.83,20.08ZM228.14,46.16a16.47,16.47,0,1,1-16,16.46C212.13,53.48,219,46.16,228.14,46.16Z"/><path class="cls-3" d="M373.19,111.59v38c0,29.75-25.16,54.44-54,54.44H233.65c-23.33,0-43,20.13-43,43.93v81.91c0,23.33,20.13,37.06,43,43.93,27,8.23,53.08,9.62,86,0,21.49-6.39,43-18.77,43-43.93V296.9H276.63v-11h129c24.72,0,34.31-17.38,43-43.46,9.15-27,8.7-52.6,0-87.39-5.95-24.72-17.85-43.46-43-43.46ZM324.68,318.86a16.47,16.47,0,1,1-16,16.46A16.3,16.3,0,0,1,324.68,318.86Z"/><path class="cls-4" d="M392.85,429.13c0,12.34-51.69,22.41-115.3,22.41s-115.3-10.06-115.3-22.41,51.69-22.41,115.3-22.41,115.3,10,115.3,22.41Z"/></svg>