<svg height="512" viewBox="0 0 64 64" width="512" fill="#138690" xmlns="http://www.w3.org/2000/svg"><g id="Credit_card-3" data-name="Credit card"><path d="m61 47v12a2.006 2.006 0 0 1 -2 2h-32a2.006 2.006 0 0 1 -2-2v-12z" fill="#57a4ff"/><path d="m25 41h36v6h-36z" fill="#46f8ff"/><path d="m61 37v4h-36v-4a2.006 2.006 0 0 1 2-2h32a2.006 2.006 0 0 1 2 2z" fill="#ff9811"/><path d="m51 7v3a5 5 0 0 1 -9.9 1 4.712 4.712 0 0 1 -.1-1v-2a4.712 4.712 0 0 0 -.1-1z" fill="#fee9ab"/><path d="m41.1 11h-10.1v-3a5 5 0 0 1 9.9-1 4.712 4.712 0 0 1 .1 1v2a4.712 4.712 0 0 0 .1 1z" fill="#ffc477"/><path d="m31 51h6v6h-6z" fill="#ff9811"/><path d="m37 19v9.53a1.974 1.974 0 0 1 -.21.89l-1.58 3.16a1.974 1.974 0 0 0 -.21.89v1.53h-8a2.006 2.006 0 0 0 -2 2v22a2.006 2.006 0 0 0 2 2h-20a2.006 2.006 0 0 1 -2-2v-25.53a1.974 1.974 0 0 0 -.21-.89l-1.58-3.16a1.974 1.974 0 0 1 -.21-.89v-9.53a2.006 2.006 0 0 1 2-2h30a2.006 2.006 0 0 1 2 2z" fill="#ff7956"/><path d="m13 3h23a4.985 4.985 0 0 0 -5 5v9h-22v-10a4 4 0 0 1 4-4z" fill="#fee9ab"/><path d="m7 21h26v8h-26z" fill="#46f8ff"/><g fill="#2488ff"><path d="m17 51h4v4h-4z"/><path d="m17 43h4v4h-4z"/><path d="m17 35h4v4h-4z"/><path d="m9 51h4v4h-4z"/><path d="m9 43h4v4h-4z"/><path d="m9 35h4v4h-4z"/></g><path d="m34 29v-8a1 1 0 0 0 -1-1h-26a1 1 0 0 0 -1 1v8a1 1 0 0 0 1 1h26a1 1 0 0 0 1-1zm-2-1h-24v-6h24z"/><path d="m13 34h-4a1 1 0 0 0 -1 1v4a1 1 0 0 0 1 1h4a1 1 0 0 0 1-1v-4a1 1 0 0 0 -1-1zm-1 4h-2v-2h2z"/><path d="m21 34h-4a1 1 0 0 0 -1 1v4a1 1 0 0 0 1 1h4a1 1 0 0 0 1-1v-4a1 1 0 0 0 -1-1zm-1 4h-2v-2h2z"/><path d="m21 42h-4a1 1 0 0 0 -1 1v4a1 1 0 0 0 1 1h4a1 1 0 0 0 1-1v-4a1 1 0 0 0 -1-1zm-1 4h-2v-2h2z"/><path d="m21 50h-4a1 1 0 0 0 -1 1v4a1 1 0 0 0 1 1h4a1 1 0 0 0 1-1v-4a1 1 0 0 0 -1-1zm-1 4h-2v-2h2z"/><path d="m13 42h-4a1 1 0 0 0 -1 1v4a1 1 0 0 0 1 1h4a1 1 0 0 0 1-1v-4a1 1 0 0 0 -1-1zm-1 4h-2v-2h2z"/><path d="m13 50h-4a1 1 0 0 0 -1 1v4a1 1 0 0 0 1 1h4a1 1 0 0 0 1-1v-4a1 1 0 0 0 -1-1zm-1 4h-2v-2h2z"/><path d="m59 34h-23v-.528a1.019 1.019 0 0 1 .1-.447l1.579-3.156a3.014 3.014 0 0 0 .321-1.341v-9.528a3 3 0 0 0 -3-3h-3v-4h8.341a6 6 0 0 0 11.659-2v-3a1 1 0 0 0 -1-1h-9.341a6.019 6.019 0 0 0 -5.659-4h-23a5.006 5.006 0 0 0 -5 5v9h-3a3 3 0 0 0 -3 3v9.528a3.022 3.022 0 0 0 .316 1.342l1.584 3.154a1.027 1.027 0 0 1 .1.448v25.528a3 3 0 0 0 3 3h52a3 3 0 0 0 3-3v-22a3 3 0 0 0 -3-3zm-17-26h8v2a4 4 0 0 1 -7.923.785 3.671 3.671 0 0 1 -.077-.785zm18 29v3h-34v-3a1 1 0 0 1 1-1h32a1 1 0 0 1 1 1zm-34 5h34v4h-34zm13.919-34.8.005.02a3.658 3.658 0 0 1 .076.78v2h-8v-2a4 4 0 0 1 7.919-.8zm-29.919-.2a3 3 0 0 1 3-3h18.531a5.987 5.987 0 0 0 -1.531 4v8h-20zm-4 52v-25.528a3.022 3.022 0 0 0 -.316-1.342l-1.579-3.154a1.027 1.027 0 0 1 -.105-.448v-9.528a1 1 0 0 1 1-1h30a1 1 0 0 1 1 1v9.528a1.019 1.019 0 0 1 -.1.447l-1.579 3.156a3.014 3.014 0 0 0 -.321 1.341v.528h-7a3 3 0 0 0 -3 3v22a2.966 2.966 0 0 0 .184 1h-17.184a1 1 0 0 1 -1-1zm53 1h-32a1 1 0 0 1 -1-1v-11h34v11a1 1 0 0 1 -1 1z"/><path d="m37 50h-6a1 1 0 0 0 -1 1v6a1 1 0 0 0 1 1h6a1 1 0 0 0 1-1v-6a1 1 0 0 0 -1-1zm-1 6h-4v-4h4z"/><path d="m40 51h4v2h-4z"/><path d="m46 51h12v2h-12z"/><path d="m40 55h18v2h-18z"/><path d="m12 8h16v2h-16z"/><path d="m12 12h16v2h-16z"/></g></svg>