<svg xmlns="http://www.w3.org/2000/svg" viewBox="0 0 292 292"><defs><style>.cls-1,.cls-13,.cls-15,.cls-16{fill:none;stroke-miterlimit:10;}.cls-1,.cls-15{stroke:#31140c;stroke-linecap:round;}.cls-1,.cls-13,.cls-16{stroke-width:2px;}.cls-2{fill:#a5403e;}.cls-3{fill:#31140c;}.cls-4{fill:#cfc393;}.cls-5{fill:#ffcabc;}.cls-6{fill:#fe5b44;}.cls-7{fill:#3e3377;}.cls-8{fill:#cdde00;}.cls-9{fill:#dfd2a8;}.cls-10{fill:#532623;}.cls-11{fill:#524b8e;}.cls-12{fill:#c1b081;}.cls-13{stroke:#dfd2a8;}.cls-14{fill:#b4a269;}.cls-15{stroke-width:5px;}.cls-16{stroke:#f9f6f4;}.cls-17{font-size:7.768px;fill:#fcfbfa;font-family:DINAlternate-Bold, DIN Alternate;font-weight:700;}.cls-18{fill:#fff;fill-rule:evenodd;}.cls-19{fill:#ffc2b7;}</style></defs><title>solution</title><g id="Windows"><path class="cls-1" d="M262.6,161.592s5.316-11.125.015-13.394-14.181-2.532-14.181-2.532l-.711-3.27s16.161.49,19.185,5.807-.017,14.876-.017,14.876"/><path class="cls-2" d="M180.15,220.415l4.883.006s.52-13.638,8.437-16.66,32.835-1.815,32.835-1.815a5.446,5.446,0,0,0,2.7-4.206c.172-2.862-4.271-3.709-7.942-3.881s-31.786-3.067-36.512,7.7S180.15,220.415,180.15,220.415Z"/><path class="cls-3" d="M235.619,122.61c-1.29,3.522-4.341,5.643-6.815,4.737s-3.434-4.5-2.144-8.018,4.341-5.642,6.815-4.736S236.909,119.089,235.619,122.61Z"/><path class="cls-4" d="M236.515,122.938c-1.047,2.859-3.524,4.581-5.532,3.845s-2.788-3.649-1.741-6.508,3.524-4.58,5.533-3.845S237.562,120.08,236.515,122.938Z"/><path class="cls-5" d="M169.164,134.2s.183-3.186-1.131-4.06-5.617-1.491-5.434-4.479a33.05,33.05,0,0,1,.724-6.342c.36-1.075,3.11-1.793,4.186-1.971a1.84,1.84,0,0,1,1.673.538l1.851,1.913s-1.855,1.97-1.856,3.166,3.225,1.5,4.241,1.8.36-1.135.36-1.135-1.313-1.974-.893-2.99,1.494-.3,1.494-.3a5.667,5.667,0,0,0,1.013,2.571c.836,1.017,2.627,2.6,2.266,5.232a43.094,43.094,0,0,0-.246,6.067Z"/><polygon class="cls-6" points="168.29 136.721 168.293 134.027 180.248 133.535 180.244 136.735 168.29 136.721"/><path class="cls-7" d="M222.406,140.8s-12.373,7.924-17.093,12.97-19.886,15.973-19.886,15.973l-4-34.015-14.144.825s-1.4,47.146,2.128,53.8,15.015,8.556,23.9,3.983S226.859,158,226.859,158Z"/><path class="cls-2" d="M76.44,213.9s5.058-6.392,18.191-5.873,17,5.913,17,5.913Z"/><polygon class="cls-3" points="107.133 170.495 96.686 177.338 90.926 208.865 99.681 208.875 101.9 181.746 108.473 176.249 107.133 170.495"/><polygon class="cls-2" points="109.694 139.012 101.936 150.116 112.495 192.726 128.328 188.198 109.694 139.012"/><polygon class="cls-6" points="107.172 135.642 127.482 191.396 135.062 189.047 112.898 134.301 107.172 135.642"/><path class="cls-8" d="M69.886,202.443s10.971-23.391,2.894-27.778-7.1,27.773-7.1,27.773Z"/><path class="cls-8" d="M60.462,198.728s-3.713-35.53-12.7-34.025,9.163,32.674,9.163,32.674Z"/><path class="cls-8" d="M67.195,200.083s5.27-44.781-2.977-47.569-10.13,24.656-5.941,42.339l.176,3.108Z"/><path class="cls-9" d="M57.414,214.047l15.658.018s3.035-3.533,3.38-10.436L51.88,194S54.224,205.793,57.414,214.047Z"/><path class="cls-5" d="M172.736,199.108s-5.444,1.309-7.632.9-9.6-.719-11.535,1a48.913,48.913,0,0,0-4.552,5.054l-.761,3.035,3.62,0,3.792-2.93s1.513,2.026,5.386,1.322,6.65.615,8.167-1l2.459.422Z"/><polygon class="cls-6" points="127.12 214.126 129.988 209.078 166.019 209.118 167.192 214.339 127.12 214.126"/><rect class="cls-2" x="133.608" y="206.304" width="1.347" height="4.209" transform="translate(-74.274 342.463) rotate(-89.937)"/><rect class="cls-2" x="144.048" y="201.265" width="1.347" height="14.312" transform="translate(-63.864 352.905) rotate(-89.935)"/><rect class="cls-2" x="154.992" y="206.329" width="1.347" height="4.209" transform="translate(-52.945 363.862) rotate(-89.935)"/><rect class="cls-2" x="160.38" y="206.335" width="1.347" height="4.209" transform="translate(-47.562 369.265) rotate(-89.937)"/><path class="cls-3" d="M271.28,184.15c-2.369,10.941-16.2,36.35-16.2,36.35l-33.169-.037s9.657-53.195,13.535-58.074,18.358-4.02,29.468-2.155q.454.076.879.172C275.891,162.7,273.586,173.506,271.28,184.15Z"/><path class="cls-10" d="M271.28,184.15c-2.369,10.941-16.2,36.35-16.2,36.35l-6.192-.007c-5.8-13.673,10.4-46.839,14-55.884a10.493,10.493,0,0,1,2.9-4.2C275.891,162.7,273.586,173.506,271.28,184.15Z"/><path class="cls-11" d="M250.76,165.1c-3.211,10.94-13.524,48.476-13.7,55.379l-39.9-.045s4.581-30.3,7.627-43.769c2.831-12.52,7.561-31.295,17.957-36.026a12.345,12.345,0,0,1,2.457-.824c4.849-1.072,15.181-3.492,21.656-.915a9.512,9.512,0,0,1,2.926,1.785C255.5,145.912,253.972,154.16,250.76,165.1Z"/><path class="cls-9" d="M246.852,138.9,218.1,163.661l4.641-23.021a12.345,12.345,0,0,1,2.457-.824C230.045,138.744,240.377,136.324,246.852,138.9Z"/><polygon class="cls-12" points="228.565 139.146 228.567 137.126 232.256 137.76 230.789 141.815 228.565 139.146"/><polygon class="cls-6" points="173.44 198.519 171.419 198.517 171.745 207.778 174.043 207.882 173.44 198.519"/><path class="cls-5" d="M233.085,111.819s-8.549,16.042-5.072,19.076,5.8,4.268,3.846,7.579,5.574.186,5.574.186l4.493-2.866,9.229-21.822s-1.453-5.5-8.243-6.295S234.039,109.938,233.085,111.819Z"/><path class="cls-6" d="M232.541,96.665l-5.617,4.483s-2.242,9.6,4.987,13l1.174-2.332s3.429,2.361,6.093.905,5.807-1.79,7.377-.441,1.114,7.522-.011,9.2,1.794,1.125-.229,3.929l-.789,3.276a22.664,22.664,0,0,0,5.62-6.526c2.362-4.15,6.184-9.2,1.364-15.376S244.093,105.77,232.541,96.665Z"/><polygon class="cls-6" points="229.908 141.814 218.105 157.599 218.098 163.717 223.995 159.402 230.609 142.376 229.908 141.814"/><path class="cls-7" d="M226.064,139.623,218.1,163.661s-3.585-6.515-1.9-9.095,2.586-4.262,2.586-4.262-2.239-4.6-.778-6.624S224.689,137.689,226.064,139.623Z"/><path class="cls-7" d="M243.3,138a71.854,71.854,0,0,0-25.2,25.666s9.24-4.255,12.6-7.17,1.9-4.6,1.9-4.6,14.307-5.239,15.135-12.769C247.726,139.122,244.416,137.342,243.3,138Z"/><path class="cls-11" d="M234.781,150.771c-2.53,3.87-12.658,26.588-14.01,30.965s-3.38,11.651-3.38,11.651-26.1,3.637-31.827,3.8a93.687,93.687,0,0,0-12.124,1.333l-.011,9.261s51.344,8.813,58.762.066,19.119-45.27,20.619-50.657,3.8-12.945-4.08-17.289S234.781,150.771,234.781,150.771Z"/><path class="cls-13" d="M199.853,211.084c13.806,1.119,28.577,1.148,32.3-3.238"/><path class="cls-13" d="M234.781,150.771c-2.53,3.87-12.658,26.588-14.01,30.965s-3.38,11.651-3.38,11.651-26.144,3.637-31.869,3.8"/><polygon class="cls-13" points="74.114 141.85 29.448 138.636 29.503 89.824 77.115 88.959 74.114 141.85"/><path class="cls-13" d="M125.79,198.461c0,.932-3.168,1.685-7.073,1.68s-7.071-.764-7.07-1.7,3.168-1.685,7.074-1.681S125.791,197.528,125.79,198.461Z"/><path class="cls-14" d="M139.268,192.909a1.5,1.5,0,0,0,0-3,1.5,1.5,0,0,0,0,3Z"/><polyline class="cls-13" points="111.647 198.571 114.66 214.28 123.92 214.29 125.338 199.117"/><path class="cls-9" d="M114.082,204.6l1.253,8.336,7.072.008.935-8.334a4.683,4.683,0,0,1-3.453.965C118.206,205.15,115.935,203.043,114.082,204.6Z"/><path class="cls-3" d="M251.779,126.164c-1.29,3.522-4.341,5.643-6.815,4.737s-3.434-4.5-2.144-8.018,4.341-5.642,6.815-4.736S253.069,122.643,251.779,126.164Z"/><path class="cls-2" d="M252.675,126.493c-1.047,2.858-3.524,4.58-5.532,3.844s-2.788-3.649-1.741-6.508,3.524-4.58,5.532-3.845S253.722,123.634,252.675,126.493Z"/><path class="cls-2" d="M248.442,117.938s3.4-10.594,1.379-13.624l-6.9-2s5.281-3.225,9.458.011-.818,17.493-.818,17.493Z"/><path class="cls-15" d="M244.29,129.9a7.287,7.287,0,0,1-8.535,3.694l-2.822-1.013"/><path class="cls-2" d="M234.574,132.609a.926.926,0,0,1-1.138.648l-1.461-.4a.927.927,0,0,1-.649-1.138h0a.927.927,0,0,1,1.138-.649l1.462.4a.926.926,0,0,1,.648,1.138Z"/><path class="cls-2" d="M206.753,220.445l4.882.006s.521-13.638,8.438-16.659,32.834-1.815,32.834-1.815a5.449,5.449,0,0,0,2.7-4.207c.172-2.862-4.271-3.709-7.942-3.881s-31.786-3.067-36.512,7.7S206.753,220.445,206.753,220.445Z"/><path class="cls-12" d="M230.609,142.376l1.479-4.616s8.1-3.034,10.793-2.807l0,2.862Z"/><path class="cls-13" d="M218.1,163.661s-7.827,23.462-9.744,30.947"/><path class="cls-1" d="M232.963,120.972s-2.726,3.629-.692,4.17"/><path class="cls-1" d="M232.02,127.877a1.878,1.878,0,0,0,2.74.681"/><path class="cls-1" d="M169.182,117.882s-4.324,1.24-4.493,2.166a48.758,48.758,0,0,0-.006,5.017"/><path class="cls-1" d="M169.82,118.541s-3.2,2.082-3.281,2.932a18.863,18.863,0,0,0,.353,3.208"/><path class="cls-1" d="M170.524,119.269s-2.233,2.214-2.352,2.972,1,2.442,1,2.442"/><path class="cls-1" d="M173.916,124.689s-1.909.607-1.827,2.2"/><path class="cls-1" d="M149.689,207.753s4.328-5.776,5.984-5.886a27.268,27.268,0,0,1,3.283,0"/><path class="cls-1" d="M157.1,204.08s-4.042.927-5.223,3.676"/><polygon class="cls-3" points="184.076 220.42 20.899 220.235 17.483 213.834 180.727 214.018 184.076 220.42"/><line class="cls-13" x1="109.677" y1="135.055" x2="130.996" y2="190.307"/><line class="cls-1" x1="52.531" y1="197.036" x2="75.72" y2="206.32"/><path class="cls-1" d="M56.12,176.05s3.847,13.893,4.343,21.317"/><path class="cls-1" d="M68.85,176.2s-.117,19.351-1.646,23.8"/><path class="cls-6" d="M62.512,152.373s-1.2-3.819.005-4.322,1.03,2.162,1.03,2.162,1.1-2.456,2.151-2.222,0,3.262,0,3.262,1.22-1.682,2.117-.727-3.37,2.915-3.37,2.915Z"/><path class="cls-6" d="M71.241,175.955s-1.2-3.819,0-4.322,1.03,2.162,1.03,2.162,1.1-2.456,2.151-2.222,0,3.262,0,3.262,1.221-1.682,2.118-.727-3.371,2.915-3.371,2.915Z"/><path class="cls-6" d="M46.826,166.532s-2.134-1.141-1.828-1.867,1.36.5,1.36.5-.565-1.526-.013-1.87,1.38,1.409,1.38,1.409-.185-1.243.606-1.21-.22,2.685-.22,2.685Z"/><polyline class="cls-16" points="62.895 155.103 61.443 157.985 64.234 157.616"/><line class="cls-16" x1="63.783" y1="156.221" x2="61.443" y2="157.985"/><polyline class="cls-16" points="60.525 166.55 59.072 169.432 61.864 169.063"/><line class="cls-16" x1="61.413" y1="167.667" x2="59.072" y2="169.432"/><polyline class="cls-16" points="48.736 168.557 47.284 171.439 50.075 171.07"/><line class="cls-16" x1="49.625" y1="169.675" x2="47.284" y2="171.439"/><polyline class="cls-16" points="53.78 174.793 52.328 177.675 55.119 177.306"/><line class="cls-16" x1="54.669" y1="175.91" x2="52.328" y2="177.675"/><polyline class="cls-16" points="67.264 162.853 65.811 165.735 68.603 165.366"/><line class="cls-16" x1="68.152" y1="163.971" x2="65.811" y2="165.735"/><polyline class="cls-16" points="61.518 181.705 60.066 184.587 62.857 184.218"/><line class="cls-16" x1="62.406" y1="182.822" x2="60.066" y2="184.587"/><polyline class="cls-16" points="65.043 191.137 63.591 194.02 66.382 193.651"/><line class="cls-16" x1="65.931" y1="192.255" x2="63.591" y2="194.02"/><polyline class="cls-16" points="64.895 172.785 63.443 175.667 66.234 175.298"/><line class="cls-16" x1="65.784" y1="173.902" x2="63.443" y2="175.667"/><polyline class="cls-16" points="72.295 180.202 70.843 183.084 73.634 182.715"/><line class="cls-16" x1="73.184" y1="181.319" x2="70.843" y2="183.084"/><polyline class="cls-16" points="73.297 187.779 71.845 190.661 74.636 190.292"/><line class="cls-16" x1="74.185" y1="188.897" x2="71.845" y2="190.661"/><polyline class="cls-16" points="54.948 184.391 53.496 187.273 56.287 186.904"/><line class="cls-16" x1="55.837" y1="185.509" x2="53.496" y2="187.273"/><path class="cls-3" d="M119.883,181.557l-6.389,2.214c-.1.033-.216-.059-.258-.178s0-.266.093-.3l6.389-2.215c.1-.033.217.059.258.178S119.98,181.523,119.883,181.557Z"/><path class="cls-3" d="M120.434,183.148l-6.388,2.214a.169.169,0,1,1-.111-.318l6.389-2.215a.16.16,0,0,1,.231.1C120.6,183.047,120.531,183.114,120.434,183.148Z"/><path class="cls-3" d="M120.986,184.739l-6.389,2.214c-.1.033-.217-.059-.258-.178a.236.236,0,0,1,.093-.3l6.388-2.214c.1-.033.217.058.259.178S121.083,184.705,120.986,184.739Z"/><path class="cls-3" d="M121.537,186.329l-6.389,2.214c-.1.034-.216-.058-.258-.177s0-.266.093-.3l6.389-2.214c.1-.033.217.059.258.178S121.634,186.3,121.537,186.329Z"/><polyline class="cls-13" points="110.165 95.596 98.402 95.583 100.698 66.078 121.059 63.738 121.035 85.153"/><polygon class="cls-13" points="135.231 111.672 109.544 111.179 109.574 84.738 130.988 84.762 135.231 111.672"/><path class="cls-13" d="M108.583,71.818a2.765,2.765,0,1,1-2.761-2.768A2.765,2.765,0,0,1,108.583,71.818Z"/><rect class="cls-13" x="105.966" y="72.069" width="5.831" height="5.831" transform="translate(33.774 183.781) rotate(-89.935)"/><rect class="cls-13" x="119.809" y="94.201" width="2.413" height="16.086" transform="translate(18.635 223.144) rotate(-89.935)"/><rect class="cls-13" x="120.307" y="98.323" width="1.81" height="15.684" transform="translate(14.91 227.257) rotate(-89.935)"/><rect class="cls-13" x="124.639" y="95.211" width="1.407" height="6.233" transform="translate(26.875 223.56) rotate(-89.936)"/><rect class="cls-9" x="118.213" y="83.343" width="6.032" height="14.477" transform="translate(30.511 211.709) rotate(-89.935)"/><text class="cls-17" transform="translate(43.76 124.967) rotate(0.065)">CALL<tspan x="-4.599" y="9.321">CENTER</tspan></text><rect class="cls-8" x="71.597" y="83.992" width="3.86" height="15.625" transform="translate(-44.083 90.316) rotate(-50.584)"/><path class="cls-18" d="M41.837,100.816a3.214,3.214,0,0,1,1.113-2.45,3.972,3.972,0,0,1,2.066-.987,1.578,1.578,0,0,1,1.36.431,12.869,12.869,0,0,1,1.94,2.3,13.277,13.277,0,0,1,.92,1.587,1.4,1.4,0,0,1-.378,1.8,3.887,3.887,0,0,1-.519.413,1.422,1.422,0,0,0-.654,1.95,7.4,7.4,0,0,0,2.965,3.919,15.382,15.382,0,0,0,2.189,1.194,1.235,1.235,0,0,0,1.625-.443,4.988,4.988,0,0,1,.564-.623,1.993,1.993,0,0,1,2.251-.373,3.424,3.424,0,0,1,.674.358c.873.623,1.742,1.252,2.6,1.9a1.845,1.845,0,0,1,.889,1.367,2.064,2.064,0,0,1-.152.962,4.82,4.82,0,0,1-3.362,2.661,1.7,1.7,0,0,1-1.127-.215c-1.052-.479-2.112-.946-3.13-1.491a24.119,24.119,0,0,1-9.494-8.982c-.683-1.137-1.292-2.317-1.91-3.491A4.087,4.087,0,0,1,41.837,100.816Z"/><path class="cls-18" d="M61.281,106.007c-.019.3-.025.511-.047.723a.513.513,0,0,1-.994.1c-.065-.3-.065-.607-.108-.909a9.988,9.988,0,0,0-1.657-4.581,6.952,6.952,0,0,0-3.953-2.6c-.825-.224-1.675-.36-2.517-.516-.423-.078-.581-.208-.555-.547s.241-.516.638-.508a9.175,9.175,0,0,1,7.07,3.267,8.487,8.487,0,0,1,2.012,4.286C61.241,105.171,61.25,105.633,61.281,106.007Z"/><path class="cls-18" d="M58.924,105.485c0,.077,0,.154,0,.23-.007.436-.171.587-.621.576-.292-.007-.46-.223-.476-.578A6.37,6.37,0,0,0,57,102.8a4.332,4.332,0,0,0-2.812-1.917c-.473-.133-.959-.221-1.441-.317-.358-.071-.522-.217-.533-.51-.016-.421.207-.667.624-.6a10.983,10.983,0,0,1,2.034.434A5.949,5.949,0,0,1,58.8,104.27a3.091,3.091,0,0,1,.076.426c.025.262.037.526.055.789Z"/><path class="cls-18" d="M56.578,104.915c-.007.043.009.189-.056.27a1.083,1.083,0,0,1-.45.393.461.461,0,0,1-.539-.373c-.065-.245-.087-.5-.152-.746a2.164,2.164,0,0,0-1.913-1.59c-.347-.028-.522-.143-.542-.357a.635.635,0,0,1,.452-.682,1.851,1.851,0,0,1,.676-.008A3.439,3.439,0,0,1,56.578,104.915Z"/><path class="cls-1" d="M230.649,107.537s.137,3.2,2.436,4.282"/><polygon class="cls-19" points="60.761 82.575 18.332 82.528 18.345 70.573 60.771 73.652 60.761 82.575"/><rect class="cls-16" x="28.44" y="70.081" width="2.862" height="13.638" transform="translate(-47.062 106.685) rotate(-89.935)"/><line class="cls-1" x1="2.265" y1="220.381" x2="290.182" y2="220.381"/></g></svg>