<svg xmlns="http://www.w3.org/2000/svg" xmlns:xlink="http://www.w3.org/1999/xlink" viewBox="0 0 292 292"><defs><style>.cls-1{mask:url(#mask);filter:url(#luminosity-noclip-5);}.cls-2,.cls-4,.cls-6,.cls-8{mix-blend-mode:multiply;}.cls-2{fill:url(#linear-gradient);}.cls-3{mask:url(#mask-2);filter:url(#luminosity-noclip-6);}.cls-4{fill:url(#linear-gradient-2);}.cls-5,.cls-7{mask:url(#mask-3);}.cls-5{filter:url(#luminosity-noclip-7);}.cls-6{fill:url(#linear-gradient-3);}.cls-7{filter:url(#luminosity-noclip-8);}.cls-8{fill:url(#linear-gradient-4);}.cls-9{isolation:isolate;}.cls-10{fill:#dedede;}.cls-11{fill:#d7d7d7;}.cls-12{fill:#b6b6b6;}.cls-13{opacity:0.43;}.cls-14{fill:url(#linear-gradient-5);}.cls-15{opacity:0.22;}.cls-16{fill:url(#linear-gradient-6);}.cls-17{fill:url(#linear-gradient-7);}.cls-18{fill:url(#linear-gradient-8);}.cls-19{fill:url(#linear-gradient-9);}.cls-20{fill:#477ee1;}.cls-21{fill:#3864b0;}.cls-22{fill:#2d4f88;}.cls-23{fill:url(#linear-gradient-10);}.cls-24{fill:#6d74b5;}.cls-25{fill:#575d90;}.cls-26{fill:#dba585;}.cls-27{fill:#d5d1c6;}.cls-28{fill:#282a3a;}.cls-29{fill:#f0c75e;}.cls-30{fill:#997761;}.cls-31{fill:#b59749;}.cls-32{fill:#fff;}.cls-33{mask:url(#mask-5);}.cls-34{fill:url(#linear-gradient-11);}.cls-35{mask:url(#mask-6);}.cls-36{fill:url(#linear-gradient-12);}.cls-37{mask:url(#mask-7);}.cls-38{fill:url(#linear-gradient-13);}.cls-39{mask:url(#mask-8);}.cls-40{fill:url(#linear-gradient-14);}.cls-41,.cls-58{mix-blend-mode:hard-light;}.cls-41{fill:url(#linear-gradient-15);}.cls-42{fill:#626584;}.cls-43{fill:#222f3f;}.cls-44{fill:#eebe63;}.cls-45{fill:#33457d;}.cls-46{fill:#393d3f;}.cls-47{fill:#c75454;}.cls-48{fill:#dba686;}.cls-49{fill:#394762;}.cls-50{fill:#26283a;}.cls-51{fill:#486b89;}.cls-52{fill:#827c77;}.cls-53{fill:#eedfd7;}.cls-54{fill:#586e9a;}.cls-55{fill:#e6d8d1;}.cls-56{fill:#c3b8b1;}.cls-57{fill:#273041;}.cls-59{fill:url(#linear-gradient-16);}.cls-60{fill:url(#linear-gradient-17);}.cls-61{fill:url(#linear-gradient-18);}.cls-62{fill:url(#linear-gradient-19);}.cls-63{fill:url(#linear-gradient-20);}.cls-64{fill:#457ad9;}.cls-65{fill:#385988;}.cls-66{fill:#4772b0;}.cls-67{fill:#5886c7;}.cls-68{fill:#807f7d;}.cls-69{fill:#2e3048;}.cls-70{fill:#c7c5ce;}.cls-71{fill:#232536;}.cls-72{fill:#363957;}.cls-73{fill:#b68b72;}.cls-74{fill:#9d9ca3;}.cls-75{fill:#e7e4f0;}.cls-76{fill:#3e4265;}.cls-77{fill:#ebddd6;}.cls-78{fill:#cfc3bc;}.cls-79{fill:url(#linear-gradient-21);}.cls-80{fill:url(#linear-gradient-22);}.cls-81{fill:url(#linear-gradient-23);}.cls-82{fill:#e9a55b;}.cls-83{fill:#e8a35b;}.cls-84{fill:#838383;}.cls-85{fill:#dcd0c8;}.cls-86{fill:#222333;}.cls-87{fill:#292a3f;}.cls-88{fill:#2d2f46;}.cls-89{fill:#252638;}.cls-90{fill:#525686;}.cls-91{fill:#cfc3bd;}.cls-92{fill:#1f2531;}.cls-93{fill:#6c6760;}.cls-94{fill:#8c867f;}.cls-95{fill:#6d6865;}.cls-96{fill:#cb4949;}.cls-97{fill:#c4957a;}.cls-98{fill:#191a24;}.cls-99{fill:#8e633f;}.cls-100{fill:#98a246;}.cls-101{fill:#765334;}.cls-102{fill:#b27a4b;}.cls-103{filter:url(#luminosity-noclip-3);}.cls-104{filter:url(#luminosity-noclip-2);}.cls-105{filter:url(#luminosity-noclip);}</style><filter id="luminosity-noclip" x="263.858" y="-8566.5" width="10.78" height="32766" filterUnits="userSpaceOnUse" color-interpolation-filters="sRGB"><feFlood flood-color="#fff" result="bg"/><feBlend in="SourceGraphic" in2="bg"/></filter><mask id="mask" x="263.858" y="-8566.5" width="10.78" height="32766" maskUnits="userSpaceOnUse"><g class="cls-105"/></mask><linearGradient id="linear-gradient" x1="-4568.296" y1="126.616" x2="-4567.388" y2="170.496" gradientTransform="matrix(-1, 0, 0, 1, -4298.518, 0)" gradientUnits="userSpaceOnUse"><stop offset="0" stop-color="#fff"/><stop offset="1"/></linearGradient><filter id="luminosity-noclip-2" x="274.007" y="-8566.5" width="4.493" height="32766" filterUnits="userSpaceOnUse" color-interpolation-filters="sRGB"><feFlood flood-color="#fff" result="bg"/><feBlend in="SourceGraphic" in2="bg"/></filter><mask id="mask-2" x="274.007" y="-8566.5" width="4.493" height="32766" maskUnits="userSpaceOnUse"><g class="cls-104"/></mask><linearGradient id="linear-gradient-2" x1="-4575.299" y1="126.761" x2="-4574.391" y2="170.64" xlink:href="#linear-gradient"/><filter id="luminosity-noclip-3" x="44.993" y="-8566.5" width="9.153" height="32766" filterUnits="userSpaceOnUse" color-interpolation-filters="sRGB"><feFlood flood-color="#fff" result="bg"/><feBlend in="SourceGraphic" in2="bg"/></filter><mask id="mask-3" x="44.993" y="-8566.5" width="9.153" height="32766" maskUnits="userSpaceOnUse"><g class="cls-103"/></mask><linearGradient id="linear-gradient-3" x1="-4343.048" y1="40.029" x2="-4353.577" y2="79.415" xlink:href="#linear-gradient"/><linearGradient id="linear-gradient-4" x1="-4344.592" y1="42.723" x2="-4352.746" y2="73.226" xlink:href="#linear-gradient"/><linearGradient id="linear-gradient-5" x1="-4499.815" y1="180.767" x2="-4329.769" y2="180.767" gradientTransform="matrix(-1, 0, 0, 1, -4298.518, 0)" gradientUnits="userSpaceOnUse"><stop offset="0" stop-color="#eebe63"/><stop offset="1" stop-color="#dc3b57"/></linearGradient><linearGradient id="linear-gradient-6" x1="-4499.815" y1="176.166" x2="-4329.679" y2="176.166" gradientTransform="matrix(-1, 0, 0, 1, -4298.518, 0)" gradientUnits="userSpaceOnUse"><stop offset="0" stop-color="#81d3e4"/><stop offset="1" stop-color="#6076fa"/></linearGradient><linearGradient id="linear-gradient-7" x1="-4417.329" y1="122.257" x2="-4356.682" y2="122.257" gradientTransform="matrix(-1, 0, 0, 1, -4298.518, 0)" gradientUnits="userSpaceOnUse"><stop offset="0" stop-color="#a5d4fc"/><stop offset="1" stop-color="#cbe9fc"/></linearGradient><linearGradient id="linear-gradient-8" x1="-4418.338" y1="114.47" x2="-4357.887" y2="114.47" xlink:href="#linear-gradient-7"/><linearGradient id="linear-gradient-9" x1="-4407.098" y1="95.273" x2="-4441.28" y2="192.659" gradientTransform="matrix(-1, 0, 0, 1, -4298.518, 0)" gradientUnits="userSpaceOnUse"><stop offset="0" stop-color="#c5c9cd"/><stop offset="1" stop-color="#f5f0fc"/></linearGradient><linearGradient id="linear-gradient-10" x1="-4380.43" y1="207.671" x2="-4328.884" y2="282.204" gradientTransform="matrix(-1, 0, 0, 1, -4298.518, 0)" gradientUnits="userSpaceOnUse"><stop offset="0" stop-color="#80bffc"/><stop offset="1" stop-color="#cbe9fc"/></linearGradient><filter id="luminosity-noclip-5" x="263.858" y="149.631" width="10.78" height="5.239" filterUnits="userSpaceOnUse" color-interpolation-filters="sRGB"><feFlood flood-color="#fff" result="bg"/><feBlend in="SourceGraphic" in2="bg"/></filter><mask id="mask-5" x="263.858" y="149.631" width="10.78" height="5.239" maskUnits="userSpaceOnUse"><g class="cls-1"><polygon class="cls-2" points="272.112 154.871 263.858 154.871 266.385 149.631 274.638 149.631 272.112 154.871"/></g></mask><linearGradient id="linear-gradient-11" x1="-4568.296" y1="126.616" x2="-4567.388" y2="170.496" xlink:href="#linear-gradient-6"/><filter id="luminosity-noclip-6" x="274.007" y="149.631" width="4.493" height="5.239" filterUnits="userSpaceOnUse" color-interpolation-filters="sRGB"><feFlood flood-color="#fff" result="bg"/><feBlend in="SourceGraphic" in2="bg"/></filter><mask id="mask-6" x="274.007" y="149.631" width="4.493" height="5.239" maskUnits="userSpaceOnUse"><g class="cls-3"><polygon class="cls-4" points="275.974 154.871 274.007 154.871 276.534 149.631 278.5 149.631 275.974 154.871"/></g></mask><linearGradient id="linear-gradient-12" x1="-4575.299" y1="126.761" x2="-4574.391" y2="170.64" xlink:href="#linear-gradient-6"/><filter id="luminosity-noclip-7" x="44.993" y="57.113" width="9.153" height="3.53" filterUnits="userSpaceOnUse" color-interpolation-filters="sRGB"><feFlood flood-color="#fff" result="bg"/><feBlend in="SourceGraphic" in2="bg"/></filter><mask id="mask-7" x="44.993" y="57.113" width="9.153" height="3.53" maskUnits="userSpaceOnUse"><g class="cls-5"><rect class="cls-6" x="44.993" y="57.113" width="9.153" height="3.53"/></g></mask><linearGradient id="linear-gradient-13" x1="-4343.048" y1="40.029" x2="-4353.577" y2="79.415" xlink:href="#linear-gradient-6"/><filter id="luminosity-noclip-8" x="44.993" y="55.466" width="9.153" height="0.664" filterUnits="userSpaceOnUse" color-interpolation-filters="sRGB"><feFlood flood-color="#fff" result="bg"/><feBlend in="SourceGraphic" in2="bg"/></filter><mask id="mask-8" x="44.993" y="55.466" width="9.153" height="0.664" maskUnits="userSpaceOnUse"><g class="cls-7"><rect class="cls-8" x="44.993" y="55.466" width="9.153" height="0.664"/></g></mask><linearGradient id="linear-gradient-14" x1="-4344.592" y1="42.723" x2="-4352.746" y2="73.226" xlink:href="#linear-gradient-6"/><linearGradient id="linear-gradient-15" x1="-4519.233" y1="144.494" x2="-4519.233" y2="202.004" gradientTransform="matrix(-1, 0, 0, 1, -4298.518, 0)" gradientUnits="userSpaceOnUse"><stop offset="0" stop-color="#656e79"/><stop offset="1" stop-color="#f4f4f4"/></linearGradient><linearGradient id="linear-gradient-16" x1="-4519.404" y1="165.347" x2="-4519.404" y2="288.468" gradientTransform="matrix(1, 0, 0, -1, 4740.289, 327.428)" gradientUnits="userSpaceOnUse"><stop offset="0" stop-color="#4e607b"/><stop offset="1" stop-color="#f4f4f4"/></linearGradient><linearGradient id="linear-gradient-17" x1="-4505.972" y1="155.019" x2="-4503.972" y2="155.019" gradientTransform="matrix(1, 0, 0, -1, 4711.427, 310.037)" gradientUnits="userSpaceOnUse"><stop offset="0" stop-color="#d7e2fd"/><stop offset="1" stop-color="#f1fffd"/></linearGradient><linearGradient id="linear-gradient-18" x1="-4502.461" y1="153.537" x2="-4500.461" y2="153.537" gradientTransform="matrix(1, 0, 0, -1, 4704.405, 307.074)" xlink:href="#linear-gradient-17"/><linearGradient id="linear-gradient-19" x1="-4498.777" y1="154.312" x2="-4496.777" y2="154.312" gradientTransform="matrix(1, 0, 0, -1, 4697.036, 308.624)" xlink:href="#linear-gradient-17"/><linearGradient id="linear-gradient-20" x1="-4494.991" y1="156.112" x2="-4492.991" y2="156.112" gradientTransform="matrix(1, 0, 0, -1, 4689.465, 312.224)" xlink:href="#linear-gradient-17"/><linearGradient id="linear-gradient-21" x1="-4512.872" y1="196.963" x2="-4512.872" y2="187.277" gradientTransform="matrix(-1, 0, 0, 1, -4298.518, 0)" gradientUnits="userSpaceOnUse"><stop offset="0" stop-color="#e79d5a"/><stop offset="1" stop-color="#f2d05f"/></linearGradient><linearGradient id="linear-gradient-22" x1="-8272.63" y1="201.636" x2="-8267.476" y2="201.636" gradientTransform="translate(8485.436)" xlink:href="#linear-gradient-21"/><linearGradient id="linear-gradient-23" x1="-8267.158" y1="179.882" x2="-8262.24" y2="179.882" gradientTransform="translate(8485.436)" xlink:href="#linear-gradient-21"/></defs><title>solution</title><g class="cls-9"><g id="Windows"><rect class="cls-10" x="158.487" y="150.591" width="0.598" height="62.728"/><rect class="cls-10" x="115.975" y="150.591" width="0.598" height="62.728"/><rect class="cls-10" x="73.464" y="150.591" width="0.598" height="62.728"/><rect class="cls-11" x="191.115" y="142.861" width="10.182" height="1.635" transform="translate(392.412 287.357) rotate(180)"/><rect class="cls-11" x="186.854" y="145.883" width="14.444" height="1.635" transform="translate(388.151 293.402) rotate(180)"/><rect class="cls-11" x="147.289" y="142.861" width="11.955" height="1.635" transform="translate(306.533 287.357) rotate(180)"/><rect class="cls-11" x="151.6" y="145.883" width="7.644" height="1.635" transform="translate(310.844 293.402) rotate(180)"/><rect class="cls-11" x="108.567" y="142.861" width="7.408" height="1.635" transform="translate(224.543 287.357) rotate(180)"/><rect class="cls-11" x="107.341" y="145.883" width="8.634" height="1.635" transform="translate(223.317 293.402) rotate(180)"/><rect class="cls-11" x="62.674" y="142.861" width="10.79" height="1.635" transform="translate(136.137 287.357) rotate(180)"/><rect class="cls-11" x="64.83" y="145.883" width="8.634" height="1.635" transform="translate(138.294 293.402) rotate(180)"/><rect class="cls-12" x="152.022" y="217.035" width="6.764" height="2.18" transform="translate(310.808 436.249) rotate(180)"/><rect class="cls-12" x="109.212" y="217.035" width="6.764" height="2.18" transform="translate(225.187 436.249) rotate(180)"/><rect class="cls-12" x="66.701" y="217.035" width="6.763" height="2.18" transform="translate(140.164 436.249) rotate(180)"/><g class="cls-13"><path class="cls-14" d="M45.984,194.681c13.259,0,24.786-5.733,36.8-11.708,14.835-7.377,30.174-15.005,50.612-12.916,13.051,1.334,21.243,6.649,28.471,11.338,6.543,4.246,12.73,7.98,21.11,8.3,13.542.516,18.239-5.26,18.318-5.612v-3.707h0c-.017.064-2.973,6.547-18.3,6.47-7.55-.038-13.122-3.653-19.574-7.839-7.5-4.865-16-10.379-29.731-11.783-21.257-2.172-36.973,5.642-52.171,13.2-15.9,7.908-31.077,15.324-50.265,8.89v3.047A43.319,43.319,0,0,0,45.984,194.681Z"/></g><g class="cls-15"><path class="cls-16" d="M125.574,193.971c9.787,0,17.55-6.582,25.149-13.026,5.763-4.885,11.741-9.88,18.642-12.344,21.061-7.52,31.836,6.211,31.932,6.332v-4.177c-.114-.143-2.036-2.639-7.6-5.022-5.062-2.169-13.556-3.9-25.272.175-7.422,2.582-13.587,7.809-19.548,12.863-12.093,10.253-22.537,19.107-40.674,5.237-13.738-10.5-26.687-20.514-39.429-24.172-12.462-3.576-25.455-.958-37.616,11.2l.09,3.794c25.833-25.948,47.83-9.508,75.224,11.439C113.732,191.822,119.984,193.97,125.574,193.971Z"/></g><polygon class="cls-17" points="118.38 135.605 118.812 135.099 111.65 128.998 107.301 128.998 97.433 120.591 91.262 125.849 86.711 125.849 84.41 127.809 77.263 121.72 73.636 121.72 58.596 108.908 58.164 109.414 73.391 122.386 77.018 122.386 84.41 128.683 86.956 126.515 91.507 126.515 97.433 121.466 107.056 129.663 111.405 129.663 118.38 135.605"/><polygon class="cls-18" points="117.345 127.179 119.82 127.179 119.82 126.513 117.621 126.513 113.905 122.797 111.203 125.499 104.748 119.044 102.762 121.029 96.218 114.485 92.296 118.406 87.824 118.406 80.923 111.505 74.971 111.505 70.57 107.105 65.184 107.105 59.84 101.761 59.369 102.231 64.909 107.77 70.295 107.77 74.695 112.171 80.647 112.171 87.548 119.072 92.571 119.072 96.218 115.426 102.762 121.971 104.748 119.985 111.203 126.44 113.905 123.738 117.345 127.179"/><path class="cls-19" d="M50.945,171.294A79.42,79.42,0,0,0,71.432,206.86l-3.813,5.294,15.793,11.372,3.352-4.653A79.779,79.779,0,1,0,157.2,76.331l-.037-.014A79.441,79.441,0,0,0,137.8,71.37l-.015,0a.117.117,0,0,0-.026,0,79.986,79.986,0,0,0-42.3,6.344h0a79.833,79.833,0,0,0-44.2,50.935l-.012.042A79.318,79.318,0,0,0,50.945,171.294ZM75.792,135.64q.493-1.723,1.107-3.435a54.191,54.191,0,0,1,69.378-32.769q.788.28,1.559.585A54.255,54.255,0,1,1,75.792,135.64Z"/><path class="cls-20" d="M35.537,124.168l15.727,4.481,24.528,6.99q.493-1.722,1.107-3.434a54.092,54.092,0,0,1,28.95-31.235L95.464,77.714h0L94.37,75.267l-5.582-12.5A96.166,96.166,0,0,0,35.537,124.168Z"/><path class="cls-21" d="M94.37,75.267l1.092,2.447,10.387,23.256a54.14,54.14,0,0,1,28.785-4.317l3.128-25.283.327-2.652A82.68,82.68,0,0,0,94.37,75.267Z"/><path class="cls-22" d="M134.634,96.653a54.384,54.384,0,0,1,11.643,2.783q.788.28,1.559.585l9.325-23.7,2.823-7.175A87.033,87.033,0,0,0,138.725,63.7l-.016,0-.62,5.01-.327,2.652Z"/><polygon class="cls-23" points="32.781 255.35 64.229 255.35 86.085 224.999 65.375 210.088 32.781 255.35"/><path class="cls-24" d="M144.992,58.207a24.04,24.04,0,0,1,1.778-2.829c.644-.748,2.786-1.31,2.495-2.266s-3.161-.541-3.951.395-3.2,1.268-3.285,1.663a6.207,6.207,0,0,0,1.354,2.911A2.667,2.667,0,0,0,144.992,58.207Z"/><path class="cls-25" d="M149.809,59.968a23.121,23.121,0,0,1,2.734-1.894c.889-.431,3.078-.1,3.19-1.089s-2.686-1.752-3.783-1.207-3.442-.107-3.675.222a6.213,6.213,0,0,0,.087,3.21C148.7,59.74,149.809,59.968,149.809,59.968Z"/><path class="cls-26" d="M145.709,63.779s-.806-5.511-.769-6.467c.01-.273-1.658-.172-1.58.354.169,1.143-.6,5.572-.467,6.383S145.778,64.289,145.709,63.779Z"/><path class="cls-26" d="M148.234,65.363s1.51-5.351,1.862-6.241c.157-.4-1.382-1.009-1.591-.3-.327,1.108-2.764,4.876-2.963,5.673S148.094,65.858,148.234,65.363Z"/><path class="cls-27" d="M147.186,69.081s1.621-5.469,1.871-6.051L146.5,61.45s-1.185,3.493-1.351,4.366S147.186,69.081,147.186,69.081Z"/><path class="cls-28" d="M101.913,54.632a6.732,6.732,0,0,1,3.645,2.493c1.175,1.867,2.191,4.018,4.4,4.994A3.629,3.629,0,0,1,112.007,66c-.172.387-6.955,8.012-8.435,8.307s-4.251.09-3.955-1.869,3.2-6.174,1.571-8.3a11.27,11.27,0,0,1-2.041-4.084Z"/><path class="cls-26" d="M102.344,63.751a.959.959,0,0,1,.193-.035,1.414,1.414,0,0,1,.578.069,1.339,1.339,0,0,1,.226.113c.587.345,1.976,1.284,2.163,1.307.217.026.034-3.214.034-3.214a7.6,7.6,0,0,1-.833-2.169C104.612,58.96,102.344,63.751,102.344,63.751Z"/><path class="cls-27" d="M119.718,67.137a8.577,8.577,0,0,1,5.894-1.31c3.182.592,3.525,2.08,4.617,2.147s4.741-.244,7.735.629,5.52.967,5.863.717-1.871-5.24-1.871-5.926l3.712-.967s1.06,4.429,1.476,5.427c.445,1.068,1.3,3.078.083,4.824s-4.616.96-6.675,1.312-11.272.126-12.881.04c-1.747-.094-7.018-.343-7.018-.343Z"/><path class="cls-26" d="M97.431,57.275s-.173,2.681.422,3.485a3.808,3.808,0,0,0,.508.591,1.179,1.179,0,0,1,.339.491,9.364,9.364,0,0,0,.444,1.4c.159.169.622-.261.79-.262s1.8,1.408,2.191,1.12,2.773-2.706,2.572-4.363-.931-4.132-3.613-4.117S97.636,56.609,97.431,57.275Z"/><path class="cls-29" d="M105.537,70.069a11.913,11.913,0,0,0,2.118,2.6,2.262,2.262,0,0,0,1.333.645c.129,0,.254,0,.376,0,1.24.034,2.192.224,3.866.307,1.739.087,5.957-.155,6.082-.155s1.341.218,1.341.218c.437-.53-.717-6.519-.935-6.55a9.4,9.4,0,0,1-2.963.281c-1.342-.219-1.872-.343-3.868-2.683s-3.992-2.932-4.834-2.744a10.611,10.611,0,0,1-2.516,0S105.464,69.913,105.537,70.069Z"/><path class="cls-28" d="M98.558,59.2a5.951,5.951,0,0,1-.765,1.474s-.964-1.02-.345-3.538,2.957-2.754,4.465-2.5c1.878.319,3.769,6.673,3.672,7.292s-2.2-3.284-4.046-2.97S99.681,59.371,98.558,59.2Z"/><path class="cls-30" d="M102.537,63.716a1.444,1.444,0,0,1,.576.08,1.109,1.109,0,0,1,.228.1,10.712,10.712,0,0,0,.844-2.322A16.074,16.074,0,0,1,102.537,63.716Z"/><path class="cls-31" d="M107.655,72.668a2.262,2.262,0,0,0,1.333.645c.129,0,.254,0,.376,0l-.612-4.964Z"/><path class="cls-26" d="M97.95,81.216l1.2,1.089a42.038,42.038,0,0,0,4.119-2.84c.523-.445,4-3.358,4.483-4.022s1.093-7.525,1.031-7.839-3.027-.469-3.364.257c0,0-.155,3.913-.234,4.568a3.406,3.406,0,0,1-.776,1.8c-.622.762-1.946,2.533-3.227,3.965C100.873,78.533,98.345,80.876,97.95,81.216Z"/><path class="cls-29" d="M105.173,67.948s-.188-5.211,1.507-5.147c2.143.082,2.464,2.7,2.173,5.552C108.853,68.353,105.651,68.384,105.173,67.948Z"/><path class="cls-26" d="M98.527,80.706a.89.89,0,0,1-.391.329c-.4.135-.989-.125-1.28.4s1.114,1.828,1.491,1.907.982-.508,1.455-1.667S98.527,80.706,98.527,80.706Z"/><path class="cls-26" d="M96.98,81.27a18,18,0,0,0-1.441,1.246c-.636.614-1.283,1.421-1.12,1.573.223.208.657-.484,1.328-1.054.617-.523.582-.321.582-.321s.007-.058-.556.638c-.606.748-1.232,1.637-1.045,1.765.117.081.122.1.387-.136-.123.168-.094.224-.029.278.338.284,1.4-.685,1.821-1.07-.322.3-.527.549-.2.587.374.044,1.813-1.39,2.378-1.857C99.7,82.41,96.98,81.27,96.98,81.27Z"/><path class="cls-10" d="M118.5,67.375a31.241,31.241,0,0,1,.29,6.118,1.033,1.033,0,0,1-.891.043,57.5,57.5,0,0,0-.481-6.066S117.6,67.332,118.5,67.375Z"/><rect class="cls-10" x="117.92" y="39.294" width="0.443" height="31.183"/><rect class="cls-32" x="40.551" y="200.808" width="8.584" height="0.602"/><rect class="cls-32" x="40.551" y="201.942" width="8.584" height="2.53"/><rect class="cls-32" x="48.103" y="205.322" width="5.064" height="0.378"/><rect class="cls-32" x="48.103" y="205.866" width="5.064" height="1.024"/><rect class="cls-32" x="38.763" y="197.564" width="0.378" height="7.088"/><g class="cls-33"><polygon class="cls-34" points="272.112 154.871 263.858 154.871 266.385 149.631 274.638 149.631 272.112 154.871"/></g><g class="cls-35"><polygon class="cls-36" points="275.974 154.871 274.007 154.871 276.534 149.631 278.5 149.631 275.974 154.871"/></g><g class="cls-37"><rect class="cls-38" x="44.993" y="57.113" width="9.153" height="3.53"/></g><g class="cls-39"><rect class="cls-40" x="44.993" y="55.466" width="9.153" height="0.664"/></g><path class="cls-41" d="M191.211,137.244h59.008a2.834,2.834,0,0,0,2.835-2.834h0a2.834,2.834,0,0,0-2.835-2.834H191.211a2.834,2.834,0,0,0-2.834,2.835h0A2.834,2.834,0,0,0,191.211,137.244Z"/><polygon class="cls-42" points="154.065 215.048 121.222 215.048 131.573 246.836 130.605 247.151 119.82 214.03 154.804 214.03 165.486 246.836 164.518 247.151 154.065 215.048"/><polygon class="cls-42" points="142.887 246.836 153.238 215.048 120.396 215.048 109.942 247.151 108.974 246.836 119.657 214.03 154.64 214.03 143.855 247.151 142.887 246.836"/><rect class="cls-42" x="116.922" y="224.04" width="40.198" height="1.018"/><rect class="cls-42" x="113.168" y="235.092" width="48.093" height="1.018"/><path class="cls-26" d="M137.607,142.5s-.818-1.433.48-5.273a3.87,3.87,0,0,1,6.984-1c1.382,2.379.915,3.856-1.119,6.543S138.452,143.728,137.607,142.5Z"/><path class="cls-26" d="M147.7,208.563s.215,1.576.242,1.814,2.393-.14,2.393-.14l.191-1.877A13.246,13.246,0,0,0,147.7,208.563Z"/><path class="cls-43" d="M147.921,210.176a6.529,6.529,0,0,1-1.475,1.364c-.725.414-1.864.579-2.293,1.007-.31.31-1.127,1.642,1.884,1.615s4.463.188,4.785-.323-.466-3.77-.466-3.77A8.285,8.285,0,0,1,147.921,210.176Z"/><path class="cls-26" d="M131.322,208.563s.215,1.576.242,1.814,2.393-.14,2.393-.14l.192-1.877A13.255,13.255,0,0,0,131.322,208.563Z"/><path class="cls-43" d="M131.539,210.176a6.529,6.529,0,0,1-1.475,1.364c-.725.414-3.393.754-3.821,1.184-.31.309-.824,1.555,3.413,1.438,3.01-.082,4.462.188,4.785-.323s-.467-3.77-.467-3.77A12.443,12.443,0,0,1,131.539,210.176Z"/><path class="cls-44" d="M146.907,169.3a23.419,23.419,0,0,1,1.054,7.019c-.16,3.248.627,6.8.949,10.2.358,3.783,1.826,12.739,1.879,14.763s-.228,8.486-.228,8.486l-2.938.071s-2.467-15.658-3.107-17.256-3.808-12.988-3.914-14.266S146.907,169.3,146.907,169.3Z"/><path class="cls-44" d="M134.725,168.905s-1.783,9.967-2,11.955-.355,9.622-.462,10.865-.71,16.261-1.278,18.108h3.276s3.363-10.918,3.363-16.084,2.228-11.231,3.666-14.639,4.729-3.489,5.613-9.813C146.907,169.3,135.922,166.9,134.725,168.905Z"/><path class="cls-26" d="M138.8,143.514a2.852,2.852,0,0,1,0,1.843c-.37.767,4.721.307,4.721.307a5.478,5.478,0,0,1,.435-2.891C144.617,141.468,138.8,143.514,138.8,143.514Z"/><path class="cls-44" d="M147.143,170.119s-1.83,1.881-12.582-.293l.164-.921,12.222.46Z"/><path class="cls-26" d="M138.025,145.606s-1.88.192-2.417.294-4.154-.647-4.9-.724a15.145,15.145,0,0,1-4.007-2.5,52.4,52.4,0,0,1-2.027-5.867c-.1-1-1.775-.483-1.632.205.268,1.286.613,4.408.8,5.313a14.153,14.153,0,0,0,1.057,3.462,22.033,22.033,0,0,0,5.944,3.36,23.707,23.707,0,0,1,4.888,2.277H149.48s5.345-7.641,5.46-8.792-3.733-8.8-4.5-9.762-1.877.313-1.877.313,2.3,6.747,2.606,7.707-2.675,5.174-3.493,5.187-2.921-.256-3.855-.294a6.523,6.523,0,0,1-1.919-.448Z"/><path class="cls-45" d="M132.1,150.71a4.436,4.436,0,0,1,1.835,3.037,39.853,39.853,0,0,0,1.075,5.986c.307,1.036-.269,8.557-.345,9.095s10.634,1.814,12.279.537c0,0,.461-7.022.653-9.018a52.326,52.326,0,0,1,1.419-7.483c.307-.652,4.03-5.873,4.183-6.561,0,0-1.925-3.071-3.307-3.109,0,0-2.194,2.571-2.909,2.686a40.238,40.238,0,0,1-5.1-.695s-.479.652-3.023-.116c0,0-3.03.342-3.523.405-.6.076-4.746-.521-4.746-.521s-1.664,2.811-1.373,4.23Z"/><path class="cls-26" d="M124.774,137.409s-.376-1.779.077-2.289c.257-.291.876-1.061.932-1.174s.721-.5.721-.678-.65-.41-1.215.113-.919.636-1.145.579a7.025,7.025,0,0,1-.58-2.4c-.028-.466-.208-1.7-.5-1.611s-.277.622-.277.622-.34-.933-.566-.75-.2.637-.2.637-.424-.524-.537-.142a1.32,1.32,0,0,0,0,.721s-.438-.24-.466.353a9.013,9.013,0,0,0,.438,2.955,23.3,23.3,0,0,1,1.614,2.884C123.211,137.862,124.774,137.409,124.774,137.409Z"/><path class="cls-26" d="M148.936,134.285a11.713,11.713,0,0,0-1.713-2.341,7.379,7.379,0,0,1-1.587-.684c-.537-.384-1.247-.7-1.208-.832s.671-.076,1.349.218.976.152,1.04,0a3.982,3.982,0,0,0-.567-1.493c-.2-.256-1.662-1.723-1.419-1.94s1.189.588,1.343.755c0,0-.755-1.586-.461-1.663s.844.486.844.486-.063-1.356,1.4.844c0,0-.307-.729.141-.486s.882,1.612,1.023,2.3a10.438,10.438,0,0,0,1.323,3.422C150.983,133.4,148.936,134.285,148.936,134.285Z"/><path class="cls-46" d="M143.952,142.773a5.825,5.825,0,0,1-2.106-.435c-1.433-.5-1.54-3-1.85-2.7a.905.905,0,0,1-1.468-.17s.7-.921.376-1.365a3.441,3.441,0,0,0-.852-.767s1.008-4.857,5.593-2.644C149.018,137.281,143.952,142.773,143.952,142.773Z"/><path class="cls-45" d="M138.8,145.357l.161-.7a37.21,37.21,0,0,1,4.524.173l.168.839A6.287,6.287,0,0,1,138.8,145.357Z"/><path class="cls-26" d="M139.518,139.02c.266-.441,1.249-.739,1.364.512.09.97-1.757,2.03-1.774,1.126A2.731,2.731,0,0,1,139.518,139.02Z"/><path class="cls-47" d="M124.7,137.005a2.92,2.92,0,0,0-1.568.488,1.052,1.052,0,0,0,.085.526,6.529,6.529,0,0,1,1.618-.507S124.827,137.128,124.7,137.005Z"/><path class="cls-46" d="M123.459,137.268a.454.454,0,1,0,.595-.242A.455.455,0,0,0,123.459,137.268Z"/><path class="cls-48" d="M40.035,161.9s.937.125.93-.272-.072-.914-.072-.914Z"/><path class="cls-48" d="M34.767,157.6l3.077,2.381c-.392-.074-1.049-.168-1.064.037-.021.293,1.17.646,1.547.912.346.244.709.679.806.7l.672.576,1.088-1.49s-1.8-2.032-2.229-2.466c-.7-.7-3.55-1.118-3.706-1.016C34.677,157.415,34.767,157.6,34.767,157.6Z"/><path class="cls-49" d="M38.565,162.3l2.481-2.1,8.512,8.6c1.332.917-2.6,4.074-3.709,4.762-2.853,1.769-6.219,5.863-9.709,3.367-3.785-2.707,1.725-4.633,3.562-4.585,1.591.04,5.059-3.091,5.059-3.091Z"/><path class="cls-50" d="M43.057,239.48a6.932,6.932,0,0,0,2.849,1.8c1.436.311,2.44.708,2.451,1.56s-4.132,1.414-5.774.555c-2.452-1.282-2.7-.9-2.973-1.537s.326-2.354.309-2.558C39.9,239.044,43.057,239.48,43.057,239.48Z"/><path class="cls-51" d="M42.9,238.77a5.961,5.961,0,0,1,.159.71c-.028.015-3.235.374-3.138-.184.078-.453.191-.945.191-.945Z"/><path class="cls-50" d="M27.083,239.867a5.009,5.009,0,0,0,2.432,1.78c1.372.33,2.261.955,2.328,1.784s-3.235,1.912-5.555.457c-1.524-.955-2.092-.9-2.4-1.508s.16-2.31.13-2.507C23.981,239.629,27.083,239.867,27.083,239.867Z"/><path class="cls-51" d="M27.041,239.152a6.362,6.362,0,0,1,.042.715c-.026.016-3.083.557-3.064.006a4.241,4.241,0,0,1,.193-.982Z"/><path class="cls-52" d="M39.663,196.992s1.485,10.789,2.092,14.436c.709,4.264.949,7.788,1.147,10,.249,2.776.579,16.983.753,17.795s-4.326.389-4.326.389-2.357-18.52-3.1-21.477c-.69-2.753-2.7-14.643-3.329-13.892s-2.557,14.222-3.023,16.393-1.716,19.262-1.716,19.262-4.245.681-5.1,0c0,0,.67-15.24.967-19.31.113-1.551-.981-18.572,1.642-25.435C27.058,191.52,39.663,196.992,39.663,196.992Z"/><path class="cls-44" d="M35.305,171.118s3.93.812,4.4,1.226c.506.439,1.4,4.744,1.452,5.943a46.322,46.322,0,0,1-.98,8.073c-.506,1.865-.513,9.935-.193,12.519a52.846,52.846,0,0,1-15.351.537s1.061-7.85.749-10.4c-.4-3.275-1.359-10.819-1.359-10.819s-.006-4.247.6-4.926c1.291-1.456,6.253-2.148,6.253-2.148Z"/><path class="cls-49" d="M29.4,178.992c-.184,3.888-1.421,4.832-2.639,4.529a2.662,2.662,0,0,1-1.088-.6,3.422,3.422,0,0,1-1.07-1.665c-.533-2.166-.537-8.136,2.194-8.9C26.8,172.354,29.763,171.4,29.4,178.992Z"/><path class="cls-53" d="M41.158,180.758s-2.194-.364-2.327,2.816-1.51,9.088-3.754,11.442l8.824.335c2.243-2.354,3.345-7.992,3.513-11.171.153-2.922,2.326-2.816,2.326-2.816Z"/><path class="cls-49" d="M36.01,173.475a1.467,1.467,0,0,1-.162.094,2.27,2.27,0,0,1-.771.21,2.724,2.724,0,0,1-.35.014c-.072,0-.143-.006-.215-.013-2.081-.2-4.146-2.583-4.146-2.583,4.177-.633,5.968.145,5.968.145S37,172.806,36.01,173.475Z"/><path class="cls-26" d="M35.117,159.078s4.942-.991,3.672,5.169-2.464,6.618-5.4,5.267-2.575-5.308-2.678-7.256S33.547,159.109,35.117,159.078Z"/><path class="cls-26" d="M35.923,171.968s-.972.644-4.662-.981a12.926,12.926,0,0,0-.2-4.595c-.547-2.314,4.532,2.853,4.532,2.853-.059.042-.07.278-.036.607.009.09.021.185.037.285.026.169.062.352.106.539.012.051.025.1.038.152A2.371,2.371,0,0,1,35.923,171.968Z"/><path class="cls-46" d="M30.875,165.439s.248-1.66.961-1.7.918.97.918.97l.56.058s-.232-1.758.486-2.04,4.6.677,5.179.189.3-3.731-.725-4.23-3.745-1.858-5.867-.494c0,0-1.623-.225-1.9,1.083A18.055,18.055,0,0,0,30.875,165.439Z"/><path class="cls-26" d="M32.728,163.154a.675.675,0,0,0-1.313.192c-.018.885.734,2.372,1.161,2.183S32.893,163.953,32.728,163.154Z"/><path class="cls-54" d="M31.263,170.288a11.845,11.845,0,0,0,3.836,1.425l-1.015,1.619-3.215-2.214Z"/><path class="cls-54" d="M35.738,170.829a1.659,1.659,0,0,1-.639.884l.954,1.329-.035-1.763Z"/><path class="cls-32" d="M35.1,171.713l.755,1.052s-.477.6-1.506.147Z"/><path class="cls-32" d="M35.848,173.569a2.27,2.27,0,0,1-.771.21,2.724,2.724,0,0,1-.35.014l.114-.981h.7A3.187,3.187,0,0,1,35.848,173.569Z"/><path class="cls-30" d="M35.721,170.766c-2.187.116-3.587-2.153-3.629-2.219a5.548,5.548,0,0,0,3.5,1.59C35.619,170.306,35.677,170.578,35.721,170.766Z"/><path class="cls-55" d="M41.158,180.758s2.626.244,2.07,3.909l7.8.422a2.882,2.882,0,0,0-1.284-3.725Z"/><rect class="cls-56" x="44.187" y="183.292" width="6.096" height="0.317" transform="translate(9.922 -2.272) rotate(3.079)"/><rect class="cls-56" x="43.664" y="181.884" width="6.096" height="0.317" transform="translate(9.846 -2.246) rotate(3.079)"/><rect class="cls-56" x="43.288" y="182.122" width="0.318" height="6.096" transform="translate(-143.79 218.607) rotate(-86.921)"/><rect class="cls-56" x="42.525" y="184.253" width="0.317" height="6.096" transform="translate(-146.639 219.866) rotate(-86.922)"/><rect class="cls-56" x="41.762" y="186.384" width="0.317" height="6.096" transform="translate(-149.49 221.117) rotate(-86.921)"/><rect class="cls-56" x="40.999" y="188.516" width="0.318" height="6.096" transform="translate(-152.341 222.372) rotate(-86.921)"/><rect class="cls-56" x="40.236" y="190.647" width="0.317" height="6.096" transform="translate(-155.193 223.615) rotate(-86.917)"/><path class="cls-26" d="M34.4,187.608a1.066,1.066,0,0,0,.632.079c.506-.137.938-.841,1.6-.479s.106,2.785-.23,3.141-1.369.147-2.658-.777S34.4,187.608,34.4,187.608Z"/><path class="cls-26" d="M36.393,187.119a21.793,21.793,0,0,1,2.353.327c1.083.216,2.4.635,2.346.908-.077.415-1.115-.051-2.2-.193-1-.13-.826.066-.826.066s-.046-.059,1.018.3c1.144.383,2.356.842,2.319,1.066-.046.278-.076.309-.514.239.244.095.252.176.222.282-.155.549-1.923.252-2.626.133.539.095.925.222.613.5-.358.314-2.839-.221-3.746-.326C34.359,190.3,36.393,187.119,36.393,187.119Z"/><path class="cls-49" d="M27.672,172.431c.8.263,1.232,1.4.743,3.753a15.169,15.169,0,0,1-1.493,4.484c-.348.613-2.23,3.754-1.886,4.252s4.89,1.68,5.2,1.768c.616.175,4.741,1,4.741,1l-1.01,3.532s-12.558-2.142-13.17-2.753-.93-1.44-.254-3.575c.687-2.171,1.922-7.252,2.142-7.649S24.054,171.242,27.672,172.431Z"/><path class="cls-57" d="M28.3,176.7a24.334,24.334,0,0,1-1.54,6.823,2.662,2.662,0,0,1-1.088-.6s1.453-2.622,1.583-2.92S28.157,177.392,28.3,176.7Z"/><g class="cls-58"><rect class="cls-59" x="188.904" y="140.913" width="63.964" height="45.602" rx="22.801" transform="translate(441.772 327.428) rotate(180)"/></g><rect class="cls-60" x="205.455" y="149.461" width="2" height="11.116" transform="translate(412.909 310.037) rotate(180)"/><rect class="cls-61" x="201.944" y="146.497" width="2" height="14.08" transform="translate(405.887 307.074) rotate(180)"/><rect class="cls-62" x="198.259" y="148.047" width="2" height="12.529" transform="translate(398.518 308.624) rotate(180)"/><rect class="cls-63" x="194.474" y="151.647" width="2" height="8.93" transform="translate(390.947 312.224) rotate(180)"/><rect class="cls-64" x="205.455" y="153.527" width="2" height="7.05" transform="translate(412.909 314.104) rotate(180)"/><rect class="cls-64" x="201.944" y="151.647" width="2" height="8.93" transform="translate(405.887 312.224) rotate(180)"/><rect class="cls-64" x="198.259" y="152.631" width="2" height="7.946" transform="translate(398.518 313.207) rotate(180)"/><rect class="cls-64" x="194.474" y="155.019" width="2" height="5.558" transform="translate(390.947 315.596) rotate(180)"/><path class="cls-32" d="M196.607,167.551h8.714a1.585,1.585,0,0,0,1.585-1.584h0a1.585,1.585,0,0,0-1.585-1.585h-8.714a1.585,1.585,0,0,0-1.584,1.585h0A1.584,1.584,0,0,0,196.607,167.551Z"/><path class="cls-32" d="M196.607,173.484h8.714a1.585,1.585,0,0,0,1.585-1.584h0a1.585,1.585,0,0,0-1.585-1.585h-8.714a1.585,1.585,0,0,0-1.584,1.585h0A1.584,1.584,0,0,0,196.607,173.484Z"/><path class="cls-32" d="M196.607,179.417h8.714a1.585,1.585,0,0,0,1.585-1.584h0a1.585,1.585,0,0,0-1.584-1.585h-8.715a1.585,1.585,0,0,0-1.584,1.585h0A1.584,1.584,0,0,0,196.607,179.417Z"/><path class="cls-32" d="M223.329,179.884a17.643,17.643,0,0,0,22.135-9.578c.156-.359.3-.727.435-1.1a17.655,17.655,0,1,0-22.57,10.679ZM216.811,158.8a13.237,13.237,0,1,1,24.927,8.915c-.1.28-.209.556-.326.825a13.237,13.237,0,0,1-24.6-9.74Z"/><path class="cls-65" d="M241.911,159.314,246.129,158A17.682,17.682,0,0,0,229.8,145.608l-.132,4.417a13.256,13.256,0,0,1,12.24,9.289Z"/><path class="cls-66" d="M241.412,168.542l4.052,1.764c.156-.359.3-.727.435-1.1a17.58,17.58,0,0,0,.23-11.208l-4.218,1.317a13.178,13.178,0,0,1-.173,8.4C241.639,168,241.529,168.273,241.412,168.542Z"/><path class="cls-67" d="M242.727,174.7a17.545,17.545,0,0,0,2.737-4.394l-4.052-1.764a13.173,13.173,0,0,1-2.051,3.3Z"/><path class="cls-50" d="M194.638,238.163a12.506,12.506,0,0,0,1.07,1.686c.422.479,2.042,1.335,2.05,2.758.01,1.543-2.728,1.115-3.8,1.059s-1.152-.881-1.6-1.755-.906-.725-.99-1.43a8.313,8.313,0,0,1,.436-2.318Z"/><path class="cls-68" d="M191.839,237.7a5.934,5.934,0,0,0-.1.674c.025.016,3.036.554,3.018.007a2.63,2.63,0,0,0-.277-.94Z"/><path class="cls-26" d="M164.266,180.964a22.778,22.778,0,0,0-3.395-.528c-.236.137-.251.315.043.39s3.039.733,3.039.733-3.83-.139-4.05-.072c-.128.039-.177.382-.022.437s3.955.419,3.955.419-3.576-.124-3.74-.01a.266.266,0,0,0,.153.459c.266.028,3.589.338,3.589.338a13.714,13.714,0,0,0-2.678.265c-.049.114-.1.407.564.364s2.266.03,2.266.03Z"/><path class="cls-50" d="M178.324,237.934a6.454,6.454,0,0,1-2.659,1.782c-1.34.309-2.277.7-2.287,1.548s3.855,1.4,5.389.55c2.288-1.272,2.52-.888,2.774-1.524s-.305-2.336-.288-2.538C181.273,237.5,178.324,237.934,178.324,237.934Z"/><path class="cls-68" d="M178.473,237.23a6.1,6.1,0,0,0-.149.7c.026.015,3.019.371,2.929-.182-.074-.449-.178-.938-.178-.938Z"/><path class="cls-69" d="M181.194,195.909s-1.089,10.571-1.655,14.19c-.662,4.232-.886,7.728-1.07,9.918-.233,2.755-.278,16.305-.44,17.11s3.606.223,3.606.223,1.853-17.7,2.545-20.639c.644-2.732,3.034-14.492,3.621-13.746s1.316,13.724,1.751,15.878,1.759,19.021,1.759,19.021,3,.6,3.8-.078c0,0,.363-14.535.086-18.574-.106-1.539,1.8-18.457-.645-25.267C193.255,190.345,181.194,195.909,181.194,195.909Z"/><path class="cls-70" d="M199.852,197.41a8.567,8.567,0,0,1-2.6.416c-.769-.141-.38-9.572-.41-11.535a49.992,49.992,0,0,0-.894-5.794l0,.007v.011a40.226,40.226,0,0,0-1.3,6.772c-.043,2.175.284,10.494.284,10.494l-3.24.315-9.312.228-1.942-.229s.232-3.557.318-5.247c.054-1.074.263-3,.209-4.869a17.242,17.242,0,0,0-.162-2.825c-.021-3.753-.248-7.469-.248-7.469q-.189-2.551-.264-4.776c.411-.217.9-.471,1.3-.659,1.222-.582,2.925-1.366,4.017-1.867.641-.294,1.267-.509,1.267-.509s4.367-.418,4.722-.4a11.152,11.152,0,0,1,1.373.47,49.756,49.756,0,0,1,5.009,2.126c.7.5,2.172,12.36,2.239,13.191C200.325,186.761,199.852,197.41,199.852,197.41Z"/><path class="cls-71" d="M180.706,196.609a77.4,77.4,0,0,0,11.989,0v1.836s-8.406,1.214-12.269-.35Z"/><path class="cls-72" d="M181.524,172.122a9.514,9.514,0,0,0-1.347.759c.049,1.509.122,3.128.251,4.861,0,0,.121,4.231.364,8.246a7.956,7.956,0,0,1,.078,1.764c-.06.785-.145,1.642-.248,2.537l0,.033c-.024.212-.05.426-.075.642l0,.009a93.877,93.877,0,0,1-1.943,11.155c-.1.324.248.624.5.855l1.748,1.1s.72-6.634.959-8.886c.231-2.174.958-5.088,1.276-7.927v0c.4-3.6.959-7.131,1.259-9.228a35.143,35.143,0,0,1,1.819-7.9C185.427,170.353,181.524,172.122,181.524,172.122Z"/><path class="cls-70" d="M186.485,171.415s-.116,1.671,1.3,1.71a3.708,3.708,0,0,0,2.536-1.319l-2.347.606-1.428-1.211Z"/><path class="cls-26" d="M167.812,182.312s-1.03-.286-1.167-.9a3.826,3.826,0,0,0-.784-1.322c-.21-.251-.59-1.257-.883-1s.552,1.686.673,2.019-1.3-.252-1.635-.15-1,2.565.022,2.851a8.969,8.969,0,0,0,2.419-.01,6.449,6.449,0,0,0,.734.239Z"/><path class="cls-48" d="M188.394,158.612s-3.243.547-2.693,5.624,3.413,4.628,3.6,4.622,2.879.06,3.021-6.147C192.326,162.711,192.367,158.122,188.394,158.612Z"/><path class="cls-48" d="M186.973,167.386s0,2.091-.085,2.544c-.093.487,2.6,1.893,4.344.254a17.98,17.98,0,0,1-.243-3.09C191.1,166.288,186.973,167.386,186.973,167.386Z"/><path class="cls-48" d="M185.689,163.053s-.36-.376-.486.01a6.693,6.693,0,0,0,.531,2.175s.066.148.151.066A18.712,18.712,0,0,0,185.689,163.053Z"/><path class="cls-48" d="M192.289,162.664s.344-.391.486-.01a6.539,6.539,0,0,1-.441,2.195s-.112.175-.2.1A18.7,18.7,0,0,1,192.289,162.664Z"/><path class="cls-46" d="M185.428,162.369c.112.695.217,1.211.217,1.211l.472.616a12.275,12.275,0,0,1,.045-1.576c.027-.082.059-.225.092-.381.054-.256.11-.546.148-.643a6.945,6.945,0,0,1,5.2.166s-.021.21-.019.444c0,.272.031.577.155.623.233.085.136,1.594.136,1.594l.377-.435s.109-.789.217-1.7v-.006c.024-.211.049-.429.072-.644a4.237,4.237,0,0,0-1.223-3.541,5.844,5.844,0,0,0-4.213.018,2.517,2.517,0,0,0-.669.284C185.108,159.864,185.428,162.369,185.428,162.369Z"/><path class="cls-73" d="M190.767,168.179a2.067,2.067,0,0,1-1.72.691,2.336,2.336,0,0,1-1.724-.654,2.1,2.1,0,0,0,1.73,1.178A2.122,2.122,0,0,0,190.767,168.179Z"/><path class="cls-74" d="M186.762,171.517l1.21.9a12.592,12.592,0,0,1-1.037-3.018Z"/><polygon class="cls-75" points="186.935 169.394 186.112 170.16 185.246 172.742 186.762 171.517 186.935 169.394"/><path class="cls-72" d="M166.45,184.7s7.14,1.88,8.886,1.451c.807-.2,1.87-1.313,2.88-2.622.333-.432.659-.884.97-1.332v0c1.239-1.789,2.21-3.5,2.21-3.5s3.663-4.292.723-6.205a3.317,3.317,0,0,0-1.943.394c-.65.48-2.233,3.5-2.49,4.062s-3.04,5.761-3.226,5.878-2.573-.31-3.834-.414a20.122,20.122,0,0,1-3.764-.7Z"/><path class="cls-48" d="M187.091,170.164a14.242,14.242,0,0,0,.881,2.248s1.27-1.113,1.669-1.509S187.091,170.164,187.091,170.164Z"/><path class="cls-74" d="M189.3,171.168l-1.328,1.244a5.932,5.932,0,0,0,1.864-.366Z"/><path class="cls-75" d="M191.063,168.877a12.545,12.545,0,0,1-1.763,2.291l1.179,1.957,1.89-3.433Z"/><path class="cls-72" d="M196.7,186.38c.135,1.822-.636,11.9.133,12.041a17.786,17.786,0,0,0,3.595-.479s.354-10.868.241-12.008c-.083-.829-1.4-13.267-2.1-13.766-.4-.289-3.386-1.346-4.849-1.923-.268-.106-1.115-.462-1.355-.553a35.036,35.036,0,0,0-3.272,11.643,66.129,66.129,0,0,0,.543,7.288c.287,2.774.6,4.938.837,7.257.458,4.569.779,8.205.779,8.205l4.547-2.025c.736-.368,1.755-1.878,1.478-2.653-1.051-2.945-2.375-7.975-2.376-10.559,0,0,.507-6.327.909-7.717A39.075,39.075,0,0,1,196.7,186.38Z"/><rect class="cls-76" x="185.255" y="196.722" width="3.012" height="2.239" transform="translate(373.522 395.683) rotate(180)"/><polygon class="cls-55" points="195.02 208.548 204.93 208.548 202.605 201.948 192.695 201.948 195.02 208.548"/><polygon class="cls-77" points="195.02 208.548 204.93 208.548 202.605 201.948 192.695 201.948 195.02 208.548"/><polygon class="cls-78" points="202.605 215.148 192.695 215.148 195.02 208.548 204.93 208.548 202.605 215.148"/><polygon class="cls-77" points="195.02 221.747 204.93 221.747 202.605 215.148 192.695 215.148 195.02 221.747"/><polygon class="cls-78" points="202.605 228.347 192.695 228.347 195.02 221.747 204.93 221.747 202.605 228.347"/><rect class="cls-56" x="196.372" y="203.05" width="5.652" height="0.244" transform="translate(398.397 406.345) rotate(180)"/><rect class="cls-56" x="196.708" y="203.936" width="5.652" height="0.245" transform="translate(399.068 408.117) rotate(180)"/><rect class="cls-56" x="198.154" y="204.822" width="4.573" height="0.245" transform="translate(400.881 409.89) rotate(180)"/><rect class="cls-56" x="196.372" y="216.203" width="5.652" height="0.244" transform="translate(398.397 432.651) rotate(180)"/><rect class="cls-56" x="199.534" y="217.09" width="2.826" height="0.244" transform="translate(401.894 434.423) rotate(180)"/><path class="cls-26" d="M197.4,198.547s-.054.169-.147.451c-.161.488-.679,1.045-.359,1.711s2.717.247,3.082-.063.214-1.33-.623-2.638S197.4,198.547,197.4,198.547Z"/><path class="cls-26" d="M196.822,200.469a21.264,21.264,0,0,0,.2,2.317c.155,1.07.5,2.376.766,2.34.41-.054.007-1.093-.075-2.163-.076-.986.106-.8.106-.8s-.054-.049.239,1.009c.316,1.138.7,2.347.924,2.322.274-.031.306-.058.259-.49.081.243.159.255.265.232.545-.123.345-1.868.265-2.56.064.532.17.915.454.624.327-.333-.069-2.786-.125-3.677C200.038,198.645,196.822,200.469,196.822,200.469Z"/><path class="cls-72" d="M196.584,191.475l.047,8.009a13.942,13.942,0,0,0,3.8-.884l.153-11.295Z"/><path class="cls-79" d="M209.39,187.8l5.561,12.528.149.336a1.506,1.506,0,0,0,.619-.064l-.122-.277-5.509-12.406,8.026-8.632,1.2-.261-.125-.578-1.386.3Z"/><path class="cls-80" d="M217.954,202.745h-5.147a2.033,2.033,0,0,1,.056-.312,2.526,2.526,0,0,1,2.722-1.906c2,0,2.329,1.3,2.37,1.906A1.9,1.9,0,0,1,217.954,202.745Z"/><path class="cls-81" d="M223.2,176.509l-.348.985-2.108,5.972a3.689,3.689,0,1,1,2.456-6.957Z"/><path class="cls-82" d="M214.821,200.325v.274a1.391,1.391,0,0,0,.279.061,1.506,1.506,0,0,0,.619-.064l.036-.013v-.265H215.6l-.646.005Z"/><path class="cls-83" d="M217.954,202.745h-5.147a2.033,2.033,0,0,1,.056-.312h5.092A1.9,1.9,0,0,1,217.954,202.745Z"/><path class="cls-82" d="M223.2,176.509l-.348.985a16.421,16.421,0,0,0-4.066,4.354,3.689,3.689,0,0,1,4.414-5.339Z"/><path class="cls-26" d="M240.564,187.08s-.9-1.135-1.039-1.3a3.119,3.119,0,0,0-1.35-.451,3.37,3.37,0,0,0-1.642.121.615.615,0,0,0-.218.46,1.36,1.36,0,0,0,.1.61.8.8,0,0,0-.015.712.7.7,0,0,0,.1.713.585.585,0,0,0,.053.594,4.317,4.317,0,0,1,.752.286,8.735,8.735,0,0,0,2.526.42S240.921,188.881,240.564,187.08Z"/><polygon class="cls-84" points="266.44 222.078 271.55 243.383 272.676 243.383 268.343 222.032 266.44 222.078"/><polygon class="cls-84" points="260.866 222.078 265.976 243.383 267.101 243.383 262.768 222.032 260.866 222.078"/><polygon class="cls-84" points="251.849 222.078 246.739 243.383 245.614 243.383 249.947 222.032 251.849 222.078"/><path class="cls-85" d="M247.013,222.285h22.019s1.533-.035,2.56-4.578c1.155-5.11,3.489-22.181,3.489-22.181s-.619-1.588-10.3-1.385L247.45,216.63A31.3,31.3,0,0,0,247.013,222.285Z"/><path class="cls-26" d="M246.336,200.982a3.828,3.828,0,0,0-1.963-.291c-.841.2-2.812.932-3.786,1.054s-1.9.688-1.882,1.011,7.515.588,7.551-.149S246.336,200.982,246.336,200.982Z"/><path class="cls-26" d="M240.564,187.08s1.465.963,1.5,1.258a8.1,8.1,0,0,1-.285,1.984c-.037-.022-2.209-1.094-2.209-1.094Z"/><path class="cls-69" d="M240.594,239.756s-1.886,1.122-2.74,1.539-4.179.545-4.506.858-.205,1.306.346,1.406a26.79,26.79,0,0,0,5.94.137c1.347-.319,3.87.205,4.428.014s.189-3.2-.028-3.875S240.594,239.756,240.594,239.756Z"/><path class="cls-86" d="M240.624,238.482l-.03,1.274s2.528.466,3.44.079l-.064-1.4Z"/><path class="cls-72" d="M236.177,239.756s-1.887,1.122-2.741,1.539-4.178.545-4.5.858-.206,1.306.346,1.406a26.781,26.781,0,0,0,5.939.137c1.347-.319,3.87.205,4.428.014s.19-3.2-.028-3.875S236.177,239.756,236.177,239.756Z"/><path class="cls-86" d="M236.206,238.482l-.029,1.274s2.527.466,3.439.079l-.063-1.4Z"/><polygon class="cls-87" points="251.052 208.837 253.922 208.336 252.008 203.518 251.052 208.837"/><path class="cls-88" d="M259.651,209.825s-14.424,3.062-16.675,4.019-3.6,1.351-3.77,1.829-3.687,23.354-3.687,23.354H240.3s3.714-17.276,4.164-18.346,18.29-1.125,19.584-2.42,2.42-4.839,1.013-8.019S259.651,209.825,259.651,209.825Z"/><path class="cls-88" d="M252.346,208.217S235.8,212.87,234.45,215c-1.378,2.166,5.515,24.029,5.515,24.029h4.727s-4.558-20.484-4-21.385,25.493-.028,20.85-7.4S252.346,208.217,252.346,208.217Z"/><path class="cls-72" d="M254.065,185.228c-.622-.324-2.7.386-3.312,1.34a39.234,39.234,0,0,1-4.119,4.963l-6.007-5.05-1.2,3.01,7.13,6.01a1.547,1.547,0,0,0,2.074-.073c1.874-1.818,5.729-5.642,6.026-6.6C255.047,187.563,255.255,185.847,254.065,185.228Z"/><path class="cls-48" d="M256.1,172.369s-2.87.478-2.9,5.346,1.818,5.328,4.614,4.615c1.684-.429,3.264-2.814,2.645-7.007A3.238,3.238,0,0,0,256.1,172.369Z"/><path class="cls-55" d="M255.722,183.99s-3.955,1.436-4.546,2.337-.209,9,.129,11.9,1.266,9.145,1.041,9.989l9.2,2.025s2.954-10.748,3.039-12.465,2.251-9.707,1.209-10.354-5.571-3.18-5.571-3.18Z"/><polygon class="cls-89" points="261.547 210.242 261.997 208.582 252.325 206.699 252.346 208.217 261.547 210.242"/><polygon class="cls-90" points="256.735 207.471 254.442 206.992 254.442 208.807 256.735 209.342 256.735 207.471"/><path class="cls-72" d="M257.764,202.747c.024.474.055.956.08,1.442l.006.007c.327,5.34.814,10.926.814,10.926.672.561,9.194-1.418,9.194-1.418a17.14,17.14,0,0,1-2.06-5.371c-1.017-3.94-.222-7.726.833-14.139s.179-6.376.179-6.376l-6.586-3.577a99.447,99.447,0,0,0-2.59,11A60.523,60.523,0,0,0,257.764,202.747Z"/><path class="cls-72" d="M255.659,184a56.96,56.96,0,0,0-2.732,10c-.829,5.151-.788,14.478-1.688,14.7s-.622.075-.622.075.169-5.634.251-7.5c.184-4.169-.594-13.566-.234-14.516S253.576,184.377,255.659,184Z"/><path class="cls-48" d="M255.815,183.224a2.421,2.421,0,0,1-.092.765s.5,1.973,4.5.252a11.1,11.1,0,0,1,0-5.408l-4.5,2.794s.055.444.08.962C255.815,182.8,255.821,183.02,255.815,183.224Z"/><path class="cls-91" d="M260.061,183.459a10.614,10.614,0,0,1-3.156.907l.773,1.643,2.546-1.766Z"/><path class="cls-91" d="M256.9,184.366s-1.1-.366-1.1-.907l-.149.543.45,1.732Z"/><path class="cls-92" d="M253.544,175.185a4.18,4.18,0,0,1-.222-2.987c.581-1.264,2.1-.738,2.8-.589s2.007-1.388,4.333.488,1.632,3.846.6,6.19-1.157,2.525-1.157,2.525a11.087,11.087,0,0,0-.289-2.8c-.329-.5-1.537-.754-1.537-.754s.919-1.257.019-1.726S255.322,175.929,253.544,175.185Z"/><path class="cls-48" d="M259.25,176.768c.122-.359.728-.767,1.031-.094a1.661,1.661,0,0,1-.919,1.857C258.931,178.531,258.968,177.593,259.25,176.768Z"/><path class="cls-20" d="M256.9,184.366l-.576.992s.266.306,1.124.173Z"/><path class="cls-20" d="M256.452,185.445s-2.362,6.949-2.381,11.882a64.8,64.8,0,0,0,.371,7.879l.52.971.76-.887s-.537-14.325,1.564-19.738C257.286,185.552,256.539,185.2,256.452,185.445Z"/><path class="cls-72" d="M266.078,187.423c-1.727-.705-3.518,1.688-4.475,4.08s-2.786,6.743-2.786,6.743l-12.777,2.07-.18,2.429h14.909s5.679-10.173,6.073-11.44S267.319,187.929,266.078,187.423Z"/><rect class="cls-85" x="208.257" y="202.745" width="42.13" height="1.452" transform="translate(458.645 406.943) rotate(180)"/><rect class="cls-93" x="224.686" y="177.346" width="1.015" height="22.49"/><path class="cls-94" d="M223.212,202.745H215.62v-.46h7.592a1.1,1.1,0,0,0,.847-.279.75.75,0,0,0,.169-.528l0-.015V191.64h.46v9.8a1.207,1.207,0,0,1-.278.867A1.517,1.517,0,0,1,223.212,202.745Z"/><path class="cls-93" d="M233.285,201.94h-7.741v.805h8.546A.806.806,0,0,0,233.285,201.94Z"/><rect class="cls-95" x="211.441" y="204.197" width="1.197" height="39.429"/><rect class="cls-95" x="246.007" y="204.197" width="1.197" height="39.429"/><path class="cls-89" d="M257.764,202.747c.024.474.055.956.08,1.442l.006.007a6.376,6.376,0,0,0,3.052-.412c1.4-.636,2.368-5.447,2.436-5.7-.142.277-2.374,4.662-2.922,4.662Z"/><path class="cls-30" d="M255.8,182.589c.012.209.018.431.012.635,3.175.049,3.225-1.763,3.225-1.763C258.547,182.774,255.8,182.589,255.8,182.589Z"/><rect class="cls-96" x="236.605" y="182.845" width="0.408" height="4.825" transform="translate(-60.961 226.869) rotate(-45.991)"/><polygon class="cls-26" points="235.215 183.435 234.563 183.089 234.932 183.729 235.215 183.435"/><path class="cls-97" d="M236.705,185.473s1.646.354,1.639.651a.451.451,0,0,1-.173.393l.631.482a.468.468,0,0,1-.364.694s.3.508-.328.546c0,0,.064.425-.22.5a5.168,5.168,0,0,1-1.336-.2s-.252-.166-.1-.593a.7.7,0,0,1-.09-.711.767.767,0,0,1,.013-.717s-.327-.7.158-1.068A1.7,1.7,0,0,1,236.705,185.473Z"/><path class="cls-26" d="M239.475,185.759a5.158,5.158,0,0,0-1.587.826.379.379,0,0,0-.152.4c.053.162.331.294.808.171a3.786,3.786,0,0,1,1.155-.039S240.149,186.829,239.475,185.759Z"/><path class="cls-98" d="M238.088,222.494s1.011-6.31,1.064-6.565,1.082-1.176,6-2.787c0,0-5.467,1.063-6.9,2C237.148,215.858,238.088,222.494,238.088,222.494Z"/><path class="cls-99" d="M217.505,202.745c-.54-.224-1.412-2.773-1.831-4.093-.149-.468-.241-.782-.241-.782h4.936a14.9,14.9,0,0,1-1.462,4.875Z"/><path class="cls-100" d="M217.109,196.352c0-.177-.793-.92-1.189-1.405s.153-1.4.153-1.4a2.68,2.68,0,0,1,1.463,2.809S217.109,196.529,217.109,196.352Z"/><path class="cls-100" d="M218.114,196.431H217.9s-.152-3.589,1.158-4.077,1.31-1.462,1.31-1.462.4,1.341-.244,2.041-1.371,1.524-1.249,2.194S218.114,196.431,218.114,196.431Z"/><path class="cls-101" d="M215.674,198.652c-.149-.468-.241-.782-.241-.782h4.936a14.9,14.9,0,0,1-1.462,4.875h-.323A3.815,3.815,0,0,0,215.674,198.652Z"/><polygon class="cls-102" points="215.434 196.352 220.407 196.352 220.69 197.87 215.232 197.87 215.434 196.352"/></g></g></svg>