<svg id="Layer_1" data-name="Layer 1" xmlns="http://www.w3.org/2000/svg" viewBox="0 0 1920 1080"><defs><style>.cls-1{fill:#138690;stroke:#138690;stroke-miterlimit:10;}</style></defs><title>logo</title><path class="cls-1" d="M904.23,690.71V653a28.22,28.22,0,0,0-18.84-26.52v-30a47.1,47.1,0,0,0-94.19,0v30A28.22,28.22,0,0,0,772.35,653v37.68a65.94,65.94,0,0,0,131.87,0ZM838.29,568.26a28.29,28.29,0,0,1,28.26,28.26v28.26H810V596.52A28.29,28.29,0,0,1,838.29,568.26Zm-47.1,122.45V653a9.42,9.42,0,0,1,9.42-9.42H876a9.42,9.42,0,0,1,9.42,9.42v37.68a47.1,47.1,0,0,1-94.19,0Z"/><path class="cls-1" d="M847.71,728.39V707.82a28.26,28.26,0,1,0-18.84,0v20.57Zm-9.42-56.52a9.42,9.42,0,1,1-9.42,9.42A9.42,9.42,0,0,1,838.29,671.87Z"/><path class="cls-1" d="M1130.29,379.87V304.52a18.86,18.86,0,0,0-18.84-18.84H885.39a18.86,18.86,0,0,0-18.84,18.84v75.35a18.86,18.86,0,0,0,18.84,18.84h226.06A18.86,18.86,0,0,0,1130.29,379.87Zm-244.9-75.35h226.06l0,75.35H885.39Z"/><path class="cls-1" d="M1252.74,511.74H1168V248H828.87V512.22C755.35,517.1,697,578.3,697,653c0,68.23,48.61,125.32,113,138.45v12.26A28.29,28.29,0,0,0,838.29,832h320.26a28.29,28.29,0,0,0,28.26-28.26V784.9A28.22,28.22,0,0,0,1168,758.38V568.26h84.77a28.26,28.26,0,1,0,0-56.52ZM715.84,653A122.45,122.45,0,1,1,838.29,775.48,122.59,122.59,0,0,1,715.84,653ZM1168,803.74a9.42,9.42,0,0,1-9.42,9.42H838.29a9.42,9.42,0,0,1-9.42-9.42v-9.9c3.13.21,6.24.48,9.42.48a140.3,140.3,0,0,0,70.19-18.84h250.07a9.42,9.42,0,0,1,9.42,9.42Zm-18.84-47.1H934A140.8,140.8,0,0,0,979.58,653c0-74.73-58.35-135.93-131.87-140.81V266.84h301.42v244.9h-7.69a56.49,56.49,0,1,0,0,56.52h7.66ZM1102,568.26h15.5a37.68,37.68,0,1,1,0-56.52H1102a28.26,28.26,0,0,0,0,56.52Zm150.71-18.84H1102a9.42,9.42,0,1,1,0-18.84h150.71a9.42,9.42,0,1,1,0,18.84Z"/><path class="cls-1" d="M753.52,511.74a18.86,18.86,0,0,1,18.84-18.84V474.06a37.72,37.72,0,0,0-37.68,37.68Z"/><path class="cls-1" d="M772.35,455.23V436.39A75.44,75.44,0,0,0,697,511.74h18.84A56.57,56.57,0,0,1,772.35,455.23Z"/><path class="cls-1" d="M866.55,417.55h18.84v18.84H866.55Z"/><path class="cls-1" d="M866.55,492.9h18.84v18.84H866.55Z"/><path class="cls-1" d="M866.55,455.23h18.84v18.84H866.55Z"/><path class="cls-1" d="M1111.45,643.61h18.84v18.84h-18.84Z"/><path class="cls-1" d="M1111.45,681.29h18.84v18.84h-18.84Z"/><path class="cls-1" d="M1111.45,719h18.84v18.84h-18.84Z"/></svg>