<svg id="Layer_1" data-name="Layer 1" xmlns="http://www.w3.org/2000/svg" viewBox="0 0 1920 1080"><defs><style>.cls-1{fill:#138690;stroke:#138690;stroke-miterlimit:10;}</style></defs><title>logo</title><path class="cls-1" d="M1032.11,230H847.41A83.5,83.5,0,0,0,764,313.41v452.1a83.5,83.5,0,0,0,83.41,83.41h184.7a83.5,83.5,0,0,0,83.41-83.41V313.41A83.5,83.5,0,0,0,1032.11,230Zm47,535.51a47,47,0,0,1-47,47H847.41a47,47,0,0,1-47-47V313.41a47,47,0,0,1,47-47h184.7a47,47,0,0,1,47,47Z"/><path class="cls-1" d="M939.76,324.71a101.91,101.91,0,1,0,101.91,101.9A102,102,0,0,0,939.76,324.71Zm0,167.36a65.45,65.45,0,1,1,65.46-65.46A65.53,65.53,0,0,1,939.76,492.07Z"/><path class="cls-1" d="M941.37,592.93a49.61,49.61,0,0,0-18.23,95.76V729a18.23,18.23,0,0,0,36.45,0V688.69a49.61,49.61,0,0,0-18.23-95.76Zm0,36.45a13.17,13.17,0,1,1-13.17,13.17A13.18,13.18,0,0,1,941.37,629.38Z"/><path class="cls-1" d="M1174.52,591.55a18.23,18.23,0,1,0-25.78,25.77,35.68,35.68,0,0,1,0,50.45,18.23,18.23,0,1,0,25.77,25.78,72.13,72.13,0,0,0,0-102Z"/><path class="cls-1" d="M1220.5,545.57a18.23,18.23,0,0,0-25.78,25.78,100.71,100.71,0,0,1,0,142.41,18.23,18.23,0,0,0,25.77,25.78,137.16,137.16,0,0,0,0-194Z"/><path class="cls-1" d="M1270.3,495.77a18.23,18.23,0,1,0-25.78,25.78c66.73,66.72,66.73,175.29,0,242a18.23,18.23,0,1,0,25.78,25.78C1351.23,708.4,1351.23,576.7,1270.3,495.77Z"/></svg>