<svg id="Layer_1" data-name="Layer 1" xmlns="http://www.w3.org/2000/svg" viewBox="0 0 1920 1080"><defs><style>.cls-1{fill:#138690;stroke:#138690;stroke-miterlimit:10;}.cls-2{fill:#fff;}</style></defs><title>logo</title><path class="cls-1" d="M801,699.9V753c0,18,14.46,37,32.49,37H866c18,0,32.49-19,32.49-37V727.63h220.91V753c0,18,14.46,37,32.49,37h32.49c18,0,32.49-19,32.49-37V699.9Zm350.21-124.74c24.18,0,43.53,18.62,43.53,41.58s-19.36,41.58-43.53,41.58-43.53-18.62-43.53-41.58,19.36-41.58,43.53-41.58Zm-284.59,0c24.18,0,43.53,18.62,43.53,41.58s-19.36,41.58-43.53,41.58-43.53-18.62-43.53-41.58,19.36-41.58,43.53-41.58Zm-44.83-201H1196V540.5H821.79V374.17Zm145.54-62.37h83.17v48.51H967.33V311.79ZM855.58,291C825.27,291,801,324.58,801,353.37V686h415.83V353.37c0-28.8-24.26-62.37-54.58-62.37Z"/><rect class="cls-2" x="1031" y="246" width="410" height="294"/><path class="cls-1" d="M1291.14,232.62h22.62v22.62h-22.62Z"/><path class="cls-1" d="M1053.62,232.62h22.62v22.62h-22.62Z"/><path class="cls-1" d="M1031,492.76h67.86V424.9H1031Zm11.31-56.55h45.24v45.24h-45.24Z"/><path class="cls-1" d="M1336.38,311.79V289.17h-79.17V210h-147v79.17H1031V413.59h79.17v79.17H1212V340.07a28.31,28.31,0,0,1,28.28-28.28Zm-135.72-79.17A11.32,11.32,0,0,1,1212,221.31h33.93v11.31H1212V260.9h-11.31Zm-45.24,0a11.32,11.32,0,0,1,11.31-11.31h22.62v11.31h-22.62v33.93a11.32,11.32,0,0,1-11.31,11.31H1144.1V266.55h11.31Zm0,101.79V300.48H1144.1V289.17h11.31a11.32,11.32,0,0,1,11.31,11.31v33.93a11.32,11.32,0,0,1-11.31,11.31h-22.62V334.41Zm-22.62-11.31V311.79h11.31V323.1Zm-11.31-101.79h22.62v11.31h-22.62Zm0,33.93a11.32,11.32,0,0,1,11.31-11.31h11.31v11.31h-11.31v33.93h-11.31Zm22.62,147h-11.31v45.24h22.62v11.31h-22.62a11.32,11.32,0,0,1-11.31-11.31V402.28A11.32,11.32,0,0,1,1132.79,391h11.31Zm11.31,11.31v22.62H1144.1V413.59Zm-67.86-101.79a11.32,11.32,0,0,1,11.31-11.31h22.62v11.31h-22.62V357h-11.31Zm-45.24,0a11.32,11.32,0,0,1,11.31-11.31h22.62v11.31h-22.62V323.1h-11.31Zm0,22.62h22.62a11.32,11.32,0,0,1,11.31,11.31v33.93h-11.31V345.72h-22.62Zm0,22.62h11.31v11.31h-11.31Zm67.86,45.24h-56.55A11.32,11.32,0,0,1,1042.31,391V379.66h11.31V391h56.55Zm0-22.62h-22.62V368.34h22.62V323.1h11.31v45.24A11.32,11.32,0,0,1,1110.17,379.66ZM1178,470.14a11.32,11.32,0,0,1-11.31,11.31h-45.24V470.14h45.24V413.59H1178Zm22.62,11.31h-11.31V470.14h11.31Zm0-22.62h-11.31V402.28h-22.62A11.32,11.32,0,0,1,1155.41,391V379.66h11.31V391h22.62a11.32,11.32,0,0,1,11.31,11.31Zm0-79.17h-11.31V368.34h-56.55V357h56.55a11.32,11.32,0,0,1,11.31,11.31Zm22.62-73.52h-22.62v28.28a11.32,11.32,0,0,1-11.31,11.31H1178V334.41h11.31V306.14a11.32,11.32,0,0,1,11.31-11.31h22.62Zm0-22.62h-33.93A11.32,11.32,0,0,1,1178,272.21V243.93h11.31v28.28h33.93Zm0-28.28V243.93h11.31a11.32,11.32,0,0,1,11.31,11.31v45.24h-11.31V255.24Z"/><path class="cls-1" d="M1098.86,210H1031v67.86h67.86Zm-11.31,56.55h-45.24V221.31h45.24Z"/><path class="cls-1" d="M1053.62,447.52h22.62v22.62h-22.62Z"/><path class="cls-1" d="M1336.38,210h-67.86v67.86h67.86Zm-11.31,56.55h-45.24V221.31h45.24Z"/><path class="cls-1" d="M1342,323.1H1240.24a17,17,0,0,0-17,17V521a17,17,0,0,0,17,17H1342a17,17,0,0,0,17-17v-181A17,17,0,0,0,1342,323.1Zm-56.55,11.31h33.93v11.31h-33.93Zm-22.62,0h11.31v11.31h-11.31Zm50.9,192.28h-45.24V515.38h45.24Zm33.93-33.93a11.32,11.32,0,0,1-11.31,11.31H1245.9a11.32,11.32,0,0,1-11.31-11.31V368.34A11.32,11.32,0,0,1,1245.9,357h90.48a11.32,11.32,0,0,1,11.31,11.31Z"/><path class="cls-1" d="M1245.9,368.34V492.76h90.49V368.34Zm39.59,56.55h11.31a17,17,0,0,1,17,17v17h-17v11.31h-11.31V458.83a17,17,0,0,1-17-17h11.31a5.66,5.66,0,0,0,5.66,5.66h17v-5.66a5.66,5.66,0,0,0-5.66-5.66h-11.31a17,17,0,0,1-17-17v-17h17V391h11.31v11.31a17,17,0,0,1,17,17h-11.31a5.66,5.66,0,0,0-5.66-5.66h-17v5.66A5.66,5.66,0,0,0,1285.48,424.9Z"/></svg>