<svg id="Layer_1" data-name="Layer 1" xmlns="http://www.w3.org/2000/svg" viewBox="0 0 1920 1080"><defs><style>.cls-1{fill:#138690;stroke:#138690;stroke-miterlimit:10;}</style></defs><title>QR code Payment</title><path class="cls-1" d="M1073.62,380.79h29.79v29.79h-29.79Z"/><path class="cls-1" d="M760.79,380.79h29.79v29.79H760.79Z"/><path class="cls-1" d="M731,723.41h89.38V634H731Zm14.9-74.48h59.59v59.59H745.9Z"/><path class="cls-1" d="M1133.21,485.07V455.28H1028.93V351H835.28V455.28H731V619.14H835.28V723.41H969.34V522.31a37.28,37.28,0,0,1,37.24-37.24ZM954.45,380.79a14.91,14.91,0,0,1,14.9-14.9H1014v14.9H969.34V418h-14.9Zm-59.59,0a14.91,14.91,0,0,1,14.9-14.9h29.79v14.9H909.76v44.69a14.91,14.91,0,0,1-14.9,14.9H880v-14.9h14.9Zm0,134.07V470.17H880v-14.9h14.9a14.91,14.91,0,0,1,14.9,14.9v44.69a14.91,14.91,0,0,1-14.9,14.9H865.07v-14.9ZM865.07,500v-14.9H880V500ZM850.17,365.9H880v14.9H850.17Zm0,44.69a14.91,14.91,0,0,1,14.9-14.9H880v14.9h-14.9v44.69h-14.9ZM880,604.24h-14.9v59.59h29.79v14.9H865.07a14.91,14.91,0,0,1-14.9-14.9V604.24a14.91,14.91,0,0,1,14.9-14.9H880Zm14.9,14.9v29.79H880V619.14ZM805.48,485.07a14.91,14.91,0,0,1,14.9-14.9h29.79v14.9H820.38v59.59h-14.9Zm-59.59,0a14.91,14.91,0,0,1,14.9-14.9h29.79v14.9H760.79V500H745.9Zm0,29.79h29.79a14.91,14.91,0,0,1,14.9,14.9v44.69h-14.9V529.76H745.9Zm0,29.79h14.9v14.9H745.9Zm89.38,59.59H760.79a14.91,14.91,0,0,1-14.9-14.9v-14.9h14.9v14.9h74.48Zm0-29.79H805.48v-14.9h29.79V500h14.9v59.59A14.91,14.91,0,0,1,835.28,574.45Zm89.38,119.17a14.91,14.91,0,0,1-14.9,14.9H850.17v-14.9h59.59V619.14h14.9Zm29.79,14.9h-14.9v-14.9h14.9Zm0-29.79h-14.9V604.24H909.76a14.91,14.91,0,0,1-14.9-14.9v-14.9h14.9v14.9h29.79a14.91,14.91,0,0,1,14.9,14.9Zm0-104.28h-14.9v-14.9H865.07v-14.9h74.48a14.91,14.91,0,0,1,14.9,14.9Zm29.79-96.83H954.45v37.24a14.91,14.91,0,0,1-14.9,14.9h-14.9v-14.9h14.9V477.62a14.91,14.91,0,0,1,14.9-14.9h29.79Zm0-29.79H939.55a14.91,14.91,0,0,1-14.9-14.9V395.69h14.9v37.24h44.69Zm0-37.24v-14.9h14.9a14.91,14.91,0,0,1,14.9,14.9v59.59h-14.9V410.59Z"/><path class="cls-1" d="M820.38,351H731v89.38h89.38Zm-14.9,74.48H745.9V365.9h59.59Z"/><path class="cls-1" d="M760.79,663.83h29.79v29.79H760.79Z"/><path class="cls-1" d="M1133.21,351h-89.38v89.38h89.38Zm-14.9,74.48h-59.59V365.9h59.59Z"/><path class="cls-1" d="M1140.66,500H1006.59a22.37,22.37,0,0,0-22.34,22.34V760.66A22.37,22.37,0,0,0,1006.59,783h134.07A22.37,22.37,0,0,0,1163,760.66V522.31A22.37,22.37,0,0,0,1140.66,500Zm-74.48,14.9h44.69v14.9h-44.69Zm-29.79,0h14.9v14.9h-14.9Zm67,253.24h-59.59v-14.9h59.59Zm44.69-44.69a14.91,14.91,0,0,1-14.9,14.9H1014a14.91,14.91,0,0,1-14.9-14.9V559.55a14.91,14.91,0,0,1,14.9-14.9h119.17a14.91,14.91,0,0,1,14.9,14.9Z"/><path class="cls-1" d="M1014,559.55V723.41h119.18V559.55ZM1066.17,634h14.9a22.37,22.37,0,0,1,22.34,22.34v22.34h-22.34v14.9h-14.9v-14.9a22.37,22.37,0,0,1-22.34-22.34h14.9a7.46,7.46,0,0,0,7.45,7.45h22.34v-7.45a7.46,7.46,0,0,0-7.45-7.45h-14.9a22.37,22.37,0,0,1-22.34-22.34V604.24h22.34v-14.9h14.9v14.9a22.37,22.37,0,0,1,22.34,22.34h-14.9a7.46,7.46,0,0,0-7.45-7.45h-22.34v7.45A7.46,7.46,0,0,0,1066.17,634Z"/></svg>