<svg xmlns="http://www.w3.org/2000/svg" xmlns:xlink="http://www.w3.org/1999/xlink" viewBox="0 0 292 292"><defs><style>.cls-1{isolation:isolate;}.cls-2{fill:url(#linear-gradient);}.cls-3{fill:#fff;}.cls-4{fill:url(#linear-gradient-2);}.cls-5{fill:url(#linear-gradient-3);}.cls-6{fill:url(#linear-gradient-4);}.cls-7{fill:url(#linear-gradient-5);}.cls-8{fill:#696969;}.cls-9{fill:url(#linear-gradient-6);}.cls-10{fill:#e0e0e0;}.cls-11{fill:#1487e3;}.cls-12{fill:#78c2ff;}.cls-13{fill:#ff8761;}.cls-14{fill:#ff976a;}.cls-15{fill:#323657;}.cls-16{fill:#6aafe8;}.cls-17{fill:#d9d9d9;}.cls-18{fill:#d6d6d6;}.cls-19{fill:url(#linear-gradient-7);}.cls-20{fill:url(#linear-gradient-8);}.cls-21{fill:url(#linear-gradient-9);}.cls-22{fill:#f7f7f7;}.cls-23{fill:url(#linear-gradient-10);}.cls-24{fill:url(#linear-gradient-11);}.cls-25{fill:url(#linear-gradient-12);}.cls-26{fill:url(#linear-gradient-13);}.cls-27{fill:url(#linear-gradient-14);}.cls-28{fill:url(#linear-gradient-15);}.cls-29{fill:url(#linear-gradient-16);}.cls-30{fill:url(#linear-gradient-17);}.cls-31{fill:url(#linear-gradient-18);}.cls-32{fill:url(#linear-gradient-19);}.cls-33{fill:url(#linear-gradient-20);}.cls-34{fill:url(#linear-gradient-21);}.cls-35{fill:url(#linear-gradient-22);}.cls-36{fill:url(#linear-gradient-23);}.cls-37{fill:#404040;}.cls-38{fill:url(#linear-gradient-24);}.cls-39{fill:#e6e6e6;}.cls-40{fill:#342f40;}.cls-41{fill:#4499c9;}.cls-42{fill:#2e334d;}.cls-43{fill:#eea886;}.cls-44{fill:#385369;}.cls-45{fill:#a77860;}.cls-46{fill:#233442;}.cls-47{fill:#102530;}.cls-48{fill:url(#linear-gradient-25);}.cls-49{fill:url(#linear-gradient-26);}.cls-50{fill:#2f3352;}.cls-51{fill:#3a3f47;}.cls-52{fill:#444c94;}.cls-53{fill:#303669;}.cls-54{fill:#152b3d;}.cls-55{fill:#cf8c6c;}.cls-56{fill:#db9c7c;}.cls-57{fill:#202338;}.cls-58{fill:url(#linear-gradient-27);}.cls-59{fill:#5c5c5c;}.cls-60{fill:url(#linear-gradient-28);}.cls-61{fill:url(#linear-gradient-29);}.cls-62{fill:#f8bb66;}.cls-63{fill:#f89829;}.cls-64{fill:#f8c681;}.cls-65{fill:#f8f8f8;mix-blend-mode:soft-light;}.cls-66{fill:#fab99b;}.cls-67{fill:#545a91;}.cls-68{fill:#665249;}</style><linearGradient id="linear-gradient" x1="77.412" y1="257.161" x2="209.442" y2="257.161" gradientUnits="userSpaceOnUse"><stop offset="0" stop-color="#ffe9d9"/><stop offset="1" stop-color="#d9d3ca"/></linearGradient><linearGradient id="linear-gradient-2" x1="32.565" y1="271.705" x2="150.021" y2="271.705" gradientUnits="userSpaceOnUse"><stop offset="0" stop-color="#e37e30"/><stop offset="1" stop-color="#ded6cc"/></linearGradient><linearGradient id="linear-gradient-3" x1="146.084" y1="257.559" x2="146.084" y2="235.337" gradientTransform="translate(292.168 419.602) rotate(-180)" gradientUnits="userSpaceOnUse"><stop offset="0" stop-color="#ffe9d9"/><stop offset="1" stop-color="#bababa"/></linearGradient><linearGradient id="linear-gradient-4" x1="146.084" y1="119.204" x2="146.084" y2="218.549" gradientTransform="translate(292.168 319.337) rotate(-180)" xlink:href="#linear-gradient"/><linearGradient id="linear-gradient-5" x1="81.226" y1="153.131" x2="210.695" y2="153.131" gradientTransform="translate(291.921 306.261) rotate(-180)" gradientUnits="userSpaceOnUse"><stop offset="0" stop-color="#404b61"/><stop offset="0.486" stop-color="#3c4860"/><stop offset="1" stop-color="#2f3e5c"/></linearGradient><linearGradient id="linear-gradient-6" x1="146.084" y1="232.497" x2="146.084" y2="236.203" gradientUnits="userSpaceOnUse"><stop offset="0" stop-color="#ffe9d9"/><stop offset="1" stop-color="#ffe9d9"/></linearGradient><linearGradient id="linear-gradient-7" x1="109.697" y1="41.478" x2="109.697" y2="69.452" gradientUnits="userSpaceOnUse"><stop offset="0" stop-color="#d3dae0"/><stop offset="1" stop-color="#fff"/></linearGradient><linearGradient id="linear-gradient-8" x1="79.533" y1="61.874" x2="79.533" y2="83.426" xlink:href="#linear-gradient-7"/><linearGradient id="linear-gradient-9" x1="77.372" y1="33.422" x2="77.372" y2="48.83" xlink:href="#linear-gradient-7"/><linearGradient id="linear-gradient-10" x1="96.23" y1="157.277" x2="6.184" y2="120.026" gradientUnits="userSpaceOnUse"><stop offset="0" stop-color="#ff7575"/><stop offset="1" stop-color="#ffd455"/></linearGradient><linearGradient id="linear-gradient-11" x1="64.127" y1="171.461" x2="64.127" y2="144.514" xlink:href="#linear-gradient-10"/><linearGradient id="linear-gradient-12" x1="65.866" y1="171.461" x2="65.866" y2="144.515" xlink:href="#linear-gradient-10"/><linearGradient id="linear-gradient-13" x1="68.023" y1="171.461" x2="68.023" y2="144.515" xlink:href="#linear-gradient-10"/><linearGradient id="linear-gradient-14" x1="69.524" y1="171.461" x2="69.524" y2="144.514" xlink:href="#linear-gradient-10"/><linearGradient id="linear-gradient-15" x1="71.063" y1="171.461" x2="71.063" y2="144.514" xlink:href="#linear-gradient-10"/><linearGradient id="linear-gradient-16" x1="64.167" y1="171.461" x2="64.167" y2="144.514" xlink:href="#linear-gradient-10"/><linearGradient id="linear-gradient-17" x1="65.86" y1="171.461" x2="65.86" y2="144.514" xlink:href="#linear-gradient-10"/><linearGradient id="linear-gradient-18" x1="67.7" y1="171.461" x2="67.7" y2="144.515" xlink:href="#linear-gradient-10"/><linearGradient id="linear-gradient-19" x1="69.499" y1="171.461" x2="69.499" y2="144.515" xlink:href="#linear-gradient-10"/><linearGradient id="linear-gradient-20" x1="71.91" y1="171.461" x2="71.91" y2="144.514" xlink:href="#linear-gradient-10"/><linearGradient id="linear-gradient-21" x1="74.485" y1="171.461" x2="74.485" y2="144.514" xlink:href="#linear-gradient-10"/><linearGradient id="linear-gradient-22" x1="76.656" y1="171.461" x2="76.656" y2="144.514" xlink:href="#linear-gradient-10"/><linearGradient id="linear-gradient-23" x1="78.657" y1="171.461" x2="78.657" y2="144.514" xlink:href="#linear-gradient-10"/><linearGradient id="linear-gradient-24" x1="56.652" y1="166.429" x2="105.422" y2="166.429" gradientUnits="userSpaceOnUse"><stop offset="0" stop-color="#ff9f55"/><stop offset="1" stop-color="#ffd255"/></linearGradient><linearGradient id="linear-gradient-25" x1="171.869" y1="193.818" x2="171.869" y2="114.732" xlink:href="#linear-gradient-10"/><linearGradient id="linear-gradient-26" x1="144.536" y1="193.821" x2="144.536" y2="114.733" xlink:href="#linear-gradient-10"/><linearGradient id="linear-gradient-27" x1="65.2" y1="241.957" x2="22.2" y2="203.02" xlink:href="#linear-gradient-10"/><linearGradient id="linear-gradient-28" x1="67.973" y1="247.974" x2="67.973" y2="224.305" xlink:href="#linear-gradient-10"/><linearGradient id="linear-gradient-29" x1="67.973" y1="247.975" x2="67.973" y2="224.305" xlink:href="#linear-gradient-10"/></defs><title>solution</title><g class="cls-1"><g id="Windows"><polygon class="cls-2" points="197.112 243.427 145.732 243.427 94.353 243.427 87.004 270.895 145.732 270.895 204.461 270.895 197.112 243.427"/><path class="cls-3" d="M95.163,250.722h6.723a.405.405,0,0,1,.441.454l-.651,2.925a.437.437,0,0,1-.441.311H94.4a.4.4,0,0,1-.438-.466l.766-2.925A.44.44,0,0,1,95.163,250.722Z"/><polygon class="cls-3" points="104.97 250.722 110.052 250.722 109.376 254.412 104.196 254.412 104.97 250.722"/><polygon class="cls-3" points="112.594 250.722 117.677 250.722 117.145 254.412 111.965 254.417 112.594 250.722"/><polygon class="cls-3" points="120.218 250.722 125.301 250.722 124.914 254.412 119.735 254.412 120.218 250.722"/><polygon class="cls-3" points="127.842 250.722 132.925 250.722 132.684 254.412 127.504 254.412 127.842 250.722"/><polygon class="cls-3" points="135.467 250.722 140.549 250.722 140.453 254.412 135.273 254.417 135.467 250.722"/><polygon class="cls-3" points="196.478 250.722 188.854 250.722 189.675 254.412 197.444 254.412 196.478 250.722"/><polygon class="cls-3" points="186.312 250.722 181.229 250.722 181.906 254.412 187.085 254.412 186.312 250.722"/><polygon class="cls-3" points="178.688 250.722 173.605 250.722 174.137 254.412 179.317 254.417 178.688 250.722"/><polygon class="cls-3" points="171.064 250.722 165.981 250.722 166.367 254.412 171.547 254.412 171.064 250.722"/><polygon class="cls-3" points="163.439 250.722 158.357 250.722 158.598 254.412 163.778 254.412 163.439 250.722"/><polygon class="cls-3" points="155.815 250.722 150.732 250.722 150.829 254.412 156.009 254.417 155.815 250.722"/><polygon class="cls-3" points="143.091 250.722 148.174 250.722 148.258 254.412 143.091 254.412 143.091 250.722"/><polygon class="cls-3" points="92.927 257.161 103.548 257.161 102.943 260.967 92.12 260.967 92.927 257.161"/><polygon class="cls-3" points="198.136 257.161 185.007 257.161 185.755 260.967 199.133 260.967 198.136 257.161"/><polygon class="cls-3" points="182.382 257.161 177.13 257.161 177.728 260.967 183.079 260.967 182.382 257.161"/><polygon class="cls-3" points="174.504 257.161 169.253 257.161 169.702 260.967 175.053 260.967 174.504 257.161"/><polygon class="cls-3" points="166.627 257.161 161.376 257.161 161.675 260.967 167.026 260.967 166.627 257.161"/><polygon class="cls-3" points="158.75 257.161 153.498 257.161 153.648 260.967 158.999 260.967 158.75 257.161"/><polygon class="cls-3" points="91.34 263.945 102.198 263.945 101.406 267.726 90.35 267.726 91.34 263.945"/><polygon class="cls-3" points="104.913 263.945 110.342 263.945 109.699 267.726 104.17 267.726 104.913 263.945"/><polygon class="cls-3" points="113.057 263.945 118.486 263.945 153.773 263.945 153.925 267.726 112.463 267.726 113.057 263.945"/><polygon class="cls-3" points="156.491 263.945 161.92 263.945 162.217 267.726 156.689 267.726 156.491 263.945"/><polygon class="cls-3" points="164.635 263.945 170.064 263.945 170.51 267.726 164.981 267.726 164.635 263.945"/><polygon class="cls-3" points="172.779 263.945 178.208 263.945 178.802 267.726 173.274 267.726 172.779 263.945"/><polygon class="cls-3" points="180.922 263.945 186.352 263.945 187.094 267.726 181.566 267.726 180.922 263.945"/><polygon class="cls-3" points="189.066 263.945 199.925 263.945 200.915 267.726 189.859 267.726 189.066 263.945"/><polygon class="cls-3" points="150.884 257.161 145.675 257.161 145.675 260.967 150.984 260.967 150.884 257.161"/><polygon class="cls-3" points="143.007 257.161 137.755 257.161 137.606 260.967 142.957 260.967 143.007 257.161"/><polygon class="cls-3" points="135.129 257.161 129.878 257.161 129.579 260.967 134.93 260.967 135.129 257.161"/><polygon class="cls-3" points="127.252 257.161 122.001 257.161 121.552 260.967 126.903 260.967 127.252 257.161"/><polygon class="cls-3" points="119.375 257.161 114.123 257.161 113.525 260.967 118.876 260.967 119.375 257.161"/><polygon class="cls-3" points="111.497 257.161 106.246 257.161 105.498 260.967 110.849 260.967 111.497 257.161"/><polygon class="cls-3" points="95.411 248.404 96.274 245.109 98.742 245.109 97.936 248.404 95.411 248.404"/><polygon class="cls-3" points="101.21 245.109 106.146 245.109 105.455 248.404 100.433 248.404 101.21 245.109"/><polygon class="cls-3" points="108.614 245.109 113.55 245.109 112.989 248.404 107.966 248.404 108.614 245.109"/><polygon class="cls-3" points="116.017 245.109 120.953 245.109 120.522 248.404 115.5 248.404 116.017 245.109"/><polygon class="cls-3" points="123.421 245.109 128.357 245.109 128.055 248.404 123.033 248.404 123.421 245.109"/><polygon class="cls-3" points="130.825 245.109 135.761 245.109 135.588 248.404 130.566 248.404 130.825 245.109"/><polygon class="cls-3" points="138.229 245.109 143.164 245.109 143.121 248.404 138.099 248.404 138.229 245.109"/><polygon class="cls-3" points="145.632 245.109 150.568 245.109 150.654 248.404 145.632 248.404 145.632 245.109"/><polygon class="cls-3" points="153.036 245.109 157.972 245.109 158.188 248.404 153.166 248.404 153.036 245.109"/><polygon class="cls-3" points="160.44 245.109 165.376 245.109 165.721 248.404 160.699 248.404 160.44 245.109"/><polygon class="cls-3" points="167.844 245.109 172.779 245.109 173.254 248.404 168.232 248.404 167.844 245.109"/><polygon class="cls-3" points="175.247 245.109 180.183 245.109 180.787 248.404 175.765 248.404 175.247 245.109"/><polygon class="cls-3" points="182.651 245.109 187.587 245.109 188.32 248.404 183.298 248.404 182.651 245.109"/><polygon class="cls-3" points="190.055 245.109 194.991 245.109 195.854 248.404 190.831 248.404 190.055 245.109"/><rect class="cls-4" x="87.004" y="270.895" width="117.456" height="1.621"/><rect class="cls-5" x="138.002" y="185.252" width="16.165" height="49.099" transform="translate(292.168 419.602) rotate(180)"/><path class="cls-6" d="M110.028,110.434H182.14a33.736,33.736,0,0,1,33.736,33.736v31A33.737,33.737,0,0,1,182.14,208.9H110.028a33.736,33.736,0,0,1-33.736-33.736v-31A33.736,33.736,0,0,1,110.028,110.434Z" transform="translate(292.168 319.337) rotate(180)"/><rect class="cls-7" x="81.226" y="115.257" width="129.469" height="75.748" transform="translate(291.921 306.261) rotate(180)"/><path class="cls-8" d="M195.625,200.533a4.882,4.882,0,1,0,4.867-4.5A4.7,4.7,0,0,0,195.625,200.533Z"/><rect class="cls-9" x="109.722" y="232.497" width="72.724" height="3.706"/><rect class="cls-10" x="162.699" y="47.71" width="14.5" height="1.485"/><rect class="cls-10" x="181.257" y="58.889" width="10.469" height="1.485"/><rect class="cls-11" x="193.357" y="58.889" width="6.947" height="1.485"/><rect class="cls-10" x="201.677" y="58.889" width="16.774" height="1.485"/><rect class="cls-10" x="162.863" y="81.372" width="10.778" height="1.485"/><rect class="cls-12" x="180.02" y="47.71" width="10.294" height="1.485"/><rect class="cls-11" x="180.02" y="64.479" width="10.294" height="1.485"/><rect class="cls-10" x="174.873" y="70.069" width="4.398" height="1.485"/><rect class="cls-12" x="170.475" y="75.741" width="9.879" height="1.485"/><rect class="cls-11" x="181.847" y="75.741" width="13.638" height="1.485"/><rect class="cls-11" x="162.863" y="70.11" width="10.294" height="1.485"/><rect class="cls-11" x="162.863" y="75.741" width="6.108" height="1.485"/><rect class="cls-13" x="181.345" y="70.11" width="5.762" height="1.485"/><rect class="cls-12" x="162.822" y="58.889" width="10.294" height="1.485"/><rect class="cls-12" x="162.822" y="64.479" width="14.674" height="1.485"/><rect class="cls-11" x="193.085" y="47.71" width="13.114" height="1.485"/><rect class="cls-11" x="228.099" y="58.889" width="13.114" height="1.485"/><rect class="cls-11" x="211.025" y="64.479" width="13.115" height="1.485"/><rect class="cls-13" x="215.899" y="47.71" width="13.115" height="1.485"/><rect class="cls-13" x="200.935" y="64.479" width="7.69" height="1.485"/><rect class="cls-10" x="208.624" y="47.71" width="4.8" height="1.485"/><rect class="cls-10" x="193.085" y="64.479" width="4.8" height="1.485"/><rect class="cls-11" x="162.699" y="53.299" width="7.51" height="1.485"/><rect class="cls-11" x="182.737" y="81.413" width="5.929" height="1.485"/><rect class="cls-11" x="172.052" y="53.299" width="2.425" height="1.485"/><rect class="cls-10" x="221.834" y="53.299" width="20.043" height="1.485"/><rect class="cls-11" x="213.425" y="53.299" width="6.557" height="1.485"/><rect class="cls-13" x="219.982" y="58.889" width="6.557" height="1.485"/><rect class="cls-11" x="197.737" y="53.299" width="13.952" height="1.485"/><rect class="cls-12" x="190.957" y="53.299" width="4.8" height="1.485"/><rect class="cls-13" x="174.799" y="58.889" width="4.8" height="1.485"/><rect class="cls-13" x="175.755" y="81.413" width="4.8" height="1.485"/><rect class="cls-11" x="180.762" y="53.299" width="8.364" height="1.485"/><polygon class="cls-14" points="163.625 127.073 163.13 127.073 163.13 97.551 189.766 97.551 189.766 85.058 190.261 85.058 190.261 98.045 163.625 98.045 163.625 127.073"/><path class="cls-15" d="M86.83,182.911h-.007C86.85,182.923,86.854,182.924,86.83,182.911Z"/><polygon class="cls-16" points="247.331 84.875 243.084 84.875 243.084 84.284 246.836 84.284 246.836 79.811 247.331 79.811 247.331 84.875"/><polygon class="cls-16" points="158.549 84.875 154.302 84.875 154.302 79.811 154.797 79.811 154.797 84.284 158.549 84.284 158.549 84.875"/><polygon class="cls-16" points="154.799 50.801 154.304 50.801 154.304 45.733 158.547 45.733 158.547 46.323 154.799 46.323 154.799 50.801"/><polygon class="cls-16" points="247.331 50.799 246.836 50.799 246.836 46.326 243.084 46.326 243.084 45.735 247.331 45.735 247.331 50.799"/><rect class="cls-16" x="246.836" y="58.366" width="0.495" height="13.879"/><rect class="cls-16" x="154.302" y="58.366" width="0.495" height="13.879"/><path class="cls-17" d="M252,118.373H234.168V105.642H252Zm-17.338-.5h16.843V106.137H234.663Z"/><polygon class="cls-17" points="243.084 113.353 234.258 106.08 234.573 105.698 243.084 112.712 251.596 105.698 251.911 106.08 243.084 113.353"/><rect class="cls-17" x="248.306" y="110.1" width="0.495" height="9.301" transform="translate(-10.754 202.535) rotate(-43.484)"/><rect class="cls-17" x="232.965" y="114.503" width="9.301" height="0.495" transform="translate(-9.163 208.183) rotate(-46.514)"/><path class="cls-17" d="M234.5,137.88H223.162v-8.095H234.5Zm-11.024-.315h10.709V130.1H223.477Z"/><polygon class="cls-17" points="228.831 134.688 223.219 130.064 223.419 129.821 228.831 134.28 234.243 129.821 234.443 130.064 228.831 134.688"/><rect class="cls-17" x="232.151" y="132.62" width="0.315" height="5.914" transform="translate(-29.544 197.072) rotate(-43.484)"/><rect class="cls-17" x="222.397" y="135.42" width="5.914" height="0.315" transform="translate(-28.102 205.762) rotate(-46.51)"/><path class="cls-17" d="M226.308,104.938H211.214V94.163h15.094Zm-14.675-.419h14.256V94.582H211.633Z"/><polygon class="cls-17" points="218.761 100.689 211.291 94.534 211.557 94.211 218.761 100.147 225.966 94.211 226.232 94.534 218.761 100.689"/><rect class="cls-17" x="223.181" y="97.937" width="0.419" height="7.872" transform="translate(-8.798 181.684) rotate(-43.484)"/><rect class="cls-17" x="210.196" y="101.663" width="7.872" height="0.419" transform="translate(-7.164 187.071) rotate(-46.499)"/><rect class="cls-18" x="100.782" y="69.352" width="17.83" height="1.424"/><rect class="cls-18" x="102.622" y="66.816" width="14.149" height="1.424"/><path class="cls-17" d="M112.707,47.27a2.984,2.984,0,1,1-2.984-2.985A2.984,2.984,0,0,1,112.707,47.27Z"/><path class="cls-17" d="M115.106,57v5.675a13.121,13.121,0,0,1-10.819,0V57a5.41,5.41,0,1,1,10.819,0Z"/><path class="cls-19" d="M109.7,64.2A13.32,13.32,0,0,1,104.14,63a13.443,13.443,0,1,1,11.113,0A13.327,13.327,0,0,1,109.7,64.2Zm0-26.179a12.736,12.736,0,0,0-5.263,24.334,12.767,12.767,0,0,0,10.525,0A12.736,12.736,0,0,0,109.7,38.017Z"/><rect class="cls-18" x="75.08" y="83.349" width="8.905" height="1.097"/><rect class="cls-18" x="72.92" y="81.396" width="13.226" height="1.097"/><path class="cls-10" d="M81.852,66.336a2.3,2.3,0,1,1-2.3-2.3A2.3,2.3,0,0,1,81.852,66.336Z"/><path class="cls-10" d="M83.7,73.832V78.2a10.109,10.109,0,0,1-8.335,0V73.832a4.168,4.168,0,1,1,8.335,0Z"/><path class="cls-20" d="M79.533,79.377a10.263,10.263,0,0,1-4.281-.924,10.359,10.359,0,1,1,8.561,0A10.259,10.259,0,0,1,79.533,79.377Zm0-20.17a9.813,9.813,0,0,0-4.055,18.748,9.836,9.836,0,0,0,8.109,0,9.813,9.813,0,0,0-4.054-18.749Z"/><rect class="cls-18" x="74.189" y="48.775" width="6.366" height="0.784"/><rect class="cls-18" x="72.644" y="47.378" width="9.455" height="0.784"/><path class="cls-10" d="M79.03,36.611a1.644,1.644,0,1,1-1.643-1.643A1.644,1.644,0,0,1,79.03,36.611Z"/><path class="cls-10" d="M80.352,41.97V45.1a7.225,7.225,0,0,1-5.959,0V41.97a2.98,2.98,0,0,1,5.959,0Z"/><path class="cls-21" d="M77.372,45.934a7.338,7.338,0,0,1-3.06-.66,7.4,7.4,0,1,1,6.121,0A7.343,7.343,0,0,1,77.372,45.934Zm0-14.419a7.016,7.016,0,1,0,7.014,7.014A7.022,7.022,0,0,0,77.372,31.515Z"/><polygon class="cls-14" points="220.794 125.433 198.609 125.433 198.609 124.905 220.265 124.905 220.265 113.353 228.052 113.353 228.052 113.881 220.794 113.881 220.794 125.433"/><path class="cls-22" d="M47.514,151.568h67.047a0,0,0,0,1,0,0v19.964a14.15,14.15,0,0,1-14.15,14.15H61.665A14.151,14.151,0,0,1,47.514,171.53V151.568A0,0,0,0,1,47.514,151.568Z"/><path class="cls-23" d="M53.1,147.084h55.871a5.588,5.588,0,0,1,5.588,5.588v.379a0,0,0,0,1,0,0H47.514a0,0,0,0,1,0,0v-.379A5.588,5.588,0,0,1,53.1,147.084Z"/><path class="cls-24" d="M63.394,164.851v-2.084H63.8V164.5h1.062v.355Z"/><path class="cls-25" d="M65.865,164.865a.946.946,0,0,1-.416-.089,1.026,1.026,0,0,1-.32-.238,1.066,1.066,0,0,1-.207-.339,1.1,1.1,0,0,1-.073-.39,1.043,1.043,0,0,1,.078-.4,1.11,1.11,0,0,1,.214-.338,1.04,1.04,0,0,1,.324-.233.963.963,0,0,1,.408-.086.914.914,0,0,1,.413.092,1.032,1.032,0,0,1,.318.242,1.121,1.121,0,0,1,.206.34,1.1,1.1,0,0,1,.073.388,1.055,1.055,0,0,1-.076.4,1.085,1.085,0,0,1-.212.334,1.01,1.01,0,0,1-.323.232A.955.955,0,0,1,65.865,164.865Zm-.6-1.056a.848.848,0,0,0,.041.261.682.682,0,0,0,.119.223.581.581,0,0,0,.191.156.55.55,0,0,0,.257.058.544.544,0,0,0,.259-.06.59.59,0,0,0,.191-.16.694.694,0,0,0,.117-.224.817.817,0,0,0,.04-.254.794.794,0,0,0-.043-.261.7.7,0,0,0-.12-.223.563.563,0,0,0-.191-.154.587.587,0,0,0-.515,0,.563.563,0,0,0-.19.158.707.707,0,0,0-.116.223A.817.817,0,0,0,65.26,163.809Z"/><path class="cls-26" d="M68.641,164.616a.8.8,0,0,1-.581.249.916.916,0,0,1-.386-.082.966.966,0,0,1-.314-.226,1.076,1.076,0,0,1-.212-.339,1.141,1.141,0,0,1-.077-.421,1.063,1.063,0,0,1,.077-.4,1.05,1.05,0,0,1,.215-.332,1.03,1.03,0,0,1,.321-.226.958.958,0,0,1,.4-.083.973.973,0,0,1,.5.123.8.8,0,0,1,.315.331l-.3.223a.56.56,0,0,0-.222-.237.608.608,0,0,0-.31-.083.535.535,0,0,0-.242.056.553.553,0,0,0-.187.153.726.726,0,0,0-.121.223.839.839,0,0,0-.042.267.77.77,0,0,0,.047.274.7.7,0,0,0,.129.222.6.6,0,0,0,.195.148.56.56,0,0,0,.245.054.714.714,0,0,0,.546-.284v-.147h-.42v-.3h.754v1.071h-.334Z"/><path class="cls-27" d="M69.322,164.851v-2.084h.405v2.084Z"/><path class="cls-28" d="M70.566,163.516v1.335h-.405v-2.084h.314l1.086,1.368V162.77h.4v2.081h-.329Z"/><path class="cls-29" d="M63.394,170.255v-2.084h.883a.59.59,0,0,1,.265.061.675.675,0,0,1,.21.158.744.744,0,0,1,.138.223.677.677,0,0,1,.05.251.731.731,0,0,1-.047.257.7.7,0,0,1-.132.221.645.645,0,0,1-.2.156.6.6,0,0,1-.264.059H63.8v.7ZM63.8,169.2h.469a.231.231,0,0,0,.186-.091.377.377,0,0,0,.075-.247.419.419,0,0,0-.023-.142.338.338,0,0,0-.062-.107.228.228,0,0,0-.089-.066.259.259,0,0,0-.1-.022H63.8Z"/><path class="cls-30" d="M65.683,168.171h.358l.792,2.084h-.417l-.193-.519H65.5l-.191.519h-.417Zm.466,1.28-.287-.819-.3.819Z"/><path class="cls-31" d="M68.271,168.717a.563.563,0,0,0-.075-.055.8.8,0,0,0-.132-.069,1.142,1.142,0,0,0-.168-.058.775.775,0,0,0-.185-.023.416.416,0,0,0-.25.062.2.2,0,0,0-.082.173.174.174,0,0,0,.031.107.27.27,0,0,0,.089.075.761.761,0,0,0,.148.058c.06.018.129.036.207.056.1.027.194.057.278.088a.772.772,0,0,1,.211.117.5.5,0,0,1,.134.169.568.568,0,0,1,.046.242.59.59,0,0,1-.063.286.521.521,0,0,1-.17.193.741.741,0,0,1-.246.107,1.269,1.269,0,0,1-.292.034,1.569,1.569,0,0,1-.464-.071,1.426,1.426,0,0,1-.411-.2l.179-.35a.512.512,0,0,0,.1.069,1.4,1.4,0,0,0,.162.086,1.248,1.248,0,0,0,.209.071.916.916,0,0,0,.234.03c.224,0,.335-.072.335-.215a.176.176,0,0,0-.038-.114.318.318,0,0,0-.109-.082,1.012,1.012,0,0,0-.17-.065l-.223-.064a2.048,2.048,0,0,1-.26-.09.68.68,0,0,1-.183-.114.421.421,0,0,1-.11-.153.518.518,0,0,1-.037-.207.648.648,0,0,1,.059-.281.56.56,0,0,1,.163-.206.741.741,0,0,1,.242-.125,1.013,1.013,0,0,1,.3-.042,1.148,1.148,0,0,1,.405.069,1.477,1.477,0,0,1,.323.163Z"/><path class="cls-32" d="M70.07,168.717a.563.563,0,0,0-.075-.055.8.8,0,0,0-.132-.069,1.116,1.116,0,0,0-.169-.058.762.762,0,0,0-.185-.023.415.415,0,0,0-.249.062.2.2,0,0,0-.082.173.174.174,0,0,0,.031.107.27.27,0,0,0,.089.075.761.761,0,0,0,.148.058c.06.018.129.036.207.056.1.027.194.057.278.088a.772.772,0,0,1,.211.117.494.494,0,0,1,.133.169.553.553,0,0,1,.047.242.6.6,0,0,1-.063.286.53.53,0,0,1-.17.193.75.75,0,0,1-.246.107,1.271,1.271,0,0,1-.293.034,1.563,1.563,0,0,1-.463-.071,1.426,1.426,0,0,1-.411-.2l.179-.35a.533.533,0,0,0,.095.069,1.513,1.513,0,0,0,.163.086,1.248,1.248,0,0,0,.209.071.916.916,0,0,0,.234.03c.223,0,.335-.072.335-.215a.176.176,0,0,0-.038-.114.328.328,0,0,0-.109-.082,1.047,1.047,0,0,0-.17-.065l-.223-.064a2.048,2.048,0,0,1-.26-.09.68.68,0,0,1-.183-.114.421.421,0,0,1-.11-.153.518.518,0,0,1-.037-.207.648.648,0,0,1,.059-.281.56.56,0,0,1,.163-.206.741.741,0,0,1,.242-.125,1.008,1.008,0,0,1,.3-.042,1.148,1.148,0,0,1,.405.069,1.5,1.5,0,0,1,.323.163Z"/><path class="cls-33" d="M71.3,168.177h.372l.235.69.235-.69h.376l-.356.948.264.666.59-1.62h.441l-.848,2.084h-.341l-.361-.874-.361.874h-.34l-.843-2.084H70.8l.593,1.62.258-.666Z"/><path class="cls-34" d="M74.484,170.27a.939.939,0,0,1-.415-.09,1,1,0,0,1-.32-.238,1.072,1.072,0,0,1-.207-.338,1.085,1.085,0,0,1-.074-.391,1.043,1.043,0,0,1,.078-.4,1.093,1.093,0,0,1,.214-.337,1.02,1.02,0,0,1,.325-.234.972.972,0,0,1,.408-.086.923.923,0,0,1,.412.092,1.048,1.048,0,0,1,.318.242,1.107,1.107,0,0,1,.206.341,1.066,1.066,0,0,1,.073.387,1.052,1.052,0,0,1-.076.4,1.071,1.071,0,0,1-.211.334,1.006,1.006,0,0,1-.323.232A.957.957,0,0,1,74.484,170.27Zm-.6-1.057a.859.859,0,0,0,.041.262.713.713,0,0,0,.119.223.6.6,0,0,0,.191.155.55.55,0,0,0,.257.059.544.544,0,0,0,.259-.06.592.592,0,0,0,.191-.16.733.733,0,0,0,.118-.225.847.847,0,0,0,.039-.254.82.82,0,0,0-.042-.261.738.738,0,0,0-.121-.223.571.571,0,0,0-.19-.154.558.558,0,0,0-.254-.057.552.552,0,0,0-.261.06.578.578,0,0,0-.191.158.707.707,0,0,0-.116.223A.822.822,0,0,0,73.879,169.213Z"/><path class="cls-35" d="M75.813,170.255v-2.084h.922a.59.59,0,0,1,.265.061.675.675,0,0,1,.21.158.744.744,0,0,1,.138.223.677.677,0,0,1,.05.251.7.7,0,0,1-.1.368.575.575,0,0,1-.275.239l.476.784h-.455l-.426-.7h-.4v.7Zm.405-1.053h.508a.21.21,0,0,0,.1-.027.262.262,0,0,0,.084-.072A.374.374,0,0,0,76.97,169a.434.434,0,0,0,.02-.132.39.39,0,0,0-.023-.135.364.364,0,0,0-.063-.107.289.289,0,0,0-.091-.07.235.235,0,0,0-.105-.025h-.49Z"/><path class="cls-36" d="M77.765,170.255v-2.084h.757a1.133,1.133,0,0,1,.448.083.9.9,0,0,1,.514.553,1.242,1.242,0,0,1,.065.4,1.216,1.216,0,0,1-.072.43.922.922,0,0,1-.207.329.933.933,0,0,1-.324.211,1.14,1.14,0,0,1-.424.075Zm1.376-1.045a.907.907,0,0,0-.041-.276.611.611,0,0,0-.12-.217.556.556,0,0,0-.2-.141.667.667,0,0,0-.263-.049H78.17V169.9h.352a.633.633,0,0,0,.265-.053.533.533,0,0,0,.194-.145.644.644,0,0,0,.119-.219A.887.887,0,0,0,79.141,169.21Z"/><path class="cls-37" d="M76.177,163.809a.694.694,0,1,1-.694-.694A.694.694,0,0,1,76.177,163.809Z"/><path class="cls-37" d="M79.036,163.809a.694.694,0,1,1-.694-.694A.694.694,0,0,1,79.036,163.809Z"/><path class="cls-37" d="M81.9,163.809a.694.694,0,1,1-.694-.694A.694.694,0,0,1,81.9,163.809Z"/><path class="cls-37" d="M84.754,163.809a.694.694,0,1,1-.694-.694A.694.694,0,0,1,84.754,163.809Z"/><path class="cls-37" d="M87.613,163.809a.694.694,0,1,1-.694-.694A.694.694,0,0,1,87.613,163.809Z"/><path class="cls-37" d="M90.472,163.809a.694.694,0,1,1-.694-.694A.694.694,0,0,1,90.472,163.809Z"/><path class="cls-37" d="M83.12,169.206a.695.695,0,1,1-.694-.695A.694.694,0,0,1,83.12,169.206Z"/><path class="cls-37" d="M85.889,169.206a.695.695,0,1,1-.694-.695A.694.694,0,0,1,85.889,169.206Z"/><path class="cls-37" d="M88.658,169.206a.695.695,0,1,1-.694-.695A.694.694,0,0,1,88.658,169.206Z"/><path class="cls-37" d="M91.427,169.206a.695.695,0,1,1-.694-.695A.694.694,0,0,1,91.427,169.206Z"/><path class="cls-37" d="M94.2,169.206a.695.695,0,1,1-.694-.695A.694.694,0,0,1,94.2,169.206Z"/><path class="cls-37" d="M96.965,169.206a.694.694,0,1,1-.694-.695A.694.694,0,0,1,96.965,169.206Z"/><path class="cls-37" d="M99.734,169.206a.694.694,0,1,1-.694-.695A.694.694,0,0,1,99.734,169.206Z"/><path class="cls-38" d="M105.422,174.278H56.652v-15.7h48.77ZM57.2,173.726H104.87V159.131H57.2Z"/><rect class="cls-39" x="51.3" y="180.11" width="21.189" height="1.723"/><rect class="cls-39" x="96.271" y="180.11" width="14.696" height="1.723"/><path class="cls-40" d="M24.712,114.8a32.185,32.185,0,0,0-2.382-3.79c-.863-1-3.733-1.755-3.343-3.036s4.235-.725,5.294.529,4.29,1.7,4.4,2.229a8.327,8.327,0,0,1-1.815,3.9A3.575,3.575,0,0,1,24.712,114.8Z"/><path class="cls-40" d="M18.259,117.156a31.049,31.049,0,0,0-3.664-2.539c-1.191-.578-4.124-.128-4.274-1.459s3.6-2.347,5.068-1.617,4.613-.144,4.925.3a8.318,8.318,0,0,1-.117,4.3C19.75,116.849,18.259,117.156,18.259,117.156Z"/><path class="cls-41" d="M23.751,122.261s1.08-7.384,1.031-8.665c-.014-.365,2.222-.23,2.118.474-.228,1.532.8,7.466.625,8.553S23.659,122.945,23.751,122.261Z"/><path class="cls-41" d="M20.368,124.383s-2.023-7.17-2.494-8.362c-.21-.53,1.852-1.352,2.131-.406.439,1.485,3.7,6.534,3.97,7.6S20.556,125.047,20.368,124.383Z"/><path class="cls-41" d="M21.773,129.365s-2.029-7.55-2.363-8.33l2.617-1.51a14.136,14.136,0,0,1,2.477,5.466C24.729,126.161,21.773,129.365,21.773,129.365Z"/><path class="cls-42" d="M82.432,110.006a9.022,9.022,0,0,0-4.884,3.339c-1.574,2.5-2.935,5.385-5.893,6.692a4.864,4.864,0,0,0-2.748,5.2c.231.52,5.14,9.413,7.123,9.807s.6-3.192.2-5.817,4.985-3.636,7.169-6.485a15.094,15.094,0,0,0,2.734-5.473Z"/><path class="cls-43" d="M81.855,122.224a1.287,1.287,0,0,0-.259-.047,1.875,1.875,0,0,0-.774.093,1.8,1.8,0,0,0-.3.15c-.786.463-2.647,1.721-2.9,1.751-.291.035-.046-4.306-.046-4.306a10.158,10.158,0,0,0,1.116-2.906C78.815,115.805,81.855,122.224,81.855,122.224Z"/><path class="cls-41" d="M58.577,126.76a11.5,11.5,0,0,0-7.9-1.755c-4.262.794-4.722,2.787-6.185,2.877s-6.352-.328-10.364.842-7.4,1.3-7.856.962,1.912-2.643,1.168-8.948l-3.384-.64s-1.671,6.286-2.228,7.623c-.6,1.431-1.741,4.124-.111,6.464s6.185,1.286,8.943,1.757,15.1.169,17.259.054c2.34-.126,9.4-.46,9.4-.46Z"/><path class="cls-43" d="M88.438,113.548s.231,3.591-.566,4.668a5.116,5.116,0,0,1-.681.792,1.584,1.584,0,0,0-.454.658,12.59,12.59,0,0,1-.594,1.871c-.214.226-.835-.349-1.059-.351s-2.413,1.887-2.936,1.5-3.715-3.626-3.446-5.846,1.247-5.536,4.841-5.515S88.163,112.654,88.438,113.548Z"/><path class="cls-44" d="M77.577,130.688a15.991,15.991,0,0,1-2.838,3.483,3.033,3.033,0,0,1-1.787.864c-.172,0-.339,0-.5.006-1.661.045-2.937.3-5.18.412-2.33.116-7.982-.209-8.149-.209s-1.8.292-1.8.292c-.585-.71.961-8.734,1.254-8.776a12.575,12.575,0,0,0,3.97.376c1.8-.292,2.507-.459,5.182-3.594s5.349-3.928,6.477-3.677a14.194,14.194,0,0,0,3.371,0S77.675,130.48,77.577,130.688Z"/><path class="cls-45" d="M81.612,122.193a1.925,1.925,0,0,0-.787.091,1.584,1.584,0,0,0-.306.136,14.348,14.348,0,0,1-1.131-3.11A10.253,10.253,0,0,0,81.612,122.193Z"/><path class="cls-46" d="M74.739,134.171a3.033,3.033,0,0,1-1.787.864c-.172,0-.339,0-.5.006l.684-6.651Z"/><path class="cls-43" d="M87.742,145.625l-1.6,1.459a56.5,56.5,0,0,1-5.519-3.806c-.7-.6-5.366-4.5-6.006-5.388s-1.465-10.083-1.382-10.5,4.057-.629,4.508.344c0,0,.207,5.243.314,6.121a4.552,4.552,0,0,0,1.039,2.409c.833,1.021,2.607,3.394,4.325,5.313C83.826,142.03,87.213,145.168,87.742,145.625Z"/><path class="cls-44" d="M78.065,127.847s.25-6.982-2.02-6.9c-2.871.11-3.3,3.622-2.911,7.439C73.134,128.39,77.424,128.432,78.065,127.847Z"/><path class="cls-43" d="M86.97,144.941a1.194,1.194,0,0,0,.523.441c.534.18,1.325-.167,1.715.533s-1.493,2.449-2,2.555-1.316-.681-1.949-2.233S86.97,144.941,86.97,144.941Z"/><path class="cls-43" d="M89.042,145.7a24.274,24.274,0,0,1,1.931,1.669c.852.823,1.718,1.9,1.5,2.108-.3.279-.88-.649-1.779-1.412-.827-.7-.78-.431-.78-.431s-.009-.077.746.855c.811,1,1.649,2.193,1.4,2.365-.157.108-.164.137-.518-.182.165.225.126.3.039.373-.453.379-1.875-.919-2.44-1.435.431.4.706.736.268.787-.5.059-2.43-1.863-3.186-2.488C85.4,147.224,89.042,145.7,89.042,145.7Z"/><path class="cls-47" d="M87.872,118.216s-.453,1.11-1.061,1.28-.634-1.237-1.4-2-2.31-1.943-2.31-1.943l1.211-.153S87.114,116.768,87.872,118.216Z"/><path class="cls-42" d="M86.928,116.12a10.017,10.017,0,0,0,1.228,1.491s1.089-.884.258-4.257-3.961-3.69-5.982-3.348c-2.517.426-5.05,8.94-4.919,9.769s2.95-4.4,5.42-3.979S85.423,116.355,86.928,116.12Z"/><path class="cls-10" d="M60.21,127.08s-.766,5.494-.388,8.2a1.385,1.385,0,0,0,1.194.057,77.322,77.322,0,0,1,.644-8.127S61.416,127.022,60.21,127.08Z"/><rect class="cls-10" x="60.392" y="7.5" width="0.593" height="123.735"/><path class="cls-48" d="M171.867,123.261a15.08,15.08,0,0,0-15.06,15.061v6.406H159.6v-6.406a12.274,12.274,0,0,1,24.547,0v6.406h2.789v-6.406A15.081,15.081,0,0,0,171.867,123.261Z"/><path class="cls-49" d="M158.008,141.771H131.064a5.122,5.122,0,0,0-5.122,5.122v26.944a5.122,5.122,0,0,0,5.122,5.122h26.944a5.122,5.122,0,0,0,5.122-5.122V146.893A5.122,5.122,0,0,0,158.008,141.771Zm-12.031,19.416v8.94H143.1v-8.94a5.392,5.392,0,1,1,2.882,0Z"/><path class="cls-50" d="M137.549,133.258a14.866,14.866,0,0,0,.457,2.313c.261.709,1.678,2.343,1.079,3.914-.648,1.7-3.481.061-4.636-.458s-.892-1.462-1.015-2.617-.687-1.186-.479-2a9.84,9.84,0,0,1,1.471-2.366Z"/><path class="cls-43" d="M134.972,131.206s-.725,1.014-.705,1.042,3.105,1.906,3.32,1.3a6.266,6.266,0,0,0,.243-1.185Z"/><path class="cls-50" d="M124.512,134.393a11.643,11.643,0,0,0-1.787,2.093c-.845,1.268-3.089,1.335-3.185,3.066s3.051,1.784,4.7,1.221,1.9-2.254,2.9-2.677,1.518-.765,1.441-1.59a10.065,10.065,0,0,0-.63-2.165,6.729,6.729,0,0,1-.986.239A8.192,8.192,0,0,1,124.512,134.393Z"/><path class="cls-44" d="M135.837,87.5s-.633,3.766-1.144,6.253h0a14.734,14.734,0,0,1-.51,2.059,28.84,28.84,0,0,1-2.789,3.09c-2.552,2.628-5.924,5.936-5.924,5.936l-1.319-2.5s3-3.512,5.026-5.855c.94-1.084,1.673-1.918,1.808-2.038.424-.38.917-4.122,1.609-7.206a12.424,12.424,0,0,1,2.081-4.787Z"/><path class="cls-43" d="M124.66,133.24l-.148,1.153a5.679,5.679,0,0,0,3.443-.052l.037-1.025Z"/><path class="cls-44" d="M147.917,104.327c.094.336-17.353,0-17.353,0s4.826-3.512,5.139-4.451-1.229-6.569-1.43-8.4c-.161-1.466-.564-8.025.4-9.027,1.01-1.047,4.648-2.145,4.648-2.145l5.3.2a8.337,8.337,0,0,1,1.5.473c.626.291,4.2,1.565,4.785,3.353s-3.57,7.534-3.57,7.534l-.021.682h0c-.016.564-.04,1.422-.061,2.353-.028,1.2-.052,2.531-.052,3.5A34.618,34.618,0,0,0,147.917,104.327Z"/><path class="cls-41" d="M147.917,104.328s2.373,3.485,2.406,5.864-4.211,10.35-4.853,11.49c-1.931,3.427-7.228,10.821-7.228,10.821a14.29,14.29,0,0,1-3.761-1.129s3.523-9.766,3.97-10.78c1.894-4.3,2.951-7.35,2.314-8.087s-2.373-1.477-2.875-1.912-9.261,1.655-10.178,1.892c-2.377.617-1.294,4.751-.768,6.605.88,3.1,1.648,14.3,1.648,14.3a8.07,8.07,0,0,1-4.527.112s-5.567-20.222-5.745-22.233-.267-5.326,13.451-7.847Z"/><path class="cls-43" d="M140.778,68.781s-4.6-1.038-3.552,4.755,2.159,6.249,4.936,5.05,2.528-4.911,2.668-6.731S142.246,68.845,140.778,68.781Z"/><path class="cls-43" d="M139.56,81.79s2.038,2.161,5.26.2c0,0-.72-4.684-.341-6.965s-4.2,3.535-4.2,3.535c.061.031.1.249.11.559a6.245,6.245,0,0,1-.049.928C140.242,80.8,140.006,81.6,139.56,81.79Z"/><path class="cls-51" d="M144.606,74.828s-.119-1.825-.786-1.882-.769.678-.769.678l-.673.127s.212-1.6-.453-1.879-4.313.88-4.848.411-.283-3.715.684-4.159,3.635-1.439,5.591-.116c0,0,1.524-.173,1.75,1.057A16.886,16.886,0,0,1,144.606,74.828Z"/><path class="cls-45" d="M140.336,80.044c3.324-1.025,3.575-3.026,3.578-3.058a5.013,5.013,0,0,1-3.529,2.13A6.245,6.245,0,0,1,140.336,80.044Z"/><path class="cls-44" d="M128.568,104.082s12.049,1.486,19.349.246l-13.948-1.743S133.886,102.94,128.568,104.082Z"/><path class="cls-43" d="M137.58,102.036l-.9.455a4.118,4.118,0,0,0,.7,1.858l1.007-.257A4.177,4.177,0,0,0,137.58,102.036Z"/><path class="cls-44" d="M151.522,99.116a45.457,45.457,0,0,1-5.224,2.192h0c-3.656,1.408-7.779,2.74-7.779,2.74l-.939-2.012s4.318-2.346,7.236-3.992c1.379-.777,2.444-1.4,2.595-1.542.469-.447.591-1.163.246-2.413s-1.14-6.994-1.229-7.664.223-2.458,1.9-2.547a5.033,5.033,0,0,1,2.529.384s.421.175.733,4.241S151.947,98.625,151.522,99.116Z"/><path class="cls-46" d="M147.32,92.542h0c-.016.564-.04,1.422-.061,2.353a11.754,11.754,0,0,1-.675-7.263C146.407,88.72,147.307,92.488,147.32,92.542Z"/><path class="cls-46" d="M134.693,93.751h0a14.734,14.734,0,0,1-.51,2.059,21.3,21.3,0,0,1-.056-6.165A34.944,34.944,0,0,0,134.693,93.751Z"/><polygon class="cls-52" points="137.32 104.211 120.194 103.959 128.841 108.349 137.32 104.211"/><polygon class="cls-53" points="128.841 108.349 137.32 105.065 137.32 104.211 128.171 107.511 128.841 108.349"/><path class="cls-43" d="M136.876,102.522s-1.07-.167-1.809-.339a3.705,3.705,0,0,0-2.357.418c-.363.367-1.515,2.926-1.733,3.082s.112.517.5.336c0,0,.351,1.119,1.218.7s1.456-1.334,1.911-1.495,3.1-.975,3.1-.975S137.558,102.249,136.876,102.522Z"/><path class="cls-43" d="M132.971,102.433a7.515,7.515,0,0,0-.867.48c-.179.148-.906.692-1.082.82s.265.492,1.565-.071S132.971,102.433,132.971,102.433Z"/><polygon class="cls-53" points="128.841 108.349 123.747 94.441 107.325 94.709 112.18 107.526 128.841 108.349"/><path class="cls-47" d="M137.3,73.916s1.468-.166,6.145-.672v.643s-.958.173-1.556.342-1.555.893-2.446.671c-1.2-.3-1.168.438-1.946.294C137.153,75.13,137.3,73.916,137.3,73.916Z"/><path class="cls-43" d="M143.065,72.85a.587.587,0,0,1,1.152.068c.082.766-.459,2.111-.842,1.979S142.982,73.555,143.065,72.85Z"/><path class="cls-44" d="M140.362,79.807a8.365,8.365,0,0,0,4.157-.323s.085.831.316.909.415.19,1.544.689c.348.154-2.26,5.541-5.872,5.183s-3.84-3.261-2.321-5.584a17.254,17.254,0,0,1,2.154-.662A1.032,1.032,0,0,1,140.362,79.807Z"/><path class="cls-54" d="M64.3,275.338s1.927-.782,2.718-1.117.909-1.07,1.242-.579a7.642,7.642,0,0,0,2.876,2.186c.89.191,6.677,1.069,6.791,2.38s-2.583,1.773-6.392,1.972-3.9,1.182-6.438.533C64.3,280.511,64.3,275.338,64.3,275.338Z"/><path class="cls-54" d="M8.175,253.978s.953,1.776,1.359,2.506,1.13.768.691,1.141a7.44,7.44,0,0,0-1.815,3.009c-.092.882-.338,6.571-1.595,6.818s-1.983-2.314-2.573-5.977-1.55-3.649-1.187-6.172C3.168,254.517,8.175,253.978,8.175,253.978Z"/><path class="cls-43" d="M72.05,213.513s.926-1.688,1.075-1.942a4.644,4.644,0,0,1,1.775-.941,5.388,5.388,0,0,1,2.364-.29.825.825,0,0,1,.449.526,1.592,1.592,0,0,1,.038.8.967.967,0,0,1,.237.9.845.845,0,0,1,.083.934.7.7,0,0,1,.105.771,6.361,6.361,0,0,0-.978.568,13.415,13.415,0,0,1-3.451,1.221S71.973,216.552,72.05,213.513Z"/><path class="cls-55" d="M74.7,212.845a4.719,4.719,0,0,1-.26,1.219c-.163.257,1.844,1.107,1.844,1.107S75.868,212.993,74.7,212.845Z"/><path class="cls-41" d="M41.079,225.182c-1.576,1.188-3.692,5.839-5.169,9.473-.033.065-2.953,7.321-4.289,9.317-2.008,3-5.106,2.592-9.414,4.229-3.5,1.33-14.438,5.592-14.438,5.592l2.205,4.387S27,254,32.367,251.777c2.719-1.128,11.683-7.859,11.684-7.86h0c1.12-.917,2.131-1.809,2.994-2.6h0c.686-.631,1.277-1.2,1.755-1.669.855-.844,1.342-1.37,1.342-1.37S42.4,224.184,41.079,225.182Z"/><path class="cls-44" d="M54.7,202.891l4.748,12s.236,1.663,3.7.54c3.539-1.147,9.211-2.658,9.211-2.658s1.617,3.458,1.2,3.7a149.849,149.849,0,0,1-14.929,5.116c-3.228.88-9.573-15.348-9.573-15.348Z"/><path class="cls-41" d="M63.1,250.117c.071-2-2.184-7.662-3.884-11.093h0c-2.666-5.482-5.376-11.187-5.376-11.187s-15.474-.008-15.447,1.649c.051,3.141,8.133,10.762,9.332,12.15h0s3.4,2.728,4.57,4.841c1.7,3.084,2.01,5.249,3.127,9.277,1,3.608,8.278,19.963,8.278,19.963l5.329-1.635S62.992,253.229,63.1,250.117Z"/><path class="cls-44" d="M37.625,228.493s10.562-11.264,9.653-18.547a14.2,14.2,0,0,1-.111-1.744,13.9,13.9,0,0,1,.166-2.2,13.2,13.2,0,0,1,6.436-9.538s-.03-.931,4.416,3.341a22.085,22.085,0,0,1,3.06,9.335c.413,5.8-1.248,6.964-3.295,11.375-1.5,3.224-3.65,6.032-4.107,7.318C53.843,227.837,52.656,229.735,37.625,228.493Z"/><path class="cls-43" d="M58.464,196.1s-.054.236-.13.6c-.057.27-.126.61-.2.98a13.679,13.679,0,0,0-.325,2.779c.1,1.065-3.936-3.812-3.936-3.812a51.523,51.523,0,0,0,.959-7.235C55.054,185.555,58.464,196.1,58.464,196.1Z"/><path class="cls-45" d="M58.369,196.685c-.056.27-.161.627-.23,1a19.123,19.123,0,0,1-2.71-3.294A17.005,17.005,0,0,0,58.369,196.685Z"/><path class="cls-56" d="M77.029,210.418s-2.225.9-2.124,1.275a.608.608,0,0,0,.365.453l-.748.786s-.2.8.729.785c0,0-.266.727.63.607,0,0,.039.558.463.575a8.02,8.02,0,0,0,1.832-.62s.237-.268-.105-.771a.829.829,0,0,0-.083-.934.91.91,0,0,0-.237-.9s.312-1-.487-1.331C77.264,210.34,77.122,210.38,77.029,210.418Z"/><path class="cls-43" d="M73.192,211.536a8.155,8.155,0,0,1,2.5.62c.195.107.364.247.338.468s-.38.463-1.093.436a6.009,6.009,0,0,0-1.649.263S72.562,213.08,73.192,211.536Z"/><path class="cls-43" d="M62.478,187.487s1.251,2.331.627,2.692c-.515.3.6,2.585.742,2.959s-.933.642-1.163.882-.915,3.195-1.8,3.282-4.885-1.313-5.971-2.448-1.968-6.252-1.236-8.408S60.271,183.414,62.478,187.487Z"/><path class="cls-57" d="M62.741,187.965s.476-1.693-1.848-3.563-5.868.38-6.312.724c-.4.306-2.756,2.267-1.855,5.13,1.506,4.786,1.57,4.586,1.57,4.586s.3-2.828,1.175-3.029c.947-.218,2.511-.428,2.511-.428s-.816-2.182.468-2.488S61.444,187.48,62.741,187.965Z"/><path class="cls-57" d="M54.394,185.28s-3.1.633-2.6,2.98a32.475,32.475,0,0,0,2.08,5.533C54.076,194.344,54.394,185.28,54.394,185.28Z"/><path class="cls-58" d="M35.893,207.036h28.5a19.935,19.935,0,0,1,19.935,19.935v2.7a19.934,19.934,0,0,1-19.934,19.934h-28.5a19.934,19.934,0,0,1-19.934-19.934v-2.7a19.935,19.935,0,0,1,19.935-19.935Z"/><rect class="cls-59" x="15.958" y="234.257" width="68.369" height="8.23"/><rect class="cls-3" x="20.811" y="218.509" width="19.835" height="11.739" rx="5.497"/><rect class="cls-60" x="55.734" y="228.322" width="24.478" height="1.926"/><rect class="cls-61" x="55.734" y="225.052" width="24.478" height="1.926"/><path class="cls-43" d="M41.881,228.685a2.192,2.192,0,0,1-.458-.534s-.139-.408-.254-.692a2.277,2.277,0,0,0-.1-.215,4.023,4.023,0,0,1-.564-1.16,26.974,26.974,0,0,1-.125-3.109l1.382-.384,1.243-.544a27.221,27.221,0,0,1,2.68,2.979,1.286,1.286,0,0,1,.046.146,5.155,5.155,0,0,1,.06,1.059c.013.088.082.97-.108,1.153a.865.865,0,0,1-.795.272,2.063,2.063,0,0,1-1.021.5,1.284,1.284,0,0,1-1.09.309S42.238,228.869,41.881,228.685Z"/><path class="cls-44" d="M53.291,204.078s2.691-.172,1.353-4.25c-1.8-5.5-7.171.069-18.506,4.709a3.9,3.9,0,0,0-2.267,4.677c.91,3.393,5.64,13.21,5.9,14.294l3.232-1.461s-1.465-5.425-2.018-8.226-.944-5.4-.944-5.4Z"/><path class="cls-47" d="M63.359,189.484a3.124,3.124,0,0,1-.069,1.846c-.316,1.312-2.086-.692-2.835-.631s-3.387.354-3.387.354l-.56-.6S63.138,188.384,63.359,189.484Z"/><path class="cls-43" d="M57.428,191.542c-.063-.255-.354-1.4-1.249-1.229s-.6,1.576.094,2.4S57.782,192.967,57.428,191.542Z"/><circle class="cls-62" cx="258.61" cy="162.012" r="31.784" transform="translate(-43.229 206.961) rotate(-40.536)"/><path class="cls-62" d="M260.226,193.756l.557-63.454a31.785,31.785,0,0,1-.557,63.454Z"/><path class="cls-62" d="M226.828,161.733a31.8,31.8,0,0,1,24.3-30.619l-.542,61.66A31.8,31.8,0,0,1,226.828,161.733Z"/><circle class="cls-63" cx="258.61" cy="162.012" r="24.157" transform="translate(-43.909 121.899) rotate(-24.513)"/><path class="cls-64" d="M265.825,156.76a4.891,4.891,0,0,0-.916-.782,10.7,10.7,0,0,0-1.408-.813,11.709,11.709,0,0,0-1.765-.68,10.286,10.286,0,0,0-1.984-.386l-.187,7.3.667.158a31.166,31.166,0,0,1,3.413,1.111,9.813,9.813,0,0,1,2.557,1.441,5.624,5.624,0,0,1,1.589,2.035,6.457,6.457,0,0,1,.508,2.889,6.987,6.987,0,0,1-.751,3.175,6.226,6.226,0,0,1-1.908,2.157,8.31,8.31,0,0,1-2.785,1.253,13.407,13.407,0,0,1-3.38.39l-.1,3.7-1.834-.046.1-3.774a17.789,17.789,0,0,1-4.806-1.129,15.19,15.19,0,0,1-4.138-2.417l1.885-3.34a6.249,6.249,0,0,0,1.1.945,12.73,12.73,0,0,0,1.7,1,15.909,15.909,0,0,0,2.148.867,13.908,13.908,0,0,0,2.439.556l.187-7.3q-.21-.076-.438-.135t-.438-.135a29.749,29.749,0,0,1-3.236-1.123,8.149,8.149,0,0,1-2.276-1.382,5.178,5.178,0,0,1-1.347-1.852,6.031,6.031,0,0,1-.412-2.534,7.446,7.446,0,0,1,.678-3.053,6.727,6.727,0,0,1,1.752-2.267,8.049,8.049,0,0,1,2.6-1.451,11.881,11.881,0,0,1,3.245-.606l.091-3.562,1.834.047-.091,3.562a13.579,13.579,0,0,1,4.209,1.025,15.33,15.33,0,0,1,3.373,1.957Zm-11.663.62a2.549,2.549,0,0,0,.984,2.248,10.025,10.025,0,0,0,3.123,1.386l.178-6.948a5.1,5.1,0,0,0-3.2.924A3.055,3.055,0,0,0,254.162,157.38Zm9.894,11.97a2.61,2.61,0,0,0-1.174-2.377,13.265,13.265,0,0,0-3.42-1.517l-.179,6.983a6.43,6.43,0,0,0,3.5-.757A2.662,2.662,0,0,0,264.056,169.35Z"/><path class="cls-65" d="M265.419,193.065a31.792,31.792,0,0,0,.544-61.981Z"/><path class="cls-65" d="M250.584,192.774l.542-61.66a31.848,31.848,0,0,1,7.763-.884q.954.008,1.894.072l-.557,63.454q-.941.047-1.895.039A31.841,31.841,0,0,1,250.584,192.774Z"/><path class="cls-66" d="M242.489,192.8a2.243,2.243,0,0,1,.031-1.26,6,6,0,0,0,.539-1.8c-.055-.152-1.659-.957-2.249-1.4-.421-.314-3.48-3.43-3.521-3.21a5.522,5.522,0,0,0,1.329,3.7,16.073,16.073,0,0,1,2.28,4.732C241.148,194.266,242.489,192.8,242.489,192.8Z"/><path class="cls-66" d="M271.654,193.032a4,4,0,0,1-.193-1.89,5.8,5.8,0,0,1,2.625-1.807c1.272-.593,4.18-2.263,4.32-2.133s.161.984-1.85,2.715-2.734,2.128-2.71,3S271.654,193.032,271.654,193.032Z"/><path class="cls-66" d="M259.439,209.171s-4.865,3.331-4.626,1.3a13.33,13.33,0,0,0-.283-4.144s4.83-2.1,4.61-.586a6.138,6.138,0,0,0-.049,1.089,10.47,10.47,0,0,0,.119,1.214C259.312,208.7,259.439,209.171,259.439,209.171Z"/><path class="cls-67" d="M275.107,278.449a15.021,15.021,0,0,1,2.118,1.421c.615.576,3.377.28,3.964,1.812s-2.018,2.307-4.837,1.483a15.715,15.715,0,0,1-4.25-1.862c-1-.484.06-3.032.06-3.032Z"/><path class="cls-67" d="M246.773,274.55a19.3,19.3,0,0,0,.185,2.341c.175,1.161,1.6,3.633,1.489,4.562s-1.838,2.332-3.739.081c-1.416-1.677-.943-4.418-1.386-5.192A3.428,3.428,0,0,1,244,272.75C245.029,271.652,246.773,274.55,246.773,274.55Z"/><path class="cls-41" d="M267.193,234.83s7.442,14.094,7.7,16.071.544,23.169.859,24.553a2.054,2.054,0,0,1-.465,2.043s-2.483.989-3.227-.132-.517-1.78-.517-1.78-2.46-17.038-2.775-19.839-8.242-14.764-8.958-13.677-2.032,11.37-2.633,12.853-9.531,18.851-10.218,18.851-3.262-.4-2.862-2.439,6.211-17.1,6.211-18.818,1.818-17.718,2.283-19.866S267.193,234.83,267.193,234.83Z"/><path class="cls-56" d="M275.094,278.621l.066-.881L272.1,277.5l.076.911s.071.5,1.526.6S275.094,278.621,275.094,278.621Z"/><path class="cls-56" d="M246.958,273.773s-.246,1.038-.3,1.252a2.017,2.017,0,0,1-2.383-.52,1.739,1.739,0,0,1-.218-1.622,2.152,2.152,0,0,1,.2-.626Z"/><path class="cls-67" d="M275.944,277.5a6.459,6.459,0,0,1-4.3.263,3.823,3.823,0,0,1-.1-2.175,4.753,4.753,0,0,0,4.168-.422A4.887,4.887,0,0,1,275.944,277.5Z"/><path class="cls-67" d="M247.574,273.872s-3.378.033-3.893-2.274a5.294,5.294,0,0,1,.794-1.579s.568,1.878,3.68,2.058A7.01,7.01,0,0,1,247.574,273.872Z"/><path class="cls-66" d="M255.456,196.385s4.635-1.637,4.85,4.094c.218,5.815-.421,6.467-2.3,6.895s-3.953-.214-5.6-4.543C250.836,198.709,252.539,196.725,255.456,196.385Z"/><path class="cls-44" d="M274.465,203.317c-.354.87-4.126,6.545-4.578,7.576s-2.293,3.676-2.452,4.063-.683,4.7-1.167,5.959-.024,9.839.17,11.225a11.905,11.905,0,0,0,.755,2.69,129.288,129.288,0,0,1-15.239,2.242,39.365,39.365,0,0,0,.4-5.021c-.1-1.386-1.776-10.067-2.485-11.421s-7.222-10.9-7.48-11.284-3.031-4.836-3.16-5.868.633-9.182.638-10.273a9.421,9.421,0,0,1,.016-1.166l2.919.221s.208,4.62.4,5.926,1.257,5.465,1.451,6.19,4.787,7.061,5.609,7.061a13.929,13.929,0,0,0,3.105-.993c.7-.282,1.3-.542,1.538-.652a18.452,18.452,0,0,1,5.246-1.091s.284.039.715.081a11.392,11.392,0,0,0,3.638-.081,6.625,6.625,0,0,0,2.74-2.289,33.68,33.68,0,0,0,3.515-4.4c.193-.612.33-6.053.4-7.588a11.609,11.609,0,0,0,.04-1.937c-.033-.194,3.271-.927,3.206-.379s-.081,4.013.058,5.982C274.6,200.018,274.82,202.446,274.465,203.317Z"/><path class="cls-68" d="M252.9,204s-.463-.814-.037-1.111a.487.487,0,0,1,.707.12l.459-.076s-.906-1.7.527-2.011,4.443-.567,5.217-1.141c0,0,.316,1.311.345,1.562s.21-.06.21-.06.275-4.146-2.394-5.542-5.579.266-6.056,1.848S251.28,200.729,252.9,204Z"/><path class="cls-66" d="M252.963,201.847s-.511-.4-.589.019a4.422,4.422,0,0,0,1.111,2.221C253.729,204.1,253.569,202.335,252.963,201.847Z"/><path class="cls-45" d="M259.21,208.041c-2.925.54-4.018-1.161-4.018-1.161a3.861,3.861,0,0,0,3.927.1C259.153,207.411,259.154,207.678,259.21,208.041Z"/><path class="cls-66" d="M259.129,216.138c-3.525.215-5.763-5.694-5.763-5.694.7-.282,1.3-.542,1.538-.652a17.182,17.182,0,0,1,5.246-1.091s.284.039.715.081C260.865,208.782,262.655,215.923,259.129,216.138Z"/></g></g></svg>