<svg id="BACKGROUND_2" data-name="BACKGROUND 2" xmlns="http://www.w3.org/2000/svg" viewBox="0 0 765.92 516.96"><defs><style>.cls-1,.cls-10,.cls-11,.cls-12,.cls-13,.cls-2,.cls-3,.cls-4,.cls-7,.cls-8,.cls-9{fill:none;}.cls-1,.cls-10,.cls-11,.cls-12,.cls-13,.cls-2,.cls-3,.cls-4,.cls-5,.cls-6,.cls-7,.cls-8,.cls-9{stroke:#000;}.cls-1,.cls-11,.cls-13,.cls-2,.cls-3,.cls-4,.cls-5,.cls-6,.cls-7,.cls-8,.cls-9{stroke-miterlimit:10;}.cls-2{opacity:0.7;}.cls-3{opacity:0.4;}.cls-4{opacity:0.1;}.cls-5{fill:#fff7e9;}.cls-14,.cls-6{fill:#453246;}.cls-10,.cls-11,.cls-12,.cls-13,.cls-7,.cls-9{stroke-linecap:round;}.cls-7{stroke-width:7px;}.cls-10,.cls-8,.cls-9{stroke-width:4px;}.cls-10,.cls-12{stroke-linejoin:round;}.cls-12,.cls-13{stroke-width:3px;}</style></defs><title>iot</title><circle class="cls-1" cx="564.76" cy="184.79" r="23"/><path class="cls-2" d="M593.63,184.79a28.87,28.87,0,1,0-28.87,28.87A28.86,28.86,0,0,0,593.63,184.79Z"/><path class="cls-3" d="M600.51,184.79a35.75,35.75,0,1,0-35.75,35.75A35.74,35.74,0,0,0,600.51,184.79Z"/><path class="cls-4" d="M607.42,184.79a42.66,42.66,0,1,0-42.66,42.66A42.66,42.66,0,0,0,607.42,184.79Z"/><circle class="cls-1" cx="536.87" cy="86.88" r="23"/><path class="cls-2" d="M565.74,86.88a28.87,28.87,0,1,0-28.87,28.87A28.87,28.87,0,0,0,565.74,86.88Z"/><circle class="cls-3" cx="536.87" cy="86.88" r="35.75" transform="matrix(0.99, -0.15, 0.15, 0.99, -6.95, 80.8)"/><circle class="cls-4" cx="536.87" cy="86.88" r="42.66" transform="translate(-6.95 80.8) rotate(-8.55)"/><circle class="cls-1" cx="446.25" cy="115.14" r="23"/><path class="cls-2" d="M475.12,115.14A28.87,28.87,0,1,0,446.25,144,28.88,28.88,0,0,0,475.12,115.14Z"/><path class="cls-3" d="M482,115.14a35.75,35.75,0,1,0-35.75,35.76A35.75,35.75,0,0,0,482,115.14Z"/><circle class="cls-4" cx="446.25" cy="115.14" r="42.66" transform="translate(-11.18 58.96) rotate(-7.47)"/><circle class="cls-1" cx="359.87" cy="72.82" r="23"/><path class="cls-2" d="M388.75,72.82a28.88,28.88,0,1,0-28.88,28.87A28.88,28.88,0,0,0,388.75,72.82Z"/><path class="cls-3" d="M395.63,72.82a35.76,35.76,0,1,0-35.76,35.76A35.76,35.76,0,0,0,395.63,72.82Z"/><circle class="cls-4" cx="359.87" cy="72.82" r="42.66" transform="translate(53.91 275.8) rotate(-45)"/><circle class="cls-1" cx="225.26" cy="85.37" r="23"/><path class="cls-2" d="M254.13,85.37a28.87,28.87,0,1,0-28.87,28.87A28.87,28.87,0,0,0,254.13,85.37Z"/><path class="cls-3" d="M261,85.37a35.76,35.76,0,1,0-35.75,35.75A35.75,35.75,0,0,0,261,85.37Z"/><circle class="cls-4" cx="225.26" cy="85.37" r="42.66" transform="translate(5.61 184.28) rotate(-45)"/><circle class="cls-1" cx="307.02" cy="159.69" r="23"/><path class="cls-2" d="M335.9,159.69A28.88,28.88,0,1,0,307,188.56,28.88,28.88,0,0,0,335.9,159.69Z"/><path class="cls-3" d="M342.78,159.69A35.76,35.76,0,1,0,307,195.44,35.76,35.76,0,0,0,342.78,159.69Z"/><circle class="cls-4" cx="307.02" cy="159.69" r="42.66" transform="translate(-39.03 156.58) rotate(-26.97)"/><circle class="cls-1" cx="178.39" cy="169.68" r="23"/><path class="cls-2" d="M207.26,169.68a28.87,28.87,0,1,0-28.87,28.87A28.88,28.88,0,0,0,207.26,169.68Z"/><path class="cls-3" d="M214.14,169.68a35.76,35.76,0,1,0-35.75,35.76A35.76,35.76,0,0,0,214.14,169.68Z"/><circle class="cls-4" cx="178.39" cy="169.68" r="42.66" transform="translate(-67.74 175.84) rotate(-45)"/><circle class="cls-1" cx="189.23" cy="313.51" r="23"/><path class="cls-2" d="M218.1,313.51a28.87,28.87,0,1,0-28.87,28.87A28.87,28.87,0,0,0,218.1,313.51Z"/><path class="cls-3" d="M225,313.51a35.75,35.75,0,1,0-35.75,35.75A35.75,35.75,0,0,0,225,313.51Z"/><circle class="cls-4" cx="189.23" cy="313.51" r="42.66" transform="translate(-52.64 38.56) rotate(-10.22)"/><circle class="cls-1" cx="248.3" cy="231.65" r="23"/><path class="cls-2" d="M277.18,231.65a28.88,28.88,0,1,0-28.88,28.88A28.88,28.88,0,0,0,277.18,231.65Z"/><path class="cls-3" d="M284.06,231.65a35.76,35.76,0,1,0-35.76,35.76A35.76,35.76,0,0,0,284.06,231.65Z"/><circle class="cls-4" cx="248.3" cy="231.65" r="42.66" transform="translate(-45.86 62) rotate(-13.04)"/><circle class="cls-1" cx="188.78" cy="441.66" r="23"/><path class="cls-2" d="M217.65,441.66a28.87,28.87,0,1,0-28.87,28.88A28.87,28.87,0,0,0,217.65,441.66Z"/><path class="cls-3" d="M224.54,441.66a35.76,35.76,0,1,0-35.76,35.76A35.76,35.76,0,0,0,224.54,441.66Z"/><circle class="cls-4" cx="188.78" cy="441.66" r="42.66" transform="translate(-282.95 351.25) rotate(-56.01)"/><circle class="cls-1" cx="258.57" cy="375.64" r="23"/><path class="cls-2" d="M287.44,375.64a28.88,28.88,0,1,0-28.87,28.87A28.88,28.88,0,0,0,287.44,375.64Z"/><path class="cls-3" d="M294.32,375.64a35.76,35.76,0,1,0-35.75,35.75A35.76,35.76,0,0,0,294.32,375.64Z"/><circle class="cls-4" cx="258.57" cy="375.64" r="42.66" transform="translate(-189.88 292.85) rotate(-45)"/><circle class="cls-1" cx="320.5" cy="436.85" r="23"/><path class="cls-2" d="M349.37,436.85a28.87,28.87,0,1,0-28.87,28.88A28.88,28.88,0,0,0,349.37,436.85Z"/><path class="cls-3" d="M356.25,436.85a35.75,35.75,0,1,0-35.75,35.76A35.76,35.76,0,0,0,356.25,436.85Z"/><circle class="cls-4" cx="320.5" cy="436.85" r="42.66" transform="translate(-213.9 526.19) rotate(-63.22)"/><circle class="cls-1" cx="406.36" cy="381.69" r="23"/><path class="cls-2" d="M435.23,381.69a28.88,28.88,0,1,0-28.87,28.87A28.88,28.88,0,0,0,435.23,381.69Z"/><path class="cls-3" d="M442.11,381.69a35.76,35.76,0,1,0-35.75,35.76A35.76,35.76,0,0,0,442.11,381.69Z"/><path class="cls-4" d="M449,381.69a42.66,42.66,0,1,0-42.65,42.66A42.65,42.65,0,0,0,449,381.69Z"/><circle class="cls-1" cx="431.31" cy="451.01" r="23"/><path class="cls-2" d="M460.19,451a28.88,28.88,0,1,0-28.88,28.87A28.87,28.87,0,0,0,460.19,451Z"/><path class="cls-3" d="M467.07,451a35.76,35.76,0,1,0-35.76,35.75A35.75,35.75,0,0,0,467.07,451Z"/><path class="cls-4" d="M474,451a42.66,42.66,0,1,0-42.66,42.65A42.66,42.66,0,0,0,474,451Z"/><circle class="cls-1" cx="556.92" cy="446.14" r="23"/><path class="cls-2" d="M585.8,446.14A28.88,28.88,0,1,0,556.92,475,28.88,28.88,0,0,0,585.8,446.14Z"/><path class="cls-3" d="M592.68,446.14a35.76,35.76,0,1,0-35.76,35.76A35.76,35.76,0,0,0,592.68,446.14Z"/><circle class="cls-4" cx="556.92" cy="446.14" r="42.66" transform="translate(-152.35 524.48) rotate(-45)"/><circle class="cls-1" cx="483.46" cy="251.28" r="23"/><path class="cls-2" d="M512.34,251.28a28.88,28.88,0,1,0-28.88,28.87A28.87,28.87,0,0,0,512.34,251.28Z"/><path class="cls-3" d="M519.22,251.28A35.76,35.76,0,1,0,483.46,287,35.75,35.75,0,0,0,519.22,251.28Z"/><path class="cls-4" d="M526.12,251.28a42.66,42.66,0,1,0-42.66,42.66A42.66,42.66,0,0,0,526.12,251.28Z"/><circle class="cls-1" cx="560.12" cy="302.73" r="23"/><path class="cls-2" d="M589,302.73a28.88,28.88,0,1,0-28.88,28.88A28.88,28.88,0,0,0,589,302.73Z"/><path class="cls-3" d="M595.88,302.73a35.76,35.76,0,1,0-35.76,35.76A35.76,35.76,0,0,0,595.88,302.73Z"/><path class="cls-4" d="M602.78,302.73a42.66,42.66,0,1,0-42.66,42.66A42.65,42.65,0,0,0,602.78,302.73Z"/><circle class="cls-1" cx="512.48" cy="350.85" r="23"/><path class="cls-2" d="M541.36,350.85a28.88,28.88,0,1,0-28.88,28.88A28.88,28.88,0,0,0,541.36,350.85Z"/><path class="cls-3" d="M548.24,350.85a35.76,35.76,0,1,0-35.76,35.76A35.75,35.75,0,0,0,548.24,350.85Z"/><path class="cls-4" d="M555.14,350.85a42.66,42.66,0,1,0-42.66,42.66A42.66,42.66,0,0,0,555.14,350.85Z"/><rect class="cls-5" x="293.57" y="326.69" width="151.16" height="6.11"/><polygon class="cls-6" points="444.73 327.14 293.57 327.14 307.41 307.62 430.88 307.62 444.73 327.14"/><polygon class="cls-5" points="306.97 315.91 310.99 310.25 427.3 310.25 431.32 315.91 306.97 315.91"/><polygon class="cls-5" points="348.51 323.83 352.53 318.17 385.76 318.17 389.78 323.83 348.51 323.83"/><path class="cls-5" d="M430.88,240.09a7,7,0,0,0-6.93-6.92H314.34a7,7,0,0,0-6.93,6.92v67.53H430.88Z"/><rect class="cls-6" x="310.65" y="239.65" width="116.99" height="64.26"/><path class="cls-5" d="M391.29,259.25a36.23,36.23,0,0,0-44.29.09,3,3,0,0,0,3.63,4.68,30.31,30.31,0,0,1,37-.07,3,3,0,0,0,3.62-4.7Z"/><path class="cls-5" d="M369.2,261.37a26.69,26.69,0,0,0-17.2,6.3,3,3,0,0,0,3.83,4.52,20.71,20.71,0,0,1,26.55-.15,3,3,0,0,0,3.77-4.57A26.69,26.69,0,0,0,369.2,261.37Z"/><path class="cls-5" d="M369.2,271a16.91,16.91,0,0,0-12.31,5.26,3,3,0,1,0,4.28,4.09,11.11,11.11,0,0,1,16-.05,3,3,0,1,0,4.25-4.12A16.9,16.9,0,0,0,369.2,271Z"/><path class="cls-5" d="M369.2,281.48a6.56,6.56,0,1,0,6.55,6.56A6.56,6.56,0,0,0,369.2,281.48Z"/><path class="cls-6" d="M550,151.59h29.46a3.37,3.37,0,0,1,3.37,3.37v59.66a3.37,3.37,0,0,1-3.37,3.37H550a3.38,3.38,0,0,1-3.37-3.37V155A3.37,3.37,0,0,1,550,151.59Z"/><rect class="cls-5" x="548.46" y="161.59" width="32.6" height="46.7"/><path class="cls-5" d="M572.21,157.76a.94.94,0,0,1-1,1h-13a1,1,0,0,1-1-1h0a1,1,0,0,1,1-.95h13a1,1,0,0,1,1,.95Z"/><path class="cls-5" d="M567.76,213.32a3,3,0,1,0-3,3A3,3,0,0,0,567.76,213.32Z"/><path class="cls-6" d="M560.12,277.54a12.89,12.89,0,0,0-12.89,12.89c0,7.12,12.89,37.5,12.89,37.5S573,297.55,573,290.43A12.89,12.89,0,0,0,560.12,277.54Zm0,21.15a8.26,8.26,0,1,1,8.26-8.26A8.25,8.25,0,0,1,560.12,298.69Z"/><path d="M507.51,337.87a8,8,0,1,1-8,8,8,8,0,0,1,8-8m0-5a13,13,0,1,0,13,13,13,13,0,0,0-13-13Z"/><line class="cls-7" x1="515.73" y1="354.1" x2="526.97" y2="365.34"/><circle class="cls-1" cx="83.82" cy="400.85" r="23"/><path class="cls-2" d="M112.69,400.85a28.87,28.87,0,1,0-28.87,28.88A28.88,28.88,0,0,0,112.69,400.85Z"/><path class="cls-3" d="M119.57,400.85a35.76,35.76,0,1,0-35.75,35.76A35.75,35.75,0,0,0,119.57,400.85Z"/><path class="cls-4" d="M126.47,400.85a42.66,42.66,0,1,0-42.65,42.66A42.66,42.66,0,0,0,126.47,400.85Z"/><path d="M78.84,387.87a8,8,0,1,1-8,8,8,8,0,0,1,8-8m0-5a13,13,0,1,0,13,13,13,13,0,0,0-13-13Z"/><line class="cls-7" x1="87.06" y1="404.1" x2="98.3" y2="415.34"/><path class="cls-6" d="M434.87,386.15a9.73,9.73,0,0,0-9.39-7.23h-.05A10.73,10.73,0,0,0,408.72,371a16.41,16.41,0,0,0-29.52,9.55,9.22,9.22,0,0,0,1.66,18.3h53.85a6.37,6.37,0,0,0,.16-12.74Z"/><circle class="cls-1" cx="81.02" cy="117.69" r="23"/><path class="cls-2" d="M109.89,117.69A28.87,28.87,0,1,0,81,146.56,28.87,28.87,0,0,0,109.89,117.69Z"/><path class="cls-3" d="M116.77,117.69A35.75,35.75,0,1,0,81,153.45,35.75,35.75,0,0,0,116.77,117.69Z"/><path class="cls-4" d="M123.68,117.69A42.66,42.66,0,1,0,81,160.35,42.65,42.65,0,0,0,123.68,117.69Z"/><path class="cls-5" d="M109.54,122.15a9.74,9.74,0,0,0-9.4-7.23h0A10.72,10.72,0,0,0,83.39,107a16.42,16.42,0,0,0-29.53,9.55,9.23,9.23,0,0,0,1.66,18.3h53.85a6.37,6.37,0,0,0,.17-12.74Z"/><rect class="cls-6" x="237.6" y="366.51" width="41.94" height="26.84" rx="5"/><rect class="cls-8" x="247.78" y="359.92" width="21.57" height="19.55" rx="5"/><line class="cls-7" x1="258.57" y1="373.69" x2="258.57" y2="386.17"/><line class="cls-7" x1="264.81" y1="379.93" x2="252.32" y2="379.93"/><path class="cls-6" d="M194.35,425.89H176.17a5,5,0,0,0-5,5v11.23l-11.41,8.94,12-2.75a5,5,0,0,0,4.44,2.75h18.18a5,5,0,0,0,5-5V430.89A5,5,0,0,0,194.35,425.89Z"/><path class="cls-5" d="M217.8,457.43l-11.41-8.94V437.27a5,5,0,0,0-5-5H183.21a5,5,0,0,0-5,5v15.16a5,5,0,0,0,5,5h18.18a5,5,0,0,0,4.44-2.74Z"/><path d="M194.35,429.89a1,1,0,0,1,1,1v15.17a1,1,0,0,1-1,1H176.17a.91.91,0,0,1-.48-.14l-.52-16.07a1,1,0,0,1,1-1h18.18m0-4H176.17a5,5,0,0,0-5,5l.56,17.42a5,5,0,0,0,4.44,2.75h18.18a5,5,0,0,0,5-5V430.89a5,5,0,0,0-5-5Z"/><circle class="cls-6" cx="182" cy="440.37" r="2"/><path class="cls-6" d="M188.88,440.37a2,2,0,1,0-2,2A2,2,0,0,0,188.88,440.37Z"/><circle class="cls-6" cx="191.75" cy="440.37" r="2"/><circle class="cls-1" cx="660.85" cy="135.88" r="23"/><path class="cls-2" d="M689.72,135.88a28.87,28.87,0,1,0-28.87,28.88A28.88,28.88,0,0,0,689.72,135.88Z"/><path class="cls-3" d="M696.6,135.88a35.75,35.75,0,1,0-35.75,35.76A35.75,35.75,0,0,0,696.6,135.88Z"/><circle class="cls-4" cx="660.85" cy="135.88" r="42.66" transform="translate(-13.54 155.47) rotate(-13.28)"/><path class="cls-5" d="M666.42,120.12H648.24a5,5,0,0,0-5,5v11.22l-11.41,8.94,12-2.75a5,5,0,0,0,4.44,2.75h18.18a5,5,0,0,0,5-5V125.12A5,5,0,0,0,666.42,120.12Z"/><path class="cls-6" d="M689.87,151.65l-11.41-8.94V131.49a5,5,0,0,0-5-5H655.28a5,5,0,0,0-5,5v15.16a5,5,0,0,0,5,5h18.18a5,5,0,0,0,4.44-2.74Z"/><path d="M666.42,124.12a1,1,0,0,1,1,1v15.16a1,1,0,0,1-1,1H648.24a.83.83,0,0,1-.48-.14l-.52-16.06a1,1,0,0,1,1-1h18.18m0-4H648.24a5,5,0,0,0-5,5l.56,17.41a5,5,0,0,0,4.44,2.75h18.18a5,5,0,0,0,5-5V125.12a5,5,0,0,0-5-5Z"/><path class="cls-5" d="M656.08,134.59a2,2,0,1,0-2,2A2,2,0,0,0,656.08,134.59Z"/><path class="cls-5" d="M661,134.59a2,2,0,1,0-2,2A2,2,0,0,0,661,134.59Z"/><path class="cls-5" d="M665.82,134.59a2,2,0,1,0-2,2A2,2,0,0,0,665.82,134.59Z"/><path class="cls-5" d="M337.87,436.52,320.5,423l-17.38,13.51v21.79h9.61V446.39a7.77,7.77,0,0,1,15.53,0v11.92h9.61Z"/><polyline class="cls-9" points="299.75 434.01 320.5 417.93 341.25 434.01"/><circle class="cls-1" cx="75.83" cy="256.85" r="23"/><path class="cls-2" d="M104.71,256.85a28.88,28.88,0,1,0-28.88,28.88A28.88,28.88,0,0,0,104.71,256.85Z"/><path class="cls-3" d="M111.59,256.85a35.76,35.76,0,1,0-35.76,35.76A35.76,35.76,0,0,0,111.59,256.85Z"/><circle class="cls-4" cx="75.83" cy="256.85" r="42.66" transform="translate(-61.01 26.64) rotate(-14.28)"/><path class="cls-6" d="M93.21,256.52,75.83,243,58.46,256.52v21.8h9.61V266.39a7.77,7.77,0,0,1,15.53,0v11.93h9.61Z"/><polyline class="cls-9" points="55.09 254.01 75.83 237.93 96.58 254.01"/><path class="cls-6" d="M436.48,435.75c0-2.76-2.24-9.23-5-9.23s-5,6.47-5,9.23.38,39.75,5,39.75C436.35,475.5,436.48,438.51,436.48,435.75Z"/><polygon class="cls-6" points="433.64 467.59 441.98 472.93 440.98 474.76 432.31 473.09 433.64 467.59"/><polygon class="cls-6" points="434.47 435.26 453.99 451.05 453.41 455.93 433.46 445.31 434.47 435.26"/><polygon class="cls-6" points="428.98 467.59 420.64 472.93 421.64 474.76 430.31 473.09 428.98 467.59"/><polygon class="cls-6" points="428.15 435.26 408.64 451.05 409.21 455.93 429.16 445.31 428.15 435.26"/><path class="cls-6" d="M360.69,84.31h-1.64a10.71,10.71,0,0,1-10.7-10.7V61.52a10.72,10.72,0,0,1,10.7-10.71h1.64A10.73,10.73,0,0,1,371.4,61.52V73.61A10.72,10.72,0,0,1,360.69,84.31Zm-1.64-29.65a6.86,6.86,0,0,0-6.86,6.86V73.61a6.87,6.87,0,0,0,6.86,6.86h1.64a6.87,6.87,0,0,0,6.86-6.86V61.52a6.86,6.86,0,0,0-6.86-6.86Z"/><rect class="cls-5" x="342.3" y="68.2" width="35.14" height="26.63" rx="6.59"/><path class="cls-6" d="M356.07,89.7l2.57-8.5-.49-.28a3.47,3.47,0,1,1,3.45,0l-.5.28,2.58,8.5Z"/><path class="cls-1" d="M684.21,253.49a23,23,0,1,0-23,23A23,23,0,0,0,684.21,253.49Z"/><path class="cls-2" d="M690.08,253.49a28.88,28.88,0,1,0-28.87,28.87A28.87,28.87,0,0,0,690.08,253.49Z"/><path class="cls-3" d="M697,253.49a35.76,35.76,0,1,0-35.75,35.75A35.75,35.75,0,0,0,697,253.49Z"/><circle class="cls-4" cx="661.21" cy="253.49" r="42.66" transform="translate(203.14 793.51) rotate(-70.67)"/><path class="cls-5" d="M662,265h-1.63a10.72,10.72,0,0,1-10.71-10.71V242.19a10.72,10.72,0,0,1,10.71-10.71H662a10.72,10.72,0,0,1,10.71,10.71v12.08A10.72,10.72,0,0,1,662,265Zm-1.63-29.66a6.88,6.88,0,0,0-6.87,6.87v12.08a6.88,6.88,0,0,0,6.87,6.87H662a6.88,6.88,0,0,0,6.87-6.87V242.19a6.88,6.88,0,0,0-6.87-6.87Z"/><rect class="cls-6" x="643.64" y="248.87" width="35.14" height="26.63" rx="6.59"/><path class="cls-5" d="M657.4,270.37l2.58-8.5-.5-.29a3.47,3.47,0,1,1,3.45,0l-.5.29,2.58,8.5Z"/><path class="cls-6" d="M327.07,162.2a5.66,5.66,0,0,0-2-11.15,6.26,6.26,0,0,0-1.23.37,19,19,0,0,0-1-1.75,6,6,0,0,0,.81-.79,5.66,5.66,0,1,0-8.68-7.27,4.76,4.76,0,0,0-.63.93,19.3,19.3,0,0,0-2-.72,4.94,4.94,0,0,0,.1-.95,5.66,5.66,0,0,0-11.32,0,5.88,5.88,0,0,0,.09.95c-.69.22-1.37.47-2,.75a5.41,5.41,0,0,0-.45-.65,5.66,5.66,0,1,0-8.67,7.28,4.85,4.85,0,0,0,.61.59,20.33,20.33,0,0,0-1.09,1.93,4.85,4.85,0,0,0-.68-.19,5.66,5.66,0,0,0-2,11.15,6.22,6.22,0,0,0,.85.07,17.33,17.33,0,0,0,.42,2.17,5.37,5.37,0,0,0-.65.29,5.66,5.66,0,0,0,5.66,9.81,5,5,0,0,0,.78-.56,20,20,0,0,0,1.68,1.36,6.32,6.32,0,0,0-.36.74A5.66,5.66,0,0,0,306,180.44a6.14,6.14,0,0,0,.28-1.08l.55,0c.51,0,1,0,1.53-.07a5.65,5.65,0,1,0,10.88-2.91,5.2,5.2,0,0,0-.57-1.13,19.56,19.56,0,0,0,1.53-1.34,5.8,5.8,0,0,0,.93.67,5.66,5.66,0,0,0,5.66-9.81,6.18,6.18,0,0,0-1.22-.51,16.36,16.36,0,0,0,.33-2A5.25,5.25,0,0,0,327.07,162.2Zm-20.25,12.24a14.25,14.25,0,1,1,14.25-14.25A14.26,14.26,0,0,1,306.82,174.44Z"/><path class="cls-6" d="M306.82,147.27a12.92,12.92,0,1,0,12.91,12.92A12.94,12.94,0,0,0,306.82,147.27Zm0,21.55a8.63,8.63,0,1,1,8.63-8.63A8.64,8.64,0,0,1,306.82,168.82Z"/><rect class="cls-6" x="158.84" y="157.14" width="39.09" height="25.09"/><polygon class="cls-5" points="178.27 172.23 158.84 157.14 197.93 157.14 178.27 172.23"/><circle class="cls-1" cx="659.05" cy="393.02" r="23"/><path class="cls-2" d="M687.93,393a28.88,28.88,0,1,0-28.88,28.87A28.88,28.88,0,0,0,687.93,393Z"/><path class="cls-3" d="M694.81,393a35.76,35.76,0,1,0-35.76,35.75A35.76,35.76,0,0,0,694.81,393Z"/><circle class="cls-4" cx="659.05" cy="393.02" r="42.66" transform="translate(-72.67 161.93) rotate(-13.28)"/><rect class="cls-5" x="639.51" y="380.47" width="39.09" height="25.09"/><polygon class="cls-6" points="658.93 395.56 639.51 380.47 678.6 380.47 658.93 395.56"/><path class="cls-9" d="M247.42,85.37a22.17,22.17,0,1,0-22.16,22.17A22.17,22.17,0,0,0,247.42,85.37Z"/><line class="cls-9" x1="204.27" y1="85.37" x2="246.25" y2="85.37"/><path class="cls-9" d="M225.26,107.54a22.17,22.17,0,1,0-22.17-22.17A22.17,22.17,0,0,0,225.26,107.54Z"/><path class="cls-9" d="M224.89,105.44A22.18,22.18,0,0,0,225,65.37"/><path class="cls-9" d="M225.38,105.44a22.17,22.17,0,0,1-.15-40.07"/><path class="cls-9" d="M241.45,70.11a22.18,22.18,0,0,1-32.15.32"/><path class="cls-9" d="M241.45,100.38a22.18,22.18,0,0,0-32.15-.32"/><line class="cls-9" x1="225.26" y1="64.06" x2="225.26" y2="106.68"/><polyline class="cls-9" points="454.81 233.26 466.04 233.26 466.04 257.77 507.12 257.77"/><polygon class="cls-10" points="512.12 232.69 507.12 251.2 472.61 251.2 472.61 232.69 512.12 232.69"/><path class="cls-6" d="M478.87,266.67a5.21,5.21,0,1,0-5.2,5.2A5.2,5.2,0,0,0,478.87,266.67Z"/><path class="cls-6" d="M503.79,266.67a5.21,5.21,0,1,0-5.2,5.2A5.2,5.2,0,0,0,503.79,266.67Z"/><line class="cls-9" x1="481.92" y1="251.06" x2="481.92" y2="232.69"/><line class="cls-9" x1="490.55" y1="251.06" x2="491.78" y2="232.69"/><line class="cls-9" x1="499.18" y1="251.06" x2="501.5" y2="232.69"/><line class="cls-9" x1="473.02" y1="242.02" x2="509.17" y2="242.02"/><path class="cls-6" d="M232.93,237.47A2,2,0,0,1,231,236a18.23,18.23,0,0,1-.68-4.94c0-9.37,7.69-19.85,18-19.85s18,10.48,18,19.85a18.15,18.15,0,0,1-.61,4.65,2,2,0,1,1-3.86-1,14.21,14.21,0,0,0,.47-3.62c0-7.48-6-15.85-14-15.85s-14,8.37-14,15.85a14.13,14.13,0,0,0,.53,3.84,2,2,0,0,1-1.38,2.47A2,2,0,0,1,232.93,237.47Z"/><path class="cls-6" d="M235.09,241.52c0,4.76-2.78,8.61-6.2,8.61s-6.2-3.85-6.2-8.61,2.77-8.61,6.2-8.61S235.09,236.76,235.09,241.52Z"/><path class="cls-6" d="M261.51,241.52c0,4.76,2.78,8.61,6.21,8.61s6.2-3.85,6.2-8.61-2.78-8.61-6.2-8.61S261.51,236.76,261.51,241.52Z"/><path class="cls-5" d="M232.32,252.08a4,4,0,0,1-4-4V235a4,4,0,1,1,8,0v13.12A4,4,0,0,1,232.32,252.08Z"/><path class="cls-5" d="M264.28,252.08a4,4,0,0,0,4-4V235a4,4,0,0,0-8,0v13.12A4,4,0,0,0,264.28,252.08Z"/><path class="cls-5" d="M562.4,469.88c0,2.13-2.45,3.85-5.48,3.85s-5.47-1.72-5.47-3.85,2.45-3.85,5.47-3.85S562.4,467.75,562.4,469.88Z"/><path class="cls-5" d="M569.87,445.59a16.63,16.63,0,1,0-25.89,0c.83,1.45,1.81,3.12,2.92,4.88a22.47,22.47,0,0,1,3.1,11.41l6.43.2v0l.49,0,.5,0v0l6.43-.2a22.47,22.47,0,0,1,3.1-11.41C568.05,448.71,569,447,569.87,445.59Z"/><rect class="cls-6" x="548.86" y="459.84" width="16.12" height="9.84" rx="2.4"/><path class="cls-11" d="M559,461.58s-1-18.28,2.27-22.47c4.63-6,9.94,3-4.54,3s-9.17-9-4.55-3c3.23,4.19,2.27,22.47,2.27,22.47"/><path class="cls-6" d="M568.41,89.52c.2,1.58-.49,3-1.53,3.09s-2-1-2.24-2.62.49-3,1.53-3.09S568.22,87.94,568.41,89.52Z"/><path class="cls-6" d="M505.33,89.52c-.19,1.58.49,3,1.53,3.09s2.05-1,2.24-2.62-.48-3-1.53-3.09S505.53,87.94,505.33,89.52Z"/><polygon class="cls-5" points="557.49 88.58 516.15 88.58 526.15 71.79 547.49 71.79 557.49 88.58"/><polygon class="cls-6" points="551.22 83.91 545.78 74.79 538.37 74.79 538.37 83.91 551.22 83.91"/><polygon class="cls-6" points="527.85 74.79 522.42 83.91 535.37 83.91 535.37 74.79 527.85 74.79"/><path class="cls-6" d="M525,96.67a5.3,5.3,0,1,0-5.3,5.29A5.3,5.3,0,0,0,525,96.67Z"/><path class="cls-5" d="M519.71,99a2.3,2.3,0,1,1,2.3-2.29A2.3,2.3,0,0,1,519.71,99Z"/><path class="cls-5" d="M555.07,89.37a7.31,7.31,0,0,1,7.3,7.3h5.37l-2-10.76H507.9l-2,10.76h6.51a7.3,7.3,0,1,1,14.6,0h20.76A7.3,7.3,0,0,1,555.07,89.37Z"/><path class="cls-6" d="M560.37,96.67a5.3,5.3,0,1,0-5.3,5.29A5.3,5.3,0,0,0,560.37,96.67Z"/><path class="cls-5" d="M555.07,99a2.3,2.3,0,1,1,2.3-2.29A2.3,2.3,0,0,1,555.07,99Z"/><path class="cls-5" d="M457.34,116.6a2.35,2.35,0,1,0-2.35-2.35A2.35,2.35,0,0,0,457.34,116.6Z"/><polygon class="cls-5" points="450.8 61.34 439.97 61.34 438 67.13 438 106.27 452.77 106.27 452.77 67.13 450.8 61.34"/><rect class="cls-5" x="438" y="115.91" width="14.76" height="39.14"/><path class="cls-6" d="M445.38,75.61a2,2,0,1,0-2-2A2,2,0,0,0,445.38,75.61Z"/><path class="cls-6" d="M445.38,84.77a2,2,0,1,0-2-2A2,2,0,0,0,445.38,84.77Z"/><path class="cls-6" d="M445.38,93.94a2,2,0,1,0-2-2A2,2,0,0,0,445.38,93.94Z"/><polygon class="cls-6" points="457.66 103.92 455.56 101.83 434.91 101.83 432.81 103.92 432.81 124.58 434.91 126.68 455.56 126.68 457.66 124.58 457.66 103.92"/><polygon class="cls-5" points="436.36 123.16 436.33 123.12 436.33 105.38 436.36 105.34 454.11 105.34 454.14 105.38 454.14 123.12 454.11 123.16 436.36 123.16"/><path class="cls-12" d="M452.73,155.05H438s-2,12.4,7.73,12.4C454.19,167.45,452.73,155.05,452.73,155.05Z"/><line class="cls-13" x1="445.38" y1="155.54" x2="445.38" y2="163.34"/><path class="cls-5" d="M168.31,341.76a3,3,0,0,0,3,3h35.84a3,3,0,0,0,3-3V294.09H168.31Z"/><path class="cls-5" d="M210.15,285.26a3,3,0,0,0-3-3H171.31a3,3,0,0,0-3,3v5.83h41.84Z"/><path class="cls-6" d="M189.23,309a11.52,11.52,0,1,1-11.51,11.51A11.53,11.53,0,0,1,189.23,309m0-5a16.52,16.52,0,1,0,16.51,16.51A16.51,16.51,0,0,0,189.23,304Z"/><path class="cls-14" d="M179.86,333.49a16,16,0,0,1,0-25.95,16,16,0,0,1,0,25.95Z"/><path d="M179.86,308.16a15.5,15.5,0,0,1,0,24.71,15.5,15.5,0,0,1,0-24.71m0-1.23a16.49,16.49,0,0,0,0,27.17,16.49,16.49,0,0,0,0-27.17Z"/><path class="cls-6" d="M197.67,287a2,2,0,1,0-2,2A2,2,0,0,0,197.67,287Z"/><path class="cls-6" d="M202.54,287a2,2,0,1,0-2,2A2,2,0,0,0,202.54,287Z"/><path class="cls-6" d="M207.42,287a2,2,0,1,0-2,2A2,2,0,0,0,207.42,287Z"/><path class="cls-6" d="M178.56,285h-4.87a2,2,0,0,0,0,4h4.87a2,2,0,1,0,0-4Z"/><path class="cls-5" d="M362,102.15a2.23,2.23,0,1,0-2.23,2.22A2.23,2.23,0,0,0,362,102.15Z"/><path class="cls-5" d="M390.93,224.2a2.22,2.22,0,1,0-2.22,2.22A2.23,2.23,0,0,0,390.93,224.2Z"/><polyline class="cls-1" points="359.81 104.37 359.81 144.37 388.7 173.26 388.7 224.37"/><path class="cls-5" d="M309.81,188.43a2.22,2.22,0,1,0-2.22,2.23A2.22,2.22,0,0,0,309.81,188.43Z"/><path class="cls-5" d="M378,224.2a2.22,2.22,0,1,0-2.22,2.22A2.22,2.22,0,0,0,378,224.2Z"/><polyline class="cls-1" points="375.81 224.2 325.95 224.2 307.79 206.04 307.79 189.58"/><path class="cls-5" d="M321.14,224.2a2.23,2.23,0,1,0-2.23,2.22A2.23,2.23,0,0,0,321.14,224.2Z"/><circle class="cls-5" cx="224.81" cy="116.59" r="2.22"/><polyline class="cls-1" points="224.81 116.59 224.81 151.01 279.32 205.52 300.16 205.52 318.83 224.19"/><path class="cls-5" d="M251,261.52a2.22,2.22,0,1,0-2.22,2.22A2.21,2.21,0,0,0,251,261.52Z"/><path class="cls-5" d="M303.7,278.62a2.22,2.22,0,1,0-2.22,2.22A2.21,2.21,0,0,0,303.7,278.62Z"/><polyline class="cls-1" points="248.81 261.39 266.07 278.65 303.14 278.65"/><path class="cls-5" d="M179.92,189.25a2.22,2.22,0,1,0-2.22,2.22A2.21,2.21,0,0,0,179.92,189.25Z"/><path class="cls-5" d="M303.7,287.38a2.22,2.22,0,1,0-2.22,2.22A2.22,2.22,0,0,0,303.7,287.38Z"/><polyline class="cls-1" points="177.85 188.09 177.85 268.85 247.95 268.85 266.28 287.18 302.29 287.18"/><path class="cls-5" d="M303.7,299.61a2.22,2.22,0,1,0-2.22,2.22A2.21,2.21,0,0,0,303.7,299.61Z"/><path class="cls-5" d="M222.31,324.43a2.23,2.23,0,1,0-2.23,2.22A2.22,2.22,0,0,0,222.31,324.43Z"/><polyline class="cls-1" points="219.82 324.26 242.2 324.26 266.81 299.64 302.08 299.64"/><path class="cls-5" d="M303.7,305.72a2.22,2.22,0,1,0-2.22,2.22A2.22,2.22,0,0,0,303.7,305.72Z"/><path class="cls-5" d="M257.12,350.1a2.23,2.23,0,1,0-2.22,2.22A2.22,2.22,0,0,0,257.12,350.1Z"/><polyline class="cls-1" points="301.44 305.5 270.97 305.5 255.09 321.38 255.09 350.04"/><circle class="cls-5" cx="485.78" cy="279.44" r="2.22"/><circle class="cls-5" cx="437.73" cy="294.71" r="2.22"/><polyline class="cls-1" points="436.81 294.59 470.14 294.59 485.48 279.26"/><path class="cls-5" d="M421.69,224.2a2.22,2.22,0,1,0-2.22,2.22A2.22,2.22,0,0,0,421.69,224.2Z"/><path class="cls-5" d="M537.47,180.58a2.22,2.22,0,1,0-2.22,2.23A2.23,2.23,0,0,0,537.47,180.58Z"/><polyline class="cls-1" points="419.48 225.26 419.48 209.26 470.14 209.26 498.81 180.59 535.48 180.59"/><path class="cls-5" d="M414.56,224.2a2.23,2.23,0,1,0-2.23,2.22A2.23,2.23,0,0,0,414.56,224.2Z"/><path class="cls-5" d="M537.47,102.44a2.22,2.22,0,1,0-2.22,2.23A2.23,2.23,0,0,0,537.47,102.44Z"/><polyline class="cls-1" points="535.14 102.26 535.14 173.59 497.48 173.59 468.31 202.76 412.48 202.76 412.48 225.26"/><circle class="cls-5" cx="541.15" cy="302.85" r="2.22"/><circle class="cls-5" cx="437.73" cy="302.85" r="2.22"/><line class="cls-1" x1="541.15" y1="302.92" x2="437.15" y2="302.92"/><path class="cls-5" d="M303.54,341.53a2.23,2.23,0,1,0-2.23,2.22A2.22,2.22,0,0,0,303.54,341.53Z"/><path class="cls-5" d="M218.46,438.23a2.23,2.23,0,1,0-2.23,2.22A2.22,2.22,0,0,0,218.46,438.23Z"/><polyline class="cls-1" points="301.14 341.26 301.14 402.93 265.98 438.09 216.81 438.09"/><path class="cls-5" d="M322.88,406.49a2.23,2.23,0,1,0-2.23,2.22A2.22,2.22,0,0,0,322.88,406.49Z"/><path class="cls-5" d="M322.67,341.53a2.22,2.22,0,1,0-2.22,2.22A2.21,2.21,0,0,0,322.67,341.53Z"/><line class="cls-1" x1="320.81" y1="341.59" x2="320.81" y2="406.59"/><path class="cls-5" d="M372.14,374.32a2.22,2.22,0,1,0-2.22,2.23A2.22,2.22,0,0,0,372.14,374.32Z"/><path class="cls-5" d="M358.5,341.53a2.22,2.22,0,1,0-2.22,2.22A2.21,2.21,0,0,0,358.5,341.53Z"/><polyline class="cls-1" points="356.48 341.93 356.48 360.93 370.14 374.59"/><circle class="cls-5" cx="492.29" cy="331.55" r="2.22"/><path class="cls-5" d="M450.84,316.18a2.22,2.22,0,1,0-2.22,2.23A2.22,2.22,0,0,0,450.84,316.18Z"/><polyline class="cls-1" points="449.14 316.26 477.48 316.26 492.64 331.43"/><path class="cls-5" d="M461.72,442.3a2.22,2.22,0,1,0-2.22,2.22A2.22,2.22,0,0,0,461.72,442.3Z"/><path class="cls-5" d="M435.66,341.53a2.22,2.22,0,1,0-2.22,2.22A2.21,2.21,0,0,0,435.66,341.53Z"/><polyline class="cls-1" points="433.81 340.93 433.81 358.26 474.81 399.26 474.81 426.93 459.48 442.26"/><path class="cls-5" d="M540.3,453.09a2.22,2.22,0,1,0-2.22,2.22A2.22,2.22,0,0,0,540.3,453.09Z"/><circle class="cls-5" cx="442.6" cy="341.53" r="2.22"/><polyline class="cls-1" points="442.81 341.59 442.81 358.59 487.64 403.43 487.64 432.93 507.89 453.18 537.81 453.18"/><path class="cls-5" d="M405.08,224.2a2.22,2.22,0,1,0-2.22,2.22A2.22,2.22,0,0,0,405.08,224.2Z"/><polyline class="cls-1" points="428.48 115.26 371.81 115.26 371.81 141.59 402.81 172.59 402.81 223.59"/><path class="cls-5" d="M430.46,115.22a2.22,2.22,0,1,0-2.22,2.22A2.22,2.22,0,0,0,430.46,115.22Z"/><polyline class="cls-1" points="80.48 144.52 80.48 187.71 125.64 232.87 168.34 232.87"/><path class="cls-5" d="M82.61,144.33a2.23,2.23,0,1,0-2.23,2.22A2.23,2.23,0,0,0,82.61,144.33Z"/><path class="cls-5" d="M170.5,233.26a2.22,2.22,0,1,0-2.22,2.22A2.21,2.21,0,0,0,170.5,233.26Z"/><polyline class="cls-1" points="72.63 289.81 72.63 324.66 140.36 324.66"/><path class="cls-5" d="M74.76,290.41a2.23,2.23,0,1,0-2.22,2.23A2.23,2.23,0,0,0,74.76,290.41Z"/><path class="cls-5" d="M142.5,324.92a2.22,2.22,0,1,0-2.22,2.23A2.22,2.22,0,0,0,142.5,324.92Z"/><polyline class="cls-1" points="144.78 334.48 85.88 334.48 85.88 374.24"/><path class="cls-5" d="M146.83,334.26a2.22,2.22,0,1,0-2.22,2.22A2.21,2.21,0,0,0,146.83,334.26Z"/><path class="cls-5" d="M87.83,374.26a2.22,2.22,0,1,0-2.22,2.22A2.21,2.21,0,0,0,87.83,374.26Z"/><polyline class="cls-1" points="557.63 361.55 597.78 361.55 629.23 392.99"/><path class="cls-5" d="M559.85,361.93a2.23,2.23,0,1,0-2.22,2.22A2.22,2.22,0,0,0,559.85,361.93Z"/><path class="cls-5" d="M631.07,393.37a2.23,2.23,0,1,0-2.22,2.22A2.22,2.22,0,0,0,631.07,393.37Z"/><polyline class="cls-1" points="534.52 250.93 589.83 250.93 646.84 307.94 664.84 307.94 664.84 286.92"/><path class="cls-5" d="M666.3,286.54a2.22,2.22,0,1,0-2.22,2.22A2.22,2.22,0,0,0,666.3,286.54Z"/><path class="cls-5" d="M537.12,251.31a2.23,2.23,0,1,0-2.22,2.22A2.22,2.22,0,0,0,537.12,251.31Z"/><polyline class="cls-1" points="660.29 161.9 660.29 187.29 644.38 187.29 589.26 242.41 534.52 242.41"/><path class="cls-5" d="M537.12,242.59a2.23,2.23,0,1,0-2.22,2.23A2.23,2.23,0,0,0,537.12,242.59Z"/><path class="cls-5" d="M662.13,161.9a2.22,2.22,0,1,0-2.22,2.23A2.22,2.22,0,0,0,662.13,161.9Z"/></svg>