<svg id="Layer_1" data-name="Layer 1" xmlns="http://www.w3.org/2000/svg" viewBox="0 0 1920 1080"><defs><style>.cls-1{fill:#138690;}</style></defs><title>Car plate detection</title><path class="cls-1" d="M1161.8,468.84V398.78a19.05,19.05,0,0,0-19-19.07H980.27a19.05,19.05,0,0,0-19.05,19V468.8a19.05,19.05,0,0,0,19.05,19h162.48a19.05,19.05,0,0,0,19.05-19Zm-34.26,6v6.53H995.47v-6.53Zm-146.73-6.54v-69H1142.2v69Zm-6.53-14.66h-6.53V413.89h6.53Zm21.19-60.84v-6.54h132.07v6.54Zm153.22,21.12h6.53v39.66h-6.53Zm-6-27.73a12.51,12.51,0,0,1,12.51,12.51h0v8.68h-6.53v-8.68a6.18,6.18,0,0,0-6-6H1134v-6.54ZM971.41,390a12.46,12.46,0,0,1,8.85-3.67h8.68v6.54h-8.7a6,6,0,0,0-4.22,1.71,6.08,6.08,0,0,0-1.71,4.22v8.68h-6.56v-8.68A12.42,12.42,0,0,1,971.41,390Zm8.85,91.44a12.49,12.49,0,0,1-12.51-12.47s0,0,0,0v-8.68h6.53v8.68a6,6,0,0,0,6,6h8.68v6.53Zm162.48,0h-8.68v-6.53h8.7a6,6,0,0,0,6-6v-8.68h6.53v8.68a12.49,12.49,0,0,1-12.47,12.51Z"/><path class="cls-1" d="M1002.8,430.51h-2.75a4.72,4.72,0,0,1-4.63-4.61v-12h7.33a4.73,4.73,0,0,1,4.61,4.61v1.37h6.53v-1.37a11.45,11.45,0,0,0-11.16-11.16H988.94v18.45A11.41,11.41,0,0,0,1000.08,437h2.72a4.73,4.73,0,0,1,4.61,4.61v12h-7.36a4.72,4.72,0,0,1-4.63-4.61v-1.35h-6.48V449a11.14,11.14,0,0,0,11.12,11.16H1014V441.67A11.45,11.45,0,0,0,1002.8,430.51Z"/><path class="cls-1" d="M1019,423.59V444h25V423.59Zm6.54,13.86v-7.33h12v7.33Z"/><path class="cls-1" d="M1055.53,453.61v-.43l16.39-24.57a12.37,12.37,0,0,0,2.1-6.94v-2.61a12.51,12.51,0,1,0-25,0v5.42h6.53v-5.42a6,6,0,0,1,12,0v2.61a6,6,0,0,1-1,3.31L1049,451.2v8.88h26.36v-6.54Z"/><path class="cls-1" d="M1111,420.09a14.66,14.66,0,0,0-4.34-10.47,14.81,14.81,0,0,0-25.29,10.47v27.34a14.81,14.81,0,0,0,29.63,0Zm-20.67,33.25a8.25,8.25,0,0,1-2.43-5.86V420.14a8.29,8.29,0,1,1,16.57,0v27.34a8.29,8.29,0,0,1-14.15,5.86Z"/><path class="cls-1" d="M1131.76,409.74H1122l-7.88,13.12,5.6,3.42,5.48-9.14v42.12h6.53Z"/><path class="cls-1" d="M1061.56,243C954.23,243,867.19,330,867.15,437.28A194.33,194.33,0,0,0,905.29,553L867.5,592.76l-3.61-3.61a8.7,8.7,0,0,0-12.3,0h0L675.1,765.58a41.24,41.24,0,1,0,58.28,58.36h0L909.8,647.43a8.71,8.71,0,0,0,0-12.32l-3.72-3.78,37.49-39.48c85.29,65.19,207.29,48.9,272.48-36.39s48.9-207.29-36.39-272.48A194.38,194.38,0,0,0,1061.56,243Zm-340.5,568.5a23.8,23.8,0,1,1-33.68-33.64h0L857.66,607.62l33.64,33.64ZM893.71,619l-13.94-13.94,36.56-38.46a194.42,194.42,0,0,0,13.81,14Zm167.85-4.56a177,177,0,1,1,177-177A177,177,0,0,1,1061.56,614.46Z"/><path class="cls-1" d="M1061.56,277.85a159.6,159.6,0,1,0,159.6,159.6A159.6,159.6,0,0,0,1061.56,277.85Zm0,301.77a142.19,142.19,0,1,1,142.19-142.19A142.19,142.19,0,0,1,1061.56,579.62Z"/></svg>