<svg id="Layer_1" data-name="Layer 1" xmlns="http://www.w3.org/2000/svg" viewBox="0 0 1920 1080"><defs><style>.cls-1{fill:#138690;stroke:#138690;stroke-miterlimit:10;}</style></defs><title>logo</title><path class="cls-1" d="M1021.11,588.2a45.14,45.14,0,0,0,32.13,13.31h65.06a45.44,45.44,0,0,0,0-90.88h-46.24L1058.44,497a73.12,73.12,0,0,0-41.31-133.44c-46.6,0-81.37,43.18-71.43,88.79H904.79a45.14,45.14,0,0,0-32.13,13.31L818.28,520a45.44,45.44,0,1,0,64.26,64.26l41.07-41.07h9.16L904.38,653.55l-32.16-12a45.44,45.44,0,0,0-31.79,85.14l79.79,29.79a45.47,45.47,0,0,0,60-31.72l4.2-17.09L1070,793.2a45.44,45.44,0,1,0,64.26-64.26L1011.18,605.87l5.19-22.42Zm-42.32,36,130.1,130.1a9.59,9.59,0,1,1-13.56,13.56l-108-108a17.93,17.93,0,0,0-30.08,8.4l-11.79,48a9.6,9.6,0,0,1-12.67,6.7L853,693.1a9.59,9.59,0,0,1,6.71-18l50.83,19a17.93,17.93,0,0,0,23.63-12.33l39.11-152a17.93,17.93,0,0,0-17.36-22.39h-39.7a17.92,17.92,0,0,0-12.67,5.25L857.19,559a9.59,9.59,0,0,1-13.56-13.56L898,491a9.53,9.53,0,0,1,6.78-2.81h68.58a17.94,17.94,0,0,0,14.21-28.85c-18.7-24.31-1.37-59.94,29.55-59.94a37.26,37.26,0,0,1,6.83,73.88c-14.06,2.6-19.76,20.17-9.47,30.46L1052,541.23a17.92,17.92,0,0,0,12.67,5.25h53.66a9.59,9.59,0,0,1,0,19.18h-65.06a9.53,9.53,0,0,1-6.78-2.81l-27.59-27.59a17.94,17.94,0,0,0-30.14,8.63L974,607.47A17.93,17.93,0,0,0,978.8,624.19Z"/><path class="cls-1" d="M1178.4,611.86a17.92,17.92,0,0,0,25.35,0,76.88,76.88,0,0,0,0-108.6,17.92,17.92,0,1,0-25.35,25.35,41,41,0,0,1,0,57.9A17.92,17.92,0,0,0,1178.4,611.86Z"/><path class="cls-1" d="M1247.2,639.09a115.24,115.24,0,0,0,0-163.07,17.92,17.92,0,0,0-25.35,25.35,79.42,79.42,0,0,1,0,112.37,17.92,17.92,0,1,0,25.35,25.35Z"/><path class="cls-1" d="M790.6,503.26a17.92,17.92,0,0,0-25.35,0,76.75,76.75,0,0,0,0,108.6,17.92,17.92,0,0,0,25.35-25.35,40.92,40.92,0,0,1,0-57.9A17.92,17.92,0,0,0,790.6,503.26Z"/><path class="cls-1" d="M747.15,639.09a17.92,17.92,0,0,0,0-25.35,79.42,79.42,0,0,1,0-112.37A17.92,17.92,0,1,0,721.8,476a115.24,115.24,0,0,0,0,163.07A17.92,17.92,0,0,0,747.15,639.09Z"/><path class="cls-1" d="M706.75,407.5a17.92,17.92,0,0,0,17.92-17.92v-74.5h74.5a17.92,17.92,0,1,0,0-35.85H706.75a17.92,17.92,0,0,0-17.92,17.92v92.42A17.92,17.92,0,0,0,706.75,407.5Z"/><path class="cls-1" d="M1169.83,315.08h74.5v74.5a17.92,17.92,0,0,0,35.85,0V297.16a17.92,17.92,0,0,0-17.92-17.92h-92.42a17.92,17.92,0,0,0,0,35.85Z"/><path class="cls-1" d="M1262.25,743.43a17.92,17.92,0,0,0-17.92,17.92v74.5h-74.5a17.92,17.92,0,1,0,0,35.85h92.42a17.92,17.92,0,0,0,17.92-17.92V761.35A17.92,17.92,0,0,0,1262.25,743.43Z"/><path class="cls-1" d="M799.17,835.85h-74.5v-74.5a17.92,17.92,0,0,0-35.85,0v92.42a17.92,17.92,0,0,0,17.92,17.92h92.42a17.92,17.92,0,1,0,0-35.85Z"/></svg>