<?xml version="1.0" encoding="iso-8859-1"?>
<!-- Generator: Adobe Illustrator 19.0.0, SVG Export Plug-In . SVG Version: 6.00 Build 0)  -->
<svg xmlns="http://www.w3.org/2000/svg" xmlns:xlink="http://www.w3.org/1999/xlink" version="1.1" id="Layer_1" x="0px" y="0px" viewBox="0 0 496.26 496.26" style="enable-background:new 0 0 496.26 496.26;" xml:space="preserve" width="512" height="512">
<g>
	<path d="M278.77,258.786c7.183,7.183,16.731,11.139,26.889,11.139h54.444c20.968,0,38.026-17.059,38.026-38.026   c0-20.969-17.059-38.027-38.026-38.027H321.41l-11.401-11.401c16.228-11.118,26.609-29.768,26.609-50.491   c0-33.735-27.446-61.182-61.182-61.182c-38.998,0-68.097,36.136-59.781,74.307h-34.234c-10.156,0-19.706,3.956-26.888,11.139   l-45.506,45.505c-14.861,14.859-14.865,38.915,0,53.778c14.828,14.827,38.953,14.825,53.777-0.001l34.369-34.368h7.664   l-23.754,92.32l-26.916-10.05c-19.645-7.334-41.59,2.683-48.924,22.324c-7.352,19.688,2.632,41.574,22.324,48.926l66.774,24.931   c21.25,7.935,44.792-4.435,50.227-26.549l3.515-14.301l71.583,71.582c14.827,14.827,38.95,14.827,53.778,0   c14.824-14.826,14.824-38.951-0.001-53.777L270.454,273.574l4.346-18.759L278.77,258.786z M243.356,288.903l108.873,108.872   c3.13,3.13,3.13,8.222,0.001,11.352c-3.138,3.136-8.214,3.137-11.352,0l-90.403-90.402c-8.276-8.276-22.393-4.284-25.173,7.026   l-9.867,40.147c-1.15,4.68-6.125,7.274-10.602,5.604l-66.773-24.931c-4.155-1.551-6.264-6.169-4.712-10.326   c1.548-4.146,6.18-6.258,10.327-4.713l42.534,15.881c8.354,3.116,17.556-1.7,19.773-10.315l32.73-127.203   c2.439-9.48-4.728-18.738-14.527-18.738H190.96c-3.978,0-7.793,1.58-10.606,4.394l-38.762,38.762c-3.129,3.13-8.221,3.129-11.351,0   c-3.137-3.138-3.137-8.213,0-11.352l45.506-45.505c1.517-1.517,3.532-2.352,5.675-2.352h57.395   c12.421,0,19.465-14.297,11.889-24.146c-15.653-20.348-1.145-50.161,24.73-50.161c17.193,0,31.182,13.988,31.182,31.182   c0,15.03-10.709,27.919-25.464,30.647c-11.77,2.177-16.537,16.878-7.928,25.488l31.364,31.363   c2.813,2.813,6.628,4.394,10.606,4.394h44.906c4.426,0,8.026,3.601,8.026,8.027c0,4.426-3.601,8.026-8.026,8.026h-54.444   c-2.144,0-4.159-0.835-5.676-2.352l-23.089-23.089c-8.31-8.311-22.564-4.242-25.22,7.222l-12.325,53.206   C238.181,279.954,239.696,285.243,243.356,288.903z"/>
	<path d="M410.401,278.586c5.856,5.857,15.354,5.858,21.213,0c25.056-25.057,25.056-65.825,0-90.88   c-5.857-5.857-15.355-5.857-21.213,0c-5.858,5.857-5.858,15.355,0,21.213c13.358,13.358,13.358,35.095,0,48.454   C404.543,263.231,404.544,272.728,410.401,278.586z"/>
	<path d="M467.973,301.38c37.712-37.71,37.717-98.752,0-136.468c-5.857-5.859-15.355-5.857-21.213,0   c-5.858,5.858-5.858,15.355,0,21.213c25.988,25.988,25.99,68.05,0,94.042c-5.858,5.857-5.858,15.355,0,21.213   C452.619,307.238,462.116,307.237,467.973,301.38z"/>
	<path d="M85.859,187.706c-5.858-5.858-15.355-5.858-21.213,0c-25.115,25.113-25.117,65.763,0,90.88   c5.858,5.858,15.355,5.857,21.213,0c5.858-5.857,5.858-15.355,0-21.213c-13.39-13.392-13.391-35.062,0-48.454   C91.717,203.061,91.717,193.564,85.859,187.706z"/>
	<path d="M49.499,301.38c5.858-5.857,5.858-15.355,0-21.213c-25.989-25.987-25.991-68.051,0-94.042   c5.858-5.857,5.858-15.355,0-21.213c-5.858-5.858-15.355-5.858-21.213,0c-37.713,37.712-37.716,98.752,0,136.468   C34.142,307.237,43.64,307.239,49.499,301.38z"/>
	<path d="M15.688,107.569c8.284,0,15-6.716,15-15V30.224h62.346c8.284,0,15-6.716,15-15s-6.716-15-15-15H15.688   c-8.284,0-15,6.716-15,15v77.346C0.688,100.853,7.404,107.569,15.688,107.569z"/>
	<path d="M403.225,30.224h62.346v62.346c0,8.284,6.716,15,15,15s15-6.716,15-15V15.224c0-8.284-6.716-15-15-15h-77.346   c-8.284,0-15,6.716-15,15S394.941,30.224,403.225,30.224z"/>
	<path d="M480.571,388.69c-8.284,0-15,6.716-15,15v62.346h-62.346c-8.284,0-15,6.716-15,15s6.716,15,15,15h77.346   c8.284,0,15-6.716,15-15V403.69C495.571,395.406,488.855,388.69,480.571,388.69z"/>
	<path d="M93.034,466.036H30.688V403.69c0-8.284-6.716-15-15-15s-15,6.716-15,15v77.346c0,8.284,6.716,15,15,15h77.346   c8.284,0,15-6.716,15-15S101.318,466.036,93.034,466.036z"/>
</g>















</svg>
