<svg id="icons" enable-background="new 0 0 64 64" height="512" viewBox="0 0 64 64" width="512" xmlns="http://www.w3.org/2000/svg"><path d="m29.993 18.502c-5.511.004-9.993 4.487-9.993 9.999v.998c-.553.001-.999.447-.999 1v6.005c0 .553.447.999.999 1 .001 4.429 2.42 8.295 6 10.374v2.625l-3-.001c-3.859 0-7 3.14-7 6.999v2.998c0 .553.447 1 1 1s1-.447 1-1v-2.998c0-2.757 2.243-4.999 5-4.999l3.586.001 1.707 1.706c.016.016.037.021.054.035.065.059.137.104.216.144.032.016.062.035.095.048.109.04.224.066.343.066.104 0 .211-.017.316-.052l2.683-.894 2.684.895c.105.035.212.052.316.052.119 0 .233-.026.343-.066.034-.013.063-.032.095-.048.079-.039.15-.085.216-.144.017-.015.038-.02.054-.035l1.707-1.706 3.585-.002c2.757 0 5 2.242 5 4.999v2.998c0 .553.447 1 1 1s1-.447 1-1v-2.998c0-3.859-3.141-6.999-7-6.999l-3 .001v-2.625c3.58-2.079 5.999-5.945 6-10.374.552-.001.999-.447.999-1v-6.005c0-.553-.446-.999-.999-1v-.998c0-2.967-2.167-5.432-5-5.909v-3.091c0-.553-.447-1-1-1h-8c-.002 0-.004.001-.007.001zm13.006 12.997v4.005h-.998v-4.005zm-2.998 5.005c0 .552-.448 1-1 1h-14.002c-.552 0-1-.448-1-1v-6.005c0-.552.448-1 1-1h14.002c.552 0 1 .448 1 1zm-18.002-1h-.998v-4.005h.998zm14.001 15.585-1.271 1.27-2.413-.805c-.036-.012-.072-.006-.108-.014-.069-.015-.136-.026-.208-.026s-.14.012-.209.026c-.036.008-.071.002-.107.014l-2.413.805-1.271-1.27v-2.288c1.253.445 2.596.7 4 .7s2.747-.255 4-.7zm-4-3.588c-5.513 0-9.998-4.484-10-9.997h.184c.414 1.161 1.514 2 2.815 2h14.002c1.302 0 2.401-.839 2.815-2h.184c-.002 5.513-4.487 9.997-10 9.997zm10-19v.998h-.184c-.414-1.161-1.514-2-2.815-2h-14.002c-1.302 0-2.401.839-2.815 2h-.184v-.998c0-4.411 3.589-7.999 8-7.999.002 0 .003-.001.005-.001h6.995v3c0 .553.447 1 1 1 2.206 0 4 1.794 4 4z"/><path d="m63 29.501h-15c-.553 0-1 .447-1 1v14c0 .553.447 1 1 1h15c.553 0 1-.447 1-1v-14c0-.553-.447-1-1-1zm-1 2v1h-13v-1zm-13 12v-9h13v9z"/><path d="m59 36.501h-6.917c-.553 0-1 .447-1 1s.447 1 1 1h6.917c.553 0 1-.447 1-1s-.447-1-1-1z"/><path d="m56 39.501h-3.917c-.553 0-1 .447-1 1s.447 1 1 1h3.917c.553 0 1-.447 1-1s-.447-1-1-1z"/><path d="m18.365 6.795c-.001-.001-.002-.002-.003-.003-1.729-1.431-3.947-2.291-6.362-2.291-5.514 0-10 4.486-10 10 0 1.162.209 2.273.575 3.312.014.041.025.081.044.12 1.405 3.826 5.074 6.568 9.381 6.568 5.514 0 10-4.486 10-10 0-3.098-1.416-5.87-3.635-7.706zm-4.365 3.706c-.552 0-1-.448-1-1s.448-1 1-1h3.273c.65.572 1.207 1.246 1.645 2zm-6 8c.552 0 1 .448 1 1s-.448 1-1 1h-1.273c-.65-.572-1.207-1.246-1.645-2zm4 4c-.878 0-1.722-.147-2.513-.41.9-.519 1.513-1.48 1.513-2.59 0-1.654-1.346-3-3-3h-3.736c-.166-.641-.264-1.309-.264-2 0-4.411 3.589-8 8-8 .426 0 .84.043 1.247.107-1.289.336-2.247 1.5-2.247 2.893 0 1.654 1.346 3 3 3h5.736c.166.641.264 1.309.264 2 0 4.411-3.589 8-8 8z"/><path d="m1 45.501h15 .001c.116 0 .231-.028.344-.069.036-.014.068-.031.103-.049.036-.018.073-.027.107-.05.027-.019.042-.047.066-.066.055-.044.102-.092.145-.146.041-.05.075-.1.104-.154.029-.056.052-.111.07-.172.021-.067.034-.132.041-.201.003-.032.019-.06.019-.093v-12c0-.553-.447-1-1-1h-15c-.553 0-1 .447-1 1v12c0 .553.447 1 1 1zm6-3.334.717.956-.252.378h-1.465zm5-1.863 2.132 3.197h-4.264zm-10-6.803h13v7.697l-2.164-3.246c-.001-.001-.001-.002-.002-.003l-.002-.003c-.028-.043-.071-.067-.105-.104-.054-.061-.102-.126-.172-.173-.001-.001-.002-.001-.002-.001-.11-.073-.233-.122-.361-.147-.065-.012-.128-.001-.192-.001s-.128-.011-.192.001c-.128.025-.251.075-.361.148-.001 0-.001 0-.001 0-.038.025-.06.063-.093.093-.065.057-.135.109-.185.185l-.002.003c-.001.001-.001.002-.002.003l-2.271 3.406-1.093-1.458c-.029-.04-.072-.062-.106-.095-.034-.034-.055-.076-.094-.105-.016-.012-.035-.014-.051-.024-.061-.04-.125-.065-.192-.092-.056-.021-.107-.046-.165-.057-.065-.014-.131-.011-.198-.011-.062.001-.12-.002-.181.01-.062.012-.117.037-.177.062-.063.025-.125.049-.184.087-.017.012-.036.014-.052.025-.039.029-.061.072-.095.105-.034.034-.076.056-.105.095l-2.7 3.6h-1.5z"/><path d="m5.03 37.501c.552 0 1-.447 1-1s-.448-1-1-1h-.01c-.552 0-.994.447-.994 1s.452 1 1.004 1z"/><path d="m52 2.501h-10c-.553 0-1 .447-1 1v10c0 .553.447 1 1 1h10c.553 0 1-.447 1-1v-10c0-.553-.447-1-1-1zm-1 10h-8v-8h8z"/><path d="m49 17.501v5c0 .553.447 1 1 1h5c.553 0 1-.447 1-1v-5c0-.553-.447-1-1-1h-5c-.553 0-1 .447-1 1zm2 1h3v3h-3z"/><path d="m37 12.501c.553 0 1-.447 1-1v-4c0-.553-.447-1-1-1h-4c-.553 0-1 .447-1 1v4c0 .553.447 1 1 1zm-3-4h2v2h-2z"/><path d="m37 32.502h-10c-.553 0-1 .447-1 1s.447 1 1 1h10c.553 0 1-.447 1-1s-.447-1-1-1z"/></svg>