<svg xmlns="http://www.w3.org/2000/svg" viewBox="0 0 292 292"><defs><style>.cls-1{fill:#f0f0f0;}.cls-2{fill:#e0e0e0;}.cls-3{fill:#37474f;}.cls-4{fill:#455a64;}.cls-5{fill:#263238;}.cls-6{fill:#f5f5f5;}.cls-7{fill:#27debf;}.cls-8{opacity:0.2;}.cls-15,.cls-16,.cls-9{fill:#fff;}.cls-10{opacity:0.1;}.cls-11,.cls-16{opacity:0.5;}.cls-12{fill:#ffa8a7;}.cls-13{fill:#f28f8f;}.cls-14{opacity:0.65;}.cls-15{opacity:0.35;}.cls-17{opacity:0.7;}.cls-18{opacity:0.3;}</style></defs><title>solution</title><g id="Windows"><ellipse id="Floor-2" data-name="Floor" class="cls-1" cx="147.756" cy="200.911" rx="129.244" ry="71.56"/><ellipse id="Shadow" class="cls-2" cx="159.238" cy="219.661" rx="43.234" ry="23.938"/><ellipse id="Shadow-2" data-name="Shadow" class="cls-2" cx="236.996" cy="205.237" rx="21.751" ry="12.043"/><ellipse id="Shadow-3" data-name="Shadow" class="cls-2" cx="67.672" cy="209.472" rx="41.179" ry="22.8"/><g id="Pot"><path class="cls-3" d="M226.04,207.959c-5.825-5.943-9.247-30.132-3.565-34.846h28.907c5.68,4.713,2.262,28.893-3.559,34.84-.05.056-.107.109-.159.164s-.134.133-.2.2c-.165.159-.339.315-.527.468-.046.039-.093.073-.139.11-.143.111-.283.224-.439.332a8.273,8.273,0,0,1-.753.481c-4.792,2.766-12.56,2.766-17.351,0h0a8.062,8.062,0,0,1-.759-.485c-.145-.1-.275-.2-.409-.309-.057-.046-.115-.088-.172-.135-.181-.148-.349-.3-.508-.452-.078-.073-.154-.15-.231-.226C226.13,208.051,226.081,208.006,226.04,207.959Z"/><path class="cls-4" d="M248.872,171.214c6.6,3.808,6.6,9.982,0,13.791s-17.29,3.808-23.886,0-6.595-9.983,0-13.791S242.276,167.406,248.872,171.214Z"/><path class="cls-5" d="M245.7,173.046c4.843,2.8,4.843,7.33,0,10.127s-12.7,2.8-17.541,0-4.844-7.33,0-10.127S240.856,170.249,245.7,173.046Z"/><path class="cls-6" d="M228.159,177.852c4.843-2.8,12.7-2.8,17.541,0a8.045,8.045,0,0,1,2.9,2.661,8.052,8.052,0,0,1-2.9,2.66c-4.844,2.8-12.7,2.8-17.541,0a8.047,8.047,0,0,1-2.9-2.66A8.04,8.04,0,0,1,228.159,177.852Z"/><g id="Plants-2" data-name="Plants"><path class="cls-7" d="M239.748,170.211,235.6,167.26s-3.394-17.813-.462-25.5,8.335-7.635,10.913-5.58,1.165,8.485.109,12.207c-1.27,4.481-5.317,24.545-2.465,31.661Z"/><g class="cls-8"><path d="M239.748,170.211,235.6,167.26s-3.394-17.813-.462-25.5,8.335-7.635,10.913-5.58,1.165,8.485.109,12.207c-1.27,4.481-5.317,24.545-2.465,31.661Z"/></g><path class="cls-9" d="M238.918,168.14a.345.345,0,0,0,.209-.395c-3.364-15.235,3.579-29.4,3.65-29.54a.347.347,0,0,0-.62-.31c-.071.144-7.125,14.519-3.706,30a.347.347,0,0,0,.413.264A.338.338,0,0,0,238.918,168.14Z"/><path class="cls-7" d="M237.967,165.577s-.462-1.4,1.6-1.758,2.852-2.07,3.045-4.945,1.062-4.94,3.647-5.364,4.666.877,6.346-.417,6.02-4.422,9.635-3,2.431,4.511.55,6.514-2.425,2.677-.986,5.932.391,6.3-2.935,7.059-5.186.371-5.238,4.022c-.046,3.258-.709,6.312-4.115,7.546a17.217,17.217,0,0,1-8.418.83,4.617,4.617,0,0,1-2.585-1.075c-.691-.7-.545-1.469-.545-2.378V165.577Z"/><g class="cls-10"><path d="M237.967,165.577s-.462-1.4,1.6-1.758,2.852-2.07,3.045-4.945,1.062-4.94,3.647-5.364,4.666.877,6.346-.417,6.02-4.422,9.635-3,2.431,4.511.55,6.514-2.425,2.677-.986,5.932.391,6.3-2.935,7.059-5.186.371-5.238,4.022c-.046,3.258-.709,6.312-4.115,7.546a17.217,17.217,0,0,1-8.418.83,4.617,4.617,0,0,1-2.585-1.075c-.691-.7-.545-1.469-.545-2.378V165.577Z"/></g><path class="cls-9" d="M237.967,180.611a.285.285,0,0,0,.27-.194c6.055-17.979,19.759-25.241,19.9-25.312a.286.286,0,0,0-.263-.508c-.14.072-14.043,7.43-20.175,25.638a.284.284,0,0,0,.179.361A.3.3,0,0,0,237.967,180.611Z"/><path class="cls-9" d="M246.653,164.939a.27.27,0,0,0,.063-.007c3.954-.9,10.281-.415,10.345-.411a.285.285,0,1,0,.045-.569c-.263-.022-6.479-.5-10.517.423a.286.286,0,0,0,.064.564Z"/><path class="cls-9" d="M243.429,173.58c1.807,0,3.724-.118,3.845-.125a.287.287,0,0,0,.267-.3.28.28,0,0,0-.3-.267,44.68,44.68,0,0,1-6.184,0,.286.286,0,0,0-.089.565A17.806,17.806,0,0,0,243.429,173.58Z"/><path class="cls-9" d="M248.509,162.827h.016a.286.286,0,0,0,.269-.3,21.764,21.764,0,0,0-1.272-6.021.286.286,0,1,0-.533.208,21.6,21.6,0,0,1,1.235,5.844A.285.285,0,0,0,248.509,162.827Z"/><path class="cls-7" d="M237.859,182.56a17.017,17.017,0,0,1-8.783.321c-5.04-1.079-6.26-4.159-6.26-4.159s3.588-3.733,6.767-3.942a28.388,28.388,0,0,0-9.546.2s-2.917-1.074-2.365-5.946c0,0,2.746-2,9.065-1.216a20.339,20.339,0,0,0-8.718-2.9c-.437,0,.154-6.341.684-9.169s1.579-2.392,3.85-2.148,9.412,2.6,10.264,4.23.014,5.752.014,5.752a8.206,8.206,0,0,0,2.536-3.783,7.878,7.878,0,0,1,4.338,1.793c2,1.7,1.42,2.768.771,4.45a19.047,19.047,0,0,1-2.624,4.743s2.129-.766,4.15-5.837a25.062,25.062,0,0,1,2.462,6.662C244.833,174.4,242.2,180.291,237.859,182.56Z"/><path class="cls-9" d="M237.755,182.827a.287.287,0,0,1-.182-.244c-.762-9.44-11.443-24.187-16.164-27.147a.287.287,0,0,1,.305-.486c4.8,3.01,15.656,18,16.43,27.587a.287.287,0,0,1-.263.308A.3.3,0,0,1,237.755,182.827Z"/></g></g><path class="cls-4" d="M68.032,229.65a.865.865,0,0,1-.866-.865V173.13a.866.866,0,1,1,1.732,0v55.655A.866.866,0,0,1,68.032,229.65Z"/><path class="cls-4" d="M102.466,209.393a.865.865,0,0,1-.8-.548L84.6,165.649a.866.866,0,0,1,1.61-.636l17.066,43.2a.867.867,0,0,1-.805,1.184Z"/><path class="cls-4" d="M100.416,204.205a.863.863,0,0,1-.629-.272l-31.756-33.6-31.7,33.462a.865.865,0,0,1-1.257-1.19L67.4,168.475a.862.862,0,0,1,.628-.271h0a.864.864,0,0,1,.628.271l32.384,34.27a.866.866,0,0,1-.629,1.46Z"/><path class="cls-4" d="M33.6,209.393a.867.867,0,0,1-.8-1.184l17.066-43.2a.866.866,0,0,1,1.61.636L34.4,208.845A.864.864,0,0,1,33.6,209.393Z"/><path class="cls-7" d="M101.29,202.87l2.256,5.955a.6.6,0,0,1,.02.152.487.487,0,0,1,0,.108.7.7,0,0,1-.34.375,1.511,1.511,0,0,1-1.373,0,.594.594,0,0,1-.267-.28l0-.01-.017-.082-2.091-5.582Z"/><path class="cls-7" d="M34.775,202.87l-2.256,5.955a.563.563,0,0,0-.021.152.649.649,0,0,0,0,.108.706.706,0,0,0,.34.375,1.513,1.513,0,0,0,1.374,0,.6.6,0,0,0,.267-.28l0-.01.017-.082,2.092-5.582Z"/><path class="cls-7" d="M69.03,224.476V229.4a.5.5,0,0,1-.292.408,1.559,1.559,0,0,1-1.411,0,.5.5,0,0,1-.293-.408v-4.925A2.113,2.113,0,0,1,69.03,224.476Z"/><path class="cls-5" d="M103.521,165.014c0-1.421-1.247-2.936-3.88-4.644-4.865-3.156-15.735-9.491-22.542-13.263a.071.071,0,0,0-.057-.056c-5.238-3.179-10.123-18.318-13.749-29.823-1.236-3.921-2.749-6.14-4.543-7.182-.426-.248-1.995-1.112-2.347-1.323-3.557-2.131-8.226.43-14.042,3.613-5.357,2.932-9.542,6.686-10.384,16.646-.513,6.064-.025,17.654,1.207,26.436l0-.008c1.784,14.674,3.973,14.7,7.15,17.154,5.47,4.226,17.789,10.166,22.979,12.208,9.417,3.7,17.112-2.007,22.847-4.84a133.4,133.4,0,0,0,15.2-9c1.435-1.042,2.178-2.1,2.163-3.207C103.512,167.28,103.522,165.474,103.521,165.014Z"/><path class="cls-3" d="M86.156,177.2a133.4,133.4,0,0,0,15.2-9c3.263-2.369,2.962-4.794-1.714-7.828-3.486-2.261-3.305-2.46-29.573-16.9,0,0-33.484,19.76-32.044,23.409s18.756,12.594,25.285,15.162C72.726,185.746,80.421,180.035,86.156,177.2Z"/><path class="cls-4" d="M58.541,109.926c-3.524-1.85-8.1.665-13.771,3.769-3.629,1.99-6.722,4.347-8.6,8.759l-2.392-1.383c1.879-4.394,4.966-6.751,8.584-8.735,5.817-3.186,10.485-5.742,14.044-3.612C56.715,108.905,57.952,109.593,58.541,109.926Z"/><path class="cls-3" d="M44.768,113.7c8.7-4.764,14.844-8.149,18.525,3.531,3.626,11.505,8.511,26.644,13.749,29.823,0,0-1.7-1.436-14.724,8.408-4.145,3.133-9.176,5.7-12.48,7.669-6.476,3.859-10.4,5.4-11.021,4.89-3.422-2.838-5.275-27.715-4.434-37.675S39.411,116.63,44.768,113.7Z"/><g class="cls-11"><path class="cls-4" d="M44.768,113.7c8.7-4.764,14.844-8.149,18.525,3.531,3.626,11.505,8.511,26.644,13.749,29.823,0,0-8.982-.007-22,7.023-13.536,7.31-15.6,14.458-16.224,13.944-3.422-2.838-5.275-27.715-4.434-37.675S39.411,116.63,44.768,113.7Z"/></g><g id="Character-2" data-name="Character"><path class="cls-12" d="M211.424,85.788c2.305-.514,4.341-1,5.9-1.4,8.313-2.123,10.81-4.875,11.069-8.55.412-5.866-1.785-5.912-5.574-3.29a20.627,20.627,0,0,1-5.119,2.644,10.251,10.251,0,0,0,1.565-2.4,2.015,2.015,0,0,0-.708-2.646c-.394-.193-.795.822-2.17,1.942-1.762,1.434-3.19,1.709-4.654,3.7a3.862,3.862,0,0,1-2.268,1.445c-.825.184-14.4,3.9-20.754,4.99-3.734-4.747-7.2-9.816-11.141-14.861-6.076-7.776-8.964-8.866-12.374-8.244l-2.959,9.758s20.009,23.562,20.244,23.856a5.427,5.427,0,0,0,6.066,1.931A178.237,178.237,0,0,0,211.424,85.788Z"/><path class="cls-3" d="M164.411,57.144c7.1.311,9.21,4.3,12.852,8.711s11.587,15.75,11.587,15.75l19.38-4.057s-.8,5.568,1.707,8.92c0,0-10.281,5.183-16.507,7.57-7.871,3.019-8.387,2.331-9.81,1.026-1.355-1.243-18.693-20.84-18.693-20.84Z"/><path class="cls-12" d="M84.3,70.277c1.843-5.583,3.872-5.815,6.384-1.953a20.637,20.637,0,0,0,3.733,4.388,10.317,10.317,0,0,1-.536-2.818,2.015,2.015,0,0,1,1.66-2.18c.437-.029.423,1.062,1.27,2.619,1.087,2,2.3,2.792,2.905,5.186.225.9.814,2.689,1.571,3.221,3.846,2.7,10.847,6.041,17.8,8.726,2.47-5.209,5.724-11.715,8.207-16.272,4.722-8.666,7.844-9.651,11.284-9.222l3.5,9.578S123.42,96.194,123.2,96.5c-1.433,2.011-4.361,3.4-6.646,2.462-6.514-2.672-11.357-7.381-16.885-11.134-3.287-2.231-6.387-3.968-8.37-5.442C84.414,77.27,83.147,73.776,84.3,70.277Z"/><path class="cls-12" d="M134.06,178.008c.153-7.362,2.369-12.821,2.542-14.865,0,0-.542-43.784-.542-50.887l37.335-1.522s-.521,43.894-.521,49.978-.912,31.954-1.876,43.861h0l-.108,3.916-8.332,2.591a58.942,58.942,0,0,0,0-6.7c-.155-5.558-3.9-24.806-4.25-29.694-.449-6.32.554-8.874.436-13.1s-2.62-31.864-2.62-31.864-4.676,27.155-5.839,36.377c-1.333,10.566-5.611,38.255-5.622,44.693,0,1.152,0,2.488.011,3.936.018,3.483-.1,4.4.461,5.75.978,2.357-7.369,3.837-7.757,2.163l-.9-6.921v-.2h0v-4.388C136.48,204.569,133.838,188.683,134.06,178.008Z"/><path class="cls-3" d="M187.192,219.417a2.807,2.807,0,0,1-.116,2.062c-.288.6-3.438,2.38-7.688,2.093A17.7,17.7,0,0,1,170.6,220.5a10.167,10.167,0,0,0-5.411-1.393c-2.1-.121-4.868-1.17-5.329-2.154a4.656,4.656,0,0,1,.069-2.679Z"/><path class="cls-4" d="M170.042,206.154c.111-.023.223-.047.337-.069a1.313,1.313,0,0,1,.56-.03,1.083,1.083,0,0,1,.525.354,10.432,10.432,0,0,1,1.085,1.7c.891,1.453,2.761,2.656,4.8,3.754,1.388.747,2.748,1.325,4.182,1.97,1.462.658,3.4,1.059,4.547,1.83a3.065,3.065,0,0,1-.017,5.064c-1.639.962-5.952,2-10.475.723-2.464-.7-5.2-3.331-8.433-3.584-2.056-.161-5.945-.738-7.269-2.3-.49-.693.164-2.888.7-4.784.586-2.069,1.285-5.31,1.97-5.128.029.406-.05.509.217.785s.595.43.871.666a5.422,5.422,0,0,1,1.137,1.636,1.226,1.226,0,0,0,.584.633c.347.13.606-.088.91-.228a1.772,1.772,0,0,1,1.229-.088,7.7,7.7,0,0,0-.217-1.214.7.7,0,0,1-.03-.391.627.627,0,0,1,.263-.3A6.6,6.6,0,0,1,170.042,206.154Z"/><path class="cls-3" d="M153.229,231.458a3.451,3.451,0,0,1-.1,2.29c-.3.467-2.007,1.925-5.1,2.146-2.953.211-5.59-.187-7.323-1.288a5.1,5.1,0,0,1-2.736-4c-.164-1.683.024-3.305-.778-4.6-.741-1.2-1.921-2.543-2.178-3.191a6.549,6.549,0,0,1-.02-3.426Z"/><path class="cls-4" d="M145.147,216.773a6.516,6.516,0,0,0,.341,1.873,17.138,17.138,0,0,0,1.808,3.7,15.236,15.236,0,0,0,1.231,1.737c.894,1.063,2,1.935,2.949,2.955a6.044,6.044,0,0,1,1.823,3.625c.126,2.316-2.388,3.1-4.323,3.447a14.187,14.187,0,0,1-6.289-.316,5.772,5.772,0,0,1-4.236-4.615c-.107-.643-.068-1.3-.144-1.947a9.094,9.094,0,0,0-1.8-4.052,12.212,12.212,0,0,1-1.382-2.206c-.6-1.433-.12-3.046.266-4.474.334-1.234.711-2.629,1.145-2.513,0,.639,0,.706.457,1.139.58.549.605,1.373,1.218,1.858a8.512,8.512,0,0,1-.43-1.647.943.943,0,0,1,.131-.655,1.717,1.717,0,0,1,.711-.381,14.29,14.29,0,0,1,2.812-.64,8.375,8.375,0,0,1,2.745-.019,1.188,1.188,0,0,1,.69.4,1.376,1.376,0,0,1,.246.791C145.156,215.2,145.128,216.158,145.147,216.773Z"/><path class="cls-6" d="M147.608,222.832c-.862-.646-2.8-.655-3.851-.542a6.405,6.405,0,0,0-3,1.054.685.685,0,0,1-.885-.07h0a.645.645,0,0,1,.065-.984,6.518,6.518,0,0,1,3.38-1.252c2.6-.183,3.363.262,3.363.262S147.863,222.064,147.608,222.832Z"/><path class="cls-6" d="M149.592,225.205c-1.085-.641-3.21-.549-4.267-.436a6.027,6.027,0,0,0-2.921,1.111.685.685,0,0,1-.884-.07h0a.644.644,0,0,1,.065-.984,6.772,6.772,0,0,1,3.453-1.352c2.6-.183,3.278.348,3.278.348A2.154,2.154,0,0,1,149.592,225.205Z"/><path class="cls-6" d="M142.279,218.549a6.451,6.451,0,0,1,3.269.275c.458.256.76.98.465,1.163a6.007,6.007,0,0,0-2.9-.4,8.581,8.581,0,0,0-2.812.772c-.222.1-.486.237-.716.365a.618.618,0,0,1-.856-.266h0a.578.578,0,0,1,.226-.743A8.337,8.337,0,0,1,142.279,218.549Z"/><path class="cls-6" d="M175.431,210.749a1.908,1.908,0,0,0-1.518-1.017,5.53,5.53,0,0,0-3.616,1.362.768.768,0,0,0,.111,1.268h0a.766.766,0,0,0,.876-.1A5.863,5.863,0,0,1,175.431,210.749Z"/><path class="cls-6" d="M178.332,212.373a2.2,2.2,0,0,0-1.8-.927,6.841,6.841,0,0,0-3.956,1.48.751.751,0,0,0,.1,1.226h0a.732.732,0,0,0,.844-.1A5.88,5.88,0,0,1,178.332,212.373Z"/><path class="cls-6" d="M181.534,213.837a2.462,2.462,0,0,0-1.869-.837,6.573,6.573,0,0,0-3.789,1.5.75.75,0,0,0,.1,1.225h0a.732.732,0,0,0,.844-.1A5.619,5.619,0,0,1,181.534,213.837Z"/><path class="cls-3" d="M173.4,110.734s.5,30.926.552,36.359,0,15.852,0,21.168c0,0-1.376,2.321-9.221,2.314s-8.979-2.174-8.979-2.174l-1.16-25-2.163,25.969a14.066,14.066,0,0,1-10.967,2.1c-6.462-1.393-7.41-3.318-7.41-3.318l1.27-57.3Z"/><path class="cls-5" d="M154.587,143.4l1.153-10.5a28.85,28.85,0,0,0,8.986-4.021,16.925,16.925,0,0,1-4.091,3.584c-2.185,1.224-3.234,1.731-3.234,1.731l-1.574,10.158-.277,19.8Z"/><path class="cls-4" d="M134.839,116.094c5.124,3.733,28.349,7.868,39.129,0,0,0-.25-30.11-1.094-46.047-.041-.724-.089-1.424-.161-2.107-.024-.226-.057-.451-.081-.676a21.173,21.173,0,0,0-.547-2.824c-.04-.153-.088-.3-.136-.458-.105-.346-.218-.684-.354-1.014-.073-.177-.145-.354-.226-.523a5.077,5.077,0,0,0-.233-.474.413.413,0,0,0-.04-.089c-.081-.153-.169-.306-.258-.45-.1-.161-.193-.322-.305-.483-.1-.145-.209-.3-.314-.435-.121-.152-.249-.3-.386-.45a4.774,4.774,0,0,0-.394-.41c-.089-.089-.185-.177-.282-.266s-.185-.161-.282-.233c-.12-.105-.257-.2-.386-.3a9.749,9.749,0,0,0-1.359-.8c-.129-.064-.266-.129-.4-.185-.033-.016-.073-.024-.1-.04-.161-.065-.322-.129-.483-.185a8.265,8.265,0,0,0-.836-.274c-.29-.08-.587-.153-.9-.225-.346-.016-.732-.024-1.151-.024-.265,0-.555.008-.852.016s-.6.016-.917.032c-4.031.177-9.815.829-14.456,1.424l-.91.12-.8.1c-3.186.418-5.551.764-5.913.821a.224.224,0,0,1-.048.008c-1.046.265-2.011.515-2.791.748-2.132.627-.547.088-1.014,2.148-1.376,6.049.225,28.043.225,28.043Z"/><path class="cls-5" d="M144.117,40.6s1.656,7.782,2.321,9.061a3.525,3.525,0,0,0,2.037,1.642l-.116-5.474Z"/><path class="cls-5" d="M146.2,29.456a3.835,3.835,0,0,0-3.175,1.116c-1.363,1.395-.6,5.758,1.1,10.032l3.12.359Z"/><path class="cls-12" d="M148.173,40.965c-.626.374-1.518-.828-2.29-1.635s-3.29-1.911-4.546.737c-1.281,2.7,1.109,6.262,3.092,6.885,3.417,1.073,3.93-1.119,3.93-1.119l.229,12.566c3.58,6.478,15.689,3.161,11.149-1.132l-.009-3.192a36.061,36.061,0,0,0,5.154,0c2.513-.388,3.547-2.128,4.309-4.849,1.224-4.369,1.689-7.9.651-16.49-1.139-9.418-12.094-9.516-18.009-5.793S148.173,40.965,148.173,40.965Z"/><path class="cls-5" d="M146.71,24.307a30.258,30.258,0,0,1,6.461-1.944c4.777-1.037,9.644-1.993,14.007-4.2a3.053,3.053,0,0,1,1.711-.492c1.15.151,1.654,1.545,1.7,2.7a9.542,9.542,0,0,1-.415,3.181,1.826,1.826,0,0,1,2.57.04,3.178,3.178,0,0,1,.744,2.683,6.705,6.705,0,0,1-3.858,4.871,15.209,15.209,0,0,1-6.3,1.25,43.422,43.422,0,0,1-9-.679,6.369,6.369,0,0,0-2.178-.157,1.969,1.969,0,0,0-1.627,1.291c-.317,1.189-.647,9.28-2.31,9.313-.31.007-1.489-2.031-2.256-2.758-.964-.914-1.934-7.843-2.106-9.124a.619.619,0,0,0-.133-.272c-1.087-1.522.189-4.088,1.531-4.923A14.077,14.077,0,0,1,146.71,24.307Z"/><path class="cls-5" d="M144.326,30.126a2.279,2.279,0,0,1-3.469-2.956Z"/><path class="cls-13" d="M159.728,54.075s-5.61-.539-7.571-1.582a6.453,6.453,0,0,1-2.711-2.682,8.834,8.834,0,0,0,1.54,3.164c1.434,1.833,8.742,3.184,8.742,3.184Z"/><path class="cls-5" d="M158.38,39.563a1.125,1.125,0,1,1-1.124-1.172A1.144,1.144,0,0,1,158.38,39.563Z"/><path class="cls-5" d="M157.187,35.318l-2.405,1.328a1.443,1.443,0,0,1,.561-1.915A1.339,1.339,0,0,1,157.187,35.318Z"/><path class="cls-13" d="M159.22,47.328l2.566.963a1.346,1.346,0,0,1-1.743.851A1.436,1.436,0,0,1,159.22,47.328Z"/><path class="cls-5" d="M168.4,36.254l-2.193-1.689a1.329,1.329,0,0,1,1.907-.292A1.453,1.453,0,0,1,168.4,36.254Z"/><path class="cls-5" d="M167.729,39.243a1.125,1.125,0,1,1-1.124-1.172A1.142,1.142,0,0,1,167.729,39.243Z"/><polygon class="cls-13" points="162.933 38.44 163.302 45.201 166.832 43.997 162.933 38.44"/><path class="cls-3" d="M139.8,59.63c-8.294.13-10.446,5.018-12.887,10.2-2.407,5.107-8.652,16.874-8.652,16.874l-15.616-7.061a12.293,12.293,0,0,1-5.245,6.7s7.374,6.188,13.71,10.719c5.374,3.843,8.5,5.833,10.556,4.458,1.529-1.021,16.774-20.939,16.774-20.939C142.319,74.5,143.15,64.219,139.8,59.63Z"/></g><path class="cls-7" d="M166.211,42.3c-.022,0-.889-.453-.889-.453l-.868-1.244a.965.965,0,0,1,.879.065A5.177,5.177,0,0,1,166.211,42.3Z"/><path class="cls-14" d="M166.211,42.3c-.022,0-.889-.453-.889-.453l-.868-1.244a.965.965,0,0,1,.879.065A5.177,5.177,0,0,1,166.211,42.3Z"/><path class="cls-7" d="M174.49,38.414a4.238,4.238,0,0,1-3.333,3.891l-1.4.242a9.241,9.241,0,0,1-1.855.146c-.06,0-.121,0-.187-.006-.1,0-.206-.013-.3-.019a3.858,3.858,0,0,1-.516-.085,1.675,1.675,0,0,1-.26-.072,1.1,1.1,0,0,1-.225-.091.39.39,0,0,1-.09-.049.875.875,0,0,1-.11-.072.6.6,0,0,1-.139-.17l-.479-.982a1.11,1.11,0,0,0-1.139-.545l-1,.175a1.734,1.734,0,0,0-1.14.946s-.212.521-.478,1.157-1.915,1.407-3.685,1.716l-1.4.248a3.1,3.1,0,0,1-.855.03,2.367,2.367,0,0,1-.466-.084c-.073-.019-.146-.043-.219-.067-.042-.018-.091-.036-.133-.055a2.455,2.455,0,0,1-.352-.175c-.381-.152-6.478-2.631-7.315-4.631-1.333-3.218,4.152-6.527,6.128-7.157v.006a3.539,3.539,0,0,1,.7-.206l14.406-2.54a2.873,2.873,0,0,1,2.079.388c.369.236,1.727,1.036,2.291,1.376a1.04,1.04,0,0,1,.145.085c.079.048.158.1.236.157a.333.333,0,0,1,.073.061,2.1,2.1,0,0,1,.224.2,2.181,2.181,0,0,1,.243.285,1.339,1.339,0,0,1,.151.23,2.3,2.3,0,0,1,.182.352,2.693,2.693,0,0,1,.109.321v.012a1.582,1.582,0,0,1,.067.309.3.3,0,0,1,.012.073,2.323,2.323,0,0,1,.03.357Q174.545,36.289,174.49,38.414Z"/><g class="cls-8"><path d="M174.49,38.414a4.238,4.238,0,0,1-3.333,3.891l-1.4.242a9.241,9.241,0,0,1-1.855.146c-.06,0-.121,0-.187-.006-.1,0-.206-.013-.3-.019a3.858,3.858,0,0,1-.516-.085,1.675,1.675,0,0,1-.26-.072,1.1,1.1,0,0,1-.225-.091.39.39,0,0,1-.09-.049.875.875,0,0,1-.11-.072.6.6,0,0,1-.139-.17l-.479-.982a1.11,1.11,0,0,0-1.139-.545l-1,.175a1.734,1.734,0,0,0-1.14.946s-.212.521-.478,1.157-1.915,1.407-3.685,1.716l-1.4.248a3.1,3.1,0,0,1-.855.03,2.367,2.367,0,0,1-.466-.084c-.073-.019-.146-.043-.219-.067-.042-.018-.091-.036-.133-.055a2.455,2.455,0,0,1-.352-.175c-.381-.152-6.478-2.631-7.315-4.631-1.333-3.218,4.152-6.527,6.128-7.157v.006a3.539,3.539,0,0,1,.7-.206l14.406-2.54a2.873,2.873,0,0,1,2.079.388c.369.236,1.727,1.036,2.291,1.376a1.04,1.04,0,0,1,.145.085c.079.048.158.1.236.157a.333.333,0,0,1,.073.061,2.1,2.1,0,0,1,.224.2,2.181,2.181,0,0,1,.243.285,1.339,1.339,0,0,1,.151.23,2.3,2.3,0,0,1,.182.352,2.693,2.693,0,0,1,.109.321v.012a1.582,1.582,0,0,1,.067.309.3.3,0,0,1,.012.073,2.323,2.323,0,0,1,.03.357Q174.545,36.289,174.49,38.414Z"/></g><path class="cls-7" d="M173.018,31.729a2.91,2.91,0,0,0-1.861-.267L156.751,34a4.262,4.262,0,0,0-3.321,3.648L149.3,35.262a13.837,13.837,0,0,1,4.243-2.557v.006a3.539,3.539,0,0,1,.7-.206l14.406-2.54a2.873,2.873,0,0,1,2.079.388C171.1,30.589,172.454,31.389,173.018,31.729Z"/><path class="cls-15" d="M173.018,31.729a2.91,2.91,0,0,0-1.861-.267L156.751,34a4.262,4.262,0,0,0-3.321,3.648L149.3,35.262a13.837,13.837,0,0,1,4.243-2.557v.006a3.539,3.539,0,0,1,.7-.206l14.406-2.54a2.873,2.873,0,0,1,2.079.388C171.1,30.589,172.454,31.389,173.018,31.729Z"/><path class="cls-7" d="M174.492,34.174q.05,2.112,0,4.242a4.236,4.236,0,0,1-3.337,3.886l-1.4.247c-1.768.312-3.417.123-3.683-.42l-.479-.982a1.116,1.116,0,0,0-1.14-.547l-1,.176a1.724,1.724,0,0,0-1.138.949l-.481,1.153c-.266.637-1.915,1.406-3.684,1.718l-1.4.246a2.762,2.762,0,0,1-3.337-2.709q-.049-2.112,0-4.243A4.235,4.235,0,0,1,156.751,34l14.4-2.54A2.762,2.762,0,0,1,174.492,34.174Z"/><path class="cls-16" d="M174.49,38.414a4.238,4.238,0,0,1-3.333,3.891l-1.4.242a9.241,9.241,0,0,1-1.855.146c-.06,0-.121,0-.187-.006-.1,0-.206-.013-.3-.019a3.858,3.858,0,0,1-.516-.085,1.675,1.675,0,0,1-.26-.072,1.1,1.1,0,0,1-.225-.091.39.39,0,0,1-.09-.049.875.875,0,0,1-.11-.072.6.6,0,0,1-.139-.17l-.479-.982a1.11,1.11,0,0,0-1.139-.545l-1,.175a1.734,1.734,0,0,0-1.14.946s-.212.521-.478,1.157-1.915,1.407-3.685,1.716l-1.4.248a3.1,3.1,0,0,1-.855.03,2.367,2.367,0,0,1-.466-.084c-.073-.019-.146-.043-.219-.067-.042-.018-.091-.036-.133-.055a2.455,2.455,0,0,1-.352-.175,2.778,2.778,0,0,1-1.315-2.358q-.045-2.118,0-4.242A4.245,4.245,0,0,1,156.751,34l14.406-2.54a2.91,2.91,0,0,1,1.861.267,1.04,1.04,0,0,1,.145.085c.079.048.158.1.236.157a.333.333,0,0,1,.073.061,2.1,2.1,0,0,1,.224.2,2.181,2.181,0,0,1,.243.285,1.339,1.339,0,0,1,.151.23,2.3,2.3,0,0,1,.182.352,2.693,2.693,0,0,1,.109.321v.012a1.582,1.582,0,0,1,.067.309.3.3,0,0,1,.012.073,2.323,2.323,0,0,1,.03.357Q174.545,36.289,174.49,38.414Z"/><g class="cls-17"><path class="cls-7" d="M174.49,34.171a2.323,2.323,0,0,0-.03-.357.3.3,0,0,0-.012-.073,1.582,1.582,0,0,0-.067-.309V33.42a2.693,2.693,0,0,0-.109-.321,2.3,2.3,0,0,0-.182-.352,1.339,1.339,0,0,0-.151-.23,2.181,2.181,0,0,0-.243-.285,2.1,2.1,0,0,0-.224-.2.312.312,0,0,0-.068-.057L164.781,40.6a1.086,1.086,0,0,1,.812.55l.479.982a.6.6,0,0,0,.139.17.875.875,0,0,0,.11.072.39.39,0,0,0,.09.049,1.1,1.1,0,0,0,.225.091,1.675,1.675,0,0,0,.26.072,3.858,3.858,0,0,0,.516.085c.1.006.2.019.3.019.066.006.127.006.187.006a8.548,8.548,0,0,0,1.117-.052l5.488-5.487C174.517,36.158,174.516,35.164,174.49,34.171Z"/><path class="cls-7" d="M167.652,32.08,155.069,44.664l.009,0c.042.019.091.037.133.055.073.024.146.048.219.067a2.367,2.367,0,0,0,.466.084,3.1,3.1,0,0,0,.855-.03l.916-.163L170.829,31.52Z"/><path class="cls-7" d="M158.694,33.659,153.4,38.953c-.011,1.062-.011,2.122.011,3.182a2.924,2.924,0,0,0,.375,1.391L164.715,32.6Z"/></g><path class="cls-5" d="M150.076,39.217a.51.51,0,0,1-.577.553.744.744,0,0,1-.576-.735.51.51,0,0,1,.576-.553A.745.745,0,0,1,150.076,39.217Z"/><g class="cls-11"><path d="M171.7,31.716h0a2.536,2.536,0,0,1,1.179.284.825.825,0,0,1,.122.072c.075.046.149.1.214.142l.027.019.01.014.032.025a1.9,1.9,0,0,1,.195.174,2.031,2.031,0,0,1,.224.265,1.068,1.068,0,0,1,.117.179l.007.013.008.012a2.049,2.049,0,0,1,.154.3,2.556,2.556,0,0,1,.086.248v.016l.014.044a1.343,1.343,0,0,1,.055.253l0,.019.005.02v.023l0,.024a1.988,1.988,0,0,1,.027.318c.035,1.4.035,2.822,0,4.228a3.957,3.957,0,0,1-3.083,3.6l-1.4.243a9.285,9.285,0,0,1-1.569.144l-.233,0h-.015c-.047,0-.1,0-.172-.006s-.125-.006-.186-.011l-.088-.006a3.745,3.745,0,0,1-.485-.081,1.458,1.458,0,0,1-.237-.067.815.815,0,0,1-.163-.065l-.036-.017-.016-.007-.016-.012-.018-.01a.642.642,0,0,1-.056-.035.314.314,0,0,1-.069-.077l-.48-.983a1.409,1.409,0,0,0-1.24-.729,1.278,1.278,0,0,0-.224.019l-1,.176a2.043,2.043,0,0,0-1.367,1.13s-.212.52-.478,1.154c-.2.475-1.668,1.222-3.458,1.534l-1.4.248a3.065,3.065,0,0,1-.5.043,2.526,2.526,0,0,1-.282-.016,2.034,2.034,0,0,1-.416-.076c-.065-.017-.13-.039-.172-.052l-.073-.029-.067-.028a2.043,2.043,0,0,1-.307-.153,2.472,2.472,0,0,1-1.17-2.105c-.03-1.4-.03-2.824,0-4.229a3.961,3.961,0,0,1,3.089-3.6l14.407-2.54a2.859,2.859,0,0,1,.493-.044m0-.3a3.112,3.112,0,0,0-.546.049L156.751,34a4.245,4.245,0,0,0-3.34,3.891q-.045,2.127,0,4.242a2.778,2.778,0,0,0,1.315,2.358,2.455,2.455,0,0,0,.352.175c.042.019.091.037.133.055.073.024.146.048.219.067a2.367,2.367,0,0,0,.466.084,2.563,2.563,0,0,0,.305.017,3.377,3.377,0,0,0,.55-.047l1.4-.248c1.77-.309,3.418-1.079,3.685-1.716s.478-1.157.478-1.157a1.734,1.734,0,0,1,1.14-.946l1-.175a.971.971,0,0,1,.171-.015,1.106,1.106,0,0,1,.968.56l.479.982a.6.6,0,0,0,.139.17.875.875,0,0,0,.11.072.39.39,0,0,0,.09.049,1.1,1.1,0,0,0,.225.091,1.645,1.645,0,0,0,.26.072,3.858,3.858,0,0,0,.516.085c.1.006.2.019.3.019.066.006.127.006.187.006.076,0,.154,0,.233,0a9.443,9.443,0,0,0,1.622-.149l1.4-.242a4.238,4.238,0,0,0,3.333-3.891q.055-2.127,0-4.243a2.323,2.323,0,0,0-.03-.357.3.3,0,0,0-.012-.073,1.582,1.582,0,0,0-.067-.309V33.42a2.693,2.693,0,0,0-.109-.321,2.3,2.3,0,0,0-.182-.352,1.339,1.339,0,0,0-.151-.23,2.181,2.181,0,0,0-.243-.285,2.1,2.1,0,0,0-.224-.2.333.333,0,0,0-.073-.061c-.078-.054-.157-.109-.236-.157a1.04,1.04,0,0,0-.145-.085,2.852,2.852,0,0,0-1.315-.316Z"/></g><path class="cls-9" d="M153.411,42.135l-.073-3.049c0-.512-.039-1.009,0-1.533a4.039,4.039,0,0,1,.471-1.482,4.406,4.406,0,0,1,2.3-2.036,9.876,9.876,0,0,1,1.51-.334l1.5-.271,6.009-1.024q3.007-.5,6.024-.944-2.987.612-5.983,1.173l-6,1.093-1.5.257a9.813,9.813,0,0,0-1.465.308,4.28,4.28,0,0,0-2.194,1.891,3.835,3.835,0,0,0-.485,1.391c-.054.488-.026,1.01-.045,1.513Z"/><g class="cls-18"><path class="cls-7" d="M255.494,17.668V90.96c-1.255,7.673-5.2,15.206-11.91,22.128a66.352,66.352,0,0,1-7.782,6.848,89.328,89.328,0,0,1-8.424,5.521c-11.085,6.419-24.212,10.94-38.164,13.6q-3.327.636-6.721,1.127V66.554c15.679-2.534,30.455-7.207,42.83-14.019,15.364-8.461,24.734-18.97,28.128-29.928,0-.006,0-.012.006-.012a36.32,36.32,0,0,0,1.57-4.982A.237.237,0,0,1,255.494,17.668Z"/></g><path class="cls-7" d="M182.19,140.529V66.3l.255-.04c16.044-2.593,30.82-7.428,42.733-13.985,14.785-8.142,24.456-18.414,27.97-29.709V22.3l.1,0a36.063,36.063,0,0,0,1.484-4.756.541.541,0,0,1,1.066.124V90.96c-1.3,7.968-5.334,15.467-12,22.338a66.778,66.778,0,0,1-7.818,6.88,89.189,89.189,0,0,1-8.454,5.542c-10.838,6.275-23.711,10.861-38.26,13.629-2.213.424-4.479.8-6.734,1.129Zm.606-73.718v73.017c2.131-.313,4.269-.674,6.361-1.074,14.482-2.756,27.29-7.318,38.069-13.558a88.894,88.894,0,0,0,8.4-5.5,66.362,66.362,0,0,0,7.743-6.815C249.94,106.1,253.92,98.705,255.2,90.911l0-72.692a37.22,37.22,0,0,1-1.452,4.487l-.007.017C250.175,34.177,240.4,44.577,225.47,52.8,213.561,59.356,198.81,64.2,182.8,66.811Z"/><path class="cls-9" d="M199.509,121.9a.605.605,0,0,1-.606-.606V78.01a.606.606,0,0,1,.449-.585c3.584-.96,6.888-1.988,10.1-3.142a.606.606,0,0,1,.811.571v43.288a.606.606,0,0,1-.4.571c-3.254,1.167-6.59,2.2-10.2,3.171A.6.6,0,0,1,199.509,121.9Zm.606-43.429v42.031c3.138-.859,6.074-1.775,8.938-2.791v-42C206.2,76.713,203.261,77.621,200.115,78.475Z"/><path class="cls-9" d="M218.984,114.947a.607.607,0,0,1-.606-.606V71.052a.607.607,0,0,1,.36-.554,90.957,90.957,0,0,0,8.337-4.275c.617-.327,1.186-.683,1.736-1.028a.606.606,0,0,1,.928.514V109a.6.6,0,0,1-.284.513c-.572.358-1.163.728-1.8,1.063a92.422,92.422,0,0,1-8.43,4.322A.607.607,0,0,1,218.984,114.947Zm.606-43.5V113.4c2.368-1.089,4.826-2.366,7.485-3.891.507-.269.987-.561,1.452-.85V66.794c-.28.167-.568.332-.867.491C224.8,68.926,222.147,70.292,219.59,71.445Z"/><path class="cls-9" d="M238.423,103.04a.606.606,0,0,1-.606-.606V59.146a.607.607,0,0,1,.219-.468,65.5,65.5,0,0,0,5.117-4.69,47.148,47.148,0,0,0,4.923-5.914.606.606,0,0,1,1.1.348V91.71a.607.607,0,0,1-.11.349,48.277,48.277,0,0,1-5.049,6.065,66.962,66.962,0,0,1-5.21,4.777A.61.61,0,0,1,238.423,103.04Zm.606-43.61v41.7c1.47-1.262,2.854-2.555,4.124-3.855a47.161,47.161,0,0,0,4.813-5.758V50.277a48.4,48.4,0,0,1-3.947,4.559A66.563,66.563,0,0,1,239.029,59.43Z"/><g class="cls-18"><path class="cls-7" d="M189.828,129.408l24.62-45.484,19.695,25.584S225.843,121.387,189.828,129.408Z"/></g><g class="cls-18"><path class="cls-7" d="M144.092,132.142c-22.479-1.2-44.364-6.539-61.583-16.018-19.376-10.673-29.23-24.6-29.558-38.582V76.154l-.175-47.106C52.763,25.684,58.7,35.22,71.1,45c.291.236.588.46.885.691.691.533,1.4,1.054,2.133,1.575a86.448,86.448,0,0,0,8.449,5.273c17.152,9.449,38.94,14.782,61.334,16Z"/></g><path class="cls-7" d="M53.405,28.794h0m-.023.321a37.621,37.621,0,0,1,3.527,3.467A127.586,127.586,0,0,0,70.721,45.466c.217.177.438.347.66.518l.237.182c.66.51,1.365,1.031,2.152,1.59a87.555,87.555,0,0,0,8.507,5.31C98.668,62.1,120.32,67.785,143.3,69.109l.184,62.393c-22.871-1.3-44.4-6.944-60.682-15.909-18.523-10.2-28.909-23.721-29.245-38.051v-1.39l-.175-47.037m-.26-.756c-.233,0-.348.218-.346.689l.175,47.106v1.388c.328,13.982,10.182,27.909,29.558,38.582,17.219,9.479,39.1,14.818,61.583,16.018L143.9,68.535c-22.394-1.218-44.182-6.551-61.334-16a86.448,86.448,0,0,1-8.449-5.273c-.733-.521-1.442-1.042-2.133-1.575-.3-.231-.594-.455-.885-.691-10.67-8.408-16.552-16.638-17.981-16.637Z"/><path class="cls-9" d="M122.356,123.108a.592.592,0,0,1-.084-.005,130.343,130.343,0,0,1-36.116-11.632c-20.3-10.3-28.277-26.279-28.355-26.44a.593.593,0,0,1-.062-.265V72.553a.6.6,0,0,1,.112-.35L71.164,53.389a.606.606,0,0,1,1.052.111L88.728,92.017l-1.434-7.132a.607.607,0,0,1,.245-.615l13.312-9.37a.607.607,0,0,1,.87.185l21.154,35.535a.6.6,0,0,1,.085.31l0,11.572a.6.6,0,0,1-.606.606ZM58.951,84.62c.77,1.479,8.761,16.13,27.753,25.77A129.639,129.639,0,0,0,121.75,121.8l0-10.7-20.734-34.83L88.56,85.034l2.509,12.477a.606.606,0,0,1-1.151.358l-18.39-42.9L58.951,72.746Z"/><path class="cls-9" d="M122.124,87.253a5.984,5.984,0,0,1-1.143-.113c-3.648-.715-6.615-4.708-6.615-8.9a6.892,6.892,0,0,1,2.305-5.4,5.39,5.39,0,0,1,4.544-1.1c3.648.715,6.615,4.709,6.615,8.9a6.888,6.888,0,0,1-2.3,5.4A5.3,5.3,0,0,1,122.124,87.253ZM120.08,72.837a4.1,4.1,0,0,0-2.638.936,5.691,5.691,0,0,0-1.865,4.465c0,3.644,2.529,7.1,5.638,7.712a4.19,4.19,0,0,0,3.539-.847,5.687,5.687,0,0,0,1.864-4.464c0-3.644-2.528-7.1-5.637-7.713A4.655,4.655,0,0,0,120.08,72.837Z"/><g class="cls-18"><path class="cls-7" d="M57.184,43.444A34.944,34.944,0,0,0,74.12,57.359V51.881A44.047,44.047,0,0,1,57.184,37.018Z"/></g><g class="cls-18"><path class="cls-7" d="M57.184,53.375A34.944,34.944,0,0,0,74.12,67.29V61.812A44.047,44.047,0,0,1,57.184,46.949Z"/></g><g class="cls-18"><path class="cls-7" d="M57.184,63.306A34.944,34.944,0,0,0,74.12,77.221V71.742A44.04,44.04,0,0,1,57.184,56.88Z"/></g></g></svg>