<svg xmlns="http://www.w3.org/2000/svg" xmlns:xlink="http://www.w3.org/1999/xlink" viewBox="0 0 292 292"><defs><style>.cls-1{isolation:isolate;}.cls-2,.cls-4{fill:#6a64ff;}.cls-2{opacity:0.17;}.cls-2,.cls-25,.cls-4,.cls-6{mix-blend-mode:multiply;}.cls-3{fill:#4d70ff;}.cls-4{opacity:0.34;}.cls-5{fill:#293ed6;}.cls-6{opacity:0.43;}.cls-36,.cls-37,.cls-38,.cls-7{fill:#6d26d7;}.cls-8{fill:#5202b5;}.cls-9{fill:#723e24;}.cls-10,.cls-11{opacity:0.37;}.cls-12{fill:#e8f6f7;}.cls-13{fill:#d0e0e2;}.cls-14{fill:#0a1828;}.cls-15{fill:#132333;}.cls-16{fill:#ffadad;}.cls-17{fill:#221c7d;}.cls-18{fill:#2d24a3;}.cls-19{fill:#a67070;}.cls-20{fill:#916262;opacity:0.38;}.cls-21{fill:#5b2f2f;}.cls-22{fill:#f29e9e;}.cls-23{fill:#e5bb98;}.cls-24{fill:#e6e7e8;}.cls-25,.cls-30,.cls-41{opacity:0.2;}.cls-26{fill:#ffe7db;}.cls-27{fill:url(#linear-gradient);}.cls-28{fill:#9a9fb3;}.cls-29{fill:url(#linear-gradient-2);}.cls-30{fill:#212226;}.cls-31{fill:#77affd;}.cls-32,.cls-33,.cls-34,.cls-41{fill:none;stroke-width:0.5px;}.cls-32,.cls-33,.cls-34{stroke:#77affd;stroke-linecap:round;stroke-linejoin:round;}.cls-33{stroke-dasharray:1.613 1.01;}.cls-34{stroke-dasharray:1.598 1;}.cls-35{fill:#fff;}.cls-36,.cls-39{opacity:0.55;}.cls-37{opacity:0.31;}.cls-38{opacity:0.12;}.cls-40{fill:#124afc;}.cls-41{stroke:#212226;stroke-miterlimit:10;}</style><linearGradient id="linear-gradient" x1="138.596" y1="148.964" x2="138.596" y2="167.713" gradientUnits="userSpaceOnUse"><stop offset="0" stop-color="#ffe7db"/><stop offset="0.239" stop-color="#fde4d8"/><stop offset="0.409" stop-color="#f5dbd0"/><stop offset="0.557" stop-color="#e8cbc2"/><stop offset="0.693" stop-color="#d6b5ae"/><stop offset="0.821" stop-color="#be9994"/><stop offset="0.941" stop-color="#a27674"/><stop offset="1" stop-color="#916262"/></linearGradient><linearGradient id="linear-gradient-2" x1="-4845.298" y1="148.372" x2="-4845.298" y2="163.212" gradientTransform="matrix(-1, 0, -0.159, 1.009, -4705.21, -3.213)" gradientUnits="userSpaceOnUse"><stop offset="0" stop-color="#fff"/><stop offset="1" stop-color="#ffadad"/></linearGradient></defs><title>solution</title><g class="cls-1"><g id="Windows"><path class="cls-2" d="M40.372,236.016c35.947,42.225,81.322,52.572,135.337,43.392S290.94,243.87,286.82,176.226,215.814,101.71,176.1,50.286c-23.986-31.057-84.765-35.894-125.49,3.665C20.78,82.925-20.488,164.527,40.372,236.016Z"/><path class="cls-3" d="M159.878,17.317c45.13,15.23,41.769,65.419,68.338,105.665s26.39,78.2,7.327,105.05-72.524,43.636-127.273,17.5c-27.724-13.233-66.395-34.9-70.41-96.763C33.388,79.85,107.173-.47,159.878,17.317Z"/><path class="cls-4" d="M37.793,200.982c27.612,38.066,65.294,49.8,111.566,45.6s99.762-22.461,100.731-79.921S194.964,98.981,164.771,52.89c-18.235-27.836-69.3-35.927-106.338-5.163C31.307,70.26-8.955,136.535,37.793,200.982Z"/><ellipse class="cls-5" cx="138.596" cy="220.015" rx="75.674" ry="11.221"/><g class="cls-6"><path class="cls-7" d="M184.2,55.976a.808.808,0,1,1-.808-.807A.808.808,0,0,1,184.2,55.976Z"/><path class="cls-7" d="M187.6,55.976a.808.808,0,1,1-.807-.807A.807.807,0,0,1,187.6,55.976Z"/><path class="cls-7" d="M191,55.976a.808.808,0,1,1-.808-.807A.808.808,0,0,1,191,55.976Z"/><path class="cls-7" d="M194.4,55.976a.808.808,0,1,1-.807-.807A.807.807,0,0,1,194.4,55.976Z"/><circle class="cls-7" cx="196.999" cy="55.976" r="0.808"/><path class="cls-7" d="M201.21,55.976a.808.808,0,1,1-.808-.807A.808.808,0,0,1,201.21,55.976Z"/><path class="cls-7" d="M204.612,55.976a.808.808,0,1,1-.807-.807A.807.807,0,0,1,204.612,55.976Z"/><path class="cls-7" d="M208.016,55.976a.808.808,0,1,1-.808-.807A.808.808,0,0,1,208.016,55.976Z"/><path class="cls-8" d="M140.809,72.975a.808.808,0,1,1-.808-.808A.808.808,0,0,1,140.809,72.975Z"/><path class="cls-8" d="M144.212,72.975a.808.808,0,1,1-.808-.808A.808.808,0,0,1,144.212,72.975Z"/><path class="cls-8" d="M147.614,72.975a.808.808,0,1,1-.807-.808A.807.807,0,0,1,147.614,72.975Z"/><path class="cls-8" d="M151.018,72.975a.808.808,0,1,1-.808-.808A.808.808,0,0,1,151.018,72.975Z"/><path class="cls-8" d="M154.42,72.975a.808.808,0,1,1-.808-.808A.808.808,0,0,1,154.42,72.975Z"/><path class="cls-8" d="M157.823,72.975a.808.808,0,1,1-.808-.808A.808.808,0,0,1,157.823,72.975Z"/><path class="cls-8" d="M161.226,72.975a.808.808,0,1,1-.808-.808A.808.808,0,0,1,161.226,72.975Z"/><path class="cls-8" d="M164.629,72.975a.808.808,0,1,1-.808-.808A.808.808,0,0,1,164.629,72.975Z"/><path class="cls-8" d="M148.509,77.788a.808.808,0,1,1-.808-.807A.808.808,0,0,1,148.509,77.788Z"/><path class="cls-8" d="M151.912,77.788a.808.808,0,1,1-.808-.807A.808.808,0,0,1,151.912,77.788Z"/><path class="cls-8" d="M155.314,77.788a.808.808,0,1,1-.807-.807A.807.807,0,0,1,155.314,77.788Z"/><path class="cls-8" d="M158.717,77.788a.808.808,0,1,1-.808-.807A.808.808,0,0,1,158.717,77.788Z"/><path class="cls-8" d="M162.12,77.788a.808.808,0,1,1-.808-.807A.807.807,0,0,1,162.12,77.788Z"/><path class="cls-8" d="M165.522,77.788a.808.808,0,1,1-.807-.807A.807.807,0,0,1,165.522,77.788Z"/><path class="cls-8" d="M168.926,77.788a.808.808,0,1,1-.808-.807A.808.808,0,0,1,168.926,77.788Z"/><path class="cls-8" d="M172.328,77.788a.808.808,0,1,1-.807-.807A.807.807,0,0,1,172.328,77.788Z"/><path class="cls-8" d="M138.224,173.944a.808.808,0,1,1-.807-.807A.808.808,0,0,1,138.224,173.944Z"/><path class="cls-8" d="M141.627,173.944a.808.808,0,1,1-.808-.807A.808.808,0,0,1,141.627,173.944Z"/><path class="cls-8" d="M145.03,173.944a.808.808,0,1,1-.808-.807A.809.809,0,0,1,145.03,173.944Z"/><path class="cls-8" d="M148.433,173.944a.808.808,0,1,1-.808-.807A.809.809,0,0,1,148.433,173.944Z"/><path class="cls-8" d="M151.836,173.944a.808.808,0,1,1-.809-.807A.809.809,0,0,1,151.836,173.944Z"/><path class="cls-8" d="M155.238,173.944a.808.808,0,1,1-.807-.807A.808.808,0,0,1,155.238,173.944Z"/><path class="cls-8" d="M158.641,173.944a.808.808,0,1,1-.808-.807A.809.809,0,0,1,158.641,173.944Z"/><path class="cls-8" d="M162.044,173.944a.808.808,0,1,1-.807-.807A.808.808,0,0,1,162.044,173.944Z"/><path class="cls-8" d="M150.22,179.566a.808.808,0,1,1-.807-.808A.807.807,0,0,1,150.22,179.566Z"/><path class="cls-8" d="M153.623,179.566a.808.808,0,1,1-.808-.808A.808.808,0,0,1,153.623,179.566Z"/><path class="cls-8" d="M157.026,179.566a.808.808,0,1,1-.808-.808A.808.808,0,0,1,157.026,179.566Z"/><path class="cls-8" d="M160.429,179.566a.808.808,0,1,1-.808-.808A.808.808,0,0,1,160.429,179.566Z"/><path class="cls-8" d="M163.832,179.566a.808.808,0,1,1-.809-.808A.809.809,0,0,1,163.832,179.566Z"/><path class="cls-8" d="M167.234,179.566a.808.808,0,1,1-.807-.808A.807.807,0,0,1,167.234,179.566Z"/><path class="cls-8" d="M170.637,179.566a.808.808,0,1,1-.808-.808A.808.808,0,0,1,170.637,179.566Z"/><path class="cls-8" d="M174.04,179.566a.808.808,0,1,1-.807-.808A.807.807,0,0,1,174.04,179.566Z"/><path class="cls-8" d="M41.57,104.873a.808.808,0,1,1-.808-.808A.808.808,0,0,1,41.57,104.873Z"/><path class="cls-8" d="M44.973,104.873a.808.808,0,1,1-.808-.808A.808.808,0,0,1,44.973,104.873Z"/><path class="cls-8" d="M48.375,104.873a.808.808,0,1,1-.807-.808A.807.807,0,0,1,48.375,104.873Z"/><path class="cls-8" d="M51.778,104.873a.808.808,0,1,1-.808-.808A.808.808,0,0,1,51.778,104.873Z"/><path class="cls-8" d="M55.181,104.873a.808.808,0,1,1-.808-.808A.808.808,0,0,1,55.181,104.873Z"/><path class="cls-8" d="M58.583,104.873a.808.808,0,1,1-.807-.808A.807.807,0,0,1,58.583,104.873Z"/><path class="cls-8" d="M61.987,104.873a.808.808,0,1,1-.808-.808A.808.808,0,0,1,61.987,104.873Z"/><path class="cls-8" d="M65.389,104.873a.808.808,0,1,1-.807-.808A.807.807,0,0,1,65.389,104.873Z"/><path class="cls-8" d="M62.825,131.375a.808.808,0,1,1-.807-.808A.807.807,0,0,1,62.825,131.375Z"/><path class="cls-8" d="M66.228,131.375a.808.808,0,1,1-.807-.808A.807.807,0,0,1,66.228,131.375Z"/><path class="cls-8" d="M69.631,131.375a.808.808,0,1,1-.807-.808A.807.807,0,0,1,69.631,131.375Z"/><path class="cls-8" d="M73.034,131.375a.808.808,0,1,1-.808-.808A.808.808,0,0,1,73.034,131.375Z"/><path class="cls-8" d="M76.437,131.375a.808.808,0,1,1-.808-.808A.808.808,0,0,1,76.437,131.375Z"/><path class="cls-8" d="M79.839,131.375a.808.808,0,1,1-.807-.808A.807.807,0,0,1,79.839,131.375Z"/><path class="cls-8" d="M83.243,131.375a.808.808,0,1,1-.808-.808A.808.808,0,0,1,83.243,131.375Z"/><path class="cls-8" d="M86.645,131.375a.808.808,0,1,1-.807-.808A.807.807,0,0,1,86.645,131.375Z"/><path class="cls-8" d="M167.833,134.257a.808.808,0,1,1-.807-.808A.807.807,0,0,1,167.833,134.257Z"/><path class="cls-8" d="M171.236,134.257a.808.808,0,1,1-.807-.808A.807.807,0,0,1,171.236,134.257Z"/><path class="cls-8" d="M174.639,134.257a.808.808,0,1,1-.807-.808A.807.807,0,0,1,174.639,134.257Z"/><path class="cls-8" d="M178.042,134.257a.808.808,0,1,1-.808-.808A.808.808,0,0,1,178.042,134.257Z"/><path class="cls-8" d="M181.445,134.257a.808.808,0,1,1-.808-.808A.808.808,0,0,1,181.445,134.257Z"/><path class="cls-8" d="M184.847,134.257a.808.808,0,1,1-.807-.808A.807.807,0,0,1,184.847,134.257Z"/><path class="cls-8" d="M188.251,134.257a.808.808,0,1,1-.808-.808A.808.808,0,0,1,188.251,134.257Z"/><path class="cls-8" d="M191.653,134.257a.808.808,0,1,1-.807-.808A.807.807,0,0,1,191.653,134.257Z"/><path class="cls-8" d="M184.749,126.559a.808.808,0,1,1-.808-.808A.808.808,0,0,1,184.749,126.559Z"/><path class="cls-8" d="M188.152,126.559a.808.808,0,1,1-.808-.808A.808.808,0,0,1,188.152,126.559Z"/><path class="cls-8" d="M191.554,126.559a.808.808,0,1,1-.807-.808A.807.807,0,0,1,191.554,126.559Z"/><path class="cls-8" d="M194.957,126.559a.808.808,0,1,1-.808-.808A.808.808,0,0,1,194.957,126.559Z"/><path class="cls-8" d="M198.36,126.559a.808.808,0,1,1-.808-.808A.807.807,0,0,1,198.36,126.559Z"/><path class="cls-8" d="M201.763,126.559a.808.808,0,1,1-.808-.808A.808.808,0,0,1,201.763,126.559Z"/><path class="cls-8" d="M205.166,126.559a.808.808,0,1,1-.808-.808A.808.808,0,0,1,205.166,126.559Z"/><path class="cls-8" d="M208.568,126.559a.808.808,0,1,1-.807-.808A.807.807,0,0,1,208.568,126.559Z"/><polygon class="cls-7" points="132.301 47.399 127.791 54.652 132.301 56.768 136.812 54.652 132.301 47.399"/><polygon class="cls-7" points="132.301 63.229 136.812 55.976 132.301 58.928 127.791 55.976 132.301 63.229"/><polygon class="cls-7" points="179.685 187.287 175.175 194.54 179.685 196.656 184.195 194.54 179.685 187.287"/><polygon class="cls-7" points="179.685 203.117 184.195 195.864 179.685 198.816 175.175 195.864 179.685 203.117"/><polygon class="cls-7" points="126.912 114.795 123.919 119.607 126.912 121.011 129.904 119.607 126.912 114.795"/><polygon class="cls-7" points="126.912 125.298 129.904 120.486 126.912 122.444 123.919 120.486 126.912 125.298"/><path class="cls-7" d="M179.819,42.074a1.864,1.864,0,0,0-2.116-.366l-1.817-1.816h-6.448a1.411,1.411,0,1,0,0,1.25h5.929l1.451,1.451a1.864,1.864,0,1,0,3-.519ZM179.51,44.4a1.424,1.424,0,0,1-2.354-1.47,1.388,1.388,0,0,1,.337-.547,1.374,1.374,0,0,1,.547-.337,1.424,1.424,0,0,1,1.47,2.354Z"/><path class="cls-7" d="M175.438,46.14a1.862,1.862,0,0,0-2.117-.366l-1.816-1.817h-6.448a1.411,1.411,0,1,0,0,1.251h5.929l1.451,1.45a1.863,1.863,0,1,0,3-.518Zm-.31,2.326A1.423,1.423,0,0,1,172.775,47a1.394,1.394,0,0,1,.884-.885,1.424,1.424,0,0,1,1.469,2.355Z"/><path class="cls-7" d="M46.109,153.643a1.862,1.862,0,0,0-2.116-.365l-1.817-1.817H35.727a1.411,1.411,0,1,0,0,1.25h5.929l1.451,1.451a1.864,1.864,0,1,0,3-.519Zm-.309,2.326a1.424,1.424,0,0,1-2.355-1.469,1.4,1.4,0,0,1,.885-.885,1.424,1.424,0,0,1,1.47,2.354Z"/><path class="cls-7" d="M41.728,157.709a1.865,1.865,0,0,0-2.117-.366l-1.817-1.817H31.347a1.412,1.412,0,1,0,0,1.251h5.928l1.451,1.451a1.864,1.864,0,1,0,3-.519Zm-.31,2.326a1.424,1.424,0,0,1-2.354-1.47,1.372,1.372,0,0,1,.338-.547,1.388,1.388,0,0,1,.547-.338,1.424,1.424,0,0,1,1.469,2.355Z"/><polygon class="cls-7" points="144.399 34.099 142.386 30.612 140.372 34.099 141.446 34.099 141.446 37.381 143.325 37.381 143.325 34.099 144.399 34.099"/><polygon class="cls-7" points="147.859 38.124 145.846 34.638 143.833 38.124 144.906 38.124 144.906 41.407 146.786 41.407 146.786 38.124 147.859 38.124"/><polygon class="cls-7" points="92.893 71.128 95.442 75.544 97.991 71.128 96.632 71.128 96.632 66.972 94.252 66.972 94.252 71.128 92.893 71.128"/><polygon class="cls-7" points="88.511 66.031 91.061 70.446 93.609 66.031 92.25 66.031 92.25 61.874 89.871 61.874 89.871 66.031 88.511 66.031"/><polygon class="cls-7" points="199.68 142.013 202.229 146.429 204.778 142.013 203.419 142.013 203.419 137.857 201.039 137.857 201.039 142.013 199.68 142.013"/><polygon class="cls-7" points="195.298 136.916 197.847 141.332 200.396 136.916 199.037 136.916 199.037 132.76 196.657 132.76 196.657 136.916 195.298 136.916"/><polygon class="cls-7" points="60.622 116.892 64.415 114.702 60.622 112.513 60.622 113.68 57.051 113.68 57.051 115.724 60.622 115.724 60.622 116.892"/><polygon class="cls-7" points="56.243 120.656 60.036 118.466 56.243 116.276 56.243 117.445 52.672 117.445 52.672 119.488 56.243 119.488 56.243 120.656"/><path class="cls-7" d="M225.242,105.782a2.2,2.2,0,0,0-4.321-.1l-.841.1a2.711,2.711,0,0,1-2.241-.776l-.6-.6a2.2,2.2,0,1,0-1.016,1.015l.414.414a2.711,2.711,0,0,1,.736,2.479l-.135.64a2.2,2.2,0,1,0,1.405.3,2.71,2.71,0,0,1,2.33-2.132l.118-.015a2.2,2.2,0,0,0,4.15-1.327Z"/><path class="cls-7" d="M151.192,197.683a2.2,2.2,0,0,0-4.321-.1l-.841.1a2.716,2.716,0,0,1-2.242-.775l-.6-.6a2.2,2.2,0,1,0-1.016,1.015l.414.414a2.714,2.714,0,0,1,.736,2.479l-.136.64a2.2,2.2,0,1,0,1.406.3,2.711,2.711,0,0,1,2.33-2.132l.117-.014a2.2,2.2,0,0,0,4.151-1.328Z"/><path class="cls-7" d="M113.075,47.805a2.2,2.2,0,0,0-4.322-.1l-.841.1a2.713,2.713,0,0,1-2.241-.776l-.6-.6a2.2,2.2,0,1,0-1.016,1.015l.415.414a2.712,2.712,0,0,1,.735,2.479l-.135.64a2.2,2.2,0,1,0,1.405.3,2.712,2.712,0,0,1,2.33-2.132l.118-.015a2.2,2.2,0,0,0,4.151-1.327Z"/><polygon class="cls-7" points="181.728 168.199 179.715 164.712 177.701 168.199 178.775 168.199 178.775 171.482 180.654 171.482 180.654 168.199 181.728 168.199"/><polygon class="cls-7" points="185.188 172.225 183.175 168.738 181.162 172.225 182.235 172.225 182.235 175.507 184.115 175.507 184.115 172.225 185.188 172.225"/><path class="cls-8" d="M192.708,203.763a.808.808,0,1,1-.808-.807A.807.807,0,0,1,192.708,203.763Z"/><path class="cls-8" d="M196.111,203.763a.808.808,0,1,1-.808-.807A.808.808,0,0,1,196.111,203.763Z"/><path class="cls-8" d="M199.514,203.763a.808.808,0,1,1-.808-.807A.808.808,0,0,1,199.514,203.763Z"/><path class="cls-8" d="M202.917,203.763a.808.808,0,1,1-.808-.807A.808.808,0,0,1,202.917,203.763Z"/><path class="cls-8" d="M206.32,203.763a.808.808,0,1,1-.809-.807A.808.808,0,0,1,206.32,203.763Z"/><path class="cls-8" d="M209.722,203.763a.808.808,0,1,1-.807-.807A.807.807,0,0,1,209.722,203.763Z"/><path class="cls-8" d="M213.125,203.763a.808.808,0,1,1-.808-.807A.808.808,0,0,1,213.125,203.763Z"/><path class="cls-8" d="M216.528,203.763a.808.808,0,1,1-.807-.807A.807.807,0,0,1,216.528,203.763Z"/></g><path class="cls-9" d="M76.448,212.786l17.409-41.57-2.786-1.106L75.228,212.3a.674.674,0,1,0,1.22.484Z"/><path class="cls-10" d="M90.587,171.4l1.773.7L76,213.28a.957.957,0,0,0,.452-.494l17.409-41.57-2.786-1.106Z"/><path class="cls-9" d="M104,212.522l.843-45.061h-3l.842,45.061a.674.674,0,1,0,1.312,0Z"/><path class="cls-10" d="M101.863,168.647H104.1l-.835,44.692a.5.5,0,0,0,.078.01.77.77,0,0,0,.656-.827l.843-45.061h-3Z"/><path class="cls-9" d="M130.231,212.786l-17.409-41.57,2.786-1.106L131.45,212.3a.674.674,0,1,1-1.219.484Z"/><g class="cls-11"><path d="M131.45,212.3,115.608,170.11l-2.786,1.106.32.764,1.724-.684,15.752,41.95a.591.591,0,0,0,.528.067A.771.771,0,0,0,131.45,212.3Z"/></g><path class="cls-12" d="M123.218,171.141c-3.04,2.473-7.545,4.75-18.987,4.976-15.052.3-22.931-1.412-27.208-9.175-7.142-12.963,1.8-54.844,15.893-45.567,11.785,7.756,14.145,32.514,15.7,35.937S130.6,165.138,123.218,171.141Z"/><path class="cls-13" d="M106.84,172.91c-15.052.3-22.931-1.412-27.208-9.174-4.875-8.848-2.258-31.168,4.377-41.5-8.492,7.871-12.457,34.773-6.986,44.7,4.277,7.763,12.156,9.471,27.208,9.175,11.442-.226,15.947-2.5,18.987-4.976a3.711,3.711,0,0,0,1.592-2.434C121.76,170.864,117.077,172.708,106.84,172.91Z"/><path class="cls-14" d="M125.792,202.013c.195,1.1-1.881,4,.905,6.441s9.114,5.009,4.92,5.106a24.412,24.412,0,0,1-10.354-1.929c-2.132-1.055-.43-2.712-3.076-3.546-3.486-1.1-3.447-1.325-1.761-5.12C118.747,197.743,125.165,198.465,125.792,202.013Z"/><path class="cls-15" d="M129.831,205.725c.487.947,2.817,3.136,6.047,4.58s10.071,2.119,6.27,3.389-8.234.5-10.48.14a45.331,45.331,0,0,0-7.069-.426c-3.493-.023-3.519-.239-3.049-4.177C122.2,203.81,128.259,202.663,129.831,205.725Z"/><path class="cls-16" d="M121.617,203.534l1.354,3.319s3.343.814,4.942-.036.958-1.577.958-1.577l-1.4-4.917Z"/><path class="cls-17" d="M106.437,159.078s14.338,3.122,19.542,4.394,9.25,3.469,6.822,12.142-6.475,24.514-6.475,24.514h-9.251l4.857-28.5-27.059-3.188-4.984-11.062Z"/><path class="cls-18" d="M85.315,159.078c.616,4.471-.694,9.613,6.244,11.629s17.77,2.17,17.77,2.17l10.859,32.54a16.7,16.7,0,0,0,6.731-.687,3.742,3.742,0,0,0,2.066-2.405l-9.825-33.267a7.7,7.7,0,0,0-5.482-5.281l-16.66-5.063Z"/><path class="cls-19" d="M87.808,144.087a9.476,9.476,0,0,1,.425,5.463c-.805,3.622.111,3.864.111,3.864a46.542,46.542,0,0,0,8.99,4.389c2.925.91,5.418.756,5.349-2.474l0-.044c-.005-.2-.009-.384-.014-.567-.138-7.259,1.376-7.628,1.749-15.757.385-8.339-1.845-12.99-4.052-15.007s-5.229-2.088-10.906-.746c-4.265,1-5.67,2.137-5.635,5.293a24.673,24.673,0,0,0,.459,3.885A70.04,70.04,0,0,0,87.808,144.087Z"/><path class="cls-20" d="M87.808,144.087a9.476,9.476,0,0,1,.425,5.463c-.805,3.622.111,3.864.111,3.864a46.542,46.542,0,0,0,8.99,4.389l3.813-.362,1.527-1.2.006-.956c-.005-.2-.009-.384-.014-.567a28.249,28.249,0,0,1-5.759-.15,23.922,23.922,0,0,1-5.648-1.415,2.2,2.2,0,0,1-1.389-2.446,31.642,31.642,0,0,0,.529-5.064,27,27,0,0,0-1.357-6.248,12.592,12.592,0,0,1-.508-4.619,41.16,41.16,0,0,0-.005-5.265l-3.023-1.638-1.684.628a24.673,24.673,0,0,0,.459,3.885A70.04,70.04,0,0,0,87.808,144.087Z"/><path class="cls-21" d="M101.523,109.038a2.314,2.314,0,0,1-.194,1.9l-2.341-3.169,1.632-.015Z"/><path class="cls-16" d="M88.811,113.228a8.74,8.74,0,0,0,3.628,6.455L92.2,123.4l2.378,1.541L96.213,126l.937-1.957.128-2.4a1.239,1.239,0,0,1,.982-1.14,4.5,4.5,0,0,0,2.319-1.4,1.608,1.608,0,0,0,.148-.184l0,0c1.546-2.105,2.13-10.168-3.16-12.458C92.11,104.089,88.7,109.136,88.811,113.228Z"/><path class="cls-22" d="M94.742,122.713l-.16,2.23L96.213,126l.937-1.957.128-2.4a1.239,1.239,0,0,1,.982-1.14,4.5,4.5,0,0,0,2.319-1.4,1.608,1.608,0,0,0,.148-.184,8.769,8.769,0,0,1-3.328,1.03A3,3,0,0,0,94.742,122.713Z"/><path class="cls-21" d="M94.516,114.487c-.207.085-.4-.235-.4-.235a21.8,21.8,0,0,0-1.542-2.97c-.7-.715-2.369-.649-2.5,1.56-.1,1.711,1.918,5.359,2.539,6.431a.408.408,0,0,1-.1.517.5.5,0,0,1-.225.084h-.028a.393.393,0,0,1-.264-.094c-1.307-1.147-7.06-6.665-2.491-11.854,0,0,3.629.235,4.183,1.983a36.52,36.52,0,0,1,.95,4.127S94.732,114.393,94.516,114.487Z"/><path class="cls-21" d="M101.523,109.038s-3.176-2.476-8,.54l-3.949-1.008s-.166-.054-.079-.645.524-6.4,7.442-5.093C100.915,103.583,103.352,106.339,101.523,109.038Z"/><path class="cls-21" d="M92.232,121.669a3.81,3.81,0,0,0-1.146,1.179,14.932,14.932,0,0,1,1.468.769c.625.381,3.626,2.5,3.626,2.5l.883-1.813A24.189,24.189,0,0,0,92.232,121.669Z"/><path class="cls-21" d="M97.063,124.305a2.515,2.515,0,0,1,1.373,1.144,3.71,3.71,0,0,0-.149-2.861,4.743,4.743,0,0,0-1.019-.739Z"/><path class="cls-23" d="M88.716,156.932a6.248,6.248,0,0,0,.723.792c.166.091.194-.1.131-.239S88.741,156.747,88.716,156.932Z"/><path class="cls-21" d="M92.279,119.874h-.028a.393.393,0,0,1-.264-.094c-1.307-1.147-7.06-6.665-2.491-11.854a5.341,5.341,0,0,0-.132,1.654S86.45,114.29,92.279,119.874Z"/><path class="cls-16" d="M79.5,138.795s-3.054,14.059-1.617,15.132,17.746,1.235,19.262,1.479,7.736,1.253,10.913-1.547c.411-.362-1.933-.2-2.485-1.428s.291-1.082,0-1.6c-1.125-1.976-7.557.428-7.557.428s-10.528-1.82-13.58-.95c1.832-2.218,2.251-10.488,2.251-10.488Z"/><path class="cls-21" d="M78.66,139.516s2.047-12.892,5.94-14.628,6.645,3.831,5.214,9.55-1.8,7.816-1.8,7.816S82.171,142.838,78.66,139.516Z"/><polygon class="cls-24" points="76.703 219.588 73.928 219.588 76.125 155.958 81.675 155.958 76.703 219.588"/><polygon class="cls-25" points="75.852 163.853 81.058 163.853 81.675 155.958 76.125 155.958 75.852 163.853"/><polygon class="cls-24" points="200.488 219.588 203.263 219.588 201.066 155.958 195.516 155.958 200.488 219.588"/><polygon class="cls-25" points="201.339 163.853 196.133 163.853 195.516 155.958 201.066 155.958 201.339 163.853"/><rect class="cls-26" x="68.329" y="153.53" width="140.534" height="5.235" rx="2.407"/><path class="cls-27" d="M68.43,157.027a2.379,2.379,0,0,0,2.286,1.738H206.475a2.379,2.379,0,0,0,2.286-1.738Z"/><path class="cls-28" d="M88.239,152.431H128.35a0,0,0,0,1,0,0v.088a1.01,1.01,0,0,1-1.01,1.01h-39.1a0,0,0,0,1,0,0v-1.1A0,0,0,0,1,88.239,152.431Z" transform="translate(216.59 305.961) rotate(180)"/><path class="cls-29" d="M101.883,153.53H129l2.61-16.6a1.277,1.277,0,0,0-1.283-1.539H106.261a1.861,1.861,0,0,0-1.767,1.539Z"/><path class="cls-30" d="M106.261,135.4H107a1.862,1.862,0,0,0-1.768,1.539l-2.61,16.6h-.738l2.611-16.6A1.861,1.861,0,0,1,106.261,135.4Z"/><path class="cls-30" d="M113.914,144.462a2.471,2.471,0,0,0,2.484,2.978,3.6,3.6,0,0,0,3.42-2.978,2.47,2.47,0,0,0-2.484-2.977A3.6,3.6,0,0,0,113.914,144.462Z"/><path class="cls-31" d="M158.585,89.936a2.7,2.7,0,1,1-2.7-2.705A2.7,2.7,0,0,1,158.585,89.936Z"/><line class="cls-32" x1="86.423" y1="89.936" x2="87.222" y2="89.936"/><line class="cls-33" x1="88.232" y1="89.936" x2="179.525" y2="89.936"/><line class="cls-32" x1="180.029" y1="89.936" x2="180.829" y2="89.936"/><line class="cls-34" x1="155.881" y1="90.833" x2="155.881" y2="127.601"/><rect class="cls-35" x="172.283" y="79.776" width="33.701" height="20.596" rx="1.257"/><rect class="cls-36" x="172.138" y="93.405" width="7.876" height="1.825" rx="0.829" transform="translate(81.758 270.394) rotate(-90)"/><rect class="cls-36" x="175.91" y="93.405" width="7.876" height="1.825" rx="0.829" transform="translate(85.53 274.166) rotate(-90)"/><rect class="cls-36" x="178.128" y="91.85" width="10.986" height="1.825" rx="0.829" transform="translate(90.858 276.384) rotate(-90)"/><rect class="cls-36" x="181.182" y="91.132" width="12.422" height="1.825" rx="0.829" transform="translate(95.348 279.438) rotate(-90)"/><rect class="cls-36" x="186.083" y="92.261" width="10.166" height="1.825" rx="0.829" transform="translate(97.992 284.339) rotate(-90)"/><rect class="cls-36" x="191.604" y="94.01" width="6.668" height="1.825" rx="0.829" transform="translate(100.016 289.86) rotate(-90)"/><rect class="cls-36" x="194.042" y="92.261" width="10.166" height="1.825" rx="0.829" transform="translate(105.952 292.298) rotate(-90)"/><rect class="cls-36" x="199.564" y="94.01" width="6.668" height="1.825" rx="0.829" transform="translate(107.975 297.82) rotate(-90)"/><rect class="cls-37" x="175.163" y="82.124" width="7.207" height="0.883" rx="0.373"/><rect class="cls-37" x="175.163" y="85.226" width="4.839" height="0.883" rx="0.373"/><path class="cls-35" d="M137.246,110.936h36.067a4.371,4.371,0,0,1,4.371,4.371v29.121a.942.942,0,0,1-.942.942h-41.5a.942.942,0,0,1-.942-.942V113.885A2.949,2.949,0,0,1,137.246,110.936Z"/><rect class="cls-38" x="137.447" y="135.501" width="14.464" height="7.184" rx="2.075"/><g class="cls-39"><path class="cls-37" d="M158.8,116.57H138.09a.643.643,0,0,1-.643-.643h0a.643.643,0,0,1,.643-.643H158.8a.643.643,0,0,1,.643.643h0A.643.643,0,0,1,158.8,116.57Z"/><path class="cls-37" d="M158.8,119.228H138.09a.643.643,0,0,1-.643-.643h0a.643.643,0,0,1,.643-.643H158.8a.643.643,0,0,1,.643.643h0A.643.643,0,0,1,158.8,119.228Z"/><path class="cls-37" d="M158.8,121.886H138.09a.643.643,0,0,1-.643-.643h0a.643.643,0,0,1,.643-.643H158.8a.643.643,0,0,1,.643.643h0A.643.643,0,0,1,158.8,121.886Z"/><path class="cls-37" d="M158.8,124.544H138.09a.643.643,0,0,1-.643-.643h0a.643.643,0,0,1,.643-.643H158.8a.643.643,0,0,1,.643.643h0A.643.643,0,0,1,158.8,124.544Z"/><path class="cls-37" d="M158.8,127.2H138.09a.643.643,0,0,1-.643-.643h0a.643.643,0,0,1,.643-.643H158.8a.643.643,0,0,1,.643.643h0A.643.643,0,0,1,158.8,127.2Z"/><path class="cls-37" d="M155.559,129.439H138.09a.643.643,0,0,1-.643-.643h0a.643.643,0,0,1,.643-.643h17.469a.643.643,0,0,1,.643.643h0A.643.643,0,0,1,155.559,129.439Z"/></g><polygon class="cls-7" points="163.472 141.1 163.729 141.622 164.305 141.706 163.889 142.112 163.987 142.686 163.472 142.415 162.957 142.686 163.055 142.112 162.639 141.706 163.214 141.622 163.472 141.1"/><polygon class="cls-7" points="166.026 141.1 166.284 141.622 166.86 141.706 166.443 142.112 166.541 142.686 166.026 142.415 165.511 142.686 165.609 142.112 165.193 141.706 165.769 141.622 166.026 141.1"/><polygon class="cls-7" points="168.58 141.1 168.838 141.622 169.414 141.706 168.997 142.112 169.095 142.686 168.58 142.415 168.065 142.686 168.164 142.112 167.747 141.706 168.323 141.622 168.58 141.1"/><polygon class="cls-7" points="171.135 141.1 171.392 141.622 171.968 141.706 171.551 142.112 171.65 142.686 171.135 142.415 170.62 142.686 170.718 142.112 170.301 141.706 170.877 141.622 171.135 141.1"/><polygon class="cls-7" points="173.689 141.1 173.946 141.622 174.522 141.706 174.106 142.112 174.204 142.686 173.689 142.415 173.174 142.686 173.272 142.112 172.856 141.706 173.431 141.622 173.689 141.1"/><path class="cls-40" d="M175.181,109.833H136.8a2.5,2.5,0,0,0-2.5,2.5v1.192h43.387v-1.192A2.5,2.5,0,0,0,175.181,109.833Z"/><circle class="cls-35" cx="170.845" cy="111.681" r="0.401"/><circle class="cls-35" cx="172.837" cy="111.681" r="0.401"/><circle class="cls-35" cx="174.829" cy="111.681" r="0.401"/><rect class="cls-37" x="161.594" y="115.284" width="14.429" height="14.577" rx="0.844"/><path class="cls-35" d="M168.638,127.623a5.051,5.051,0,1,1,5.051-5.051A5.056,5.056,0,0,1,168.638,127.623Zm0-9.588a4.537,4.537,0,1,0,4.537,4.537A4.542,4.542,0,0,0,168.638,118.035Z"/><path class="cls-35" d="M168.638,127.623c-1.267,0-2.26-2.219-2.26-5.051s.993-5.051,2.26-5.051,2.26,2.219,2.26,5.051S169.905,127.623,168.638,127.623Zm0-9.588c-.826,0-1.747,1.863-1.747,4.537s.921,4.537,1.747,4.537,1.746-1.863,1.746-4.537S169.464,118.035,168.638,118.035Z"/><rect class="cls-35" x="163.844" y="122.315" width="9.588" height="0.514"/><path class="cls-35" d="M168.638,120.694c-2.781,0-3.759-.976-3.8-1.017l.369-.358-.184.179.182-.181c.009.009.9.864,3.433.864s3.425-.855,3.434-.864l.367.36C172.4,119.718,171.419,120.694,168.638,120.694Z"/><path class="cls-35" d="M165.205,125.827l-.367-.36c.041-.041,1.019-1.017,3.8-1.017s3.76.976,3.8,1.017l-.37.358c-.006-.007-.9-.862-3.431-.862S165.214,125.818,165.205,125.827Z"/><circle class="cls-35" cx="120.734" cy="90.137" r="17.162" transform="translate(-25.096 52.257) rotate(-22.183)"/><circle class="cls-41" cx="120.734" cy="90.137" r="14.593" transform="translate(12.322 194.77) rotate(-80.728)"/><path class="cls-7" d="M124.748,89.6a2.973,2.973,0,0,0,1.818-2.959c0-1.983-1.352-3.292-3.512-3.433V81.435h-2.168v1.759h-.995V81.435h-2.168v1.759h-1.615v2.784h1.545v8.077h-1.545v2.783h1.615v2h2.168v-2h.995v2h2.168v-2a3.63,3.63,0,0,0,3.858-3.791C126.912,91.291,126.085,89.949,124.748,89.6Zm-4.36-3.62h2.12a1.417,1.417,0,0,1,.546.1,1.177,1.177,0,0,1,.686,1.184,1.263,1.263,0,0,1-.686,1.254,1.346,1.346,0,0,1-.546.108h-2.12Zm2.666,8.029a2.12,2.12,0,0,1-.546.068l-2.12-.02V91.194h2.12a2.121,2.121,0,0,1,.546.067,1.3,1.3,0,0,1,1.017,1.334A1.345,1.345,0,0,1,123.054,94.007Z"/><circle class="cls-35" cx="75.332" cy="87.8" r="13.568" transform="translate(-23.375 148.138) rotate(-80.808)"/><polygon class="cls-35" points="77.801 98.909 83.309 104.873 82.559 96.238 77.801 98.909"/><path class="cls-37" d="M83.209,89.226a7.655,7.655,0,0,0,0-2.852H81.25a6.05,6.05,0,0,0-.728-1.748l1.39-1.39A8.051,8.051,0,0,0,79.9,81.22l-1.39,1.39a6.038,6.038,0,0,0-1.748-.728v-1.96a7.649,7.649,0,0,0-2.851,0v1.96a6.038,6.038,0,0,0-1.748.728l-1.39-1.39a8.051,8.051,0,0,0-2.017,2.016l1.39,1.39a6.078,6.078,0,0,0-.728,1.748H67.454a7.655,7.655,0,0,0,0,2.852h1.959a6.044,6.044,0,0,0,.728,1.747l-1.39,1.39a8.055,8.055,0,0,0,2.017,2.017l1.39-1.39a6.038,6.038,0,0,0,1.748.728v1.959a7.649,7.649,0,0,0,2.851,0V93.718a6.038,6.038,0,0,0,1.748-.728l1.39,1.39a8.067,8.067,0,0,0,2.017-2.016l-1.39-1.391a6.044,6.044,0,0,0,.728-1.747Zm-7.877.45A1.877,1.877,0,1,1,77.208,87.8,1.876,1.876,0,0,1,75.332,89.676Z"/></g></g></svg>