<svg xmlns="http://www.w3.org/2000/svg" xmlns:xlink="http://www.w3.org/1999/xlink" viewBox="0 0 292 292"><defs><style>.cls-1{fill:none;}.cls-2{fill:#f0efff;}.cls-17,.cls-3{fill:#bbb8f6;}.cls-14,.cls-3,.cls-9{opacity:0.5;}.cls-14,.cls-18,.cls-20,.cls-3{isolation:isolate;}.cls-4{fill:#9796f7;}.cls-5{fill:#d9dff6;}.cls-6{fill:#b4b9f6;}.cls-7{fill:#f7f7f7;}.cls-8{opacity:0.47;}.cls-10{fill:#fff;}.cls-11{fill:#fffaff;}.cls-12{clip-path:url(#clip-path);}.cls-13{fill:#d1d3ff;}.cls-14{fill:#9997e9;}.cls-15{fill:#8184eb;}.cls-16{fill:#d9dff7;}.cls-18{fill:#6782ea;opacity:0.41;}.cls-19{fill:#9391ea;}.cls-20{fill:#6642cc;opacity:0.3;}.cls-21{fill:#130159;}.cls-22{fill:#5601f3;}.cls-23{fill:#f4c5a2;}.cls-24{fill:#00cdc4;}.cls-25{fill:#681ef7;}.cls-26{fill:#fed4bd;}.cls-27{fill:#3d00bd;}.cls-28{fill:#01e4d0;}.cls-29{fill:#8285df;}.cls-30{fill:#b3b8f6;}.cls-31{fill:#f6bf03;}.cls-32{fill:#f6dd03;}.cls-33{fill:#7676e5;}.cls-34{fill:#f70083;}.cls-35{fill:#827fde;}.cls-36{fill:#dfe3ff;}.cls-37{fill:#f1539a;}.cls-38{fill:#603eff;}</style><clipPath id="clip-path"><path class="cls-1" d="M207.739,125.828l12.1,7a.645.645,0,0,0,.975-.562V121.578a.643.643,0,0,0-.329-.561l-12.1-7a.645.645,0,0,0-.975.562v10.688A.645.645,0,0,0,207.739,125.828Z"/></clipPath></defs><title>solution</title><g id="Windows"><g id="OBJECTS"><path class="cls-2" d="M14.77,136.367C6.892,141.114.808,150.038,2.165,159.08,4.05,171.744,18.839,179.4,20.893,192.015c1.982,12.206-8.661,22.894-10.333,35.145-1.854,13.451,7.943,26.477,20.3,32.128s26.594,5.263,40.04,3.313,26.742-5.373,40.317-5.489c14.853-.123,29.358,3.694,43.785,7.1s29.235,6.516,43.972,4.9,29.59-8.685,37.133-21.453c9.042-15.312,6.284-35.938,16.907-50.2,5.929-7.969,15.189-12.716,22.28-19.678a47.511,47.511,0,0,0-13.49-77.069C248.484,94.6,232.094,94.468,221.3,84.6c-6.845-6.232-10.21-15.318-15.4-22.984A55.268,55.268,0,0,0,121.94,52.7c-8.563,8.2-15.867,19.89-27.672,21-8.5.8-16.358-4.43-24.786-5.845-13.807-2.331-28.589,7.3-32.044,20.866-1.544,6.058-.032,12.27,1.834,18.212C46.227,129.166,21.493,132.305,14.77,136.367Z"/><path class="cls-3" d="M136.436,157.084a4.025,4.025,0,0,1,3.643,0l68.454,39.84a1.116,1.116,0,0,1,0,2.111L178.065,216.7a4.019,4.019,0,0,1-3.649,0l-68.487-39.833a1.119,1.119,0,0,1,0-2.112Z"/><path class="cls-4" d="M208.811,195.516l-2.041-1.292v.446l-67.505-39.239a3.873,3.873,0,0,0-3.558,0l-28.8,16.687v-.245l-2.041,1.162v.885h0a1.25,1.25,0,0,0,.73,1.008l68.79,40a3.924,3.924,0,0,0,3.559,0l30.1-17.436a1.156,1.156,0,0,0,.711-1.227A7.425,7.425,0,0,0,208.811,195.516Z"/><path class="cls-5" d="M135.707,154.546a3.928,3.928,0,0,1,3.558,0l68.816,40a1.091,1.091,0,0,1,0,2.06l-30.1,17.436a3.875,3.875,0,0,1-3.559,0l-68.829-39.988a1.09,1.09,0,0,1,0-2.06Z"/><path class="cls-6" d="M135.636,157.239a1,1,0,0,1,.917,0l3.151,1.834c.258.142.252.381,0,.53L137.27,161a1,1,0,0,1-.918,0l-3.151-1.827a.283.283,0,0,1,0-.536Zm2,3.972c-.258.148-.265.387,0,.536l3.152,1.828a1,1,0,0,0,.917,0l2.434-1.4a.277.277,0,0,0,0-.529l-3.151-1.834a1,1,0,0,0-.917,0Zm4.521,2.622a.284.284,0,0,0-.174.362.288.288,0,0,0,.174.174L145.3,166.2a1.017,1.017,0,0,0,.924,0l2.434-1.4a.284.284,0,0,0,0-.536l-3.158-1.827a1,1,0,0,0-.917,0Zm4.559,2.654a.278.278,0,0,0,0,.53l3.158,1.834a1,1,0,0,0,.917,0l2.428-1.4a.277.277,0,0,0,0-.529l-3.164-1.841a1.021,1.021,0,0,0-.917,0Zm4.521,2.583a.285.285,0,0,0-.174.363.282.282,0,0,0,.174.173l3.132,1.867a1.015,1.015,0,0,0,.923,0l2.428-1.408c.259-.142.259-.381,0-.53l-3.151-1.834a1.04,1.04,0,0,0-.917,0Zm4.52,2.629a.283.283,0,0,0,0,.536l3.132,1.885a1,1,0,0,0,.917,0l2.429-1.4a.285.285,0,0,0,0-.536l-3.152-1.828a1,1,0,0,0-.917,0Zm4.521,2.622a.284.284,0,0,0-.174.362.288.288,0,0,0,.174.174l3.132,1.847a1,1,0,0,0,.917,0l2.428-1.4c.252-.148.258-.387,0-.529l-3.151-1.834a1.011,1.011,0,0,0-.924,0Zm4.52,2.622a.285.285,0,0,0,0,.536l3.158,1.834a1.055,1.055,0,0,0,.924,0l2.428-1.408a.278.278,0,0,0,0-.53l-3.151-1.834a1.042,1.042,0,0,0-.918,0Zm4.521,2.628a.278.278,0,0,0,0,.53l3.158,1.834a1.021,1.021,0,0,0,.917,0l2.428-1.408a.278.278,0,0,0,0-.53l-3.151-1.834a1.021,1.021,0,0,0-.917,0Zm4.521,2.628a.285.285,0,0,0-.174.363.282.282,0,0,0,.174.173l3.157,1.828a1,1,0,0,0,.918,0l2.434-1.4a.284.284,0,0,0,0-.536l-3.151-1.828a1.036,1.036,0,0,0-.924,0Zm4.52,2.622c-.258.149-.258.388,0,.53l3.152,1.834a1.015,1.015,0,0,0,.923,0l2.428-1.4c.252-.149.259-.388,0-.536l-3.151-1.828a1,1,0,0,0-.917,0Zm4.521,2.622c-.252.149-.259.388,0,.536l3.158,1.834a1,1,0,0,0,.917,0l2.428-1.4a.278.278,0,0,0,0-.53l-3.152-1.834a1.021,1.021,0,0,0-.917,0Zm4.52,2.622a.285.285,0,0,0-.173.363.28.28,0,0,0,.173.173l3.152,1.834a1.053,1.053,0,0,0,.923,0l2.428-1.408c.259-.142.259-.381,0-.529l-3.151-1.834a1.04,1.04,0,0,0-.917,0Zm4.521,2.629c-.252.148-.258.387,0,.529l3.158,1.834a1,1,0,0,0,.917,0l2.428-1.4a.284.284,0,0,0,0-.536l-3.151-1.828a1,1,0,0,0-.917,0Zm4.52,2.621a.285.285,0,0,0,0,.537l3.158,1.827a1,1,0,0,0,.917,0l2.429-1.4a.285.285,0,0,0,.173-.363.28.28,0,0,0-.173-.173l-3.152-1.828a1.034,1.034,0,0,0-.923,0Zm-66.956-34.524c-.258.149-.258.388,0,.53l10.636,6.18a1,1,0,0,0,.918,0l2.428-1.4c.258-.149.258-.381,0-.53l-10.637-6.18a1,1,0,0,0-.917,0Zm12.018,6.988c-.258.148-.251.381,0,.529l3.152,1.834a1,1,0,0,0,.917,0l2.428-1.4a.284.284,0,0,0,0-.536l-3.145-1.834a1.034,1.034,0,0,0-.923,0Zm4.521,2.622c-.258.148-.258.381,0,.529l3.177,1.834a1,1,0,0,0,.917,0l2.429-1.4a.285.285,0,0,0,.173-.363.28.28,0,0,0-.173-.173L149.391,169a1,1,0,0,0-.917,0Zm4.521,2.622a.284.284,0,0,0,0,.536l3.151,1.827a1,1,0,0,0,.917,0l2.428-1.4c.259-.149.259-.381,0-.53l-3.151-1.834a1,1,0,0,0-.917,0Zm4.52,2.622a.285.285,0,0,0,0,.536l3.158,1.827a1.021,1.021,0,0,0,.917,0l2.428-1.408c.259-.148.259-.381,0-.529l-3.151-1.834a1.021,1.021,0,0,0-.917,0Zm4.521,2.628a.277.277,0,0,0,0,.529l3.151,1.835a1,1,0,0,0,.917,0l2.429-1.4a.285.285,0,0,0,0-.536l-3.152-1.827a1,1,0,0,0-.917,0Zm4.52,2.622c-.258.148-.251.381,0,.529l3.152,1.834a1,1,0,0,0,.917,0l2.428-1.4c.258-.148.258-.387,0-.529l-3.151-1.835a1.036,1.036,0,0,0-.924,0Zm4.521,2.628a.278.278,0,0,0,0,.53l3.158,1.834a1,1,0,0,0,.917,0l2.435-1.4a.277.277,0,0,0,0-.529l-3.152-1.834a1,1,0,0,0-.917,0Zm4.521,2.622a.285.285,0,0,0-.174.363.282.282,0,0,0,.174.173l3.158,1.828a1,1,0,0,0,.917,0l2.428-1.4c.258-.148.258-.381,0-.529l-3.152-1.834a1,1,0,0,0-.917,0Zm4.52,2.629c-.258.142-.252.381,0,.529l3.152,1.834a1.021,1.021,0,0,0,.917,0l2.428-1.4a.284.284,0,0,0,.173-.363.28.28,0,0,0-.173-.173l-3.152-1.828a1.015,1.015,0,0,0-.923,0Zm4.521,2.622c-.259.148-.259.381,0,.529l3.158,1.834a1,1,0,0,0,.917,0l2.434-1.4a.285.285,0,0,0,.174-.363.282.282,0,0,0-.174-.173l-3.151-1.828a1,1,0,0,0-.917,0Zm4.52,2.621a.285.285,0,0,0-.173.363.28.28,0,0,0,.173.173l3.152,1.828a1,1,0,0,0,.917,0l2.428-1.4c.258-.149.258-.381,0-.53l-3.151-1.834a1,1,0,0,0-.918,0Zm4.521,2.622a.284.284,0,0,0,0,.536L194.384,199a1.021,1.021,0,0,0,.917,0l2.428-1.408c.258-.148.258-.381,0-.529l-3.151-1.834a1,1,0,0,0-.917,0Zm-65.5-33.678c-.258.149-.258.381,0,.53l3.41,1.982a1.04,1.04,0,0,0,.917,0l2.428-1.408c.258-.148.258-.381,0-.529l-3.41-1.983a1.04,1.04,0,0,0-.917,0Zm4.7,2.725a.283.283,0,0,0,0,.536l3.41,1.983a1.04,1.04,0,0,0,.917,0l2.428-1.408c.258-.148.258-.381,0-.529l-3.4-1.983a1.036,1.036,0,0,0-.924,0Zm-12.141,1.57a.285.285,0,0,0,0,.536l2.383,1.382a1,1,0,0,0,.917,0l6.135-3.539c.252-.149.259-.388,0-.53l-2.389-1.388a1.011,1.011,0,0,0-.924,0Zm7.453.045c-.252.148-.259.381,0,.529l3.4,1.983a1.015,1.015,0,0,0,.923,0l2.429-1.4a.285.285,0,0,0,.173-.363.28.28,0,0,0-.173-.173l-3.41-1.983a1.021,1.021,0,0,0-.917,0Zm14.207,3.875a.277.277,0,0,0,0,.529l3.152,1.834a1.021,1.021,0,0,0,.917,0l2.428-1.4c.258-.149.265-.388,0-.536l-3.152-1.834a1.009,1.009,0,0,0-.923,0Zm-8.285-.5a.284.284,0,0,0,0,.536l6.238,3.623a1,1,0,0,0,.917,0l2.441-1.356c.252-.149.258-.388,0-.53l-2.628-1.53,3.261-1.886a.278.278,0,0,0,0-.53l-3.152-1.834a1.015,1.015,0,0,0-.923,0l-3.72,2.151-.891.51Zm12.8,3.126a.277.277,0,0,0,0,.529l3.152,1.834a1,1,0,0,0,.917,0l2.428-1.4a.284.284,0,0,0,0-.536L147.8,172.4a1.015,1.015,0,0,0-.923,0Zm4.521,2.621a.284.284,0,0,0,0,.536l3.151,1.828a1.021,1.021,0,0,0,.917,0l2.435-1.408a.284.284,0,0,0,.174-.362.288.288,0,0,0-.174-.174l-3.151-1.827a1.011,1.011,0,0,0-.924,0Zm4.52,2.622c-.251.149-.258.388,0,.536l3.152,1.834a1.034,1.034,0,0,0,.917,0L160,180c.258-.149.265-.381,0-.53l-3.151-1.834a1.017,1.017,0,0,0-.924,0Zm4.521,2.629a.277.277,0,0,0,0,.529l3.151,1.834a1,1,0,0,0,.918,0l2.434-1.4a.284.284,0,0,0,0-.536l-3.158-1.834a1.034,1.034,0,0,0-.923,0Zm4.521,2.622c-.252.148-.259.381,0,.529l3.151,1.834a1,1,0,0,0,.917,0l2.428-1.4a.284.284,0,0,0,0-.536l-3.151-1.834a1.036,1.036,0,0,0-.924,0Zm4.52,2.628c-.252.149-.258.388,0,.536l3.152,1.828a1,1,0,0,0,.917,0l2.428-1.4c.258-.148.265-.387,0-.529l-3.152-1.834a1.009,1.009,0,0,0-.923,0Zm4.521,2.622c-.252.149-.259.388,0,.536l3.151,1.828a1.036,1.036,0,0,0,.924,0l2.428-1.408a.284.284,0,0,0,.173-.363.28.28,0,0,0-.173-.173l-3.152-1.828a1.015,1.015,0,0,0-.923,0Zm4.52,2.628a.278.278,0,0,0,0,.53l3.152,1.834a1.021,1.021,0,0,0,.917,0l2.428-1.4c.258-.149.265-.388,0-.536l-3.151-1.834a1.011,1.011,0,0,0-.924,0Zm4.521,2.622a.278.278,0,0,0,0,.53l3.151,1.834a1,1,0,0,0,.917,0l2.429-1.4a.285.285,0,0,0,.173-.363.28.28,0,0,0-.173-.173l-3.152-1.834a1.047,1.047,0,0,0-.923,0Zm4.579,2.661c-.252.149-.259.381,0,.53l6.89,4.01a1.04,1.04,0,0,0,.917,0l2.435-1.408a.283.283,0,0,0,0-.529l-6.923-3.978a1.029,1.029,0,0,0-.924,0Zm-45.9-22.364c-.252.149-.258.388,0,.536l3.152,1.828a1.015,1.015,0,0,0,.923,0l2.435-1.4a.284.284,0,0,0,.174-.362.288.288,0,0,0-.174-.174l-3.158-1.827a1,1,0,0,0-.917,0Zm4.521,2.629c-.258.142-.265.381,0,.529l3.151,1.834a1.021,1.021,0,0,0,.917,0l2.435-1.408a.277.277,0,0,0,0-.529l-3.151-1.834a1.021,1.021,0,0,0-.917,0Zm4.52,2.583a.284.284,0,0,0,0,.536l3.152,1.834a1,1,0,0,0,.917,0l2.435-1.408a.278.278,0,0,0,.181-.349.282.282,0,0,0-.181-.181l-3.152-1.827a1.034,1.034,0,0,0-.923,0Zm4.521,2.628a.284.284,0,0,0,0,.536l3.152,1.828a1.015,1.015,0,0,0,.923,0l2.428-1.4a.283.283,0,0,0,0-.536l-3.151-1.827a1,1,0,0,0-.917,0Zm4.521,2.622c-.259.149-.265.388,0,.536l3.151,1.828a1,1,0,0,0,.917,0l2.435-1.4a.277.277,0,0,0,0-.529l-3.152-1.834a1,1,0,0,0-.917,0Zm4.52,2.628c-.252.149-.258.388,0,.536l3.152,1.835a1.04,1.04,0,0,0,.917,0l2.434-1.408a.278.278,0,0,0,0-.53l-3.151-1.834a1.055,1.055,0,0,0-.924,0Zm4.521,2.629a.277.277,0,0,0,0,.529l3.151,1.834a1.029,1.029,0,0,0,.924,0l2.428-1.407a.278.278,0,0,0,0-.53l-3.152-1.834a1.034,1.034,0,0,0-.923,0Zm4.52,2.622a.283.283,0,0,0,0,.536l3.152,1.827a1,1,0,0,0,.917,0l2.435-1.4c.251-.149.258-.387,0-.536l-3.152-1.828a1.034,1.034,0,0,0-.923,0Zm4.521,2.622a.283.283,0,0,0,0,.536l3.151,1.827a1.011,1.011,0,0,0,.924,0l2.435-1.4a.285.285,0,0,0,0-.536l-3.152-1.828a1.015,1.015,0,0,0-.923,0Zm4.521,2.622c-.259.148-.265.387,0,.536l3.151,1.834a1,1,0,0,0,.917,0l2.435-1.4a.277.277,0,0,0,0-.529l-3.152-1.834a1.021,1.021,0,0,0-.917,0Zm4.52,2.622a.283.283,0,0,0,0,.536l3.914,2.279a1.053,1.053,0,0,0,.923,0l2.428-1.408a.277.277,0,0,0,0-.529l-4-2.222a1.055,1.055,0,0,0-.924,0ZM122.119,169.38c-.258.149-.258.381,0,.53l3.4,1.982a1.011,1.011,0,0,0,.924,0l2.428-1.4c.258-.148.252-.387,0-.536l-3.41-1.976a1,1,0,0,0-.917,0Zm4.9,2.822a.284.284,0,0,0,0,.536l4.159,2.416a1,1,0,0,0,.917,0l2.434-1.4a.284.284,0,0,0,0-.536l-4.236-2.325a1.017,1.017,0,0,0-.924,0Zm5.566,3.229a.285.285,0,0,0-.173.363.28.28,0,0,0,.173.173l3.152,1.828a1,1,0,0,0,.917,0l2.428-1.4c.259-.149.265-.388,0-.53l-3.229-1.744a1,1,0,0,0-.917,0Zm4.521,2.622a.284.284,0,0,0,0,.536l3.152,1.834a1.034,1.034,0,0,0,.917,0l2.428-1.407a.278.278,0,0,0,0-.53l-3.236-1.782a1.009,1.009,0,0,0-.923,0Zm4.521,2.629a.277.277,0,0,0,0,.529l3.151,1.834a1.011,1.011,0,0,0,.924,0l2.428-1.4a.285.285,0,0,0,0-.536l-3.152-1.834a1.021,1.021,0,0,0-.917,0Zm4.52,2.622a.277.277,0,0,0,0,.529l3.048,1.912a1,1,0,0,0,.917,0l2.429-1.4c.258-.148.264-.387,0-.536l-3.152-1.827a1.009,1.009,0,0,0-.923,0Zm4.521,2.622a.284.284,0,0,0-.174.362.288.288,0,0,0,.174.174l3.158,1.834a1.04,1.04,0,0,0,.917,0l2.428-1.408c.258-.149.258-.388,0-.53l-3.158-1.834a1,1,0,0,0-.917,0Zm4.52,2.628a.278.278,0,0,0-.181.348.281.281,0,0,0,.181.182l3.049,1.892a1,1,0,0,0,.917,0l2.428-1.4c.258-.148.265-.387,0-.529l-3.152-1.834a1,1,0,0,0-.917,0Zm4.521,2.628a.278.278,0,0,0,0,.53l3.151,1.834a1.021,1.021,0,0,0,.917,0l2.435-1.4c.252-.149.258-.388,0-.536l-3.158-1.834a1.047,1.047,0,0,0-.923,0Zm4.521,2.622a.284.284,0,0,0,0,.53l3.157,1.834a1,1,0,0,0,.918,0l2.434-1.4a.284.284,0,0,0,0-.536L167.59,192.4a1.029,1.029,0,0,0-.924,0Zm4.52,2.622a.284.284,0,0,0-.173.363.28.28,0,0,0,.173.173l3.048,1.892a1,1,0,0,0,.917,0l2.435-1.4c.252-.148.258-.387,0-.529l-3.158-1.835a1,1,0,0,0-.917,0Zm4.521,2.622a.284.284,0,0,0,0,.536l3.151,1.834a1.04,1.04,0,0,0,.917,0l2.435-1.408a.28.28,0,0,0,0-.529l-3.158-1.834a1.017,1.017,0,0,0-.924,0Zm4.578,2.667a.278.278,0,0,0,0,.53l6.9,4a1,1,0,0,0,.918,0l2.428-1.4a.283.283,0,0,0,0-.536l-6.9-4a1,1,0,0,0-.917,0Zm-67.04-30.145a.285.285,0,0,0,0,.536l2.39,1.388a1.021,1.021,0,0,0,.917,0l6.161-3.552a.285.285,0,0,0,0-.536l-2.39-1.388a1,1,0,0,0-.917,0Zm7.388-.033c-.252.149-.258.381,0,.53l3.6,2.092a1.011,1.011,0,0,0,.924,0l2.428-1.4a.284.284,0,0,0,0-.536l-3.6-2.093a1.036,1.036,0,0,0-.924,0Zm4.979,2.893a.278.278,0,0,0,0,.53l1.776,1.04a1.017,1.017,0,0,0,.924,0l2.428-1.4a.285.285,0,0,0,0-.536l-1.783-1.033a1.015,1.015,0,0,0-.923,0Zm3.294,1.938a.277.277,0,0,0,0,.529l1.866,1.1a1,1,0,0,0,.917,0l2.435-1.4c.252-.149.258-.388,0-.536l-1.867-1.111a1.021,1.021,0,0,0-.917,0Zm3.293,1.937a.278.278,0,0,0-.181.349.282.282,0,0,0,.181.181l5.167,3a1.021,1.021,0,0,0,.917,0l2.434-1.408a.285.285,0,0,0,.174-.363.282.282,0,0,0-.174-.173l-5.166-3a1.034,1.034,0,0,0-.923,0Zm6.516,3.759a.277.277,0,0,0,0,.529l3.165,1.86a1.021,1.021,0,0,0,.917,0l2.435-1.408a.277.277,0,0,0,0-.529l-3.158-1.834a1.021,1.021,0,0,0-.917,0Zm4.521,2.622a.277.277,0,0,0,0,.529l3.152,1.834a1.04,1.04,0,0,0,.917,0l2.434-1.4a.284.284,0,0,0,0-.536l-3.158-1.834a1.053,1.053,0,0,0-.923,0Zm4.521,2.622c-.259.148-.259.387,0,.529l3.151,1.834a1.011,1.011,0,0,0,.924,0l2.428-1.4a.284.284,0,0,0,.173-.363.28.28,0,0,0-.173-.173l-3.158-1.828a1,1,0,0,0-.917,0Zm4.52,2.622a.285.285,0,0,0,0,.536L153,192.293a1,1,0,0,0,.917,0l2.434-1.4c.252-.149.259-.388,0-.53l-3.158-1.834a1,1,0,0,0-.917,0Zm4.521,2.628a.284.284,0,0,0,0,.536l3.151,1.834a1.04,1.04,0,0,0,.917,0l2.435-1.4c.252-.149.258-.394,0-.536l-3.152-1.834a1.021,1.021,0,0,0-.929,0Zm4.52,2.628a.278.278,0,0,0,0,.53l3.152,1.834a1.021,1.021,0,0,0,.917,0l2.428-1.408c.258-.142.265-.381,0-.529l-3.151-1.834a1.029,1.029,0,0,0-.924,0Zm4.521,2.622a.284.284,0,0,0,0,.536l3.151,1.828a1,1,0,0,0,.917,0l2.435-1.4a.284.284,0,0,0,0-.537l-3.151-1.827a1.023,1.023,0,0,0-.93,0Zm4.52,2.622a.278.278,0,0,0-.181.349.282.282,0,0,0,.181.181l3.152,1.834a1,1,0,0,0,.917,0l2.435-1.4a.285.285,0,0,0,0-.536l-3.152-1.827a1.015,1.015,0,0,0-.923,0Zm4.521,2.629a.277.277,0,0,0,0,.529l3.152,1.834a1.04,1.04,0,0,0,.917,0l2.434-1.408a.277.277,0,0,0,0-.529l-3.151-1.834a1.036,1.036,0,0,0-.924,0Zm4.521,2.622a.277.277,0,0,0,0,.529l3.151,1.834a1.04,1.04,0,0,0,.917,0l2.435-1.4a.284.284,0,0,0,.173-.363.28.28,0,0,0-.173-.173l-3.152-1.834a1.023,1.023,0,0,0-.93,0Zm-61-31.128c-.252.149-.258.388,0,.53l3.158,1.834a1,1,0,0,0,.917,0l2.435-1.4a.285.285,0,0,0,0-.536l-3.152-1.827a1,1,0,0,0-.917,0Zm4.521,2.622a.284.284,0,0,0,0,.536l3.158,1.828a1,1,0,0,0,.917,0l2.434-1.4a.277.277,0,0,0,0-.529l-3.151-1.834a1.011,1.011,0,0,0-.924,0Zm4.559,2.648a.283.283,0,0,0,0,.536l3.152,1.834a1.034,1.034,0,0,0,.923,0l2.428-1.4c.252-.149.259-.381,0-.53l-3.151-1.834a1,1,0,0,0-.917,0Zm4.521,2.622a.284.284,0,0,0,0,.536l3.151,1.834a1.036,1.036,0,0,0,.924,0l2.428-1.4a.277.277,0,0,0,0-.529l-3.152-1.834a1.015,1.015,0,0,0-.923,0Zm4.52,2.628c-.252.149-.258.381,0,.53l21.228,12.334a1,1,0,0,0,.917,0l2.428-1.407a.278.278,0,0,0,0-.53l-21.221-12.335a1.04,1.04,0,0,0-.917,0ZM156.7,198.2c-.258.148-.258.387,0,.529l3.152,1.834a1.009,1.009,0,0,0,.923,0l2.428-1.4c.252-.149.259-.387,0-.536l-3.151-1.834a1.04,1.04,0,0,0-.917,0Zm4.521,2.622a.283.283,0,0,0,0,.536l3.151,1.827a1.011,1.011,0,0,0,.924,0l2.428-1.4c.252-.149.258-.388,0-.53l-3.152-1.834a1,1,0,0,0-.917,0Zm4.52,2.622a.285.285,0,0,0,0,.536l3.158,1.834a1.021,1.021,0,0,0,.917,0l2.428-1.4a.277.277,0,0,0,0-.529l-3.151-1.834a1.011,1.011,0,0,0-.924,0Zm4.521,2.628a.278.278,0,0,0,0,.53l3.151,1.834a1.029,1.029,0,0,0,.93,0l2.428-1.4a.284.284,0,0,0,0-.536l-3.151-1.834a1.04,1.04,0,0,0-.917,0Zm4.52,2.616a.282.282,0,0,0,0,.536l2.448,1.42a1,1,0,0,0,.917,0l2.435-1.4a.278.278,0,0,0,.181-.349.282.282,0,0,0-.181-.181l-2.441-1.42a1.029,1.029,0,0,0-.924,0Z"/><path class="cls-3" d="M162.72,153.093a2.537,2.537,0,0,1,2.319,0L209.9,179.164a.71.71,0,0,1,0,1.343l-9.57,5.277a2.586,2.586,0,0,1-2.319,0l-44.876-26.071a.711.711,0,0,1,0-1.344Z"/><path class="cls-4" d="M163.327,152.661a2.506,2.506,0,0,1,2.248,0l43.875,24.353v1.53a.794.794,0,0,1-.465.646l-9.26,5.1a2.481,2.481,0,0,1-2.248,0L154.06,159.054a.788.788,0,0,1-.465-.646c0-.239.033-1.621.033-1.621Z"/><path class="cls-5" d="M163.327,151.22a2.462,2.462,0,0,1,2.248,0l43.417,25.232a.684.684,0,0,1,0,1.291l-9.261,5.109a2.51,2.51,0,0,1-2.247,0L154.067,157.62a.691.691,0,0,1,0-1.291Z"/><path class="cls-4" d="M227.946,112.466l-84.974-49.08a1.511,1.511,0,0,0-1.595-.123h0l-1.7,1.007,1.1.646-.188,65.742a4.8,4.8,0,0,0,2.183,3.785l84.464,48.764-1.027.613,1.4.814,1.717-1h0a1.525,1.525,0,0,0,.646-1.382l.187-66.013A4.824,4.824,0,0,0,227.946,112.466Z"/><polygon class="cls-4" points="194.235 156.574 194.235 172.267 192.711 173.094 174.396 161.437 174.396 144.685 194.235 156.574"/><polygon class="cls-6" points="192.711 156.826 192.711 173.094 172.872 161.689 172.872 144.937 192.711 156.826"/><path class="cls-5" d="M225.905,113.487a4.784,4.784,0,0,1,2.183,3.777l-.187,66.014c0,1.4-.988,1.937-2.2,1.253L140.731,135.45a4.806,4.806,0,0,1-2.183-3.778l.187-66.013c0-1.4.989-1.938,2.2-1.253Z"/><path class="cls-7" d="M141.209,124.956a5.62,5.62,0,0,0,2.583,4.411l47.918,27.659,31.044,17.928c1.407.82,2.583.161,2.583-1.46l.142-52.174a5.6,5.6,0,0,0-2.545-4.417L183.967,94.436,143.928,71.31c-1.408-.814-2.584-.162-2.584,1.466Z"/><g class="cls-8"><path class="cls-5" d="M153.9,82.856l59.5,34.434a1.8,1.8,0,0,1,.9,1.557l.052,42.235a1.815,1.815,0,0,1-2.719,1.563l-59.5-34.55a1.811,1.811,0,0,1-.9-1.563l-.052-42.093a1.809,1.809,0,0,1,2.713-1.583Z"/><g class="cls-9"><polygon class="cls-10" points="210.438 142.179 152.782 108.701 152.782 109.218 210.438 142.696 210.438 142.179"/><polygon class="cls-10" points="210.445 147.61 152.788 114.126 152.788 114.643 210.445 148.127 210.445 147.61"/><polygon class="cls-10" points="210.451 153.035 152.794 119.557 152.794 120.074 210.451 153.558 210.451 153.035"/><polygon class="cls-10" points="210.412 120.532 152.756 87.054 152.756 87.571 210.412 121.055 210.412 120.532"/><polygon class="cls-10" points="210.458 158.466 152.801 124.982 152.801 125.498 210.458 158.983 210.458 158.466"/><polygon class="cls-10" points="210.419 125.899 152.762 92.414 152.762 92.931 210.419 126.415 210.419 125.899"/><polygon class="cls-10" points="210.425 131.323 152.769 97.845 152.769 98.362 210.425 131.84 210.425 131.323"/><polygon class="cls-10" points="210.432 136.755 152.775 103.27 152.775 103.787 210.432 137.271 210.432 136.755"/><polygon class="cls-10" points="152.756 87.287 152.801 124.988 153.272 125.259 153.227 87.558 152.756 87.287"/><polygon class="cls-10" points="158.484 90.625 158.529 128.321 159.001 128.592 158.955 90.897 158.484 90.625"/><polygon class="cls-10" points="164.212 93.958 164.257 131.659 164.729 131.931 164.677 94.229 164.212 93.958"/><polygon class="cls-10" points="169.934 97.296 169.979 134.992 170.451 135.269 170.405 97.568 169.934 97.296"/><polygon class="cls-10" points="175.662 100.635 175.707 138.33 176.179 138.602 176.134 100.9 175.662 100.635"/><polygon class="cls-10" points="181.39 103.968 181.436 141.669 181.907 141.94 181.862 104.239 181.39 103.968"/><polygon class="cls-10" points="187.119 107.306 187.164 145.001 187.635 145.279 187.59 107.578 187.119 107.306"/><polygon class="cls-10" points="192.847 110.645 192.892 148.34 193.363 148.611 193.318 110.91 192.847 110.645"/><polygon class="cls-10" points="198.575 113.977 198.62 151.679 199.092 151.95 199.046 114.249 198.575 113.977"/><polygon class="cls-10" points="204.303 117.316 204.348 155.011 204.82 155.289 204.775 117.587 204.303 117.316"/><polygon class="cls-10" points="210.031 120.306 210.077 158.757 210.548 159.028 210.503 120.577 210.031 120.306"/></g><polygon class="cls-4" points="192.853 138.582 182.378 116.49 171.749 125.518 167.157 118.22 154.073 126.338 153.64 125.886 167.299 117.213 171.942 124.601 182.766 115.385 193.196 136.974 209.476 120.629 210.012 120.939 192.853 138.582"/></g><path class="cls-6" d="M131.851,92.4l13.175,7.621a1.506,1.506,0,0,0,2.26-1.292v-17.6a1.508,1.508,0,0,0-.749-1.292l-13.181-7.62a1.5,1.5,0,0,0-2.26,1.291V91.1A1.517,1.517,0,0,0,131.851,92.4Z"/><path class="cls-11" d="M140.04,85.93V80.312a.645.645,0,0,1,.936-.542l4.179,2.415a.646.646,0,0,1,.31.542v5.619a.646.646,0,0,1-.937.542l-4.178-2.415A.645.645,0,0,1,140.04,85.93Zm-.646-6.238a.322.322,0,0,0,.284-.161.335.335,0,0,0-.116-.452l-6.38-3.714a.326.326,0,1,0-.33.562h0l6.381,3.72a.384.384,0,0,0,.135.045Zm-.187,1.434-6.381-3.714a.336.336,0,0,1-.116-.452.33.33,0,0,1,.446-.116l6.354,3.7a.331.331,0,0,1,.117.446.327.327,0,0,1-.284.162A.317.317,0,0,1,139.207,81.126Zm0,1.459-6.381-3.713a.33.33,0,0,1-.116-.446.322.322,0,0,1,.439-.126l.007,0L139.51,82a.33.33,0,0,1,.117.446.324.324,0,0,1-.284.161.309.309,0,0,1-.136-.045Zm0,1.46-6.381-3.714a.329.329,0,0,1-.116-.445.324.324,0,0,1,.439-.127l.007,0,6.354,3.7a.331.331,0,0,1,.117.446.327.327,0,0,1-.284.162.31.31,0,0,1-.136-.046Zm0,1.459-6.381-3.732a.33.33,0,0,1-.116-.446.336.336,0,0,1,.446-.123l6.354,3.72a.33.33,0,0,1,.117.446.324.324,0,0,1-.284.161.309.309,0,0,1-.136-.045Z"/><path class="cls-11" d="M140.04,94.687V89.069a.645.645,0,0,1,.685-.6.631.631,0,0,1,.251.068l4.179,2.415a.648.648,0,0,1,.31.536v5.625a.647.647,0,0,1-.685.605.654.654,0,0,1-.252-.069l-4.178-2.409A.644.644,0,0,1,140.04,94.687Zm-.646-6.244a.324.324,0,0,0,.284-.162.328.328,0,0,0-.116-.445l-6.38-3.714a.326.326,0,1,0-.33.562l6.381,3.713a.3.3,0,0,0,.135.052Zm-.161,1.42-6.381-3.719a.326.326,0,1,1,.33-.562L139.51,89.3a.331.331,0,0,1,.117.446.327.327,0,0,1-.284.162.4.4,0,0,1-.136-.039Zm0,1.46-6.407-3.739a.326.326,0,1,1,.33-.562l6.354,3.739a.33.33,0,0,1,.117.446.318.318,0,0,1-.284.167.364.364,0,0,1-.136-.045Zm0,1.459-6.381-3.719a.326.326,0,1,1,.33-.562h0l6.328,3.719a.337.337,0,0,1,.117.453.324.324,0,0,1-.284.161.383.383,0,0,1-.136-.045Zm0,1.46-6.381-3.72a.326.326,0,1,1,.33-.562l6.328,3.726a.331.331,0,0,1,.117.446.327.327,0,0,1-.284.162.31.31,0,0,1-.136-.046Z"/><path class="cls-6" d="M131.348,117.407l13.174,7.62a1.5,1.5,0,0,0,2.26-1.292V106.124a1.51,1.51,0,0,0-.749-1.291l-13.174-7.621a1.511,1.511,0,0,0-2.267,1.292v17.6A1.5,1.5,0,0,0,131.348,117.407Z"/><path class="cls-11" d="M139.51,110.936v-5.619a.646.646,0,0,1,.937-.542l4.23,2.415a.645.645,0,0,1,.31.543v5.618a.646.646,0,0,1-.937.542l-4.2-2.415A.648.648,0,0,1,139.51,110.936Zm-.645-6.239a.323.323,0,0,0,.284-.161.33.33,0,0,0-.116-.446l-6.381-3.72a.33.33,0,0,0-.329.569l6.38,3.713A.3.3,0,0,0,138.865,104.7Zm-.162,1.415-6.38-3.714a.326.326,0,1,1,.329-.562l6.381,3.714a.329.329,0,0,1,.116.445.324.324,0,0,1-.284.162A.309.309,0,0,1,138.7,106.112Zm0,1.459-6.38-3.713a.326.326,0,1,1,.329-.562l6.381,3.713a.33.33,0,0,1,.116.446.322.322,0,0,1-.284.148.3.3,0,0,1-.162,0Zm0,1.46-6.38-3.714a.326.326,0,1,1,.329-.562l6.381,3.714a.329.329,0,0,1,.116.445.324.324,0,0,1-.284.162A.309.309,0,0,1,138.7,109.031Zm0,1.466-6.38-3.72a.326.326,0,1,1,.329-.562l6.381,3.713a.33.33,0,0,1,.116.446.323.323,0,0,1-.284.161A.364.364,0,0,1,138.7,110.5Z"/><path class="cls-11" d="M139.51,119.7v-5.638a.646.646,0,0,1,.937-.542l4.23,2.435a.644.644,0,0,1,.31.542v5.618a.647.647,0,0,1-.679.612.665.665,0,0,1-.258-.069l-4.178-2.415A.648.648,0,0,1,139.51,119.7Zm-.645-6.238a.324.324,0,0,0,.284-.162.336.336,0,0,0-.116-.452l-6.381-3.713a.326.326,0,1,0-.329.562l6.38,3.72A.4.4,0,0,0,138.865,113.461Zm-.162,1.414-6.38-3.713a.336.336,0,0,1-.117-.452.331.331,0,0,1,.446-.117l6.381,3.72a.33.33,0,0,1,.116.446.323.323,0,0,1-.284.161A.3.3,0,0,1,138.7,114.875Zm0,1.46-6.38-3.714a.329.329,0,0,1-.117-.445.324.324,0,0,1,.439-.127l.007,0,6.381,3.72a.329.329,0,0,1,.116.445.324.324,0,0,1-.284.162.319.319,0,0,1-.162-.045Zm0,1.459-6.38-3.733a.329.329,0,0,1-.117-.445.324.324,0,0,1,.439-.127l.007,0,6.381,3.72a.329.329,0,0,1,.116.445.322.322,0,0,1-.284.162.31.31,0,0,1-.162-.026Zm0,1.46-6.38-3.714a.329.329,0,0,1-.117-.445.337.337,0,0,1,.446-.123l6.381,3.72a.329.329,0,0,1,.116.445.324.324,0,0,1-.284.162.305.305,0,0,1-.162-.071Z"/><path class="cls-6" d="M152.949,131.42l16.145,9.332a1.848,1.848,0,0,0,2.771-1.6V117.613a1.847,1.847,0,0,0-.924-1.6L154.8,106.686a1.846,1.846,0,0,0-2.77,1.595v21.544A1.834,1.834,0,0,0,152.949,131.42Z"/><path class="cls-11" d="M158.652,116.767c1.776-1.162,4.52-.11,6.116,2.351s1.453,5.386-.323,6.542-4.521.11-6.122-2.344S156.869,117.936,158.652,116.767Zm-1.7,16.972,9.209,5.328s0-6.878-1.4-9.519-4.695-3.714-6.116-2.351C156.889,128.915,156.947,133.739,156.947,133.739Z"/><g class="cls-12"><polygon class="cls-13" points="207.416 125.64 220.816 133.39 220.816 121.204 207.416 113.454 207.416 125.64"/><polygon class="cls-5" points="207.416 125.64 220.816 133.39 213.745 122.547 207.416 125.64"/><path class="cls-5" d="M214.371,123.419l6.458-2.215-13.4-7.75,5.754,9.532A1,1,0,0,0,214.371,123.419Z"/></g><polygon class="cls-14" points="77.682 136.535 89.061 143.154 89.061 143.154 100.446 136.619 88.99 129.954 88.99 129.954 77.682 136.535"/><polygon class="cls-3" points="91.993 145.156 103.365 151.782 114.757 145.247 103.301 138.576 103.301 138.576 91.993 145.156"/><polygon class="cls-3" points="106.614 153.436 117.986 160.055 129.378 153.52 117.921 146.855 117.921 146.855 106.614 153.436"/><polygon class="cls-15" points="79.497 136.632 88.247 141.727 97.004 136.697 97.004 80.751 79.497 80.687 79.497 136.632"/><polygon class="cls-16" points="79.497 80.687 88.247 85.775 97.004 80.751 88.189 75.624 79.497 80.687"/><polygon class="cls-17" points="88.247 141.727 88.247 85.775 97.004 80.751 97.004 136.697 88.247 141.727"/><polygon class="cls-15" points="94.272 145.286 103.023 150.381 111.786 145.357 111.786 97.193 94.272 97.122 94.272 145.286"/><polygon class="cls-16" points="94.272 97.122 103.023 102.217 111.786 97.193 102.971 92.059 94.272 97.122"/><polygon class="cls-6" points="103.023 150.381 103.023 102.217 111.786 97.193 111.786 145.357 103.023 150.381"/><polygon class="cls-15" points="109.055 153.946 117.805 159.041 126.569 154.017 126.569 116.767 109.055 116.703 109.055 153.946"/><polygon class="cls-16" points="109.055 116.703 117.805 121.798 126.569 116.767 117.754 111.64 109.055 116.703"/><polygon class="cls-6" points="117.805 159.041 117.805 121.798 126.569 116.767 126.569 154.017 117.805 159.041"/><path class="cls-3" d="M187.183,222.155c0,2.841,4.333,5.166,9.687,5.166s9.687-2.3,9.687-5.166-4.333-5.134-9.687-5.134S187.183,219.326,187.183,222.155Z"/><path class="cls-3" d="M199.169,216.7c0,2.841,4.333,5.166,9.687,5.166s9.687-2.3,9.687-5.166-4.333-5.167-9.687-5.167S199.169,213.863,199.169,216.7Z"/><path class="cls-3" d="M208.3,225.384c0,2.835,4.333,5.134,9.687,5.134s9.687-2.3,9.687-5.134-4.334-5.167-9.687-5.167S208.3,222.555,208.3,225.384Z"/><path class="cls-4" d="M217.381,213.559v1.983c0,2.68-4,4.856-8.932,4.856s-8.925-2.176-8.925-4.856v-1.983Z"/><path class="cls-18" d="M212.989,219.707c-.284.1-.575.188-.885.265v-5h.885Zm-9.041,0c.284.1.575.188.885.265v-5h-.885Zm11.4-1.085a5.277,5.277,0,0,0,1.557-1.511v-3.339h-1.576Z"/><path class="cls-5" d="M199.524,213.559c0,2.68,4,4.857,8.925,4.857s8.932-2.177,8.932-4.857-4-4.856-8.932-4.856S199.524,210.879,199.524,213.559Z"/><path class="cls-6" d="M201.578,213.514c0,2.015,3.08,3.649,6.871,3.649s6.878-1.647,6.878-3.649-3.08-3.649-6.878-3.649S201.578,211.486,201.578,213.514Z"/><path class="cls-4" d="M208.449,210.356c3.636,0,6.607,1.5,6.852,3.4a1.766,1.766,0,0,0,0-.252c0-2.015-3.08-3.649-6.878-3.649s-6.871,1.634-6.871,3.649a1.766,1.766,0,0,0,0,.252C201.849,211.854,204.813,210.356,208.449,210.356Z"/><path class="cls-4" d="M211.491,212.022l.646-.368-.5-.284-.645.362a3.831,3.831,0,0,0-3.5-.149c-1.22.71-.406,1.447.214,2.06l-1.227.711c-.181-.2-.143-.407.148-.607l-1.421-.827c-.968.607-.749,1.375.226,2.047l-.645.368.5.291.646-.368a3.876,3.876,0,0,0,3.539.155c1.2-.7.355-1.447-.246-2.073l1.2-.7c.149.175.117.362-.142.549l1.434.827C212.621,213.4,212.485,212.687,211.491,212.022Zm-3.474,2.583a1.23,1.23,0,0,1-1.06,0l1.1-.645c.194.3.239.51-.038.671Zm.865-1.672c-.162-.233-.181-.433.09-.594a1.105,1.105,0,0,1,.988-.033Z"/><path class="cls-5" d="M211.491,211.79l.646-.362-.5-.29-.645.368a3.828,3.828,0,0,0-3.5-.155c-1.22.71-.406,1.453.214,2.066l-1.227.711c-.181-.207-.143-.407.148-.614l-1.421-.82c-.968.607-.749,1.369.226,2.041l-.645.374.5.284.646-.361a3.817,3.817,0,0,0,3.539.148c1.2-.7.355-1.446-.246-2.066l1.2-.7c.149.168.117.362-.142.543l1.434.826C212.621,213.172,212.485,212.461,211.491,211.79Zm-3.474,2.583a1.21,1.21,0,0,1-1.06,0l1.1-.646c.194.3.239.51-.038.672Zm.865-1.666c-.162-.239-.181-.439.09-.594a1.066,1.066,0,0,1,.988-.033Z"/><path class="cls-4" d="M217.381,210.556v1.983c0,2.68-4,4.856-8.932,4.856s-8.925-2.176-8.925-4.856v-1.983Z"/><path class="cls-18" d="M212.989,216.7a8.711,8.711,0,0,1-.885.259v-4.992h.885Zm-9.041,0a8.787,8.787,0,0,0,.885.259v-4.992h-.885Zm11.4-1.091a5.162,5.162,0,0,0,1.557-1.5v-3.345h-1.576Z"/><path class="cls-5" d="M199.524,210.556c0,2.68,4,4.85,8.925,4.85s8.932-2.17,8.932-4.85-4-4.856-8.932-4.856S199.524,207.876,199.524,210.556Z"/><path class="cls-6" d="M201.578,210.492c0,2.015,3.08,3.648,6.871,3.648s6.878-1.633,6.878-3.648-3.08-3.649-6.878-3.649S201.578,208.477,201.578,210.492Z"/><path class="cls-4" d="M208.449,207.353c3.636,0,6.607,1.5,6.852,3.391a1.766,1.766,0,0,0,0-.252c0-2.015-3.08-3.649-6.878-3.649s-6.871,1.634-6.871,3.649a1.766,1.766,0,0,0,0,.252C201.849,208.851,204.813,207.353,208.449,207.353Z"/><path class="cls-4" d="M211.491,208.993l.646-.361-.5-.291-.645.368a3.831,3.831,0,0,0-3.5-.148c-1.22.7-.406,1.446.214,2.06l-1.227.71c-.181-.206-.143-.407.148-.607l-1.421-.826c-.968.607-.749,1.375.226,2.04l-.645.375.5.284.646-.362a3.817,3.817,0,0,0,3.539.149c1.2-.7.355-1.447-.246-2.067l1.2-.678c.148.168.116.362-.142.549l1.434.82C212.621,210.4,212.485,209.684,211.491,208.993Zm-3.474,2.616a1.237,1.237,0,0,1-1.06,0l1.1-.646c.194.291.239.5-.038.665Zm.865-1.673c-.162-.239-.181-.439.09-.594a1.089,1.089,0,0,1,.988,0Z"/><path class="cls-5" d="M211.491,208.787l.646-.368-.5-.284-.645.361a3.831,3.831,0,0,0-3.5-.148c-1.22.71-.406,1.453.214,2.06l-1.227.717c-.181-.207-.143-.414.148-.646l-1.421-.82c-.968.6-.749,1.369.226,2.04l-.645.368.5.291.646-.368a3.823,3.823,0,0,0,3.539.155c1.2-.7.355-1.447-.246-2.067l1.2-.7c.149.175.117.362-.142.549l1.434.827C212.621,210.169,212.485,209.458,211.491,208.787Zm-3.474,2.583a1.237,1.237,0,0,1-1.06,0l1.1-.646c.194.3.239.51-.038.672Zm.865-1.666c-.162-.239-.181-.439.09-.6a1.1,1.1,0,0,1,.988-.032Z"/><path class="cls-4" d="M217.381,207.547v1.989c0,2.68-4,4.85-8.932,4.85s-8.925-2.17-8.925-4.85v-1.989Z"/><path class="cls-18" d="M212.989,213.7c-.284.091-.575.181-.885.259v-4.967h.885Zm-9.041,0c.284.091.575.181.885.259v-4.967h-.885Zm11.4-1.091A5.205,5.205,0,0,0,216.9,211.1V207.76h-1.576Z"/><path class="cls-5" d="M199.524,207.547c0,2.68,4,4.856,8.925,4.856s8.932-2.176,8.932-4.856-4-4.85-8.932-4.85S199.524,204.867,199.524,207.547Z"/><path class="cls-6" d="M201.578,207.489c0,2.015,3.08,3.649,6.871,3.649s6.878-1.634,6.878-3.649-3.08-3.662-6.878-3.662S201.578,205.474,201.578,207.489Z"/><path class="cls-4" d="M208.449,204.344c3.636,0,6.607,1.5,6.852,3.4a1.766,1.766,0,0,0,0-.252c0-2.015-3.08-3.649-6.878-3.649s-6.871,1.634-6.871,3.649a1.766,1.766,0,0,0,0,.252C201.849,205.848,204.813,204.344,208.449,204.344Z"/><path class="cls-4" d="M211.491,206.01l.646-.368-.5-.284-.645.368a3.81,3.81,0,0,0-3.5-.155c-1.22.71-.406,1.453.214,2.06l-1.227.717c-.181-.207-.143-.414.148-.614l-1.421-.82c-.968.607-.749,1.369.226,2.041l-.645.374.5.284.646-.368a3.8,3.8,0,0,0,3.539.155c1.2-.7.355-1.446-.246-2.066l1.2-.7c.149.168.117.356-.142.543l1.434.826C212.621,207.392,212.485,206.682,211.491,206.01Zm-3.474,2.583a1.237,1.237,0,0,1-1.06,0l1.1-.646c.194.3.239.51-.038.672Zm.865-1.666c-.162-.239-.181-.439.09-.594a1.084,1.084,0,0,1,.988-.039Z"/><path class="cls-5" d="M211.491,205.764l.646-.368-.5-.284-.645.362a3.831,3.831,0,0,0-3.5-.149c-1.22.711-.406,1.447.214,2.06l-1.227.711c-.181-.207-.143-.407.148-.607l-1.421-.827c-.968.607-.749,1.376.226,2.047l-.645.368.5.291.646-.368a3.876,3.876,0,0,0,3.539.155c1.2-.7.355-1.453-.246-2.073l1.2-.672c.148.175.116.362-.142.549l1.434.827C212.621,207.166,212.485,206.449,211.491,205.764Zm-3.474,2.584a1.237,1.237,0,0,1-1.06,0l1.1-.646c.194.316.239.529-.038.691Zm.865-1.673c-.162-.232-.181-.439.09-.594a1.1,1.1,0,0,1,.988-.032Z"/><path class="cls-4" d="M217.381,204.544v1.983c0,2.68-4,4.856-8.932,4.856s-8.925-2.176-8.925-4.856v-1.983Z"/><path class="cls-18" d="M212.989,210.692c-.284.1-.575.187-.885.265v-5h.885Zm-9.041,0c.284.1.575.187.885.265v-5h-.885Zm11.379-1.053a5.262,5.262,0,0,0,1.556-1.511v-3.339h-1.556Z"/><path class="cls-5" d="M199.524,204.544c0,2.68,4,4.856,8.925,4.856s8.932-2.176,8.932-4.856-4-4.856-8.932-4.856S199.524,201.89,199.524,204.544Z"/><path class="cls-6" d="M201.578,204.473c0,2.015,3.08,3.649,6.871,3.649s6.878-1.634,6.878-3.649-3.08-3.649-6.878-3.649S201.578,202.471,201.578,204.473Z"/><path class="cls-4" d="M208.449,201.341c3.636,0,6.607,1.5,6.852,3.4a1.766,1.766,0,0,0,0-.252c0-2.015-3.08-3.649-6.878-3.649s-6.871,1.634-6.871,3.649a1.766,1.766,0,0,0,0,.252C201.849,202.839,204.813,201.341,208.449,201.341Z"/><path class="cls-4" d="M211.491,203.007l.646-.368-.5-.284-.645.361a3.831,3.831,0,0,0-3.5-.148c-1.22.71-.406,1.453.214,2.06l-1.227.717c-.181-.207-.143-.414.148-.614l-1.421-.82c-.968.6-.749,1.369.226,2.041l-.645.368.5.29.646-.368a3.87,3.87,0,0,0,3.539.155c1.2-.7.355-1.446-.246-2.066l1.2-.7c.149.174.117.362-.142.549l1.434.826C212.621,204.389,212.485,203.672,211.491,203.007Zm-3.474,2.583a1.237,1.237,0,0,1-1.06,0l1.1-.646c.194.3.239.511-.038.672Zm.865-1.672c-.162-.233-.181-.433.09-.595a1.108,1.108,0,0,1,.988,0Z"/><path class="cls-5" d="M211.491,202.774l.646-.361-.5-.291-.645.368a3.834,3.834,0,0,0-3.5-.155c-1.22.711-.406,1.453.214,2.067l-1.227.71c-.181-.206-.143-.407.148-.646l-1.421-.82c-.968.607-.749,1.369.226,2.041l-.645.375.5.284.646-.362a3.817,3.817,0,0,0,3.539.149c1.2-.7.355-1.447-.246-2.067l1.2-.7c.149.167.117.361-.142.542l1.434.827C212.621,204.156,212.485,203.446,211.491,202.774Zm-3.474,2.584a1.21,1.21,0,0,1-1.06,0l1.1-.646c.194.3.239.51-.038.671Zm.865-1.667c-.162-.238-.181-.439.09-.594a1.065,1.065,0,0,1,.988,0Z"/><path class="cls-4" d="M217.381,201.541v1.983c0,2.68-4,4.856-8.932,4.856s-8.925-2.176-8.925-4.856v-1.983Z"/><path class="cls-18" d="M212.989,207.7a8.706,8.706,0,0,1-.885.258v-4.992h.885Zm-9.041,0a8.781,8.781,0,0,0,.885.258v-4.992h-.885Zm11.4-1.085a5.289,5.289,0,0,0,1.557-1.511v-3.345h-1.576Z"/><path class="cls-5" d="M199.524,201.541c0,2.68,4,4.85,8.925,4.85s8.932-2.17,8.932-4.85-4-4.856-8.932-4.856S199.524,198.861,199.524,201.541Z"/><path class="cls-6" d="M201.578,201.476c0,2.015,3.08,3.649,6.871,3.649s6.878-1.634,6.878-3.649-3.08-3.648-6.878-3.648S201.578,199.462,201.578,201.476Z"/><path class="cls-4" d="M208.449,198.338c3.636,0,6.607,1.5,6.852,3.39a1.515,1.515,0,0,0,0-.252c0-2.014-3.08-3.648-6.878-3.648s-6.871,1.634-6.871,3.648a1.515,1.515,0,0,0,0,.252C201.849,199.836,204.813,198.338,208.449,198.338Z"/><path class="cls-4" d="M211.491,200l.646-.368-.5-.291-.645.368a3.831,3.831,0,0,0-3.5-.148c-1.22.7-.406,1.446.214,2.06l-1.227.71c-.181-.206-.143-.407.148-.607l-1.421-.826c-.968.607-.749,1.375.226,2.047l-.645.368.5.284.646-.362a3.817,3.817,0,0,0,3.539.149c1.2-.7.355-1.447-.246-2.067l1.2-.723c.148.168.116.362-.142.549l1.434.827C212.621,201.386,212.485,200.669,211.491,200Zm-3.474,2.583a1.237,1.237,0,0,1-1.06,0l1.1-.646c.194.3.239.5-.038.672Zm.865-1.672c-.162-.239-.181-.44.09-.595a1.086,1.086,0,0,1,.988-.032Z"/><path class="cls-5" d="M211.491,199.771l.646-.368-.5-.284-.645.368a3.813,3.813,0,0,0-3.5-.155c-1.22.711-.406,1.453.214,2.06l-1.227.717c-.181-.206-.143-.413.148-.646l-1.421-.82c-.968.6-.749,1.369.226,2.041l-.645.368.5.291.646-.368a3.806,3.806,0,0,0,3.539.155c1.2-.7.355-1.447-.246-2.067l1.2-.7c.149.168.117.355-.142.542l1.434.827C212.621,201.153,212.485,200.443,211.491,199.771Zm-3.474,2.584a1.237,1.237,0,0,1-1.06,0l1.1-.646c.194.3.239.51-.038.672Zm.865-1.666c-.162-.239-.181-.44.09-.6a1.1,1.1,0,0,1,.988-.032Z"/><path class="cls-4" d="M226.9,222.245v1.989c0,2.68-4,4.85-8.925,4.85s-8.932-2.17-8.932-4.85v-1.989Z"/><path class="cls-18" d="M222.515,228.4c-.284.09-.582.18-.885.258v-4.992h.885Zm-9.041,0c.284.09.581.18.884.258v-4.992h-.884Zm11.4-1.092a5.167,5.167,0,0,0,1.556-1.511v-3.339h-1.556Z"/><path class="cls-5" d="M209.043,222.245c0,2.68,4,4.857,8.932,4.857s8.925-2.177,8.925-4.857-4-4.856-8.925-4.856S209.043,219.565,209.043,222.245Z"/><path class="cls-6" d="M211.1,222.187c0,2.015,3.074,3.649,6.872,3.649s6.871-1.634,6.871-3.649-3.074-3.649-6.871-3.649S211.1,220.172,211.1,222.187Z"/><path class="cls-4" d="M217.975,219.042c3.636,0,6.6,1.5,6.845,3.4a1.515,1.515,0,0,0,0-.252c0-2.015-3.074-3.649-6.871-3.649s-6.871,1.634-6.871,3.649v.252C211.368,220.54,214.339,219.042,217.975,219.042Z"/><path class="cls-4" d="M221.016,220.708l.646-.368-.5-.284-.646.368a3.808,3.808,0,0,0-3.5-.155c-1.221.71-.407,1.453.213,2.06l-1.227.717c-.181-.207-.142-.413.149-.614l-1.428-.82c-.968.607-.742,1.369.226,2.041l-.645.375.5.284.646-.368A3.818,3.818,0,0,0,219,224.1c1.2-.7.355-1.447-.252-2.067l1.208-.7c.142.168.11.355-.142.542l1.433.827C222.172,222.09,222.005,221.38,221.016,220.708Zm-3.474,2.583a1.228,1.228,0,0,1-1.059,0l1.1-.645c.187.3.239.51-.039.671Zm.865-1.666c-.161-.239-.187-.439.084-.6a1.12,1.12,0,0,1,.995-.033Z"/><path class="cls-5" d="M221.016,220.482l.646-.368-.5-.284-.646.362a3.829,3.829,0,0,0-3.5-.149c-1.221.71-.407,1.447.213,2.06l-1.227.711c-.181-.207-.142-.407.149-.608l-1.428-.826c-.968.607-.742,1.375.226,2.047l-.645.368.5.284.646-.361a3.877,3.877,0,0,0,3.545.155c1.2-.7.355-1.453-.252-2.073l1.208-.7c.142.175.11.362-.142.549l1.433.827C222.172,221.864,222.005,221.147,221.016,220.482Zm-3.474,2.583a1.228,1.228,0,0,1-1.059,0l1.1-.645c.187.3.239.51-.039.671Zm.865-1.672c-.161-.233-.187-.439.084-.594a1.1,1.1,0,0,1,.995-.033Z"/><path class="cls-4" d="M226.9,219.255v2.009c0,2.68-4,4.856-8.925,4.856s-8.932-2.176-8.932-4.856v-1.983Z"/><path class="cls-18" d="M222.515,225.4c-.284.1-.582.187-.885.258v-4.992h.885Zm-9.041,0c.284.1.581.187.884.265v-5h-.884Zm11.4-1.085a5.2,5.2,0,0,0,1.556-1.511v-3.345h-1.556Z"/><path class="cls-5" d="M209.043,219.255c0,2.68,4,4.85,8.932,4.85s8.925-2.17,8.925-4.85-4-4.856-8.925-4.856S209.043,216.575,209.043,219.255Z"/><path class="cls-6" d="M211.1,219.191c0,2.014,3.074,3.648,6.872,3.648s6.871-1.634,6.871-3.648-3.074-3.649-6.871-3.649S211.1,217.176,211.1,219.191Z"/><path class="cls-4" d="M217.975,216.052c3.636,0,6.6,1.5,6.845,3.4a1.587,1.587,0,0,0,0-.258c0-2.015-3.074-3.649-6.871-3.649s-6.871,1.634-6.871,3.649v.258C211.368,217.55,214.339,216.052,217.975,216.052Z"/><path class="cls-4" d="M221.016,217.718l.646-.368-.5-.291-.646.369a3.829,3.829,0,0,0-3.5-.149c-1.221.71-.407,1.447.213,2.06l-1.227.711c-.181-.207-.142-.407.149-.608l-1.428-.826c-.968.607-.742,1.375.226,2.047l-.645.368.5.284.646-.361a3.877,3.877,0,0,0,3.545.155c1.2-.7.355-1.453-.252-2.073l1.208-.7c.142.168.11.362-.142.549l1.433.827C222.172,219.1,222.005,218.383,221.016,217.718Zm-3.474,2.583a1.287,1.287,0,0,1-1.059,0l1.1-.645c.187.316.239.51-.039.671Zm.865-1.672c-.161-.233-.187-.439.084-.594a1.1,1.1,0,0,1,.995-.033Z"/><path class="cls-5" d="M221.016,217.486l.646-.368-.5-.285-.646.369a3.808,3.808,0,0,0-3.5-.155c-1.221.71-.407,1.453.213,2.06l-1.227.716c-.181-.206-.142-.413.149-.613l-1.428-.82c-.968.607-.742,1.369.226,2.041l-.645.374.5.284.646-.368a3.818,3.818,0,0,0,3.545.155c1.2-.7.355-1.446-.252-2.066l1.208-.7c.142.168.11.355-.142.543l1.433.826C222.172,218.868,222.005,218.157,221.016,217.486Zm-3.474,2.583a1.235,1.235,0,0,1-1.059,0l1.1-.646c.187.3.239.51-.039.672Zm.865-1.666c-.161-.239-.187-.439.084-.594a1.1,1.1,0,0,1,.995-.039Z"/><path class="cls-4" d="M205.782,219v1.982c0,2.681-4,4.857-8.925,4.857s-8.912-2.176-8.912-4.857V219Z"/><path class="cls-18" d="M201.4,225.138c-.284.1-.581.188-.891.265v-5h.891Zm-9.041,0c.284.1.581.188.885.265v-5h-.885Zm11.4-1.085a5.193,5.193,0,0,0,1.557-1.511V219.2h-1.557Z"/><path class="cls-5" d="M187.945,219c0,2.68,4,4.856,8.932,4.856S205.8,221.677,205.8,219s-4.016-4.837-8.944-4.837S187.945,216.317,187.945,219Z"/><path class="cls-6" d="M189.986,218.939c0,2.015,3.074,3.648,6.871,3.648s6.871-1.633,6.871-3.648-3.074-3.649-6.871-3.649S189.986,216.924,189.986,218.939Z"/><path class="cls-4" d="M196.857,215.794c3.636,0,6.6,1.5,6.846,3.4a1.766,1.766,0,0,0,0-.252c0-2.015-3.074-3.649-6.872-3.649s-6.871,1.634-6.871,3.649v.252C190.251,217.292,193.221,215.794,196.857,215.794Z"/><path class="cls-4" d="M199.9,217.46l.646-.368-.5-.284-.645.361a3.831,3.831,0,0,0-3.5-.148c-1.22.71-.406,1.453.214,2.06l-1.227.717c-.181-.207-.143-.414.148-.646l-1.427-.82c-.969.6-.743,1.369.226,2.04l-.646.368.5.291.646-.368a3.876,3.876,0,0,0,3.546.155c1.2-.7.355-1.447-.252-2.067l1.207-.7c.142.174.11.361-.142.548l1.434.827C201.029,218.842,200.861,218.125,199.9,217.46Zm-3.481,2.583a1.222,1.222,0,0,1-1.053,0l1.1-.646c.188.3.239.51-.045.672Zm.872-1.673c-.162-.232-.187-.432.084-.594a1.115,1.115,0,0,1,.994-.032Z"/><path class="cls-5" d="M199.9,217.227l.646-.361-.5-.291-.645.368a3.834,3.834,0,0,0-3.5-.155c-1.22.711-.406,1.453.214,2.067l-1.227.71c-.181-.206-.143-.407.148-.613l-1.427-.82c-.969.607-.743,1.369.226,2.04l-.646.375.5.284.646-.362a3.831,3.831,0,0,0,3.546.149c1.2-.7.355-1.447-.252-2.067l1.207-.7c.142.168.11.361-.142.542l1.434.827C201.029,218.609,200.861,217.9,199.9,217.227Zm-3.481,2.584a1.2,1.2,0,0,1-1.053,0l1.1-.646c.188.3.239.51-.045.671Zm.872-1.667c-.162-.239-.187-.439.084-.594a1.078,1.078,0,0,1,.994-.032Z"/><path class="cls-4" d="M205.782,216.026v2.009c0,2.68-4,4.85-8.925,4.85s-8.912-2.19-8.912-4.85v-1.989Z"/><path class="cls-18" d="M201.4,222.181c-.284.09-.581.18-.891.258v-4.992h.891Zm-9.041,0c.284.1.581.18.885.258v-4.992h-.885Zm11.4-1.092a5.067,5.067,0,0,0,1.557-1.511v-3.339h-1.557Z"/><path class="cls-5" d="M187.945,216.026c0,2.687,4,4.857,8.932,4.857s8.924-2.17,8.924-4.857-4-4.85-8.924-4.85S187.945,213.346,187.945,216.026Z"/><path class="cls-6" d="M189.986,215.968c0,2.015,3.074,3.649,6.871,3.649s6.871-1.634,6.871-3.649-3.074-3.649-6.871-3.649S189.986,213.953,189.986,215.968Z"/><path class="cls-4" d="M196.857,212.823c3.636,0,6.6,1.5,6.846,3.4a1.766,1.766,0,0,0,0-.252c0-2.015-3.074-3.649-6.872-3.649s-6.871,1.634-6.871,3.649v.252C190.251,214.328,193.221,212.823,196.857,212.823Z"/><path class="cls-4" d="M199.9,214.489l.646-.368-.5-.284-.645.368a3.81,3.81,0,0,0-3.5-.155c-1.22.71-.406,1.453.214,2.06l-1.227.717c-.181-.207-.143-.413.148-.614l-1.427-.82c-.969.607-.743,1.369.226,2.041l-.646.375.5.284.646-.368a3.82,3.82,0,0,0,3.546.155c1.2-.7.355-1.447-.252-2.067l1.207-.7c.142.167.11.361-.142.542l1.434.827C201.029,215.871,200.861,215.161,199.9,214.489Zm-3.481,2.583a1.2,1.2,0,0,1-1.053,0l1.1-.645c.188.316.239.51-.045.671Zm.872-1.666c-.162-.239-.187-.439.084-.594a1.078,1.078,0,0,1,.994-.032Z"/><path class="cls-5" d="M199.9,214.263l.646-.368-.5-.284-.645.362a3.831,3.831,0,0,0-3.5-.149c-1.22.71-.406,1.447.214,2.06l-1.227.71c-.181-.206-.143-.406.148-.607l-1.427-.826c-.969.607-.743,1.375.226,2.047l-.646.368.5.291.646-.368a3.879,3.879,0,0,0,3.546.155c1.2-.7.355-1.453-.252-2.073l1.207-.7c.142.174.11.362-.142.549l1.434.827C201.029,215.645,200.861,214.928,199.9,214.263Zm-3.481,2.583a1.222,1.222,0,0,1-1.053,0l1.1-.645c.188.3.239.542-.045.671Zm.872-1.672c-.162-.233-.187-.439.084-.594a1.118,1.118,0,0,1,.994-.033Z"/><path class="cls-4" d="M247.572,171.537a.974.974,0,0,1-.181-.193h0a.918.918,0,0,1-.116-.227h0a.745.745,0,0,1-.046-.238l.188,30.752h0a.393.393,0,0,1,0,.084v.142h0l.038.084a.965.965,0,0,0,.052.091v.032h0a.226.226,0,0,0,0,.052c.032,0,.058.071.1.1l.045.039.045.039.058.045a.969.969,0,0,0,.207.135,2.01,2.01,0,0,0,.323.149l.11.039.174.058h.246l.193.032h1.389l.174-.052.1-.038h.1c.09-.046.187-.091.271-.142a1.107,1.107,0,0,0,.646-.905l-.194-30.752a1.085,1.085,0,0,1-.646.9,2.945,2.945,0,0,1-.323.161h-.058l-.329.1h0a3.626,3.626,0,0,1-.388.071h0a3.056,3.056,0,0,1-.406,0h0c-.132.006-.263.006-.394,0h-.039a3.021,3.021,0,0,1-.355-.059h-.071l-.259-.077-.116-.039a3.03,3.03,0,0,1-.323-.148,2.1,2.1,0,0,1-.258-.181Z"/><path class="cls-19" d="M247.875,171.737a.953.953,0,0,1-.032-1.8,3.446,3.446,0,0,1,3.119-.033c.865.491.872,1.292,0,1.8A3.432,3.432,0,0,1,247.875,171.737Z"/><path class="cls-4" d="M237.3,139.435l3.533-2.028h0l.142-.078.148-.077.258-.123.233-.1.265-.1.1-.039.148-.038.271-.084.252-.059.284-.058h.252l.31-.038h1.479l.452.045h.194c.239.032.484.084.736.135l.194.052.581.155.129.039.136.045.342.116.317.116.348.143.323.135.349.162.329.161.355.187.22.117.226.129c.413.232.814.5,1.214.768l.317.213c.355.252.7.517,1.052.8a.988.988,0,0,1,.129.1c.31.252.646.51.917.781l.162.155c.245.226.484.465.723.7s.368.356.543.543.478.523.71.788c.142.155.284.3.42.458l.1.129.206.252c.278.343.549.685.814,1.04.077.1.155.2.226.3s.1.129.149.2c.251.348.49.7.729,1.065l.155.239c.1.149.194.291.284.439s.168.3.259.446c.181.3.355.594.523.9l.194.329c.077.142.142.284.213.426.148.284.3.568.439.859.058.129.129.252.187.375s.123.277.181.413c.136.291.258.581.381.872.058.135.123.271.181.413s.09.252.135.375c.123.316.239.645.356.955l.161.452c.058.181.116.362.168.549l.077.239c.117.388.226.769.323,1.156l.058.265a1.862,1.862,0,0,0,.091.407q.135.588.232,1.182a2.275,2.275,0,0,0,.065.349.419.419,0,0,1,0,.161c.045.31.071.613.1.917,0,.174.045.355.058.53.046.523.065,1.039.065,1.556,0,4.282-1.518,7.3-3.959,8.7l-3.526,2.028Z"/><path class="cls-5" d="M233.338,148.134c0-8.518,5.987-12.012,13.336-7.789S260,154.921,260,163.439s-5.987,12.018-13.336,7.8S233.332,156.684,233.338,148.134Zm24.844,14.549c-.129-7.439-5.405-16.584-11.753-20.387s-11.412-.846-11.276,6.593,5.405,16.584,11.753,20.388,11.412.846,11.276-6.594"/><path class="cls-10" d="M258.182,162.683c.136,7.44-4.921,10.4-11.276,6.594s-11.624-12.948-11.753-20.388,4.921-10.4,11.276-6.593,11.624,12.948,11.753,20.387"/><path class="cls-19" d="M236.483,148.121c.136,7.439,5.406,16.584,11.76,20.387,2.816,1.686,5.373,2.041,7.343,1.292-2.067,1.64-5.166,1.6-8.68-.5-6.348-3.8-11.624-12.948-11.753-20.388-.078-4.14,1.459-6.891,3.933-7.859C237.407,142.354,236.425,144.788,236.483,148.121Z"/><path class="cls-20" d="M147.525,168.954l7.943,4.63a2.022,2.022,0,0,1,0,3.5l-1.356.775a4.18,4.18,0,0,1-4.178,0l-7.944-4.631a2.022,2.022,0,0,1,0-3.5l1.356-.768A4.165,4.165,0,0,1,147.525,168.954Z"/><path class="cls-21" d="M144.425,170.3s.329-1.092,2.267-.736c.323.058.645,1.4.645,1.4l3.552,1.072s-6.729,2.512-6.671,1.434C144.322,171.867,144.425,170.3,144.425,170.3Z"/><path class="cls-22" d="M143.346,142.005l1.079,28.6c.646.878,2.829.135,2.829.135.109-.839,2.189-27.2,2.189-27.2Z"/><path class="cls-23" d="M157.012,124.794c.458.207.529-.316.594-.723a2.209,2.209,0,0,1,.168-.607c.077-.039.187.452.258.31s.949-1.4,1.634-.646c.349.4-.646,1.679-1.066,1.873-.768.368-.91,0-1.4.6Z"/><path class="cls-24" d="M149.779,125.776a9.132,9.132,0,0,0,3.48,1.466l4.172-3s.562-.232.762,1.143c0,0-4.275,4.863-5.218,4.979s-2.325-.562-4.565-1.8C144.612,126.461,147.809,124.459,149.779,125.776Z"/><path class="cls-21" d="M147.906,171.725s.323-1.092,2.267-.737c.322.058.645,1.4.645,1.4l3.546,1.085s-6.729,2.512-6.665,1.433C147.777,173.287,147.906,171.725,147.906,171.725Z"/><path class="cls-25" d="M146.821,144.239l1.085,27.724c.646.872,2.828.136,2.828.136.11-.839,2.19-27.2,2.19-27.2Z"/><polygon class="cls-26" points="149.947 122.502 150.373 125.117 147.899 124.943 148.384 122.734 149.947 122.502"/><polygon class="cls-10" points="151.18 124.562 147.654 124.123 147.254 125.544 151.316 125.731 151.18 124.562"/><path class="cls-26" d="M150.805,120.519c.181,1.247-.161,2.583-1.5,2.525a2.279,2.279,0,0,1-2.164-1.995,1.894,1.894,0,1,1,3.668-.53Z"/><path class="cls-27" d="M148.2,123.264s.465.375,1.1-.2a4.044,4.044,0,0,0,.355-1.2c0-.323-.465-.73-.355-1.008.2-.536.7-.439.839.646.058-.5,2.693-1.776,1.053-2.971-2.131-1.55-5.38-.187-4.256,1.815C145.968,120.584,147.4,122.392,148.2,123.264Z"/><path class="cls-28" d="M152.426,126.893c.427,1.4,1.021,13.084,1.938,17.437-1.705,2.183-9.629,2.667-11.876.116A90.992,90.992,0,0,1,145.5,127.83C146.472,124.426,149.527,123.29,152.426,126.893Z"/><path class="cls-23" d="M161.209,127.733c.646.129.872-.685,1.053-1.079.646-1.369.51-.387.607-.368.252.058,1.4-.5,1.55.129s-.749,1.195-1.292,1.473c-.994.529-.981-.045-1.569.646Z"/><path class="cls-28" d="M151.626,125.918c3.229,3.468,3.539,3.875,3.539,3.875l6.671-2.771s1.291.162.82,1.57c0,0-6.174,5.231-7.705,5.134s-3.513-2.383-5.734-4.882C146.246,125.511,149.546,123.7,151.626,125.918Z"/><path class="cls-3" d="M57.01,155.431c-20.381,0-36.894,8.983-36.894,20.059s16.513,20.058,36.894,20.058S93.9,186.571,93.9,175.49,77.385,155.431,57.01,155.431Zm0,32.141c-14.711,0-26.633-5.405-26.633-12.082S42.3,163.407,57.01,163.407s26.626,5.411,26.626,12.083S71.7,187.572,57.01,187.572Z"/><path class="cls-29" d="M93.155,161.288s-5.463-13.561-36.164-13.561-36.165,19.845-36.165,19.845v6.807c0,10.856,16.145,19.651,36.165,19.651s36.164-8.795,36.164-19.651ZM56.991,186.249c-14.415,0-26.091-5.3-26.091-11.844s11.676-11.838,26.091-11.838,26.083,5.3,26.083,11.838S71.418,186.249,57.01,186.249Z"/><path class="cls-30" d="M57.01,141.637c-19.968,0-36.165,8.8-36.165,19.651S36.99,180.94,57.01,180.94s36.165-8.8,36.165-19.652S76.971,141.637,57.01,141.637Zm0,31.489c-14.414,0-26.09-5.3-26.09-11.838S42.6,149.451,57.01,149.451s26.084,5.3,26.084,11.837S71.418,173.126,57.01,173.126Z"/><path class="cls-31" d="M78.838,173.158c-4.656,3.229-12.69,5.367-21.828,5.367h-.646v15.531h.646c13.562,0,25.335-4.049,31.521-10.042V170.891S79.871,173.475,78.838,173.158Z"/><path class="cls-32" d="M78.838,167.766c-4.656,3.229-12.69,5.36-21.828,5.36h-.646v7.814h.646c13.562,0,25.335-4.049,31.521-10.042q-3.306-1.065-6.593-2.157C80.911,168.4,79.871,168.089,78.838,167.766Z"/><path class="cls-24" d="M56.48,180.779c-12.547.445-26.109-6.659-25.534-13.588-3.372,0-10.081-5.4-10.081-5.4v12.619c0,10.759,15.893,19.5,35.615,19.645Z"/><path class="cls-28" d="M56.48,173.119c-13.794-.122-24.96-5.1-25.534-11.327H20.884c.491,10.527,16.184,18.993,35.6,19.142Z"/><path class="cls-3" d="M88.886,189.716l1.253.711a1.866,1.866,0,0,1,0,3.229L82.8,197.931a3.876,3.876,0,0,1-3.875,0l-1.246-.717a1.86,1.86,0,0,1,0-3.229l7.336-4.275A3.875,3.875,0,0,1,88.886,189.716Z"/><path class="cls-20" d="M176.754,183.052l1.252.717a1.866,1.866,0,0,1,0,3.229l-7.336,4.275a3.876,3.876,0,0,1-3.875,0l-1.252-.711a1.866,1.866,0,0,1,0-3.229l7.329-4.275A3.877,3.877,0,0,1,176.754,183.052Z"/><path class="cls-23" d="M168.946,148.463a16.292,16.292,0,0,1-1.64-.911c-.181-.187-.814-.955-1.227-.981-.265,0-.052.206.129.5.419.646-1.092-.646-1.453-.1-.233.336,0,1.588,1.73,1.937a8.519,8.519,0,0,1,1.815.872Z"/><path class="cls-32" d="M173.092,145.279a27.59,27.59,0,0,0,1.53,5.683l-7.291-3.6s-1.5-.3-.852,1.756c0,0,9.293,6.18,12.406,4.166,1.659-1.079-.478-9.042-3.061-10.333C174.474,142.509,172.556,142.179,173.092,145.279Z"/><polygon class="cls-26" points="171.142 140.371 171.142 143.071 173.279 142.812 172.472 140.068 171.142 140.371"/><polygon class="cls-11" points="171.161 141.792 173.234 141.501 173.731 142.657 170.702 143.116 171.161 141.792"/><path class="cls-21" d="M175.979,184.666a4.16,4.16,0,0,0-2.584.168c-1.149.349-3.79,1.292-3.79,1.292s6.367,1.743,6.374.755C175.991,185.422,175.979,184.666,175.979,184.666Z"/><path class="cls-21" d="M172.323,186.552a16.663,16.663,0,0,0-2.583.168,33.475,33.475,0,0,0-3.8,1.292s6.367,1.737,6.374.749C172.343,187.308,172.323,186.552,172.323,186.552Z"/><path class="cls-22" d="M177.948,158.24l-1.472,26.7a4.286,4.286,0,0,1-3.378-.22l-.193-25.987Z"/><path class="cls-25" d="M174.842,159.177,172.763,187.1c-2.919.329-3.081-.562-3.081-.562.162-1.595-.646-28.57-.646-28.57Z"/><path class="cls-26" d="M169.676,138.537c.122,1.253.787,2.493,2.066,2.086a2.267,2.267,0,0,0,1.615-2.448,1.89,1.89,0,1,0-3.681.362Z"/><path class="cls-27" d="M172.859,140.539s-.361.471-1.117.065a4.064,4.064,0,0,1-.646-1.079c-.064-.316.278-.814.1-1.059-.323-.471-.782-.252-.646.794-.174-.465-3.035-1.072-1.731-2.622,1.692-2.008,5.167-1.466,4.553.737C174.383,137.426,173.415,139.519,172.859,140.539Z"/><path class="cls-31" d="M168.571,144.239s.562,10.65.562,16.429c2.131,1.938,9.145.272,9.616-.852s-.226-2.1-.407-3.429c-.587-4.23-.032-9.8-1.169-11.922C175.617,141.6,172,141.391,168.571,144.239Z"/><polygon class="cls-27" points="171.045 164.957 164.077 160.772 164.077 167.417 170.916 171.402 171.045 164.957"/><path class="cls-33" d="M164.257,163.3s-.348-.219-.348-.18v2.2l.348.149Z"/><path class="cls-23" d="M166.382,163.678c-.588.762-1.027,3.087.381,3.352.42.084,1.208-1.524,1.292-2.784"/><path class="cls-32" d="M167.641,146.145c.594-3.094,2.861-3.133,3.229,1.982a33.214,33.214,0,0,1-.264,7.24c-.278,2.415-2.2,9.46-2.209,9.467-.258.219-2.26-.717-2.318-1.479a28.147,28.147,0,0,0,1.549-8.311C167.861,151.518,167.189,148.508,167.641,146.145Z"/><path class="cls-27" d="M63.836,151.6c-.2,1.195-.614,3.113-.807,4.308a4.7,4.7,0,0,0-.091,1.291,1.593,1.593,0,0,0,.582,1.1,2.355,2.355,0,0,0,1.608.22l2.473-.245a4.533,4.533,0,0,0,1.246-.252,1.531,1.531,0,0,0,.9-.853,2.292,2.292,0,0,0-.2-1.537l-.988-2.615a9.627,9.627,0,0,0-.5-1.195"/><polygon class="cls-21" points="79.393 191.447 79.277 194.056 84.405 196.284 81.912 192.403 81.253 190.885 79.393 191.447"/><polygon class="cls-21" points="83.249 189.755 83.132 192.364 88.719 193.01 85.767 190.711 85.109 189.193 83.249 189.755"/><path class="cls-22" d="M66.878,168.9c-.892,3.733,1.11,4.566,3.4,5.392a51.57,51.57,0,0,0,7.362,1.621l5.276,14.356c.911.646,1.873.427,2.874-.413l-4.462-16.377-8.822-4.928Z"/><path class="cls-25" d="M64.514,170.711c-.891,3.732,1.111,4.565,3.4,5.392a52.432,52.432,0,0,0,7.369,1.615l3.629,14.059c.762.691,1.8.587,3,0L78.425,175.49l-7.957-5.122Z"/><path class="cls-34" d="M73.271,168.954c-.148-1-2.15-.756-1.937-5.128.122-2.815-.336-6.458-1.938-7.291-1.33-.71-4.029.536-4.753.988-1.524.976-.755,1.55-1.078,3.333s-.22,9.687-.22,11.527c0,.691,6.226,2.086,9.558-2.241"/><path class="cls-35" d="M72.858,175.167l-4.689-2.726a.091.091,0,0,1-.031-.124.114.114,0,0,1,.031-.031l8.589-4.992a.094.094,0,0,1,.1,0l4.676,2.719a.092.092,0,0,1,.04.122.1.1,0,0,1-.04.04l-8.589,4.992A.079.079,0,0,1,72.858,175.167Z"/><path class="cls-36" d="M81.5,170.033,72.955,175a.127.127,0,0,1-.117,0l-4.63-2.693a.116.116,0,0,1,0-.2l8.544-4.967a.113.113,0,0,1,.11,0l4.637,2.7a.11.11,0,0,1,.045.148A.117.117,0,0,1,81.5,170.033Z"/><path class="cls-26" d="M75.764,167.863c.781.174,2.215,1.136,2.066,1.414s-.9.956-2.68-.7S75.764,167.863,75.764,167.863Z"/><path class="cls-37" d="M72.348,167.856l2.815,1.292c.071-.646.762-1,1.505-1l-4.689-3.132-.645-2.344v2.254A4.1,4.1,0,0,0,72.348,167.856Z"/><path class="cls-26" d="M66.051,157.272c-.045.645,1.757.251,1.518-.239-.117-.646-.239-1.292-.356-1.938a1.493,1.493,0,0,0-.213-.646c-.5-.645-.878-.155-.91.381C66.045,155.638,66.064,156.458,66.051,157.272Z"/><path class="cls-26" d="M68.331,153.352a3,3,0,0,0,0-2.067,1.854,1.854,0,0,0-1.589-1.2,1.936,1.936,0,0,0-1.711,1.24,3.746,3.746,0,0,0-.1,2.215,2.925,2.925,0,0,0,.846,1.634C67.181,156.374,67.969,154.449,68.331,153.352Z"/><path class="cls-27" d="M66.665,152.486a.555.555,0,0,0,1.065.207.563.563,0,0,0,.646.381.84.84,0,0,0,.581-.568,1.78,1.78,0,0,0,0-.846,3.89,3.89,0,0,0-.245-.795,2.8,2.8,0,0,0-.478-.742,2.277,2.277,0,0,0-2.667-.239c-1.46-.188-1.8,1.175-1.815,2.363-.1.646.381,1.156.588,1.789a.645.645,0,0,0,.768.426c.31-.045-.523-.7-.349-1.517.091-.426.517.523.646.471,0,0,.117-.93.149-.981C65.89,152.648,66.367,152.99,66.665,152.486Z"/><path class="cls-26" d="M70.365,170.853c.775.168,2.209,1.13,2.067,1.408s-.905.962-2.681-.7S70.365,170.853,70.365,170.853Z"/><path class="cls-37" d="M64.333,157.833c-2.221.375-1.9,8.661-1.123,10.333s6.554,3.759,6.554,3.759c.22-.756.6-1.15,1.124-1.24l-5.47-4v-4.934C65.438,160.862,66.213,157.517,64.333,157.833Z"/><path class="cls-29" d="M72.774,174.844c.329-1.1,1.35-4.521,1.53-5.167a.236.236,0,0,1,.117-.142l8.395-4.875a.135.135,0,0,1,.2.161l-1.524,5.166a.3.3,0,0,1-.116.149l-8.4,4.869a.141.141,0,0,1-.193-.054A.143.143,0,0,1,72.774,174.844Z"/><path class="cls-5" d="M72.993,174.941c.33-1.092,1.35-4.521,1.531-5.167a.238.238,0,0,1,.116-.142l8.4-4.876a.136.136,0,0,1,.2.162l-1.524,5.166a.271.271,0,0,1-.117.149L73.2,175.1a.141.141,0,0,1-.193-.054A.139.139,0,0,1,72.993,174.941Z"/><path class="cls-3" d="M111.638,188.328a3.133,3.133,0,0,1,2.835,0l54.809,31.838a.868.868,0,0,1,0,1.64L128.254,245.19a3.127,3.127,0,0,1-2.835,0L70.6,213.34a.869.869,0,0,1,0-1.641Z"/><path class="cls-6" d="M111.78,187.682a3.068,3.068,0,0,1,2.783,0L168.455,219a.852.852,0,0,1,0,1.614L128.119,243.6a3.051,3.051,0,0,1-2.784,0L71.443,212.281a.853.853,0,0,1,0-1.615Z"/><path class="cls-10" d="M112.387,189.658a2.847,2.847,0,0,1,2.583,0l50.049,29.061a.794.794,0,0,1,0,1.5l-37.456,21.357a2.847,2.847,0,0,1-2.583,0L74.931,212.513a.794.794,0,0,1,0-1.5Z"/><path class="cls-4" d="M105.031,189.419a2.168,2.168,0,0,1,1.989,0l2.1,1.292a.614.614,0,0,1,0,1.156l-28.86,16.448a2.18,2.18,0,0,1-1.989,0l-2.1-1.291a.614.614,0,0,1,0-1.156Z"/><path class="cls-36" d="M121.958,235.729a.6.6,0,0,1-.3-1.123l32.458-18.464a.608.608,0,0,1,.831.216l0,0a.6.6,0,0,1-.212.822l-.008,0-32.464,18.463A.64.64,0,0,1,121.958,235.729Zm-4.56-2.77a.608.608,0,0,1-.529-.3.593.593,0,0,1,.209-.813l.01-.007,32.465-18.469a.645.645,0,0,1,.833.219.6.6,0,0,1-.217.821l-.009.006L117.7,232.888a.653.653,0,0,1-.3.071Zm-4.559-2.77a.648.648,0,0,1-.536-.3.608.608,0,0,1,.226-.827L144.987,210.6a.644.644,0,0,1,.839.22.606.606,0,0,1-.226.826l-32.457,18.464a.592.592,0,0,1-.3.084Zm-4.566-2.777a.646.646,0,0,1-.529-.3.594.594,0,0,1,.213-.813l.013-.007,32.457-18.47a.647.647,0,0,1,.834.22.6.6,0,0,1-.2.816l-.019.01-32.458,18.47A.657.657,0,0,1,108.273,227.412Zm-4.559-2.771a.608.608,0,0,1-.53-.3.6.6,0,0,1,.217-.822l.009,0,32.458-18.463a.606.606,0,0,1,.831.216l0,0a.6.6,0,0,1-.212.823l-.007,0-32.49,18.463a.582.582,0,0,1-.278.084Zm-4.559-2.777a.6.6,0,0,1-.53-.3.589.589,0,0,1,.2-.808l.023-.012,32.464-18.47a.646.646,0,0,1,.833.219.6.6,0,0,1-.217.822l-.009,0-32.445,18.47a.645.645,0,0,1-.316.077Zm-4.56-2.777a.645.645,0,0,1-.536-.3.607.607,0,0,1,.226-.826L126.743,199.5a.648.648,0,0,1,.84.22.607.607,0,0,1-.226.826L94.9,219.01a.644.644,0,0,1-.3.077Zm-4.566-2.77a.643.643,0,0,1-.529-.3.593.593,0,0,1,.213-.812l.013-.008,32.458-18.47a.646.646,0,0,1,.839.22.608.608,0,0,1-.226.827L90.339,216.239a.643.643,0,0,1-.31.078Zm-4.559-2.771a.645.645,0,0,1-.529-.3.6.6,0,0,1,.216-.821l.01-.006,32.457-18.463a.607.607,0,0,1,.831.216l0,0a.6.6,0,0,1-.212.823l-.007,0L85.774,213.462a.574.574,0,0,1-.3.084Z"/><path class="cls-3" d="M164.955,263.092,143.489,250.7a1.562,1.562,0,0,1,0-2.712l31.54-18.2a5.66,5.66,0,0,1,5.683,0L200.131,241a2.752,2.752,0,0,1,0,4.773l-30,17.32A5.165,5.165,0,0,1,164.955,263.092Z"/><path class="cls-4" d="M200.635,240.289l-1.291.194-21.667-12.5-32.29,18.632v-.362l-1.834-.058v1.847a2.2,2.2,0,0,0,1.1,1.9l20.375,11.793a5.289,5.289,0,0,0,5.282,0l29.107-16.752a2.4,2.4,0,0,0,1.2-2.08Z"/><path class="cls-6" d="M165.226,259.592,144.3,247.509a1.439,1.439,0,0,1,0-2.5l30.662-17.7a5.408,5.408,0,0,1,5.431,0l18.948,10.934a2.583,2.583,0,0,1,0,4.52l-29.19,16.855A4.929,4.929,0,0,1,165.226,259.592Z"/><path class="cls-5" d="M196.883,239.075l-16.791-9.687a5.482,5.482,0,0,0-5.489,0h0a1.821,1.821,0,0,0,0,3.158l16.791,9.687a5.482,5.482,0,0,0,5.489,0h0a1.82,1.82,0,0,0,0-3.158Z"/><path class="cls-4" d="M167.383,238.629l-3.591-2.073a.569.569,0,0,1,0-.982l3.591-2.073a.55.55,0,0,1,.562,0l3.59,2.073a.561.561,0,0,1,0,.982l-3.61,2.073A.578.578,0,0,1,167.383,238.629Z"/><path class="cls-4" d="M173.247,242.013l-3.591-2.073a.569.569,0,0,1,0-.982l3.591-2.073a.584.584,0,0,1,.562,0l3.59,2.073a.561.561,0,0,1,0,.982l-3.59,2.073A.579.579,0,0,1,173.247,242.013Z"/><path class="cls-4" d="M179.111,245.4l-3.591-2.073a.562.562,0,0,1,0-.975l3.591-2.073a.55.55,0,0,1,.562,0l3.59,2.073a.563.563,0,0,1,.209.767.571.571,0,0,1-.209.208l-3.59,2.073A.55.55,0,0,1,179.111,245.4Z"/><path class="cls-28" d="M184.975,248.781l-3.591-2.073a.561.561,0,0,1,0-.975l3.591-2.073a.548.548,0,0,1,.561,0l3.591,2.073a.562.562,0,0,1,0,.975l-3.584,2.073A.561.561,0,0,1,184.975,248.781Z"/><path class="cls-5" d="M161.468,242.045l-3.6-2.053a.562.562,0,0,1,0-.975l3.591-2.073a.545.545,0,0,1,.562,0l3.591,2.073a.561.561,0,0,1,.208.766.571.571,0,0,1-.208.209l-3.591,2.073A.549.549,0,0,1,161.468,242.045Z"/><path class="cls-5" d="M167.325,245.429l-3.591-2.073a.561.561,0,0,1-.208-.766.571.571,0,0,1,.208-.209l3.591-2.073a.55.55,0,0,1,.562,0l3.59,2.073a.561.561,0,0,1,0,.975l-3.59,2.073A.55.55,0,0,1,167.325,245.429Z"/><path class="cls-5" d="M173.189,248.82l-3.591-2.073a.562.562,0,0,1,0-.982l3.591-2.073a.584.584,0,0,1,.562,0l3.59,2.073a.568.568,0,0,1,.2.777.575.575,0,0,1-.2.205l-3.6,2.073A.581.581,0,0,1,173.189,248.82Z"/><path class="cls-5" d="M179.053,252.2l-3.591-2.073a.562.562,0,0,1,0-.982l3.591-2.073a.582.582,0,0,1,.561,0l3.591,2.073a.569.569,0,0,1,0,.982l-3.591,2.073A.548.548,0,0,1,179.053,252.2Z"/><path class="cls-5" d="M155.533,245.468l-3.591-2.073a.569.569,0,0,1,0-.982l3.591-2.073a.6.6,0,0,1,.568,0l3.591,2.073a.569.569,0,0,1,0,.982l-3.591,2.073A.591.591,0,0,1,155.533,245.468Z"/><path class="cls-5" d="M161.4,248.852l-3.591-2.073a.563.563,0,0,1-.209-.767.571.571,0,0,1,.209-.208l3.591-2.073a.561.561,0,0,1,.568,0l3.59,2.073a.562.562,0,0,1,.209.767.571.571,0,0,1-.209.208l-3.59,2.073A.561.561,0,0,1,161.4,248.852Z"/><path class="cls-5" d="M167.28,252.262l-3.591-2.073a.562.562,0,0,1-.208-.767.547.547,0,0,1,.208-.208l3.591-2.119a.565.565,0,0,1,.568,0l3.591,2.073a.563.563,0,0,1,.208.767.571.571,0,0,1-.208.209l-3.61,2.118A.564.564,0,0,1,167.28,252.262Z"/><path class="cls-31" d="M166.8,258.81l-3.074-1.776a.646.646,0,0,1-.217-.887.653.653,0,0,1,.217-.217l9-5.2a1.391,1.391,0,0,1,1.382,0l3.074,1.776a.646.646,0,0,1,0,1.1l-9,5.2A1.386,1.386,0,0,1,166.8,258.81Z"/><path class="cls-5" d="M149.611,248.884l-3.591-2.073a.563.563,0,0,1,0-.975l3.591-2.073a.55.55,0,0,1,.562,0l3.59,2.073a.563.563,0,0,1,.209.767.556.556,0,0,1-.209.208l-3.59,2.073A.55.55,0,0,1,149.611,248.884Z"/><path class="cls-5" d="M155.475,252.262l-3.591-2.073a.569.569,0,0,1,0-.982l3.591-2.073a.582.582,0,0,1,.561,0l3.591,2.073a.562.562,0,0,1,0,.982l-3.591,2.073A.582.582,0,0,1,155.475,252.262Z"/><path class="cls-5" d="M161.338,255.659l-3.59-2.073a.569.569,0,0,1-.2-.778.581.581,0,0,1,.2-.2l3.59-2.073a.584.584,0,0,1,.562,0l3.591,2.073a.563.563,0,0,1,0,.982l-3.591,2.073A.584.584,0,0,1,161.338,255.659Z"/><path class="cls-3" d="M93.988,164.207c0,2.474,3.765,4.469,8.4,4.469s8.395-1.995,8.395-4.469-3.765-4.462-8.395-4.462S93.988,161.747,93.988,164.207Z"/><path class="cls-30" d="M92.923,151.744,94.77,162.98c.168,2.622,3.545,4.663,7.543,4.663s7.375-2.041,7.542-4.663l1.847-11.236Z"/><path class="cls-4" d="M92.923,149.638v2.906c0,3.107,4.2,5.619,9.39,5.619s9.389-2.512,9.389-5.619v-2.906Z"/><ellipse class="cls-5" cx="102.313" cy="149.638" rx="9.39" ry="5.618"/><ellipse class="cls-10" cx="102.313" cy="149.638" rx="8.68" ry="4.663"/><ellipse class="cls-30" cx="102.313" cy="149.638" rx="8.68" ry="4.663"/><path class="cls-29" d="M102.313,148.159c-3.875,0-6.885,1.421-8.092,3.074,1.207,1.647,4.2,3.074,8.092,3.074s6.884-1.427,8.091-3.074C109.2,149.58,106.2,148.159,102.313,148.159Z"/><path class="cls-38" d="M98.651,140.707a8.092,8.092,0,0,1,.7-2.848,2.745,2.745,0,0,1,4.953-.355,7.812,7.812,0,0,1,1.13,2.951,37.751,37.751,0,0,1,.866,8.208,5.245,5.245,0,0,1-.646,2.887,3.8,3.8,0,0,1-3.229,1.53c-.879,0-2.893-.148-3.552-.826s-.446-2.487-.5-3.358A50.23,50.23,0,0,1,98.651,140.707Z"/><path class="cls-38" d="M96,143.768a6.188,6.188,0,0,1-.445-4.4c.122-.446.406-.956.865-.937a.833.833,0,0,1,.691.833,5.665,5.665,0,0,1-.155,1.182,2.672,2.672,0,0,0,1.291,2.583,11.785,11.785,0,0,1,1.389.7,1.807,1.807,0,0,1,.646,1.64C99.871,148.424,96.6,144.963,96,143.768Z"/><path class="cls-38" d="M107.531,145.118a5.607,5.607,0,0,0,1.73-3.32,1.482,1.482,0,0,0-.323-1.336,1.1,1.1,0,0,0-1.446.142,2.49,2.49,0,0,0-.646,1.446,8.031,8.031,0,0,1-.284,1.576,1.569,1.569,0,0,1-1.092,1.072c-.581.11-1.291-.239-1.737.11-.943.691-.045,1.718.762,1.743A4.985,4.985,0,0,0,107.531,145.118Z"/><path class="cls-3" d="M66.82,221.806h0a2.338,2.338,0,0,1,2.318,0l35.913,20.872a2.325,2.325,0,0,1,0,4.03h0a2.327,2.327,0,0,1-2.312,0L66.82,225.836a2.325,2.325,0,0,1,0-4.03Z"/><path class="cls-6" d="M100.705,238.545a1.476,1.476,0,0,1,.309-.064h0a1.105,1.105,0,0,1,.3,0h0a.948.948,0,0,1,.271.1L69.616,219.972h0l-.1-.052-.1-.032h-.491l-.161.039h-.136l-.09.032a2,2,0,0,0-.258.129,2.5,2.5,0,0,0-.356.246l-.109.09-.162.149-.071.077-.065.065-.071.077-.148.181-.052.071a.127.127,0,0,0,0,.039l-.051.064-.11.162-.1.161h0l-.078.129-.077.162c-.024.048-.046.1-.065.148h0a.639.639,0,0,1-.064.175c-.02.058-.045.116-.065.174a.461.461,0,0,0,0,.091v.1l-.058.213v.258a2.261,2.261,0,0,0,0,.368,1.293,1.293,0,0,0,.549,1.208l32.012,18.644a1.336,1.336,0,0,1-.549-1.214,2.537,2.537,0,0,1,.039-.426v-.071c.026-.138.058-.274.1-.407v-.039a3.665,3.665,0,0,1,.161-.439h0c.065-.148.142-.3.22-.439h0c.084-.136.168-.271.265-.4v-.033c.084-.116.18-.226.271-.329l.064-.071.239-.22.11-.1a2.494,2.494,0,0,1,.349-.246,2.1,2.1,0,0,1,.349-.155Z"/><path class="cls-4" d="M66.432,222.962V222.7l.058-.213v-.1a.451.451,0,0,1,0-.09.476.476,0,0,1,.065-.174c.026-.059.039-.117.064-.175h0a1.507,1.507,0,0,1,.065-.148l.077-.162.078-.129h0l.1-.161.11-.162.051-.064a.127.127,0,0,1,0-.039l.052-.071.148-.181.071-.078.065-.064.071-.078.162-.148.109-.091a2.417,2.417,0,0,1,.356-.245,1.882,1.882,0,0,1,.258-.129l.09-.032h.136l.161-.039h.491l.1.032.1.052h0l1.7.988H70.83l-.071.032h-.071l-.091.032a2.034,2.034,0,0,0-.284.142,2.83,2.83,0,0,0-.374.259l-.123.1-.174.155-.078.084-.064.071-.078.084-.161.194-.058.077v.039a.517.517,0,0,0-.052.071l-.116.174a1.463,1.463,0,0,0-.1.168h0l-.077.142c-.032.052-.058.11-.091.168l-.064.155h0c0,.065-.052.123-.071.181s-.052.129-.071.194a.676.676,0,0,0,0,.09v.116c0,.026-.039.155-.052.226,0,.048,0,.095,0,.143v.142a2.5,2.5,0,0,0,0,.387,1.883,1.883,0,0,0,.162.807L67,224.467a1.3,1.3,0,0,1-.549-1.208A2.454,2.454,0,0,1,66.432,222.962Z"/><path class="cls-10" d="M100.291,238.7a1.337,1.337,0,0,1,1.331-.135c.342.193,4.585,6.315,4.585,6.315s-6.891-1.53-7.233-1.724a1.294,1.294,0,0,1-.556-1.214A4.154,4.154,0,0,1,100.291,238.7Z"/><path class="cls-4" d="M104.47,242.426c.936,1.324,1.737,2.48,1.737,2.48L103.5,244.3C102.913,243.434,103.992,242.226,104.47,242.426Z"/></g></g></svg>