<svg height="480pt" viewBox="0 0 480 480" width="480pt" xmlns="http://www.w3.org/2000/svg"><path d="m432 216h-80c-8.835938 0-16 7.164062-16 16l-48 40h48v32c0 8.835938 7.164062 16 16 16h80c8.835938 0 16-7.164062 16-16v-72c0-8.835938-7.164062-16-16-16zm0 0" fill="#70dda8"/><path d="m88 374.664062 112 21.335938v-128l-112 21.335938zm0 0" fill="#70dda8"/><path d="m88 374.664062h-56c-13.253906 0-24-10.746093-24-24v-37.335937c0-13.253906 10.746094-24 24-24h56zm0 0" fill="#fd412d"/><path d="m40 376h40l16 88h-40zm0 0" fill="#faeed8"/><path d="m232 376 24 8" fill="#70dda8"/><path d="m368 288v-40l48 20zm0 0" fill="#fd412d"/><path d="m456 376h-96c-8.835938 0-16 7.164062-16 16v8h-40l40 40v16c0 8.835938 7.164062 16 16 16h96c8.835938 0 16-7.164062 16-16v-64c0-8.835938-7.164062-16-16-16zm0 0" fill="#faeed8"/><path d="m184 168c0 39.765625-32.234375 72-72 72s-72-32.234375-72-72 32.234375-72 72-72 72 32.234375 72 72zm0 0" fill="#70dda8"/><path d="m184 168c0 39.765625-32.234375 72-72 72s-72-32.234375-72-72 32.234375-72 72-72 72 32.234375 72 72zm0 0" fill="#faa108"/><path d="m288 168c0 13.253906-10.746094 24-24 24s-24-10.746094-24-24 10.746094-24 24-24 24 10.746094 24 24zm0 0" fill="#faa108"/><path d="m392 120c0 13.253906-10.746094 24-24 24s-24-10.746094-24-24 10.746094-24 24-24 24 10.746094 24 24zm0 0" fill="#faa108"/><g fill="#301993"><path d="m200 328c-4.417969 0-8 3.582031-8 8v15.664062l-96-18.289062v-13.375c0-4.417969-3.582031-8-8-8s-8 3.582031-8 8v12h-32c-4.417969 0-8 3.582031-8 8s3.582031 8 8 8h32v18.664062h-48c-8.835938 0-16-7.164062-16-16 0-4.417968-3.582031-8-8-8s-8 3.582032-8 8c0 17.671876 14.328125 32 32 32h1.089844l15.046875 82.769532c.691406 3.800781 4 6.5625 7.863281 6.566406h40c2.371094-.003906 4.621094-1.054688 6.136719-2.878906 1.519531-1.820313 2.152343-4.21875 1.726562-6.554688l-4.359375-24c-.886718-4.242187-4.996094-7.007812-9.261718-6.230468-4.269532.777343-7.136719 4.8125-6.472657 9.097656l2.628907 14.566406h-23.71875l-13.078126-72h23.742188l3.199219 17.433594c.890625 4.242187 4.996093 7.007812 9.265625 6.230468 4.265625-.777343 7.136718-4.8125 6.472656-9.097656l-2.816406-15.488281 109.078125 20.800781c2.339843.433594 4.75-.195312 6.578125-1.71875 1.828125-1.523437 2.882812-3.78125 2.878906-6.160156v-60c0-4.417969-3.582031-8-8-8zm-104 40.039062v-18.398437l96 18.359375v18.398438zm0 0"/><path d="m207.855469 266.496094c-.113281-.363282-.257813-.71875-.429688-1.054688-.132812-.4375-.304687-.859375-.515625-1.265625-.347656-.609375-.78125-1.171875-1.285156-1.664062-.164062-.234375-.335938-.460938-.519531-.679688-.089844-.0625-.210938-.078125-.296875-.144531-.648438-.460938-1.359375-.828125-2.113282-1.078125-.277343-.136719-.5625-.257813-.855468-.363281-1.09375-.269532-2.234375-.304688-3.34375-.101563l-111.257813 21.191407h-55.238281c-17.671875 0-32 14.328124-32 32 0 4.417968 3.582031 8 8 8s8-3.582032 8-8c0-8.835938 7.164062-16 16-16h56c.503906 0 1.003906-.050782 1.496094-.144532l102.503906-19.519531v18.328125c0 4.417969 3.582031 8 8 8s8-3.582031 8-8v-28c-.039062-.226562-.089844-.449219-.152344-.671875.019532-.277344.023438-.554687.007813-.832031zm0 0"/><path d="m272 320h-32c-4.417969 0-8 3.582031-8 8s3.582031 8 8 8h32c4.417969 0 8-3.582031 8-8s-3.582031-8-8-8zm0 0"/><path d="m232 288c.859375-.003906 1.714844-.140625 2.527344-.414062l24-8c4.199218-1.398438 6.46875-5.933594 5.074218-10.128907-1.398437-4.199219-5.933593-6.46875-10.128906-5.074219l-24 8c-3.765625 1.210938-6.082031 4.992188-5.449218 8.894532.632812 3.90625 4.019531 6.761718 7.976562 6.722656zm0 0"/><path d="m258.527344 376.414062-24-8c-4.195313-1.394531-8.730469.875-10.128906 5.074219-1.394532 4.195313.875 8.730469 5.074218 10.128907l24 8c4.195313 1.394531 8.730469-.875 10.128906-5.074219 1.394532-4.195313-.875-8.730469-5.074218-10.128907zm0 0"/><path d="m368 296c1.058594 0 2.105469-.210938 3.078125-.617188l48-20c2.980469-1.242187 4.921875-4.152343 4.921875-7.382812s-1.941406-6.140625-4.921875-7.382812l-48-20c-2.46875-1.03125-5.289063-.757813-7.515625.726562-2.226562 1.480469-3.5625 3.980469-3.5625 6.65625v40c0 4.417969 3.582031 8 8 8zm8-36 19.199219 8-19.199219 8zm0 0"/><path d="m344 272c0-4.417969-3.582031-8-8-8h-25.902344l31.03125-25.847656c1.824219-1.523438 2.875-3.777344 2.871094-6.152344 0-4.417969 3.582031-8 8-8h96c4.417969 0 8-3.582031 8-8s-3.582031-8-8-8h-96c-11.707031.015625-21.695312 8.460938-23.664062 20l-45.464844 37.878906c-2.566406 2.164063-3.511719 5.695313-2.367188 8.851563 1.148438 3.15625 4.140625 5.257812 7.496094 5.269531h48c4.417969 0 8-3.582031 8-8zm0 0"/><path d="m344 304c0-4.417969-3.582031-8-8-8s-8 3.582031-8 8c0 13.253906 10.746094 24 24 24h96c4.417969 0 8-3.582031 8-8s-3.582031-8-8-8h-96c-4.417969 0-8-3.582031-8-8zm0 0"/><path d="m456 368h-96c-13.253906 0-24 10.746094-24 24h-32c-3.234375 0-6.152344 1.949219-7.390625 4.9375s-.550781 6.429688 1.734375 8.71875l37.65625 37.65625v12.6875c0 13.253906 10.746094 24 24 24h96c13.253906 0 24-10.746094 24-24v-64c0-13.253906-10.746094-24-24-24zm8 88c0 4.417969-3.582031 8-8 8h-96c-4.417969 0-8-3.582031-8-8v-16c0-2.121094-.84375-4.15625-2.34375-5.65625l-26.34375-26.34375h20.6875c4.417969 0 8-3.582031 8-8v-8c0-4.417969 3.582031-8 8-8h96c4.417969 0 8 3.582031 8 8zm0 0"/><path d="m440 400h-48c-4.417969 0-8 3.582031-8 8s3.582031 8 8 8h48c4.417969 0 8-3.582031 8-8s-3.582031-8-8-8zm0 0"/><path d="m392 432h-16c-4.417969 0-8 3.582031-8 8s3.582031 8 8 8h16c4.417969 0 8-3.582031 8-8s-3.582031-8-8-8zm0 0"/><path d="m440 432h-16c-4.417969 0-8 3.582031-8 8s3.582031 8 8 8h16c4.417969 0 8-3.582031 8-8s-3.582031-8-8-8zm0 0"/><path d="m112 192c-4.417969 0-8-3.582031-8-8s-3.582031-8-8-8-8 3.582031-8 8c.042969 10.132812 6.445312 19.148438 16 22.527344v9.472656c0 4.417969 3.582031 8 8 8s8-3.582031 8-8v-9.472656c11.011719-3.878906 17.621094-15.132813 15.644531-26.640625-1.980469-11.507813-11.96875-19.910157-23.644531-19.886719-4.417969 0-8-3.582031-8-8s3.582031-8 8-8 8 3.582031 8 8 3.582031 8 8 8 8-3.582031 8-8c-.042969-10.132812-6.445312-19.148438-16-22.527344v-9.472656c0-4.417969-3.582031-8-8-8s-8 3.582031-8 8v9.472656c-11.011719 3.878906-17.621094 15.132813-15.644531 26.640625 1.980469 11.507813 11.96875 19.910157 23.644531 19.886719 4.417969 0 8 3.582031 8 8s-3.582031 8-8 8zm0 0"/><path d="m112 248c42.597656-.035156 77.699219-33.449219 79.832031-75.996094 2.132813-42.542968-29.449219-79.300781-71.832031-83.597656v-16.40625c0-4.417969-3.582031-8-8-8s-8 3.582031-8 8v24c0 4.417969 3.582031 8 8 8 35.347656 0 64 28.652344 64 64s-28.652344 64-64 64-64-28.652344-64-64v-40c0-4.417969-3.582031-8-8-8s-8 3.582031-8 8v40c.046875 44.164062 35.835938 79.953125 80 80zm0 0"/><path d="m112 48c4.417969 0 8-3.582031 8-8v-32c0-4.417969-3.582031-8-8-8s-8 3.582031-8 8v32c0 4.417969 3.582031 8 8 8zm0 0"/><path d="m168 88c4.417969 0 8-3.582031 8-8v-24c0-4.417969-3.582031-8-8-8s-8 3.582031-8 8v24c0 4.417969 3.582031 8 8 8zm0 0"/><path d="m56 88c4.417969 0 8-3.582031 8-8v-24c0-4.417969-3.582031-8-8-8s-8 3.582031-8 8v24c0 4.417969 3.582031 8 8 8zm0 0"/><path d="m64 24c0 4.417969-3.582031 8-8 8s-8-3.582031-8-8 3.582031-8 8-8 8 3.582031 8 8zm0 0"/><path d="m176 16c0 4.417969-3.582031 8-8 8s-8-3.582031-8-8 3.582031-8 8-8 8 3.582031 8 8zm0 0"/><path d="m264 200c17.671875 0 32-14.328125 32-32 0-4.417969-3.582031-8-8-8s-8 3.582031-8 8c0 8.835938-7.164062 16-16 16s-16-7.164062-16-16 7.164062-16 16-16c4.417969 0 8-3.582031 8-8s-3.582031-8-8-8c-17.671875 0-32 14.328125-32 32s14.328125 32 32 32zm0 0"/><path d="m264 120c4.417969 0 8-3.582031 8-8v-24c0-4.417969-3.582031-8-8-8s-8 3.582031-8 8v24c0 4.417969 3.582031 8 8 8zm0 0"/><path d="m264 64c4.417969 0 8-3.582031 8-8v-24c0-4.417969-3.582031-8-8-8s-8 3.582031-8 8v24c0 4.417969 3.582031 8 8 8zm0 0"/><path d="m376 8c0 4.417969-3.582031 8-8 8s-8-3.582031-8-8 3.582031-8 8-8 8 3.582031 8 8zm0 0"/><path d="m368 152c17.671875 0 32-14.328125 32-32 0-4.417969-3.582031-8-8-8s-8 3.582031-8 8c0 8.835938-7.164062 16-16 16s-16-7.164062-16-16 7.164062-16 16-16c4.417969 0 8-3.582031 8-8v-24c0-4.417969-3.582031-8-8-8s-8 3.582031-8 8v17.015625c-15.601562 4.027344-25.777344 19.03125-23.746094 35.015625 2.03125 15.988281 15.632813 27.96875 31.746094 27.96875zm0 0"/><path d="m376 40c0 4.417969-3.582031 8-8 8s-8-3.582031-8-8 3.582031-8 8-8 8 3.582031 8 8zm0 0"/></g></svg>