<svg id="Layer_1" data-name="Layer 1" xmlns="http://www.w3.org/2000/svg" viewBox="0 0 1920 1080"><defs><style>.cls-1{fill:#138690;stroke:#138690;stroke-miterlimit:10;}</style></defs><title>Logo</title><rect class="cls-1" x="1050.93" y="463.3" width="95.71" height="26.71" rx="12" ry="12"/><rect class="cls-1" x="1078.75" y="514.49" width="110.18" height="26.71" rx="12" ry="12"/><rect class="cls-1" x="1063.17" y="562.35" width="74.57" height="26.71" rx="12" ry="12"/><rect class="cls-1" x="1148.87" y="562.35" width="31.16" height="26.71" rx="12" ry="12"/><rect class="cls-1" x="1152.21" y="463.3" width="31.16" height="26.71" rx="12" ry="12"/><rect class="cls-1" x="1197.84" y="463.3" width="31.16" height="26.71" rx="12" ry="12"/><rect class="cls-1" x="941.86" y="725.95" width="37.84" height="26.71" rx="12" ry="12"/><circle class="cls-1" cx="841.14" cy="399.3" r="10.57"/><circle class="cls-1" cx="875.64" cy="417.11" r="10.57"/><circle class="cls-1" cx="910.14" cy="433.8" r="10.57"/><circle class="cls-1" cx="944.65" cy="451.61" r="10.57"/><circle class="cls-1" cx="910.14" cy="469.42" r="10.57"/><circle class="cls-1" cx="875.64" cy="486.11" r="10.57"/><circle class="cls-1" cx="841.14" cy="503.92" r="10.57"/><circle class="cls-1" cx="944.65" cy="485" r="10.57"/><circle class="cls-1" cx="944.65" cy="515.05" r="10.57"/><circle class="cls-1" cx="944.65" cy="546.21" r="10.57"/><circle class="cls-1" cx="944.65" cy="576.26" r="10.57"/><circle class="cls-1" cx="944.65" cy="607.42" r="10.57"/><circle class="cls-1" cx="910.14" cy="625.23" r="10.57"/><circle class="cls-1" cx="875.64" cy="641.92" r="10.57"/><circle class="cls-1" cx="841.14" cy="659.73" r="10.57"/><path class="cls-1" d="M790.5,306.37v438.5c3.34,37.84,36.73,59,59,57.87,20.59.56,171.39,0,221.47,0,49-3.34,59-45.63,60.38-58.71.83-7,0-122.7,0-122.7s-3.62-12.24-15.86-12.24c-13.36,0-16.69,10-17.25,13.91s.56,96.27,0,118.53-24.48,28.38-28.66,28.66-204.5,0-220.08-.83C836.13,768.24,825,754.88,824,744.73c-3.48-13.22,0-418.32-.14-436.13,1.11-14.47,14.47-24.48,23.37-25.6,6.68-1.11,30,0,33.39,0-2.23,21.15,14.47,27.82,21.15,28.94,11.13,1.11,91.26,0,113.52,0,22.26-1.11,23.37-18.92,24.48-28.94h33.39c17.81,3.34,23.37,18.92,24.48,23.37,2.23,7.79,0,118,0,120.2s2.23,14.47,17.81,15.58c16.69-2.23,16.69-17.81,16.69-17.81s-1.11-106.84-1.11-116.86c0-4.45-4.45-50.08-57.87-59H853.94C806.09,248.5,790.5,296.36,790.5,306.37Z"/><path class="cls-1" d="M653.61,448.83c-.74,92.75-1.2,160.91-1.11,162.49a8.63,8.63,0,0,0,1,3.64h0a11.41,11.41,0,0,0,1.2,1.93,13.75,13.75,0,0,0,2.23,2.23C659.45,621,785.13,684.29,790.5,687V649.16L687,596.85V480l103.5,51.19V493.35L707,451.05l83.47-41.18V372L664.74,434.36c-6.68,3.34-8.48,7-8.9,7.79A21.35,21.35,0,0,0,653.61,448.83Z"/></svg>