<svg id="Layer_1" data-name="Layer 1" xmlns="http://www.w3.org/2000/svg" viewBox="0 0 1920 1080"><defs><style>.cls-1{fill:#138690;stroke:#138690;stroke-miterlimit:10;}</style></defs><title>logo</title><path class="cls-1" d="M920.34,404a98.24,98.24,0,0,0-98.07,98.13V512a9.8,9.8,0,0,0-9.8,9.81v58.93a9.81,9.81,0,0,0,9.8,9.81,117.75,117.75,0,0,0,58.88,101.81v25.76H851.72A68.78,68.78,0,0,0,783,786.76v29.42a9.81,9.81,0,0,0,19.63,0V786.76a49.12,49.12,0,0,1,49.07-49.06h35.19l16.75,16.74a6.1,6.1,0,0,0,.53.34,9.4,9.4,0,0,0,2.12,1.41c.31.16.61.34.93.47a9.35,9.35,0,0,0,6.47.14L940,748l26.34,8.78a9.35,9.35,0,0,0,6.47-.14,10.37,10.37,0,0,0,.93-.47,9.29,9.29,0,0,0,2.12-1.41c.17-.15.37-.2.53-.34l16.75-16.74,35.18,0a49.12,49.12,0,0,1,49.07,49.06v29.42a9.81,9.81,0,0,0,19.63,0V786.76a68.78,68.78,0,0,0-68.7-68.69H998.92V692.33a117.75,117.75,0,0,0,58.88-101.81,9.81,9.81,0,0,0,9.8-9.81V521.77a9.8,9.8,0,0,0-9.8-9.81v-9.79a58.91,58.91,0,0,0-49.07-58V413.84a9.8,9.8,0,0,0-9.81-9.81H920.34ZM1048,531.59v39.3h-9.79v-39.3Zm-29.42,49.12a9.82,9.82,0,0,1-9.81,9.81H871.33a9.82,9.82,0,0,1-9.81-9.81V521.77a9.82,9.82,0,0,1,9.81-9.81h137.41a9.82,9.82,0,0,1,9.81,9.81Zm-176.67-9.81H832.1v-39.3h9.79ZM979.3,723.84,966.82,736.3l-23.68-7.9a9.78,9.78,0,0,0-1.06-.14,9.45,9.45,0,0,0-2-.26,10.2,10.2,0,0,0-2.05.26,9.61,9.61,0,0,0-1.05.14l-23.68,7.9-12.47-12.46V701.38a115.59,115.59,0,0,0,78.51,0ZM940,688.63a98.25,98.25,0,0,1-98.14-98.11h1.81a29.4,29.4,0,0,0,27.63,19.63h137.41a29.39,29.39,0,0,0,27.63-19.63h1.81A98.25,98.25,0,0,1,940,688.63Zm98.14-186.46V512h-1.81a29.4,29.4,0,0,0-27.63-19.63H871.33A29.39,29.39,0,0,0,843.71,512H841.9v-9.79a78.59,78.59,0,0,1,78.51-78.5h68.7V453.1a9.8,9.8,0,0,0,9.81,9.81,39.29,39.29,0,0,1,39.26,39.26Z"/><path class="cls-1" d="M1244.27,512H1097.06a9.8,9.8,0,0,0-9.81,9.81V659.19a9.8,9.8,0,0,0,9.81,9.81h147.21a9.8,9.8,0,0,0,9.81-9.81V521.79A9.8,9.8,0,0,0,1244.27,512Zm-9.81,19.63v9.81H1106.87v-9.81ZM1106.87,649.37V561h127.58v88.32Z"/><path class="cls-1" d="M1205,580.68h-67.88a9.81,9.81,0,0,0,0,19.63H1205a9.81,9.81,0,0,0,0-19.63Z"/><path class="cls-1" d="M1175.57,610.12h-38.44a9.81,9.81,0,0,0,0,19.63h38.44a9.81,9.81,0,0,0,0-19.63Z"/><path class="cls-1" d="M806.23,289.15l0,0A98,98,0,0,0,651.27,397.28a9.94,9.94,0,0,0,.43,1.18A98.08,98.08,0,1,0,806.23,289.15Zm-42.84,36.37a9.81,9.81,0,0,1,0-19.63h32.12a79,79,0,0,1,16.14,19.63ZM704.51,404a9.81,9.81,0,0,1,0,19.63H692A79,79,0,0,1,675.87,404Zm39.26,39.26a78,78,0,0,1-24.66-4,29.34,29.34,0,0,0-14.59-54.86H667.85A78,78,0,0,1,756,287.31a29.38,29.38,0,0,0,7.39,57.83h56.29a78.18,78.18,0,0,1-75.92,98.14Z"/><path class="cls-1" d="M635.81,669H783a10,10,0,0,0,3.38-.68,10.53,10.53,0,0,0,1-.48,8.5,8.5,0,0,0,1.05-.49c.26-.19.41-.46.65-.65a8.93,8.93,0,0,0,1.42-1.43,8.8,8.8,0,0,0,1.71-3.2,9.78,9.78,0,0,0,.4-2c0-.31.19-.59.19-.91V541.42a9.8,9.8,0,0,0-9.81-9.81H635.81a9.8,9.8,0,0,0-9.81,9.81V659.19A9.8,9.8,0,0,0,635.81,669Zm58.88-32.72,7,9.38-2.47,3.71H684.88ZM743.77,618l20.92,31.37H722.84Zm-98.14-66.76H773.21v75.54L752,594.92l0,0,0,0a8.44,8.44,0,0,0-1-1,9.21,9.21,0,0,0-1.69-1.7h0a9.79,9.79,0,0,0-3.54-1.44,181,181,0,0,0-3.77,0,9.81,9.81,0,0,0-3.54,1.45h0a8,8,0,0,0-.91.91,9.36,9.36,0,0,0-1.82,1.82l0,0,0,0-22.29,33.43L702.55,614a7.77,7.77,0,0,0-1-.93,9.21,9.21,0,0,0-.92-1c-.16-.12-.34-.14-.5-.24a10.38,10.38,0,0,0-1.88-.9,9.88,9.88,0,0,0-1.62-.56,9.16,9.16,0,0,0-1.94-.11,9.76,9.76,0,0,0-1.78.1,8.92,8.92,0,0,0-1.74.61,10.09,10.09,0,0,0-1.81.85c-.17.12-.35.14-.51.25a10.27,10.27,0,0,0-.93,1,9.3,9.3,0,0,0-1,.93l-26.5,35.33H645.63Z"/><path class="cls-1" d="M675.36,590.49a9.81,9.81,0,1,0,0-19.63h-.1a9.81,9.81,0,0,0,.1,19.63Z"/><path class="cls-1" d="M1136.32,247h-98.14a9.8,9.8,0,0,0-9.81,9.81V355a9.8,9.8,0,0,0,9.81,9.81h98.14a9.8,9.8,0,0,0,9.81-9.81V256.82A9.8,9.8,0,0,0,1136.32,247Zm-9.81,98.14H1048V266.64h78.51Z"/><path class="cls-1" d="M1106.87,394.21v49.07a9.8,9.8,0,0,0,9.81,9.81h49.07a9.8,9.8,0,0,0,9.81-9.81V394.21a9.8,9.8,0,0,0-9.81-9.81h-49.07A9.8,9.8,0,0,0,1106.87,394.21ZM1126.5,404h29.44v29.44H1126.5Z"/><path class="cls-1" d="M989.11,345.15a9.8,9.8,0,0,0,9.81-9.81V296.08a9.8,9.8,0,0,0-9.81-9.81H949.85a9.8,9.8,0,0,0-9.81,9.81v39.26a9.8,9.8,0,0,0,9.81,9.81Zm-29.44-39.26H979.3v19.63H959.67Z"/><path class="cls-1" d="M989.11,541.43H891a9.81,9.81,0,0,0,0,19.63h98.14a9.81,9.81,0,1,0,0-19.63Z"/></svg>