<?xml version="1.0" encoding="utf-8"?>
<!-- Generator: Adobe Illustrator 22.0.1, SVG Export Plug-In . SVG Version: 6.00 Build 0)  -->
<svg version="1.1" id="Layer_1" xmlns="http://www.w3.org/2000/svg" xmlns:xlink="http://www.w3.org/1999/xlink" x="0px" y="0px"
	 viewBox="0 0 200 200" style="enable-background:new 0 0 200 200;" xml:space="preserve">
<style type="text/css">
	.st0{fill:#138690;}
</style>
<g>
	<g>
		<g>
			<path class="st0" d="M43.8,137.8c13.9,0,24.9-0.4,35.9,0.1c10.5,0.5,13.7-3.8,10.1-14.8c-13.5,0-27.4,0-42.2,0
				c0.4-10.8,3.9-15.2,14.3-15c21.5,0.6,43,0.2,64.6,0.2c-0.4-12.8-5.9-17-17.3-16.4c-15.5,0.8-31.1,0.2-46.7,0.2
				C63.9,72.5,76.1,50,85.5,49c30-3,35.4-1.2,39.8,12.1c-12.1,8.2-33.7-9.4-41.5,17.3c14.1,0,26.5,0.5,38.7-0.2
				c8.7-0.5,13.9,2.1,17,10.8c3.8,10.7,8.9,20.9,14.4,33.4c-16.3,0-30.2,0-43.7,0c-2.6,15.2-2.6,15.3,14.5,15.4c9,0.1,18,0,27.6,0
				C138,161.4,77.1,168.7,43.8,137.8z"/>
			<path class="st0" d="M171.5,120.5C153.4,79.9,136.2,41.2,117.9,0c32,8.9,54.4,25.5,63.5,55.5C188,77.4,187.2,99.4,171.5,120.5z"
				/>
			<path class="st0" d="M81.2,1.4C63.4,41.2,46,80.1,28.3,119.7C-0.5,84.2,16.4,14,81.2,1.4z"/>
			<path class="st0" d="M99.9,0.4c5.2,12,9.1,20.9,13.6,31.4c-9.8,0-18.3,0-27.9,0C90.1,21.8,94.3,12.5,99.9,0.4z"/>
		</g>
	</g>
	<g>
		<path class="st0" d="M30.4,194.1l-1,5.6H25l5.1-24.4h5.4l4.5,24.4h-4.4l-1-5.6H30.4z M34.2,190.4l-0.8-5.1
			c-0.2-1.5-0.6-3.9-0.8-5.5h-0.1c-0.2,1.6-0.6,4.2-0.8,5.6l-0.9,5.1L34.2,190.4L34.2,190.4z"/>
		<path class="st0" d="M42,194.8c0.9,0.5,2.5,0.9,3.8,0.9c2.1,0,3.2-1.2,3.2-2.8c0-1.8-1-2.6-3-4c-3.2-2-4.4-4.6-4.4-6.8
			c0-3.9,2.5-7.2,7.4-7.2c1.5,0,3,0.4,3.7,0.9l-0.7,4.1c-0.7-0.4-1.7-0.8-3-0.8c-1.9,0-2.9,1.2-2.9,2.5c0,1.5,0.7,2.2,3.2,3.8
			c3.1,2,4.2,4.4,4.2,7c0,4.5-3.1,7.4-7.7,7.4c-1.9,0-3.7-0.5-4.5-1L42,194.8z"/>
		<path class="st0" d="M60.7,175.3v24.4h-4.5v-24.4H60.7z"/>
		<path class="st0" d="M68.5,194.1l-1,5.6h-4.4l5.1-24.4h5.4l4.5,24.4h-4.4l-1-5.6H68.5z M72.2,190.4l-0.8-5.1
			c-0.2-1.5-0.6-3.9-0.8-5.5h-0.1c-0.2,1.6-0.6,4.2-0.8,5.6l-0.9,5.1L72.2,190.4L72.2,190.4z"/>
		<path class="st0" d="M88.2,179.7h-4.1v-4.4h12.8v4.4h-4.2v20h-4.5L88.2,179.7L88.2,179.7z"/>
		<path class="st0" d="M112.6,187c0,9.2-3.1,12.9-7.5,12.9c-5.3,0-7.4-5.9-7.4-12.6c0-6.7,2.5-12.4,7.7-12.4
			C111,175,112.6,181.5,112.6,187z M102.4,187.5c0,5.5,1,8.4,2.8,8.4c1.9,0,2.6-3.6,2.6-8.6c0-4.3-0.6-8.2-2.7-8.2
			C103.4,179.1,102.4,182.2,102.4,187.5z"/>
		<path class="st0" d="M124.7,194.1l-1,5.6h-4.4l5.1-24.4h5.4l4.5,24.4h-4.4l-1-5.6H124.7z M128.5,190.4l-0.8-5.1
			c-0.2-1.5-0.6-3.9-0.8-5.5h-0.1c-0.2,1.6-0.6,4.2-0.8,5.6l-0.9,5.1L128.5,190.4L128.5,190.4z"/>
		<path class="st0" d="M136.3,194.8c0.9,0.5,2.5,0.9,3.8,0.9c2.1,0,3.2-1.2,3.2-2.8c0-1.8-1-2.6-3-4c-3.2-2-4.4-4.6-4.4-6.8
			c0-3.9,2.5-7.2,7.4-7.2c1.5,0,3,0.4,3.7,0.9l-0.7,4.1c-0.7-0.4-1.7-0.8-3-0.8c-1.9,0-2.9,1.2-2.9,2.5c0,1.5,0.7,2.2,3.2,3.8
			c3.1,2,4.2,4.4,4.2,7c0,4.5-3.1,7.4-7.7,7.4c-1.9,0-3.7-0.5-4.5-1L136.3,194.8z"/>
		<path class="st0" d="M155,175.3v24.4h-4.5v-24.4H155z"/>
		<path class="st0" d="M162.8,194.1l-1,5.6h-4.4l5.1-24.4h5.4l4.5,24.4H168l-1-5.6H162.8z M166.5,190.4l-0.8-5.1
			c-0.2-1.5-0.6-3.9-0.8-5.5h-0.1c-0.2,1.6-0.6,4.2-0.8,5.6l-0.9,5.1L166.5,190.4L166.5,190.4z"/>
	</g>
</g>
</svg>
