<svg width="25" height="25" viewBox="0 0 25 25" fill="none" xmlns="http://www.w3.org/2000/svg">
<path d="M12.5 24C18.8513 24 24 18.8513 24 12.5C24 6.14873 18.8513 1 12.5 1C6.14872 1 1 6.14873 1 12.5C1 18.8513 6.14872 24 12.5 24Z" stroke="#303030" stroke-miterlimit="10"/>
<g clip-path="url(#clip0)">
<path d="M18.6591 7.73401C18.4318 7.50667 18.1585 7.39307 17.8393 7.39307H7.16074C6.84155 7.39307 6.56825 7.50667 6.34094 7.73401C6.1136 7.96129 6 8.23457 6 8.55381V16.4467C6 16.766 6.1136 17.0391 6.34094 17.2663C6.56823 17.4938 6.84153 17.6074 7.16074 17.6074H17.8394C18.1585 17.6074 18.4318 17.4938 18.6591 17.2663C18.8865 17.0391 19 16.7659 19 16.4467V8.55381C19 8.23457 18.8865 7.96129 18.6591 7.73401ZM18.0713 16.4465C18.0713 16.5094 18.0484 16.5638 18.0024 16.6098C17.9564 16.6558 17.902 16.6785 17.8393 16.6785H7.16067C7.0978 16.6785 7.04338 16.6558 6.99746 16.6098C6.9515 16.5638 6.92855 16.5094 6.92855 16.4465V10.8752C7.08329 11.0493 7.25016 11.2089 7.42911 11.3539C8.72529 12.3502 9.7554 13.1675 10.5196 13.8059C10.7662 14.0139 10.9669 14.1759 11.1217 14.292C11.2764 14.4081 11.4856 14.5254 11.7491 14.6438C12.0127 14.7624 12.2606 14.8215 12.4927 14.8215H12.5H12.5072C12.7393 14.8215 12.9873 14.7624 13.2508 14.6438C13.5144 14.5254 13.7237 14.4082 13.8784 14.292C14.0331 14.1759 14.2339 14.0139 14.4806 13.8059C15.2447 13.1675 16.2747 12.3502 17.5709 11.3539C17.7499 11.2089 17.9168 11.0493 18.0713 10.8752V16.4465ZM18.0713 8.74237V8.82215C18.0713 9.10747 17.959 9.42549 17.7341 9.77609C17.5092 10.1267 17.2661 10.406 17.0051 10.6139C16.0716 11.3492 15.1021 12.1156 14.0959 12.9136C14.0669 12.9378 13.9822 13.0091 13.8419 13.1275C13.7018 13.2461 13.5905 13.3369 13.5083 13.3997C13.4259 13.4626 13.3184 13.5388 13.1855 13.6282C13.0524 13.7176 12.9304 13.7842 12.8191 13.8277C12.7079 13.871 12.6039 13.8928 12.5072 13.8928H12.5H12.4927C12.396 13.8928 12.2921 13.871 12.1808 13.8277C12.0696 13.7842 11.9475 13.7176 11.8145 13.6282C11.6816 13.5388 11.574 13.4626 11.4917 13.3997C11.4096 13.3369 11.2983 13.2461 11.1581 13.1275C11.0178 13.0091 10.9331 12.9378 10.9041 12.9136C9.89817 12.1156 8.92853 11.3492 7.99508 10.6139C7.2841 10.053 6.92868 9.36619 6.92868 8.55368C6.92868 8.49087 6.95162 8.43642 6.99759 8.39053C7.04356 8.34456 7.09793 8.32157 7.16079 8.32157H17.8394C17.878 8.34329 17.9119 8.34934 17.941 8.33973C17.97 8.32995 17.9917 8.34814 18.0062 8.39406C18.0207 8.44002 18.034 8.46175 18.0461 8.45936C18.0582 8.45692 18.0655 8.48713 18.0679 8.5501C18.0701 8.61293 18.0714 8.64457 18.0714 8.64457V8.74237H18.0713Z" fill="black"/>
</g>
<defs>
<clipPath id="clip0">
<rect x="6" y="6" width="13" height="13" fill="white"/>
</clipPath>
</defs>
</svg>
