<?xml version="1.0" encoding="utf-8"?>
<!-- Generator: Adobe Illustrator 22.0.1, SVG Export Plug-In . SVG Version: 6.00 Build 0)  -->
<svg version="1.1" id="Layer_1" xmlns="http://www.w3.org/2000/svg" xmlns:xlink="http://www.w3.org/1999/xlink" x="0px" y="0px"
	 viewBox="0 0 512 512" style="enable-background:new 0 0 512 512;" xml:space="preserve">
<style type="text/css">
	.st0{fill:#FFFFFF;}
</style>
<g>
	<path class="st0" d="M276,406h-48c-8,0-14.6-6.5-14.6-14.6V283.1h-28c-8,0-14.6-6.5-14.6-14.6v-46.4c0-8,6.5-14.6,14.6-14.6h28
		v-23.3c0-23.1,7.2-42.7,20.9-56.7c13.8-14.1,33-21.6,55.6-21.6l36.6,0.1c8,0,14.5,6.5,14.5,14.6v43.1c0,8-6.5,14.6-14.5,14.6
		l-24.7,0c-7.5,0-9.4,1.5-9.8,2c-0.7,0.8-1.5,2.9-1.5,8.9v18.4h34.1c2.6,0,5.1,0.6,7.2,1.8c4.6,2.6,7.5,7.5,7.5,12.7l0,46.4
		c0,8-6.5,14.5-14.6,14.5h-34.3v108.4C290.6,399.5,284.1,406,276,406z M231,388.4h42V275.2c0-5.4,4.4-9.7,9.7-9.7h39.1l0-40.4h-39.1
		c-5.4,0-9.7-4.4-9.7-9.7v-26.2c0-6.9,0.7-14.7,5.9-20.6c6.3-7.1,16.1-7.9,23-7.9l21.6,0v-37l-33.6-0.1c-36.3,0-58.9,23.3-58.9,60.7
		v31.1c0,5.4-4.4,9.7-9.7,9.7h-32.9v40.4h32.9c5.4,0,9.7,4.4,9.7,9.7V388.4z M326.6,123.6L326.6,123.6L326.6,123.6z"/>
	<path class="st0" d="M256,0C114.6,0,0,114.6,0,256s114.6,256,256,256s256-114.6,256-256S397.4,0,256,0z M424.3,424.3
		c-21.9,21.9-47.3,39-75.7,51C319.3,487.7,288.1,494,256,494c-32.1,0-63.3-6.3-92.6-18.7c-28.3-12-53.8-29.1-75.7-51
		c-21.9-21.9-39-47.3-51-75.7C24.3,319.3,18,288.1,18,256c0-32.1,6.3-63.3,18.7-92.6c12-28.3,29.1-53.8,51-75.7
		c21.9-21.9,47.3-39,75.7-51C192.7,24.3,223.9,18,256,18c32.1,0,63.3,6.3,92.6,18.7c28.3,12,53.8,29.1,75.7,51s39,47.3,51,75.7
		c12.4,29.3,18.7,60.5,18.7,92.6c0,32.1-6.3,63.3-18.7,92.6C463.3,377,446.2,402.4,424.3,424.3z"/>
</g>
</svg>
