<?xml version="1.0" encoding="utf-8"?>
<!-- Generator: Adobe Illustrator 22.0.1, SVG Export Plug-In . SVG Version: 6.00 Build 0)  -->
<svg version="1.1" id="Layer_1" xmlns="http://www.w3.org/2000/svg" xmlns:xlink="http://www.w3.org/1999/xlink" x="0px" y="0px"
	 viewBox="0 0 200 110.3" style="enable-background:new 0 0 200 110.3;" xml:space="preserve">
<style type="text/css">
	.st0{fill:#138690;}
</style>
<g>
	<g>
		<g>
			<polygon class="st0" points="22.9,68 22.9,110.1 30.2,110.1 30.2,74.6 			"/>
			<polygon class="st0" points="38.4,81.9 38.4,110.1 45.7,110.1 45.7,88.6 			"/>
			<polygon class="st0" points="40.7,68 78.9,26.6 78.9,0 73.2,0 24.1,53 			"/>
			<polygon class="st0" points="78.9,102.3 78.9,44.2 49.6,75.9 			"/>
			<polygon class="st0" points="7.4,71.2 7.4,110.1 14.8,110.1 14.8,63.2 			"/>
			<polygon class="st0" points="0.1,0 0.1,59.4 54.9,0 			"/>
			<polygon class="st0" points="53.9,95.9 53.9,110.1 61.2,110.1 61.2,102.5 			"/>
		</g>
		<polygon class="st0" points="69.3,110.1 69.6,110.1 69.3,109.8 		"/>
		<g>
			<polygon class="st0" points="16,61.8 14.8,63.2 14.8,110.1 22.9,110.1 22.9,68 			"/>
			<polygon class="st0" points="0.1,79.1 0.1,110.1 7.4,110.1 7.4,71.2 			"/>
			<polygon class="st0" points="30.2,74.6 30.2,110.1 38.4,110.1 38.4,81.9 			"/>
			<polygon class="st0" points="45.7,88.6 45.7,110.1 53.9,110.1 53.9,95.9 			"/>
			<polygon class="st0" points="61.2,102.5 61.2,110.1 69.3,110.1 69.3,109.8 			"/>
		</g>
	</g>
	<g>
		<g>
			<path class="st0" d="M87.8,34.1v6.3h1.4v0.9h-4.9v-0.9h1.4V28h-1.4v-0.9h4.9V28h-1.4V34.1l5.3-6.1h-1.4v-0.9h3.8V28h-1l-4.8,5.6
				l0.1,0.1l6.1,6.8h0.8v0.9h-4.6v-0.9h1.2L87.8,34.1z"/>
			<path class="st0" d="M101.5,30.9v9.6h1.4v1h-4.8v-1h1.4v-8.6h-1.4v-1H101.5z M99.5,29v-1.9h1.9V29H99.5z"/>
			<path class="st0" d="M108,33.7v6.7h1.4v1h-4.8v-1h1.4v-8.6h-1.4v-1h3.4v2c0.9-1.5,2-2.2,3.4-2.2c0.2,0,0.4,0,0.6,0.1v2.6h-1.2
				v-1.1h-0.3C109.8,32.3,108.9,32.8,108,33.7z"/>
			<path class="st0" d="M117.1,30.9v9.6h1.4v1h-4.8v-1h1.4v-8.6h-1.4v-1H117.1z M115.2,29v-1.9h1.9V29H115.2z"/>
			<path class="st0" d="M123.7,33.7v6.7h1.4v1h-4.8v-1h1.4v-8.6h-1.4v-1h3.4v2c0.9-1.5,2-2.2,3.4-2.2c0.2,0,0.4,0,0.6,0.1v2.6h-1.2
				v-1.1h-0.3C125.4,32.3,124.6,32.8,123.7,33.7z"/>
			<path class="st0" d="M134.7,41.6c-1.5,0-2.8-0.5-3.7-1.5c-0.9-1-1.3-2.3-1.3-4s0.4-3,1.3-4s2.1-1.5,3.7-1.5s2.8,0.5,3.7,1.5
				c0.9,1,1.3,2.3,1.3,4s-0.4,3-1.3,4C137.4,41.1,136.2,41.6,134.7,41.6z M134.7,40.7c0.9,0,1.6-0.4,2.1-1.3
				c0.6-0.9,0.8-1.9,0.8-3.3c0-1.3-0.3-2.4-0.8-3.3c-0.6-0.9-1.3-1.3-2.1-1.3c-0.9,0-1.6,0.4-2.1,1.3c-0.6,0.9-0.8,1.9-0.8,3.3
				c0,1.3,0.3,2.4,0.8,3.3C133.1,40.3,133.8,40.7,134.7,40.7z"/>
			<path class="st0" d="M145.2,32.9c0.6-0.7,1.1-1.3,1.7-1.7s1.2-0.6,1.9-0.6c0.8,0,1.4,0.2,1.8,0.6s0.7,0.9,0.9,1.7h0.1
				c0.6-0.7,1.1-1.3,1.7-1.7s1.2-0.6,1.9-0.6c0.9,0,1.6,0.3,2.1,0.8s0.8,1.3,0.8,2.3v6.7h1.4v1h-4.8v-1h1.4v-6.3
				c0-0.7-0.1-1.2-0.4-1.5c-0.2-0.3-0.6-0.5-1.1-0.5s-1,0.1-1.5,0.4c-0.5,0.3-1,0.7-1.6,1.3v6.7h1.4v1h-4.8v-1h1.4v-6.4
				c0-0.7-0.1-1.2-0.4-1.5c-0.2-0.3-0.6-0.5-1.1-0.5s-1,0.1-1.5,0.4c-0.5,0.3-1.1,0.7-1.6,1.3v6.7h1.4v1h-4.8v-1h1.4v-8.6h-1.4v-1
				h3.4v2H145.2z"/>
		</g>
		<g>
			<path class="st0" d="M87.9,59.9v12.4h1.4v0.9h-4.9v-0.9h1.4V59.9h-1.4V59h4.9v0.9H87.9z"/>
			<path class="st0" d="M94.6,64.7c0.5-0.7,1-1.3,1.7-1.7c0.6-0.4,1.3-0.6,2.1-0.6c0.9,0,1.6,0.3,2.1,0.9c0.5,0.6,0.8,1.4,0.8,2.5
				v6.5h1.4v1h-4.8v-1h1.4v-6.2c0-0.8-0.1-1.4-0.4-1.7c-0.2-0.3-0.7-0.5-1.3-0.5c-0.5,0-1.1,0.1-1.6,0.4c-0.5,0.3-1,0.7-1.6,1.3v6.7
				h1.4v1H91v-1h1.4v-8.6H91v-1h3.4v2H94.6z"/>
			<path class="st0" d="M104.9,72.7v-2.3h1.2v1.2c0.4,0.3,0.9,0.6,1.3,0.7c0.4,0.2,0.8,0.2,1.2,0.2c0.6,0,1.1-0.2,1.5-0.5
				s0.6-0.7,0.6-1.2c0-0.8-0.6-1.4-1.7-1.8l-1-0.4c-2-0.8-3-1.9-3-3.2c0-0.9,0.3-1.6,1-2.1c0.7-0.6,1.5-0.8,2.6-0.8
				c0.5,0,1.1,0,1.6,0.1s1.1,0.2,1.6,0.5v2.3h-1.2v-1.2c-0.4-0.2-0.7-0.4-1-0.5s-0.7-0.2-1-0.2c-0.5,0-0.9,0.2-1.3,0.5
				c-0.3,0.3-0.5,0.7-0.5,1.1c0,0.4,0.2,0.8,0.5,1s0.9,0.6,1.8,1l0.9,0.4c1,0.4,1.7,0.8,2,1.2c0.4,0.4,0.6,1,0.6,1.7
				c0,0.9-0.4,1.7-1.1,2.3c-0.7,0.6-1.7,0.9-2.9,0.9c-0.6,0-1.2-0.1-1.8-0.2S105.4,73,104.9,72.7z"/>
			<path class="st0" d="M120.9,73.2c-0.5,0.2-1,0.3-1.4,0.3c-1.1,0-1.9-0.3-2.4-0.9c-0.5-0.6-0.8-1.5-0.8-2.7v-6.2h-1.4v-1.1h1.4
				v-1.9l1.9-0.5v2.4h2.7v1.1h-2.7v6.4c0,0.7,0.1,1.3,0.4,1.6c0.3,0.4,0.6,0.6,1.2,0.6c0.3,0,0.7-0.1,1.1-0.3L120.9,73.2L120.9,73.2
				z"/>
			<path class="st0" d="M126.1,62.7v9.6h1.4v1h-4.8v-1h1.4v-8.6h-1.4v-1H126.1z M124.1,60.8v-1.9h1.9v1.9H124.1z"/>
			<path class="st0" d="M135.5,73.2c-0.5,0.2-1,0.3-1.4,0.3c-1.1,0-1.9-0.3-2.4-0.9c-0.5-0.6-0.8-1.5-0.8-2.7v-6.2h-1.4v-1.1h1.4
				v-1.9l1.9-0.5v2.4h2.7v1.1h-2.7v6.4c0,0.7,0.1,1.3,0.4,1.6c0.3,0.4,0.6,0.6,1.2,0.6c0.3,0,0.7-0.1,1.1-0.3L135.5,73.2L135.5,73.2
				z"/>
			<path class="st0" d="M145.2,73.3v-2c-0.5,0.7-1,1.3-1.7,1.7c-0.6,0.4-1.3,0.6-2.1,0.6c-0.9,0-1.6-0.3-2.1-0.9
				c-0.5-0.6-0.8-1.4-0.8-2.5v-6.4h-1.4v-1h3.4v7.1c0,0.8,0.1,1.4,0.4,1.7c0.2,0.3,0.7,0.5,1.3,0.5c0.5,0,1-0.1,1.6-0.4
				c0.5-0.3,1-0.7,1.6-1.3v-6.7H144v-1h3.4v9.6h1.4v1L145.2,73.3L145.2,73.3z"/>
			<path class="st0" d="M156.6,73.2c-0.5,0.2-1,0.3-1.4,0.3c-1.1,0-1.9-0.3-2.4-0.9c-0.5-0.6-0.8-1.5-0.8-2.7v-6.2h-1.4v-1.1h1.4
				v-1.9l1.9-0.5v2.4h2.7v1.1h-2.7v6.4c0,0.7,0.1,1.3,0.4,1.6c0.3,0.4,0.6,0.6,1.2,0.6c0.3,0,0.7-0.1,1.1-0.3L156.6,73.2L156.6,73.2
				z"/>
			<path class="st0" d="M167.2,72.8c-1.2,0.5-2.3,0.7-3.3,0.7c-1.5,0-2.8-0.5-3.7-1.6c-1-1-1.4-2.4-1.4-4s0.4-2.9,1.3-3.9
				s2-1.5,3.3-1.5s2.2,0.4,2.9,1.3c0.7,0.8,1,2.1,1,3.6v0.4h-6.5c0,1.4,0.3,2.5,0.9,3.3s1.5,1.2,2.5,1.2s2.1-0.3,3.1-0.8L167.2,72.8
				L167.2,72.8z M160.8,66.8h4.4v-0.2c0-2.1-0.7-3.1-2-3.1c-0.7,0-1.3,0.3-1.7,0.8C161.1,64.8,160.9,65.7,160.8,66.8z"/>
			<path class="st0" d="M181.1,73.5c-1.5,0-2.8-0.5-3.7-1.5c-0.9-1-1.3-2.3-1.3-4s0.4-3,1.3-4s2.1-1.5,3.7-1.5s2.8,0.5,3.7,1.5
				c0.9,1,1.3,2.3,1.3,4s-0.4,3-1.3,4S182.7,73.5,181.1,73.5z M181.1,72.5c0.9,0,1.6-0.4,2.1-1.3c0.6-0.9,0.8-1.9,0.8-3.3
				c0-1.3-0.3-2.4-0.8-3.3c-0.6-0.9-1.3-1.3-2.1-1.3c-0.9,0-1.6,0.4-2.1,1.3c-0.6,0.9-0.8,1.9-0.8,3.3c0,1.3,0.3,2.4,0.8,3.3
				C179.5,72.1,180.2,72.5,181.1,72.5z"/>
			<path class="st0" d="M190,63.8h-1.7v-1.1h1.7v-0.5c0-1.6,0.3-2.7,0.8-3.5s1.3-1.1,2.5-1.1c0.4,0,0.9,0.1,1.3,0.2
				c0.4,0.1,0.8,0.3,1.2,0.5V60h-1.2v-0.8c-0.2-0.2-0.4-0.4-0.6-0.5s-0.4-0.1-0.7-0.1c-0.4,0-0.8,0.2-1,0.6c-0.2,0.4-0.3,1-0.3,1.8
				v1.7h2.6v1.1H192v8.5h1.4v1h-4.8v-1h1.4L190,63.8L190,63.8z"/>
		</g>
		<g>
			<path class="st0" d="M89.3,91.7h-4.1v1.7h-1.1v-2.7h12.4v2.7h-1.1v-1.7h-4.1V104h1.4v0.9h-4.9V104h1.4L89.3,91.7L89.3,91.7z"/>
			<path class="st0" d="M106.8,104.5c-1.2,0.5-2.3,0.7-3.3,0.7c-1.5,0-2.8-0.5-3.7-1.6s-1.4-2.4-1.4-4s0.4-2.9,1.3-3.9
				c0.9-1,2-1.5,3.3-1.5s2.2,0.4,2.9,1.3c0.7,0.8,1,2.1,1,3.6v0.4h-6.5c0,1.4,0.3,2.5,0.9,3.3c0.6,0.8,1.5,1.2,2.5,1.2
				s2.1-0.3,3.1-0.8L106.8,104.5L106.8,104.5z M100.4,98.5h4.4v-0.2c0-2.1-0.7-3.1-2-3.1c-0.7,0-1.3,0.3-1.7,0.8
				C100.7,96.6,100.5,97.4,100.4,98.5z"/>
			<path class="st0" d="M117.5,104.6c-1,0.4-2,0.6-2.9,0.6c-1.6,0-2.8-0.5-3.8-1.5s-1.4-2.4-1.4-4s0.5-3,1.4-3.9
				c0.9-1,2.1-1.5,3.6-1.5c0.4,0,0.9,0,1.4,0.1s1.1,0.2,1.7,0.4v2.4h-1.1l-0.1-1.3c-0.3-0.2-0.6-0.4-0.9-0.5
				c-0.3-0.1-0.6-0.2-0.9-0.2c-0.9,0-1.6,0.4-2.2,1.3s-0.9,1.9-0.9,3.2s0.3,2.3,0.9,3.1c0.6,0.7,1.4,1.1,2.5,1.1
				c0.9,0,1.8-0.2,2.7-0.6L117.5,104.6L117.5,104.6z"/>
			<path class="st0" d="M123.3,96.4c0.5-0.7,1-1.3,1.7-1.7c0.6-0.4,1.3-0.6,2.1-0.6c0.9,0,1.6,0.3,2.1,0.9c0.5,0.6,0.8,1.4,0.8,2.5
				v6.5h1.4v1h-4.8v-1h1.4v-6.2c0-0.8-0.1-1.4-0.4-1.7c-0.2-0.3-0.7-0.5-1.3-0.5c-0.5,0-0.9,0.1-1.5,0.4c-0.5,0.3-1.1,0.7-1.7,1.3
				v6.7h1.4v1h-4.8v-1h1.4V90.6h-1.4v-1h3.4v6.8H123.3z"/>
			<path class="st0" d="M136.4,96.5c0.5-0.7,1-1.3,1.7-1.7c0.6-0.4,1.3-0.6,2.1-0.6c0.9,0,1.6,0.3,2.1,0.9c0.5,0.6,0.8,1.4,0.8,2.5
				v6.5h1.4v1h-4.8v-1h1.4v-6.2c0-0.8-0.1-1.4-0.4-1.7c-0.2-0.3-0.7-0.5-1.3-0.5c-0.5,0-1.1,0.1-1.6,0.4c-0.5,0.3-1,0.7-1.6,1.3v6.7
				h1.4v1h-4.8v-1h1.4v-8.6h-1.4v-1h3.4v2H136.4z"/>
			<path class="st0" d="M151.3,105.2c-1.5,0-2.8-0.5-3.7-1.5c-0.9-1-1.3-2.3-1.3-4s0.4-3,1.3-4s2.1-1.5,3.7-1.5s2.8,0.5,3.7,1.5
				c0.9,1,1.3,2.3,1.3,4s-0.4,3-1.3,4C154.1,104.7,152.8,105.2,151.3,105.2z M151.3,104.3c0.9,0,1.6-0.4,2.1-1.3
				c0.6-0.9,0.8-1.9,0.8-3.3c0-1.3-0.3-2.4-0.8-3.3c-0.6-0.9-1.3-1.3-2.1-1.3c-0.9,0-1.6,0.4-2.1,1.3c-0.6,0.9-0.8,1.9-0.8,3.3
				c0,1.3,0.3,2.4,0.8,3.3S150.4,104.3,151.3,104.3z"/>
			<path class="st0" d="M161.8,89.7V104h1.4v1h-4.8v-1h1.4V90.6h-1.4v-1L161.8,89.7L161.8,89.7z"/>
			<path class="st0" d="M170.4,105.2c-1.5,0-2.8-0.5-3.7-1.5c-0.9-1-1.3-2.3-1.3-4s0.4-3,1.3-4s2.1-1.5,3.7-1.5s2.8,0.5,3.7,1.5
				c0.9,1,1.3,2.3,1.3,4s-0.4,3-1.3,4C173.2,104.7,172,105.2,170.4,105.2z M170.4,104.3c0.9,0,1.6-0.4,2.1-1.3
				c0.6-0.9,0.8-1.9,0.8-3.3c0-1.3-0.3-2.4-0.8-3.3c-0.6-0.9-1.3-1.3-2.1-1.3c-0.9,0-1.6,0.4-2.1,1.3c-0.6,0.9-0.8,1.9-0.8,3.3
				c0,1.3,0.3,2.4,0.8,3.3S169.5,104.3,170.4,104.3z"/>
			<path class="st0" d="M179.7,104.6c-0.7-0.3-1.1-0.8-1.1-1.4c0-0.3,0.2-0.7,0.5-1s0.8-0.6,1.4-0.9c-0.7-0.3-1.2-0.8-1.6-1.3
				c-0.4-0.6-0.5-1.2-0.5-2c0-1.1,0.4-2,1.1-2.7s1.7-1,2.9-1c0.4,0,0.7,0,1.1,0.1c0.3,0.1,0.6,0.2,0.9,0.3l3.7-0.3l-0.6,1.4
				l-2.1-0.4c0.6,0.8,0.9,1.6,0.9,2.5c0,1.1-0.4,2-1.1,2.7s-1.7,1-2.9,1c-0.4,0-0.7,0-1.1-0.1c-0.3,0.2-0.5,0.4-0.6,0.6
				c-0.1,0.2-0.2,0.4-0.2,0.6c0,0.4,0.4,0.6,1.2,0.6h1.7c1.6,0,2.7,0.2,3.3,0.5c0.6,0.3,0.9,1,0.9,1.9c0,1-0.5,1.8-1.4,2.4
				c-0.9,0.6-2.1,0.9-3.6,0.9c-1.4,0-2.6-0.2-3.5-0.6c-0.9-0.4-1.3-1-1.3-1.6c0-0.4,0.2-0.8,0.5-1.2
				C178.5,105.2,179,104.9,179.7,104.6z M180.5,104.8c-0.3,0.3-0.6,0.5-0.7,0.8c-0.2,0.3-0.2,0.6-0.2,0.9c0,0.5,0.2,0.9,0.7,1.2
				s1.2,0.4,2.1,0.4c1,0,1.7-0.2,2.3-0.6c0.6-0.4,0.9-0.9,0.9-1.5c0-0.4-0.2-0.7-0.5-0.9s-0.8-0.3-1.5-0.3L180.5,104.8L180.5,104.8z
				 M180.2,98c0,0.9,0.2,1.6,0.5,2.1s0.9,0.7,1.5,0.7c0.7,0,1.2-0.2,1.5-0.7s0.5-1.2,0.5-2.2s-0.2-1.7-0.5-2.1
				c-0.3-0.5-0.9-0.7-1.6-0.7s-1.2,0.2-1.5,0.7C180.4,96.3,180.2,97,180.2,98z"/>
			<path class="st0" d="M193.9,105l-4-9.6h-0.8v-1h4.3v1H192l3,7.2l3.2-7.2h-1.4v-1h3.3v1h-0.8l-4.3,9.7l-1.7,3.7H191L193.9,105z"/>
		</g>
	</g>
</g>
</svg>
