<?xml version="1.0" encoding="utf-8"?>
<!-- Generator: Adobe Illustrator 22.0.1, SVG Export Plug-In . SVG Version: 6.00 Build 0)  -->
<svg version="1.1" id="Layer_1" xmlns="http://www.w3.org/2000/svg" xmlns:xlink="http://www.w3.org/1999/xlink" x="0px" y="0px"
	 viewBox="0 0 512 512" style="enable-background:new 0 0 512 512;" xml:space="preserve">
<style type="text/css">
	.st0{fill:#FFFFFF;}
</style>
<g>
	<path class="st0" d="M256,0C114.6,0,0,114.6,0,256s114.6,256,256,256s256-114.6,256-256S397.4,0,256,0z M424.3,424.3
		c-21.9,21.9-47.3,39-75.7,51C319.3,487.7,288.1,494,256,494c-32.1,0-63.3-6.3-92.6-18.7c-28.3-12-53.8-29.1-75.7-51
		s-39-47.3-51-75.7C24.3,319.3,18,288.1,18,256c0-32.1,6.3-63.3,18.7-92.6c12-28.3,29.1-53.8,51-75.7s47.3-39,75.7-51
		C192.7,24.3,223.9,18,256,18c32.1,0,63.3,6.3,92.6,18.7c28.3,12,53.8,29.1,75.7,51c21.9,21.9,39,47.3,51,75.7
		c12.4,29.3,18.7,60.5,18.7,92.6c0,32.1-6.3,63.3-18.7,92.6C463.3,377,446.2,402.4,424.3,424.3z"/>
	<g>
		<path class="st0" d="M183.5,194.8h-50.6c-5.7,0-10.3,4.6-10.3,10.3v190.6c0,5.7,4.6,10.3,10.3,10.3h50.6c5.7,0,10.3-4.6,10.3-10.3
			V205.1C193.8,199.5,189.2,194.8,183.5,194.8z M176.2,388.4h-35.9v-176h35.9V388.4z"/>
		<path class="st0" d="M158.2,106c-19.8,0-35.9,16.1-35.9,35.9c0,19.8,16.1,35.9,35.9,35.9c19.8,0,35.9-16.1,35.9-35.9
			C194.1,122.1,178,106,158.2,106z M158.2,160.1c-10.1,0-18.3-8.2-18.3-18.3c0-10.1,8.2-18.3,18.3-18.3c10.1,0,18.3,8.2,18.3,18.3
			S168.3,160.1,158.2,160.1z"/>
		<path class="st0" d="M357.4,217.2c-12.1-10.1-27.5-15.5-43.3-15.2c-9.8,0.2-19.4,2.5-28.1,6.8v-4.2c0-5.4-4.4-9.8-9.8-9.8h-51.5
			c-5.4,0-9.8,4.4-9.8,9.8v191.5c0,5.4,4.4,9.8,9.8,9.8h52.5c4.9,0,8.8-3.9,8.8-8.8V283c0-9.8,7.6-18,17.4-18.3
			c10.2-0.3,18.5,7.9,18.5,18v114.8c0,4.8,3.9,8.6,8.6,8.6H381c4.8,0,8.6-3.9,8.6-8.6V286.1C389.6,259.4,377.9,234.3,357.4,217.2z
			 M372,388.4h-32.5V282.6c0-19.6-16-35.6-35.6-35.6c-19.6,0-35.6,16-35.6,35.6v105.8h-35.9v-176h35.9v12.8h0c0,2.1,0.7,4.2,2.2,5.8
			c3.2,3.6,8.8,4,12.4,0.8c8.7-7.7,19.8-12,31.4-12.2c11.6-0.2,22.8,3.7,31.7,11.1c16.5,13.8,25.9,34,25.9,55.4V388.4z"/>
	</g>
</g>
</svg>
