<?xml version="1.0" encoding="utf-8"?>
<!-- Generator: Adobe Illustrator 22.0.1, SVG Export Plug-In . SVG Version: 6.00 Build 0)  -->
<svg version="1.1" id="Layer_1" xmlns="http://www.w3.org/2000/svg" xmlns:xlink="http://www.w3.org/1999/xlink" x="0px" y="0px"
	 viewBox="0 0 512 512" style="enable-background:new 0 0 512 512;" xml:space="preserve">
<style type="text/css">
	.st0{fill:#FFFFFF;}
</style>
<g>
	<path class="st0" d="M256,18c32.1,0,63.3,6.3,92.6,18.7c28.3,12,53.8,29.1,75.7,51c21.9,21.9,39,47.3,51,75.7
		c12.4,29.3,18.7,60.5,18.7,92.6s-6.3,63.3-18.7,92.6c-12,28.3-29.1,53.8-51,75.7c-21.9,21.9-47.3,39-75.7,51
		C319.3,487.7,288.1,494,256,494s-63.3-6.3-92.6-18.7c-28.3-12-53.8-29.1-75.7-51c-21.9-21.9-39-47.3-51-75.7
		C24.3,319.3,18,288.1,18,256s6.3-63.3,18.7-92.6c12-28.3,29.1-53.8,51-75.7c21.9-21.9,47.3-39,75.7-51C192.7,24.3,223.9,18,256,18
		 M256,0C114.6,0,0,114.6,0,256s114.6,256,256,256s256-114.6,256-256S397.4,0,256,0L256,0z"/>
	<path class="st0" d="M220.5,406c-49.6,0-88.8-8.7-107.6-23.8l-0.4-0.3l-0.3-0.3c-4.5-4.5-5.9-10.3-4-16l0.2-0.5
		c2.3-5.8,8-9.7,14.2-9.8c12.7-0.2,23.8-1.7,33.9-4.7c-16.1-7.5-27.2-20.4-33.9-39.2c-2.2-5.8-0.3-12.3,4.8-16.2
		c1.3-1,2.7-1.7,4.2-2.2c-8.9-10.3-15.5-22-19.2-34.5l-0.1-0.4l-0.1-0.4c-1.3-6.3,1.6-12.7,6.7-15.5c2.2-1.2,4.5-1.9,6.9-1.9
		c-2.5-5.5-4.4-11.1-5.5-16.7c-3-15.6-0.5-31.3,7.4-46.6l1.8-3.7c1.5-3,4.3-5,7.6-5.6c3.3-0.5,6.6,0.5,8.9,2.9l3.4,3.4
		c26.5,27.8,50.3,41,91.4,50.1c1.8-15.8,8.7-30.4,19.7-42c13.1-13.7,30.6-21.4,49.2-21.7h0.1c13.6,0,30.5,7.8,40.7,13.3
		c8.8-2.9,19.3-7.3,30.3-12c5.1-2.4,11.4-1.3,15.5,2.7c3.9,3.9,5,9.5,2.9,14.9c-0.8,2.2-1.7,4.4-2.7,6.5c1.5,0.7,2.9,1.6,4,2.8
		c3.5,3.5,5,9,3.7,14l-0.1,0.5c-4.2,13.5-12.3,24.5-22.9,31.5C379.4,329.5,308,406,220.5,406z M129.6,372.5
		c17.7,10,51.4,16.1,90.9,16.1c38,0,73.8-16.3,100.9-45.9c27.3-29.9,42.4-69.5,42.4-111.6v-0.5c0-3.8,2.1-7.3,5.5-9.1
		c6.9-3.6,12.4-9.8,16-17.7c-3.7,0.6-7.5-0.9-9.8-4c-2.7-3.6-2.7-8.5-0.1-12.2c1.4-2,2.7-4,3.9-6.1c-9.5,4-18.4,7.5-26.2,9.9
		c-2.8,0.9-6,0.5-8.6-0.9c-13.9-7.7-26.8-12.4-34.6-12.4c-28.8,0.4-52.1,25.1-52.1,54.9c0,3.1-1.4,6-3.8,7.9c-2.4,2-5.5,2.7-8.5,2.1
		c-47.4-9.3-75.5-23.3-104.7-52.7c-4.2,10-5.3,20.1-3.4,30.1c2,10.1,7.2,20.2,15.1,29.3c3,3.4,3.4,8.3,1,12.2
		c-2.4,3.9-7,5.7-11.4,4.5c-3.4-0.9-6.6-2.1-9.6-3.7c6.1,13.2,16.6,25.5,29.8,34.5c3.8,2.6,5.4,7.5,3.9,11.9
		c-1.5,4.4-5.8,7.2-10.5,6.9c-5.1-0.4-9.5-1.3-13.6-3c7.4,15.1,19.2,23.3,37.4,26.5c4.3,0.8,7.7,4.2,8.4,8.5
		c0.7,4.3-1.5,8.6-5.3,10.7C167,367,150,371.4,129.6,372.5z"/>
</g>
</svg>
