<svg width="23" height="20" viewBox="0 0 23 20" fill="none" xmlns="http://www.w3.org/2000/svg">
<path d="M19.9379 5.47377C19.952 5.67117 19.952 5.86861 19.952 6.066C19.952 12.0868 15.3694 19.0243 6.99379 19.0243C4.41341 19.0243 2.01636 18.2769 0 16.9797C0.366623 17.022 0.719097 17.0361 1.09983 17.0361C3.22895 17.0361 5.18893 16.317 6.75408 15.0903C4.75182 15.0479 3.07387 13.7366 2.49575 11.9318C2.77778 11.974 3.05977 12.0022 3.3559 12.0022C3.7648 12.0022 4.17374 11.9458 4.55443 11.8472C2.46758 11.4241 0.902387 9.59109 0.902387 7.37733V7.32095C1.50868 7.65936 2.21376 7.87086 2.96102 7.89903C1.73429 7.08119 0.930599 5.68527 0.930599 4.10602C0.930599 3.26001 1.15616 2.48449 1.551 1.80767C3.79297 4.57134 7.16298 6.37616 10.9418 6.5736C10.8714 6.23519 10.829 5.88271 10.829 5.5302C10.829 3.0203 12.8595 0.975769 15.3835 0.975769C16.6948 0.975769 17.8792 1.52568 18.7112 2.41401C19.7405 2.21661 20.7275 1.83588 21.6017 1.31418C21.2633 2.37173 20.5442 3.26006 19.5995 3.82403C20.516 3.72538 21.4043 3.47152 22.2221 3.11904C21.6018 4.02143 20.8263 4.82512 19.9379 5.47377Z" fill="white"/>
</svg>
