<svg id="Layer_1" data-name="Layer 1" xmlns="http://www.w3.org/2000/svg" viewBox="0 0 829 614"><defs><style>.cls-1{fill:#138690;}</style></defs><title>logo</title><path class="cls-1" d="M254,185S412,93,414,92a3.62,3.62,0,0,1,3.52,0L578,185V107L416,13,254,107Z"/><path class="cls-1" d="M578,214s-158,92-160,93a3.62,3.62,0,0,1-3.52,0L254,214v78l162,94,162-94Z"/><polygon class="cls-1" points="278 199 416 120 553 199 416 279 278 199"/><path class="cls-1" d="M448.5,459c-38.38,0-69.5,32.24-69.5,72s31.12,72,69.5,72S518,570.76,518,531,486.88,459,448.5,459Zm0,125c-26.79,0-48.5-23.8-48.5-53.15s21.71-53.15,48.5-53.15,48.5,23.8,48.5,53.15S475.29,584,448.5,584Z"/><polygon class="cls-1" points="9 462 64 600 88 600 141 462 120 462 76 577 32 462 9 462"/><path class="cls-1" d="M262,579v21h21V461H262v86c1,7-10,37-40,37-33,0-42-28-41-37V461H160v88s2,30,28,46c10,7,40,8,45,6C241,598,258,584,262,579Z"/><path class="cls-1" d="M318,446V600h21V480h32V462H339V445c0-10,5-20,18-21h14V404H359C333,405,319,422,318,446Z"/><rect class="cls-1" x="637" y="461" width="21" height="139"/><circle class="cls-1" cx="647.5" cy="424.5" r="13.5"/><path class="cls-1" d="M565,495V461H544V600h21V528c5-34,32-48,39-48h13V460H607C600,460,574,467,565,495Z"/><path class="cls-1" d="M801,461v23s-13-24-49.84-25C721,460,683,478,685,535s51,68,68,68c21,0,41-12,48-25v22h21V461ZM754,584c-27.06,0-49-23.8-49-53.15s21.94-53.15,49-53.15,49,23.8,49,53.15S781.06,584,754,584Z"/></svg>