<svg id="Layer_1" data-name="Layer 1" xmlns="http://www.w3.org/2000/svg" viewBox="0 0 582 565"><defs><style>.cls-1{fill:#138690;}</style></defs><title>logo</title><path class="cls-1" d="M400.5,26.77H568L344.14,448.31s-37.72-111.68-53.92-151.53"/><path class="cls-1" d="M441.82,548H568V26.77C567.89,299.16,455.59,548,441.82,548Z"/><path class="cls-1" d="M344.14,448.31H240L10,26.77C50.79,21.48,132.26,14.35,172.62,11Z"/><path class="cls-1" d="M143.38,281.88C108.84,421,9.89,552.11,10,552c114.63,0,139.31-17,139.31-25.92V292.46C147.3,289,145.39,285.44,143.38,281.88Z"/><path class="cls-1" d="M10,26.77V552c62.72-105.63,99.27-174.75,131.58-273.25C61.91,135.1,10,26.77,10,26.77Z"/><polyline class="cls-1" points="433.13 527.38 441.82 548 441.82 274.32 433.13 289.11"/><path class="cls-1" d="M441.4,274.86V547.14l.32.86c9,0,126.18-294.64,126.18-521.23C567.89,26.77,496.38,178.84,441.4,274.86Z"/></svg>