<svg id="Layer_1" data-name="Layer 1" xmlns="http://www.w3.org/2000/svg" viewBox="0 0 506 524"><defs><style>.cls-1{fill:#1f7577;}.cls-1,.cls-2,.cls-3{stroke:#138690;stroke-miterlimit:10;}.cls-2{fill:#138690;}.cls-3{fill:#0f8184;}</style></defs><title>logo</title><path class="cls-1" d="M283.33,96v74l128.18,74V170ZM27,170v74l64.09,37V207Zm192.25,37-64.09,37V466l64.09,37V355l64.09,37V318l-64.09-37Z"/><path class="cls-2" d="M283.33,96,91.09,207v74l128.18-74v74l64.09-37V96Zm192.25,37-64.09,37v74l64.09-37ZM347.42,281l-64.09,37v74l64.09-37ZM283.33,392l-64.09-37V503l64.09-37Z"/><path class="cls-3" d="M283.33,22,27,170l64.09,37L283.33,96l128.18,74,64.09-37Zm0,222-64.09,37,64.09,37,64.09-37Z"/></svg>