<?xml version="1.0"?>
<svg xmlns="http://www.w3.org/2000/svg" viewBox="0 0 64 64" width="512" height="512"><g id="Outline"><g><circle cx="46" cy="35" r="1"/><circle cx="50" cy="35" r="1"/><path d="M45.88,37.71a1,1,0,0,0,0,1.41,3,3,0,0,0,4.24,0,1,1,0,0,0-1.41-1.41,1,1,0,0,1-1.42,0A1,1,0,0,0,45.88,37.71Z"/><path d="M61,56H58V47a5,5,0,0,0-5-5h-.11A7,7,0,0,0,55,37V35.9A5,5,0,0,0,59,31V29a5,5,0,0,0-5-5H38a1,1,0,0,0-1,1v6a5,5,0,0,0,4,4.9V37a7,7,0,0,0,2.11,5H43a5,5,0,0,0-5,5v5H36a3,3,0,0,0-3,3v1H30V55a3,3,0,0,0-3-3H24.62l-1-2H30a4,4,0,0,0,4-4V30a4,4,0,0,0-4-4H21V17.93A8.26,8.26,0,0,0,22,18a8,8,0,0,0,6-2.73V21a1,1,0,0,0,1,1H43a1,1,0,0,0,1-1V7a1,1,0,0,0-1-1H28.93A8,8,0,0,0,14,10a8.24,8.24,0,0,0,.26,2H8a1,1,0,0,0-1,1V26H6a4,4,0,0,0-4,4V46a4,4,0,0,0,4,4h6.38l-1,2H9a3,3,0,0,0-3,3v1H3a1,1,0,0,0-1,1v4a1,1,0,0,0,2,0V58H60v3a1,1,0,0,0,2,0V57A1,1,0,0,0,61,56Zm-5-9v9H54V49a1,1,0,0,0-2,0v7H49V48.28L51.57,44H53A3,3,0,0,1,56,47Zm-6.77-3L48,46.06,46.77,44ZM39,31V26H54a3,3,0,0,1,3,3v2a3,3,0,0,1-2,2.82V31a1,1,0,0,0-1-1H48.61a10.87,10.87,0,0,1-6.06-1.83,1,1,0,0,0-1-.05A1,1,0,0,0,41,29v4.82A3,3,0,0,1,39,31Zm4,6V30.72A12.88,12.88,0,0,0,48.61,32H53v5a5,5,0,0,1-10,0ZM40,47a3,3,0,0,1,3-3h1.43L47,48.28v3.9A3,3,0,0,0,46,52H44V49a1,1,0,0,0-2,0v3H40ZM35.38,20H30.62L33,15.24,35.38,20Zm2.24,0,.88-1.76L39.38,20ZM38,9a1,1,0,1,1-1-1A1,1,0,0,1,38,9ZM30,8h4.18a3,3,0,1,0,5.64,0H42V20h-.38l-2.23-4.45a1,1,0,0,0-1.78,0L36.5,17.76l-2.61-5.21a1,1,0,0,0-1.78,0L30,16.76ZM22,4a6,6,0,1,1-6,6A6,6,0,0,1,22,4ZM9,14h6.08A8.06,8.06,0,0,0,19,17.41V26H9ZM4,46V30a2,2,0,0,1,2-2H30a2,2,0,0,1,2,2V46a2,2,0,0,1-2,2H23V41a5,5,0,0,0-10,0v7H6A2,2,0,0,1,4,46Zm10.89,3.45a0,0,0,0,0,0,0A1,1,0,0,0,15,49V41a3,3,0,0,1,6,0v8a1,1,0,0,0,.1.42,0,0,0,0,0,0,0L22.38,52H13.62ZM8,56V55a1,1,0,0,1,1-1H27a1,1,0,0,1,1,1v1Zm27-1a1,1,0,0,1,1-1H46a1,1,0,0,1,1,1v1H35Z"/><path d="M19.47,13.85A1,1,0,0,0,20,14a1,1,0,0,0,.45-.11l6-3a1,1,0,0,0,0-1.78l-6-3A1,1,0,0,0,19,7v6A1,1,0,0,0,19.47,13.85ZM21,8.62,23.76,10,21,11.38Z"/><path d="M16,17H12a1,1,0,0,0,0,2h4a1,1,0,0,0,0-2Z"/><path d="M16,21H12a1,1,0,0,0,0,2h4a1,1,0,0,0,0-2Z"/><path d="M55,12a3,3,0,0,0,3-3V5a3,3,0,0,0-6,0V9A3,3,0,0,0,55,12ZM54,5a1,1,0,0,1,2,0V9a1,1,0,0,1-2,0Z"/><path d="M54,15.92V18H51a1,1,0,0,0,0,2h8a1,1,0,0,0,0-2H56V15.92A7,7,0,0,0,62,9a1,1,0,0,0-2,0A5,5,0,0,1,50,9a1,1,0,0,0-2,0A7,7,0,0,0,54,15.92Z"/></g></g></svg>
