<svg id="Layer_1" data-name="Layer 1" xmlns="http://www.w3.org/2000/svg" viewBox="0 0 1920 1080"><defs><style>.cls-1{fill:#138690;stroke:#138690;stroke-miterlimit:10;}</style></defs><title>logo</title><path class="cls-1" d="M1418.13,520.55c-35.41,43.13-104.79,39.76-104.79,39.76-42.79,184.34-301.2,278.16-480.61,232.07S678,532.33,678,532.33h525.06c43.33,0,46.63-13.17,46.63-13.17-38.41-91.08,20.85-139.91,20.85-139.91,46.09,8.24,57.6,87.24,57.6,87.24a153.78,153.78,0,0,1,86.8,9.06C1436,485,1447,490,1418.13,520.55Z"/><rect class="cls-1" x="733.96" y="448.93" width="73.53" height="66.93"/><rect class="cls-1" x="826.36" y="448.93" width="73.53" height="66.93"/><rect class="cls-1" x="1103.52" y="448.93" width="73.53" height="66.93"/><rect class="cls-1" x="1011.14" y="448.93" width="73.53" height="66.93"/><rect class="cls-1" x="1011.14" y="277.76" width="73.53" height="66.93"/><rect class="cls-1" x="918.74" y="448.93" width="73.53" height="66.93"/><rect class="cls-1" x="826.36" y="363.34" width="73.53" height="66.93"/><rect class="cls-1" x="1011.14" y="363.34" width="73.53" height="66.93"/><rect class="cls-1" x="918.74" y="363.34" width="73.53" height="66.93"/></svg>