<svg id="Layer_1" data-name="Layer 1" xmlns="http://www.w3.org/2000/svg" xmlns:xlink="http://www.w3.org/1999/xlink" viewBox="0 0 1920 1080"><defs><style>.cls-1{fill:none;}.cls-2{fill:#138690;stroke:#138690;stroke-miterlimit:10;}.cls-3{clip-path:url(#clip-path);}.cls-4{fill:#fff;}.cls-5{fill:#a5a284;}.cls-6{fill:#489d49;}.cls-7{fill:#57aa4f;}</style><clipPath id="clip-path"><rect class="cls-1" x="555" y="467" width="830" height="236.49"/></clipPath></defs><title>Logo</title><path class="cls-2" d="M1177.72,556.57c2.84,0,13.78.45,19,.45,9.43,0,16.17-.45,34-.45,15,0,27.56,4,36.55,11.68,10.93,9.44,16.63,22.47,16.63,38.34,0,22.62-10.34,35.65-20.67,43.13-10.33,7.64-23.81,12.13-43,12.13-10.18,0-27.71-.3-42.23-.45h-.15c-.75-1.35,1.2-6.59,2.4-6.74,3.89-.45,4.94-.6,6.89-1.35,3.14-1.2,3.74-2.85,4.19-8.39.45-10.33.3-22.77.3-36.84,0-10,.15-29.66-.15-35.95-.45-5.24-2.69-6.59-7.19-7.49-2.25-.45-5.24-1-9.43-1.5-.6-1,2.1-5.69,2.84-6.59Zm34,93.16c3.6,2.84,10.63,4,16.92,4,8.09,0,16.17-1.5,24-8.54,7.94-7.19,13.48-18.27,13.48-35.94,0-16.92-6.44-30.7-19.62-38.79-7.49-4.64-17.08-6.59-28.16-6.59-3.3,0-6.44.15-8.39,1a4.41,4.41,0,0,0-1.5,2.4c-.3,3-.3,26.06-.3,39.54,0,13.93,0,33.4.3,35.64,0,2.25,1,5.69,3.3,7.19Zm86.42-93.16c1.5,0,6,.45,17.52.45,10.93,0,19.62-.3,30.25-.3,13,0,31,4.64,31,24.11,0,9.59-6.74,17.22-15.58,21-.45.15-.45.45,0,.6,12.58,3.15,23.67,10.93,23.67,25.61,0,14.38-9,23.51-22,29.21-7.94,3.44-17.82,4.64-27.86,4.64-7.64,0-28.15-.9-39.54-.6-1.2-.45,1-5.84,2.1-6.74a27.94,27.94,0,0,0,7.64-1.2c4-1,4.49-2.25,5.09-8.39.3-5.24.3-23.81.3-37,0-18.12.15-30.4,0-36.39-.15-4.64-1.8-6.14-5.09-7-2.55-.45-6.74-1-10.19-1.5-.75-.75,1.8-5.84,2.7-6.44Zm69.19,75.18c0-14.83-10.93-23.07-30.7-23.07a86.72,86.72,0,0,0-8.69.15c-.45.15-1,.45-1,.9,0,10.63-.15,27.56.3,34.15.3,2.85,2.4,6.89,4.94,8.09,2.69,1.5,8.83,1.8,13,1.8,11.83,0,22.17-6.59,22.17-22Zm-38.64-66.95c-.75.15-1.5,1.8-1.5,2.7-.15,6-.3,21.87-.3,32.65a1.11,1.11,0,0,0,.9.9c2.25.15,7.64.3,12.28.3,6.44,0,10.19-.9,12.28-1.8,5.39-2.7,7.94-8.54,7.94-15,0-14.53-10.18-20.07-25.31-20.07a24.1,24.1,0,0,0-6.29.3Z"/><g class="cls-3"><path class="cls-2" d="M690.67,661.7a6.41,6.41,0,0,1-.45-3.44,5.05,5.05,0,0,1,.45-2.25,54.93,54.93,0,0,0,6.59-1.35c3-.75,4.19-2.4,4.34-6.14.45-9,.45-26.06.3-37.89v-.3c0-1.35,0-3-1.65-4.19a33.74,33.74,0,0,0-9-3.89c-1.35-.45-2.25-1.2-2.1-2.1s.9-1.95,2.85-2.25c4.94-.45,17.82-3.59,22.91-5.84a3.7,3.7,0,0,1,.75,2.4l-.15,1.65c-.15,1.65-.3,3.6-.3,5.54a1.16,1.16,0,0,0,1.2,1,2.13,2.13,0,0,0,.9-.3c9.58-7.49,18.27-10.18,22.76-10.18,7.34,0,13,3.45,17.37,10.63a1.13,1.13,0,0,0,1,.6,1.07,1.07,0,0,0,.9-.45c8.84-6.74,17.67-10.78,23.51-10.78,13.93,0,22.17,10.33,22.17,27.86,0,4.94,0,11.38-.15,17.22,0,5.24-.15,10-.15,13.48,0,.75,1,3.14,2.69,3.59,2.1,1,4.94,1.5,8.69,2.1h.15c.3,1-.3,4.94-.9,5.69a36.65,36.65,0,0,1-3.74-.15c-2.85-.15-6.89-.3-11.38-.3-9.29,0-14.08.15-18.72.45-.3-1.2-.45-4.79,0-5.69a46.23,46.23,0,0,0,5.69-1.35c3-.9,3.74-2.25,3.89-6.14,0-2.84.6-27.11-.3-32.95s-5.39-13-15.28-13c-3.74,0-9.58,1.5-15.28,5.84a2.67,2.67,0,0,0-.6,1.5v.15c.6,3.14.6,6.74.6,12.28v9.73c0,6.74-.15,13,0,17.82,0,3.3,1.95,4,3.6,4.64.9.15,1.5.3,2.25.45,1.35.3,2.7.6,4.79,1a8.09,8.09,0,0,1-.15,4.19,2.87,2.87,0,0,1-.6,1.5c-5.09-.15-10.33-.3-18-.3-2.25,0-6.14.15-9.44.15-2.7,0-5.24.15-6.74.15a7.94,7.94,0,0,1-.45-3,4.67,4.67,0,0,1,.6-2.7,10.09,10.09,0,0,1,2.1-.3c1.8-.3,3.29-.6,4.79-.9,2.55-.75,3.44-2.1,3.59-5.39.45-7.49.9-28.91-.15-34.3-1.8-8.69-6.74-13-14.68-13-4.64,0-10.48,2.25-15.28,5.84a4.85,4.85,0,0,0-1.35,3.44v8.84c0,10.78,0,24.26.15,30.1.15,1.8.75,3.89,4.19,4.64a30.94,30.94,0,0,0,3.44.6l2.7.45a12.58,12.58,0,0,1-.45,5.69c-1.5,0-3.29-.15-5.39-.15-3.14-.15-7.19-.3-11.68-.3-5.24,0-9,.15-12,.3a36.22,36.22,0,0,0-5.54-.3Zm171.19,1.5c-25.46,0-34.6-18.72-34.6-36.24,0-12.28,4.94-21.72,14.83-28.46A45.08,45.08,0,0,1,865,591.76c19.47,0,33.1,13.93,33.1,34,0,13.63-5.39,24.41-15.73,31a40.56,40.56,0,0,1-20.52,6.44Zm-2.7-64.1a13.92,13.92,0,0,0-8.09,2.25c-5.84,3.59-8.84,10.78-8.84,21.27,0,19.62,9.88,33.4,24,33.4a15.24,15.24,0,0,0,10.34-3.59c4.34-3.6,6.59-10.78,6.59-20.82,0-19.47-9.59-32.5-24-32.5ZM1126,663.2c-25.46,0-34.6-18.72-34.6-36.24,0-12.28,4.94-21.72,14.83-28.46a45.08,45.08,0,0,1,22.91-6.74c19.47,0,33.1,13.93,33.1,34,0,13.63-5.39,24.41-15.73,31-4.94,3.29-13.48,6.44-20.52,6.44Zm-2.7-64.1a13.9,13.9,0,0,0-8.09,2.25c-5.84,3.59-8.84,10.78-8.84,21.27,0,19.62,9.88,33.4,24,33.4a15.23,15.23,0,0,0,10.33-3.59c4.34-3.6,6.59-10.78,6.59-20.82,0-19.47-9.73-32.5-24-32.5ZM1038,703.49c-9.14,0-15.73-1.95-21.42-6.29-5.54-4.2-7.94-10.49-7.94-14.83a11.46,11.46,0,0,1,3-7.49c1.65-1.8,5.24-5.24,13.78-11.08.3-.15.45-.3.45-.6a1,1,0,0,0-.6-.75c-7-2.7-9.13-7-9.73-9.44v-.3c-.15-.9-.45-1.8.9-2.7,1-.75,2.54-1.65,4.19-2.69a61.3,61.3,0,0,0,6.89-4.49,1.1,1.1,0,0,0,.3-.9,1,1,0,0,0-.6-.75c-10.48-3.45-15.72-11.23-15.72-22.92a22.74,22.74,0,0,1,9.58-18.87c4.19-3.3,14.68-7.34,21.57-7.34h.45c7,.15,10.93,1.65,16.47,3.59a27.74,27.74,0,0,0,9.74,1.5c5.84,0,8.39-1.8,10.48-3.89a8.17,8.17,0,0,1,.6,3,11.31,11.31,0,0,1-1.95,6.89c-1.2,1.65-3.89,2.85-6.59,2.85h-.75a33.21,33.21,0,0,1-3.89-.6l-.6.3c-.15.3,0,.6.15,1l.15.3a55,55,0,0,1,.9,6.44c0,12.28-4.94,17.67-10.18,21.72a34.49,34.49,0,0,1-17.52,6.74,18.75,18.75,0,0,0-2.1.15c-.75,0-1.8.15-1.95.15h-.15c-1.2.3-4.19,1.8-4.19,4.34,0,2.25,1.35,4.94,7.79,5.39,1.35.15,2.7.15,4.19.3,8.54.6,19.17,1.35,24.11,3a16.78,16.78,0,0,1,11.23,16c0,11.08-7.94,21.42-21.12,27.85a48.17,48.17,0,0,1-19.92,4.35Zm-1.05-38.94a12.86,12.86,0,0,0-6.44,1.65c-6.29,4-9.14,7.94-9.14,12.58a13.25,13.25,0,0,0,5.24,10.78c4.34,3.74,10.33,5.54,18,5.54,15.28,0,22-8.24,22-16.33,0-5.69-2.84-9.44-8.69-11.53-4.19-1.8-11.83-2.7-21-2.7Zm1.05-66.2c-7.94,0-12.88,6.14-12.88,15.73s4.34,21,16.63,21c2.1,0,6-.9,7.79-3,2.84-2.7,4.79-8.09,4.79-13.78,0-12.43-6.14-19.92-16.32-19.92ZM996.5,655.56a30.16,30.16,0,0,1-9.74-2.55,4.57,4.57,0,0,1-1.2-2.4c-.3-5.24-.3-20.22-.3-30.25,0-8.09-1.35-15.13-4.79-20.07a20.45,20.45,0,0,0-17.37-9c-6.59,0-15.43,4.49-22.76,10.78-.15.15-1.35,1.2-1.2-.45,0-1.65.3-4.94.45-7.19a3.89,3.89,0,0,0-1-3.15c-4.79,2.4-18.27,5.54-23.21,6-3.59.75-4.49,4.19-.75,5.39h.15a33.26,33.26,0,0,1,8.83,3.89c1.5,1.2,1.35,2.85,1.35,4.19.15,11.23.15,28.46-.3,37.89-.15,3.74-1.2,5.09-3.9,5.69l.3-.15a59,59,0,0,1-6.29,1.2c-.9.9-.9,5.69,0,6.74,1.65,0,10.34-.45,17.53-.45,9.88,0,15,.45,17.52.45,1-1.2,1.35-5.69.75-6.74a27.8,27.8,0,0,1-6.89-1c-2.69-.6-3.45-1.95-3.6-5.09-.3-7.94-.3-24.71-.3-36.09,0-3.15.9-4.64,1.8-5.54a22.65,22.65,0,0,1,13.93-5.09A15.49,15.49,0,0,1,965.8,606c3.3,2.69,4.34,6.59,4.79,9.43.75,6.44.45,19.17.45,30.25,0,6-.45,7.49-2.69,8.24a28.54,28.54,0,0,1-6.89,1.35c-1,1-.75,5.69,0,6.74,4.34,0,9.43-.45,16.92-.45,9.28,0,15.28.45,17.67.45.75-.9,1-5.24.45-6.44Z"/><path class="cls-4" d="M611.89,697.65l-6.14-2.1s.75-31.3-10.48-33.55c-7.49-8.69,1.2-368.43,28.16-1.2,0,0-9.28,4.64-10.93,12.58-1.8,7.79-.6,24.26-.6,24.26Z"/><path class="cls-5" d="M611.89,697.65l-6.14-2.1s.75-31.3-10.48-33.55c-7.49-8.69,1.2-368.43,28.16-1.2,0,0-9.28,4.64-10.93,12.58-1.8,7.79-.6,24.26-.6,24.26Z"/></g><path class="cls-4" d="M615.19,667.39S669,632,656.37,558.51c-12.13-53.47-40.74-71-43.88-77.73-3.44-4.79-6.74-13.18-6.74-13.18L608,616.32c0,.15-4.64,45.53,7.19,51.07"/><g class="cls-3"><path class="cls-6" d="M615.19,667.39S669,632,656.37,558.51c-12.13-53.47-40.74-71-43.88-77.73-3.44-4.79-6.74-13.18-6.74-13.18L608,616.32c0,.15-4.64,45.53,7.19,51.07"/><path class="cls-4" d="M602.6,669.34s-50.47-34.45-47.48-95.1c2.84-60.66,38.49-90.46,45.38-95.85,4.49-4.79,4.64-6.59,4.94-11.38,3.14,6.74,2.55,100.79,3,111.88,1.35,42.68-2.4,82.37-5.84,90.46Z"/><path class="cls-7" d="M602.6,669.34s-50.47-34.45-47.48-95.1c2.84-60.66,38.49-90.46,45.38-95.85,4.49-4.79,4.64-6.59,4.94-11.38,3.14,6.74,2.55,100.79,3,111.88,1.35,42.68-2.4,82.37-5.84,90.46Z"/></g></svg>