<svg id="Layer_1" data-name="Layer 1" xmlns="http://www.w3.org/2000/svg" viewBox="0 0 1920 1080"><defs><style>.cls-1{fill:#1f7577;}.cls-1,.cls-2,.cls-3{stroke:#138690;stroke-miterlimit:10;}.cls-2{fill:#138690;}.cls-3{fill:#0f8184;}</style></defs><title>logo</title><path class="cls-1" d="M992.33,331v74l128.18,74V405ZM736,405v74l64.09,37V442Zm192.25,37-64.09,37V701l64.09,37V590l64.09,37V553l-64.09-37Z"/><path class="cls-2" d="M992.33,331,800.09,442v74l128.18-74v74l64.09-37V331Zm192.25,37-64.09,37v74l64.09-37ZM1056.42,516l-64.09,37v74l64.09-37ZM992.33,627l-64.09-37V738l64.09-37Z"/><path class="cls-3" d="M992.33,257,736,405l64.09,37L992.33,331l128.18,74,64.09-37Zm0,222-64.09,37,64.09,37,64.09-37Z"/></svg>