<svg id="Layer_1" data-name="Layer 1" xmlns="http://www.w3.org/2000/svg" viewBox="0 0 1920 1080"><defs><style>.cls-1{fill:#138690;stroke:#138690;stroke-miterlimit:10;}</style></defs><title>logo</title><path class="cls-1" d="M922.5,450.5s32,10,27,43c-2,18-15,30-37,31-11-1-28-4-34-19-3-10,12,10,37,9,7,0,23-8,24-25,2-22-21-31-36-35C893.5,451.5,922.5,450.5,922.5,450.5Z"/><path class="cls-1" d="M1025.5,330.5a45,45,0,1,0,45,45A45,45,0,0,0,1025.5,330.5Zm-.5,78a33.5,33.5,0,1,1,33.5-33.5A33.5,33.5,0,0,1,1025,408.5Z"/><path class="cls-1" d="M492.5,706.5a47.92,47.92,0,0,1,11.86-12.77c12.05-8.91,25.05-9.46,31.15-9.73a70.54,70.54,0,0,1,36,8.5,66,66,0,0,1,9,6c-.92,2.31-2,4.72-3.22,7.24a68,68,0,0,1-6.78,11.76,87.77,87.77,0,0,0-13-6c-5.22-1.91-9.89-3.62-16-4s-15.09-.94-20,5c-3.26,4-4.4,10.31-2,15,1,2,2.65,3.69,7,6,9.24,4.92,15.82,4.58,25,7a70.81,70.81,0,0,1,17,7,36.18,36.18,0,0,1,12.61,13.1c5.82,10.5,4.33,20.77,3.73,24.84a39,39,0,0,1-6.49,16.67c-6.13,8.74-14.28,11.94-19.47,13.89-8.14,3.07-14.71,2.94-24.66,2.78a93.22,93.22,0,0,1-24.72-3.28,90.35,90.35,0,0,1-23-10l9-22a118.87,118.87,0,0,0,26,9,60.8,60.8,0,0,0,21,1c4.53-.61,7.55-1.61,10-4a14.34,14.34,0,0,0,4-8c.16-1,.82-6-2-10a10.66,10.66,0,0,0-1-1.12c-3.86-4-10-4.74-11-4.88-10.69-1.39-23.17-6.28-25-7-4.94-1.94-11.05-4.33-17-10-2.79-2.66-8.7-8.44-11-18A35.71,35.71,0,0,1,492.5,706.5Z"/><polygon class="cls-1" points="605.5 686.5 605.5 710.5 644.5 710.5 644.5 815.5 675.5 815.5 675.5 710.5 714.5 710.5 714.5 686.5 605.5 686.5"/><polygon class="cls-1" points="741.5 686.5 741.5 815.5 829.5 815.5 829.5 792.5 768.5 792.5 768.5 762.5 822.5 762.5 822.5 739.5 768.5 739.5 768.5 709.5 829.5 709.5 829.5 686.5 741.5 686.5"/><path class="cls-1" d="M929.5,686.5h-26l-51,129h29l8-25h53l8,25h30Zm-32,83,19-52,18,52Z"/><polygon class="cls-1" points="1004.5 686.5 1004.5 815.5 1032.5 815.5 1032.5 737.5 1066.5 810.5 1083.5 810.5 1117.5 737.5 1117.5 815.5 1145.5 815.5 1145.5 686.5 1117.5 686.5 1075.5 779.5 1032.5 686.5 1004.5 686.5"/><polygon class="cls-1" points="1188.5 686.5 1238.5 815.5 1255.5 815.5 1307.5 686.5 1291.5 686.5 1247.5 801.5 1204.5 686.5 1188.5 686.5"/><path class="cls-1" d="M1399.5,763.5s27-13,26-40c-1-34-36-37-36-37h-54v129h14v-50h36l30,50h15Zm-50-10v-55h39s24,5,24,27-22,28-22,28Z"/><path class="cls-1" d="M795.49,470.36v.14l1.13.44,0-.14Z"/><path class="cls-1" d="M967.5,245.5c-93.24,0-169.37,68.75-177,159v3s87,37,92,39c16-12,35-9,35-9l42-61s-5-36,31-58c35-17,65-10,90,20,20,27,10,62,2,75-11,18-37,31-57,30-16,8-61,42-61,42s-1,28-21,42-37,15-60,2c-18-12-21-33-21-33l-65.87-25.56C818.24,544.07,886.55,597.5,967.5,597.5c98.31,0,178-78.8,178-176S1065.81,245.5,967.5,245.5Z"/></svg>