<svg id="Layer_1" data-name="Layer 1" xmlns="http://www.w3.org/2000/svg" viewBox="0 0 792 560"><defs><style>.cls-1{fill:#138690;stroke:#138690;stroke-miterlimit:10;}</style></defs><title>LogoStroke4</title><path class="cls-1" d="M759.13,265.55c-35.41,43.13-104.79,39.76-104.79,39.76-42.79,184.34-301.2,278.16-480.61,232.07S19,277.33,19,277.33H544.07c43.33,0,46.63-13.17,46.63-13.17-38.41-91.08,20.85-139.91,20.85-139.91,46.09,8.24,57.6,87.24,57.6,87.24a153.78,153.78,0,0,1,86.8,9.06C777,230,788,235,759.13,265.55Z"/><rect class="cls-1" x="74.96" y="193.93" width="73.53" height="66.93"/><rect class="cls-1" x="167.36" y="193.93" width="73.53" height="66.93"/><rect class="cls-1" x="444.52" y="193.93" width="73.53" height="66.93"/><rect class="cls-1" x="352.14" y="193.93" width="73.53" height="66.93"/><rect class="cls-1" x="352.14" y="22.76" width="73.53" height="66.93"/><rect class="cls-1" x="259.74" y="193.93" width="73.53" height="66.93"/><rect class="cls-1" x="167.36" y="108.34" width="73.53" height="66.93"/><rect class="cls-1" x="352.14" y="108.34" width="73.53" height="66.93"/><rect class="cls-1" x="259.74" y="108.34" width="73.53" height="66.93"/></svg>