<svg id="Layer_1" data-name="Layer 1" xmlns="http://www.w3.org/2000/svg" viewBox="0 0 816 664"><defs><style>.cls-1{fill:#138690;stroke:#138690;stroke-miterlimit:10;}</style></defs><title>logo</title><path class="cls-1" d="M707.5,228.5c-61-51-257-197-257-197s-30-18-58,4c-16,16-7,34-7,34l103,85-299,1s-43,4-49,41c1,29,27,32,27,32h160l-275,213s-31,37-10,64c30,34,72,6,72,6s142-118,150-124c-11,61,40,204,204,237,186,25,281-102,298-164C794.5,393.5,768.5,284.5,707.5,228.5Zm-188,287c-86.71,0-157-63.8-157-142.5s70.29-142.5,157-142.5,157,63.8,157,142.5S606.21,515.5,519.5,515.5Z"/><ellipse class="cls-1" cx="522.5" cy="368.5" rx="101" ry="91"/></svg>