<svg height="480pt" viewBox="0 0 480 480" width="480pt" fill="#138690" xmlns="http://www.w3.org/2000/svg"><path d="m72 240c-.011719 29.488281 7.746094 58.460938 22.488281 84l13.839844-8c-29.078125-50.449219-26.8125-113.074219 5.839844-161.289062l-13.238281-8.984376c-18.90625 27.800782-28.988282 60.65625-28.929688 94.273438zm0 0"/><path d="m8 272h34.59375c2.148438 13.320312 5.632812 26.390625 10.398438 39.015625l-29.878907 17.265625c-3.824219 2.207031-5.132812 7.09375-2.929687 10.917969l24 41.601562c1.0625 1.835938 2.8125 3.171875 4.863281 3.71875 2.054687.558594 4.242187.269531 6.082031-.800781l29.917969-17.320312c8.53125 10.457031 18.097656 20.023437 28.554687 28.554687l-17.320312 29.917969c-1.066406 1.839844-1.359375 4.027344-.8125 6.078125.546875 2.054687 1.890625 3.804687 3.730469 4.867187l41.601562 24c3.824219 2.203125 8.710938.894532 10.917969-2.929687l17.265625-29.855469c12.625 4.757812 25.695313 8.234375 39.015625 10.375v34.59375c0 4.417969 3.582031 8 8 8h48c4.417969 0 8-3.582031 8-8v-34.59375c13.320312-2.148438 26.390625-5.632812 39.015625-10.398438l17.265625 29.855469c2.207031 3.820313 7.09375 5.132813 10.917969 2.929688l41.601562-24c1.839844-1.0625 3.183594-2.8125 3.730469-4.867188.546875-2.054687.253906-4.238281-.8125-6.078125l-17.320312-29.894531c10.457031-8.53125 20.023437-18.097656 28.554687-28.554687l29.917969 17.320312c1.839844 1.074219 4.027344 1.363281 6.082031.800781 2.050781-.546875 3.800781-1.882812 4.863281-3.71875l24-41.601562-13.863281-8-20 34.65625-28.992187-16.800781c-3.496094-2.03125-7.960938-1.136719-10.402344 2.089843-10.117188 13.367188-22.015625 25.289063-35.359375 35.441407-3.222657 2.4375-4.121094 6.902343-2.085938 10.398437l16.796875 28.992187-27.726562 16-16.726563-28.929687c-2.019531-3.480469-6.304687-4.921875-10.015625-3.367187-15.46875 6.464843-31.75 10.796874-48.386718 12.871093-4.015626.480469-7.046876 3.882813-7.054688 7.929688v33.519531h-32v-33.519531c.003906-4.035157-2.996094-7.441407-7-7.945313-16.636719-2.074218-32.914062-6.40625-48.382812-12.871094-3.710938-1.554687-8-.113281-10.015626 3.367188l-16.730468 28.929688-27.726563-16 16.800781-28.992188c2.03125-3.496094 1.136719-7.960938-2.089843-10.402344-13.367188-10.121094-25.289063-22.019531-35.441407-35.367187-2.4375-3.222657-6.902343-4.121094-10.398437-2.085938l-28.992187 16.796875-16-27.726562 28.929687-16.726563c3.480469-2.019531 4.921875-6.304687 3.367187-10.015625-6.464843-15.46875-10.796874-31.75-12.871093-48.386718-.480469-4.015626-3.882813-7.046876-7.929688-7.054688h-33.519531v-32h33.519531c4.035157.003906 7.441407-2.996094 7.945313-7 2.074218-16.636719 6.40625-32.914062 12.871094-48.382812 1.554687-3.710938.113281-8-3.367188-10.015626l-28.929688-16.730468 16-27.726563 28.992188 16.800781c3.496094 2.03125 7.960938 1.136719 10.402344-2.089843 10.121094-13.367188 22.019531-25.289063 35.367187-35.441407 3.222657-2.4375 4.121094-6.902343 2.085938-10.398437l-16.796875-28.992187 27.726562-16 16.726563 28.929687c2.019531 3.480469 6.304687 4.921875 10.015625 3.367187 15.46875-6.464843 31.75-10.796874 48.386718-12.871093 4.015626-.480469 7.046876-3.882813 7.054688-7.929688v-33.519531h32v33.519531c-.003906 4.035157 2.996094 7.441407 7 7.945313 16.636719 2.074218 32.914062 6.40625 48.382812 12.871094 3.710938 1.554687 8 .113281 10.015626-3.367188l16.730468-28.929688 27.726563 16-16.800781 28.992188c-2.03125 3.496094-1.136719 7.960938 2.089843 10.402344 4 3 7.839844 6.175781 11.488281 9.445312l10.6875-11.902344c-2.25-2.015624-4.566406-4-6.9375-5.929687l17.3125-29.910156c1.070313-1.835938 1.367188-4.023438.824219-6.078125-.542969-2.054688-1.882812-3.808594-3.71875-4.875l-41.601562-24c-3.824219-2.203125-8.710938-.894532-10.917969 2.929687l-17.265625 29.855469c-12.625-4.757812-25.695313-8.234375-39.015625-10.375v-34.59375c0-4.417969-3.582031-8-8-8h-48c-4.417969 0-8 3.582031-8 8v34.59375c-13.320312 2.148438-26.390625 5.632812-39.015625 10.398438l-17.265625-29.878907c-2.207031-3.824219-7.09375-5.132812-10.917969-2.929687l-41.601562 24c-1.839844 1.0625-3.183594 2.8125-3.730469 4.867187-.546875 2.050781-.253906 4.238281.8125 6.078125l17.320312 29.917969c-10.457031 8.53125-20.023437 18.097656-28.554687 28.554687l-29.917969-17.320312c-1.835937-1.074219-4.027344-1.363281-6.082031-.800781-2.050781.546875-3.800781 1.882812-4.863281 3.71875l-24 41.601562c-2.203125 3.824219-.894532 8.710938 2.929687 10.917969l29.855469 17.265625c-4.757812 12.625-8.234375 25.695313-10.375 39.015625h-34.59375c-4.417969 0-8 3.582031-8 8v48c0 4.417969 3.582031 8 8 8zm0 0"/><path d="m133.601562 131.464844-11.203124-11.464844c-3.871094 3.792969-7.597657 7.808594-11.101563 12l12.246094 10.296875c3.175781-3.769531 6.5625-7.417969 10.058593-10.832031zm0 0"/><path d="m224 200h16v16h-16zm0 0"/><path d="m192 200h16v16h-16zm0 0"/><path d="m474.527344 184.414062-42.527344-14.175781v-66.238281c0-13.253906-10.746094-24-24-24s-24 10.746094-24 24v2.769531l-121.664062 53.230469h-54.335938c-24.9375.171875-45.585938 19.410156-47.523438 44.273438-1.933593 24.863281 15.488282 47.066406 40.097657 51.09375l1.378906 16.632812h-77.472656c-12.863281-46.546875 3.429687-96.269531 41.34375-126.179688 37.914062-29.90625 90.0625-34.175781 132.335937-10.828124l7.761719-13.984376c-42.136719-23.316406-93.457031-22.621093-134.945313 1.828126-41.488281 24.449218-66.960937 69.007812-66.976562 117.164062-.089844 19.578125 4.148438 38.9375 12.40625 56.6875 1.007812 2.378906 2.148438 4.695312 3.425781 6.9375 2.332031 4.597656 5.007813 9.015625 8 13.214844 25.394531 37.085937 67.472657 59.230468 112.421875 59.164062 44.949219-.070312 86.960938-22.34375 112.242188-59.507812l-13.296875-8.992188c-14.808594 21.785156-36.390625 38.078125-61.398438 46.351563 1.429688-3.089844 2.179688-6.449219 2.199219-9.855469v-25.367188c11.027344-3.890624 17.644531-15.164062 15.667969-26.691406-1.976563-11.523437-11.972657-19.949218-23.667969-19.941406h-5.992188l-1.207031-14.929688 119.199219 52.160157v2.769531c0 13.253906 10.746094 24 24 24s24-10.746094 24-24v-66.238281l42.527344-14.175781c3.265625-1.089844 5.46875-4.144532 5.472656-7.585938v-32c-.003906-3.441406-2.207031-6.496094-5.472656-7.585938zm-298.527344 23.585938c0-17.671875 14.328125-32 32-32h48v64h-48c-17.671875 0-32-14.328125-32-32zm24 80v64h-2.742188c-10.296874-3.972656-19.988281-9.359375-28.800781-16h15.542969v-16h-16v15.664062c-16.304688-12.277343-29.238281-28.476562-37.601562-47.097656-.085938-.183594-.152344-.382812-.230469-.566406zm80 8c0 4.417969-3.582031 8-8 8s-8 3.582031-8 8v32c0 4.417969-3.582031 8-8 8h-40v-64h56c4.417969 0 8 3.582031 8 8zm-61.992188-24-1.320312-16h31.945312l1.320313 16zm53.992188-29.230469v-69.539062l112-49v167.539062zm144 69.230469c0 4.417969-3.582031 8-8 8s-8-3.582031-8-8v-208c0-4.417969 3.582031-8 8-8s8 3.582031 8 8zm48-93.769531-32 10.664062v-41.789062l32 10.664062zm0 0"/></svg>