<svg height="480pt" viewBox="0 0 480.15972 480" width="480pt" xmlns="http://www.w3.org/2000/svg"><path d="m415.253906 96.484375c2.59375-13.988281-1.1875-28.40625-10.320312-39.316406-9.128906-10.910157-22.65625-17.175781-36.882813-17.085938-7.179687.003907-14.265625 1.648438-20.71875 4.800781-16.988281-26.519531-47.96875-40.585937-79.117187-35.921874-31.144532 4.664062-56.648438 27.191406-65.121094 57.523437-2.035156 7.019531-3.058594 14.292969-3.042969 21.597656 0 2.722657.160157 5.363281.402344 8h-.402344c-35.34375 0-64 28.65625-64 64 0 35.347657 28.65625 64 64 64h208c33.96875.03125 62.042969-26.480469 63.957031-60.394531 1.914063-33.910156-23-63.414062-56.753906-67.203125zm0 0" fill="#3d9ae2"/><path d="m344.050781 312.082031v112c-.023437 8.828125-7.171875 15.976563-16 16h-16v-96c-.023437-8.824219-7.171875-15.972656-16-16h-128v-16c.027344-8.824219 7.175781-15.972656 16-16h144c8.828125.027344 15.976563 7.175781 16 16zm0 0" fill="#009986"/><path d="m312.050781 440.082031v16c-.023437 8.828125-7.171875 15.976563-16 16h-144c-8.824219-.023437-15.972656-7.171875-16-16v-96h176zm0 0" fill="#00ccb3"/><path d="m312.050781 344.082031v16h-176v-16c.027344-8.824219 7.175781-15.972656 16-16h144c8.828125.027344 15.976563 7.175781 16 16zm0 0" fill="#ff6243"/><path d="m287.253906 136.484375c2.59375-13.988281-1.1875-28.40625-10.320312-39.316406-9.128906-10.910157-22.65625-17.175781-36.882813-17.085938-7.179687.003907-14.265625 1.648438-20.71875 4.800781-4.46875-6.90625-9.941406-13.105468-16.238281-18.398437-23.871094-19.777344-57.019531-23.984375-85.074219-10.796875-28.054687 13.1875-45.964843 41.394531-45.96875 72.394531 0 2.722657.160157 5.363281.402344 8h-.402344c-35.34375 0-64 28.65625-64 64 0 35.347657 28.65625 64 64 64h208c26.085938-.003906 49.5625-15.824219 59.363281-40 3.054688-7.632812 4.628907-15.777343 4.636719-24 .003907-32.5625-24.441406-59.933593-56.796875-63.597656zm0 0" fill="#5aaae7"/><path d="m344.453125 232.082031h63.597656c36.691407.054688 67.554688-27.488281 71.65625-63.949219 4.101563-36.460937-19.867187-70.175781-55.65625-78.273437 0-.601563 0-1.191406 0-1.777344-.035156-30.910156-25.085937-55.964843-56-56-6.066406-.003906-12.09375 1-17.832031 2.96875-18.90625-25.089843-49.777344-38.171875-80.957031-34.300781-31.179688 3.867188-57.917969 24.09375-70.121094 53.046875-27.089844-17.210937-61.402344-18.292969-89.527344-2.828125-28.121093 15.464844-45.582031 45.019531-45.5625 77.113281v.441407c-37.992187 4.21875-66.066406 37.398437-63.9375 75.566406 2.125 38.167968 33.710938 68.023437 71.9375 67.992187h208c27.316407-.035156 52.261719-15.527343 64.402344-40zm-64.402344-216c24.523438-.03125 47.359375 12.460938 60.554688 33.128907 2.191406 3.410156 6.585937 4.640624 10.230469 2.863281 5.359374-2.628907 11.25-3.992188 17.214843-3.992188 11.863281-.089843 23.148438 5.128907 30.757813 14.230469s10.75 21.128906 8.5625 32.789062c-.378906 2.171876.15625 4.40625 1.476562 6.171876 1.324219 1.765624 3.316406 2.90625 5.507813 3.152343 29.5625 3.292969 51.390625 29.117188 49.714843 58.816407-1.675781 29.695312-26.273437 52.898437-56.019531 52.839843h-57.855469c4.320313-18.613281 1.035157-38.183593-9.128906-54.363281-10.167968-16.183594-26.367187-27.640625-45.015625-31.828125 0-.605469 0-1.207031 0-1.808594-.035156-30.910156-25.085937-55.964843-56-56-6.070312-.003906-12.105469.992188-17.855469 2.953125-3.003906-3.902344-6.328124-7.546875-9.941406-10.894531 10.152344-28.753906 37.304688-48 67.796875-48.058594zm-264 184c.042969-14.90625 6.007813-29.1875 16.589844-39.695312 10.578125-10.503907 24.902344-16.367188 39.8125-16.304688 2.261719 0 4.414063-.953125 5.933594-2.632812 1.515625-1.675781 2.25-3.914063 2.027343-6.164063-.234374-2.402344-.363281-4.800781-.363281-7.203125-.023437-31.953125 21.03125-60.09375 51.691407-69.09375 30.660156-9 63.582031 3.300781 80.832031 30.199219 2.183593 3.394531 6.554687 4.628906 10.191406 2.878906 5.386719-2.621094 11.296875-3.980468 17.285156-3.984375 22.082031.027344 39.976563 17.921875 40 40-.007812 2.355469-.230469 4.703125-.664062 7.019531-.390625 2.175782.136719 4.421876 1.460937 6.199219 1.324219 1.773438 3.324219 2.921875 5.523438 3.167969 29.410156 3.457031 51.042968 29.214844 49.367187 58.78125-1.671875 29.566406-26.074219 52.714844-55.6875 52.832031h-208c-30.910156-.035156-55.964843-25.085937-56-56zm0 0"/><path d="m408.050781 280.082031h16v48h-16zm0 0"/><path d="m408.050781 344.082031h16v16h-16zm0 0"/><path d="m448.050781 320.082031h16v32h-16zm0 0"/><path d="m448.050781 368.082031h16v16h-16zm0 0"/><path d="m448.050781 400.082031h16v16h-16zm0 0"/><path d="m368.050781 328.082031h16v48h-16zm0 0"/><path d="m368.050781 392.082031h16v16h-16zm0 0"/><path d="m368.050781 440.082031h16v16h-16zm0 0"/><path d="m56.050781 304.082031h16v48h-16zm0 0"/><path d="m56.050781 368.082031h16v16h-16zm0 0"/><path d="m16.050781 336.082031h16v32h-16zm0 0"/><path d="m16.050781 384.082031h16v16h-16zm0 0"/><path d="m16.050781 416.082031h16v16h-16zm0 0"/><path d="m96.050781 328.082031h16v48h-16zm0 0"/><path d="m96.050781 392.082031h16v16h-16zm0 0"/><path d="m96.050781 440.082031h16v16h-16zm0 0"/><path d="m328.050781 288.082031h-144c-13.253906 0-24 10.746094-24 24v8h-8c-13.253906 0-24 10.746094-24 24v112c0 13.257813 10.746094 24 24 24h144c13.257813 0 24-10.742187 24-24v-8h8c13.257813 0 24-10.742187 24-24v-112c0-13.253906-10.742187-24-24-24zm-176 48h144c4.421875 0 8 3.582031 8 8v8h-160v-8c0-4.417969 3.582031-8 8-8zm144 128h-144c-4.417969 0-8-3.582031-8-8v-88h160v88c0 4.417969-3.578125 8-8 8zm40-40c0 4.417969-3.578125 8-8 8h-8v-88c0-13.253906-10.742187-24-24-24h-120v-8c0-4.417969 3.582031-8 8-8h144c4.421875 0 8 3.582031 8 8zm0 0"/><path d="m216.050781 400.082031h16v16h-16zm0 0"/><path d="m248.050781 400.082031h16v16h-16zm0 0"/><path d="m184.050781 400.082031h16v16h-16zm0 0"/></svg>