<svg id="Layer_1" data-name="Layer 1" xmlns="http://www.w3.org/2000/svg" viewBox="0 0 1920 1080"><defs><style>.cls-1{fill:#138690;stroke:#138690;stroke-miterlimit:10;}</style></defs><title>Logo</title><path class="cls-1" d="M1302.37,374.73a41.47,41.47,0,0,0-13.72-47.68l0,0a41.54,41.54,0,0,0-53.14,2.69,236.67,236.67,0,0,0-36-12.18c-55.6-14-114-7.79-164.43,17.42-50.84,25.41-87.59,67.12-103.47,117.43-14.92,47.18-9.72,96.91,14.58,140.6L932.44,665.7a13.28,13.28,0,0,0,14.37,15.68l81.63-8.2a232.47,232.47,0,0,0,53.86,20.87A241.41,241.41,0,0,0,1227.89,685a13.28,13.28,0,0,0-9.69-24.72,214.39,214.39,0,0,1-129.42,8A205.12,205.12,0,0,1,1037.73,648a13.2,13.2,0,0,0-8.79-1.53l-67.11,6.74,11.38-60.07a13.26,13.26,0,0,0-1.62-9.23c-22.56-38.15-27.76-82-14.65-123.49,28.46-90.14,134.37-142.67,236.12-117.1a210,210,0,0,1,29.78,9.89,41.41,41.41,0,0,0,62.55,42.09c41.6,42.62,56.75,101.36,39.51,155.93a160.61,160.61,0,0,1-30.08,54.71,13.28,13.28,0,0,0,20.41,17,187,187,0,0,0,35-63.71C1370.73,494.27,1352.37,424.52,1302.37,374.73Zm-47.69-2.83a14.85,14.85,0,1,1,20.83-2.88A14.87,14.87,0,0,1,1254.67,371.9Z"/><path class="cls-1" d="M1249.33,294.33a67.24,67.24,0,0,1,54.95,12.09,66.56,66.56,0,0,1,26.7,54.25,13.27,13.27,0,0,0,13.15,13.4h.12a13.27,13.27,0,0,0,13.27-13.15,93.88,93.88,0,0,0-113.82-92.54,13.28,13.28,0,1,0,5.63,26Z"/><path class="cls-1" d="M1350.75,245A133.21,133.21,0,0,0,1242,221.05a13.28,13.28,0,0,0,5.64,25.95A106.74,106.74,0,0,1,1377.1,352.23a13.27,13.27,0,0,0,13.16,13.38h.11a13.27,13.27,0,0,0,13.27-13.17A133.87,133.87,0,0,0,1350.75,245Z"/><path class="cls-1" d="M1074.06,754.49c-35.22-24.87-57.17-32.78-86.51-10.58a12.79,12.79,0,0,0-1.7,1.53c-6,.77-28.63-6.53-52-29.93-5.4-5.39-10.9-11.5-16.28-18-5.46-6.77-10.34-13.4-14.47-19.71-18.16-27.6-20.77-51.17-18.82-57a13.48,13.48,0,0,0,1.83-1.34c27.73-24.25,24.43-47.34,7.19-86.84-10.19-25.1-21.74-50.23-40.8-58.07-14.59-6-36.25,2.5-43.35,6.25-16.48,8.68-32.92,25.27-42.91,43.25-18.3,32.82-18.66,74.43-12.88,102.42,17.55,85.17,120.6,211.6,200.46,246A171,171,0,0,0,1019.3,886a125.28,125.28,0,0,0,37.45-5.41c20-6.27,39.12-18.7,51.06-33.23,5.13-6.19,17.8-25.65,14.9-41.16C1118.93,785.94,1096.62,769.55,1074.06,754.49Zm13.27,76c-8.57,10.41-23.69,20.14-38.52,24.79-29,9.1-63.66,1.81-84.52-7.2-33.71-14.51-76.13-50.52-113.47-96.33s-64.09-94.66-71.5-130.63h0c-4.59-22.25-4.71-57.64,10.08-84.15,7.51-13.53,20.11-26.35,32.11-32.68,6-3.17,14.87-5.36,19.14-5.36a6.27,6.27,0,0,1,1.72.19c10.37,4.27,21.56,31.87,26.34,43.65l.14.33c16.55,37.89,12.81,44.78.88,55.38-4,2.35-8.53,6.72-10.92,14.82-5.55,18.83,3.31,50.61,22,79.08,4.61,7,10,14.36,16.07,21.89,6,7.31,12.09,14.06,18.1,20.06,24.11,24.09,53.43,39.19,73,37.57,8.43-.7,13.64-4.25,16.76-7.7,12.79-9.51,20.29-11.78,54.1,12.11l.29.2c10.59,7.06,35.38,23.6,37.41,34.49C1096.89,814.16,1092.38,824.36,1087.33,830.46Z"/><path class="cls-1" d="M1037.46,466.29l-14.41,39-14.41-39,0-.08c-2.3-5.79-6.81-9.13-13.06-9.13a14.33,14.33,0,0,0-10.08,4,13.37,13.37,0,0,0-4.29,9.81,17.28,17.28,0,0,0,.34,3.38c.23.87.45,1.73.75,2.59l0,.12,27.09,68,0,0c1.21,2.75,2.86,6,5.23,7.94s5.68,2.52,8.77,2.52c6.73,0,10.95-4.66,13.32-10.56l27-67.78a16.54,16.54,0,0,0,1.17-6.2,13.38,13.38,0,0,0-4.21-9.85,14.32,14.32,0,0,0-10.12-4C1044.27,457.08,1039.65,460.39,1037.46,466.29Z"/><path class="cls-1" d="M1290.68,466.18c-7-6.69-15.76-9.47-25.31-9.47h-23.14a14.45,14.45,0,0,0-14.48,14.59v68.38a14,14,0,0,0,4.18,10.19,13.9,13.9,0,0,0,19.86,0,13.57,13.57,0,0,0,4.17-9.92v-15.6h10.61c9.33,0,17.94-2.67,24.68-9.33s9.4-15,9.4-24.25C1300.65,481.25,1297.6,472.79,1290.68,466.18Zm-21.14,30.11a7.23,7.23,0,0,1-5.26,2.29H1256V482.83h8.42a6.78,6.78,0,0,1,5.23,2.26,8,8,0,0,1,2.22,5.79A7.37,7.37,0,0,1,1269.54,496.29Z"/><path class="cls-1" d="M1118.88,456.37c-13.25,0-24.83,4.36-34,14-9.29,9.82-13.2,22-13.2,35.46s3.91,25.9,13.28,35.83c9.11,9.66,20.58,14.17,33.82,14.17s24.83-4.55,33.9-14.33,13.2-22,13.2-35.42-3.91-25.72-13.2-35.56C1143.59,460.88,1132.12,456.37,1118.88,456.37Zm12.71,67.33a16.59,16.59,0,0,1-25.69.08c-4-5-5.15-11.54-5.15-17.78s1.24-12.45,5.26-17.33a15.64,15.64,0,0,1,12.76-6,15.39,15.39,0,0,1,12.86,6c3.95,5,5.15,11.35,5.15,17.56S1135.54,518.74,1131.59,523.69Z"/><path class="cls-1" d="M1186.25,460.16a14.08,14.08,0,0,0-4.17,9.92v69.85a14.13,14.13,0,0,0,24.11,10,13.48,13.48,0,0,0,4.1-9.85v-70a14.15,14.15,0,0,0-4-10.08,13.66,13.66,0,0,0-20,.15Z"/><path class="cls-1" d="M1258.68,638.78l-.23.15A13.28,13.28,0,1,0,1273.18,661l.22-.15a13.28,13.28,0,0,0-14.73-22.09Z"/></svg>