<svg id="Layer_1" data-name="Layer 1" xmlns="http://www.w3.org/2000/svg" viewBox="0 0 1920 1080"><defs><style>.cls-1{fill:#138690;stroke:#138690;stroke-miterlimit:10;}</style></defs><title>Logo</title><path class="cls-1" d="M1343.52,258H1040a10.52,10.52,0,0,0-10.48,10.74V540a10.61,10.61,0,0,0,5.7,9.55,11,11,0,0,0,11.06-.64l69.09-49.35h228.18a11,11,0,0,0,10.74-11.09V268.74A10.74,10.74,0,0,0,1343.52,258Zm-10.74,220.09H1111.89a10.22,10.22,0,0,0-6.12,1.83L1051,519.1V279.47h281.82Z"/><path class="cls-1" d="M1128.72,435.2c3.54,0,6.27-1.11,7.08-4.16l6.12-21.39h36.88l6.12,21.39c.81,3.06,3.54,4.17,7.09,4.17,5.64,0,13.2-3.71,13.2-8.7a7,7,0,0,0-.33-1.61L1173.8,323.61c-1.45-4.83-7.41-7.09-13.53-7.09-6,0-11.92,2.25-13.37,7.08l-31.08,101.29a9,9,0,0,0-.32,1.61C1115.51,431.65,1123.08,435.2,1128.72,435.2Zm31.56-91.1,14,49.44h-28Z"/><path class="cls-1" d="M1242.87,435.2c5.15,0,10.74-2.26,10.74-6.61V323.92c0-4.51-5.58-6.44-10.74-6.44-5.32,0-10.74,1.93-10.74,6.44V428.6C1232.14,432.94,1237.56,435.2,1242.87,435.2Z"/><path class="cls-1" d="M1044.43,878A10.59,10.59,0,0,0,1055,867.26V821.78a87.32,87.32,0,0,0-87.16-87.38h-20.2V714.28h63.42a10.1,10.1,0,0,0,10.38-10.33V641.31a40.69,40.69,0,0,0,0-78.88V512.16c0-5.93-4.46-11.26-10.38-11.26H884.56V479.43a10.74,10.74,0,0,0-21.47,0V500.9h-125c-5.93,0-10.56,5.33-10.56,11.26v50.27a40.69,40.69,0,0,0,0,78.88v62.63a10.25,10.25,0,0,0,10.56,10.33h63.25v20.13h-20A87.47,87.47,0,0,0,694,821.78v45.48A10.74,10.74,0,0,0,704.74,878Zm-94.11-21.47H798.68V817.61H950.32Zm80.33-254.66a19.52,19.52,0,0,1-9.21,16.38V585.5A19.53,19.53,0,0,1,1030.65,601.87Zm-312.31,0a19.54,19.54,0,0,1,9.21-16.38v32.75A19.53,19.53,0,0,1,718.34,601.87ZM749,522.37h251V692.81H749Zm73.81,191.9H926.16v20.13H822.83ZM715.47,821.78a66,66,0,0,1,65.86-65.9H967.84a65.83,65.83,0,0,1,65.68,65.9v34.74H971.79V806.72a10.89,10.89,0,0,0-11.07-10.58H788.44c-5.93,0-11.24,4.65-11.24,10.58v49.81H715.47Z"/><path class="cls-1" d="M953,632.42a10.74,10.74,0,0,0-10.74-10.74H806.73A10.74,10.74,0,0,0,796,632.42v36.23a10.74,10.74,0,0,0,10.74,10.74H942.27A10.74,10.74,0,0,0,953,668.65Zm-21.47,25.5H817.46V643.15H931.53Z"/><path class="cls-1" d="M849.67,555.92a10.74,10.74,0,0,0-10.74-10.74H800a10.74,10.74,0,0,0-10.74,10.74v38.92A10.74,10.74,0,0,0,800,605.58h38.92a10.74,10.74,0,0,0,10.74-10.74Zm-38.92,10.74H828.2v16.1H810.75Z"/><path class="cls-1" d="M959.71,555.92A10.74,10.74,0,0,0,949,545.19H910.06a10.74,10.74,0,0,0-10.74,10.74v38.92a10.74,10.74,0,0,0,10.74,10.74H949a10.74,10.74,0,0,0,10.74-10.74ZM920.8,566.66h17.45v16.1H920.8Z"/></svg>