<svg id="Layer_1" data-name="Layer 1" xmlns="http://www.w3.org/2000/svg" viewBox="0 0 1920 1080"><defs><style>.cls-1{fill:#138690;stroke:#138690;stroke-miterlimit:10;}</style></defs><title>Logo</title><path class="cls-1" d="M1202.64,272.43a9.11,9.11,0,0,0-10.2,15.11A165.9,165.9,0,0,1,1153.65,582a184.73,184.73,0,0,0-123.52-137.62,186.63,186.63,0,0,0,1-19.28A183.29,183.29,0,0,0,986,304.48a166.07,166.07,0,0,1,168.49-36,9.11,9.11,0,1,0,6-17.21,184.29,184.29,0,0,0-187.12,40A183.41,183.41,0,0,0,847.07,241C745.57,241,663,323.61,663,425.1a182.45,182.45,0,0,0,37.33,111.15,185.61,185.61,0,0,0,90,64A184.13,184.13,0,0,0,847.72,754L828.7,811c-2.46,7.38,5.31,14.4,12.42,11.18l67.13-30.51a183.15,183.15,0,0,0,65.18,11.89c101.5,0,184.07-82.57,184.07-184.07a185.35,185.35,0,0,0-1-19.24,185.55,185.55,0,0,0,89.35-63.13,184.11,184.11,0,0,0-43.21-264.7ZM681.22,425.1c0-91.45,74.4-165.84,165.84-165.84s165.84,74.4,165.84,165.84c0,4.82-.23,9.66-.65,14.46a184.1,184.1,0,0,0-38.84-4.14c-88.65,0-162.86,63-180.22,146.57C726.92,559.23,681.22,495.71,681.22,425.1Zm292.2,360.24a165,165,0,0,1-62-12,9.13,9.13,0,0,0-7.18.15L852.6,797l14.29-42.88a9.12,9.12,0,0,0-2.64-9.74A165.92,165.92,0,0,1,807.58,619.5c0-91.45,74.4-165.84,165.84-165.84s165.84,74.4,165.84,165.84S1064.87,785.35,973.43,785.35Z"/><path class="cls-1" d="M1138.66,352.81c-23.78,0-43.13,23.71-43.13,52.85s19.35,52.85,43.13,52.85a36.23,36.23,0,0,0,15-3.29,9.11,9.11,0,0,0,1.71-15.59l-5-3.72,6.56-8.75,6.72,5a9.11,9.11,0,0,0,14-4,62.72,62.72,0,0,0,4.09-22.52C1181.8,376.52,1162.45,352.81,1138.66,352.81Zm24.78,56.4-2.79-2.09a9.11,9.11,0,0,0-12.76,1.82l-17.49,23.33a9.11,9.11,0,0,0-1.81,4.95c-8.65-5.49-14.84-17.74-14.84-31.56,0-18.77,11.41-34.63,24.91-34.63s24.91,15.86,24.91,34.63Q1163.57,407.46,1163.44,409.21Z"/><path class="cls-1" d="M1222.86,453.78l-18.51-13.88a91.37,91.37,0,0,0,6.61-34.23c0-45.22-32.43-82-72.29-82s-72.29,36.79-72.29,82,32.43,82,72.29,82a65.33,65.33,0,0,0,35.94-10.86l19.83,14.87a9.21,9.21,0,0,0,12.76-1.82l17.49-23.33A9.11,9.11,0,0,0,1222.86,453.78Zm-24.78,17.86-17.91-13.43a9.2,9.2,0,0,0-11.18.19,48.12,48.12,0,0,1-30.32,11.06c-29.81,0-54.07-28.62-54.07-63.79s24.25-63.79,54.07-63.79,54.07,28.62,54.07,63.79a72.18,72.18,0,0,1-7.82,32.94,9.11,9.11,0,0,0,2.63,11.46l17.09,12.82Z"/><path class="cls-1" d="M881.09,333.37H788.75a23.72,23.72,0,0,0-23.69,23.69V483.42a9.11,9.11,0,0,0,9.11,9.11h29.16a9.11,9.11,0,0,0,9.11-9.11V439.08h49.21a9.11,9.11,0,0,0,9.11-9.11V400.8a9.11,9.11,0,0,0-9.11-9.11H812.44V380.76h68.65a9.11,9.11,0,0,0,9.11-9.11V342.49A9.11,9.11,0,0,0,881.09,333.37ZM872,362.53H803.33a9.11,9.11,0,0,0-9.11,9.11v29.16a9.11,9.11,0,0,0,9.11,9.11h49.21v10.94H803.33a9.11,9.11,0,0,0-9.11,9.11v44.35H783.28V357.07a5.47,5.47,0,0,1,5.47-5.47H872v10.93Z"/><path class="cls-1" d="M1059.46,670.54,994.62,540.87a23.69,23.69,0,0,0-42.38,0L887.4,670.54a9.2,9.2,0,0,0,4.08,12.23l26.08,13a9.2,9.2,0,0,0,12.23-4.08l14.55-29.1h58.19l14.55,29.1a9.21,9.21,0,0,0,12.23,4.08l26.08-13A9.12,9.12,0,0,0,1059.46,670.54Zm-30.16,4.89-13-26a9.11,9.11,0,0,0-8.15-5H938.7a9.11,9.11,0,0,0-8.15,5l-13,26-9.78-4.89,20.35-40.69c.12-.24.23-.48.32-.73s.27-.46.39-.69L968.54,549a5.47,5.47,0,0,1,9.78,0L1018,628.44c.12.24.25.47.39.7s.2.49.32.72l20.35,40.69Z"/><path class="cls-1" d="M1001.73,620.29,981.58,580a9.11,9.11,0,0,0-16.3,0l-20.15,40.3a9.2,9.2,0,0,0,8.15,13.19h40.3A9.2,9.2,0,0,0,1001.73,620.29Zm-33.7-5,5.4-10.81,5.4,10.81Z"/></svg>