<svg height="480pt" viewBox="0 0 480 480.00122" width="480pt" xmlns="http://www.w3.org/2000/svg"><path d="m400 175.28125v18.191406c-9.554688 3.378906-15.957031 12.394532-16 22.527344v64c0 13.257812 10.746094 24 24 24s24-10.742188 24-24v-64c-.042969-10.132812-6.445312-19.148438-16-22.527344v-18.191406c24.605469-4.160156 41.917969-26.476562 39.832031-51.34375-2.085937-24.863281-22.878906-43.984375-47.832031-43.984375s-45.746094 19.121094-47.832031 43.984375c-2.085938 24.867188 15.226562 47.183594 39.832031 51.34375zm16 104.71875c0 4.417969-3.582031 8-8 8s-8-3.582031-8-8v-64c0-4.417969 3.582031-8 8-8s8 3.582031 8 8zm-8-184c17.671875 0 32 14.328125 32 32 0 17.675781-14.328125 32-32 32s-32-14.324219-32-32c0-17.671875 14.328125-32 32-32zm0 0"/><path d="m32 96h16v16h-16zm0 0"/><path d="m64 96h48v16h-48zm0 0"/><path d="m32 144h80v16h-80zm0 0"/><path d="m32 192h80v16h-80zm0 0"/><path d="m32 240h16v16h-16zm0 0"/><path d="m64 240h48v16h-48zm0 0"/><path d="m440 48h-112.503906c-19.046875-29.898438-52.042969-48-87.496094-48-35.449219 0-68.445312 18.101562-87.496094 48h-112.503906c-22.078125.027344-39.9726562 17.921875-40 40v256c.0273438 22.082031 17.921875 39.976562 40 40h157.761719l-12.257813 49.007812c-11.535156 3.21875-18.917968 14.46875-17.28125 26.335938 1.640625 11.863281 11.800782 20.691406 23.777344 20.65625h96c11.976562.035156 22.136719-8.792969 23.777344-20.65625 1.640625-11.867188-5.742188-23.117188-17.28125-26.335938l-12.253906-49.007812h157.757812c22.082031-.023438 39.972656-17.917969 40-40v-256c-.027344-22.078125-17.917969-39.972656-40-40zm-112.40625 48h-47.730469c-.308593-12.894531-1.566406-25.75-3.765625-38.460938 9.660156-3.578124 18.730469-8.582031 26.902344-14.851562 14.082031 14.417969 22.765625 33.246094 24.59375 53.3125zm-127.457031 16c.308593 12.898438 1.570312 25.753906 3.769531 38.464844-9.664062 3.574218-18.730469 8.582031-26.90625 14.847656-14.082031-14.414062-22.765625-33.242188-24.589844-53.3125zm39.863281-96c4.710938 0 12 10.457031 17.304688 30.25-5.695313 1.152344-11.492188 1.738281-17.304688 1.75-5.8125-.011719-11.605469-.597656-17.304688-1.75 5.304688-19.792969 12.59375-30.25 17.304688-30.25zm-32.582031 25.722656c-6.332031-2.515625-12.34375-5.765625-17.914063-9.679687 7.972656-5.617188 16.828125-9.859375 26.199219-12.554688-3.546875 7.09375-6.324219 14.546875-8.285156 22.234375zm56.878906-22.234375c9.371094 2.695313 18.226563 6.9375 26.199219 12.554688-5.570313 3.914062-11.582032 7.164062-17.910156 9.679687-1.964844-7.6875-4.742188-15.140625-8.289063-22.234375zm-24.296875 44.511719c6.941406-.019531 13.863281-.734375 20.664062-2.125 1.867188 11.285156 2.933594 22.6875 3.199219 34.125h-47.726562c.265625-11.4375 1.335937-22.839844 3.199219-34.125 6.800781 1.390625 13.722656 2.105469 20.664062 2.125zm23.863281 48c-.265625 11.4375-1.332031 22.84375-3.199219 34.128906-13.628906-2.835937-27.699218-2.835937-41.328124 0-1.863282-11.285156-2.933594-22.691406-3.199219-34.128906zm-56.445312 54.28125c1.960937 7.683594 4.738281 15.136719 8.285156 22.230469-9.367187-2.679688-18.222656-6.910157-26.199219-12.511719 5.570313-3.929688 11.582032-7.191406 17.914063-9.71875zm15.277343-4.527344c11.417969-2.335937 23.191407-2.335937 34.609376 0-5.304688 19.792969-12.59375 30.246094-17.304688 30.246094s-12-10.453125-17.304688-30.246094zm49.890626 4.527344c6.328124 2.527344 12.339843 5.789062 17.910156 9.71875-7.972656 5.617188-16.828125 9.859375-26.199219 12.554688 3.550781-7.109376 6.328125-14.574219 8.289063-22.273438zm30.398437-.96875c-8.175781-6.265625-17.242187-11.273438-26.902344-14.847656 2.203125-12.710938 3.46875-25.566406 3.78125-38.464844h47.730469c-1.828125 20.070312-10.511719 38.898438-24.59375 53.3125zm-125.984375-122.625c8.175781 6.269531 17.242188 11.273438 26.90625 14.851562-2.199219 12.710938-3.460938 25.566407-3.769531 38.460938h-47.726563c1.824219-20.066406 10.507813-38.894531 24.589844-53.3125zm-137 21.3125h104c-18.125 43.5-4.734375 93.75 32.632812 122.464844 37.367188 28.714844 89.371094 28.714844 126.738282 0 37.363281-28.714844 50.753906-78.964844 32.628906-122.464844h104c13.253906 0 24 10.746094 24 24v232h-448v-232c0-13.253906 10.746094-24 24-24zm248 400h-96c-4.417969 0-8-3.582031-8-8s3.582031-8 8-8h96c4.417969 0 8 3.582031 8 8s-3.582031 8-8 8zm-10.246094-32h-75.503906l12-48h51.503906zm162.246094-64h-400c-13.253906 0-24-10.742188-24-24v-8h448v8c0 13.257812-10.746094 24-24 24zm0 0"/><path d="m224 344h32v16h-32zm0 0"/></svg>