<svg id="Layer_1" data-name="Layer 1" xmlns="http://www.w3.org/2000/svg" viewBox="0 0 429.96 427.91"><defs><style>.cls-1{fill:none;}.cls-1,.cls-2{stroke:#138690;stroke-miterlimit:10;stroke-width:2px;}.cls-2{fill:#138690;}</style></defs><title>HyperLedger Blockchain</title><polygon class="cls-1" points="280.46 297.81 101.83 232.95 247.32 110.68 280.46 297.81"/><polygon class="cls-1" points="319.72 197.09 174.23 319.35 141.09 132.22 319.72 197.09"/><polygon class="cls-1" points="315.5 369.46 128.78 386.38 20.77 233.15 99.47 62.98 286.18 46.06 394.2 199.3 315.5 369.46"/><polygon class="cls-1" points="141.09 132.22 285.45 46.47 319.72 197.09 141.09 132.22"/><polygon class="cls-1" points="141.09 132.22 174.23 319.35 20.77 233.15 141.09 132.22"/><polygon class="cls-1" points="101.66 232.95 128.85 384.68 280.29 297.81 101.66 232.95"/><polygon class="cls-1" points="99.47 62.98 101.66 232.95 247.32 110.68 99.47 62.98"/><polygon class="cls-1" points="315.5 369.46 319.72 197.09 174.23 319.35 315.5 369.46"/><polygon class="cls-1" points="247.32 110.68 394.2 199.3 280.29 297.81 247.32 110.68"/><circle class="cls-2" cx="247.32" cy="110.68" r="17.23"/><circle class="cls-2" cx="279.29" cy="297.81" r="17.23"/><circle class="cls-2" cx="101.66" cy="228.87" r="17.23"/><circle class="cls-2" cx="97.5" cy="61.97" r="17.23"/><circle class="cls-2" cx="389.27" cy="197.09" r="17.23"/><circle class="cls-2" cx="131.57" cy="380.36" r="17.23"/></svg>