<svg id="Layer_1" data-name="Layer 1" xmlns="http://www.w3.org/2000/svg" viewBox="0 0 1920 1080"><defs><style>.cls-1{fill:#138690;stroke:#138690;stroke-miterlimit:10;}</style></defs><title>Logo</title><path class="cls-1" d="M1113,460.66H951.64a3.89,3.89,0,0,1-3.89-3.89V347.31a3.89,3.89,0,0,1,3.89-3.89H1113a3.89,3.89,0,0,1,3.89,3.89V456.77A3.89,3.89,0,0,1,1113,460.66Zm-157.5-7.78h153.61V351.21H955.53Z"/><path class="cls-1" d="M951.64,460.66H790.27a3.89,3.89,0,0,1-3.89-3.89V347.31a3.89,3.89,0,0,1,3.89-3.89H951.64a3.89,3.89,0,0,1,3.89,3.89V456.77A3.89,3.89,0,0,1,951.64,460.66Zm-157.48-7.78H947.75V351.21H794.16Z"/><path class="cls-1" d="M790.27,460.66H672.39a3.89,3.89,0,0,1-3.89-3.89V347.31a3.89,3.89,0,0,1,3.89-3.89H790.27a3.89,3.89,0,0,1,3.89,3.89V456.77A3.89,3.89,0,0,1,790.27,460.66Zm-114-7.78H786.38V351.21H676.29Z"/><path class="cls-1" d="M833.77,570.18H672.39a3.89,3.89,0,0,1-3.89-3.89V456.77a3.89,3.89,0,0,1,3.89-3.89H833.77a3.89,3.89,0,0,1,3.89,3.89V566.28A3.89,3.89,0,0,1,833.77,570.18Zm-157.49-7.78H829.88V460.66H676.29Z"/><path class="cls-1" d="M995.14,570.18H833.77a3.89,3.89,0,0,1-3.89-3.89V456.77a3.89,3.89,0,0,1,3.89-3.89H995.14a3.89,3.89,0,0,1,3.89,3.89V566.28A3.89,3.89,0,0,1,995.14,570.18Zm-157.48-7.78H991.25V460.66H837.66Z"/><path class="cls-1" d="M1113,570.18h-4.42a3.89,3.89,0,0,1-3.21-1.69,48.66,48.66,0,0,0-80.46,0,3.89,3.89,0,0,1-3.21,1.69H995.14a3.89,3.89,0,0,1-3.89-3.89V456.77a3.89,3.89,0,0,1,3.89-3.89H1113a3.89,3.89,0,0,1,3.89,3.89V566.28A3.89,3.89,0,0,1,1113,570.18Zm-114-7.78h20.69a56.41,56.41,0,0,1,89.42-1.89V460.66H999Z"/><path class="cls-1" d="M992.4,679.57H951.64a3.89,3.89,0,0,1-3.89-3.89V566.28a3.89,3.89,0,0,1,3.89-3.89h70.09a3.89,3.89,0,0,1,3.21,6.09A48.34,48.34,0,0,0,1016.4,596v19.38a3.89,3.89,0,0,1-3.89,3.89H996.29v56.45A3.89,3.89,0,0,1,992.4,679.57Zm-36.86-7.78h33V615.34a3.89,3.89,0,0,1,3.89-3.89h16.22V596a56,56,0,0,1,6.26-25.79H955.53ZM1113,577.92a3.88,3.88,0,0,1-3.51-2.23,53.29,53.29,0,0,0-4.12-7.21,3.89,3.89,0,0,1,3.21-6.09H1113a3.89,3.89,0,0,1,3.89,3.89V574a3.92,3.92,0,0,1-3.89,3.89Z"/><path class="cls-1" d="M951.64,679.57H790.27a3.89,3.89,0,0,1-3.89-3.89V566.28a3.89,3.89,0,0,1,3.89-3.89H951.64a3.89,3.89,0,0,1,3.89,3.89v109.4A3.89,3.89,0,0,1,951.64,679.57Zm-157.48-7.78H947.75V570.18H794.16Z"/><path class="cls-1" d="M790.27,679.57H672.39a3.89,3.89,0,0,1-3.89-3.89V566.28a3.89,3.89,0,0,1,3.89-3.89H790.27a3.89,3.89,0,0,1,3.89,3.89v109.4A3.89,3.89,0,0,1,790.27,679.57Zm-114-7.78H786.38V570.18H676.29Z"/><path class="cls-1" d="M1112.85,737h-93.47a30.94,30.94,0,0,1-30.87-30.94V615.34a3.89,3.89,0,0,1,3.89-3.89H1138a3.89,3.89,0,0,1,3.89,3.89V708A29.06,29.06,0,0,1,1112.85,737ZM996.29,619.23v86.83a23.14,23.14,0,0,0,23.09,23.15h93.47A21.27,21.27,0,0,0,1134.12,708V619.23Z"/><path class="cls-1" d="M1078.82,710.29h-26.07a3.89,3.89,0,0,1-3.76-4.89l6.81-25.76a18.37,18.37,0,1,1,20,0l6.83,25.75a3.89,3.89,0,0,1-3.76,4.89Zm-21-7.78h16l-6.33-23.88a3.89,3.89,0,0,1,2.32-4.62,10.5,10.5,0,0,0,6.6-9.85A10.6,10.6,0,1,0,1061.8,674a3.88,3.88,0,0,1,2.31,4.6Z"/><path class="cls-1" d="M1117.84,619.23H1012.51a3.89,3.89,0,0,1-3.89-3.89V596a56.55,56.55,0,0,1,113.11,0v19.38A3.89,3.89,0,0,1,1117.84,619.23Zm-101.43-7.78h97.54V596a48.77,48.77,0,0,0-97.54,0Z"/></svg>