<svg id="Layer_1" data-name="Layer 1" xmlns="http://www.w3.org/2000/svg" viewBox="0 0 544 546"><defs><style>.cls-1{fill:#138690;stroke:#138690;stroke-miterlimit:10;}</style></defs><title>LogoStroke4</title><path class="cls-1" d="M426.36,276.13l-20.78-20.78a10,10,0,0,0-7.07-2.93h-12v-20.3h32.82a10,10,0,0,0,0-20H386.47v-20.3h12a10,10,0,0,0,7.07-2.93l20.78-20.78A10,10,0,0,0,412.21,154l-17.85,17.85h-18v-5.11a40.05,40.05,0,0,0-10.07-26.58V120.94a10,10,0,0,0-20,0v6.85a40.3,40.3,0,0,0-20.3,0v-6.85a10,10,0,0,0-20,0v19.19a40,40,0,0,0-10.07,26.58v5.11H278L260.13,154A10,10,0,0,0,246,168.12l20.78,20.78a10,10,0,0,0,7.07,2.93h12v20.3H253.06a10,10,0,1,0,0,20h32.82v20.3h-12a10,10,0,0,0-7.07,2.93L246,276.13a10,10,0,1,0,14.14,14.14L278,272.42h8.9a50.3,50.3,0,0,0,98.59,0h8.9l17.85,17.85a10,10,0,0,0,14.14-14.14ZM336.17,146.49a20.25,20.25,0,0,1,20.22,20.22v5.11H315.95v-5.11h0A20.25,20.25,0,0,1,336.17,146.49Zm30.3,115.93A30.34,30.34,0,0,1,346.17,291V222.13a10,10,0,1,0-20,0V291a30.35,30.35,0,0,1-20.3-28.59v-70.6h60.59Z"/><path class="cls-1" d="M336.17,20C230.4,20,144.35,106.06,144.35,211.83a190.77,190.77,0,0,0,35.87,111.56l-18,18-.49-.49a10,10,0,0,0-14.14,0L28.29,460.19a42.09,42.09,0,0,0,59.52,59.52l119.3-119.3a10,10,0,0,0,0-14.14l-.49-.49,18-18a190.78,190.78,0,0,0,111.57,35.87C441.95,403.66,528,317.6,528,211.83S441.95,20,336.17,20ZM73.67,505.57a22.09,22.09,0,0,1-31.23-31.24L154.66,362.1l.45.45,0,0,30.25,30.25.49.49ZM192.47,371.63l-.25-.25-15.86-15.86,16.42-16.42a193.59,193.59,0,0,0,16.11,16.11Zm143.7,12c-94.75,0-171.83-77.08-171.83-171.83S241.43,40,336.17,40,508,117.08,508,211.83,430.92,383.66,336.17,383.66Z"/><path class="cls-1" d="M480.55,164.86a10,10,0,1,0-19,6.19,131.5,131.5,0,0,1,2,74.9,10,10,0,1,0,19.32,5.18A151.47,151.47,0,0,0,480.55,164.86Z"/><path class="cls-1" d="M467.85,136.25l-.17-.31a10,10,0,0,0-17.34,10l.15.27a10,10,0,0,0,17.37-9.92Z"/></svg>