<svg id="Layer_1" data-name="Layer 1" xmlns="http://www.w3.org/2000/svg" xmlns:xlink="http://www.w3.org/1999/xlink" viewBox="0 0 1920 1080"><defs><style>.cls-1{fill:#138690;stroke:#138690;stroke-miterlimit:10;}.cls-2{fill:url(#linear-gradient);}.cls-3{fill:url(#linear-gradient-2);}</style><linearGradient id="linear-gradient" x1="16484.68" y1="26643.36" x2="16496.34" y2="26653.4" gradientTransform="translate(-151342.28 -248730.7) scale(9.26 9.35)" gradientUnits="userSpaceOnUse"><stop offset="0" stop-color="#5ca0d5"/><stop offset="1" stop-color="#316a99"/></linearGradient><linearGradient id="linear-gradient-2" x1="16500.87" y1="26659.46" x2="16496.71" y2="26653.57" gradientTransform="translate(-151342.28 -248730.7) scale(9.26 9.35)" gradientUnits="userSpaceOnUse"><stop offset="0" stop-color="#ffd43e"/><stop offset="1" stop-color="#ffe975"/></linearGradient></defs><title>Logo</title><path class="cls-1" d="M554.39,430H609V682.87c-28,5.32-48.6,7.45-70.95,7.45-66.69,0-101.46-30.15-101.46-88,0-55.69,36.89-91.88,94-91.88a87.35,87.35,0,0,1,23.77,2.84Zm0,127.29a54.27,54.27,0,0,0-18.45-2.84c-27.67,0-43.63,17-43.63,46.82,0,29.09,15.26,45.05,43.28,45.05a127.2,127.2,0,0,0,18.8-1.42Z"/><path class="cls-1" d="M695.93,514.36V641c0,43.63-3.19,64.56-12.77,82.66C674.29,741,662.58,752,638.46,764.1L587.73,740c24.12-11.35,35.83-21.28,43.28-36.54,7.81-15.61,10.29-33.7,10.29-81.23V514.36h54.63ZM641.3,430.29h54.63v56H641.3Zm87.63,96.49a164.37,164.37,0,0,1,72.37-16.31c28,0,46.47,7.45,54.63,22,4.61,8.16,6,18.8,6,41.51V685c-24.48,3.55-55.34,6-78,6-45.76,0-66.34-16-66.34-51.44,0-38.32,27.32-56.05,94.36-61.73V565.8c0-9.93-5-13.48-18.8-13.48-20.22,0-42.92,5.68-64.21,16.67V526.78Zm85.5,86.91c-36.19,3.55-47.89,9.22-47.89,23.41,0,10.64,6.74,15.61,21.64,15.61a150.71,150.71,0,0,0,26.25-2.48Zm74.14-90.81c32.28-8.51,58.88-12.41,85.85-12.41,28,0,48.25,6.38,60.31,18.8,11.35,11.7,14.9,24.47,14.9,51.79V688.19H995v-105c0-20.93-7.09-28.74-26.6-28.74-7.45,0-14.19.71-25.19,3.9V688.19H888.56ZM1070.85,718a124.34,124.34,0,0,0,58.53,14.54c35.82,0,51.08-14.54,51.08-49.31v-1.06c-10.64,5.32-21.29,7.45-35.47,7.45-47.89,0-78.4-31.57-78.4-81.59,0-62.08,45.06-97.2,124.87-97.2,23.41,0,45.06,2.48,71.3,7.8L1244.05,558c-14.54-2.84-1.16-.38-12.16-1.44v5.68l.71,23.05.35,29.8c.35,7.45.35,14.9.71,22.35v14.9c0,46.82-3.9,68.82-15.61,86.91-17,26.61-46.47,39.73-88.33,39.73-21.29,0-39.73-3.19-58.88-10.64V718ZM1179.4,554.8h-5.67c-10.64-.35-23.05,2.48-31.57,7.8-13.12,7.45-19.87,20.93-19.87,40.09,0,27.32,13.49,42.93,37.61,42.93,7.45,0,13.48-1.42,20.57-3.55v-18.8c0-6.39-.35-13.49-.35-20.93l-.35-25.18-.36-18.09V554.8Zm168.17-45.05c54.63,0,88,34.41,88,90.1,0,57.12-34.76,92.94-90.1,92.94-54.63,0-88.34-34.41-88.34-89.75,0-57.47,34.77-93.3,90.46-93.3Zm-1.07,139.06c20.93,0,33.35-17.38,33.35-47.54,0-29.8-12.06-47.53-33-47.53-21.64,0-34.06,17.39-34.06,47.53s12.42,47.54,33.7,47.54Z"/><path class="cls-2" d="M1346.61,294a125.07,125.07,0,0,0-22.62,2c-20.1,3.51-23.63,10.81-23.63,24.63v18.1h47.25v6h-64.84c-13.58,0-25.63,8.29-29.4,23.87-4.28,18.1-4.52,29.15,0,48,3.27,14.08,11.32,23.87,25.14,23.87h16.34V419c0-15.58,13.58-29.4,29.4-29.4h47a23.87,23.87,0,0,0,23.63-24.13v-45c0-12.81-10.81-22.37-23.63-24.63A138.24,138.24,0,0,0,1346.61,294ZM1321,308.37a9,9,0,1,1-8.8,9A8.8,8.8,0,0,1,1321,308.37Z"/><path class="cls-3" d="M1400.64,344.31v20.86c0,16.34-13.82,29.9-29.66,29.9h-47c-12.81,0-23.63,11.06-23.63,24.13v45c0,12.81,11.06,20.36,23.63,24.13,14.83,4.52,29.15,5.28,47.25,0,11.81-3.51,23.63-10.31,23.63-24.13v-18.1H1347.6v-6h70.88c13.58,0,18.85-9.54,23.63-23.87,5-14.83,4.78-28.89,0-48-3.27-13.58-9.8-23.87-23.63-23.87ZM1374,458.16a9,9,0,1,1-8.8,9A9,9,0,0,1,1374,458.16Z"/></svg>