<svg id="Capa_1" enable-background="new 0 0 512 512" height="512" viewBox="0 0 512 512" width="512" xmlns="http://www.w3.org/2000/svg"><path d="m384.52 309.185c31.906 0 57.864-25.958 57.864-57.864s-25.958-57.863-57.864-57.863-57.864 25.957-57.864 57.863c-.001 31.906 25.957 57.864 57.864 57.864zm0-85.728c15.364 0 27.864 12.499 27.864 27.863s-12.5 27.864-27.864 27.864-27.864-12.5-27.864-27.864c-.001-15.364 12.499-27.863 27.864-27.863z"/><path d="m85.933 294.846c4.821 0 9.642-1.978 9.642-5.934v-29.79h8.159l16.935 32.881c1.359 2.596 3.708 3.584 6.181 3.584 5.686 0 12.113-5.191 12.113-10.012 0-.618-.123-1.483-.618-2.226l-15.08-27.318c8.652-3.337 14.957-11.248 14.957-25.093 0-20.149-13.474-26.453-30.408-26.453h-25.589c-3.585 0-5.934 2.72-5.934 5.811v78.616c0 3.956 4.821 5.934 9.642 5.934zm9.641-73.549h12.238c6.922 0 11.125 2.843 11.125 11.496 0 8.652-4.203 11.496-11.125 11.496h-12.238z"/><path d="m156.888 294.846h44.005c4.079 0 5.811-4.326 5.811-8.282 0-4.573-2.102-8.529-5.811-8.529h-33.128v-21.014h18.542c4.079 0 5.81-3.955 5.81-7.293 0-3.956-2.102-7.54-5.81-7.54h-18.542v-20.891h33.128c3.709 0 5.811-3.955 5.811-8.529 0-3.955-1.731-8.282-5.811-8.282h-44.005c-4.203 0-8.406 1.979-8.406 5.934v78.493c-.001 3.955 4.203 5.933 8.406 5.933z"/><path d="m242.921 295.587c17.677 0 31.026-9.394 31.026-25.834 0-7.417-3.09-9.147-9.765-9.147-4.944 0-9.147 1.236-9.518 5.81-.37 4.821-.988 12.361-10.878 12.361-7.169 0-11.248-3.956-11.248-12.361v-32.757c0-8.405 4.079-12.361 11.125-12.361 10.507 0 10.878 7.911 11.001 11.125.247 4.45 4.45 5.809 9.642 5.809 6.552 0 9.642-1.73 9.642-9.147 0-15.698-13.35-24.599-31.026-24.599-16.192 0-29.666 7.911-29.666 29.173v32.757c-.001 21.26 13.473 29.171 29.665 29.171z"/><path d="m485 129.391h-458c-14.888 0-27 12.112-27 27v199.219c0 14.888 12.112 27 27 27h458c14.888 0 27-12.112 27-27v-199.219c0-14.888-12.112-27-27-27zm-3 223.218h-452v-193.218h452z"/></svg>